<?xml version="1.0" encoding="UTF-8" standalone="no"?>
<!DOCTYPE svg PUBLIC "-//W3C//DTD SVG 1.1//EN"
 "http://www.w3.org/Graphics/SVG/1.1/DTD/svg11.dtd">
<!-- Generated by graphviz version 10.0.1 (20240210.2158)
 -->
<!-- Title: hybrid&#45;renderer&#45;lib/include/renderer_internal/buffer.h Pages: 1 -->
<svg width="509pt" height="176pt"
 viewBox="0.00 0.00 509.25 176.00" xmlns="http://www.w3.org/2000/svg" xmlns:xlink="http://www.w3.org/1999/xlink">
<g id="graph0" class="graph" transform="scale(1 1) rotate(0) translate(4 172)">
<title>hybrid&#45;renderer&#45;lib/include/renderer_internal/buffer.h</title>
<!-- Node1 -->
<g id="Node000001" class="node">
<title>Node1</title>
<g id="a_Node000001"><a xlink:title=" ">
<polygon fill="#999999" stroke="#666666" points="207.25,-168 82.5,-168 82.5,-124 207.25,-124 207.25,-168"/>
<text text-anchor="start" x="90.5" y="-154.5" font-family="Helvetica,sans-Serif" font-size="10.00">hybrid&#45;renderer&#45;lib</text>
<text text-anchor="start" x="90.5" y="-142.5" font-family="Helvetica,sans-Serif" font-size="10.00">/include/renderer_internal</text>
<text text-anchor="middle" x="144.88" y="-130.5" font-family="Helvetica,sans-Serif" font-size="10.00">/buffer.h</text>
</a>
</g>
</g>
<!-- Node2 -->
<g id="Node000002" class="node">
<title>Node2</title>
<g id="a_Node000002"><a xlink:title=" ">
<polygon fill="#e0e0e0" stroke="#999999" points="85.75,-20 0,-20 0,0 85.75,0 85.75,-20"/>
<text text-anchor="middle" x="42.88" y="-6.5" font-family="Helvetica,sans-Serif" font-size="10.00">vk_mem_alloc.h</text>
</a>
</g>
</g>
<!-- Node1&#45;&gt;Node2 -->
<g id="edge1_Node000001_Node000002" class="edge">
<title>Node1&#45;&gt;Node2</title>
<g id="a_edge1_Node000001_Node000002"><a xlink:title=" ">
<path fill="none" stroke="#63b8ff" d="M128.71,-123.77C108.87,-97.69 75.53,-53.9 56.78,-29.27"/>
<polygon fill="#63b8ff" stroke="#63b8ff" points="59.69,-27.31 50.85,-21.48 54.12,-31.55 59.69,-27.31"/>
</a>
</g>
</g>
<!-- Node3 -->
<g id="Node000003" class="node">
<title>Node3</title>
<g id="a_Node000003"><a xlink:title=" ">
<polygon fill="#e0e0e0" stroke="#999999" points="185.5,-20 104.25,-20 104.25,0 185.5,0 185.5,-20"/>
<text text-anchor="middle" x="144.88" y="-6.5" font-family="Helvetica,sans-Serif" font-size="10.00">vulkan/vulkan.h</text>
</a>
</g>
</g>
<!-- Node1&#45;&gt;Node3 -->
<g id="edge2_Node000001_Node000003" class="edge">
<title>Node1&#45;&gt;Node3</title>
<g id="a_edge2_Node000001_Node000003"><a xlink:title=" ">
<path fill="none" stroke="#63b8ff" d="M144.88,-123.77C144.88,-98.5 144.88,-56.61 144.88,-31.62"/>
<polygon fill="#63b8ff" stroke="#63b8ff" points="148.38,-31.78 144.88,-21.78 141.38,-31.78 148.38,-31.78"/>
</a>
</g>
</g>
<!-- Node4 -->
<g id="Node000004" class="node">
<title>Node4</title>
<g id="a_Node000004"><a xlink:href="render__context_8h.html" target="_top" xlink:title=" ">
<polygon fill="white" stroke="#666666" points="290.88,-88 172.88,-88 172.88,-56 290.88,-56 290.88,-88"/>
<text text-anchor="start" x="180.88" y="-74.5" font-family="Helvetica,sans-Serif" font-size="10.00">renderer_internal/render</text>
<text text-anchor="middle" x="231.88" y="-62.5" font-family="Helvetica,sans-Serif" font-size="10.00">_context.h</text>
</a>
</g>
</g>
<!-- Node1&#45;&gt;Node4 -->
<g id="edge3_Node000001_Node000004" class="edge">
<title>Node1&#45;&gt;Node4</title>
<g id="a_edge3_Node000001_Node000004"><a xlink:title=" ">
<path fill="none" stroke="#63b8ff" d="M170.51,-123.79C181.24,-114.91 193.72,-104.58 204.62,-95.56"/>
<polygon fill="#63b8ff" stroke="#63b8ff" points="206.69,-98.39 212.16,-89.32 202.22,-93 206.69,-98.39"/>
</a>
</g>
</g>
<!-- Node4&#45;&gt;Node2 -->
<g id="edge8_Node000004_Node000002" class="edge">
<title>Node4&#45;&gt;Node2</title>
<g id="a_edge8_Node000004_Node000002"><a xlink:title=" ">
<path fill="none" stroke="#63b8ff" d="M183.2,-55.55C152.26,-45.73 112.68,-33.16 83.45,-23.88"/>
<polygon fill="#63b8ff" stroke="#63b8ff" points="84.82,-20.64 74.23,-20.95 82.7,-27.32 84.82,-20.64"/>
</a>
</g>
</g>
<!-- Node4&#45;&gt;Node3 -->
<g id="edge9_Node000004_Node000003" class="edge">
<title>Node4&#45;&gt;Node3</title>
<g id="a_edge9_Node000004_Node000003"><a xlink:title=" ">
<path fill="none" stroke="#63b8ff" d="M209.47,-55.55C196.63,-46.69 180.56,-35.61 167.66,-26.71"/>
<polygon fill="#63b8ff" stroke="#63b8ff" points="169.98,-24.06 159.76,-21.27 166.01,-29.83 169.98,-24.06"/>
</a>
</g>
</g>
<!-- Node5 -->
<g id="Node000005" class="node">
<title>Node5</title>
<g id="a_Node000005"><a xlink:href="config_8h.html" target="_top" xlink:title=" ">
<polygon fill="white" stroke="#666666" points="424.75,-20 375,-20 375,0 424.75,0 424.75,-20"/>
<text text-anchor="middle" x="399.88" y="-6.5" font-family="Helvetica,sans-Serif" font-size="10.00">config.h</text>
</a>
</g>
</g>
<!-- Node4&#45;&gt;Node5 -->
<g id="edge4_Node000004_Node000005" class="edge">
<title>Node4&#45;&gt;Node5</title>
<g id="a_edge4_Node000004_Node000005"><a xlink:title=" ">
<path fill="none" stroke="#63b8ff" d="M275.14,-55.55C302.7,-45.7 337.98,-33.1 363.99,-23.82"/>
<polygon fill="#63b8ff" stroke="#63b8ff" points="364.85,-27.23 373.09,-20.57 362.49,-20.63 364.85,-27.23"/>
</a>
</g>
</g>
<!-- Node6 -->
<g id="Node000006" class="node">
<title>Node6</title>
<g id="a_Node000006"><a xlink:href="platform_8h.html" target="_top" xlink:title=" ">
<polygon fill="white" stroke="#666666" points="501.25,-20 442.5,-20 442.5,0 501.25,0 501.25,-20"/>
<text text-anchor="middle" x="471.88" y="-6.5" font-family="Helvetica,sans-Serif" font-size="10.00">platform.h</text>
</a>
</g>
</g>
<!-- Node4&#45;&gt;Node6 -->
<g id="edge5_Node000004_Node000006" class="edge">
<title>Node4&#45;&gt;Node6</title>
<g id="a_edge5_Node000004_Node000006"><a xlink:title=" ">
<path fill="none" stroke="#63b8ff" d="M291.2,-56.17C334.79,-45.27 392.87,-30.75 431.27,-21.15"/>
<polygon fill="#63b8ff" stroke="#63b8ff" points="431.71,-24.65 440.57,-18.83 430.02,-17.86 431.71,-24.65"/>
</a>
</g>
</g>
<!-- Node7 -->
<g id="Node000007" class="node">
<title>Node7</title>
<g id="a_Node000007"><a xlink:title=" ">
<polygon fill="#e0e0e0" stroke="#999999" points="260.5,-20 203.25,-20 203.25,0 260.5,0 260.5,-20"/>
<text text-anchor="middle" x="231.88" y="-6.5" font-family="Helvetica,sans-Serif" font-size="10.00">functional</text>
</a>
</g>
</g>
<!-- Node4&#45;&gt;Node7 -->
<g id="edge6_Node000004_Node000007" class="edge">
<title>Node4&#45;&gt;Node7</title>
<g id="a_edge6_Node000004_Node000007"><a xlink:title=" ">
<path fill="none" stroke="#63b8ff" d="M231.88,-55.55C231.88,-48.34 231.88,-39.66 231.88,-31.88"/>
<polygon fill="#63b8ff" stroke="#63b8ff" points="235.38,-31.92 231.88,-21.92 228.38,-31.92 235.38,-31.92"/>
</a>
</g>
</g>
<!-- Node8 -->
<g id="Node000008" class="node">
<title>Node8</title>
<g id="a_Node000008"><a xlink:title=" ">
<polygon fill="#e0e0e0" stroke="#999999" points="357,-20 278.75,-20 278.75,0 357,0 357,-20"/>
<text text-anchor="middle" x="317.88" y="-6.5" font-family="Helvetica,sans-Serif" font-size="10.00">VkBootstrap.h</text>
</a>
</g>
</g>
<!-- Node4&#45;&gt;Node8 -->
<g id="edge7_Node000004_Node000008" class="edge">
<title>Node4&#45;&gt;Node8</title>
<g id="a_edge7_Node000004_Node000008"><a xlink:title=" ">
<path fill="none" stroke="#63b8ff" d="M254.02,-55.55C266.59,-46.78 282.29,-35.83 294.98,-26.97"/>
<polygon fill="#63b8ff" stroke="#63b8ff" points="296.95,-29.87 303.15,-21.27 292.94,-24.13 296.95,-29.87"/>
</a>
</g>
</g>
</g>
</svg>
