<?xml version="1.0" encoding="UTF-8" standalone="no"?>
<!DOCTYPE svg PUBLIC "-//W3C//DTD SVG 1.1//EN"
 "http://www.w3.org/Graphics/SVG/1.1/DTD/svg11.dtd">
<!-- Generated by graphviz version 10.0.1 (20240210.2158)
 -->
<!-- Title: hybrid&#45;renderer&#45;lib/src/renderer_internal/buffer.cpp Pages: 1 -->
<svg width="510pt" height="232pt"
 viewBox="0.00 0.00 509.50 232.00" xmlns="http://www.w3.org/2000/svg" xmlns:xlink="http://www.w3.org/1999/xlink">
<g id="graph0" class="graph" transform="scale(1 1) rotate(0) translate(4 228)">
<title>hybrid&#45;renderer&#45;lib/src/renderer_internal/buffer.cpp</title>
<!-- Node1 -->
<g id="Node000001" class="node">
<title>Node1</title>
<g id="a_Node000001"><a xlink:title=" ">
<polygon fill="#999999" stroke="#666666" points="274.62,-224 167.12,-224 167.12,-180 274.62,-180 274.62,-224"/>
<text text-anchor="start" x="175.12" y="-210.5" font-family="Helvetica,sans-Serif" font-size="10.00">hybrid&#45;renderer&#45;lib</text>
<text text-anchor="start" x="175.12" y="-198.5" font-family="Helvetica,sans-Serif" font-size="10.00">/src/renderer_internal</text>
<text text-anchor="middle" x="220.88" y="-186.5" font-family="Helvetica,sans-Serif" font-size="10.00">/buffer.cpp</text>
</a>
</g>
</g>
<!-- Node2 -->
<g id="Node000002" class="node">
<title>Node2</title>
<g id="a_Node000002"><a xlink:href="buffer_8h.html" target="_top" xlink:title=" ">
<polygon fill="white" stroke="#666666" points="238.12,-144 115.62,-144 115.62,-124 238.12,-124 238.12,-144"/>
<text text-anchor="middle" x="176.88" y="-130.5" font-family="Helvetica,sans-Serif" font-size="10.00">renderer_internal/buffer.h</text>
</a>
</g>
</g>
<!-- Node1&#45;&gt;Node2 -->
<g id="edge1_Node000001_Node000002" class="edge">
<title>Node1&#45;&gt;Node2</title>
<g id="a_edge1_Node000001_Node000002"><a xlink:title=" ">
<path fill="none" stroke="#63b8ff" d="M206.71,-179.75C201.13,-171.38 194.77,-161.85 189.37,-153.74"/>
<polygon fill="#63b8ff" stroke="#63b8ff" points="192.45,-152.06 183.99,-145.68 186.63,-155.94 192.45,-152.06"/>
</a>
</g>
</g>
<!-- Node3 -->
<g id="Node000003" class="node">
<title>Node3</title>
<g id="a_Node000003"><a xlink:title=" ">
<polygon fill="#e0e0e0" stroke="#999999" points="85.75,-20 0,-20 0,0 85.75,0 85.75,-20"/>
<text text-anchor="middle" x="42.88" y="-6.5" font-family="Helvetica,sans-Serif" font-size="10.00">vk_mem_alloc.h</text>
</a>
</g>
</g>
<!-- Node1&#45;&gt;Node3 -->
<g id="edge11_Node000001_Node000003" class="edge">
<title>Node1&#45;&gt;Node3</title>
<g id="a_edge11_Node000001_Node000003"><a xlink:title=" ">
<path fill="none" stroke="#63b8ff" d="M166.86,-182.69C146.13,-173.59 123.49,-160.87 106.88,-144 74.76,-111.4 56.31,-59.56 48.08,-31.19"/>
<polygon fill="#63b8ff" stroke="#63b8ff" points="51.51,-30.46 45.49,-21.74 44.76,-32.31 51.51,-30.46"/>
</a>
</g>
</g>
<!-- Node4 -->
<g id="Node000004" class="node">
<title>Node4</title>
<g id="a_Node000004"><a xlink:title=" ">
<polygon fill="#e0e0e0" stroke="#999999" points="501.5,-20 420.25,-20 420.25,0 501.5,0 501.5,-20"/>
<text text-anchor="middle" x="460.88" y="-6.5" font-family="Helvetica,sans-Serif" font-size="10.00">vulkan/vulkan.h</text>
</a>
</g>
</g>
<!-- Node1&#45;&gt;Node4 -->
<g id="edge12_Node000001_Node000004" class="edge">
<title>Node1&#45;&gt;Node4</title>
<g id="a_edge12_Node000001_Node000004"><a xlink:title=" ">
<path fill="none" stroke="#63b8ff" d="M247.94,-179.57C296.38,-141.23 396.87,-61.67 440.22,-27.35"/>
<polygon fill="#63b8ff" stroke="#63b8ff" points="442.18,-30.27 447.85,-21.31 437.83,-24.78 442.18,-30.27"/>
</a>
</g>
</g>
<!-- Node5 -->
<g id="Node000005" class="node">
<title>Node5</title>
<g id="a_Node000005"><a xlink:href="render__context_8h.html" target="_top" xlink:title=" ">
<polygon fill="white" stroke="#666666" points="292.88,-88 174.88,-88 174.88,-56 292.88,-56 292.88,-88"/>
<text text-anchor="start" x="182.88" y="-74.5" font-family="Helvetica,sans-Serif" font-size="10.00">renderer_internal/render</text>
<text text-anchor="middle" x="233.88" y="-62.5" font-family="Helvetica,sans-Serif" font-size="10.00">_context.h</text>
</a>
</g>
</g>
<!-- Node1&#45;&gt;Node5 -->
<g id="edge13_Node000001_Node000005" class="edge">
<title>Node1&#45;&gt;Node5</title>
<g id="a_edge13_Node000001_Node000005"><a xlink:title=" ">
<path fill="none" stroke="#63b8ff" d="M233.29,-179.57C238.61,-169.19 244.2,-156.33 246.88,-144 250.09,-129.23 247.38,-112.61 243.63,-99.16"/>
<polygon fill="#63b8ff" stroke="#63b8ff" points="247,-98.21 240.63,-89.74 240.32,-100.33 247,-98.21"/>
</a>
</g>
</g>
<!-- Node2&#45;&gt;Node3 -->
<g id="edge2_Node000002_Node000003" class="edge">
<title>Node2&#45;&gt;Node3</title>
<g id="a_edge2_Node000002_Node000003"><a xlink:title=" ">
<path fill="none" stroke="#63b8ff" d="M166.8,-123.83C144.4,-103.43 90.14,-54.03 61.42,-27.88"/>
<polygon fill="#63b8ff" stroke="#63b8ff" points="63.93,-25.44 54.18,-21.3 59.22,-30.62 63.93,-25.44"/>
</a>
</g>
</g>
<!-- Node2&#45;&gt;Node4 -->
<g id="edge3_Node000002_Node000004" class="edge">
<title>Node2&#45;&gt;Node4</title>
<g id="a_edge3_Node000002_Node000004"><a xlink:title=" ">
<path fill="none" stroke="#63b8ff" d="M205.5,-123.65C231.05,-115.09 269.35,-101.69 301.88,-88 348.66,-68.32 401.4,-41.9 432.85,-25.69"/>
<polygon fill="#63b8ff" stroke="#63b8ff" points="434.43,-28.81 441.69,-21.1 431.2,-22.6 434.43,-28.81"/>
</a>
</g>
</g>
<!-- Node2&#45;&gt;Node5 -->
<g id="edge4_Node000002_Node000005" class="edge">
<title>Node2&#45;&gt;Node5</title>
<g id="a_edge4_Node000002_Node000005"><a xlink:title=" ">
<path fill="none" stroke="#63b8ff" d="M185.78,-123.62C192.69,-116.36 202.56,-105.96 211.57,-96.48"/>
<polygon fill="#63b8ff" stroke="#63b8ff" points="214.1,-98.9 218.45,-89.24 209.02,-94.08 214.1,-98.9"/>
</a>
</g>
</g>
<!-- Node5&#45;&gt;Node3 -->
<g id="edge9_Node000005_Node000003" class="edge">
<title>Node5&#45;&gt;Node3</title>
<g id="a_edge9_Node000005_Node000003"><a xlink:title=" ">
<path fill="none" stroke="#63b8ff" d="M184.69,-55.55C153.42,-45.73 113.42,-33.16 83.88,-23.88"/>
<polygon fill="#63b8ff" stroke="#63b8ff" points="85.14,-20.61 74.55,-20.95 83.04,-27.29 85.14,-20.61"/>
</a>
</g>
</g>
<!-- Node5&#45;&gt;Node4 -->
<g id="edge10_Node000005_Node000004" class="edge">
<title>Node5&#45;&gt;Node4</title>
<g id="a_edge10_Node000005_Node000004"><a xlink:title=" ">
<path fill="none" stroke="#63b8ff" d="M292.33,-55.55C330.15,-45.55 378.71,-32.72 413.99,-23.39"/>
<polygon fill="#63b8ff" stroke="#63b8ff" points="414.71,-26.82 423.48,-20.88 412.92,-20.05 414.71,-26.82"/>
</a>
</g>
</g>
<!-- Node6 -->
<g id="Node000006" class="node">
<title>Node6</title>
<g id="a_Node000006"><a xlink:href="config_8h.html" target="_top" xlink:title=" ">
<polygon fill="white" stroke="#666666" points="325.75,-20 276,-20 276,0 325.75,0 325.75,-20"/>
<text text-anchor="middle" x="300.88" y="-6.5" font-family="Helvetica,sans-Serif" font-size="10.00">config.h</text>
</a>
</g>
</g>
<!-- Node5&#45;&gt;Node6 -->
<g id="edge5_Node000005_Node000006" class="edge">
<title>Node5&#45;&gt;Node6</title>
<g id="a_edge5_Node000005_Node000006"><a xlink:title=" ">
<path fill="none" stroke="#63b8ff" d="M251.13,-55.55C260.53,-47.13 272.19,-36.69 281.85,-28.04"/>
<polygon fill="#63b8ff" stroke="#63b8ff" points="284.13,-30.7 289.24,-21.42 279.46,-25.48 284.13,-30.7"/>
</a>
</g>
</g>
<!-- Node7 -->
<g id="Node000007" class="node">
<title>Node7</title>
<g id="a_Node000007"><a xlink:href="platform_8h.html" target="_top" xlink:title=" ">
<polygon fill="white" stroke="#666666" points="402.25,-20 343.5,-20 343.5,0 402.25,0 402.25,-20"/>
<text text-anchor="middle" x="372.88" y="-6.5" font-family="Helvetica,sans-Serif" font-size="10.00">platform.h</text>
</a>
</g>
</g>
<!-- Node5&#45;&gt;Node7 -->
<g id="edge6_Node000005_Node000007" class="edge">
<title>Node5&#45;&gt;Node7</title>
<g id="a_edge6_Node000005_Node000007"><a xlink:title=" ">
<path fill="none" stroke="#63b8ff" d="M269.67,-55.55C291.59,-46.09 319.41,-34.08 340.64,-24.91"/>
<polygon fill="#63b8ff" stroke="#63b8ff" points="341.9,-28.18 349.69,-21.01 339.12,-21.76 341.9,-28.18"/>
</a>
</g>
</g>
<!-- Node8 -->
<g id="Node000008" class="node">
<title>Node8</title>
<g id="a_Node000008"><a xlink:title=" ">
<polygon fill="#e0e0e0" stroke="#999999" points="161.5,-20 104.25,-20 104.25,0 161.5,0 161.5,-20"/>
<text text-anchor="middle" x="132.88" y="-6.5" font-family="Helvetica,sans-Serif" font-size="10.00">functional</text>
</a>
</g>
</g>
<!-- Node5&#45;&gt;Node8 -->
<g id="edge7_Node000005_Node000008" class="edge">
<title>Node5&#45;&gt;Node8</title>
<g id="a_edge7_Node000005_Node000008"><a xlink:title=" ">
<path fill="none" stroke="#63b8ff" d="M207.86,-55.55C192.67,-46.52 173.57,-35.17 158.45,-26.19"/>
<polygon fill="#63b8ff" stroke="#63b8ff" points="160.4,-23.28 150.01,-21.18 156.82,-29.3 160.4,-23.28"/>
</a>
</g>
</g>
<!-- Node9 -->
<g id="Node000009" class="node">
<title>Node9</title>
<g id="a_Node000009"><a xlink:title=" ">
<polygon fill="#e0e0e0" stroke="#999999" points="258,-20 179.75,-20 179.75,0 258,0 258,-20"/>
<text text-anchor="middle" x="218.88" y="-6.5" font-family="Helvetica,sans-Serif" font-size="10.00">VkBootstrap.h</text>
</a>
</g>
</g>
<!-- Node5&#45;&gt;Node9 -->
<g id="edge8_Node000005_Node000009" class="edge">
<title>Node5&#45;&gt;Node9</title>
<g id="a_edge8_Node000005_Node000009"><a xlink:title=" ">
<path fill="none" stroke="#63b8ff" d="M230.01,-55.55C228.17,-48.17 225.94,-39.24 223.96,-31.32"/>
<polygon fill="#63b8ff" stroke="#63b8ff" points="227.42,-30.73 221.59,-21.88 220.62,-32.43 227.42,-30.73"/>
</a>
</g>
</g>
</g>
</svg>
