<?xml version="1.0" encoding="UTF-8" standalone="no"?>
<!DOCTYPE svg PUBLIC "-//W3C//DTD SVG 1.1//EN"
 "http://www.w3.org/Graphics/SVG/1.1/DTD/svg11.dtd">
<!-- Generated by graphviz version 10.0.1 (20240210.2158)
 -->
<!-- Title: hybrid&#45;renderer&#45;lib/src/camera.cpp Pages: 1 -->
<svg width="129pt" height="208pt"
 viewBox="0.00 0.00 128.62 208.00" xmlns="http://www.w3.org/2000/svg" xmlns:xlink="http://www.w3.org/1999/xlink">
<g id="graph0" class="graph" transform="scale(1 1) rotate(0) translate(4 204)">
<title>hybrid&#45;renderer&#45;lib/src/camera.cpp</title>
<!-- Node1 -->
<g id="Node000001" class="node">
<title>Node1</title>
<g id="a_Node000001"><a xlink:title=" ">
<polygon fill="#999999" stroke="#666666" points="102.88,-200 9.62,-200 9.62,-168 102.88,-168 102.88,-200"/>
<text text-anchor="start" x="17.62" y="-186.5" font-family="Helvetica,sans-Serif" font-size="10.00">hybrid&#45;renderer&#45;lib</text>
<text text-anchor="middle" x="56.25" y="-174.5" font-family="Helvetica,sans-Serif" font-size="10.00">/src/camera.cpp</text>
</a>
</g>
</g>
<!-- Node2 -->
<g id="Node000002" class="node">
<title>Node2</title>
<g id="a_Node000002"><a xlink:href="camera_8h.html" target="_top" xlink:title=" ">
<polygon fill="white" stroke="#666666" points="56.5,-132 0,-132 0,-112 56.5,-112 56.5,-132"/>
<text text-anchor="middle" x="28.25" y="-118.5" font-family="Helvetica,sans-Serif" font-size="10.00">camera.h</text>
</a>
</g>
</g>
<!-- Node1&#45;&gt;Node2 -->
<g id="edge1_Node000001_Node000002" class="edge">
<title>Node1&#45;&gt;Node2</title>
<g id="a_edge1_Node000001_Node000002"><a xlink:title=" ">
<path fill="none" stroke="#63b8ff" d="M49.04,-167.55C45.52,-160 41.23,-150.82 37.47,-142.77"/>
<polygon fill="#63b8ff" stroke="#63b8ff" points="40.68,-141.36 33.28,-133.78 34.34,-144.32 40.68,-141.36"/>
</a>
</g>
</g>
<!-- Node3 -->
<g id="Node000003" class="node">
<title>Node3</title>
<g id="a_Node000003"><a xlink:href="hri__math_8h.html" target="_top" xlink:title=" ">
<polygon fill="white" stroke="#666666" points="87.12,-76 25.38,-76 25.38,-56 87.12,-56 87.12,-76"/>
<text text-anchor="middle" x="56.25" y="-62.5" font-family="Helvetica,sans-Serif" font-size="10.00">hri_math.h</text>
</a>
</g>
</g>
<!-- Node1&#45;&gt;Node3 -->
<g id="edge5_Node000001_Node000003" class="edge">
<title>Node1&#45;&gt;Node3</title>
<g id="a_edge5_Node000001_Node000003"><a xlink:title=" ">
<path fill="none" stroke="#63b8ff" d="M60.23,-167.52C63.45,-153.15 67.15,-131.17 65.25,-112 64.45,-103.88 62.84,-95.05 61.21,-87.38"/>
<polygon fill="#63b8ff" stroke="#63b8ff" points="64.64,-86.67 58.99,-77.7 57.82,-88.23 64.64,-86.67"/>
</a>
</g>
</g>
<!-- Node2&#45;&gt;Node3 -->
<g id="edge2_Node000002_Node000003" class="edge">
<title>Node2&#45;&gt;Node3</title>
<g id="a_edge2_Node000002_Node000003"><a xlink:title=" ">
<path fill="none" stroke="#63b8ff" d="M33.13,-111.59C36.74,-104.63 41.79,-94.89 46.25,-86.29"/>
<polygon fill="#63b8ff" stroke="#63b8ff" points="49.24,-88.13 50.73,-77.64 43.02,-84.91 49.24,-88.13"/>
</a>
</g>
</g>
<!-- Node4 -->
<g id="Node000004" class="node">
<title>Node4</title>
<g id="a_Node000004"><a xlink:title=" ">
<polygon fill="#e0e0e0" stroke="#999999" points="43.75,-20 0.75,-20 0.75,0 43.75,0 43.75,-20"/>
<text text-anchor="middle" x="22.25" y="-6.5" font-family="Helvetica,sans-Serif" font-size="10.00">cmath</text>
</a>
</g>
</g>
<!-- Node3&#45;&gt;Node4 -->
<g id="edge3_Node000003_Node000004" class="edge">
<title>Node3&#45;&gt;Node4</title>
<g id="a_edge3_Node000003_Node000004"><a xlink:title=" ">
<path fill="none" stroke="#63b8ff" d="M50.33,-55.59C45.89,-48.55 39.67,-38.67 34.21,-30"/>
<polygon fill="#63b8ff" stroke="#63b8ff" points="37.2,-28.18 28.91,-21.58 31.28,-31.91 37.2,-28.18"/>
</a>
</g>
</g>
<!-- Node5 -->
<g id="Node000005" class="node">
<title>Node5</title>
<g id="a_Node000005"><a xlink:href="platform_8h.html" target="_top" xlink:title=" ">
<polygon fill="white" stroke="#666666" points="120.62,-20 61.88,-20 61.88,0 120.62,0 120.62,-20"/>
<text text-anchor="middle" x="91.25" y="-6.5" font-family="Helvetica,sans-Serif" font-size="10.00">platform.h</text>
</a>
</g>
</g>
<!-- Node3&#45;&gt;Node5 -->
<g id="edge4_Node000003_Node000005" class="edge">
<title>Node3&#45;&gt;Node5</title>
<g id="a_edge4_Node000003_Node000005"><a xlink:title=" ">
<path fill="none" stroke="#63b8ff" d="M62.35,-55.59C66.96,-48.47 73.46,-38.45 79.12,-29.72"/>
<polygon fill="#63b8ff" stroke="#63b8ff" points="81.9,-31.86 84.4,-21.57 76.02,-28.06 81.9,-31.86"/>
</a>
</g>
</g>
</g>
</svg>
