<?xml version="1.0" encoding="UTF-8" standalone="no"?>
<!DOCTYPE svg PUBLIC "-//W3C//DTD SVG 1.1//EN"
 "http://www.w3.org/Graphics/SVG/1.1/DTD/svg11.dtd">
<!-- Generated by graphviz version 10.0.1 (20240210.2158)
 -->
<!-- Title: hybrid&#45;renderer&#45;lib/src/camera.cpp Pages: 1 -->
<svg width="376pt" height="208pt"
 viewBox="0.00 0.00 375.88 208.00" xmlns="http://www.w3.org/2000/svg" xmlns:xlink="http://www.w3.org/1999/xlink">
<g id="graph0" class="graph" transform="scale(1 1) rotate(0) translate(4 204)">
<title>hybrid&#45;renderer&#45;lib/src/camera.cpp</title>
<!-- Node1 -->
<g id="Node000001" class="node">
<title>Node1</title>
<g id="a_Node000001"><a xlink:title=" ">
<polygon fill="#999999" stroke="#666666" points="204.12,-200 110.88,-200 110.88,-168 204.12,-168 204.12,-200"/>
<text text-anchor="start" x="118.88" y="-186.5" font-family="Helvetica,sans-Serif" font-size="10.00">hybrid&#45;renderer&#45;lib</text>
<text text-anchor="middle" x="157.5" y="-174.5" font-family="Helvetica,sans-Serif" font-size="10.00">/src/camera.cpp</text>
</a>
</g>
</g>
<!-- Node2 -->
<g id="Node000002" class="node">
<title>Node2</title>
<g id="a_Node000002"><a xlink:href="camera_8h.html" target="_top" xlink:title=" ">
<polygon fill="white" stroke="#666666" points="157.75,-132 101.25,-132 101.25,-112 157.75,-112 157.75,-132"/>
<text text-anchor="middle" x="129.5" y="-118.5" font-family="Helvetica,sans-Serif" font-size="10.00">camera.h</text>
</a>
</g>
</g>
<!-- Node1&#45;&gt;Node2 -->
<g id="edge1_Node000001_Node000002" class="edge">
<title>Node1&#45;&gt;Node2</title>
<g id="a_edge1_Node000001_Node000002"><a xlink:title=" ">
<path fill="none" stroke="#63b8ff" d="M150.29,-167.55C146.77,-160 142.48,-150.82 138.72,-142.77"/>
<polygon fill="#63b8ff" stroke="#63b8ff" points="141.93,-141.36 134.53,-133.78 135.59,-144.32 141.93,-141.36"/>
</a>
</g>
</g>
<!-- Node3 -->
<g id="Node000003" class="node">
<title>Node3</title>
<g id="a_Node000003"><a xlink:href="hri__math_8h.html" target="_top" xlink:title=" ">
<polygon fill="white" stroke="#666666" points="188.38,-76 126.62,-76 126.62,-56 188.38,-56 188.38,-76"/>
<text text-anchor="middle" x="157.5" y="-62.5" font-family="Helvetica,sans-Serif" font-size="10.00">hri_math.h</text>
</a>
</g>
</g>
<!-- Node1&#45;&gt;Node3 -->
<g id="edge7_Node000001_Node000003" class="edge">
<title>Node1&#45;&gt;Node3</title>
<g id="a_edge7_Node000001_Node000003"><a xlink:title=" ">
<path fill="none" stroke="#63b8ff" d="M161.48,-167.52C164.7,-153.15 168.4,-131.17 166.5,-112 165.7,-103.88 164.09,-95.05 162.46,-87.38"/>
<polygon fill="#63b8ff" stroke="#63b8ff" points="165.89,-86.67 160.24,-77.7 159.07,-88.23 165.89,-86.67"/>
</a>
</g>
</g>
<!-- Node2&#45;&gt;Node3 -->
<g id="edge2_Node000002_Node000003" class="edge">
<title>Node2&#45;&gt;Node3</title>
<g id="a_edge2_Node000002_Node000003"><a xlink:title=" ">
<path fill="none" stroke="#63b8ff" d="M134.38,-111.59C137.99,-104.63 143.04,-94.89 147.5,-86.29"/>
<polygon fill="#63b8ff" stroke="#63b8ff" points="150.49,-88.13 151.98,-77.64 144.27,-84.91 150.49,-88.13"/>
</a>
</g>
</g>
<!-- Node4 -->
<g id="Node000004" class="node">
<title>Node4</title>
<g id="a_Node000004"><a xlink:title=" ">
<polygon fill="#e0e0e0" stroke="#999999" points="43,-20 0,-20 0,0 43,0 43,-20"/>
<text text-anchor="middle" x="21.5" y="-6.5" font-family="Helvetica,sans-Serif" font-size="10.00">cmath</text>
</a>
</g>
</g>
<!-- Node3&#45;&gt;Node4 -->
<g id="edge3_Node000003_Node000004" class="edge">
<title>Node3&#45;&gt;Node4</title>
<g id="a_edge3_Node000003_Node000004"><a xlink:title=" ">
<path fill="none" stroke="#63b8ff" d="M133.81,-55.59C111.64,-46.79 78.33,-33.56 53.74,-23.8"/>
<polygon fill="#63b8ff" stroke="#63b8ff" points="55.12,-20.58 44.53,-20.14 52.53,-27.09 55.12,-20.58"/>
</a>
</g>
</g>
<!-- Node5 -->
<g id="Node000005" class="node">
<title>Node5</title>
<g id="a_Node000005"><a xlink:title=" ">
<polygon fill="#e0e0e0" stroke="#999999" points="130.12,-20 60.88,-20 60.88,0 130.12,0 130.12,-20"/>
<text text-anchor="middle" x="95.5" y="-6.5" font-family="Helvetica,sans-Serif" font-size="10.00">glm/glm.hpp</text>
</a>
</g>
</g>
<!-- Node3&#45;&gt;Node5 -->
<g id="edge4_Node000003_Node000005" class="edge">
<title>Node3&#45;&gt;Node5</title>
<g id="a_edge4_Node000003_Node000005"><a xlink:title=" ">
<path fill="none" stroke="#63b8ff" d="M146.7,-55.59C137.9,-47.93 125.25,-36.91 114.73,-27.75"/>
<polygon fill="#63b8ff" stroke="#63b8ff" points="117.16,-25.22 107.32,-21.29 112.56,-30.5 117.16,-25.22"/>
</a>
</g>
</g>
<!-- Node6 -->
<g id="Node000006" class="node">
<title>Node6</title>
<g id="a_Node000006"><a xlink:title=" ">
<polygon fill="#e0e0e0" stroke="#999999" points="290.88,-20 148.12,-20 148.12,0 290.88,0 290.88,-20"/>
<text text-anchor="middle" x="219.5" y="-6.5" font-family="Helvetica,sans-Serif" font-size="10.00">glm/gtc/matrix_transform.hpp</text>
</a>
</g>
</g>
<!-- Node3&#45;&gt;Node6 -->
<g id="edge5_Node000003_Node000006" class="edge">
<title>Node3&#45;&gt;Node6</title>
<g id="a_edge5_Node000003_Node000006"><a xlink:title=" ">
<path fill="none" stroke="#63b8ff" d="M168.3,-55.59C177.1,-47.93 189.75,-36.91 200.27,-27.75"/>
<polygon fill="#63b8ff" stroke="#63b8ff" points="202.44,-30.5 207.68,-21.29 197.84,-25.22 202.44,-30.5"/>
</a>
</g>
</g>
<!-- Node7 -->
<g id="Node000007" class="node">
<title>Node7</title>
<g id="a_Node000007"><a xlink:href="platform_8h.html" target="_top" xlink:title=" ">
<polygon fill="white" stroke="#666666" points="367.88,-20 309.12,-20 309.12,0 367.88,0 367.88,-20"/>
<text text-anchor="middle" x="338.5" y="-6.5" font-family="Helvetica,sans-Serif" font-size="10.00">platform.h</text>
</a>
</g>
</g>
<!-- Node3&#45;&gt;Node7 -->
<g id="edge6_Node000003_Node000007" class="edge">
<title>Node3&#45;&gt;Node7</title>
<g id="a_edge6_Node000003_Node000007"><a xlink:title=" ">
<path fill="none" stroke="#63b8ff" d="M188.62,-55.72C218.85,-46.7 264.93,-32.95 298.01,-23.08"/>
<polygon fill="#63b8ff" stroke="#63b8ff" points="298.66,-26.54 307.24,-20.33 296.66,-19.83 298.66,-26.54"/>
</a>
</g>
</g>
</g>
</svg>
