<?xml version="1.0" encoding="UTF-8" standalone="no"?>
<!DOCTYPE svg PUBLIC "-//W3C//DTD SVG 1.1//EN"
 "http://www.w3.org/Graphics/SVG/1.1/DTD/svg11.dtd">
<!-- Generated by graphviz version 10.0.1 (20240210.2158)
 -->
<!-- Title: PresentationSubsystem::PresentationSubsystem Pages: 1 -->
<!--zoomable 540 -->

<svg id="main" version="1.1" xmlns="http://www.w3.org/2000/svg" xmlns:xlink="http://www.w3.org/1999/xlink" xml:space="preserve" onload="init(evt)">
<style type="text/css"><![CDATA[
.node, .edge {opacity: 0.7;}
.node.selected, .edge.selected {opacity: 1;}
.edge:hover path { stroke: red; }
.edge:hover polygon { stroke: red; fill: red; }
]]></style>

<defs>
  <circle id="rim" cx="0" cy="0" r="7"/>
  <circle id="rim2" cx="0" cy="0" r="3.5"/>
  <g id="zoomPlus">
    <use xlink:href="#rim" fill="#404040"><set attributeName="fill" to="#808080" begin="zoomplus.mouseover" end="zoomplus.mouseout"/></use>
    <path d="M-4,0h8M0,-4v8" fill="none" stroke="white" stroke-width="1.5" pointer-events="none"/>
  </g>
  <g id="zoomMin">
    <use xlink:href="#rim" fill="#404040"><set attributeName="fill" to="#808080" begin="zoomminus.mouseover" end="zoomminus.mouseout"/></use>
    <path d="M-4,0h8" fill="none" stroke="white" stroke-width="1.5" pointer-events="none"/>
  </g>
  <g id="arrowUp" transform="translate(30 24)">
    <use xlink:href="#rim"/>
    <path pointer-events="none" fill="none" stroke="white" stroke-width="1.5" d="M0,-3.0v7 M-2.5,-0.5L0,-3.0L2.5,-0.5"/>
  </g>
  <g id="arrowRight" transform="rotate(90) translate(36 -43)">
    <use xlink:href="#rim"/>
    <path pointer-events="none" fill="none" stroke="white" stroke-width="1.5" d="M0,-3.0v7 M-2.5,-0.5L0,-3.0L2.5,-0.5"/>
  </g>
  <g id="arrowDown" transform="rotate(180) translate(-30 -48)">
    <use xlink:href="#rim"/>
    <path pointer-events="none" fill="none" stroke="white" stroke-width="1.5" d="M0,-3.0v7 M-2.5,-0.5L0,-3.0L2.5,-0.5"/>
  </g>
  <g id="arrowLeft" transform="rotate(270) translate(-36 17)">
    <use xlink:href="#rim"/>
    <path pointer-events="none" fill="none" stroke="white" stroke-width="1.5" d="M0,-3.0v7 M-2.5,-0.5L0,-3.0L2.5,-0.5"/>
  </g>
  <g id="resetDef">
    <use xlink:href="#rim2" fill="#404040"><set attributeName="fill" to="#808080" begin="reset.mouseover" end="reset.mouseout"/></use>
  </g>
</defs>
<script type="application/ecmascript">
var viewWidth = 463;
var viewHeight = 540;
var sectionId = 'dynsection-2';
</script>
<script type="application/ecmascript" xlink:href="svg.min.js"/>
<svg id="graph" class="graph">
<g id="viewport">
<title>PresentationSubsystem::PresentationSubsystem</title>
<!-- Node1 -->
<g id="Node000001" class="node">
<title>Node1</title>
<g id="a_Node000001"><a xlink:title=" ">
<polygon fill="#999999" stroke="#666666" points="126.25,-282 0,-282 0,-250 126.25,-250 126.25,-282"/>
<text text-anchor="start" x="8" y="-268.5" font-family="Helvetica,sans-Serif" font-size="10.00">PresentationSubsystem</text>
<text text-anchor="middle" x="63.12" y="-256.5" font-family="Helvetica,sans-Serif" font-size="10.00">::PresentationSubsystem</text>
</a>
</g>
</g>
<!-- Node2 -->
<g id="Node000002" class="node">
<title>Node2</title>
<g id="a_Node000002"><a xlink:href="classhri_1_1_descriptor_set_layout_builder.html#a6ca1066fc9cda68a188b464469ab237d" target="_top" xlink:title="Add a descriptor binding to the descriptor set layout.">
<polygon fill="white" stroke="#666666" points="290.75,-532 169.75,-532 169.75,-500 290.75,-500 290.75,-532"/>
<text text-anchor="start" x="177.75" y="-518.5" font-family="Helvetica,sans-Serif" font-size="10.00">hri::DescriptorSetLayout</text>
<text text-anchor="middle" x="230.25" y="-506.5" font-family="Helvetica,sans-Serif" font-size="10.00">Builder::addBinding</text>
</a>
</g>
</g>
<!-- Node1&#45;&gt;Node2 -->
<g id="edge1_Node000001_Node000002" class="edge">
<title>Node1&#45;&gt;Node2</title>
<g id="a_edge1_Node000001_Node000002"><a xlink:title=" ">
<path fill="none" stroke="#63b8ff" d="M66.76,-282.38C74.18,-323.31 98.98,-431.07 162.25,-491 163,-491.71 163.77,-492.4 164.56,-493.07"/>
<polygon fill="#63b8ff" stroke="#63b8ff" points="162.28,-495.74 172.46,-498.67 166.33,-490.03 162.28,-495.74"/>
</a>
</g>
</g>
<!-- Node3 -->
<g id="Node000003" class="node">
<title>Node3</title>
<g id="a_Node000003"><a xlink:href="classhri_1_1_pipeline_layout_builder.html#a98ca63c2f88a41ce1d3bbdbc4dfb5643" target="_top" xlink:title="Add a new Descriptor Set Layout to the pipeline layout.">
<polygon fill="white" stroke="#666666" points="293.38,-482 167.12,-482 167.12,-450 293.38,-450 293.38,-482"/>
<text text-anchor="start" x="175.12" y="-468.5" font-family="Helvetica,sans-Serif" font-size="10.00">hri::PipelineLayoutBuilder</text>
<text text-anchor="middle" x="230.25" y="-456.5" font-family="Helvetica,sans-Serif" font-size="10.00">::addDescriptorSetLayout</text>
</a>
</g>
</g>
<!-- Node1&#45;&gt;Node3 -->
<g id="edge2_Node000001_Node000003" class="edge">
<title>Node1&#45;&gt;Node3</title>
<g id="a_edge2_Node000001_Node000003"><a xlink:title=" ">
<path fill="none" stroke="#63b8ff" d="M69.06,-282.49C80.12,-316.79 110.14,-396.35 162.25,-441 163.19,-441.81 164.16,-442.59 165.16,-443.35"/>
<polygon fill="#63b8ff" stroke="#63b8ff" points="163.14,-446.21 173.43,-448.72 166.95,-440.34 163.14,-446.21"/>
</a>
</g>
</g>
<!-- Node4 -->
<g id="Node000004" class="node">
<title>Node4</title>
<g id="a_Node000004"><a xlink:href="classhri_1_1_descriptor_set_layout_builder.html#a9bfe5daf8d84003dcce380afb7e97fb0" target="_top" xlink:title="Build the specified descriptor set layout.">
<polygon fill="white" stroke="#666666" points="290.75,-432 169.75,-432 169.75,-400 290.75,-400 290.75,-432"/>
<text text-anchor="start" x="177.75" y="-418.5" font-family="Helvetica,sans-Serif" font-size="10.00">hri::DescriptorSetLayout</text>
<text text-anchor="middle" x="230.25" y="-406.5" font-family="Helvetica,sans-Serif" font-size="10.00">Builder::build</text>
</a>
</g>
</g>
<!-- Node1&#45;&gt;Node4 -->
<g id="edge3_Node000001_Node000004" class="edge">
<title>Node1&#45;&gt;Node4</title>
<g id="a_edge3_Node000001_Node000004"><a xlink:title=" ">
<path fill="none" stroke="#63b8ff" d="M72.83,-282.13C87.79,-308.45 120.82,-360.72 162.25,-391 163.77,-392.11 165.34,-393.17 166.95,-394.19"/>
<polygon fill="#63b8ff" stroke="#63b8ff" points="164.83,-397.02 175.26,-398.85 168.25,-390.91 164.83,-397.02"/>
</a>
</g>
</g>
<!-- Node6 -->
<g id="Node000006" class="node">
<title>Node6</title>
<g id="a_Node000006"><a xlink:href="classhri_1_1_pipeline_layout_builder.html#ad88e3add16c5f341425531e1db34c77d" target="_top" xlink:title="Build the configured pipeline layout.">
<polygon fill="white" stroke="#666666" points="293.38,-382 167.12,-382 167.12,-350 293.38,-350 293.38,-382"/>
<text text-anchor="start" x="175.12" y="-368.5" font-family="Helvetica,sans-Serif" font-size="10.00">hri::PipelineLayoutBuilder</text>
<text text-anchor="middle" x="230.25" y="-356.5" font-family="Helvetica,sans-Serif" font-size="10.00">::build</text>
</a>
</g>
</g>
<!-- Node1&#45;&gt;Node6 -->
<g id="edge5_Node000001_Node000006" class="edge">
<title>Node1&#45;&gt;Node6</title>
<g id="a_edge5_Node000001_Node000006"><a xlink:title=" ">
<path fill="none" stroke="#63b8ff" d="M82.15,-282.42C101.01,-298.94 132.04,-324.3 162.25,-341 164.72,-342.37 167.28,-343.69 169.9,-344.96"/>
<polygon fill="#63b8ff" stroke="#63b8ff" points="168.25,-348.06 178.81,-349 171.14,-341.68 168.25,-348.06"/>
</a>
</g>
</g>
<!-- Node7 -->
<g id="Node000007" class="node">
<title>Node7</title>
<g id="a_Node000007"><a xlink:href="structhri_1_1_graphics_pipeline_builder.html#a6c9fa89e6b0675c7f460f67f2d674479" target="_top" xlink:title=" ">
<polygon fill="white" stroke="#666666" points="298.25,-332 162.25,-332 162.25,-300 298.25,-300 298.25,-332"/>
<text text-anchor="start" x="170.25" y="-318.5" font-family="Helvetica,sans-Serif" font-size="10.00">hri::GraphicsPipelineBuilder</text>
<text text-anchor="middle" x="230.25" y="-306.5" font-family="Helvetica,sans-Serif" font-size="10.00">::initColorBlendState</text>
</a>
</g>
</g>
<!-- Node1&#45;&gt;Node7 -->
<g id="edge6_Node000001_Node000007" class="edge">
<title>Node1&#45;&gt;Node7</title>
<g id="a_edge6_Node000001_Node000007"><a xlink:title=" ">
<path fill="none" stroke="#63b8ff" d="M118.19,-282.37C132.8,-286.8 148.76,-291.63 163.92,-296.22"/>
<polygon fill="#63b8ff" stroke="#63b8ff" points="162.74,-299.52 173.33,-299.07 164.77,-292.82 162.74,-299.52"/>
</a>
</g>
</g>
<!-- Node8 -->
<g id="Node000008" class="node">
<title>Node8</title>
<g id="a_Node000008"><a xlink:href="structhri_1_1_graphics_pipeline_builder.html#aebf69250a889e1ac3196f3c54b147630" target="_top" xlink:title=" ">
<polygon fill="white" stroke="#666666" points="298.25,-282 162.25,-282 162.25,-250 298.25,-250 298.25,-282"/>
<text text-anchor="start" x="170.25" y="-268.5" font-family="Helvetica,sans-Serif" font-size="10.00">hri::GraphicsPipelineBuilder</text>
<text text-anchor="middle" x="230.25" y="-256.5" font-family="Helvetica,sans-Serif" font-size="10.00">::initDefaultScissor</text>
</a>
</g>
</g>
<!-- Node1&#45;&gt;Node8 -->
<g id="edge7_Node000001_Node000008" class="edge">
<title>Node1&#45;&gt;Node8</title>
<g id="a_edge7_Node000001_Node000008"><a xlink:title=" ">
<path fill="none" stroke="#63b8ff" d="M126.55,-266C134.37,-266 142.45,-266 150.48,-266"/>
<polygon fill="#63b8ff" stroke="#63b8ff" points="150.26,-269.5 160.26,-266 150.26,-262.5 150.26,-269.5"/>
</a>
</g>
</g>
<!-- Node9 -->
<g id="Node000009" class="node">
<title>Node9</title>
<g id="a_Node000009"><a xlink:href="structhri_1_1_graphics_pipeline_builder.html#a50539a9cc2f38a2da3416d07f069e8b3" target="_top" xlink:title=" ">
<polygon fill="white" stroke="#666666" points="298.25,-232 162.25,-232 162.25,-200 298.25,-200 298.25,-232"/>
<text text-anchor="start" x="170.25" y="-218.5" font-family="Helvetica,sans-Serif" font-size="10.00">hri::GraphicsPipelineBuilder</text>
<text text-anchor="middle" x="230.25" y="-206.5" font-family="Helvetica,sans-Serif" font-size="10.00">::initDefaultViewport</text>
</a>
</g>
</g>
<!-- Node1&#45;&gt;Node9 -->
<g id="edge8_Node000001_Node000009" class="edge">
<title>Node1&#45;&gt;Node9</title>
<g id="a_edge8_Node000001_Node000009"><a xlink:title=" ">
<path fill="none" stroke="#63b8ff" d="M118.19,-249.63C132.8,-245.2 148.76,-240.37 163.92,-235.78"/>
<polygon fill="#63b8ff" stroke="#63b8ff" points="164.77,-239.18 173.33,-232.93 162.74,-232.48 164.77,-239.18"/>
</a>
</g>
</g>
<!-- Node10 -->
<g id="Node000010" class="node">
<title>Node10</title>
<g id="a_Node000010"><a xlink:href="structhri_1_1_graphics_pipeline_builder.html#abd3ba37381aa860148b95c6feb6ca129" target="_top" xlink:title=" ">
<polygon fill="white" stroke="#666666" points="298.25,-182 162.25,-182 162.25,-150 298.25,-150 298.25,-182"/>
<text text-anchor="start" x="170.25" y="-168.5" font-family="Helvetica,sans-Serif" font-size="10.00">hri::GraphicsPipelineBuilder</text>
<text text-anchor="middle" x="230.25" y="-156.5" font-family="Helvetica,sans-Serif" font-size="10.00">::initDepthStencilState</text>
</a>
</g>
</g>
<!-- Node1&#45;&gt;Node10 -->
<g id="edge9_Node000001_Node000010" class="edge">
<title>Node1&#45;&gt;Node10</title>
<g id="a_edge9_Node000001_Node000010"><a xlink:title=" ">
<path fill="none" stroke="#63b8ff" d="M82.15,-249.58C101.01,-233.06 132.04,-207.7 162.25,-191 164.72,-189.63 167.28,-188.31 169.9,-187.04"/>
<polygon fill="#63b8ff" stroke="#63b8ff" points="171.14,-190.32 178.81,-183 168.25,-183.94 171.14,-190.32"/>
</a>
</g>
</g>
<!-- Node11 -->
<g id="Node000011" class="node">
<title>Node11</title>
<g id="a_Node000011"><a xlink:href="structhri_1_1_graphics_pipeline_builder.html#ac7a8817225341e5268221226e0040b3b" target="_top" xlink:title=" ">
<polygon fill="white" stroke="#666666" points="298.25,-132 162.25,-132 162.25,-100 298.25,-100 298.25,-132"/>
<text text-anchor="start" x="170.25" y="-118.5" font-family="Helvetica,sans-Serif" font-size="10.00">hri::GraphicsPipelineBuilder</text>
<text text-anchor="middle" x="230.25" y="-106.5" font-family="Helvetica,sans-Serif" font-size="10.00">::initInputAssemblyState</text>
</a>
</g>
</g>
<!-- Node1&#45;&gt;Node11 -->
<g id="edge10_Node000001_Node000011" class="edge">
<title>Node1&#45;&gt;Node11</title>
<g id="a_edge10_Node000001_Node000011"><a xlink:title=" ">
<path fill="none" stroke="#63b8ff" d="M72.83,-249.87C87.79,-223.55 120.82,-171.28 162.25,-141 163.77,-139.89 165.34,-138.83 166.95,-137.81"/>
<polygon fill="#63b8ff" stroke="#63b8ff" points="168.25,-141.09 175.26,-133.15 164.83,-134.98 168.25,-141.09"/>
</a>
</g>
</g>
<!-- Node12 -->
<g id="Node000012" class="node">
<title>Node12</title>
<g id="a_Node000012"><a xlink:href="structhri_1_1_graphics_pipeline_builder.html#ac0e003f458114cb94bdce9d73d6b6526" target="_top" xlink:title=" ">
<polygon fill="white" stroke="#666666" points="298.25,-82 162.25,-82 162.25,-50 298.25,-50 298.25,-82"/>
<text text-anchor="start" x="170.25" y="-68.5" font-family="Helvetica,sans-Serif" font-size="10.00">hri::GraphicsPipelineBuilder</text>
<text text-anchor="middle" x="230.25" y="-56.5" font-family="Helvetica,sans-Serif" font-size="10.00">::initMultisampleState</text>
</a>
</g>
</g>
<!-- Node1&#45;&gt;Node12 -->
<g id="edge11_Node000001_Node000012" class="edge">
<title>Node1&#45;&gt;Node12</title>
<g id="a_edge11_Node000001_Node000012"><a xlink:title=" ">
<path fill="none" stroke="#63b8ff" d="M69.06,-249.51C80.12,-215.21 110.14,-135.65 162.25,-91 163.19,-90.19 164.16,-89.41 165.16,-88.65"/>
<polygon fill="#63b8ff" stroke="#63b8ff" points="166.95,-91.66 173.43,-83.28 163.14,-85.79 166.95,-91.66"/>
</a>
</g>
</g>
<!-- Node13 -->
<g id="Node000013" class="node">
<title>Node13</title>
<g id="a_Node000013"><a xlink:href="structhri_1_1_graphics_pipeline_builder.html#aaaa7a563067832f496b46ee8174db0ec" target="_top" xlink:title=" ">
<polygon fill="white" stroke="#666666" points="298.25,-32 162.25,-32 162.25,0 298.25,0 298.25,-32"/>
<text text-anchor="start" x="170.25" y="-18.5" font-family="Helvetica,sans-Serif" font-size="10.00">hri::GraphicsPipelineBuilder</text>
<text text-anchor="middle" x="230.25" y="-6.5" font-family="Helvetica,sans-Serif" font-size="10.00">::initRasterizationState</text>
</a>
</g>
</g>
<!-- Node1&#45;&gt;Node13 -->
<g id="edge12_Node000001_Node000013" class="edge">
<title>Node1&#45;&gt;Node13</title>
<g id="a_edge12_Node000001_Node000013"><a xlink:title=" ">
<path fill="none" stroke="#63b8ff" d="M66.76,-249.62C74.18,-208.69 98.98,-100.93 162.25,-41 163,-40.29 163.77,-39.6 164.56,-38.93"/>
<polygon fill="#63b8ff" stroke="#63b8ff" points="166.33,-41.97 172.46,-33.33 162.28,-36.26 166.33,-41.97"/>
</a>
</g>
</g>
<!-- Node5 -->
<g id="Node000005" class="node">
<title>Node5</title>
<g id="a_Node000005"><a xlink:href="structhri_1_1_descriptor_set_layout.html#aa4f8311cedbacba27dd1a82dd4d1e1cb" target="_top" xlink:title="Create a new descriptor set layout.">
<polygon fill="white" stroke="#666666" points="455.25,-432 334.25,-432 334.25,-400 455.25,-400 455.25,-432"/>
<text text-anchor="start" x="342.25" y="-418.5" font-family="Helvetica,sans-Serif" font-size="10.00">hri::DescriptorSetLayout</text>
<text text-anchor="middle" x="394.75" y="-406.5" font-family="Helvetica,sans-Serif" font-size="10.00">::init</text>
</a>
</g>
</g>
<!-- Node4&#45;&gt;Node5 -->
<g id="edge4_Node000004_Node000005" class="edge">
<title>Node4&#45;&gt;Node5</title>
<g id="a_edge4_Node000004_Node000005"><a xlink:title=" ">
<path fill="none" stroke="#63b8ff" d="M290.84,-416C301.15,-416 311.96,-416 322.54,-416"/>
<polygon fill="#63b8ff" stroke="#63b8ff" points="322.39,-419.5 332.39,-416 322.39,-412.5 322.39,-419.5"/>
</a>
</g>
</g>
</g>
</svg>

<g id="navigator" transform="translate(0 0)" fill="#404254">
  <rect fill="#f2f5e9" fill-opacity="0.5" stroke="#606060" stroke-width=".5" x="0" y="0" width="60" height="60"/>
  <use id="zoomplus" xlink:href="#zoomPlus" x="17" y="9" onmousedown="handleZoom(evt,'in')"/>
  <use id="zoomminus" xlink:href="#zoomMin" x="42" y="9" onmousedown="handleZoom(evt,'out')"/>
  <use id="reset" xlink:href="#resetDef" x="30" y="36" onmousedown="handleReset()"/>
   <use id="arrowup" xlink:href="#arrowUp" x="0" y="0" onmousedown="handlePan(0,-1)"/>
  <use id="arrowright" xlink:href="#arrowRight" x="0" y="0" onmousedown="handlePan(1,0)"/>
  <use id="arrowdown" xlink:href="#arrowDown" x="0" y="0" onmousedown="handlePan(0,1)"/>
  <use id="arrowleft" xlink:href="#arrowLeft" x="0" y="0" onmousedown="handlePan(-1,0)"/>
</g>
<svg viewBox="0 0 15 15" width="100%" height="30px" preserveAspectRatio="xMaxYMin meet">
 <g id="arrow_out" transform="scale(0.3 0.3)">
  <a xlink:href="class_presentation_subsystem_a30f0b5c438290d150800c9655371c8f4_cgraph_org.svg" target="_base">
   <rect id="button" ry="5" rx="5" y="6" x="6" height="38" width="38"
        fill="#f2f5e9" fill-opacity="0.5" stroke="#606060" stroke-width="1.0"/>
   <path id="arrow"
     d="M 11.500037,31.436501 C 11.940474,20.09759 22.043105,11.32322 32.158766,21.979434 L 37.068811,17.246167 C 37.068811,17.246167 37.088388,32 37.088388,32 L 22.160133,31.978069 C 22.160133,31.978069 26.997745,27.140456 26.997745,27.140456 C 18.528582,18.264221 13.291696,25.230495 11.500037,31.436501 z"
     style="fill:#404040;"/>
  </a>
 </g>
</svg>

<style type='text/css'>
<![CDATA[
[data-mouse-over-selected='false'] { opacity: 0.7; }
[data-mouse-over-selected='true']  { opacity: 1.0; }
]]>
</style>
<script type="application/ecmascript"><![CDATA[
document.addEventListener('DOMContentLoaded', (event) => {
  highlightEdges();
  highlightAdjacentNodes();
});
]]></script>
</svg>
