<?xml version="1.0" encoding="UTF-8" standalone="no"?>
<!DOCTYPE svg PUBLIC "-//W3C//DTD SVG 1.1//EN"
 "http://www.w3.org/Graphics/SVG/1.1/DTD/svg11.dtd">
<!-- Generated by graphviz version 10.0.1 (20240210.2158)
 -->
<!-- Title: hri::PipelineLayoutBuilder::build Pages: 1 -->
<svg width="318pt" height="140pt"
 viewBox="0.00 0.00 318.25 140.00" xmlns="http://www.w3.org/2000/svg" xmlns:xlink="http://www.w3.org/1999/xlink">
<g id="graph0" class="graph" transform="scale(1 1) rotate(0) translate(4 136)">
<title>hri::PipelineLayoutBuilder::build</title>
<!-- Node1 -->
<g id="Node000001" class="node">
<title>Node1</title>
<g id="a_Node000001"><a xlink:title="Build the configured pipeline layout.">
<polygon fill="#999999" stroke="#666666" points="310.25,-82 184,-82 184,-50 310.25,-50 310.25,-82"/>
<text text-anchor="start" x="192" y="-68.5" font-family="Helvetica,sans-Serif" font-size="10.00">hri::PipelineLayoutBuilder</text>
<text text-anchor="middle" x="247.12" y="-56.5" font-family="Helvetica,sans-Serif" font-size="10.00">::build</text>
</a>
</g>
</g>
<!-- Node2 -->
<g id="Node000002" class="node">
<title>Node2</title>
<g id="a_Node000002"><a xlink:href="class_g_buffer_layout_subsystem.html#a26867401ba6679f838b890edbb4ebceb" target="_top" xlink:title="Create a new GBuffer Layout subsystem.">
<polygon fill="white" stroke="#666666" points="140.5,-132 7.5,-132 7.5,-100 140.5,-100 140.5,-132"/>
<text text-anchor="start" x="15.5" y="-118.5" font-family="Helvetica,sans-Serif" font-size="10.00">GBufferLayoutSubsystem</text>
<text text-anchor="middle" x="74" y="-106.5" font-family="Helvetica,sans-Serif" font-size="10.00">::GBufferLayoutSubsystem</text>
</a>
</g>
</g>
<!-- Node1&#45;&gt;Node2 -->
<g id="edge1_Node000001_Node000002" class="edge">
<title>Node1&#45;&gt;Node2</title>
<g id="a_edge1_Node000001_Node000002"><a xlink:title=" ">
<path fill="none" stroke="#63b8ff" d="M179.31,-85.52C163.49,-90.15 146.76,-95.03 131.45,-99.51"/>
<polygon fill="#63b8ff" stroke="#63b8ff" points="180.02,-88.96 188.64,-82.8 178.06,-82.24 180.02,-88.96"/>
</a>
</g>
</g>
<!-- Node3 -->
<g id="Node000003" class="node">
<title>Node3</title>
<g id="a_Node000003"><a xlink:href="class_hybrid_ray_tracing_subsystem.html#af80a13c38e942cd5ecd6b1c44d0b38f5" target="_top" xlink:title=" ">
<polygon fill="white" stroke="#666666" points="148,-82 0,-82 0,-50 148,-50 148,-82"/>
<text text-anchor="start" x="8" y="-68.5" font-family="Helvetica,sans-Serif" font-size="10.00">HybridRayTracingSubsystem</text>
<text text-anchor="middle" x="74" y="-56.5" font-family="Helvetica,sans-Serif" font-size="10.00">::HybridRayTracingSubsystem</text>
</a>
</g>
</g>
<!-- Node1&#45;&gt;Node3 -->
<g id="edge2_Node000001_Node000003" class="edge">
<title>Node1&#45;&gt;Node3</title>
<g id="a_edge2_Node000001_Node000003"><a xlink:title=" ">
<path fill="none" stroke="#63b8ff" d="M172.59,-66C164.53,-66 156.32,-66 148.26,-66"/>
<polygon fill="#63b8ff" stroke="#63b8ff" points="172.35,-69.5 182.35,-66 172.35,-62.5 172.35,-69.5"/>
</a>
</g>
</g>
<!-- Node4 -->
<g id="Node000004" class="node">
<title>Node4</title>
<g id="a_Node000004"><a xlink:href="class_presentation_subsystem.html#a83e2ec653ef486e434b1636a1c7a3261" target="_top" xlink:title="Create a new Presentation Subsystem.">
<polygon fill="white" stroke="#666666" points="137.12,-32 10.88,-32 10.88,0 137.12,0 137.12,-32"/>
<text text-anchor="start" x="18.88" y="-18.5" font-family="Helvetica,sans-Serif" font-size="10.00">PresentationSubsystem</text>
<text text-anchor="middle" x="74" y="-6.5" font-family="Helvetica,sans-Serif" font-size="10.00">::PresentationSubsystem</text>
</a>
</g>
</g>
<!-- Node1&#45;&gt;Node4 -->
<g id="edge3_Node000001_Node000004" class="edge">
<title>Node1&#45;&gt;Node4</title>
<g id="a_edge3_Node000001_Node000004"><a xlink:title=" ">
<path fill="none" stroke="#63b8ff" d="M179.31,-46.48C163.49,-41.85 146.76,-36.97 131.45,-32.49"/>
<polygon fill="#63b8ff" stroke="#63b8ff" points="178.06,-49.76 188.64,-49.2 180.02,-43.04 178.06,-49.76"/>
</a>
</g>
</g>
</g>
</svg>
