<?xml version="1.0" encoding="UTF-8" standalone="no"?>
<!DOCTYPE svg PUBLIC "-//W3C//DTD SVG 1.1//EN"
 "http://www.w3.org/Graphics/SVG/1.1/DTD/svg11.dtd">
<!-- Generated by graphviz version 10.0.1 (20240210.2158)
 -->
<!-- Title: hri::RenderPassResourceManager Pages: 1 -->
<svg width="170pt" height="1053pt"
 viewBox="0.00 0.00 170.00 1053.00" xmlns="http://www.w3.org/2000/svg" xmlns:xlink="http://www.w3.org/1999/xlink">
<g id="graph0" class="graph" transform="scale(1 1) rotate(0) translate(4 1049)">
<title>hri::RenderPassResourceManager</title>
<!-- Node1 -->
<g id="Node000001" class="node">
<title>Node1</title>
<g id="a_Node000001"><a xlink:title="The Render Pass Resource manager handles drawing to a framebuffer constructed using the interface&#39;s c...">
<polygon fill="#999999" stroke="none" points="162,-116 0,-116 0,0 162,0 162,-116"/>
<text text-anchor="start" x="6.75" y="-102.5" font-family="Helvetica,sans-Serif" font-size="10.00">hri::RenderPassResourceManager</text>
<text text-anchor="start" x="79.5" y="-86.5" font-family="Helvetica,sans-Serif" font-size="10.00"> </text>
<text text-anchor="start" x="4" y="-70.5" font-family="Helvetica,sans-Serif" font-size="10.00">+</text>
<text text-anchor="start" x="14" y="-70.5" font-family="Helvetica,sans-Serif" font-size="10.00">RenderPassResourceManager()</text>
<text text-anchor="start" x="4" y="-54.5" font-family="Helvetica,sans-Serif" font-size="10.00">+</text>
<text text-anchor="start" x="14" y="-54.5" font-family="Helvetica,sans-Serif" font-size="10.00">~RenderPassResourceManager()</text>
<text text-anchor="start" x="4" y="-38.5" font-family="Helvetica,sans-Serif" font-size="10.00">+</text>
<text text-anchor="start" x="14" y="-38.5" font-family="Helvetica,sans-Serif" font-size="10.00">beginRenderPass()</text>
<text text-anchor="start" x="4.38" y="-22.5" font-family="Helvetica,sans-Serif" font-size="10.00">#</text>
<text text-anchor="start" x="14" y="-22.5" font-family="Helvetica,sans-Serif" font-size="10.00">createResources()</text>
<text text-anchor="start" x="4.38" y="-6.5" font-family="Helvetica,sans-Serif" font-size="10.00">#</text>
<text text-anchor="start" x="14" y="-6.5" font-family="Helvetica,sans-Serif" font-size="10.00">destroyResources()</text>
<polygon fill="#666666" stroke="#666666" points="0,-98 0,-98 162,-98 162,-98 0,-98"/>
<polygon fill="#666666" stroke="#666666" points="0,-82 0,-82 162,-82 162,-82 0,-82"/>
<polygon fill="none" stroke="#666666" points="0,0 0,-116 162,-116 162,0 0,0"/>
</a>
</g>
</g>
<!-- Node2 -->
<g id="Node000002" class="node">
<title>Node2</title>
<g id="a_Node000002"><a xlink:href="classhri_1_1_i_render_pass_resource_manager_base.html" target="_top" xlink:title="The Render Pass Resource Manager Base is used to create and recreate render pass resources....">
<polygon fill="white" stroke="none" points="160,-525 2,-525 2,-153 160,-153 160,-525"/>
<text text-anchor="start" x="24.38" y="-511.5" font-family="Helvetica,sans-Serif" font-size="10.00">hri::IRenderPassResource</text>
<text text-anchor="start" x="51" y="-499.5" font-family="Helvetica,sans-Serif" font-size="10.00">ManagerBase</text>
<text text-anchor="start" x="6.38" y="-483.5" font-family="Helvetica,sans-Serif" font-size="10.00">#</text>
<text text-anchor="start" x="16" y="-483.5" font-family="Helvetica,sans-Serif" font-size="10.00">m_renderPass</text>
<text text-anchor="start" x="6.38" y="-467.5" font-family="Helvetica,sans-Serif" font-size="10.00">#</text>
<text text-anchor="start" x="16" y="-467.5" font-family="Helvetica,sans-Serif" font-size="10.00">m_renderExtent</text>
<text text-anchor="start" x="6.38" y="-451.5" font-family="Helvetica,sans-Serif" font-size="10.00">#</text>
<text text-anchor="start" x="16" y="-451.5" font-family="Helvetica,sans-Serif" font-size="10.00">m_clearValues</text>
<text text-anchor="start" x="6.38" y="-435.5" font-family="Helvetica,sans-Serif" font-size="10.00">#</text>
<text text-anchor="start" x="16" y="-435.5" font-family="Helvetica,sans-Serif" font-size="10.00">m_attachmentConfigs</text>
<text text-anchor="start" x="6.38" y="-419.5" font-family="Helvetica,sans-Serif" font-size="10.00">#</text>
<text text-anchor="start" x="16" y="-419.5" font-family="Helvetica,sans-Serif" font-size="10.00">m_imageResources</text>
<text text-anchor="start" x="6" y="-403.5" font-family="Helvetica,sans-Serif" font-size="10.00">+</text>
<text text-anchor="start" x="16" y="-403.5" font-family="Helvetica,sans-Serif" font-size="10.00">IRenderPassResourceManager</text>
<text text-anchor="start" x="16" y="-391.5" font-family="Helvetica,sans-Serif" font-size="10.00">Base()</text>
<text text-anchor="start" x="6" y="-375.5" font-family="Helvetica,sans-Serif" font-size="10.00">+</text>
<text text-anchor="start" x="16" y="-375.5" font-family="Helvetica,sans-Serif" font-size="10.00">~IRenderPassResourceManager</text>
<text text-anchor="start" x="16" y="-363.5" font-family="Helvetica,sans-Serif" font-size="10.00">Base()</text>
<text text-anchor="start" x="6" y="-347.5" font-family="Helvetica,sans-Serif" font-size="10.00">+</text>
<text text-anchor="start" x="16" y="-347.5" font-family="Helvetica,sans-Serif" font-size="10.00">IRenderPassResourceManager</text>
<text text-anchor="start" x="16" y="-335.5" font-family="Helvetica,sans-Serif" font-size="10.00">Base()</text>
<text text-anchor="start" x="6" y="-319.5" font-family="Helvetica,sans-Serif" font-size="10.00">+</text>
<text text-anchor="start" x="16" y="-319.5" font-family="Helvetica,sans-Serif" font-size="10.00">operator=()</text>
<text text-anchor="start" x="6" y="-303.5" font-family="Helvetica,sans-Serif" font-size="10.00">+</text>
<text text-anchor="start" x="16" y="-303.5" font-family="Helvetica,sans-Serif" font-size="10.00">beginRenderPass()</text>
<text text-anchor="start" x="6" y="-287.5" font-family="Helvetica,sans-Serif" font-size="10.00">+</text>
<text text-anchor="start" x="16" y="-287.5" font-family="Helvetica,sans-Serif" font-size="10.00">endRenderPass()</text>
<text text-anchor="start" x="6" y="-271.5" font-family="Helvetica,sans-Serif" font-size="10.00">+</text>
<text text-anchor="start" x="16" y="-271.5" font-family="Helvetica,sans-Serif" font-size="10.00">setClearValue()</text>
<text text-anchor="start" x="6" y="-255.5" font-family="Helvetica,sans-Serif" font-size="10.00">+</text>
<text text-anchor="start" x="16" y="-255.5" font-family="Helvetica,sans-Serif" font-size="10.00">renderPass()</text>
<text text-anchor="start" x="6" y="-239.5" font-family="Helvetica,sans-Serif" font-size="10.00">+</text>
<text text-anchor="start" x="16" y="-239.5" font-family="Helvetica,sans-Serif" font-size="10.00">getAttachmentResource()</text>
<text text-anchor="start" x="6" y="-223.5" font-family="Helvetica,sans-Serif" font-size="10.00">+</text>
<text text-anchor="start" x="16" y="-223.5" font-family="Helvetica,sans-Serif" font-size="10.00">recreateResources()</text>
<text text-anchor="start" x="6.38" y="-207.5" font-family="Helvetica,sans-Serif" font-size="10.00">#</text>
<text text-anchor="start" x="16" y="-207.5" font-family="Helvetica,sans-Serif" font-size="10.00">createResources()</text>
<text text-anchor="start" x="6.38" y="-191.5" font-family="Helvetica,sans-Serif" font-size="10.00">#</text>
<text text-anchor="start" x="16" y="-191.5" font-family="Helvetica,sans-Serif" font-size="10.00">destroyResources()</text>
<text text-anchor="start" x="6.38" y="-175.5" font-family="Helvetica,sans-Serif" font-size="10.00">#</text>
<text text-anchor="start" x="16" y="-175.5" font-family="Helvetica,sans-Serif" font-size="10.00">getImageResourceViews()</text>
<text text-anchor="start" x="6.38" y="-159.5" font-family="Helvetica,sans-Serif" font-size="10.00">#</text>
<text text-anchor="start" x="16" y="-159.5" font-family="Helvetica,sans-Serif" font-size="10.00">getRenderExtent()</text>
<polygon fill="#666666" stroke="#666666" points="2,-495 2,-495 160,-495 160,-495 2,-495"/>
<polygon fill="#666666" stroke="#666666" points="2,-415 2,-415 14,-415 14,-415 2,-415"/>
<polygon fill="#666666" stroke="#666666" points="14,-415 14,-415 160,-415 160,-415 14,-415"/>
<polygon fill="none" stroke="#666666" points="2,-153 2,-525 160,-525 160,-153 2,-153"/>
</a>
</g>
</g>
<!-- Node2&#45;&gt;Node1 -->
<g id="edge1_Node000001_Node000002" class="edge">
<title>Node2&#45;&gt;Node1</title>
<g id="a_edge1_Node000001_Node000002"><a xlink:title=" ">
<path fill="none" stroke="#63b8ff" d="M81,-141.76C81,-132.64 81,-123.91 81,-115.77"/>
<polygon fill="none" stroke="#63b8ff" points="77.5,-141.55 81,-151.55 84.5,-141.55 77.5,-141.55"/>
</a>
</g>
</g>
<!-- Node3 -->
<g id="Node000003" class="node">
<title>Node3</title>
<g id="a_Node000003"><a xlink:href="classhri_1_1_render_context.html" target="_top" xlink:title="THe RenderContext manages the Vulkan instance, device, and swapchain state.">
<polygon fill="white" stroke="none" points="134,-801 28,-801 28,-573 134,-573 134,-801"/>
<text text-anchor="start" x="40.5" y="-787.5" font-family="Helvetica,sans-Serif" font-size="10.00">hri::RenderContext</text>
<text text-anchor="start" x="32" y="-771.5" font-family="Helvetica,sans-Serif" font-size="10.00">+</text>
<text text-anchor="start" x="42" y="-771.5" font-family="Helvetica,sans-Serif" font-size="10.00">instance</text>
<text text-anchor="start" x="32" y="-755.5" font-family="Helvetica,sans-Serif" font-size="10.00">+</text>
<text text-anchor="start" x="42" y="-755.5" font-family="Helvetica,sans-Serif" font-size="10.00">surface</text>
<text text-anchor="start" x="32" y="-739.5" font-family="Helvetica,sans-Serif" font-size="10.00">+</text>
<text text-anchor="start" x="42" y="-739.5" font-family="Helvetica,sans-Serif" font-size="10.00">gpu</text>
<text text-anchor="start" x="32" y="-723.5" font-family="Helvetica,sans-Serif" font-size="10.00">+</text>
<text text-anchor="start" x="42" y="-723.5" font-family="Helvetica,sans-Serif" font-size="10.00">device</text>
<text text-anchor="start" x="32" y="-707.5" font-family="Helvetica,sans-Serif" font-size="10.00">+</text>
<text text-anchor="start" x="42" y="-707.5" font-family="Helvetica,sans-Serif" font-size="10.00">allocator</text>
<text text-anchor="start" x="32" y="-691.5" font-family="Helvetica,sans-Serif" font-size="10.00">+</text>
<text text-anchor="start" x="42" y="-691.5" font-family="Helvetica,sans-Serif" font-size="10.00">swapchain</text>
<text text-anchor="start" x="32" y="-675.5" font-family="Helvetica,sans-Serif" font-size="10.00">+</text>
<text text-anchor="start" x="42" y="-675.5" font-family="Helvetica,sans-Serif" font-size="10.00">RenderContext()</text>
<text text-anchor="start" x="32" y="-659.5" font-family="Helvetica,sans-Serif" font-size="10.00">+</text>
<text text-anchor="start" x="42" y="-659.5" font-family="Helvetica,sans-Serif" font-size="10.00">~RenderContext()</text>
<text text-anchor="start" x="32" y="-643.5" font-family="Helvetica,sans-Serif" font-size="10.00">+</text>
<text text-anchor="start" x="42" y="-643.5" font-family="Helvetica,sans-Serif" font-size="10.00">RenderContext()</text>
<text text-anchor="start" x="32" y="-627.5" font-family="Helvetica,sans-Serif" font-size="10.00">+</text>
<text text-anchor="start" x="42" y="-627.5" font-family="Helvetica,sans-Serif" font-size="10.00">operator=()</text>
<text text-anchor="start" x="32" y="-611.5" font-family="Helvetica,sans-Serif" font-size="10.00">+</text>
<text text-anchor="start" x="42" y="-611.5" font-family="Helvetica,sans-Serif" font-size="10.00">setVSyncMode()</text>
<text text-anchor="start" x="32" y="-595.5" font-family="Helvetica,sans-Serif" font-size="10.00">+</text>
<text text-anchor="start" x="42" y="-595.5" font-family="Helvetica,sans-Serif" font-size="10.00">recreateSwapchain()</text>
<text text-anchor="start" x="32" y="-579.5" font-family="Helvetica,sans-Serif" font-size="10.00">+</text>
<text text-anchor="start" x="42" y="-579.5" font-family="Helvetica,sans-Serif" font-size="10.00">swapFormat()</text>
<polygon fill="#666666" stroke="#666666" points="28,-783 28,-783 134,-783 134,-783 28,-783"/>
<polygon fill="#666666" stroke="#666666" points="28,-687 28,-687 40,-687 40,-687 28,-687"/>
<polygon fill="#666666" stroke="#666666" points="40,-687 40,-687 134,-687 134,-687 40,-687"/>
<polygon fill="none" stroke="#666666" points="28,-573 28,-801 134,-801 134,-573 28,-573"/>
</a>
</g>
</g>
<!-- Node3&#45;&gt;Node2 -->
<g id="edge2_Node000002_Node000003" class="edge">
<title>Node3&#45;&gt;Node2</title>
<g id="a_edge2_Node000002_Node000003"><a xlink:title=" ">
<path fill="none" stroke="#63b8ff" d="M81,-573.19C81,-561.62 81,-549.65 81,-537.51"/>
<polygon fill="none" stroke="#63b8ff" points="81,-537.72 77,-531.72 81,-525.72 85,-531.72 81,-537.72"/>
</a>
</g>
<text text-anchor="middle" x="102" y="-545.5" font-family="Helvetica,sans-Serif" font-size="10.00" fill="grey"> #m_pCtx</text>
</g>
<!-- Node4 -->
<g id="Node000004" class="node">
<title>Node4</title>
<g id="a_Node000004"><a xlink:href="classhri_1_1_render_context_queue_state.html" target="_top" xlink:title="The context queue state creates and maintains the device queue setup.">
<polygon fill="white" stroke="none" points="152,-917 10,-917 10,-849 152,-849 152,-917"/>
<text text-anchor="start" x="14.62" y="-903.5" font-family="Helvetica,sans-Serif" font-size="10.00">hri::RenderContextQueueState</text>
<text text-anchor="start" x="79.5" y="-887.5" font-family="Helvetica,sans-Serif" font-size="10.00"> </text>
<text text-anchor="start" x="14.5" y="-871.5" font-family="Helvetica,sans-Serif" font-size="10.00">+</text>
<text text-anchor="start" x="25" y="-871.5" font-family="Helvetica,sans-Serif" font-size="10.00">RenderContextQueueState()</text>
<text text-anchor="start" x="14.5" y="-855.5" font-family="Helvetica,sans-Serif" font-size="10.00">+</text>
<text text-anchor="start" x="25" y="-855.5" font-family="Helvetica,sans-Serif" font-size="10.00">RenderContextQueueState()</text>
<polygon fill="#666666" stroke="#666666" points="10,-899 10,-899 152,-899 152,-899 10,-899"/>
<polygon fill="#666666" stroke="#666666" points="10,-883 10,-883 152,-883 152,-883 10,-883"/>
<polygon fill="none" stroke="#666666" points="10,-849 10,-917 152,-917 152,-849 10,-849"/>
</a>
</g>
</g>
<!-- Node4&#45;&gt;Node3 -->
<g id="edge3_Node000003_Node000004" class="edge">
<title>Node4&#45;&gt;Node3</title>
<g id="a_edge3_Node000003_Node000004"><a xlink:title=" ">
<path fill="none" stroke="#63b8ff" d="M81,-849.09C81,-838.79 81,-826.75 81,-813.97"/>
<polygon fill="none" stroke="#63b8ff" points="81,-813.89 77,-807.89 81,-801.89 85,-807.89 81,-813.89"/>
</a>
</g>
<text text-anchor="middle" x="101.25" y="-821.5" font-family="Helvetica,sans-Serif" font-size="10.00" fill="grey"> +queues</text>
</g>
<!-- Node5 -->
<g id="Node000005" class="node">
<title>Node5</title>
<g id="a_Node000005"><a xlink:href="structhri_1_1_device_queue.html" target="_top" xlink:title="A Device Queue is a queue on the logical device to which operations can be submitted.">
<polygon fill="white" stroke="none" points="122.5,-1045 39.5,-1045 39.5,-977 122.5,-977 122.5,-1045"/>
<text text-anchor="start" x="44.25" y="-1031.5" font-family="Helvetica,sans-Serif" font-size="10.00">hri::DeviceQueue</text>
<text text-anchor="start" x="52.5" y="-1015.5" font-family="Helvetica,sans-Serif" font-size="10.00">+</text>
<text text-anchor="start" x="71.5" y="-1015.5" font-family="Helvetica,sans-Serif" font-size="10.00">family</text>
<text text-anchor="start" x="52.5" y="-999.5" font-family="Helvetica,sans-Serif" font-size="10.00">+</text>
<text text-anchor="start" x="71.5" y="-999.5" font-family="Helvetica,sans-Serif" font-size="10.00">handle</text>
<text text-anchor="start" x="79.5" y="-983.5" font-family="Helvetica,sans-Serif" font-size="10.00"> </text>
<polygon fill="#666666" stroke="#666666" points="39.5,-1027 39.5,-1027 122.5,-1027 122.5,-1027 39.5,-1027"/>
<polygon fill="#666666" stroke="#666666" points="39.5,-995 39.5,-995 69.5,-995 69.5,-995 39.5,-995"/>
<polygon fill="#666666" stroke="#666666" points="69.5,-995 69.5,-995 122.5,-995 122.5,-995 69.5,-995"/>
<polygon fill="none" stroke="#666666" points="39.5,-977 39.5,-1045 122.5,-1045 122.5,-977 39.5,-977"/>
</a>
</g>
</g>
<!-- Node5&#45;&gt;Node4 -->
<g id="edge4_Node000004_Node000005" class="edge">
<title>Node5&#45;&gt;Node4</title>
<g id="a_edge4_Node000004_Node000005"><a xlink:title=" ">
<path fill="none" stroke="#63b8ff" d="M81,-977.22C81,-962.64 81,-945.23 81,-929.42"/>
<polygon fill="none" stroke="#63b8ff" points="81,-929.51 77,-923.51 81,-917.51 85,-923.51 81,-929.51"/>
</a>
</g>
<text text-anchor="middle" x="118.12" y="-949.5" font-family="Helvetica,sans-Serif" font-size="10.00" fill="grey"> +graphicsQueue</text>
<text text-anchor="middle" x="118.12" y="-937.5" font-family="Helvetica,sans-Serif" font-size="10.00" fill="grey">+presentQueue</text>
</g>
</g>
</svg>
