<?xml version="1.0" encoding="UTF-8" standalone="no"?>
<!DOCTYPE svg PUBLIC "-//W3C//DTD SVG 1.1//EN"
 "http://www.w3.org/Graphics/SVG/1.1/DTD/svg11.dtd">
<!-- Generated by graphviz version 10.0.1 (20240210.2158)
 -->
<!-- Title: hri::ImageResource::SubresourceRange Pages: 1 -->
<svg width="711pt" height="150pt"
 viewBox="0.00 0.00 711.00 150.00" xmlns="http://www.w3.org/2000/svg" xmlns:xlink="http://www.w3.org/1999/xlink">
<g id="graph0" class="graph" transform="scale(1 1) rotate(0) translate(4 146)">
<title>hri::ImageResource::SubresourceRange</title>
<!-- Node1 -->
<g id="Node000001" class="node">
<title>Node1</title>
<g id="a_Node000001"><a xlink:title="Create an image subresource range.">
<polygon fill="#999999" stroke="#666666" points="703,-60 598.5,-60 598.5,-28 703,-28 703,-60"/>
<text text-anchor="start" x="606.5" y="-46.5" font-family="Helvetica,sans-Serif" font-size="10.00">hri::ImageResource</text>
<text text-anchor="middle" x="650.75" y="-34.5" font-family="Helvetica,sans-Serif" font-size="10.00">::SubresourceRange</text>
</a>
</g>
</g>
<!-- Node2 -->
<g id="Node000002" class="node">
<title>Node2</title>
<g id="a_Node000002"><a xlink:href="classhri_1_1_i_render_pass_resource_manager_base.html#a4391328fd9a0316ede758d338bee9fea" target="_top" xlink:title="Create resources.">
<polygon fill="white" stroke="#666666" points="562.5,-82 407,-82 407,-50 562.5,-50 562.5,-82"/>
<text text-anchor="start" x="415" y="-68.5" font-family="Helvetica,sans-Serif" font-size="10.00">hri::IRenderPassResource</text>
<text text-anchor="middle" x="484.75" y="-56.5" font-family="Helvetica,sans-Serif" font-size="10.00">ManagerBase::createResources</text>
</a>
</g>
</g>
<!-- Node1&#45;&gt;Node2 -->
<g id="edge1_Node000001_Node000002" class="edge">
<title>Node1&#45;&gt;Node2</title>
<g id="a_edge1_Node000001_Node000002"><a xlink:title=" ">
<path fill="none" stroke="#63b8ff" d="M586.96,-52.42C579.06,-53.48 570.92,-54.58 562.84,-55.66"/>
<polygon fill="#63b8ff" stroke="#63b8ff" points="587.36,-55.9 596.81,-51.1 586.43,-48.96 587.36,-55.9"/>
</a>
</g>
</g>
<!-- Node8 -->
<g id="Node000008" class="node">
<title>Node8</title>
<g id="a_Node000008"><a xlink:href="class_renderer.html#ae9ea22eef66c32118c1f96fc6e6d569e" target="_top" xlink:title=" ">
<polygon fill="white" stroke="#666666" points="539.25,-32 430.25,-32 430.25,-12 539.25,-12 539.25,-32"/>
<text text-anchor="middle" x="484.75" y="-18.5" font-family="Helvetica,sans-Serif" font-size="10.00">Renderer::drawFrame</text>
</a>
</g>
</g>
<!-- Node1&#45;&gt;Node8 -->
<g id="edge7_Node000001_Node000008" class="edge">
<title>Node1&#45;&gt;Node8</title>
<g id="a_edge7_Node000001_Node000008"><a xlink:title=" ">
<path fill="none" stroke="#63b8ff" d="M587.11,-35.6C571.43,-33.49 554.76,-31.26 539.56,-29.22"/>
<polygon fill="#63b8ff" stroke="#63b8ff" points="586.43,-39.04 596.81,-36.9 587.36,-32.1 586.43,-39.04"/>
</a>
</g>
</g>
<!-- Node3 -->
<g id="Node000003" class="node">
<title>Node3</title>
<g id="a_Node000003"><a xlink:href="classhri_1_1_swapchain_pass_resource_manager.html#a47e6b8357bfa6232737e69cb478ef45e" target="_top" xlink:title="Create resources.">
<polygon fill="white" stroke="#666666" points="360.5,-133 217,-133 217,-101 360.5,-101 360.5,-133"/>
<text text-anchor="start" x="225" y="-119.5" font-family="Helvetica,sans-Serif" font-size="10.00">hri::SwapchainPassResource</text>
<text text-anchor="middle" x="288.75" y="-107.5" font-family="Helvetica,sans-Serif" font-size="10.00">Manager::createResources</text>
</a>
</g>
</g>
<!-- Node2&#45;&gt;Node3 -->
<g id="edge2_Node000002_Node000003" class="edge">
<title>Node2&#45;&gt;Node3</title>
<g id="a_edge2_Node000002_Node000003"><a xlink:title=" ">
<path fill="none" stroke="#63b8ff" d="M409.99,-85.39C390.96,-90.39 370.65,-95.73 352.25,-100.57"/>
<polygon fill="#63b8ff" stroke="#63b8ff" points="410.79,-88.8 419.57,-82.87 409.01,-82.03 410.79,-88.8"/>
</a>
</g>
</g>
<!-- Node5 -->
<g id="Node000005" class="node">
<title>Node5</title>
<g id="a_Node000005"><a xlink:href="classhri_1_1_render_pass_resource_manager.html#af1d3d90e346a5101ecb20e469206669c" target="_top" xlink:title="Create resources.">
<polygon fill="white" stroke="#666666" points="371,-82 206.5,-82 206.5,-50 371,-50 371,-82"/>
<text text-anchor="start" x="214.5" y="-68.5" font-family="Helvetica,sans-Serif" font-size="10.00">hri::RenderPassResourceManager</text>
<text text-anchor="middle" x="288.75" y="-56.5" font-family="Helvetica,sans-Serif" font-size="10.00">::createResources</text>
</a>
</g>
</g>
<!-- Node2&#45;&gt;Node5 -->
<g id="edge4_Node000002_Node000005" class="edge">
<title>Node2&#45;&gt;Node5</title>
<g id="a_edge4_Node000002_Node000005"><a xlink:title=" ">
<path fill="none" stroke="#63b8ff" d="M395.08,-66C387.22,-66 379.29,-66 371.49,-66"/>
<polygon fill="#63b8ff" stroke="#63b8ff" points="395.01,-69.5 405.01,-66 395.01,-62.5 395.01,-69.5"/>
</a>
</g>
</g>
<!-- Node7 -->
<g id="Node000007" class="node">
<title>Node7</title>
<g id="a_Node000007"><a xlink:href="classhri_1_1_i_render_pass_resource_manager_base.html#aad0340480a463f5e32539a201440e7b9" target="_top" xlink:title="Recreate resources.">
<polygon fill="white" stroke="#666666" points="370.62,-32 206.88,-32 206.88,0 370.62,0 370.62,-32"/>
<text text-anchor="start" x="214.88" y="-18.5" font-family="Helvetica,sans-Serif" font-size="10.00">hri::IRenderPassResource</text>
<text text-anchor="middle" x="288.75" y="-6.5" font-family="Helvetica,sans-Serif" font-size="10.00">ManagerBase::recreateResources</text>
</a>
</g>
</g>
<!-- Node2&#45;&gt;Node7 -->
<g id="edge6_Node000002_Node000007" class="edge">
<title>Node2&#45;&gt;Node7</title>
<g id="a_edge6_Node000002_Node000007"><a xlink:title=" ">
<path fill="none" stroke="#63b8ff" d="M409.04,-46.74C390.74,-42.03 371.32,-37.02 353.58,-32.45"/>
<polygon fill="#63b8ff" stroke="#63b8ff" points="407.94,-50.07 418.49,-49.18 409.68,-43.3 407.94,-50.07"/>
</a>
</g>
</g>
<!-- Node4 -->
<g id="Node000004" class="node">
<title>Node4</title>
<g id="a_Node000004"><a xlink:href="classhri_1_1_swapchain_pass_resource_manager.html#a37fb0d79f8ee46085616dd9b85156284" target="_top" xlink:title="Create a new Swapchain resource manager.">
<polygon fill="white" stroke="#666666" points="170.5,-142 0,-142 0,-98 170.5,-98 170.5,-142"/>
<text text-anchor="start" x="8" y="-128.5" font-family="Helvetica,sans-Serif" font-size="10.00">hri::SwapchainPassResource</text>
<text text-anchor="start" x="8" y="-116.5" font-family="Helvetica,sans-Serif" font-size="10.00">Manager::SwapchainPassResource</text>
<text text-anchor="middle" x="85.25" y="-104.5" font-family="Helvetica,sans-Serif" font-size="10.00">Manager</text>
</a>
</g>
</g>
<!-- Node3&#45;&gt;Node4 -->
<g id="edge3_Node000003_Node000004" class="edge">
<title>Node3&#45;&gt;Node4</title>
<g id="a_edge3_Node000003_Node000004"><a xlink:title=" ">
<path fill="none" stroke="#63b8ff" d="M205.42,-118.23C194,-118.4 182.26,-118.57 170.8,-118.74"/>
<polygon fill="#63b8ff" stroke="#63b8ff" points="205.25,-121.73 215.2,-118.08 205.14,-114.73 205.25,-121.73"/>
</a>
</g>
</g>
<!-- Node6 -->
<g id="Node000006" class="node">
<title>Node6</title>
<g id="a_Node000006"><a xlink:href="classhri_1_1_render_pass_resource_manager.html#a7ce056b4db9605f863c414c2b6071b98" target="_top" xlink:title="Create a new Render Pass Resource Manager.">
<polygon fill="white" stroke="#666666" points="167.5,-80 3,-80 3,-48 167.5,-48 167.5,-80"/>
<text text-anchor="start" x="11" y="-66.5" font-family="Helvetica,sans-Serif" font-size="10.00">hri::RenderPassResourceManager</text>
<text text-anchor="middle" x="85.25" y="-54.5" font-family="Helvetica,sans-Serif" font-size="10.00">::RenderPassResourceManager</text>
</a>
</g>
</g>
<!-- Node5&#45;&gt;Node6 -->
<g id="edge5_Node000005_Node000006" class="edge">
<title>Node5&#45;&gt;Node6</title>
<g id="a_edge5_Node000005_Node000006"><a xlink:title=" ">
<path fill="none" stroke="#63b8ff" d="M194.72,-65.08C185.7,-64.99 176.6,-64.9 167.71,-64.81"/>
<polygon fill="#63b8ff" stroke="#63b8ff" points="194.53,-68.57 204.57,-65.17 194.6,-61.58 194.53,-68.57"/>
</a>
</g>
</g>
</g>
</svg>
