<?xml version="1.0" encoding="UTF-8" standalone="no"?>
<!DOCTYPE svg PUBLIC "-//W3C//DTD SVG 1.1//EN"
 "http://www.w3.org/Graphics/SVG/1.1/DTD/svg11.dtd">
<!-- Generated by graphviz version 10.0.1 (20240210.2158)
 -->
<!-- Title: GBufferLayoutSubsystem::record Pages: 1 -->
<svg width="344pt" height="128pt"
 viewBox="0.00 0.00 343.75 128.00" xmlns="http://www.w3.org/2000/svg" xmlns:xlink="http://www.w3.org/1999/xlink">
<g id="graph0" class="graph" transform="scale(1 1) rotate(0) translate(4 124)">
<title>GBufferLayoutSubsystem::record</title>
<!-- Node1 -->
<g id="Node000001" class="node">
<title>Node1</title>
<g id="a_Node000001"><a xlink:title="Record GBuffer Layout render commands.">
<polygon fill="#999999" stroke="#666666" points="127,-70 0,-70 0,-38 127,-38 127,-70"/>
<text text-anchor="start" x="8" y="-56.5" font-family="Helvetica,sans-Serif" font-size="10.00">GBufferLayoutSubsystem</text>
<text text-anchor="middle" x="63.5" y="-44.5" font-family="Helvetica,sans-Serif" font-size="10.00">::record</text>
</a>
</g>
</g>
<!-- Node2 -->
<g id="Node000002" class="node">
<title>Node2</title>
<g id="a_Node000002"><a xlink:href="classhri__debug_1_1_debug_label_handler.html#aa8deadfbc3d6e9592babb5f4972dcd21" target="_top" xlink:title="Begin a new command buffer label.">
<polygon fill="white" stroke="#666666" points="323.38,-120 175.38,-120 175.38,-88 323.38,-88 323.38,-120"/>
<text text-anchor="start" x="183.38" y="-106.5" font-family="Helvetica,sans-Serif" font-size="10.00">hri_debug::DebugLabelHandler</text>
<text text-anchor="middle" x="249.38" y="-94.5" font-family="Helvetica,sans-Serif" font-size="10.00">::cmdBeginLabel</text>
</a>
</g>
</g>
<!-- Node1&#45;&gt;Node2 -->
<g id="edge1_Node000001_Node000002" class="edge">
<title>Node1&#45;&gt;Node2</title>
<g id="a_edge1_Node000001_Node000002"><a xlink:title=" ">
<path fill="none" stroke="#63b8ff" d="M124.96,-70.44C141.53,-74.95 159.66,-79.88 176.79,-84.53"/>
<polygon fill="#63b8ff" stroke="#63b8ff" points="175.85,-87.91 186.42,-87.15 177.68,-81.15 175.85,-87.91"/>
</a>
</g>
</g>
<!-- Node3 -->
<g id="Node000003" class="node">
<title>Node3</title>
<g id="a_Node000003"><a xlink:href="classhri__debug_1_1_debug_label_handler.html#a8b0a90f5f26f6c496299e2a52b92ed2c" target="_top" xlink:title="End a command buffer label region.">
<polygon fill="white" stroke="#666666" points="323.38,-70 175.38,-70 175.38,-38 323.38,-38 323.38,-70"/>
<text text-anchor="start" x="183.38" y="-56.5" font-family="Helvetica,sans-Serif" font-size="10.00">hri_debug::DebugLabelHandler</text>
<text text-anchor="middle" x="249.38" y="-44.5" font-family="Helvetica,sans-Serif" font-size="10.00">::cmdEndLabel</text>
</a>
</g>
</g>
<!-- Node1&#45;&gt;Node3 -->
<g id="edge2_Node000001_Node000003" class="edge">
<title>Node1&#45;&gt;Node3</title>
<g id="a_edge2_Node000001_Node000003"><a xlink:title=" ">
<path fill="none" stroke="#63b8ff" d="M127.27,-54C139.05,-54 151.56,-54 163.88,-54"/>
<polygon fill="#63b8ff" stroke="#63b8ff" points="163.61,-57.5 173.61,-54 163.61,-50.5 163.61,-57.5"/>
</a>
</g>
</g>
<!-- Node4 -->
<g id="Node000004" class="node">
<title>Node4</title>
<g id="a_Node000004"><a xlink:href="class_scene_graph.html#af63a471c90f8bfcbdd3f1138d78777f2" target="_top" xlink:title="Retrieve cached instance list generated by the latest call to SceneGraph::generateRenderInstanceList.">
<polygon fill="white" stroke="#666666" points="335.75,-20 163,-20 163,0 335.75,0 335.75,-20"/>
<text text-anchor="middle" x="249.38" y="-6.5" font-family="Helvetica,sans-Serif" font-size="10.00">SceneGraph::getRenderInstanceList</text>
</a>
</g>
</g>
<!-- Node1&#45;&gt;Node4 -->
<g id="edge3_Node000001_Node000004" class="edge">
<title>Node1&#45;&gt;Node4</title>
<g id="a_edge3_Node000001_Node000004"><a xlink:title=" ">
<path fill="none" stroke="#63b8ff" d="M127.49,-37.72C139.27,-34.76 151.5,-31.74 163,-29 171.52,-26.97 180.53,-24.89 189.38,-22.89"/>
<polygon fill="#63b8ff" stroke="#63b8ff" points="189.99,-26.34 198.98,-20.73 188.45,-19.51 189.99,-26.34"/>
</a>
</g>
</g>
</g>
</svg>
