<?xml version="1.0" encoding="UTF-8" standalone="no"?>
<!DOCTYPE svg PUBLIC "-//W3C//DTD SVG 1.1//EN"
 "http://www.w3.org/Graphics/SVG/1.1/DTD/svg11.dtd">
<!-- Generated by graphviz version 10.0.1 (20240210.2158)
 -->
<!-- Title: SceneGraph Pages: 1 -->
<svg width="479pt" height="1312pt"
 viewBox="0.00 0.00 478.75 1312.00" xmlns="http://www.w3.org/2000/svg" xmlns:xlink="http://www.w3.org/1999/xlink">
<g id="graph0" class="graph" transform="scale(1 1) rotate(0) translate(4 1308)">
<title>SceneGraph</title>
<!-- Node1 -->
<g id="Node000001" class="node">
<title>Node1</title>
<g id="a_Node000001"><a xlink:title=" ">
<polygon fill="#999999" stroke="none" points="297.5,-328 134.5,-328 134.5,0 297.5,0 297.5,-328"/>
<text text-anchor="start" x="189" y="-314.5" font-family="Helvetica,sans-Serif" font-size="10.00">SceneGraph</text>
<text text-anchor="start" x="138.5" y="-298.5" font-family="Helvetica,sans-Serif" font-size="10.00">+</text>
<text text-anchor="start" x="148.5" y="-298.5" font-family="Helvetica,sans-Serif" font-size="10.00">std::vector&lt; Material</text>
<text text-anchor="start" x="148.5" y="-286.5" font-family="Helvetica,sans-Serif" font-size="10.00"> &gt; materials</text>
<text text-anchor="start" x="138.5" y="-270.5" font-family="Helvetica,sans-Serif" font-size="10.00">+</text>
<text text-anchor="start" x="148.5" y="-270.5" font-family="Helvetica,sans-Serif" font-size="10.00">std::vector&lt; hri::Mesh</text>
<text text-anchor="start" x="148.5" y="-258.5" font-family="Helvetica,sans-Serif" font-size="10.00"> &gt; meshes</text>
<text text-anchor="start" x="138.5" y="-242.5" font-family="Helvetica,sans-Serif" font-size="10.00">+</text>
<text text-anchor="start" x="148.5" y="-242.5" font-family="Helvetica,sans-Serif" font-size="10.00">std::vector&lt; SceneNode</text>
<text text-anchor="start" x="148.5" y="-230.5" font-family="Helvetica,sans-Serif" font-size="10.00"> &gt; nodes</text>
<text text-anchor="start" x="138.5" y="-214.5" font-family="Helvetica,sans-Serif" font-size="10.00">+</text>
<text text-anchor="start" x="148.5" y="-214.5" font-family="Helvetica,sans-Serif" font-size="10.00">SceneGraph(raytracing</text>
<text text-anchor="start" x="148.5" y="-202.5" font-family="Helvetica,sans-Serif" font-size="10.00">::RayTracingContext &amp;ctx,</text>
<text text-anchor="start" x="148.5" y="-190.5" font-family="Helvetica,sans-Serif" font-size="10.00"> std::vector&lt; Material &gt;</text>
<text text-anchor="start" x="148.5" y="-178.5" font-family="Helvetica,sans-Serif" font-size="10.00"> &amp;&amp;materials, std::vector</text>
<text text-anchor="start" x="148.5" y="-166.5" font-family="Helvetica,sans-Serif" font-size="10.00">&lt; hri::Mesh &gt; &amp;&amp;meshes, std</text>
<text text-anchor="start" x="148.5" y="-154.5" font-family="Helvetica,sans-Serif" font-size="10.00">::vector&lt; SceneNode &gt; &amp;&amp;nodes)</text>
<text text-anchor="start" x="138.5" y="-138.5" font-family="Helvetica,sans-Serif" font-size="10.00">+</text>
<text text-anchor="start" x="148.5" y="-138.5" font-family="Helvetica,sans-Serif" font-size="10.00">virtual ~SceneGraph</text>
<text text-anchor="start" x="148.5" y="-126.5" font-family="Helvetica,sans-Serif" font-size="10.00">()=default</text>
<text text-anchor="start" x="138.5" y="-110.5" font-family="Helvetica,sans-Serif" font-size="10.00">+</text>
<text text-anchor="start" x="148.5" y="-110.5" font-family="Helvetica,sans-Serif" font-size="10.00">void update(float deltaTime)</text>
<text text-anchor="start" x="138.5" y="-94.5" font-family="Helvetica,sans-Serif" font-size="10.00">+</text>
<text text-anchor="start" x="148.5" y="-94.5" font-family="Helvetica,sans-Serif" font-size="10.00">const std::vector&lt;</text>
<text text-anchor="start" x="148.5" y="-82.5" font-family="Helvetica,sans-Serif" font-size="10.00"> RenderInstance &gt; &amp;</text>
<text text-anchor="start" x="148.5" y="-70.5" font-family="Helvetica,sans-Serif" font-size="10.00"> getRenderInstanceList</text>
<text text-anchor="start" x="148.5" y="-58.5" font-family="Helvetica,sans-Serif" font-size="10.00">() const</text>
<text text-anchor="start" x="138.5" y="-42.5" font-family="Helvetica,sans-Serif" font-size="10.00">+</text>
<text text-anchor="start" x="148.5" y="-42.5" font-family="Helvetica,sans-Serif" font-size="10.00">const std::vector&lt;</text>
<text text-anchor="start" x="148.5" y="-30.5" font-family="Helvetica,sans-Serif" font-size="10.00"> RenderInstance &gt; &amp;</text>
<text text-anchor="start" x="148.5" y="-18.5" font-family="Helvetica,sans-Serif" font-size="10.00"> generateRenderInstanceList</text>
<text text-anchor="start" x="148.5" y="-6.5" font-family="Helvetica,sans-Serif" font-size="10.00">(const hri::Camera &amp;camera)</text>
<polygon fill="#666666" stroke="#666666" points="134.5,-310 134.5,-310 297.5,-310 297.5,-310 134.5,-310"/>
<polygon fill="#666666" stroke="#666666" points="134.5,-226 134.5,-226 146.5,-226 146.5,-226 134.5,-226"/>
<polygon fill="#666666" stroke="#666666" points="146.5,-226 146.5,-226 297.5,-226 297.5,-226 146.5,-226"/>
<polygon fill="none" stroke="#666666" points="134.5,0 134.5,-328 297.5,-328 297.5,0 134.5,0"/>
</a>
</g>
</g>
<!-- Node2 -->
<g id="Node000002" class="node">
<title>Node2</title>
<g id="a_Node000002"><a xlink:href="struct_scene_parameters.html" target="_top" xlink:title="Scene parameters allow modifying LOD selection.">
<polygon fill="white" stroke="none" points="88,-664 0,-664 0,-596 88,-596 88,-664"/>
<text text-anchor="start" x="5" y="-650.5" font-family="Helvetica,sans-Serif" font-size="10.00">SceneParameters</text>
<text text-anchor="start" x="6" y="-634.5" font-family="Helvetica,sans-Serif" font-size="10.00">+</text>
<text text-anchor="start" x="18" y="-634.5" font-family="Helvetica,sans-Serif" font-size="10.00">float nearPoint</text>
<text text-anchor="start" x="6" y="-618.5" font-family="Helvetica,sans-Serif" font-size="10.00">+</text>
<text text-anchor="start" x="18" y="-618.5" font-family="Helvetica,sans-Serif" font-size="10.00">float farPoint</text>
<text text-anchor="start" x="42.5" y="-602.5" font-family="Helvetica,sans-Serif" font-size="10.00"> </text>
<polygon fill="#666666" stroke="#666666" points="0,-646 0,-646 88,-646 88,-646 0,-646"/>
<polygon fill="#666666" stroke="#666666" points="0,-614 0,-614 16,-614 16,-614 0,-614"/>
<polygon fill="#666666" stroke="#666666" points="16,-614 16,-614 88,-614 88,-614 16,-614"/>
<polygon fill="none" stroke="#666666" points="0,-596 0,-664 88,-664 88,-596 0,-596"/>
</a>
</g>
</g>
<!-- Node2&#45;&gt;Node1 -->
<g id="edge1_Node000001_Node000002" class="edge">
<title>Node2&#45;&gt;Node1</title>
<g id="a_edge1_Node000001_Node000002"><a xlink:title=" ">
<path fill="none" stroke="#63b8ff" d="M47.61,-596.15C53.74,-547.02 68.39,-452.02 97,-376 105.75,-352.77 116.78,-329.03 128.59,-306.26"/>
<polygon fill="none" stroke="#63b8ff" points="128.62,-306.21 127.88,-299.04 134.22,-295.6 134.96,-302.77 128.62,-306.21"/>
</a>
</g>
<text text-anchor="middle" x="135.88" y="-348.5" font-family="Helvetica,sans-Serif" font-size="10.00" fill="grey"> +parameters</text>
</g>
<!-- Node3 -->
<g id="Node000003" class="node">
<title>Node3</title>
<g id="a_Node000003"><a xlink:href="class_scene_a_s_manager.html" target="_top" xlink:title=" ">
<polygon fill="white" stroke="none" points="325.5,-884 106.5,-884 106.5,-376 325.5,-376 325.5,-884"/>
<text text-anchor="start" x="176.62" y="-870.5" font-family="Helvetica,sans-Serif" font-size="10.00">SceneASManager</text>
<text text-anchor="start" x="214.5" y="-854.5" font-family="Helvetica,sans-Serif" font-size="10.00"> </text>
<text text-anchor="start" x="110.5" y="-838.5" font-family="Helvetica,sans-Serif" font-size="10.00">+</text>
<text text-anchor="start" x="120.5" y="-838.5" font-family="Helvetica,sans-Serif" font-size="10.00">SceneASManager(raytracing</text>
<text text-anchor="start" x="120.5" y="-826.5" font-family="Helvetica,sans-Serif" font-size="10.00">::RayTracingContext &amp;ctx,</text>
<text text-anchor="start" x="120.5" y="-814.5" font-family="Helvetica,sans-Serif" font-size="10.00"> const std::vector&lt; hri::</text>
<text text-anchor="start" x="120.5" y="-802.5" font-family="Helvetica,sans-Serif" font-size="10.00">Mesh &gt; &amp;meshes)</text>
<text text-anchor="start" x="110.5" y="-786.5" font-family="Helvetica,sans-Serif" font-size="10.00">+</text>
<text text-anchor="start" x="120.5" y="-786.5" font-family="Helvetica,sans-Serif" font-size="10.00">virtual ~SceneASManager</text>
<text text-anchor="start" x="120.5" y="-774.5" font-family="Helvetica,sans-Serif" font-size="10.00">()=default</text>
<text text-anchor="start" x="110.5" y="-758.5" font-family="Helvetica,sans-Serif" font-size="10.00">+</text>
<text text-anchor="start" x="120.5" y="-758.5" font-family="Helvetica,sans-Serif" font-size="10.00">bool shouldReallocTLAS</text>
<text text-anchor="start" x="120.5" y="-746.5" font-family="Helvetica,sans-Serif" font-size="10.00">(const raytracing::Acceleration</text>
<text text-anchor="start" x="120.5" y="-734.5" font-family="Helvetica,sans-Serif" font-size="10.00">Structure &amp;tlas, const std</text>
<text text-anchor="start" x="120.5" y="-722.5" font-family="Helvetica,sans-Serif" font-size="10.00">::vector&lt; RenderInstance &gt; &amp;instances,</text>
<text text-anchor="start" x="120.5" y="-710.5" font-family="Helvetica,sans-Serif" font-size="10.00"> const std::vector&lt; raytracing::Acceleration</text>
<text text-anchor="start" x="120.5" y="-698.5" font-family="Helvetica,sans-Serif" font-size="10.00">Structure &gt; &amp;blasList) const</text>
<text text-anchor="start" x="110.5" y="-682.5" font-family="Helvetica,sans-Serif" font-size="10.00">+</text>
<text text-anchor="start" x="120.5" y="-682.5" font-family="Helvetica,sans-Serif" font-size="10.00">raytracing::Acceleration</text>
<text text-anchor="start" x="120.5" y="-670.5" font-family="Helvetica,sans-Serif" font-size="10.00">Structure createTLAS(const</text>
<text text-anchor="start" x="120.5" y="-658.5" font-family="Helvetica,sans-Serif" font-size="10.00"> std::vector&lt; RenderInstance</text>
<text text-anchor="start" x="120.5" y="-646.5" font-family="Helvetica,sans-Serif" font-size="10.00"> &gt; &amp;instances, const std::vector</text>
<text text-anchor="start" x="120.5" y="-634.5" font-family="Helvetica,sans-Serif" font-size="10.00">&lt; raytracing::AccelerationStructure</text>
<text text-anchor="start" x="120.5" y="-622.5" font-family="Helvetica,sans-Serif" font-size="10.00"> &gt; &amp;blasList)</text>
<text text-anchor="start" x="110.5" y="-606.5" font-family="Helvetica,sans-Serif" font-size="10.00">+</text>
<text text-anchor="start" x="120.5" y="-606.5" font-family="Helvetica,sans-Serif" font-size="10.00">std::vector&lt; raytracing</text>
<text text-anchor="start" x="120.5" y="-594.5" font-family="Helvetica,sans-Serif" font-size="10.00">::AccelerationStructure</text>
<text text-anchor="start" x="120.5" y="-582.5" font-family="Helvetica,sans-Serif" font-size="10.00"> &gt; createBLASList(const</text>
<text text-anchor="start" x="120.5" y="-570.5" font-family="Helvetica,sans-Serif" font-size="10.00"> std::vector&lt; hri::Mesh &gt;</text>
<text text-anchor="start" x="120.5" y="-558.5" font-family="Helvetica,sans-Serif" font-size="10.00"> &amp;meshes)</text>
<text text-anchor="start" x="110.5" y="-542.5" font-family="Helvetica,sans-Serif" font-size="10.00">+</text>
<text text-anchor="start" x="120.5" y="-542.5" font-family="Helvetica,sans-Serif" font-size="10.00">void cmdBuildTLAS(VkCommand</text>
<text text-anchor="start" x="120.5" y="-530.5" font-family="Helvetica,sans-Serif" font-size="10.00">Buffer commandBuffer, const</text>
<text text-anchor="start" x="120.5" y="-518.5" font-family="Helvetica,sans-Serif" font-size="10.00"> std::vector&lt; RenderInstance</text>
<text text-anchor="start" x="120.5" y="-506.5" font-family="Helvetica,sans-Serif" font-size="10.00"> &gt; &amp;instances, const std::vector</text>
<text text-anchor="start" x="120.5" y="-494.5" font-family="Helvetica,sans-Serif" font-size="10.00">&lt; raytracing::AccelerationStructure</text>
<text text-anchor="start" x="120.5" y="-482.5" font-family="Helvetica,sans-Serif" font-size="10.00"> &gt; &amp;blasList, raytracing::AccelerationStructure</text>
<text text-anchor="start" x="120.5" y="-470.5" font-family="Helvetica,sans-Serif" font-size="10.00"> &amp;tlas) const</text>
<text text-anchor="start" x="110.5" y="-454.5" font-family="Helvetica,sans-Serif" font-size="10.00">+</text>
<text text-anchor="start" x="120.5" y="-454.5" font-family="Helvetica,sans-Serif" font-size="10.00">void cmdBuildBLASses</text>
<text text-anchor="start" x="120.5" y="-442.5" font-family="Helvetica,sans-Serif" font-size="10.00">(VkCommandBuffer commandBuffer,</text>
<text text-anchor="start" x="120.5" y="-430.5" font-family="Helvetica,sans-Serif" font-size="10.00"> const std::vector&lt; RenderInstance</text>
<text text-anchor="start" x="120.5" y="-418.5" font-family="Helvetica,sans-Serif" font-size="10.00"> &gt; &amp;instances, const std::vector</text>
<text text-anchor="start" x="120.5" y="-406.5" font-family="Helvetica,sans-Serif" font-size="10.00">&lt; hri::Mesh &gt; &amp;meshes, const std</text>
<text text-anchor="start" x="120.5" y="-394.5" font-family="Helvetica,sans-Serif" font-size="10.00">::vector&lt; raytracing::AccelerationStructure</text>
<text text-anchor="start" x="120.5" y="-382.5" font-family="Helvetica,sans-Serif" font-size="10.00"> &gt; &amp;blasList) const</text>
<polygon fill="#666666" stroke="#666666" points="106.5,-866 106.5,-866 325.5,-866 325.5,-866 106.5,-866"/>
<polygon fill="#666666" stroke="#666666" points="106.5,-850 106.5,-850 325.5,-850 325.5,-850 106.5,-850"/>
<polygon fill="none" stroke="#666666" points="106.5,-376 106.5,-884 325.5,-884 325.5,-376 106.5,-376"/>
</a>
</g>
</g>
<!-- Node3&#45;&gt;Node1 -->
<g id="edge2_Node000001_Node000003" class="edge">
<title>Node3&#45;&gt;Node1</title>
<g id="a_edge2_Node000001_Node000003"><a xlink:title=" ">
<path fill="none" stroke="#63b8ff" d="M216,-376.29C216,-364.42 216,-352.61 216,-341.01"/>
<polygon fill="none" stroke="#63b8ff" points="216,-340.89 212,-334.89 216,-328.89 220,-334.89 216,-340.89"/>
</a>
</g>
<text text-anchor="middle" x="264" y="-348.5" font-family="Helvetica,sans-Serif" font-size="10.00" fill="grey"> +accelStructManager</text>
</g>
<!-- Node4 -->
<g id="Node000004" class="node">
<title>Node4</title>
<g id="a_Node000004"><a xlink:href="struct_scene_buffers.html" target="_top" xlink:title="Scene buffers store device local resources for a scene.">
<polygon fill="white" stroke="none" points="410.5,-656 343.5,-656 343.5,-604 410.5,-604 410.5,-656"/>
<text text-anchor="start" x="348.12" y="-642.5" font-family="Helvetica,sans-Serif" font-size="10.00">SceneBuffers</text>
<text text-anchor="start" x="375.5" y="-626.5" font-family="Helvetica,sans-Serif" font-size="10.00"> </text>
<text text-anchor="start" x="375.5" y="-610.5" font-family="Helvetica,sans-Serif" font-size="10.00"> </text>
<polygon fill="#666666" stroke="#666666" points="343.5,-638 343.5,-638 410.5,-638 410.5,-638 343.5,-638"/>
<polygon fill="#666666" stroke="#666666" points="343.5,-622 343.5,-622 410.5,-622 410.5,-622 343.5,-622"/>
<polygon fill="none" stroke="#666666" points="343.5,-604 343.5,-656 410.5,-656 410.5,-604 343.5,-604"/>
</a>
</g>
</g>
<!-- Node4&#45;&gt;Node1 -->
<g id="edge3_Node000001_Node000004" class="edge">
<title>Node4&#45;&gt;Node1</title>
<g id="a_edge3_Node000001_Node000004"><a xlink:title=" ">
<path fill="none" stroke="#63b8ff" d="M375.74,-604.23C372.79,-558.09 363.36,-456.41 335,-376 326.53,-351.97 315.4,-327.5 303.35,-304.13"/>
<polygon fill="none" stroke="#63b8ff" points="303.37,-304.18 297.04,-300.73 297.78,-293.56 304.12,-297.01 303.37,-304.18"/>
</a>
</g>
<text text-anchor="middle" x="346.75" y="-348.5" font-family="Helvetica,sans-Serif" font-size="10.00" fill="grey"> +buffers</text>
</g>
<!-- Node5 -->
<g id="Node000005" class="node">
<title>Node5</title>
<g id="a_Node000005"><a xlink:href="classhri_1_1_buffer_resource.html" target="_top" xlink:title="A Buffer Resource is a collection of a vk buffer and its allocation.">
<polygon fill="white" stroke="none" points="464.5,-1304 289.5,-1304 289.5,-944 464.5,-944 464.5,-1304"/>
<text text-anchor="start" x="335.75" y="-1290.5" font-family="Helvetica,sans-Serif" font-size="10.00">hri::BufferResource</text>
<text text-anchor="start" x="293.5" y="-1274.5" font-family="Helvetica,sans-Serif" font-size="10.00">+</text>
<text text-anchor="start" x="303.5" y="-1274.5" font-family="Helvetica,sans-Serif" font-size="10.00">size_t bufferSize</text>
<text text-anchor="start" x="293.5" y="-1258.5" font-family="Helvetica,sans-Serif" font-size="10.00">+</text>
<text text-anchor="start" x="303.5" y="-1258.5" font-family="Helvetica,sans-Serif" font-size="10.00">bool hostVisible</text>
<text text-anchor="start" x="293.5" y="-1242.5" font-family="Helvetica,sans-Serif" font-size="10.00">+</text>
<text text-anchor="start" x="303.5" y="-1242.5" font-family="Helvetica,sans-Serif" font-size="10.00">VkBuffer buffer</text>
<text text-anchor="start" x="293.5" y="-1226.5" font-family="Helvetica,sans-Serif" font-size="10.00">+</text>
<text text-anchor="start" x="303.5" y="-1226.5" font-family="Helvetica,sans-Serif" font-size="10.00">BufferResource(RenderContext</text>
<text text-anchor="start" x="303.5" y="-1214.5" font-family="Helvetica,sans-Serif" font-size="10.00"> &amp;ctx, size_t size, VkBufferUsage</text>
<text text-anchor="start" x="303.5" y="-1202.5" font-family="Helvetica,sans-Serif" font-size="10.00">Flags usage, bool hostVisible=false)</text>
<text text-anchor="start" x="293.5" y="-1186.5" font-family="Helvetica,sans-Serif" font-size="10.00">+</text>
<text text-anchor="start" x="303.5" y="-1186.5" font-family="Helvetica,sans-Serif" font-size="10.00">virtual ~BufferResource()</text>
<text text-anchor="start" x="293.5" y="-1170.5" font-family="Helvetica,sans-Serif" font-size="10.00">+</text>
<text text-anchor="start" x="303.5" y="-1170.5" font-family="Helvetica,sans-Serif" font-size="10.00">BufferResource(const</text>
<text text-anchor="start" x="303.5" y="-1158.5" font-family="Helvetica,sans-Serif" font-size="10.00"> BufferResource &amp;)=delete</text>
<text text-anchor="start" x="293.5" y="-1142.5" font-family="Helvetica,sans-Serif" font-size="10.00">+</text>
<text text-anchor="start" x="303.5" y="-1142.5" font-family="Helvetica,sans-Serif" font-size="10.00">BufferResource &amp; operator</text>
<text text-anchor="start" x="303.5" y="-1130.5" font-family="Helvetica,sans-Serif" font-size="10.00">=(const BufferResource</text>
<text text-anchor="start" x="303.5" y="-1118.5" font-family="Helvetica,sans-Serif" font-size="10.00"> &amp;)=delete</text>
<text text-anchor="start" x="293.5" y="-1102.5" font-family="Helvetica,sans-Serif" font-size="10.00">+</text>
<text text-anchor="start" x="303.5" y="-1102.5" font-family="Helvetica,sans-Serif" font-size="10.00">BufferResource(BufferResource</text>
<text text-anchor="start" x="303.5" y="-1090.5" font-family="Helvetica,sans-Serif" font-size="10.00"> &amp;&amp;other) noexcept</text>
<text text-anchor="start" x="293.5" y="-1074.5" font-family="Helvetica,sans-Serif" font-size="10.00">+</text>
<text text-anchor="start" x="303.5" y="-1074.5" font-family="Helvetica,sans-Serif" font-size="10.00">BufferResource &amp; operator</text>
<text text-anchor="start" x="303.5" y="-1062.5" font-family="Helvetica,sans-Serif" font-size="10.00">=(BufferResource &amp;&amp;other)</text>
<text text-anchor="start" x="303.5" y="-1050.5" font-family="Helvetica,sans-Serif" font-size="10.00"> noexcept</text>
<text text-anchor="start" x="293.5" y="-1034.5" font-family="Helvetica,sans-Serif" font-size="10.00">+</text>
<text text-anchor="start" x="303.5" y="-1034.5" font-family="Helvetica,sans-Serif" font-size="10.00">void copyToBuffer(const</text>
<text text-anchor="start" x="303.5" y="-1022.5" font-family="Helvetica,sans-Serif" font-size="10.00"> void *pData, size_t size,</text>
<text text-anchor="start" x="303.5" y="-1010.5" font-family="Helvetica,sans-Serif" font-size="10.00"> size_t offset=0)</text>
<text text-anchor="start" x="293.5" y="-994.5" font-family="Helvetica,sans-Serif" font-size="10.00">+</text>
<text text-anchor="start" x="303.5" y="-994.5" font-family="Helvetica,sans-Serif" font-size="10.00">void * map() const</text>
<text text-anchor="start" x="293.5" y="-978.5" font-family="Helvetica,sans-Serif" font-size="10.00">+</text>
<text text-anchor="start" x="303.5" y="-978.5" font-family="Helvetica,sans-Serif" font-size="10.00">void unmap() const</text>
<text text-anchor="start" x="293.5" y="-962.5" font-family="Helvetica,sans-Serif" font-size="10.00">+</text>
<text text-anchor="start" x="303.5" y="-962.5" font-family="Helvetica,sans-Serif" font-size="10.00">VkBufferDeviceAddressInfo</text>
<text text-anchor="start" x="303.5" y="-950.5" font-family="Helvetica,sans-Serif" font-size="10.00"> deviceAddressInfo() const</text>
<polygon fill="#666666" stroke="#666666" points="289.5,-1286 289.5,-1286 464.5,-1286 464.5,-1286 289.5,-1286"/>
<polygon fill="#666666" stroke="#666666" points="289.5,-1238 289.5,-1238 301.5,-1238 301.5,-1238 289.5,-1238"/>
<polygon fill="#666666" stroke="#666666" points="301.5,-1238 301.5,-1238 464.5,-1238 464.5,-1238 301.5,-1238"/>
<polygon fill="none" stroke="#666666" points="289.5,-944 289.5,-1304 464.5,-1304 464.5,-944 289.5,-944"/>
</a>
</g>
</g>
<!-- Node5&#45;&gt;Node4 -->
<g id="edge4_Node000004_Node000005" class="edge">
<title>Node5&#45;&gt;Node4</title>
<g id="a_edge4_Node000004_Node000005"><a xlink:title=" ">
<path fill="none" stroke="#63b8ff" d="M377,-944.33C377,-844.07 377,-727.64 377,-668.96"/>
<polygon fill="none" stroke="#63b8ff" points="377,-668.9 373,-662.9 377,-656.9 381,-662.9 377,-668.9"/>
</a>
</g>
<text text-anchor="middle" x="423.88" y="-916.5" font-family="Helvetica,sans-Serif" font-size="10.00" fill="grey"> +instanceDataSSBO</text>
<text text-anchor="middle" x="423.88" y="-904.5" font-family="Helvetica,sans-Serif" font-size="10.00" fill="grey">+materialSSBO</text>
</g>
</g>
</svg>
