<?xml version="1.0" encoding="UTF-8" standalone="no"?>
<!DOCTYPE svg PUBLIC "-//W3C//DTD SVG 1.1//EN"
 "http://www.w3.org/Graphics/SVG/1.1/DTD/svg11.dtd">
<!-- Generated by graphviz version 10.0.1 (20240210.2158)
 -->
<!-- Title: hri::RenderContext Pages: 1 -->
<svg width="153pt" height="480pt"
 viewBox="0.00 0.00 153.25 480.00" xmlns="http://www.w3.org/2000/svg" xmlns:xlink="http://www.w3.org/1999/xlink">
<g id="graph0" class="graph" transform="scale(1 1) rotate(0) translate(4 476)">
<title>hri::RenderContext</title>
<!-- Node1 -->
<g id="Node000001" class="node">
<title>Node1</title>
<g id="a_Node000001"><a xlink:title="THe RenderContext manages the Vulkan instance, device, and swapchain state.">
<polygon fill="#999999" stroke="none" points="124,-228 18,-228 18,0 124,0 124,-228"/>
<text text-anchor="start" x="30.5" y="-214.5" font-family="Helvetica,sans-Serif" font-size="10.00">hri::RenderContext</text>
<text text-anchor="start" x="22" y="-198.5" font-family="Helvetica,sans-Serif" font-size="10.00">+</text>
<text text-anchor="start" x="32" y="-198.5" font-family="Helvetica,sans-Serif" font-size="10.00">instance</text>
<text text-anchor="start" x="22" y="-182.5" font-family="Helvetica,sans-Serif" font-size="10.00">+</text>
<text text-anchor="start" x="32" y="-182.5" font-family="Helvetica,sans-Serif" font-size="10.00">surface</text>
<text text-anchor="start" x="22" y="-166.5" font-family="Helvetica,sans-Serif" font-size="10.00">+</text>
<text text-anchor="start" x="32" y="-166.5" font-family="Helvetica,sans-Serif" font-size="10.00">gpu</text>
<text text-anchor="start" x="22" y="-150.5" font-family="Helvetica,sans-Serif" font-size="10.00">+</text>
<text text-anchor="start" x="32" y="-150.5" font-family="Helvetica,sans-Serif" font-size="10.00">device</text>
<text text-anchor="start" x="22" y="-134.5" font-family="Helvetica,sans-Serif" font-size="10.00">+</text>
<text text-anchor="start" x="32" y="-134.5" font-family="Helvetica,sans-Serif" font-size="10.00">allocator</text>
<text text-anchor="start" x="22" y="-118.5" font-family="Helvetica,sans-Serif" font-size="10.00">+</text>
<text text-anchor="start" x="32" y="-118.5" font-family="Helvetica,sans-Serif" font-size="10.00">swapchain</text>
<text text-anchor="start" x="22" y="-102.5" font-family="Helvetica,sans-Serif" font-size="10.00">+</text>
<text text-anchor="start" x="32" y="-102.5" font-family="Helvetica,sans-Serif" font-size="10.00">RenderContext()</text>
<text text-anchor="start" x="22" y="-86.5" font-family="Helvetica,sans-Serif" font-size="10.00">+</text>
<text text-anchor="start" x="32" y="-86.5" font-family="Helvetica,sans-Serif" font-size="10.00">~RenderContext()</text>
<text text-anchor="start" x="22" y="-70.5" font-family="Helvetica,sans-Serif" font-size="10.00">+</text>
<text text-anchor="start" x="32" y="-70.5" font-family="Helvetica,sans-Serif" font-size="10.00">RenderContext()</text>
<text text-anchor="start" x="22" y="-54.5" font-family="Helvetica,sans-Serif" font-size="10.00">+</text>
<text text-anchor="start" x="32" y="-54.5" font-family="Helvetica,sans-Serif" font-size="10.00">operator=()</text>
<text text-anchor="start" x="22" y="-38.5" font-family="Helvetica,sans-Serif" font-size="10.00">+</text>
<text text-anchor="start" x="32" y="-38.5" font-family="Helvetica,sans-Serif" font-size="10.00">setVSyncMode()</text>
<text text-anchor="start" x="22" y="-22.5" font-family="Helvetica,sans-Serif" font-size="10.00">+</text>
<text text-anchor="start" x="32" y="-22.5" font-family="Helvetica,sans-Serif" font-size="10.00">recreateSwapchain()</text>
<text text-anchor="start" x="22" y="-6.5" font-family="Helvetica,sans-Serif" font-size="10.00">+</text>
<text text-anchor="start" x="32" y="-6.5" font-family="Helvetica,sans-Serif" font-size="10.00">swapFormat()</text>
<polygon fill="#666666" stroke="#666666" points="18,-210 18,-210 124,-210 124,-210 18,-210"/>
<polygon fill="#666666" stroke="#666666" points="18,-114 18,-114 30,-114 30,-114 18,-114"/>
<polygon fill="#666666" stroke="#666666" points="30,-114 30,-114 124,-114 124,-114 30,-114"/>
<polygon fill="none" stroke="#666666" points="18,0 18,-228 124,-228 124,0 18,0"/>
</a>
</g>
</g>
<!-- Node2 -->
<g id="Node000002" class="node">
<title>Node2</title>
<g id="a_Node000002"><a xlink:href="classhri_1_1_render_context_queue_state.html" target="_top" xlink:title="The context queue state creates and maintains the device queue setup.">
<polygon fill="white" stroke="none" points="142,-344 0,-344 0,-276 142,-276 142,-344"/>
<text text-anchor="start" x="4.62" y="-330.5" font-family="Helvetica,sans-Serif" font-size="10.00">hri::RenderContextQueueState</text>
<text text-anchor="start" x="69.5" y="-314.5" font-family="Helvetica,sans-Serif" font-size="10.00"> </text>
<text text-anchor="start" x="4.5" y="-298.5" font-family="Helvetica,sans-Serif" font-size="10.00">+</text>
<text text-anchor="start" x="15" y="-298.5" font-family="Helvetica,sans-Serif" font-size="10.00">RenderContextQueueState()</text>
<text text-anchor="start" x="4.5" y="-282.5" font-family="Helvetica,sans-Serif" font-size="10.00">+</text>
<text text-anchor="start" x="15" y="-282.5" font-family="Helvetica,sans-Serif" font-size="10.00">RenderContextQueueState()</text>
<polygon fill="#666666" stroke="#666666" points="0,-326 0,-326 142,-326 142,-326 0,-326"/>
<polygon fill="#666666" stroke="#666666" points="0,-310 0,-310 142,-310 142,-310 0,-310"/>
<polygon fill="none" stroke="#666666" points="0,-276 0,-344 142,-344 142,-276 0,-276"/>
</a>
</g>
</g>
<!-- Node2&#45;&gt;Node1 -->
<g id="edge1_Node000001_Node000002" class="edge">
<title>Node2&#45;&gt;Node1</title>
<g id="a_edge1_Node000001_Node000002"><a xlink:title=" ">
<path fill="none" stroke="#63b8ff" d="M71,-276.09C71,-265.79 71,-253.75 71,-240.97"/>
<polygon fill="none" stroke="#63b8ff" points="71,-240.89 67,-234.89 71,-228.89 75,-234.89 71,-240.89"/>
</a>
</g>
<text text-anchor="middle" x="91.25" y="-248.5" font-family="Helvetica,sans-Serif" font-size="10.00" fill="grey"> +queues</text>
</g>
<!-- Node3 -->
<g id="Node000003" class="node">
<title>Node3</title>
<g id="a_Node000003"><a xlink:href="structhri_1_1_device_queue.html" target="_top" xlink:title="A Device Queue is a queue on the logical device to which operations can be submitted.">
<polygon fill="white" stroke="none" points="112.5,-472 29.5,-472 29.5,-404 112.5,-404 112.5,-472"/>
<text text-anchor="start" x="34.25" y="-458.5" font-family="Helvetica,sans-Serif" font-size="10.00">hri::DeviceQueue</text>
<text text-anchor="start" x="42.5" y="-442.5" font-family="Helvetica,sans-Serif" font-size="10.00">+</text>
<text text-anchor="start" x="61.5" y="-442.5" font-family="Helvetica,sans-Serif" font-size="10.00">family</text>
<text text-anchor="start" x="42.5" y="-426.5" font-family="Helvetica,sans-Serif" font-size="10.00">+</text>
<text text-anchor="start" x="61.5" y="-426.5" font-family="Helvetica,sans-Serif" font-size="10.00">handle</text>
<text text-anchor="start" x="69.5" y="-410.5" font-family="Helvetica,sans-Serif" font-size="10.00"> </text>
<polygon fill="#666666" stroke="#666666" points="29.5,-454 29.5,-454 112.5,-454 112.5,-454 29.5,-454"/>
<polygon fill="#666666" stroke="#666666" points="29.5,-422 29.5,-422 59.5,-422 59.5,-422 29.5,-422"/>
<polygon fill="#666666" stroke="#666666" points="59.5,-422 59.5,-422 112.5,-422 112.5,-422 59.5,-422"/>
<polygon fill="none" stroke="#666666" points="29.5,-404 29.5,-472 112.5,-472 112.5,-404 29.5,-404"/>
</a>
</g>
</g>
<!-- Node3&#45;&gt;Node2 -->
<g id="edge2_Node000002_Node000003" class="edge">
<title>Node3&#45;&gt;Node2</title>
<g id="a_edge2_Node000002_Node000003"><a xlink:title=" ">
<path fill="none" stroke="#63b8ff" d="M71,-404.22C71,-389.64 71,-372.23 71,-356.42"/>
<polygon fill="none" stroke="#63b8ff" points="71,-356.51 67,-350.51 71,-344.51 75,-350.51 71,-356.51"/>
</a>
</g>
<text text-anchor="middle" x="108.12" y="-376.5" font-family="Helvetica,sans-Serif" font-size="10.00" fill="grey"> +graphicsQueue</text>
<text text-anchor="middle" x="108.12" y="-364.5" font-family="Helvetica,sans-Serif" font-size="10.00" fill="grey">+presentQueue</text>
</g>
</g>
</svg>
