<?xml version="1.0" encoding="UTF-8" standalone="no"?>
<!DOCTYPE svg PUBLIC "-//W3C//DTD SVG 1.1//EN"
 "http://www.w3.org/Graphics/SVG/1.1/DTD/svg11.dtd">
<!-- Generated by graphviz version 10.0.1 (20240210.2158)
 -->
<!-- Title: SceneASManager::cmdBuildBLASses Pages: 1 -->
<svg width="539pt" height="128pt"
 viewBox="0.00 0.00 539.00 128.00" xmlns="http://www.w3.org/2000/svg" xmlns:xlink="http://www.w3.org/1999/xlink">
<g id="graph0" class="graph" transform="scale(1 1) rotate(0) translate(4 124)">
<title>SceneASManager::cmdBuildBLASses</title>
<!-- Node1 -->
<g id="Node000001" class="node">
<title>Node1</title>
<g id="a_Node000001"><a xlink:title=" ">
<polygon fill="#999999" stroke="#666666" points="141.25,-70 0,-70 0,-38 141.25,-38 141.25,-70"/>
<text text-anchor="start" x="8" y="-56.5" font-family="Helvetica,sans-Serif" font-size="10.00">SceneASManager::cmdBuild</text>
<text text-anchor="middle" x="70.62" y="-44.5" font-family="Helvetica,sans-Serif" font-size="10.00">BLASses</text>
</a>
</g>
</g>
<!-- Node2 -->
<g id="Node000002" class="node">
<title>Node2</title>
<g id="a_Node000002"><a xlink:href="classraytracing_1_1_a_s_builder.html#a889d40449453fd038e8afe1a3e51d2d1" target="_top" xlink:title="Build a list of acceleration structures.">
<polygon fill="white" stroke="#666666" points="338.75,-120 177.25,-120 177.25,-88 338.75,-88 338.75,-120"/>
<text text-anchor="start" x="185.25" y="-106.5" font-family="Helvetica,sans-Serif" font-size="10.00">raytracing::ASBuilder</text>
<text text-anchor="middle" x="258" y="-94.5" font-family="Helvetica,sans-Serif" font-size="10.00">::cmdBuildAccelerationStructures</text>
</a>
</g>
</g>
<!-- Node1&#45;&gt;Node2 -->
<g id="edge1_Node000001_Node000002" class="edge">
<title>Node1&#45;&gt;Node2</title>
<g id="a_edge1_Node000001_Node000002"><a xlink:title=" ">
<path fill="none" stroke="#63b8ff" d="M132.58,-70.44C149.45,-74.99 167.91,-79.97 185.32,-84.67"/>
<polygon fill="#63b8ff" stroke="#63b8ff" points="183.98,-87.93 194.55,-87.15 185.8,-81.17 183.98,-87.93"/>
</a>
</g>
</g>
<!-- Node4 -->
<g id="Node000004" class="node">
<title>Node4</title>
<g id="a_Node000004"><a xlink:href="classraytracing_1_1_a_s_builder.html#a735324c0da6b17aa548c590af9b29208" target="_top" xlink:title="Generate build info from input.">
<polygon fill="white" stroke="#666666" points="312.88,-70 203.12,-70 203.12,-38 312.88,-38 312.88,-70"/>
<text text-anchor="start" x="211.12" y="-56.5" font-family="Helvetica,sans-Serif" font-size="10.00">raytracing::ASBuilder</text>
<text text-anchor="middle" x="258" y="-44.5" font-family="Helvetica,sans-Serif" font-size="10.00">::generateASBuildInfo</text>
</a>
</g>
</g>
<!-- Node1&#45;&gt;Node4 -->
<g id="edge3_Node000001_Node000004" class="edge">
<title>Node1&#45;&gt;Node4</title>
<g id="a_edge3_Node000001_Node000004"><a xlink:title=" ">
<path fill="none" stroke="#63b8ff" d="M141.71,-54C157.96,-54 175.2,-54 191.26,-54"/>
<polygon fill="#63b8ff" stroke="#63b8ff" points="191.2,-57.5 201.2,-54 191.2,-50.5 191.2,-57.5"/>
</a>
</g>
</g>
<!-- Node6 -->
<g id="Node000006" class="node">
<title>Node6</title>
<g id="a_Node000006"><a xlink:href="namespaceraytracing.html#a88f8e296ad709ea3326ae37c0be49ff5" target="_top" xlink:title="Get the device address from a buffer resource.">
<polygon fill="white" stroke="#666666" points="329.38,-20 186.62,-20 186.62,0 329.38,0 329.38,-20"/>
<text text-anchor="middle" x="258" y="-6.5" font-family="Helvetica,sans-Serif" font-size="10.00">raytracing::getDeviceAddress</text>
</a>
</g>
</g>
<!-- Node1&#45;&gt;Node6 -->
<g id="edge5_Node000001_Node000006" class="edge">
<title>Node1&#45;&gt;Node6</title>
<g id="a_edge5_Node000001_Node000006"><a xlink:title=" ">
<path fill="none" stroke="#63b8ff" d="M140.92,-37.55C160.94,-32.8 182.52,-27.68 201.58,-23.16"/>
<polygon fill="#63b8ff" stroke="#63b8ff" points="202.38,-26.56 211.3,-20.85 200.77,-19.75 202.38,-26.56"/>
</a>
</g>
</g>
<!-- Node3 -->
<g id="Node000003" class="node">
<title>Node3</title>
<g id="a_Node000003"><a xlink:href="classraytracing_1_1_a_s_builder.html#abd3b4d49769f0a8e1d141efda178aac7" target="_top" xlink:title="Build an acceleration structure.">
<polygon fill="white" stroke="#666666" points="531,-120 374.75,-120 374.75,-88 531,-88 531,-120"/>
<text text-anchor="start" x="382.75" y="-106.5" font-family="Helvetica,sans-Serif" font-size="10.00">raytracing::ASBuilder</text>
<text text-anchor="middle" x="452.88" y="-94.5" font-family="Helvetica,sans-Serif" font-size="10.00">::cmdBuildAccelerationStructure</text>
</a>
</g>
</g>
<!-- Node2&#45;&gt;Node3 -->
<g id="edge2_Node000002_Node000003" class="edge">
<title>Node2&#45;&gt;Node3</title>
<g id="a_edge2_Node000002_Node000003"><a xlink:title=" ">
<path fill="none" stroke="#63b8ff" d="M339.12,-104C347.07,-104 355.17,-104 363.2,-104"/>
<polygon fill="#63b8ff" stroke="#63b8ff" points="362.97,-107.5 372.97,-104 362.97,-100.5 362.97,-107.5"/>
</a>
</g>
</g>
<!-- Node5 -->
<g id="Node000005" class="node">
<title>Node5</title>
<g id="a_Node000005"><a xlink:href="namespacehri.html#ad174e49d89763692b01496e2615c7d49" target="_top" xlink:title=" ">
<polygon fill="white" stroke="#666666" points="478.5,-64 427.25,-64 427.25,-44 478.5,-44 478.5,-64"/>
<text text-anchor="middle" x="452.88" y="-50.5" font-family="Helvetica,sans-Serif" font-size="10.00">hri::max</text>
</a>
</g>
</g>
<!-- Node4&#45;&gt;Node5 -->
<g id="edge4_Node000004_Node000005" class="edge">
<title>Node4&#45;&gt;Node5</title>
<g id="a_edge4_Node000004_Node000005"><a xlink:title=" ">
<path fill="none" stroke="#63b8ff" d="M313.24,-54C345.95,-54 386.72,-54 415.56,-54"/>
<polygon fill="#63b8ff" stroke="#63b8ff" points="415.24,-57.5 425.24,-54 415.24,-50.5 415.24,-57.5"/>
</a>
</g>
</g>
</g>
</svg>
