<?xml version="1.0" encoding="UTF-8" standalone="no"?>
<!DOCTYPE svg PUBLIC "-//W3C//DTD SVG 1.1//EN"
 "http://www.w3.org/Graphics/SVG/1.1/DTD/svg11.dtd">
<!-- Generated by graphviz version 10.0.1 (20240210.2158)
 -->
<!-- Title: hri::Camera::Camera Pages: 1 -->
<svg width="492pt" height="104pt"
 viewBox="0.00 0.00 492.00 104.00" xmlns="http://www.w3.org/2000/svg" xmlns:xlink="http://www.w3.org/1999/xlink">

<svg id="main" version="1.1" xmlns="http://www.w3.org/2000/svg" xmlns:xlink="http://www.w3.org/1999/xlink" xml:space="preserve" onload="init(evt)">
<style type="text/css"><![CDATA[
.node, .edge {opacity: 0.7;}
.node.selected, .edge.selected {opacity: 1;}
.edge:hover path { stroke: red; }
.edge:hover polygon { stroke: red; fill: red; }
]]></style>
<script type="application/ecmascript" xlink:href="svg.min.js"/>
<svg id="graph" class="graph">
<g id="graph0" class="graph" transform="scale(1 1) rotate(0) translate(4 100)">
<title>hri::Camera::Camera</title>
<!-- Node1 -->
<g id="Node000001" class="node">
<title>Node1</title>
<g id="a_Node000001"><a xlink:title="Instantiate a camera.">
<polygon fill="#999999" stroke="#666666" points="106,-58 0,-58 0,-38 106,-38 106,-58"/>
<text text-anchor="middle" x="53" y="-44.5" font-family="Helvetica,sans-Serif" font-size="10.00">hri::Camera::Camera</text>
</a>
</g>
</g>
<!-- Node2 -->
<g id="Node000002" class="node">
<title>Node2</title>
<g id="a_Node000002"><a xlink:href="namespacehri.html#ab81e99a2bbe92d4d1002b786d897d624" target="_top" xlink:title=" ">
<polygon fill="white" stroke="#666666" points="239.75,-96 183.25,-96 183.25,-76 239.75,-76 239.75,-96"/>
<text text-anchor="middle" x="211.5" y="-82.5" font-family="Helvetica,sans-Serif" font-size="10.00">hri::cross</text>
</a>
</g>
</g>
<!-- Node1&#45;&gt;Node2 -->
<g id="edge1_Node000001_Node000002" class="edge">
<title>Node1&#45;&gt;Node2</title>
<g id="a_edge1_Node000001_Node000002"><a xlink:title=" ">
<path fill="none" stroke="#63b8ff" d="M97.18,-58.48C120.71,-64.2 149.57,-71.21 172.28,-76.72"/>
<polygon fill="#63b8ff" stroke="#63b8ff" points="171.19,-80.06 181.74,-79.02 172.84,-73.25 171.19,-80.06"/>
</a>
</g>
</g>
<!-- Node3 -->
<g id="Node000003" class="node">
<title>Node3</title>
<g id="a_Node000003"><a xlink:href="namespacehri.html#ac37aa10e96e3d4f0775c3a659f16d490" target="_top" xlink:title=" ">
<polygon fill="white" stroke="#666666" points="248.75,-58 174.25,-58 174.25,-38 248.75,-38 248.75,-58"/>
<text text-anchor="middle" x="211.5" y="-44.5" font-family="Helvetica,sans-Serif" font-size="10.00">hri::normalize</text>
</a>
</g>
</g>
<!-- Node1&#45;&gt;Node3 -->
<g id="edge2_Node000001_Node000003" class="edge">
<title>Node1&#45;&gt;Node3</title>
<g id="a_edge2_Node000001_Node000003"><a xlink:title=" ">
<path fill="none" stroke="#63b8ff" d="M106.11,-48C124.35,-48 144.72,-48 162.6,-48"/>
<polygon fill="#63b8ff" stroke="#63b8ff" points="162.42,-51.5 172.42,-48 162.42,-44.5 162.42,-51.5"/>
</a>
</g>
</g>
<!-- Node6 -->
<g id="Node000006" class="node">
<title>Node6</title>
<g id="a_Node000006"><a xlink:href="classhri_1_1_camera.html#aeb6260cec685087b762690c86519d980" target="_top" xlink:title="Update view &amp; project matrices using basis vectors.">
<polygon fill="white" stroke="#666666" points="281,-20 142,-20 142,0 281,0 281,-20"/>
<text text-anchor="middle" x="211.5" y="-6.5" font-family="Helvetica,sans-Serif" font-size="10.00">hri::Camera::updateMatrices</text>
</a>
</g>
</g>
<!-- Node1&#45;&gt;Node6 -->
<g id="edge5_Node000001_Node000006" class="edge">
<title>Node1&#45;&gt;Node6</title>
<g id="a_edge5_Node000001_Node000006"><a xlink:title=" ">
<path fill="none" stroke="#63b8ff" d="M97.18,-37.52C115.48,-33.07 137.01,-27.84 156.36,-23.15"/>
<polygon fill="#63b8ff" stroke="#63b8ff" points="157.1,-26.57 165.99,-20.81 155.45,-19.77 157.1,-26.57"/>
</a>
</g>
</g>
<!-- Node4 -->
<g id="Node000004" class="node">
<title>Node4</title>
<g id="a_Node000004"><a xlink:href="namespacehri.html#a3f539220562b091be4c7e5409dd4c80e" target="_top" xlink:title=" ">
<polygon fill="white" stroke="#666666" points="372,-96 326,-96 326,-76 372,-76 372,-96"/>
<text text-anchor="middle" x="349" y="-82.5" font-family="Helvetica,sans-Serif" font-size="10.00">hri::dot</text>
</a>
</g>
</g>
<!-- Node3&#45;&gt;Node4 -->
<g id="edge3_Node000003_Node000004" class="edge">
<title>Node3&#45;&gt;Node4</title>
<g id="a_edge3_Node000003_Node000004"><a xlink:title=" ">
<path fill="none" stroke="#63b8ff" d="M249.13,-58.12C259.44,-60.98 270.66,-64.1 281,-67 291.94,-70.07 303.88,-73.45 314.61,-76.49"/>
<polygon fill="#63b8ff" stroke="#63b8ff" points="313.64,-79.85 324.22,-79.22 315.56,-73.12 313.64,-79.85"/>
</a>
</g>
</g>
<!-- Node5 -->
<g id="Node000005" class="node">
<title>Node5</title>
<g id="a_Node000005"><a xlink:href="namespacehri.html#a80da0ea8cafbed379ba92a21796fe33c" target="_top" xlink:title="Simple inverse square root function.">
<polygon fill="white" stroke="#666666" points="376.12,-58 321.88,-58 321.88,-38 376.12,-38 376.12,-58"/>
<text text-anchor="middle" x="349" y="-44.5" font-family="Helvetica,sans-Serif" font-size="10.00">hri::rsqrtf</text>
</a>
</g>
</g>
<!-- Node3&#45;&gt;Node5 -->
<g id="edge4_Node000003_Node000005" class="edge">
<title>Node3&#45;&gt;Node5</title>
<g id="a_edge4_Node000003_Node000005"><a xlink:title=" ">
<path fill="none" stroke="#63b8ff" d="M249.17,-48C268.12,-48 291.22,-48 310.31,-48"/>
<polygon fill="#63b8ff" stroke="#63b8ff" points="310.1,-51.5 320.1,-48 310.1,-44.5 310.1,-51.5"/>
</a>
</g>
</g>
<!-- Node7 -->
<g id="Node000007" class="node">
<title>Node7</title>
<g id="a_Node000007"><a xlink:href="namespacehri.html#acd3a7c0c786cee7eb37afe8bfb309464" target="_top" xlink:title=" ">
<polygon fill="white" stroke="#666666" points="381,-20 317,-20 317,0 381,0 381,-20"/>
<text text-anchor="middle" x="349" y="-6.5" font-family="Helvetica,sans-Serif" font-size="10.00">hri::radians</text>
</a>
</g>
</g>
<!-- Node6&#45;&gt;Node7 -->
<g id="edge6_Node000006_Node000007" class="edge">
<title>Node6&#45;&gt;Node7</title>
<g id="a_edge6_Node000006_Node000007"><a xlink:title=" ">
<path fill="none" stroke="#63b8ff" d="M281.44,-10C289.51,-10 297.55,-10 305.11,-10"/>
<polygon fill="#63b8ff" stroke="#63b8ff" points="305.02,-13.5 315.02,-10 305.02,-6.5 305.02,-13.5"/>
</a>
</g>
</g>
<!-- Node8 -->
<g id="Node000008" class="node">
<title>Node8</title>
<g id="a_Node000008"><a xlink:href="namespacehri.html#a778909c1320f31774fdf25dc126fcb9d" target="_top" xlink:title=" ">
<polygon fill="white" stroke="#666666" points="484,-20 417,-20 417,0 484,0 484,-20"/>
<text text-anchor="middle" x="450.5" y="-6.5" font-family="Helvetica,sans-Serif" font-size="10.00">hri::degrees</text>
</a>
</g>
</g>
<!-- Node7&#45;&gt;Node8 -->
<g id="edge7_Node000007_Node000008" class="edge">
<title>Node7&#45;&gt;Node8</title>
<g id="a_edge7_Node000007_Node000008"><a xlink:title=" ">
<path fill="none" stroke="#63b8ff" d="M381.48,-3.67C388.98,-3.31 397.12,-3.18 405.08,-3.28"/>
<polygon fill="#63b8ff" stroke="#63b8ff" points="404.9,-6.78 414.99,-3.56 405.09,0.22 404.9,-6.78"/>
</a>
</g>
</g>
<!-- Node8&#45;&gt;Node7 -->
<g id="edge8_Node000008_Node000007" class="edge">
<title>Node8&#45;&gt;Node7</title>
<g id="a_edge8_Node000008_Node000007"><a xlink:title=" ">
<path fill="none" stroke="#63b8ff" d="M416.51,-16.4C408.93,-16.73 400.76,-16.83 392.83,-16.69"/>
<polygon fill="#63b8ff" stroke="#63b8ff" points="393.1,-13.2 383,-16.38 392.88,-20.2 393.1,-13.2"/>
</a>
</g>
</g>
</g>
</svg>
</svg>

<style type='text/css'>
<![CDATA[
[data-mouse-over-selected='false'] { opacity: 0.7; }
[data-mouse-over-selected='true']  { opacity: 1.0; }
]]>
</style>
<script type="application/ecmascript"><![CDATA[
document.addEventListener('DOMContentLoaded', (event) => {
  highlightEdges();
  highlightAdjacentNodes();
});
]]></script>
</svg>
