<?xml version="1.0" encoding="UTF-8" standalone="no"?>
<!DOCTYPE svg PUBLIC "-//W3C//DTD SVG 1.1//EN"
 "http://www.w3.org/Graphics/SVG/1.1/DTD/svg11.dtd">
<!-- Generated by graphviz version 10.0.1 (20240210.2158)
 -->
<!-- Title: hri::SwapchainPassResourceManager::~SwapchainPassResourceManager Pages: 1 -->
<svg width="697pt" height="52pt"
 viewBox="0.00 0.00 696.75 52.00" xmlns="http://www.w3.org/2000/svg" xmlns:xlink="http://www.w3.org/1999/xlink">
<g id="graph0" class="graph" transform="scale(1 1) rotate(0) translate(4 48)">
<title>hri::SwapchainPassResourceManager::~SwapchainPassResourceManager</title>
<!-- Node1 -->
<g id="Node000001" class="node">
<title>Node1</title>
<g id="a_Node000001"><a xlink:title="Destroy this swapchain resource manager.">
<polygon fill="#999999" stroke="#666666" points="176.5,-44 0,-44 0,0 176.5,0 176.5,-44"/>
<text text-anchor="start" x="8" y="-30.5" font-family="Helvetica,sans-Serif" font-size="10.00">hri::SwapchainPassResource</text>
<text text-anchor="start" x="8" y="-18.5" font-family="Helvetica,sans-Serif" font-size="10.00">Manager::~SwapchainPassResource</text>
<text text-anchor="middle" x="88.25" y="-6.5" font-family="Helvetica,sans-Serif" font-size="10.00">Manager</text>
</a>
</g>
</g>
<!-- Node2 -->
<g id="Node000002" class="node">
<title>Node2</title>
<g id="a_Node000002"><a xlink:href="classhri_1_1_swapchain_pass_resource_manager.html#a1e4f5f05c65cce95e723b0f40861d022" target="_top" xlink:title="Destroy resources.">
<polygon fill="white" stroke="#666666" points="356,-38 212.5,-38 212.5,-6 356,-6 356,-38"/>
<text text-anchor="start" x="220.5" y="-24.5" font-family="Helvetica,sans-Serif" font-size="10.00">hri::SwapchainPassResource</text>
<text text-anchor="middle" x="284.25" y="-12.5" font-family="Helvetica,sans-Serif" font-size="10.00">Manager::destroyResources</text>
</a>
</g>
</g>
<!-- Node1&#45;&gt;Node2 -->
<g id="edge1_Node000001_Node000002" class="edge">
<title>Node1&#45;&gt;Node2</title>
<g id="a_edge1_Node000001_Node000002"><a xlink:title=" ">
<path fill="none" stroke="#63b8ff" d="M176.89,-22C184.85,-22 192.89,-22 200.81,-22"/>
<polygon fill="#63b8ff" stroke="#63b8ff" points="200.77,-25.5 210.77,-22 200.77,-18.5 200.77,-25.5"/>
</a>
</g>
</g>
<!-- Node3 -->
<g id="Node000003" class="node">
<title>Node3</title>
<g id="a_Node000003"><a xlink:href="classhri_1_1_i_render_pass_resource_manager_base.html#a30f0100697124c38b641948896456521" target="_top" xlink:title="Destroy resources.">
<polygon fill="white" stroke="#666666" points="552.75,-38 392,-38 392,-6 552.75,-6 552.75,-38"/>
<text text-anchor="start" x="400" y="-24.5" font-family="Helvetica,sans-Serif" font-size="10.00">hri::IRenderPassResource</text>
<text text-anchor="middle" x="472.38" y="-12.5" font-family="Helvetica,sans-Serif" font-size="10.00">ManagerBase::destroyResources</text>
</a>
</g>
</g>
<!-- Node2&#45;&gt;Node3 -->
<g id="edge2_Node000002_Node000003" class="edge">
<title>Node2&#45;&gt;Node3</title>
<g id="a_edge2_Node000002_Node000003"><a xlink:title=" ">
<path fill="none" stroke="#63b8ff" d="M356.41,-22C364.22,-22 372.26,-22 380.27,-22"/>
<polygon fill="#63b8ff" stroke="#63b8ff" points="380.04,-25.5 390.04,-22 380.04,-18.5 380.04,-25.5"/>
</a>
</g>
</g>
<!-- Node4 -->
<g id="Node000004" class="node">
<title>Node4</title>
<g id="a_Node000004"><a xlink:href="structhri_1_1_image_resource.html#af4c1d34769d3beef7b748af443123088" target="_top" xlink:title="Destroy an image resource.">
<polygon fill="white" stroke="#666666" points="688.75,-38 588.75,-38 588.75,-6 688.75,-6 688.75,-38"/>
<text text-anchor="start" x="596.75" y="-24.5" font-family="Helvetica,sans-Serif" font-size="10.00">hri::ImageResource</text>
<text text-anchor="middle" x="638.75" y="-12.5" font-family="Helvetica,sans-Serif" font-size="10.00">::destroy</text>
</a>
</g>
</g>
<!-- Node3&#45;&gt;Node4 -->
<g id="edge3_Node000003_Node000004" class="edge">
<title>Node3&#45;&gt;Node4</title>
<g id="a_edge3_Node000003_Node000004"><a xlink:title=" ">
<path fill="none" stroke="#63b8ff" d="M553.15,-22C561.29,-22 569.45,-22 577.33,-22"/>
<polygon fill="#63b8ff" stroke="#63b8ff" points="577.12,-25.5 587.12,-22 577.12,-18.5 577.12,-25.5"/>
</a>
</g>
</g>
</g>
</svg>
