<?xml version="1.0" encoding="UTF-8" standalone="no"?>
<!DOCTYPE svg PUBLIC "-//W3C//DTD SVG 1.1//EN"
 "http://www.w3.org/Graphics/SVG/1.1/DTD/svg11.dtd">
<!-- Generated by graphviz version 10.0.1 (20240210.2158)
 -->
<!-- Title: UISubsystem Pages: 1 -->
<!--zoomable 1153 -->

<svg id="main" version="1.1" xmlns="http://www.w3.org/2000/svg" xmlns:xlink="http://www.w3.org/1999/xlink" xml:space="preserve" onload="init(evt)">
<style type="text/css"><![CDATA[
.node, .edge {opacity: 0.7;}
.node.selected, .edge.selected {opacity: 1;}
.edge:hover path { stroke: red; }
.edge:hover polygon { stroke: red; fill: red; }
]]></style>

<defs>
  <circle id="rim" cx="0" cy="0" r="7"/>
  <circle id="rim2" cx="0" cy="0" r="3.5"/>
  <g id="zoomPlus">
    <use xlink:href="#rim" fill="#404040"><set attributeName="fill" to="#808080" begin="zoomplus.mouseover" end="zoomplus.mouseout"/></use>
    <path d="M-4,0h8M0,-4v8" fill="none" stroke="white" stroke-width="1.5" pointer-events="none"/>
  </g>
  <g id="zoomMin">
    <use xlink:href="#rim" fill="#404040"><set attributeName="fill" to="#808080" begin="zoomminus.mouseover" end="zoomminus.mouseout"/></use>
    <path d="M-4,0h8" fill="none" stroke="white" stroke-width="1.5" pointer-events="none"/>
  </g>
  <g id="arrowUp" transform="translate(30 24)">
    <use xlink:href="#rim"/>
    <path pointer-events="none" fill="none" stroke="white" stroke-width="1.5" d="M0,-3.0v7 M-2.5,-0.5L0,-3.0L2.5,-0.5"/>
  </g>
  <g id="arrowRight" transform="rotate(90) translate(36 -43)">
    <use xlink:href="#rim"/>
    <path pointer-events="none" fill="none" stroke="white" stroke-width="1.5" d="M0,-3.0v7 M-2.5,-0.5L0,-3.0L2.5,-0.5"/>
  </g>
  <g id="arrowDown" transform="rotate(180) translate(-30 -48)">
    <use xlink:href="#rim"/>
    <path pointer-events="none" fill="none" stroke="white" stroke-width="1.5" d="M0,-3.0v7 M-2.5,-0.5L0,-3.0L2.5,-0.5"/>
  </g>
  <g id="arrowLeft" transform="rotate(270) translate(-36 17)">
    <use xlink:href="#rim"/>
    <path pointer-events="none" fill="none" stroke="white" stroke-width="1.5" d="M0,-3.0v7 M-2.5,-0.5L0,-3.0L2.5,-0.5"/>
  </g>
  <g id="resetDef">
    <use xlink:href="#rim2" fill="#404040"><set attributeName="fill" to="#808080" begin="reset.mouseover" end="reset.mouseout"/></use>
  </g>
</defs>
<script type="application/ecmascript">
var viewWidth = 500;
var viewHeight = 1153;
var sectionId = 'dynsection-1';
</script>
<script type="application/ecmascript" xlink:href="svg.min.js"/>
<svg id="graph" class="graph">
<g id="viewport">
<title>UISubsystem</title>
<!-- Node1 -->
<g id="Node000001" class="node">
<title>Node1</title>
<g id="a_Node000001"><a xlink:title="The UI Subsystem handles drawing an UI overlay to the swap render pass.">
<polygon fill="#999999" stroke="none" points="346,-144 194,-144 194,0 346,0 346,-144"/>
<text text-anchor="start" x="240.75" y="-130.5" font-family="Helvetica,sans-Serif" font-size="10.00">UISubsystem</text>
<text text-anchor="start" x="268.5" y="-114.5" font-family="Helvetica,sans-Serif" font-size="10.00"> </text>
<text text-anchor="start" x="198" y="-98.5" font-family="Helvetica,sans-Serif" font-size="10.00">+</text>
<text text-anchor="start" x="208" y="-98.5" font-family="Helvetica,sans-Serif" font-size="10.00">UISubsystem(hri::Render</text>
<text text-anchor="start" x="208" y="-86.5" font-family="Helvetica,sans-Serif" font-size="10.00">Context &amp;ctx, VkRenderPass</text>
<text text-anchor="start" x="208" y="-74.5" font-family="Helvetica,sans-Serif" font-size="10.00"> renderPass, VkDescriptorPool</text>
<text text-anchor="start" x="208" y="-62.5" font-family="Helvetica,sans-Serif" font-size="10.00"> uiPool)</text>
<text text-anchor="start" x="198" y="-46.5" font-family="Helvetica,sans-Serif" font-size="10.00">+</text>
<text text-anchor="start" x="208" y="-46.5" font-family="Helvetica,sans-Serif" font-size="10.00">virtual ~UISubsystem()</text>
<text text-anchor="start" x="198" y="-30.5" font-family="Helvetica,sans-Serif" font-size="10.00">+</text>
<text text-anchor="start" x="208" y="-30.5" font-family="Helvetica,sans-Serif" font-size="10.00">virtual void record</text>
<text text-anchor="start" x="208" y="-18.5" font-family="Helvetica,sans-Serif" font-size="10.00">(hri::ActiveFrame &amp;frame)</text>
<text text-anchor="start" x="208" y="-6.5" font-family="Helvetica,sans-Serif" font-size="10.00"> const override</text>
<polygon fill="#666666" stroke="#666666" points="194,-126 194,-126 346,-126 346,-126 194,-126"/>
<polygon fill="#666666" stroke="#666666" points="194,-110 194,-110 346,-110 346,-110 194,-110"/>
<polygon fill="none" stroke="#666666" points="194,0 194,-144 346,-144 346,0 194,0"/>
</a>
</g>
</g>
<!-- Node2 -->
<g id="Node000002" class="node">
<title>Node2</title>
<g id="a_Node000002"><a xlink:href="classhri_1_1_i_render_subsystem.html" target="_top" xlink:title="A Render Subsystem manages a render pipeline, layout, and subsystem descriptors. A Render Subsystem b...">
<polygon fill="white" stroke="none" points="357,-381 183,-381 183,-181 357,-181 357,-381"/>
<text text-anchor="start" x="220.5" y="-367.5" font-family="Helvetica,sans-Serif" font-size="10.00">hri::IRenderSubsystem</text>
<text text-anchor="start" x="187.38" y="-351.5" font-family="Helvetica,sans-Serif" font-size="10.00">#</text>
<text text-anchor="start" x="197" y="-351.5" font-family="Helvetica,sans-Serif" font-size="10.00">VkPipelineLayout m</text>
<text text-anchor="start" x="197" y="-339.5" font-family="Helvetica,sans-Serif" font-size="10.00">_layout</text>
<text text-anchor="start" x="187" y="-323.5" font-family="Helvetica,sans-Serif" font-size="10.00">+</text>
<text text-anchor="start" x="197" y="-323.5" font-family="Helvetica,sans-Serif" font-size="10.00">IRenderSubsystem(Render</text>
<text text-anchor="start" x="197" y="-311.5" font-family="Helvetica,sans-Serif" font-size="10.00">Context &amp;ctx)</text>
<text text-anchor="start" x="187" y="-295.5" font-family="Helvetica,sans-Serif" font-size="10.00">+</text>
<text text-anchor="start" x="197" y="-295.5" font-family="Helvetica,sans-Serif" font-size="10.00">virtual ~IRenderSubsystem()</text>
<text text-anchor="start" x="187" y="-279.5" font-family="Helvetica,sans-Serif" font-size="10.00">+</text>
<text text-anchor="start" x="197" y="-279.5" font-family="Helvetica,sans-Serif" font-size="10.00">IRenderSubsystem(const</text>
<text text-anchor="start" x="197" y="-267.5" font-family="Helvetica,sans-Serif" font-size="10.00"> IRenderSubsystem &amp;)=delete</text>
<text text-anchor="start" x="187" y="-251.5" font-family="Helvetica,sans-Serif" font-size="10.00">+</text>
<text text-anchor="start" x="197" y="-251.5" font-family="Helvetica,sans-Serif" font-size="10.00">IRenderSubsystem &amp;</text>
<text text-anchor="start" x="197" y="-239.5" font-family="Helvetica,sans-Serif" font-size="10.00"> operator=(const IRenderSubsystem</text>
<text text-anchor="start" x="197" y="-227.5" font-family="Helvetica,sans-Serif" font-size="10.00"> &amp;)=delete</text>
<text text-anchor="start" x="187" y="-211.5" font-family="Helvetica,sans-Serif" font-size="10.00">+</text>
<text text-anchor="start" x="197" y="-211.5" font-family="Helvetica,sans-Serif" font-size="10.00">virtual void record</text>
<text text-anchor="start" x="197" y="-199.5" font-family="Helvetica,sans-Serif" font-size="10.00">(ActiveFrame &amp;frame)</text>
<text text-anchor="start" x="197" y="-187.5" font-family="Helvetica,sans-Serif" font-size="10.00"> const =0</text>
<polygon fill="#666666" stroke="#666666" points="183,-363 183,-363 357,-363 357,-363 183,-363"/>
<polygon fill="#666666" stroke="#666666" points="183,-335 183,-335 195,-335 195,-335 183,-335"/>
<polygon fill="#666666" stroke="#666666" points="195,-335 195,-335 357,-335 357,-335 195,-335"/>
<polygon fill="none" stroke="#666666" points="183,-181 183,-381 357,-381 357,-181 183,-181"/>
</a>
</g>
</g>
<!-- Node2&#45;&gt;Node1 -->
<g id="edge1_Node000001_Node000002" class="edge">
<title>Node2&#45;&gt;Node1</title>
<g id="a_edge1_Node000001_Node000002"><a xlink:title=" ">
<path fill="none" stroke="#63b8ff" d="M270,-169.55C270,-160.81 270,-152.14 270,-143.79"/>
<polygon fill="none" stroke="#63b8ff" points="266.5,-169.53 270,-179.53 273.5,-169.53 266.5,-169.53"/>
</a>
</g>
</g>
<!-- Node3 -->
<g id="Node000003" class="node">
<title>Node3</title>
<g id="a_Node000003"><a xlink:href="classhri_1_1_render_context.html" target="_top" xlink:title="THe RenderContext manages the Vulkan instance, device, and swapchain state.">
<polygon fill="white" stroke="none" points="160,-853 0,-853 0,-429 160,-429 160,-853"/>
<text text-anchor="start" x="39.5" y="-839.5" font-family="Helvetica,sans-Serif" font-size="10.00">hri::RenderContext</text>
<text text-anchor="start" x="4" y="-823.5" font-family="Helvetica,sans-Serif" font-size="10.00">+</text>
<text text-anchor="start" x="14" y="-823.5" font-family="Helvetica,sans-Serif" font-size="10.00">vkb::Instance instance</text>
<text text-anchor="start" x="4" y="-807.5" font-family="Helvetica,sans-Serif" font-size="10.00">+</text>
<text text-anchor="start" x="14" y="-807.5" font-family="Helvetica,sans-Serif" font-size="10.00">VkSurfaceKHR surface</text>
<text text-anchor="start" x="4" y="-791.5" font-family="Helvetica,sans-Serif" font-size="10.00">+</text>
<text text-anchor="start" x="14" y="-791.5" font-family="Helvetica,sans-Serif" font-size="10.00">vkb::PhysicalDevice gpu</text>
<text text-anchor="start" x="4" y="-775.5" font-family="Helvetica,sans-Serif" font-size="10.00">+</text>
<text text-anchor="start" x="14" y="-775.5" font-family="Helvetica,sans-Serif" font-size="10.00">vkb::Device device</text>
<text text-anchor="start" x="4" y="-759.5" font-family="Helvetica,sans-Serif" font-size="10.00">+</text>
<text text-anchor="start" x="14" y="-759.5" font-family="Helvetica,sans-Serif" font-size="10.00">VmaAllocator allocator</text>
<text text-anchor="start" x="4" y="-743.5" font-family="Helvetica,sans-Serif" font-size="10.00">+</text>
<text text-anchor="start" x="14" y="-743.5" font-family="Helvetica,sans-Serif" font-size="10.00">vkb::Swapchain swapchain</text>
<text text-anchor="start" x="4" y="-727.5" font-family="Helvetica,sans-Serif" font-size="10.00">+</text>
<text text-anchor="start" x="14" y="-727.5" font-family="Helvetica,sans-Serif" font-size="10.00">RenderContext(RenderContext</text>
<text text-anchor="start" x="14" y="-715.5" font-family="Helvetica,sans-Serif" font-size="10.00">CreateInfo &amp;createInfo)</text>
<text text-anchor="start" x="4" y="-699.5" font-family="Helvetica,sans-Serif" font-size="10.00">+</text>
<text text-anchor="start" x="14" y="-699.5" font-family="Helvetica,sans-Serif" font-size="10.00">virtual ~RenderContext()</text>
<text text-anchor="start" x="4" y="-683.5" font-family="Helvetica,sans-Serif" font-size="10.00">+</text>
<text text-anchor="start" x="14" y="-683.5" font-family="Helvetica,sans-Serif" font-size="10.00">RenderContext(const</text>
<text text-anchor="start" x="14" y="-671.5" font-family="Helvetica,sans-Serif" font-size="10.00"> RenderContext &amp;)=delete</text>
<text text-anchor="start" x="4" y="-655.5" font-family="Helvetica,sans-Serif" font-size="10.00">+</text>
<text text-anchor="start" x="14" y="-655.5" font-family="Helvetica,sans-Serif" font-size="10.00">RenderContext &amp; operator</text>
<text text-anchor="start" x="14" y="-643.5" font-family="Helvetica,sans-Serif" font-size="10.00">=(const RenderContext &amp;)</text>
<text text-anchor="start" x="14" y="-631.5" font-family="Helvetica,sans-Serif" font-size="10.00">=delete</text>
<text text-anchor="start" x="4" y="-615.5" font-family="Helvetica,sans-Serif" font-size="10.00">+</text>
<text text-anchor="start" x="14" y="-615.5" font-family="Helvetica,sans-Serif" font-size="10.00">RenderContext(RenderContext</text>
<text text-anchor="start" x="14" y="-603.5" font-family="Helvetica,sans-Serif" font-size="10.00"> &amp;&amp;other) noexcept</text>
<text text-anchor="start" x="4" y="-587.5" font-family="Helvetica,sans-Serif" font-size="10.00">+</text>
<text text-anchor="start" x="14" y="-587.5" font-family="Helvetica,sans-Serif" font-size="10.00">RenderContext &amp; operator</text>
<text text-anchor="start" x="14" y="-575.5" font-family="Helvetica,sans-Serif" font-size="10.00">=(RenderContext &amp;&amp;other)</text>
<text text-anchor="start" x="14" y="-563.5" font-family="Helvetica,sans-Serif" font-size="10.00"> noexcept</text>
<text text-anchor="start" x="4" y="-547.5" font-family="Helvetica,sans-Serif" font-size="10.00">+</text>
<text text-anchor="start" x="14" y="-547.5" font-family="Helvetica,sans-Serif" font-size="10.00">void setVSyncMode(VSyncMode</text>
<text text-anchor="start" x="14" y="-535.5" font-family="Helvetica,sans-Serif" font-size="10.00"> vsyncMode)</text>
<text text-anchor="start" x="4" y="-519.5" font-family="Helvetica,sans-Serif" font-size="10.00">+</text>
<text text-anchor="start" x="14" y="-519.5" font-family="Helvetica,sans-Serif" font-size="10.00">void recreateSwapchain()</text>
<text text-anchor="start" x="4" y="-503.5" font-family="Helvetica,sans-Serif" font-size="10.00">+</text>
<text text-anchor="start" x="14" y="-503.5" font-family="Helvetica,sans-Serif" font-size="10.00">_PFn getInstanceFunction</text>
<text text-anchor="start" x="14" y="-491.5" font-family="Helvetica,sans-Serif" font-size="10.00">(const char *name) const</text>
<text text-anchor="start" x="4" y="-475.5" font-family="Helvetica,sans-Serif" font-size="10.00">+</text>
<text text-anchor="start" x="14" y="-475.5" font-family="Helvetica,sans-Serif" font-size="10.00">_PFn getDeviceFunction</text>
<text text-anchor="start" x="14" y="-463.5" font-family="Helvetica,sans-Serif" font-size="10.00">(const char *name) const</text>
<text text-anchor="start" x="4" y="-447.5" font-family="Helvetica,sans-Serif" font-size="10.00">+</text>
<text text-anchor="start" x="14" y="-447.5" font-family="Helvetica,sans-Serif" font-size="10.00">VkFormat swapFormat</text>
<text text-anchor="start" x="14" y="-435.5" font-family="Helvetica,sans-Serif" font-size="10.00">() const</text>
<polygon fill="#666666" stroke="#666666" points="0,-835 0,-835 160,-835 160,-835 0,-835"/>
<polygon fill="#666666" stroke="#666666" points="0,-739 0,-739 12,-739 12,-739 0,-739"/>
<polygon fill="#666666" stroke="#666666" points="12,-739 12,-739 160,-739 160,-739 12,-739"/>
<polygon fill="none" stroke="#666666" points="0,-429 0,-853 160,-853 160,-429 0,-429"/>
</a>
</g>
</g>
<!-- Node3&#45;&gt;Node2 -->
<g id="edge2_Node000002_Node000003" class="edge">
<title>Node3&#45;&gt;Node2</title>
<g id="a_edge2_Node000002_Node000003"><a xlink:title=" ">
<path fill="none" stroke="#63b8ff" d="M159.95,-446.08C162.93,-440.29 165.95,-434.58 169,-429 175.78,-416.6 183.35,-403.96 191.22,-391.54"/>
<polygon fill="none" stroke="#63b8ff" points="191.21,-391.55 191.1,-384.34 197.71,-381.46 197.83,-388.67 191.21,-391.55"/>
</a>
</g>
<text text-anchor="middle" x="204.62" y="-401.5" font-family="Helvetica,sans-Serif" font-size="10.00" fill="grey"> #m_ctx</text>
</g>
<!-- Node4 -->
<g id="Node000004" class="node">
<title>Node4</title>
<g id="a_Node000004"><a xlink:href="classhri_1_1_render_context_queue_state.html" target="_top" xlink:title="The context queue state creates and maintains the device queue setup.">
<polygon fill="white" stroke="none" points="151,-993 9,-993 9,-901 151,-901 151,-993"/>
<text text-anchor="start" x="13.62" y="-979.5" font-family="Helvetica,sans-Serif" font-size="10.00">hri::RenderContextQueueState</text>
<text text-anchor="start" x="78.5" y="-963.5" font-family="Helvetica,sans-Serif" font-size="10.00"> </text>
<text text-anchor="start" x="15" y="-947.5" font-family="Helvetica,sans-Serif" font-size="10.00">+</text>
<text text-anchor="start" x="27" y="-947.5" font-family="Helvetica,sans-Serif" font-size="10.00">RenderContextQueueState</text>
<text text-anchor="start" x="27" y="-935.5" font-family="Helvetica,sans-Serif" font-size="10.00">()=default</text>
<text text-anchor="start" x="15" y="-919.5" font-family="Helvetica,sans-Serif" font-size="10.00">+</text>
<text text-anchor="start" x="27" y="-919.5" font-family="Helvetica,sans-Serif" font-size="10.00">RenderContextQueueState</text>
<text text-anchor="start" x="27" y="-907.5" font-family="Helvetica,sans-Serif" font-size="10.00">(vkb::Device device)</text>
<polygon fill="#666666" stroke="#666666" points="9,-975 9,-975 151,-975 151,-975 9,-975"/>
<polygon fill="#666666" stroke="#666666" points="9,-959 9,-959 151,-959 151,-959 9,-959"/>
<polygon fill="none" stroke="#666666" points="9,-901 9,-993 151,-993 151,-901 9,-901"/>
</a>
</g>
</g>
<!-- Node4&#45;&gt;Node3 -->
<g id="edge3_Node000003_Node000004" class="edge">
<title>Node4&#45;&gt;Node3</title>
<g id="a_edge3_Node000003_Node000004"><a xlink:title=" ">
<path fill="none" stroke="#63b8ff" d="M80,-901.14C80,-890.51 80,-878.44 80,-865.48"/>
<polygon fill="none" stroke="#63b8ff" points="80,-865.7 76,-859.7 80,-853.7 84,-859.7 80,-865.7"/>
</a>
</g>
<text text-anchor="middle" x="100.25" y="-873.5" font-family="Helvetica,sans-Serif" font-size="10.00" fill="grey"> +queues</text>
</g>
<!-- Node5 -->
<g id="Node000005" class="node">
<title>Node5</title>
<g id="a_Node000005"><a xlink:href="structhri_1_1_device_queue.html" target="_top" xlink:title="A Device Queue is a queue on the logical device to which operations can be submitted.">
<polygon fill="white" stroke="none" points="125,-1145 35,-1145 35,-1077 125,-1077 125,-1145"/>
<text text-anchor="start" x="43.25" y="-1131.5" font-family="Helvetica,sans-Serif" font-size="10.00">hri::DeviceQueue</text>
<text text-anchor="start" x="39" y="-1115.5" font-family="Helvetica,sans-Serif" font-size="10.00">+</text>
<text text-anchor="start" x="49" y="-1115.5" font-family="Helvetica,sans-Serif" font-size="10.00">uint32_t family</text>
<text text-anchor="start" x="39" y="-1099.5" font-family="Helvetica,sans-Serif" font-size="10.00">+</text>
<text text-anchor="start" x="49" y="-1099.5" font-family="Helvetica,sans-Serif" font-size="10.00">VkQueue handle</text>
<text text-anchor="start" x="78.5" y="-1083.5" font-family="Helvetica,sans-Serif" font-size="10.00"> </text>
<polygon fill="#666666" stroke="#666666" points="35,-1127 35,-1127 125,-1127 125,-1127 35,-1127"/>
<polygon fill="#666666" stroke="#666666" points="35,-1095 35,-1095 47,-1095 47,-1095 35,-1095"/>
<polygon fill="#666666" stroke="#666666" points="47,-1095 47,-1095 125,-1095 125,-1095 47,-1095"/>
<polygon fill="none" stroke="#666666" points="35,-1077 35,-1145 125,-1145 125,-1077 35,-1077"/>
</a>
</g>
</g>
<!-- Node5&#45;&gt;Node4 -->
<g id="edge4_Node000004_Node000005" class="edge">
<title>Node5&#45;&gt;Node4</title>
<g id="a_edge4_Node000004_Node000005"><a xlink:title=" ">
<path fill="none" stroke="#63b8ff" d="M80,-1077.22C80,-1056.7 80,-1029.7 80,-1005.68"/>
<polygon fill="none" stroke="#63b8ff" points="80,-1005.61 76,-999.61 80,-993.61 84,-999.61 80,-1005.61"/>
</a>
</g>
<text text-anchor="middle" x="117.5" y="-1049.5" font-family="Helvetica,sans-Serif" font-size="10.00" fill="grey"> +computeQueue</text>
<text text-anchor="middle" x="117.5" y="-1037.5" font-family="Helvetica,sans-Serif" font-size="10.00" fill="grey">+graphicsQueue</text>
<text text-anchor="middle" x="117.5" y="-1025.5" font-family="Helvetica,sans-Serif" font-size="10.00" fill="grey">+presentQueue</text>
<text text-anchor="middle" x="117.5" y="-1013.5" font-family="Helvetica,sans-Serif" font-size="10.00" fill="grey">+transferQueue</text>
</g>
<!-- Node6 -->
<g id="Node000006" class="node">
<title>Node6</title>
<g id="a_Node000006"><a xlink:href="classhri__debug_1_1_debug_label_handler.html" target="_top" xlink:title="The debug label handler allows setting debug labels for Vulkan objects.">
<polygon fill="white" stroke="none" points="361.5,-741 178.5,-741 178.5,-541 361.5,-541 361.5,-741"/>
<text text-anchor="start" x="204" y="-727.5" font-family="Helvetica,sans-Serif" font-size="10.00">hri_debug::DebugLabelHandler</text>
<text text-anchor="start" x="182.88" y="-711.5" font-family="Helvetica,sans-Serif" font-size="10.00">#</text>
<text text-anchor="start" x="192.5" y="-711.5" font-family="Helvetica,sans-Serif" font-size="10.00">PFN_vkCmdBeginDebugUtils</text>
<text text-anchor="start" x="192.5" y="-699.5" font-family="Helvetica,sans-Serif" font-size="10.00">LabelEXT vkBeginDebugUtilsLabelEXT</text>
<text text-anchor="start" x="182.88" y="-683.5" font-family="Helvetica,sans-Serif" font-size="10.00">#</text>
<text text-anchor="start" x="192.5" y="-683.5" font-family="Helvetica,sans-Serif" font-size="10.00">PFN_vkCmdEndDebugUtilsLabel</text>
<text text-anchor="start" x="192.5" y="-671.5" font-family="Helvetica,sans-Serif" font-size="10.00">EXT vkEndDebugUtilsLabelEXT</text>
<text text-anchor="start" x="182.5" y="-655.5" font-family="Helvetica,sans-Serif" font-size="10.00">+</text>
<text text-anchor="start" x="192.5" y="-655.5" font-family="Helvetica,sans-Serif" font-size="10.00">DebugLabelHandler</text>
<text text-anchor="start" x="192.5" y="-643.5" font-family="Helvetica,sans-Serif" font-size="10.00">(RenderContext &amp;ctx)</text>
<text text-anchor="start" x="182.5" y="-627.5" font-family="Helvetica,sans-Serif" font-size="10.00">+</text>
<text text-anchor="start" x="192.5" y="-627.5" font-family="Helvetica,sans-Serif" font-size="10.00">virtual ~DebugLabelHandler</text>
<text text-anchor="start" x="192.5" y="-615.5" font-family="Helvetica,sans-Serif" font-size="10.00">()=default</text>
<text text-anchor="start" x="182.5" y="-599.5" font-family="Helvetica,sans-Serif" font-size="10.00">+</text>
<text text-anchor="start" x="192.5" y="-599.5" font-family="Helvetica,sans-Serif" font-size="10.00">void cmdBeginLabel</text>
<text text-anchor="start" x="192.5" y="-587.5" font-family="Helvetica,sans-Serif" font-size="10.00">(VkCommandBuffer commandBuffer,</text>
<text text-anchor="start" x="192.5" y="-575.5" font-family="Helvetica,sans-Serif" font-size="10.00"> const char *pName) const</text>
<text text-anchor="start" x="182.5" y="-559.5" font-family="Helvetica,sans-Serif" font-size="10.00">+</text>
<text text-anchor="start" x="192.5" y="-559.5" font-family="Helvetica,sans-Serif" font-size="10.00">void cmdEndLabel(VkCommand</text>
<text text-anchor="start" x="192.5" y="-547.5" font-family="Helvetica,sans-Serif" font-size="10.00">Buffer commandBuffer) const</text>
<polygon fill="#666666" stroke="#666666" points="178.5,-723 178.5,-723 361.5,-723 361.5,-723 178.5,-723"/>
<polygon fill="#666666" stroke="#666666" points="178.5,-667 178.5,-667 190.5,-667 190.5,-667 178.5,-667"/>
<polygon fill="#666666" stroke="#666666" points="190.5,-667 190.5,-667 361.5,-667 361.5,-667 190.5,-667"/>
<polygon fill="none" stroke="#666666" points="178.5,-541 178.5,-741 361.5,-741 361.5,-541 178.5,-541"/>
</a>
</g>
</g>
<!-- Node6&#45;&gt;Node2 -->
<g id="edge5_Node000002_Node000006" class="edge">
<title>Node6&#45;&gt;Node2</title>
<g id="a_edge5_Node000002_Node000006"><a xlink:title=" ">
<path fill="none" stroke="#63b8ff" d="M270,-541.23C270,-495.44 270,-440.83 270,-393.56"/>
<polygon fill="none" stroke="#63b8ff" points="270,-393.66 266,-387.66 270,-381.66 274,-387.66 270,-393.66"/>
</a>
</g>
<text text-anchor="middle" x="294" y="-401.5" font-family="Helvetica,sans-Serif" font-size="10.00" fill="grey"> #m_debug</text>
</g>
<!-- Node7 -->
<g id="Node000007" class="node">
<title>Node7</title>
<g id="a_Node000007"><a xlink:href="structhri_1_1_pipeline_state_object.html" target="_top" xlink:title="A pipeline state object (PSO) stores a pipeline and its bind point.">
<polygon fill="white" stroke="none" points="492,-681 380,-681 380,-601 492,-601 492,-681"/>
<text text-anchor="start" x="384.62" y="-667.5" font-family="Helvetica,sans-Serif" font-size="10.00">hri::PipelineStateObject</text>
<text text-anchor="start" x="385.5" y="-651.5" font-family="Helvetica,sans-Serif" font-size="10.00">+</text>
<text text-anchor="start" x="397" y="-651.5" font-family="Helvetica,sans-Serif" font-size="10.00">VkPipelineBindPoint</text>
<text text-anchor="start" x="397" y="-639.5" font-family="Helvetica,sans-Serif" font-size="10.00"> bindPoint</text>
<text text-anchor="start" x="385.5" y="-623.5" font-family="Helvetica,sans-Serif" font-size="10.00">+</text>
<text text-anchor="start" x="397" y="-623.5" font-family="Helvetica,sans-Serif" font-size="10.00">VkPipeline pipeline</text>
<text text-anchor="start" x="434.5" y="-607.5" font-family="Helvetica,sans-Serif" font-size="10.00"> </text>
<polygon fill="#666666" stroke="#666666" points="380,-663 380,-663 492,-663 492,-663 380,-663"/>
<polygon fill="#666666" stroke="#666666" points="380,-619 380,-619 395,-619 395,-619 380,-619"/>
<polygon fill="#666666" stroke="#666666" points="395,-619 395,-619 492,-619 492,-619 395,-619"/>
<polygon fill="none" stroke="#666666" points="380,-601 380,-681 492,-681 492,-601 380,-601"/>
</a>
</g>
</g>
<!-- Node7&#45;&gt;Node2 -->
<g id="edge6_Node000002_Node000007" class="edge">
<title>Node7&#45;&gt;Node2</title>
<g id="a_edge6_Node000002_Node000007"><a xlink:title=" ">
<path fill="none" stroke="#63b8ff" d="M427.82,-601.34C417.81,-558 398.7,-486.28 371,-429 364.95,-416.5 357.92,-403.86 350.44,-391.52"/>
<polygon fill="none" stroke="#63b8ff" points="350.57,-391.73 344.01,-388.74 344.24,-381.53 350.8,-384.52 350.57,-391.73"/>
</a>
</g>
<text text-anchor="middle" x="383" y="-401.5" font-family="Helvetica,sans-Serif" font-size="10.00" fill="grey"> #m_pPSO</text>
</g>
</g>
</svg>

<g id="navigator" transform="translate(0 0)" fill="#404254">
  <rect fill="#f2f5e9" fill-opacity="0.5" stroke="#606060" stroke-width=".5" x="0" y="0" width="60" height="60"/>
  <use id="zoomplus" xlink:href="#zoomPlus" x="17" y="9" onmousedown="handleZoom(evt,'in')"/>
  <use id="zoomminus" xlink:href="#zoomMin" x="42" y="9" onmousedown="handleZoom(evt,'out')"/>
  <use id="reset" xlink:href="#resetDef" x="30" y="36" onmousedown="handleReset()"/>
   <use id="arrowup" xlink:href="#arrowUp" x="0" y="0" onmousedown="handlePan(0,-1)"/>
  <use id="arrowright" xlink:href="#arrowRight" x="0" y="0" onmousedown="handlePan(1,0)"/>
  <use id="arrowdown" xlink:href="#arrowDown" x="0" y="0" onmousedown="handlePan(0,1)"/>
  <use id="arrowleft" xlink:href="#arrowLeft" x="0" y="0" onmousedown="handlePan(-1,0)"/>
</g>
<svg viewBox="0 0 15 15" width="100%" height="30px" preserveAspectRatio="xMaxYMin meet">
 <g id="arrow_out" transform="scale(0.3 0.3)">
  <a xlink:href="class_u_i_subsystem__coll__graph_org.svg" target="_base">
   <rect id="button" ry="5" rx="5" y="6" x="6" height="38" width="38"
        fill="#f2f5e9" fill-opacity="0.5" stroke="#606060" stroke-width="1.0"/>
   <path id="arrow"
     d="M 11.500037,31.436501 C 11.940474,20.09759 22.043105,11.32322 32.158766,21.979434 L 37.068811,17.246167 C 37.068811,17.246167 37.088388,32 37.088388,32 L 22.160133,31.978069 C 22.160133,31.978069 26.997745,27.140456 26.997745,27.140456 C 18.528582,18.264221 13.291696,25.230495 11.500037,31.436501 z"
     style="fill:#404040;"/>
  </a>
 </g>
</svg>

<style type='text/css'>
<![CDATA[
[data-mouse-over-selected='false'] { opacity: 0.7; }
[data-mouse-over-selected='true']  { opacity: 1.0; }
]]>
</style>
<script type="application/ecmascript"><![CDATA[
document.addEventListener('DOMContentLoaded', (event) => {
  highlightEdges();
  highlightAdjacentNodes();
});
]]></script>
</svg>
