<?xml version="1.0" encoding="UTF-8" standalone="no"?>
<!DOCTYPE svg PUBLIC "-//W3C//DTD SVG 1.1//EN"
 "http://www.w3.org/Graphics/SVG/1.1/DTD/svg11.dtd">
<!-- Generated by graphviz version 10.0.1 (20240210.2158)
 -->
<!-- Title: hri::IRenderSubsystem Pages: 1 -->
<svg width="654pt" height="544pt"
 viewBox="0.00 0.00 653.50 544.00" xmlns="http://www.w3.org/2000/svg" xmlns:xlink="http://www.w3.org/1999/xlink">
<g id="graph0" class="graph" transform="scale(1 1) rotate(0) translate(4 540)">
<title>hri::IRenderSubsystem</title>
<!-- Node1 -->
<g id="Node000001" class="node">
<title>Node1</title>
<g id="a_Node000001"><a xlink:title="A Render Subsystem manages a render pipeline, layout, and subsystem descriptors. A Render Subsystem b...">
<polygon fill="#999999" stroke="none" points="429.5,-536 254.5,-536 254.5,-252 429.5,-252 429.5,-536"/>
<text text-anchor="start" x="292.5" y="-522.5" font-family="Helvetica,sans-Serif" font-size="10.00">hri::IRenderSubsystem</text>
<text text-anchor="start" x="258.88" y="-506.5" font-family="Helvetica,sans-Serif" font-size="10.00">#</text>
<text text-anchor="start" x="268.5" y="-506.5" font-family="Helvetica,sans-Serif" font-size="10.00">RenderContext * m_pCtx</text>
<text text-anchor="start" x="258.88" y="-490.5" font-family="Helvetica,sans-Serif" font-size="10.00">#</text>
<text text-anchor="start" x="268.5" y="-490.5" font-family="Helvetica,sans-Serif" font-size="10.00">DescriptorSetAllocator</text>
<text text-anchor="start" x="268.5" y="-478.5" font-family="Helvetica,sans-Serif" font-size="10.00"> * m_pDescriptorSetAllocator</text>
<text text-anchor="start" x="258.88" y="-462.5" font-family="Helvetica,sans-Serif" font-size="10.00">#</text>
<text text-anchor="start" x="268.5" y="-462.5" font-family="Helvetica,sans-Serif" font-size="10.00">VkPipelineLayout m</text>
<text text-anchor="start" x="268.5" y="-450.5" font-family="Helvetica,sans-Serif" font-size="10.00">_layout</text>
<text text-anchor="start" x="258.88" y="-434.5" font-family="Helvetica,sans-Serif" font-size="10.00">#</text>
<text text-anchor="start" x="268.5" y="-434.5" font-family="Helvetica,sans-Serif" font-size="10.00">PipelineStateObject</text>
<text text-anchor="start" x="268.5" y="-422.5" font-family="Helvetica,sans-Serif" font-size="10.00"> * m_pPSO</text>
<text text-anchor="start" x="258.5" y="-406.5" font-family="Helvetica,sans-Serif" font-size="10.00">+</text>
<text text-anchor="start" x="268.5" y="-406.5" font-family="Helvetica,sans-Serif" font-size="10.00">IRenderSubsystem(Render</text>
<text text-anchor="start" x="268.5" y="-394.5" font-family="Helvetica,sans-Serif" font-size="10.00">Context *ctx, DescriptorSetAllocator</text>
<text text-anchor="start" x="268.5" y="-382.5" font-family="Helvetica,sans-Serif" font-size="10.00"> *descriptorSetAllocator)</text>
<text text-anchor="start" x="258.5" y="-366.5" font-family="Helvetica,sans-Serif" font-size="10.00">+</text>
<text text-anchor="start" x="268.5" y="-366.5" font-family="Helvetica,sans-Serif" font-size="10.00">virtual ~IRenderSubsystem()</text>
<text text-anchor="start" x="258.5" y="-350.5" font-family="Helvetica,sans-Serif" font-size="10.00">+</text>
<text text-anchor="start" x="268.5" y="-350.5" font-family="Helvetica,sans-Serif" font-size="10.00">IRenderSubsystem(const</text>
<text text-anchor="start" x="268.5" y="-338.5" font-family="Helvetica,sans-Serif" font-size="10.00"> IRenderSubsystem &amp;)=delete</text>
<text text-anchor="start" x="258.5" y="-322.5" font-family="Helvetica,sans-Serif" font-size="10.00">+</text>
<text text-anchor="start" x="268.5" y="-322.5" font-family="Helvetica,sans-Serif" font-size="10.00">IRenderSubsystem &amp;</text>
<text text-anchor="start" x="268.5" y="-310.5" font-family="Helvetica,sans-Serif" font-size="10.00"> operator=(const IRenderSubsystem</text>
<text text-anchor="start" x="268.5" y="-298.5" font-family="Helvetica,sans-Serif" font-size="10.00"> &amp;)=delete</text>
<text text-anchor="start" x="258.5" y="-282.5" font-family="Helvetica,sans-Serif" font-size="10.00">+</text>
<text text-anchor="start" x="268.5" y="-282.5" font-family="Helvetica,sans-Serif" font-size="10.00">virtual void record</text>
<text text-anchor="start" x="268.5" y="-270.5" font-family="Helvetica,sans-Serif" font-size="10.00">(ActiveFrame &amp;frame)</text>
<text text-anchor="start" x="268.5" y="-258.5" font-family="Helvetica,sans-Serif" font-size="10.00"> const =0</text>
<polygon fill="#666666" stroke="#666666" points="254.5,-518 254.5,-518 429.5,-518 429.5,-518 254.5,-518"/>
<polygon fill="#666666" stroke="#666666" points="254.5,-418 254.5,-418 266.5,-418 266.5,-418 254.5,-418"/>
<polygon fill="#666666" stroke="#666666" points="266.5,-418 266.5,-418 429.5,-418 429.5,-418 266.5,-418"/>
<polygon fill="none" stroke="#666666" points="254.5,-252 254.5,-536 429.5,-536 429.5,-252 254.5,-252"/>
</a>
</g>
</g>
<!-- Node2 -->
<g id="Node000002" class="node">
<title>Node2</title>
<g id="a_Node000002"><a xlink:href="class_g_buffer_layout_subsystem.html" target="_top" xlink:title=" ">
<polygon fill="white" stroke="none" points="216,-216 0,-216 0,0 216,0 216,-216"/>
<text text-anchor="start" x="52.5" y="-202.5" font-family="Helvetica,sans-Serif" font-size="10.00">GBufferLayoutSubsystem</text>
<text text-anchor="start" x="4.38" y="-186.5" font-family="Helvetica,sans-Serif" font-size="10.00">#</text>
<text text-anchor="start" x="14" y="-186.5" font-family="Helvetica,sans-Serif" font-size="10.00">hri::DescriptorSetManager</text>
<text text-anchor="start" x="14" y="-174.5" font-family="Helvetica,sans-Serif" font-size="10.00"> &amp; m_globalDescriptorSet</text>
<text text-anchor="start" x="4" y="-158.5" font-family="Helvetica,sans-Serif" font-size="10.00">+</text>
<text text-anchor="start" x="14" y="-158.5" font-family="Helvetica,sans-Serif" font-size="10.00">GBufferLayoutSubsystem</text>
<text text-anchor="start" x="14" y="-146.5" font-family="Helvetica,sans-Serif" font-size="10.00">(hri::RenderContext *ctx,</text>
<text text-anchor="start" x="14" y="-134.5" font-family="Helvetica,sans-Serif" font-size="10.00"> hri::DescriptorSetAllocator</text>
<text text-anchor="start" x="14" y="-122.5" font-family="Helvetica,sans-Serif" font-size="10.00"> *descriptorSetAllocator, hri</text>
<text text-anchor="start" x="14" y="-110.5" font-family="Helvetica,sans-Serif" font-size="10.00">::ShaderDatabase *shaderDB, VkRenderPass</text>
<text text-anchor="start" x="14" y="-98.5" font-family="Helvetica,sans-Serif" font-size="10.00"> renderPass, hri::DescriptorSetLayout</text>
<text text-anchor="start" x="14" y="-86.5" font-family="Helvetica,sans-Serif" font-size="10.00"> &amp;globalSetLayout, hri::DescriptorSetManager</text>
<text text-anchor="start" x="14" y="-74.5" font-family="Helvetica,sans-Serif" font-size="10.00"> &amp;globalDescriptorSet)</text>
<text text-anchor="start" x="4" y="-58.5" font-family="Helvetica,sans-Serif" font-size="10.00">+</text>
<text text-anchor="start" x="14" y="-58.5" font-family="Helvetica,sans-Serif" font-size="10.00">virtual ~GBufferLayoutSubsystem</text>
<text text-anchor="start" x="14" y="-46.5" font-family="Helvetica,sans-Serif" font-size="10.00">()=default</text>
<text text-anchor="start" x="4" y="-30.5" font-family="Helvetica,sans-Serif" font-size="10.00">+</text>
<text text-anchor="start" x="14" y="-30.5" font-family="Helvetica,sans-Serif" font-size="10.00">virtual void record</text>
<text text-anchor="start" x="14" y="-18.5" font-family="Helvetica,sans-Serif" font-size="10.00">(hri::ActiveFrame &amp;frame)</text>
<text text-anchor="start" x="14" y="-6.5" font-family="Helvetica,sans-Serif" font-size="10.00"> const override</text>
<polygon fill="#666666" stroke="#666666" points="0,-198 0,-198 216,-198 216,-198 0,-198"/>
<polygon fill="#666666" stroke="#666666" points="0,-170 0,-170 12,-170 12,-170 0,-170"/>
<polygon fill="#666666" stroke="#666666" points="12,-170 12,-170 216,-170 216,-170 12,-170"/>
<polygon fill="none" stroke="#666666" points="0,0 0,-216 216,-216 216,0 0,0"/>
</a>
</g>
</g>
<!-- Node1&#45;&gt;Node2 -->
<g id="edge1_Node000001_Node000002" class="edge">
<title>Node1&#45;&gt;Node2</title>
<g id="a_edge1_Node000001_Node000002"><a xlink:title=" ">
<path fill="none" stroke="#63b8ff" d="M247.33,-278.1C230.42,-257.58 212.86,-236.26 196.14,-215.97"/>
<polygon fill="none" stroke="#63b8ff" points="244.51,-280.18 253.57,-285.68 249.91,-275.73 244.51,-280.18"/>
</a>
</g>
</g>
<!-- Node3 -->
<g id="Node000003" class="node">
<title>Node3</title>
<g id="a_Node000003"><a xlink:href="class_presentation_subsystem.html" target="_top" xlink:title=" ">
<polygon fill="white" stroke="none" points="450,-216 234,-216 234,0 450,0 450,-216"/>
<text text-anchor="start" x="289.88" y="-202.5" font-family="Helvetica,sans-Serif" font-size="10.00">PresentationSubsystem</text>
<text text-anchor="start" x="238.38" y="-186.5" font-family="Helvetica,sans-Serif" font-size="10.00">#</text>
<text text-anchor="start" x="248" y="-186.5" font-family="Helvetica,sans-Serif" font-size="10.00">hri::DescriptorSetManager</text>
<text text-anchor="start" x="248" y="-174.5" font-family="Helvetica,sans-Serif" font-size="10.00"> &amp; m_globalDescriptorSet</text>
<text text-anchor="start" x="238" y="-158.5" font-family="Helvetica,sans-Serif" font-size="10.00">+</text>
<text text-anchor="start" x="248" y="-158.5" font-family="Helvetica,sans-Serif" font-size="10.00">PresentationSubsystem</text>
<text text-anchor="start" x="248" y="-146.5" font-family="Helvetica,sans-Serif" font-size="10.00">(hri::RenderContext *ctx,</text>
<text text-anchor="start" x="248" y="-134.5" font-family="Helvetica,sans-Serif" font-size="10.00"> hri::DescriptorSetAllocator</text>
<text text-anchor="start" x="248" y="-122.5" font-family="Helvetica,sans-Serif" font-size="10.00"> *descriptorSetAllocator, hri</text>
<text text-anchor="start" x="248" y="-110.5" font-family="Helvetica,sans-Serif" font-size="10.00">::ShaderDatabase *shaderDB, VkRenderPass</text>
<text text-anchor="start" x="248" y="-98.5" font-family="Helvetica,sans-Serif" font-size="10.00"> renderPass, hri::DescriptorSetLayout</text>
<text text-anchor="start" x="248" y="-86.5" font-family="Helvetica,sans-Serif" font-size="10.00"> &amp;globalSetLayout, hri::DescriptorSetManager</text>
<text text-anchor="start" x="248" y="-74.5" font-family="Helvetica,sans-Serif" font-size="10.00"> &amp;globalDescriptorSet)</text>
<text text-anchor="start" x="238" y="-58.5" font-family="Helvetica,sans-Serif" font-size="10.00">+</text>
<text text-anchor="start" x="248" y="-58.5" font-family="Helvetica,sans-Serif" font-size="10.00">virtual ~PresentationSubsystem</text>
<text text-anchor="start" x="248" y="-46.5" font-family="Helvetica,sans-Serif" font-size="10.00">()=default</text>
<text text-anchor="start" x="238" y="-30.5" font-family="Helvetica,sans-Serif" font-size="10.00">+</text>
<text text-anchor="start" x="248" y="-30.5" font-family="Helvetica,sans-Serif" font-size="10.00">virtual void record</text>
<text text-anchor="start" x="248" y="-18.5" font-family="Helvetica,sans-Serif" font-size="10.00">(hri::ActiveFrame &amp;frame)</text>
<text text-anchor="start" x="248" y="-6.5" font-family="Helvetica,sans-Serif" font-size="10.00"> const override</text>
<polygon fill="#666666" stroke="#666666" points="234,-198 234,-198 450,-198 450,-198 234,-198"/>
<polygon fill="#666666" stroke="#666666" points="234,-170 234,-170 246,-170 246,-170 234,-170"/>
<polygon fill="#666666" stroke="#666666" points="246,-170 246,-170 450,-170 450,-170 246,-170"/>
<polygon fill="none" stroke="#666666" points="234,0 234,-216 450,-216 450,0 234,0"/>
</a>
</g>
</g>
<!-- Node1&#45;&gt;Node3 -->
<g id="edge2_Node000001_Node000003" class="edge">
<title>Node1&#45;&gt;Node3</title>
<g id="a_edge2_Node000001_Node000003"><a xlink:title=" ">
<path fill="none" stroke="#63b8ff" d="M342,-240.75C342,-232.33 342,-223.96 342,-215.75"/>
<polygon fill="none" stroke="#63b8ff" points="338.5,-240.73 342,-250.73 345.5,-240.73 338.5,-240.73"/>
</a>
</g>
</g>
<!-- Node4 -->
<g id="Node000004" class="node">
<title>Node4</title>
<g id="a_Node000004"><a xlink:href="class_u_i_subsystem.html" target="_top" xlink:title=" ">
<polygon fill="white" stroke="none" points="645.5,-186 468.5,-186 468.5,-30 645.5,-30 645.5,-186"/>
<text text-anchor="start" x="527.75" y="-172.5" font-family="Helvetica,sans-Serif" font-size="10.00">UISubsystem</text>
<text text-anchor="start" x="555.5" y="-156.5" font-family="Helvetica,sans-Serif" font-size="10.00"> </text>
<text text-anchor="start" x="472.5" y="-140.5" font-family="Helvetica,sans-Serif" font-size="10.00">+</text>
<text text-anchor="start" x="482.5" y="-140.5" font-family="Helvetica,sans-Serif" font-size="10.00">UISubsystem(hri::Render</text>
<text text-anchor="start" x="482.5" y="-128.5" font-family="Helvetica,sans-Serif" font-size="10.00">Context *ctx, hri::Descriptor</text>
<text text-anchor="start" x="482.5" y="-116.5" font-family="Helvetica,sans-Serif" font-size="10.00">SetAllocator *descriptorSetAllocator,</text>
<text text-anchor="start" x="482.5" y="-104.5" font-family="Helvetica,sans-Serif" font-size="10.00"> hri::ShaderDatabase *shaderDB,</text>
<text text-anchor="start" x="482.5" y="-92.5" font-family="Helvetica,sans-Serif" font-size="10.00"> VkRenderPass renderPass)</text>
<text text-anchor="start" x="472.5" y="-76.5" font-family="Helvetica,sans-Serif" font-size="10.00">+</text>
<text text-anchor="start" x="482.5" y="-76.5" font-family="Helvetica,sans-Serif" font-size="10.00">virtual ~UISubsystem()</text>
<text text-anchor="start" x="472.5" y="-60.5" font-family="Helvetica,sans-Serif" font-size="10.00">+</text>
<text text-anchor="start" x="482.5" y="-60.5" font-family="Helvetica,sans-Serif" font-size="10.00">virtual void record</text>
<text text-anchor="start" x="482.5" y="-48.5" font-family="Helvetica,sans-Serif" font-size="10.00">(hri::ActiveFrame &amp;frame)</text>
<text text-anchor="start" x="482.5" y="-36.5" font-family="Helvetica,sans-Serif" font-size="10.00"> const override</text>
<polygon fill="#666666" stroke="#666666" points="468.5,-168 468.5,-168 645.5,-168 645.5,-168 468.5,-168"/>
<polygon fill="#666666" stroke="#666666" points="468.5,-152 468.5,-152 645.5,-152 645.5,-152 468.5,-152"/>
<polygon fill="none" stroke="#666666" points="468.5,-30 468.5,-186 645.5,-186 645.5,-30 468.5,-30"/>
</a>
</g>
</g>
<!-- Node1&#45;&gt;Node4 -->
<g id="edge3_Node000001_Node000004" class="edge">
<title>Node1&#45;&gt;Node4</title>
<g id="a_edge3_Node000001_Node000004"><a xlink:title=" ">
<path fill="none" stroke="#63b8ff" d="M436.33,-268.4C457.6,-240.29 479.58,-211.27 498.85,-185.81"/>
<polygon fill="none" stroke="#63b8ff" points="433.61,-266.19 430.36,-276.28 439.19,-270.42 433.61,-266.19"/>
</a>
</g>
</g>
</g>
</svg>
