<?xml version="1.0" encoding="UTF-8" standalone="no"?>
<!DOCTYPE svg PUBLIC "-//W3C//DTD SVG 1.1//EN"
 "http://www.w3.org/Graphics/SVG/1.1/DTD/svg11.dtd">
<!-- Generated by graphviz version 10.0.1 (20240210.2158)
 -->
<!-- Title: PresentationSubsystem Pages: 1 -->
<svg width="615pt" height="884pt"
 viewBox="0.00 0.00 614.75 884.00" xmlns="http://www.w3.org/2000/svg" xmlns:xlink="http://www.w3.org/1999/xlink">
<g id="graph0" class="graph" transform="scale(1 1) rotate(0) translate(4 880)">
<title>PresentationSubsystem</title>
<!-- Node1 -->
<g id="Node000001" class="node">
<title>Node1</title>
<g id="a_Node000001"><a xlink:title=" ">
<polygon fill="#999999" stroke="none" points="405,-84 271,-84 271,0 405,0 405,-84"/>
<text text-anchor="start" x="285.88" y="-70.5" font-family="Helvetica,sans-Serif" font-size="10.00">PresentationSubsystem</text>
<text text-anchor="start" x="336.5" y="-54.5" font-family="Helvetica,sans-Serif" font-size="10.00"> </text>
<text text-anchor="start" x="275" y="-38.5" font-family="Helvetica,sans-Serif" font-size="10.00">+</text>
<text text-anchor="start" x="285" y="-38.5" font-family="Helvetica,sans-Serif" font-size="10.00">PresentationSubsystem()</text>
<text text-anchor="start" x="275" y="-22.5" font-family="Helvetica,sans-Serif" font-size="10.00">+</text>
<text text-anchor="start" x="285" y="-22.5" font-family="Helvetica,sans-Serif" font-size="10.00">~PresentationSubsystem()</text>
<text text-anchor="start" x="275" y="-6.5" font-family="Helvetica,sans-Serif" font-size="10.00">+</text>
<text text-anchor="start" x="285" y="-6.5" font-family="Helvetica,sans-Serif" font-size="10.00">record()</text>
<polygon fill="#666666" stroke="#666666" points="271,-66 271,-66 405,-66 405,-66 271,-66"/>
<polygon fill="#666666" stroke="#666666" points="271,-50 271,-50 405,-50 405,-50 271,-50"/>
<polygon fill="none" stroke="#666666" points="271,0 271,-84 405,-84 405,0 271,0"/>
</a>
</g>
</g>
<!-- Node2 -->
<g id="Node000002" class="node">
<title>Node2</title>
<g id="a_Node000002"><a xlink:href="classhri_1_1_i_render_subsystem.html" target="_top" xlink:title="A Render Subsystem manages a render pipeline, layout, and subsystem descriptors. A Render Subsystem b...">
<polygon fill="white" stroke="none" points="262,-308 150,-308 150,-192 262,-192 262,-308"/>
<text text-anchor="start" x="156.5" y="-294.5" font-family="Helvetica,sans-Serif" font-size="10.00">hri::IRenderSubsystem</text>
<text text-anchor="start" x="154.38" y="-278.5" font-family="Helvetica,sans-Serif" font-size="10.00">#</text>
<text text-anchor="start" x="164" y="-278.5" font-family="Helvetica,sans-Serif" font-size="10.00">m_layout</text>
<text text-anchor="start" x="154" y="-262.5" font-family="Helvetica,sans-Serif" font-size="10.00">+</text>
<text text-anchor="start" x="164" y="-262.5" font-family="Helvetica,sans-Serif" font-size="10.00">IRenderSubsystem()</text>
<text text-anchor="start" x="154" y="-246.5" font-family="Helvetica,sans-Serif" font-size="10.00">+</text>
<text text-anchor="start" x="164" y="-246.5" font-family="Helvetica,sans-Serif" font-size="10.00">~IRenderSubsystem()</text>
<text text-anchor="start" x="154" y="-230.5" font-family="Helvetica,sans-Serif" font-size="10.00">+</text>
<text text-anchor="start" x="164" y="-230.5" font-family="Helvetica,sans-Serif" font-size="10.00">IRenderSubsystem()</text>
<text text-anchor="start" x="154" y="-214.5" font-family="Helvetica,sans-Serif" font-size="10.00">+</text>
<text text-anchor="start" x="164" y="-214.5" font-family="Helvetica,sans-Serif" font-size="10.00">operator=()</text>
<text text-anchor="start" x="154" y="-198.5" font-family="Helvetica,sans-Serif" font-size="10.00">+</text>
<text text-anchor="start" x="164" y="-198.5" font-family="Helvetica,sans-Serif" font-size="10.00">record()</text>
<polygon fill="#666666" stroke="#666666" points="150,-290 150,-290 262,-290 262,-290 150,-290"/>
<polygon fill="#666666" stroke="#666666" points="150,-274 150,-274 162,-274 162,-274 150,-274"/>
<polygon fill="#666666" stroke="#666666" points="162,-274 162,-274 262,-274 262,-274 162,-274"/>
<polygon fill="none" stroke="#666666" points="150,-192 150,-308 262,-308 262,-192 150,-192"/>
</a>
</g>
</g>
<!-- Node2&#45;&gt;Node1 -->
<g id="edge1_Node000001_Node000002" class="edge">
<title>Node2&#45;&gt;Node1</title>
<g id="a_edge1_Node000001_Node000002"><a xlink:title=" ">
<path fill="none" stroke="#63b8ff" d="M246.76,-182.45C254.73,-169.64 263.07,-156.37 271,-144 283.83,-123.98 298.39,-101.96 310.65,-83.6"/>
<polygon fill="none" stroke="#63b8ff" points="243.86,-180.49 241.56,-190.84 249.8,-184.19 243.86,-180.49"/>
</a>
</g>
</g>
<!-- Node3 -->
<g id="Node000003" class="node">
<title>Node3</title>
<g id="a_Node000003"><a xlink:href="classhri_1_1_render_context.html" target="_top" xlink:title="THe RenderContext manages the Vulkan instance, device, and swapchain state.">
<polygon fill="white" stroke="none" points="124,-632 18,-632 18,-404 124,-404 124,-632"/>
<text text-anchor="start" x="30.5" y="-618.5" font-family="Helvetica,sans-Serif" font-size="10.00">hri::RenderContext</text>
<text text-anchor="start" x="22" y="-602.5" font-family="Helvetica,sans-Serif" font-size="10.00">+</text>
<text text-anchor="start" x="32" y="-602.5" font-family="Helvetica,sans-Serif" font-size="10.00">instance</text>
<text text-anchor="start" x="22" y="-586.5" font-family="Helvetica,sans-Serif" font-size="10.00">+</text>
<text text-anchor="start" x="32" y="-586.5" font-family="Helvetica,sans-Serif" font-size="10.00">surface</text>
<text text-anchor="start" x="22" y="-570.5" font-family="Helvetica,sans-Serif" font-size="10.00">+</text>
<text text-anchor="start" x="32" y="-570.5" font-family="Helvetica,sans-Serif" font-size="10.00">gpu</text>
<text text-anchor="start" x="22" y="-554.5" font-family="Helvetica,sans-Serif" font-size="10.00">+</text>
<text text-anchor="start" x="32" y="-554.5" font-family="Helvetica,sans-Serif" font-size="10.00">device</text>
<text text-anchor="start" x="22" y="-538.5" font-family="Helvetica,sans-Serif" font-size="10.00">+</text>
<text text-anchor="start" x="32" y="-538.5" font-family="Helvetica,sans-Serif" font-size="10.00">allocator</text>
<text text-anchor="start" x="22" y="-522.5" font-family="Helvetica,sans-Serif" font-size="10.00">+</text>
<text text-anchor="start" x="32" y="-522.5" font-family="Helvetica,sans-Serif" font-size="10.00">swapchain</text>
<text text-anchor="start" x="22" y="-506.5" font-family="Helvetica,sans-Serif" font-size="10.00">+</text>
<text text-anchor="start" x="32" y="-506.5" font-family="Helvetica,sans-Serif" font-size="10.00">RenderContext()</text>
<text text-anchor="start" x="22" y="-490.5" font-family="Helvetica,sans-Serif" font-size="10.00">+</text>
<text text-anchor="start" x="32" y="-490.5" font-family="Helvetica,sans-Serif" font-size="10.00">~RenderContext()</text>
<text text-anchor="start" x="22" y="-474.5" font-family="Helvetica,sans-Serif" font-size="10.00">+</text>
<text text-anchor="start" x="32" y="-474.5" font-family="Helvetica,sans-Serif" font-size="10.00">RenderContext()</text>
<text text-anchor="start" x="22" y="-458.5" font-family="Helvetica,sans-Serif" font-size="10.00">+</text>
<text text-anchor="start" x="32" y="-458.5" font-family="Helvetica,sans-Serif" font-size="10.00">operator=()</text>
<text text-anchor="start" x="22" y="-442.5" font-family="Helvetica,sans-Serif" font-size="10.00">+</text>
<text text-anchor="start" x="32" y="-442.5" font-family="Helvetica,sans-Serif" font-size="10.00">setVSyncMode()</text>
<text text-anchor="start" x="22" y="-426.5" font-family="Helvetica,sans-Serif" font-size="10.00">+</text>
<text text-anchor="start" x="32" y="-426.5" font-family="Helvetica,sans-Serif" font-size="10.00">recreateSwapchain()</text>
<text text-anchor="start" x="22" y="-410.5" font-family="Helvetica,sans-Serif" font-size="10.00">+</text>
<text text-anchor="start" x="32" y="-410.5" font-family="Helvetica,sans-Serif" font-size="10.00">swapFormat()</text>
<polygon fill="#666666" stroke="#666666" points="18,-614 18,-614 124,-614 124,-614 18,-614"/>
<polygon fill="#666666" stroke="#666666" points="18,-518 18,-518 30,-518 30,-518 18,-518"/>
<polygon fill="#666666" stroke="#666666" points="30,-518 30,-518 124,-518 124,-518 30,-518"/>
<polygon fill="none" stroke="#666666" points="18,-404 18,-632 124,-632 124,-404 18,-404"/>
</a>
</g>
</g>
<!-- Node3&#45;&gt;Node2 -->
<g id="edge2_Node000002_Node000003" class="edge">
<title>Node3&#45;&gt;Node2</title>
<g id="a_edge2_Node000002_Node000003"><a xlink:title=" ">
<path fill="none" stroke="#63b8ff" d="M123.97,-412.63C139.87,-381.29 156.91,-347.72 171.31,-319.34"/>
<polygon fill="none" stroke="#63b8ff" points="171.27,-319.43 170.42,-312.27 176.7,-308.73 177.55,-315.89 171.27,-319.43"/>
</a>
</g>
<text text-anchor="middle" x="164" y="-376.5" font-family="Helvetica,sans-Serif" font-size="10.00" fill="grey"> #m_pCtx</text>
</g>
<!-- Node4 -->
<g id="Node000004" class="node">
<title>Node4</title>
<g id="a_Node000004"><a xlink:href="classhri_1_1_render_context_queue_state.html" target="_top" xlink:title="The context queue state creates and maintains the device queue setup.">
<polygon fill="white" stroke="none" points="142,-748 0,-748 0,-680 142,-680 142,-748"/>
<text text-anchor="start" x="4.62" y="-734.5" font-family="Helvetica,sans-Serif" font-size="10.00">hri::RenderContextQueueState</text>
<text text-anchor="start" x="69.5" y="-718.5" font-family="Helvetica,sans-Serif" font-size="10.00"> </text>
<text text-anchor="start" x="4.5" y="-702.5" font-family="Helvetica,sans-Serif" font-size="10.00">+</text>
<text text-anchor="start" x="15" y="-702.5" font-family="Helvetica,sans-Serif" font-size="10.00">RenderContextQueueState()</text>
<text text-anchor="start" x="4.5" y="-686.5" font-family="Helvetica,sans-Serif" font-size="10.00">+</text>
<text text-anchor="start" x="15" y="-686.5" font-family="Helvetica,sans-Serif" font-size="10.00">RenderContextQueueState()</text>
<polygon fill="#666666" stroke="#666666" points="0,-730 0,-730 142,-730 142,-730 0,-730"/>
<polygon fill="#666666" stroke="#666666" points="0,-714 0,-714 142,-714 142,-714 0,-714"/>
<polygon fill="none" stroke="#666666" points="0,-680 0,-748 142,-748 142,-680 0,-680"/>
</a>
</g>
</g>
<!-- Node4&#45;&gt;Node3 -->
<g id="edge3_Node000003_Node000004" class="edge">
<title>Node4&#45;&gt;Node3</title>
<g id="a_edge3_Node000003_Node000004"><a xlink:title=" ">
<path fill="none" stroke="#63b8ff" d="M71,-680.09C71,-669.79 71,-657.75 71,-644.97"/>
<polygon fill="none" stroke="#63b8ff" points="71,-644.89 67,-638.89 71,-632.89 75,-638.89 71,-644.89"/>
</a>
</g>
<text text-anchor="middle" x="91.25" y="-652.5" font-family="Helvetica,sans-Serif" font-size="10.00" fill="grey"> +queues</text>
</g>
<!-- Node5 -->
<g id="Node000005" class="node">
<title>Node5</title>
<g id="a_Node000005"><a xlink:href="structhri_1_1_device_queue.html" target="_top" xlink:title="A Device Queue is a queue on the logical device to which operations can be submitted.">
<polygon fill="white" stroke="none" points="112.5,-876 29.5,-876 29.5,-808 112.5,-808 112.5,-876"/>
<text text-anchor="start" x="34.25" y="-862.5" font-family="Helvetica,sans-Serif" font-size="10.00">hri::DeviceQueue</text>
<text text-anchor="start" x="42.5" y="-846.5" font-family="Helvetica,sans-Serif" font-size="10.00">+</text>
<text text-anchor="start" x="61.5" y="-846.5" font-family="Helvetica,sans-Serif" font-size="10.00">family</text>
<text text-anchor="start" x="42.5" y="-830.5" font-family="Helvetica,sans-Serif" font-size="10.00">+</text>
<text text-anchor="start" x="61.5" y="-830.5" font-family="Helvetica,sans-Serif" font-size="10.00">handle</text>
<text text-anchor="start" x="69.5" y="-814.5" font-family="Helvetica,sans-Serif" font-size="10.00"> </text>
<polygon fill="#666666" stroke="#666666" points="29.5,-858 29.5,-858 112.5,-858 112.5,-858 29.5,-858"/>
<polygon fill="#666666" stroke="#666666" points="29.5,-826 29.5,-826 59.5,-826 59.5,-826 29.5,-826"/>
<polygon fill="#666666" stroke="#666666" points="59.5,-826 59.5,-826 112.5,-826 112.5,-826 59.5,-826"/>
<polygon fill="none" stroke="#666666" points="29.5,-808 29.5,-876 112.5,-876 112.5,-808 29.5,-808"/>
</a>
</g>
</g>
<!-- Node5&#45;&gt;Node4 -->
<g id="edge4_Node000004_Node000005" class="edge">
<title>Node5&#45;&gt;Node4</title>
<g id="a_edge4_Node000004_Node000005"><a xlink:title=" ">
<path fill="none" stroke="#63b8ff" d="M71,-808.22C71,-793.64 71,-776.23 71,-760.42"/>
<polygon fill="none" stroke="#63b8ff" points="71,-760.51 67,-754.51 71,-748.51 75,-754.51 71,-760.51"/>
</a>
</g>
<text text-anchor="middle" x="108.12" y="-780.5" font-family="Helvetica,sans-Serif" font-size="10.00" fill="grey"> +graphicsQueue</text>
<text text-anchor="middle" x="108.12" y="-768.5" font-family="Helvetica,sans-Serif" font-size="10.00" fill="grey">+presentQueue</text>
</g>
<!-- Node6 -->
<g id="Node000006" class="node">
<title>Node6</title>
<g id="a_Node000006"><a xlink:href="classhri_1_1_descriptor_set_allocator.html" target="_top" xlink:title="The Descriptor Set Allocator handles allocation of Descriptor Sets from descriptor pools.">
<polygon fill="white" stroke="none" points="269.5,-592 142.5,-592 142.5,-444 269.5,-444 269.5,-592"/>
<text text-anchor="start" x="149" y="-578.5" font-family="Helvetica,sans-Serif" font-size="10.00">hri::DescriptorSetAllocator</text>
<text text-anchor="start" x="204.5" y="-562.5" font-family="Helvetica,sans-Serif" font-size="10.00"> </text>
<text text-anchor="start" x="146.5" y="-546.5" font-family="Helvetica,sans-Serif" font-size="10.00">+</text>
<text text-anchor="start" x="156.5" y="-546.5" font-family="Helvetica,sans-Serif" font-size="10.00">DescriptorSetAllocator()</text>
<text text-anchor="start" x="146.5" y="-530.5" font-family="Helvetica,sans-Serif" font-size="10.00">+</text>
<text text-anchor="start" x="156.5" y="-530.5" font-family="Helvetica,sans-Serif" font-size="10.00">~DescriptorSetAllocator()</text>
<text text-anchor="start" x="146.5" y="-514.5" font-family="Helvetica,sans-Serif" font-size="10.00">+</text>
<text text-anchor="start" x="156.5" y="-514.5" font-family="Helvetica,sans-Serif" font-size="10.00">DescriptorSetAllocator()</text>
<text text-anchor="start" x="146.5" y="-498.5" font-family="Helvetica,sans-Serif" font-size="10.00">+</text>
<text text-anchor="start" x="156.5" y="-498.5" font-family="Helvetica,sans-Serif" font-size="10.00">operator=()</text>
<text text-anchor="start" x="146.5" y="-482.5" font-family="Helvetica,sans-Serif" font-size="10.00">+</text>
<text text-anchor="start" x="156.5" y="-482.5" font-family="Helvetica,sans-Serif" font-size="10.00">allocateDescriptorSet()</text>
<text text-anchor="start" x="146.5" y="-466.5" font-family="Helvetica,sans-Serif" font-size="10.00">+</text>
<text text-anchor="start" x="156.5" y="-466.5" font-family="Helvetica,sans-Serif" font-size="10.00">freeDescriptorSet()</text>
<text text-anchor="start" x="146.5" y="-450.5" font-family="Helvetica,sans-Serif" font-size="10.00">+</text>
<text text-anchor="start" x="156.5" y="-450.5" font-family="Helvetica,sans-Serif" font-size="10.00">reset()</text>
<polygon fill="#666666" stroke="#666666" points="142.5,-574 142.5,-574 269.5,-574 269.5,-574 142.5,-574"/>
<polygon fill="#666666" stroke="#666666" points="142.5,-558 142.5,-558 269.5,-558 269.5,-558 142.5,-558"/>
<polygon fill="none" stroke="#666666" points="142.5,-444 142.5,-592 269.5,-592 269.5,-444 142.5,-444"/>
</a>
</g>
</g>
<!-- Node6&#45;&gt;Node2 -->
<g id="edge5_Node000002_Node000006" class="edge">
<title>Node6&#45;&gt;Node2</title>
<g id="a_edge5_Node000002_Node000006"><a xlink:title=" ">
<path fill="none" stroke="#63b8ff" d="M206,-444.31C206,-405.62 206,-358.28 206,-320.13"/>
<polygon fill="none" stroke="#63b8ff" points="206,-320.48 202,-314.48 206,-308.48 210,-314.48 206,-320.48"/>
</a>
</g>
<text text-anchor="middle" x="268.25" y="-376.5" font-family="Helvetica,sans-Serif" font-size="10.00" fill="grey"> #m_pDescriptorSetAllocator</text>
</g>
<!-- Node7 -->
<g id="Node000007" class="node">
<title>Node7</title>
<g id="a_Node000007"><a xlink:href="structhri_1_1_pipeline_state_object.html" target="_top" xlink:title="A pipeline state object (PSO) stores a pipeline and its bind point.">
<polygon fill="white" stroke="none" points="410,-552 298,-552 298,-484 410,-484 410,-552"/>
<text text-anchor="start" x="302.62" y="-538.5" font-family="Helvetica,sans-Serif" font-size="10.00">hri::PipelineStateObject</text>
<text text-anchor="start" x="315.5" y="-522.5" font-family="Helvetica,sans-Serif" font-size="10.00">+</text>
<text text-anchor="start" x="339" y="-522.5" font-family="Helvetica,sans-Serif" font-size="10.00">bindPoint</text>
<text text-anchor="start" x="315.5" y="-506.5" font-family="Helvetica,sans-Serif" font-size="10.00">+</text>
<text text-anchor="start" x="339" y="-506.5" font-family="Helvetica,sans-Serif" font-size="10.00">pipeline</text>
<text text-anchor="start" x="352.5" y="-490.5" font-family="Helvetica,sans-Serif" font-size="10.00"> </text>
<polygon fill="#666666" stroke="#666666" points="298,-534 298,-534 410,-534 410,-534 298,-534"/>
<polygon fill="#666666" stroke="#666666" points="298,-502 298,-502 337,-502 337,-502 298,-502"/>
<polygon fill="#666666" stroke="#666666" points="337,-502 337,-502 410,-502 410,-502 337,-502"/>
<polygon fill="none" stroke="#666666" points="298,-484 298,-552 410,-552 410,-484 298,-484"/>
</a>
</g>
</g>
<!-- Node7&#45;&gt;Node2 -->
<g id="edge6_Node000002_Node000007" class="edge">
<title>Node7&#45;&gt;Node2</title>
<g id="a_edge6_Node000002_Node000007"><a xlink:title=" ">
<path fill="none" stroke="#63b8ff" d="M358.22,-484.22C360.42,-452.25 358.36,-404.17 332,-374 313.4,-352.72 293.47,-373.15 271,-356 257.89,-346 246.79,-332.53 237.68,-318.59"/>
<polygon fill="none" stroke="#63b8ff" points="237.85,-318.87 231.3,-315.85 231.57,-308.64 238.12,-311.66 237.85,-318.87"/>
</a>
</g>
<text text-anchor="middle" x="362" y="-376.5" font-family="Helvetica,sans-Serif" font-size="10.00" fill="grey"> #m_pPSO</text>
</g>
<!-- Node8 -->
<g id="Node000008" class="node">
<title>Node8</title>
<g id="a_Node000008"><a xlink:href="structhri_1_1_descriptor_set_layout.html" target="_top" xlink:title="A Descriptor Set Layout is used to specify bind points for resource descriptors in shaders.">
<polygon fill="white" stroke="none" points="395.5,-292 280.5,-292 280.5,-208 395.5,-208 395.5,-292"/>
<text text-anchor="start" x="285.5" y="-278.5" font-family="Helvetica,sans-Serif" font-size="10.00">hri::DescriptorSetLayout</text>
<text text-anchor="start" x="298" y="-262.5" font-family="Helvetica,sans-Serif" font-size="10.00">+</text>
<text text-anchor="start" x="321.5" y="-262.5" font-family="Helvetica,sans-Serif" font-size="10.00">setLayout</text>
<text text-anchor="start" x="298" y="-246.5" font-family="Helvetica,sans-Serif" font-size="10.00">+</text>
<text text-anchor="start" x="321.5" y="-246.5" font-family="Helvetica,sans-Serif" font-size="10.00">bindings</text>
<text text-anchor="start" x="298" y="-230.5" font-family="Helvetica,sans-Serif" font-size="10.00">+</text>
<text text-anchor="start" x="321.5" y="-230.5" font-family="Helvetica,sans-Serif" font-size="10.00">init()</text>
<text text-anchor="start" x="298" y="-214.5" font-family="Helvetica,sans-Serif" font-size="10.00">+</text>
<text text-anchor="start" x="321.5" y="-214.5" font-family="Helvetica,sans-Serif" font-size="10.00">destroy()</text>
<polygon fill="#666666" stroke="#666666" points="280.5,-274 280.5,-274 395.5,-274 395.5,-274 280.5,-274"/>
<polygon fill="#666666" stroke="#666666" points="280.5,-242 280.5,-242 319.5,-242 319.5,-242 280.5,-242"/>
<polygon fill="#666666" stroke="#666666" points="319.5,-242 319.5,-242 395.5,-242 395.5,-242 319.5,-242"/>
<polygon fill="none" stroke="#666666" points="280.5,-208 280.5,-292 395.5,-292 395.5,-208 280.5,-208"/>
</a>
</g>
</g>
<!-- Node8&#45;&gt;Node1 -->
<g id="edge7_Node000001_Node000008" class="edge">
<title>Node8&#45;&gt;Node1</title>
<g id="a_edge7_Node000001_Node000008"><a xlink:title=" ">
<path fill="none" stroke="#63b8ff" d="M338,-208.3C338,-176.38 338,-131.68 338,-96.8"/>
<polygon fill="none" stroke="#63b8ff" points="338,-96.87 334,-90.87 338,-84.87 342,-90.87 338,-96.87"/>
</a>
</g>
<text text-anchor="start" x="338" y="-116.5" font-family="Helvetica,sans-Serif" font-size="10.00" fill="grey"> #m_renderResultDescriptor</text>
<text text-anchor="middle" x="398.38" y="-104.5" font-family="Helvetica,sans-Serif" font-size="10.00" fill="grey">SetLayout</text>
</g>
<!-- Node9 -->
<g id="Node000009" class="node">
<title>Node9</title>
<g id="a_Node000009"><a xlink:href="classhri_1_1_descriptor_set_manager.html" target="_top" xlink:title=" ">
<polygon fill="white" stroke="none" points="545,-356 419,-356 419,-144 545,-144 545,-356"/>
<text text-anchor="start" x="425.38" y="-342.5" font-family="Helvetica,sans-Serif" font-size="10.00">hri::DescriptorSetManager</text>
<text text-anchor="start" x="480.5" y="-326.5" font-family="Helvetica,sans-Serif" font-size="10.00"> </text>
<text text-anchor="start" x="423" y="-310.5" font-family="Helvetica,sans-Serif" font-size="10.00">+</text>
<text text-anchor="start" x="433" y="-310.5" font-family="Helvetica,sans-Serif" font-size="10.00">DescriptorSetManager()</text>
<text text-anchor="start" x="423" y="-294.5" font-family="Helvetica,sans-Serif" font-size="10.00">+</text>
<text text-anchor="start" x="433" y="-294.5" font-family="Helvetica,sans-Serif" font-size="10.00">DescriptorSetManager()</text>
<text text-anchor="start" x="423" y="-278.5" font-family="Helvetica,sans-Serif" font-size="10.00">+</text>
<text text-anchor="start" x="433" y="-278.5" font-family="Helvetica,sans-Serif" font-size="10.00">~DescriptorSetManager()</text>
<text text-anchor="start" x="423" y="-262.5" font-family="Helvetica,sans-Serif" font-size="10.00">+</text>
<text text-anchor="start" x="433" y="-262.5" font-family="Helvetica,sans-Serif" font-size="10.00">DescriptorSetManager()</text>
<text text-anchor="start" x="423" y="-246.5" font-family="Helvetica,sans-Serif" font-size="10.00">+</text>
<text text-anchor="start" x="433" y="-246.5" font-family="Helvetica,sans-Serif" font-size="10.00">operator=()</text>
<text text-anchor="start" x="423" y="-230.5" font-family="Helvetica,sans-Serif" font-size="10.00">+</text>
<text text-anchor="start" x="433" y="-230.5" font-family="Helvetica,sans-Serif" font-size="10.00">DescriptorSetManager()</text>
<text text-anchor="start" x="423" y="-214.5" font-family="Helvetica,sans-Serif" font-size="10.00">+</text>
<text text-anchor="start" x="433" y="-214.5" font-family="Helvetica,sans-Serif" font-size="10.00">operator=()</text>
<text text-anchor="start" x="423" y="-198.5" font-family="Helvetica,sans-Serif" font-size="10.00">+</text>
<text text-anchor="start" x="433" y="-198.5" font-family="Helvetica,sans-Serif" font-size="10.00">writeBuffer()</text>
<text text-anchor="start" x="423" y="-182.5" font-family="Helvetica,sans-Serif" font-size="10.00">+</text>
<text text-anchor="start" x="433" y="-182.5" font-family="Helvetica,sans-Serif" font-size="10.00">writeImage()</text>
<text text-anchor="start" x="423" y="-166.5" font-family="Helvetica,sans-Serif" font-size="10.00">+</text>
<text text-anchor="start" x="433" y="-166.5" font-family="Helvetica,sans-Serif" font-size="10.00">flush()</text>
<text text-anchor="start" x="423" y="-150.5" font-family="Helvetica,sans-Serif" font-size="10.00">+</text>
<text text-anchor="start" x="433" y="-150.5" font-family="Helvetica,sans-Serif" font-size="10.00">descriptorSet()</text>
<polygon fill="#666666" stroke="#666666" points="419,-338 419,-338 545,-338 545,-338 419,-338"/>
<polygon fill="#666666" stroke="#666666" points="419,-322 419,-322 545,-322 545,-322 419,-322"/>
<polygon fill="none" stroke="#666666" points="419,-144 419,-356 545,-356 545,-144 419,-144"/>
</a>
</g>
</g>
<!-- Node9&#45;&gt;Node1 -->
<g id="edge8_Node000001_Node000009" class="edge">
<title>Node9&#45;&gt;Node1</title>
<g id="a_edge8_Node000001_Node000009"><a xlink:title=" ">
<path fill="none" stroke="#63b8ff" d="M479.2,-144.37C475.26,-129.17 469.18,-114.47 460,-102 448.95,-86.99 433.06,-75.62 416.38,-67.07"/>
<polygon fill="none" stroke="#63b8ff" points="416.43,-67.09 409.29,-68.16 405.57,-61.98 412.7,-60.92 416.43,-67.09"/>
</a>
</g>
<text text-anchor="middle" x="538.88" y="-110.5" font-family="Helvetica,sans-Serif" font-size="10.00" fill="grey"> #m_renderResultDescriptorSet</text>
</g>
</g>
</svg>
