<?xml version="1.0" encoding="UTF-8" standalone="no"?>
<!DOCTYPE svg PUBLIC "-//W3C//DTD SVG 1.1//EN"
 "http://www.w3.org/Graphics/SVG/1.1/DTD/svg11.dtd">
<!-- Generated by graphviz version 10.0.1 (20240210.2158)
 -->
<!-- Title: hri::Camera::Camera Pages: 1 -->
<svg width="492pt" height="28pt"
 viewBox="0.00 0.00 492.00 28.00" xmlns="http://www.w3.org/2000/svg" xmlns:xlink="http://www.w3.org/1999/xlink">
<g id="graph0" class="graph" transform="scale(1 1) rotate(0) translate(4 24)">
<title>hri::Camera::Camera</title>
<!-- Node1 -->
<g id="Node000001" class="node">
<title>Node1</title>
<g id="a_Node000001"><a xlink:title="Instantiate a camera at the world origin, looking forward, with custom parameters.">
<polygon fill="#999999" stroke="#666666" points="106,-20 0,-20 0,0 106,0 106,-20"/>
<text text-anchor="middle" x="53" y="-6.5" font-family="Helvetica,sans-Serif" font-size="10.00">hri::Camera::Camera</text>
</a>
</g>
</g>
<!-- Node2 -->
<g id="Node000002" class="node">
<title>Node2</title>
<g id="a_Node000002"><a xlink:href="classhri_1_1_camera.html#aeb6260cec685087b762690c86519d980" target="_top" xlink:title="Update view &amp; project matrices using basis vectors.">
<polygon fill="white" stroke="#666666" points="281,-20 142,-20 142,0 281,0 281,-20"/>
<text text-anchor="middle" x="211.5" y="-6.5" font-family="Helvetica,sans-Serif" font-size="10.00">hri::Camera::updateMatrices</text>
</a>
</g>
</g>
<!-- Node1&#45;&gt;Node2 -->
<g id="edge1_Node000001_Node000002" class="edge">
<title>Node1&#45;&gt;Node2</title>
<g id="a_edge1_Node000001_Node000002"><a xlink:title=" ">
<path fill="none" stroke="#63b8ff" d="M106.11,-10C113.85,-10 121.97,-10 130.12,-10"/>
<polygon fill="#63b8ff" stroke="#63b8ff" points="130.12,-13.5 140.12,-10 130.12,-6.5 130.12,-13.5"/>
</a>
</g>
</g>
<!-- Node3 -->
<g id="Node000003" class="node">
<title>Node3</title>
<g id="a_Node000003"><a xlink:href="namespacehri.html#acd3a7c0c786cee7eb37afe8bfb309464" target="_top" xlink:title=" ">
<polygon fill="white" stroke="#666666" points="381,-20 317,-20 317,0 381,0 381,-20"/>
<text text-anchor="middle" x="349" y="-6.5" font-family="Helvetica,sans-Serif" font-size="10.00">hri::radians</text>
</a>
</g>
</g>
<!-- Node2&#45;&gt;Node3 -->
<g id="edge2_Node000002_Node000003" class="edge">
<title>Node2&#45;&gt;Node3</title>
<g id="a_edge2_Node000002_Node000003"><a xlink:title=" ">
<path fill="none" stroke="#63b8ff" d="M281.44,-10C289.51,-10 297.55,-10 305.11,-10"/>
<polygon fill="#63b8ff" stroke="#63b8ff" points="305.02,-13.5 315.02,-10 305.02,-6.5 305.02,-13.5"/>
</a>
</g>
</g>
<!-- Node4 -->
<g id="Node000004" class="node">
<title>Node4</title>
<g id="a_Node000004"><a xlink:href="namespacehri.html#a778909c1320f31774fdf25dc126fcb9d" target="_top" xlink:title=" ">
<polygon fill="white" stroke="#666666" points="484,-20 417,-20 417,0 484,0 484,-20"/>
<text text-anchor="middle" x="450.5" y="-6.5" font-family="Helvetica,sans-Serif" font-size="10.00">hri::degrees</text>
</a>
</g>
</g>
<!-- Node3&#45;&gt;Node4 -->
<g id="edge3_Node000003_Node000004" class="edge">
<title>Node3&#45;&gt;Node4</title>
<g id="a_edge3_Node000003_Node000004"><a xlink:title=" ">
<path fill="none" stroke="#63b8ff" d="M381.48,-3.67C388.98,-3.31 397.12,-3.18 405.08,-3.28"/>
<polygon fill="#63b8ff" stroke="#63b8ff" points="404.9,-6.78 414.99,-3.56 405.09,0.22 404.9,-6.78"/>
</a>
</g>
</g>
<!-- Node4&#45;&gt;Node3 -->
<g id="edge4_Node000004_Node000003" class="edge">
<title>Node4&#45;&gt;Node3</title>
<g id="a_edge4_Node000004_Node000003"><a xlink:title=" ">
<path fill="none" stroke="#63b8ff" d="M416.51,-16.4C408.93,-16.73 400.76,-16.83 392.83,-16.69"/>
<polygon fill="#63b8ff" stroke="#63b8ff" points="393.1,-13.2 383,-16.38 392.88,-20.2 393.1,-13.2"/>
</a>
</g>
</g>
</g>
</svg>
