<?xml version="1.0" encoding="UTF-8" standalone="no"?>
<!DOCTYPE svg PUBLIC "-//W3C//DTD SVG 1.1//EN"
 "http://www.w3.org/Graphics/SVG/1.1/DTD/svg11.dtd">
<!-- Generated by graphviz version 10.0.1 (20240210.2158)
 -->
<!-- Title: GBufferLayoutSubsystem::GBufferLayoutSubsystem Pages: 1 -->
<svg width="470pt" height="540pt"
 viewBox="0.00 0.00 470.00 540.00" xmlns="http://www.w3.org/2000/svg" xmlns:xlink="http://www.w3.org/1999/xlink">
<g id="graph0" class="graph" transform="scale(1 1) rotate(0) translate(4 536)">
<title>GBufferLayoutSubsystem::GBufferLayoutSubsystem</title>
<!-- Node1 -->
<g id="Node000001" class="node">
<title>Node1</title>
<g id="a_Node000001"><a xlink:title=" ">
<polygon fill="#999999" stroke="#666666" points="133,-282 0,-282 0,-250 133,-250 133,-282"/>
<text text-anchor="start" x="8" y="-268.5" font-family="Helvetica,sans-Serif" font-size="10.00">GBufferLayoutSubsystem</text>
<text text-anchor="middle" x="66.5" y="-256.5" font-family="Helvetica,sans-Serif" font-size="10.00">::GBufferLayoutSubsystem</text>
</a>
</g>
</g>
<!-- Node2 -->
<g id="Node000002" class="node">
<title>Node2</title>
<g id="a_Node000002"><a xlink:href="classhri_1_1_descriptor_set_layout_builder.html#a6ca1066fc9cda68a188b464469ab237d" target="_top" xlink:title="Add a descriptor binding to the descriptor set layout.">
<polygon fill="white" stroke="#666666" points="297.5,-532 176.5,-532 176.5,-500 297.5,-500 297.5,-532"/>
<text text-anchor="start" x="184.5" y="-518.5" font-family="Helvetica,sans-Serif" font-size="10.00">hri::DescriptorSetLayout</text>
<text text-anchor="middle" x="237" y="-506.5" font-family="Helvetica,sans-Serif" font-size="10.00">Builder::addBinding</text>
</a>
</g>
</g>
<!-- Node1&#45;&gt;Node2 -->
<g id="edge1_Node000001_Node000002" class="edge">
<title>Node1&#45;&gt;Node2</title>
<g id="a_edge1_Node000001_Node000002"><a xlink:title=" ">
<path fill="none" stroke="#63b8ff" d="M70.4,-282.39C78.48,-323.33 105,-431.13 169,-491 169.75,-491.71 170.53,-492.39 171.32,-493.06"/>
<polygon fill="#63b8ff" stroke="#63b8ff" points="169.05,-495.74 179.25,-498.63 173.08,-490.01 169.05,-495.74"/>
</a>
</g>
</g>
<!-- Node3 -->
<g id="Node000003" class="node">
<title>Node3</title>
<g id="a_Node000003"><a xlink:href="classhri_1_1_pipeline_layout_builder.html#a98ca63c2f88a41ce1d3bbdbc4dfb5643" target="_top" xlink:title="Add a new Descriptor Set Layout to the pipeline layout.">
<polygon fill="white" stroke="#666666" points="300.12,-482 173.88,-482 173.88,-450 300.12,-450 300.12,-482"/>
<text text-anchor="start" x="181.88" y="-468.5" font-family="Helvetica,sans-Serif" font-size="10.00">hri::PipelineLayoutBuilder</text>
<text text-anchor="middle" x="237" y="-456.5" font-family="Helvetica,sans-Serif" font-size="10.00">::addDescriptorSetLayout</text>
</a>
</g>
</g>
<!-- Node1&#45;&gt;Node3 -->
<g id="edge2_Node000001_Node000003" class="edge">
<title>Node1&#45;&gt;Node3</title>
<g id="a_edge2_Node000001_Node000003"><a xlink:title=" ">
<path fill="none" stroke="#63b8ff" d="M72.76,-282.49C84.53,-316.79 116.13,-396.36 169,-441 170.09,-441.92 171.23,-442.81 172.39,-443.67"/>
<polygon fill="#63b8ff" stroke="#63b8ff" points="170.24,-446.46 180.56,-448.86 173.99,-440.54 170.24,-446.46"/>
</a>
</g>
</g>
<!-- Node4 -->
<g id="Node000004" class="node">
<title>Node4</title>
<g id="a_Node000004"><a xlink:href="classhri_1_1_descriptor_set_layout_builder.html#a9bfe5daf8d84003dcce380afb7e97fb0" target="_top" xlink:title="Build the specified descriptor set layout.">
<polygon fill="white" stroke="#666666" points="297.5,-432 176.5,-432 176.5,-400 297.5,-400 297.5,-432"/>
<text text-anchor="start" x="184.5" y="-418.5" font-family="Helvetica,sans-Serif" font-size="10.00">hri::DescriptorSetLayout</text>
<text text-anchor="middle" x="237" y="-406.5" font-family="Helvetica,sans-Serif" font-size="10.00">Builder::build</text>
</a>
</g>
</g>
<!-- Node1&#45;&gt;Node4 -->
<g id="edge3_Node000001_Node000004" class="edge">
<title>Node1&#45;&gt;Node4</title>
<g id="a_edge3_Node000001_Node000004"><a xlink:title=" ">
<path fill="none" stroke="#63b8ff" d="M76.64,-282.12C92.32,-308.42 126.77,-360.66 169,-391 170.53,-392.1 172.1,-393.15 173.72,-394.16"/>
<polygon fill="#63b8ff" stroke="#63b8ff" points="171.62,-397 182.06,-398.78 175.01,-390.87 171.62,-397"/>
</a>
</g>
</g>
<!-- Node6 -->
<g id="Node000006" class="node">
<title>Node6</title>
<g id="a_Node000006"><a xlink:href="classhri_1_1_pipeline_layout_builder.html#ad88e3add16c5f341425531e1db34c77d" target="_top" xlink:title="Build the configured pipeline layout.">
<polygon fill="white" stroke="#666666" points="300.12,-382 173.88,-382 173.88,-350 300.12,-350 300.12,-382"/>
<text text-anchor="start" x="181.88" y="-368.5" font-family="Helvetica,sans-Serif" font-size="10.00">hri::PipelineLayoutBuilder</text>
<text text-anchor="middle" x="237" y="-356.5" font-family="Helvetica,sans-Serif" font-size="10.00">::build</text>
</a>
</g>
</g>
<!-- Node1&#45;&gt;Node6 -->
<g id="edge5_Node000001_Node000006" class="edge">
<title>Node1&#45;&gt;Node6</title>
<g id="a_edge5_Node000001_Node000006"><a xlink:title=" ">
<path fill="none" stroke="#63b8ff" d="M86.25,-282.37C105.84,-298.86 137.99,-324.19 169,-341 171.48,-342.35 174.05,-343.65 176.68,-344.91"/>
<polygon fill="#63b8ff" stroke="#63b8ff" points="175.05,-348.01 185.6,-348.92 177.91,-341.63 175.05,-348.01"/>
</a>
</g>
</g>
<!-- Node7 -->
<g id="Node000007" class="node">
<title>Node7</title>
<g id="a_Node000007"><a xlink:href="structhri_1_1_graphics_pipeline_builder.html#a6c9fa89e6b0675c7f460f67f2d674479" target="_top" xlink:title=" ">
<polygon fill="white" stroke="#666666" points="305,-332 169,-332 169,-300 305,-300 305,-332"/>
<text text-anchor="start" x="177" y="-318.5" font-family="Helvetica,sans-Serif" font-size="10.00">hri::GraphicsPipelineBuilder</text>
<text text-anchor="middle" x="237" y="-306.5" font-family="Helvetica,sans-Serif" font-size="10.00">::initColorBlendState</text>
</a>
</g>
</g>
<!-- Node1&#45;&gt;Node7 -->
<g id="edge6_Node000001_Node000007" class="edge">
<title>Node1&#45;&gt;Node7</title>
<g id="a_edge6_Node000001_Node000007"><a xlink:title=" ">
<path fill="none" stroke="#63b8ff" d="M122.67,-282.37C137.72,-286.84 154.19,-291.72 169.78,-296.35"/>
<polygon fill="#63b8ff" stroke="#63b8ff" points="168.38,-299.59 178.96,-299.08 170.37,-292.88 168.38,-299.59"/>
</a>
</g>
</g>
<!-- Node8 -->
<g id="Node000008" class="node">
<title>Node8</title>
<g id="a_Node000008"><a xlink:href="structhri_1_1_graphics_pipeline_builder.html#aebf69250a889e1ac3196f3c54b147630" target="_top" xlink:title=" ">
<polygon fill="white" stroke="#666666" points="305,-282 169,-282 169,-250 305,-250 305,-282"/>
<text text-anchor="start" x="177" y="-268.5" font-family="Helvetica,sans-Serif" font-size="10.00">hri::GraphicsPipelineBuilder</text>
<text text-anchor="middle" x="237" y="-256.5" font-family="Helvetica,sans-Serif" font-size="10.00">::initDefaultScissor</text>
</a>
</g>
</g>
<!-- Node1&#45;&gt;Node8 -->
<g id="edge7_Node000001_Node000008" class="edge">
<title>Node1&#45;&gt;Node8</title>
<g id="a_edge7_Node000001_Node000008"><a xlink:title=" ">
<path fill="none" stroke="#63b8ff" d="M133.13,-266C141.04,-266 149.19,-266 157.26,-266"/>
<polygon fill="#63b8ff" stroke="#63b8ff" points="157.09,-269.5 167.09,-266 157.09,-262.5 157.09,-269.5"/>
</a>
</g>
</g>
<!-- Node9 -->
<g id="Node000009" class="node">
<title>Node9</title>
<g id="a_Node000009"><a xlink:href="structhri_1_1_graphics_pipeline_builder.html#a50539a9cc2f38a2da3416d07f069e8b3" target="_top" xlink:title=" ">
<polygon fill="white" stroke="#666666" points="305,-232 169,-232 169,-200 305,-200 305,-232"/>
<text text-anchor="start" x="177" y="-218.5" font-family="Helvetica,sans-Serif" font-size="10.00">hri::GraphicsPipelineBuilder</text>
<text text-anchor="middle" x="237" y="-206.5" font-family="Helvetica,sans-Serif" font-size="10.00">::initDefaultViewport</text>
</a>
</g>
</g>
<!-- Node1&#45;&gt;Node9 -->
<g id="edge8_Node000001_Node000009" class="edge">
<title>Node1&#45;&gt;Node9</title>
<g id="a_edge8_Node000001_Node000009"><a xlink:title=" ">
<path fill="none" stroke="#63b8ff" d="M122.67,-249.63C137.72,-245.16 154.19,-240.28 169.78,-235.65"/>
<polygon fill="#63b8ff" stroke="#63b8ff" points="170.37,-239.12 178.96,-232.92 168.38,-232.41 170.37,-239.12"/>
</a>
</g>
</g>
<!-- Node10 -->
<g id="Node000010" class="node">
<title>Node10</title>
<g id="a_Node000010"><a xlink:href="structhri_1_1_graphics_pipeline_builder.html#abd3ba37381aa860148b95c6feb6ca129" target="_top" xlink:title=" ">
<polygon fill="white" stroke="#666666" points="305,-182 169,-182 169,-150 305,-150 305,-182"/>
<text text-anchor="start" x="177" y="-168.5" font-family="Helvetica,sans-Serif" font-size="10.00">hri::GraphicsPipelineBuilder</text>
<text text-anchor="middle" x="237" y="-156.5" font-family="Helvetica,sans-Serif" font-size="10.00">::initDepthStencilState</text>
</a>
</g>
</g>
<!-- Node1&#45;&gt;Node10 -->
<g id="edge9_Node000001_Node000010" class="edge">
<title>Node1&#45;&gt;Node10</title>
<g id="a_edge9_Node000001_Node000010"><a xlink:title=" ">
<path fill="none" stroke="#63b8ff" d="M86.25,-249.63C105.84,-233.14 137.99,-207.81 169,-191 171.48,-189.65 174.05,-188.35 176.68,-187.09"/>
<polygon fill="#63b8ff" stroke="#63b8ff" points="177.91,-190.37 185.6,-183.08 175.05,-183.99 177.91,-190.37"/>
</a>
</g>
</g>
<!-- Node11 -->
<g id="Node000011" class="node">
<title>Node11</title>
<g id="a_Node000011"><a xlink:href="structhri_1_1_graphics_pipeline_builder.html#ac7a8817225341e5268221226e0040b3b" target="_top" xlink:title=" ">
<polygon fill="white" stroke="#666666" points="305,-132 169,-132 169,-100 305,-100 305,-132"/>
<text text-anchor="start" x="177" y="-118.5" font-family="Helvetica,sans-Serif" font-size="10.00">hri::GraphicsPipelineBuilder</text>
<text text-anchor="middle" x="237" y="-106.5" font-family="Helvetica,sans-Serif" font-size="10.00">::initInputAssemblyState</text>
</a>
</g>
</g>
<!-- Node1&#45;&gt;Node11 -->
<g id="edge10_Node000001_Node000011" class="edge">
<title>Node1&#45;&gt;Node11</title>
<g id="a_edge10_Node000001_Node000011"><a xlink:title=" ">
<path fill="none" stroke="#63b8ff" d="M76.64,-249.88C92.32,-223.58 126.77,-171.34 169,-141 170.53,-139.9 172.1,-138.85 173.72,-137.84"/>
<polygon fill="#63b8ff" stroke="#63b8ff" points="175.01,-141.13 182.06,-133.22 171.62,-135 175.01,-141.13"/>
</a>
</g>
</g>
<!-- Node12 -->
<g id="Node000012" class="node">
<title>Node12</title>
<g id="a_Node000012"><a xlink:href="structhri_1_1_graphics_pipeline_builder.html#ac0e003f458114cb94bdce9d73d6b6526" target="_top" xlink:title=" ">
<polygon fill="white" stroke="#666666" points="305,-82 169,-82 169,-50 305,-50 305,-82"/>
<text text-anchor="start" x="177" y="-68.5" font-family="Helvetica,sans-Serif" font-size="10.00">hri::GraphicsPipelineBuilder</text>
<text text-anchor="middle" x="237" y="-56.5" font-family="Helvetica,sans-Serif" font-size="10.00">::initMultisampleState</text>
</a>
</g>
</g>
<!-- Node1&#45;&gt;Node12 -->
<g id="edge11_Node000001_Node000012" class="edge">
<title>Node1&#45;&gt;Node12</title>
<g id="a_edge11_Node000001_Node000012"><a xlink:title=" ">
<path fill="none" stroke="#63b8ff" d="M72.76,-249.51C84.53,-215.21 116.13,-135.64 169,-91 170.09,-90.08 171.23,-89.19 172.39,-88.33"/>
<polygon fill="#63b8ff" stroke="#63b8ff" points="173.99,-91.46 180.56,-83.14 170.24,-85.54 173.99,-91.46"/>
</a>
</g>
</g>
<!-- Node13 -->
<g id="Node000013" class="node">
<title>Node13</title>
<g id="a_Node000013"><a xlink:href="structhri_1_1_graphics_pipeline_builder.html#aaaa7a563067832f496b46ee8174db0ec" target="_top" xlink:title=" ">
<polygon fill="white" stroke="#666666" points="305,-32 169,-32 169,0 305,0 305,-32"/>
<text text-anchor="start" x="177" y="-18.5" font-family="Helvetica,sans-Serif" font-size="10.00">hri::GraphicsPipelineBuilder</text>
<text text-anchor="middle" x="237" y="-6.5" font-family="Helvetica,sans-Serif" font-size="10.00">::initRasterizationState</text>
</a>
</g>
</g>
<!-- Node1&#45;&gt;Node13 -->
<g id="edge12_Node000001_Node000013" class="edge">
<title>Node1&#45;&gt;Node13</title>
<g id="a_edge12_Node000001_Node000013"><a xlink:title=" ">
<path fill="none" stroke="#63b8ff" d="M70.4,-249.61C78.48,-208.67 105,-100.87 169,-41 169.75,-40.29 170.53,-39.61 171.32,-38.94"/>
<polygon fill="#63b8ff" stroke="#63b8ff" points="173.08,-41.99 179.25,-33.37 169.05,-36.26 173.08,-41.99"/>
</a>
</g>
</g>
<!-- Node5 -->
<g id="Node000005" class="node">
<title>Node5</title>
<g id="a_Node000005"><a xlink:href="structhri_1_1_descriptor_set_layout.html#aa4f8311cedbacba27dd1a82dd4d1e1cb" target="_top" xlink:title="Create a new descriptor set layout.">
<polygon fill="white" stroke="#666666" points="462,-432 341,-432 341,-400 462,-400 462,-432"/>
<text text-anchor="start" x="349" y="-418.5" font-family="Helvetica,sans-Serif" font-size="10.00">hri::DescriptorSetLayout</text>
<text text-anchor="middle" x="401.5" y="-406.5" font-family="Helvetica,sans-Serif" font-size="10.00">::init</text>
</a>
</g>
</g>
<!-- Node4&#45;&gt;Node5 -->
<g id="edge4_Node000004_Node000005" class="edge">
<title>Node4&#45;&gt;Node5</title>
<g id="a_edge4_Node000004_Node000005"><a xlink:title=" ">
<path fill="none" stroke="#63b8ff" d="M297.59,-416C307.9,-416 318.71,-416 329.29,-416"/>
<polygon fill="#63b8ff" stroke="#63b8ff" points="329.14,-419.5 339.14,-416 329.14,-412.5 329.14,-419.5"/>
</a>
</g>
</g>
</g>
</svg>
