<?xml version="1.0" encoding="UTF-8" standalone="no"?>
<!DOCTYPE svg PUBLIC "-//W3C//DTD SVG 1.1//EN"
 "http://www.w3.org/Graphics/SVG/1.1/DTD/svg11.dtd">
<!-- Generated by graphviz version 10.0.1 (20240210.2158)
 -->
<!-- Title: UIManager Pages: 1 -->
<svg width="140pt" height="120pt"
 viewBox="0.00 0.00 140.00 120.00" xmlns="http://www.w3.org/2000/svg" xmlns:xlink="http://www.w3.org/1999/xlink">
<g id="graph0" class="graph" transform="scale(1 1) rotate(0) translate(4 116)">
<title>UIManager</title>
<!-- Node1 -->
<g id="Node000001" class="node">
<title>Node1</title>
<g id="a_Node000001"><a xlink:title="The UI Manager class handles UI initialization &amp; context.">
<polygon fill="#999999" stroke="none" points="132,-112 0,-112 0,0 132,0 132,-112"/>
<text text-anchor="start" x="42.75" y="-98.5" font-family="Helvetica,sans-Serif" font-size="10.00">UIManager</text>
<text text-anchor="start" x="64.5" y="-82.5" font-family="Helvetica,sans-Serif" font-size="10.00"> </text>
<text text-anchor="start" x="4" y="-66.5" font-family="Helvetica,sans-Serif" font-size="10.00">+</text>
<text text-anchor="start" x="14" y="-66.5" font-family="Helvetica,sans-Serif" font-size="10.00">UIManager(WindowHandle</text>
<text text-anchor="start" x="14" y="-54.5" font-family="Helvetica,sans-Serif" font-size="10.00"> *window)</text>
<text text-anchor="start" x="4" y="-38.5" font-family="Helvetica,sans-Serif" font-size="10.00">+</text>
<text text-anchor="start" x="14" y="-38.5" font-family="Helvetica,sans-Serif" font-size="10.00">~UIManager()</text>
<text text-anchor="start" x="4" y="-22.5" font-family="Helvetica,sans-Serif" font-size="10.00">+</text>
<text text-anchor="start" x="14" y="-22.5" font-family="Helvetica,sans-Serif" font-size="10.00">void startDraw() const</text>
<text text-anchor="start" x="4" y="-6.5" font-family="Helvetica,sans-Serif" font-size="10.00">+</text>
<text text-anchor="start" x="14" y="-6.5" font-family="Helvetica,sans-Serif" font-size="10.00">void endDraw() const</text>
<polygon fill="#666666" stroke="#666666" points="0,-94 0,-94 132,-94 132,-94 0,-94"/>
<polygon fill="#666666" stroke="#666666" points="0,-78 0,-78 132,-78 132,-78 0,-78"/>
<polygon fill="none" stroke="#666666" points="0,0 0,-112 132,-112 132,0 0,0"/>
</a>
</g>
</g>
</g>
</svg>
