<?xml version="1.0" encoding="UTF-8" standalone="no"?>
<!DOCTYPE svg PUBLIC "-//W3C//DTD SVG 1.1//EN"
 "http://www.w3.org/Graphics/SVG/1.1/DTD/svg11.dtd">
<!-- Generated by graphviz version 10.0.1 (20240210.2158)
 -->
<!-- Title: hri::IRenderPassResourceManagerBase::destroyResources Pages: 1 -->
<svg width="582pt" height="150pt"
 viewBox="0.00 0.00 581.75 150.00" xmlns="http://www.w3.org/2000/svg" xmlns:xlink="http://www.w3.org/1999/xlink">
<g id="graph0" class="graph" transform="scale(1 1) rotate(0) translate(4 146)">
<title>hri::IRenderPassResourceManagerBase::destroyResources</title>
<!-- Node1 -->
<g id="Node000001" class="node">
<title>Node1</title>
<g id="a_Node000001"><a xlink:title="Destroy resources.">
<polygon fill="#999999" stroke="#666666" points="573.75,-82 413,-82 413,-50 573.75,-50 573.75,-82"/>
<text text-anchor="start" x="421" y="-68.5" font-family="Helvetica,sans-Serif" font-size="10.00">hri::IRenderPassResource</text>
<text text-anchor="middle" x="493.38" y="-56.5" font-family="Helvetica,sans-Serif" font-size="10.00">ManagerBase::destroyResources</text>
</a>
</g>
</g>
<!-- Node2 -->
<g id="Node000002" class="node">
<title>Node2</title>
<g id="a_Node000002"><a xlink:href="classhri_1_1_swapchain_pass_resource_manager.html#a1e4f5f05c65cce95e723b0f40861d022" target="_top" xlink:title="Destroy resources.">
<polygon fill="white" stroke="#666666" points="366.5,-133 223,-133 223,-101 366.5,-101 366.5,-133"/>
<text text-anchor="start" x="231" y="-119.5" font-family="Helvetica,sans-Serif" font-size="10.00">hri::SwapchainPassResource</text>
<text text-anchor="middle" x="294.75" y="-107.5" font-family="Helvetica,sans-Serif" font-size="10.00">Manager::destroyResources</text>
</a>
</g>
</g>
<!-- Node1&#45;&gt;Node2 -->
<g id="edge1_Node000001_Node000002" class="edge">
<title>Node1&#45;&gt;Node2</title>
<g id="a_edge1_Node000001_Node000002"><a xlink:title=" ">
<path fill="none" stroke="#63b8ff" d="M417.89,-85.32C398.52,-90.34 377.84,-95.71 359.1,-100.57"/>
<polygon fill="#63b8ff" stroke="#63b8ff" points="418.54,-88.77 427.34,-82.87 416.78,-81.99 418.54,-88.77"/>
</a>
</g>
</g>
<!-- Node4 -->
<g id="Node000004" class="node">
<title>Node4</title>
<g id="a_Node000004"><a xlink:href="classhri_1_1_render_pass_resource_manager.html#ac0f58ff968e21cc1757033cabc3db6be" target="_top" xlink:title="Destroy resources.">
<polygon fill="white" stroke="#666666" points="377,-82 212.5,-82 212.5,-50 377,-50 377,-82"/>
<text text-anchor="start" x="220.5" y="-68.5" font-family="Helvetica,sans-Serif" font-size="10.00">hri::RenderPassResourceManager</text>
<text text-anchor="middle" x="294.75" y="-56.5" font-family="Helvetica,sans-Serif" font-size="10.00">::destroyResources</text>
</a>
</g>
</g>
<!-- Node1&#45;&gt;Node4 -->
<g id="edge3_Node000001_Node000004" class="edge">
<title>Node1&#45;&gt;Node4</title>
<g id="a_edge3_Node000001_Node000004"><a xlink:title=" ">
<path fill="none" stroke="#63b8ff" d="M401.45,-66C393.45,-66 385.39,-66 377.47,-66"/>
<polygon fill="#63b8ff" stroke="#63b8ff" points="401.17,-69.5 411.17,-66 401.17,-62.5 401.17,-69.5"/>
</a>
</g>
</g>
<!-- Node6 -->
<g id="Node000006" class="node">
<title>Node6</title>
<g id="a_Node000006"><a xlink:href="classhri_1_1_i_render_pass_resource_manager_base.html#aad0340480a463f5e32539a201440e7b9" target="_top" xlink:title="Recreate resources.">
<polygon fill="white" stroke="#666666" points="376.62,-32 212.88,-32 212.88,0 376.62,0 376.62,-32"/>
<text text-anchor="start" x="220.88" y="-18.5" font-family="Helvetica,sans-Serif" font-size="10.00">hri::IRenderPassResource</text>
<text text-anchor="middle" x="294.75" y="-6.5" font-family="Helvetica,sans-Serif" font-size="10.00">ManagerBase::recreateResources</text>
</a>
</g>
</g>
<!-- Node1&#45;&gt;Node6 -->
<g id="edge5_Node000001_Node000006" class="edge">
<title>Node1&#45;&gt;Node6</title>
<g id="a_edge5_Node000001_Node000006"><a xlink:title=" ">
<path fill="none" stroke="#63b8ff" d="M416.65,-46.74C398.1,-42.03 378.42,-37.02 360.44,-32.45"/>
<polygon fill="#63b8ff" stroke="#63b8ff" points="415.7,-50.11 426.25,-49.19 417.42,-43.33 415.7,-50.11"/>
</a>
</g>
</g>
<!-- Node3 -->
<g id="Node000003" class="node">
<title>Node3</title>
<g id="a_Node000003"><a xlink:href="classhri_1_1_swapchain_pass_resource_manager.html#a67cdd4933de1e9facee9c3e63083638c" target="_top" xlink:title="Destroy this swapchain resource manager.">
<polygon fill="white" stroke="#666666" points="176.5,-142 0,-142 0,-98 176.5,-98 176.5,-142"/>
<text text-anchor="start" x="8" y="-128.5" font-family="Helvetica,sans-Serif" font-size="10.00">hri::SwapchainPassResource</text>
<text text-anchor="start" x="8" y="-116.5" font-family="Helvetica,sans-Serif" font-size="10.00">Manager::~SwapchainPassResource</text>
<text text-anchor="middle" x="88.25" y="-104.5" font-family="Helvetica,sans-Serif" font-size="10.00">Manager</text>
</a>
</g>
</g>
<!-- Node2&#45;&gt;Node3 -->
<g id="edge2_Node000002_Node000003" class="edge">
<title>Node2&#45;&gt;Node3</title>
<g id="a_edge2_Node000002_Node000003"><a xlink:title=" ">
<path fill="none" stroke="#63b8ff" d="M211.29,-118.21C199.93,-118.38 188.24,-118.55 176.79,-118.72"/>
<polygon fill="#63b8ff" stroke="#63b8ff" points="211.05,-121.71 221,-118.07 210.95,-114.71 211.05,-121.71"/>
</a>
</g>
</g>
<!-- Node5 -->
<g id="Node000005" class="node">
<title>Node5</title>
<g id="a_Node000005"><a xlink:href="classhri_1_1_render_pass_resource_manager.html#acefa605446c88a0499bdc4706bd634ce" target="_top" xlink:title="Destroy this resource manager.">
<polygon fill="white" stroke="#666666" points="170.5,-80 6,-80 6,-48 170.5,-48 170.5,-80"/>
<text text-anchor="start" x="14" y="-66.5" font-family="Helvetica,sans-Serif" font-size="10.00">hri::RenderPassResourceManager</text>
<text text-anchor="middle" x="88.25" y="-54.5" font-family="Helvetica,sans-Serif" font-size="10.00">::~RenderPassResourceManager</text>
</a>
</g>
</g>
<!-- Node4&#45;&gt;Node5 -->
<g id="edge4_Node000004_Node000005" class="edge">
<title>Node4&#45;&gt;Node5</title>
<g id="a_edge4_Node000004_Node000005"><a xlink:title=" ">
<path fill="none" stroke="#63b8ff" d="M200.82,-65.09C190.81,-64.99 180.68,-64.89 170.83,-64.8"/>
<polygon fill="#63b8ff" stroke="#63b8ff" points="200.5,-68.59 210.53,-65.19 200.57,-61.59 200.5,-68.59"/>
</a>
</g>
</g>
</g>
</svg>
