<?xml version="1.0" encoding="UTF-8" standalone="no"?>
<!DOCTYPE svg PUBLIC "-//W3C//DTD SVG 1.1//EN"
 "http://www.w3.org/Graphics/SVG/1.1/DTD/svg11.dtd">
<!-- Generated by graphviz version 10.0.1 (20240210.2158)
 -->
<!-- Title: hri::IRenderSubsystem Pages: 1 -->
<svg width="796pt" height="740pt"
 viewBox="0.00 0.00 795.50 740.00" xmlns="http://www.w3.org/2000/svg" xmlns:xlink="http://www.w3.org/1999/xlink">
<g id="graph0" class="graph" transform="scale(1 1) rotate(0) translate(4 736)">
<title>hri::IRenderSubsystem</title>
<!-- Node1 -->
<g id="Node000001" class="node">
<title>Node1</title>
<g id="a_Node000001"><a xlink:title="A Render Subsystem manages a render pipeline, layout, and subsystem descriptors. A Render Subsystem b...">
<polygon fill="#999999" stroke="none" points="499.5,-732 325.5,-732 325.5,-460 499.5,-460 499.5,-732"/>
<text text-anchor="start" x="363" y="-718.5" font-family="Helvetica,sans-Serif" font-size="10.00">hri::IRenderSubsystem</text>
<text text-anchor="start" x="329.88" y="-702.5" font-family="Helvetica,sans-Serif" font-size="10.00">#</text>
<text text-anchor="start" x="339.5" y="-702.5" font-family="Helvetica,sans-Serif" font-size="10.00">RenderContext &amp; m_ctx</text>
<text text-anchor="start" x="329.88" y="-686.5" font-family="Helvetica,sans-Serif" font-size="10.00">#</text>
<text text-anchor="start" x="339.5" y="-686.5" font-family="Helvetica,sans-Serif" font-size="10.00">hri_debug::DebugLabelHandler</text>
<text text-anchor="start" x="339.5" y="-674.5" font-family="Helvetica,sans-Serif" font-size="10.00"> m_debug</text>
<text text-anchor="start" x="329.88" y="-658.5" font-family="Helvetica,sans-Serif" font-size="10.00">#</text>
<text text-anchor="start" x="339.5" y="-658.5" font-family="Helvetica,sans-Serif" font-size="10.00">VkPipelineLayout m</text>
<text text-anchor="start" x="339.5" y="-646.5" font-family="Helvetica,sans-Serif" font-size="10.00">_layout</text>
<text text-anchor="start" x="329.88" y="-630.5" font-family="Helvetica,sans-Serif" font-size="10.00">#</text>
<text text-anchor="start" x="339.5" y="-630.5" font-family="Helvetica,sans-Serif" font-size="10.00">PipelineStateObject</text>
<text text-anchor="start" x="339.5" y="-618.5" font-family="Helvetica,sans-Serif" font-size="10.00"> * m_pPSO</text>
<text text-anchor="start" x="329.5" y="-602.5" font-family="Helvetica,sans-Serif" font-size="10.00">+</text>
<text text-anchor="start" x="339.5" y="-602.5" font-family="Helvetica,sans-Serif" font-size="10.00">IRenderSubsystem(Render</text>
<text text-anchor="start" x="339.5" y="-590.5" font-family="Helvetica,sans-Serif" font-size="10.00">Context &amp;ctx)</text>
<text text-anchor="start" x="329.5" y="-574.5" font-family="Helvetica,sans-Serif" font-size="10.00">+</text>
<text text-anchor="start" x="339.5" y="-574.5" font-family="Helvetica,sans-Serif" font-size="10.00">virtual ~IRenderSubsystem()</text>
<text text-anchor="start" x="329.5" y="-558.5" font-family="Helvetica,sans-Serif" font-size="10.00">+</text>
<text text-anchor="start" x="339.5" y="-558.5" font-family="Helvetica,sans-Serif" font-size="10.00">IRenderSubsystem(const</text>
<text text-anchor="start" x="339.5" y="-546.5" font-family="Helvetica,sans-Serif" font-size="10.00"> IRenderSubsystem &amp;)=delete</text>
<text text-anchor="start" x="329.5" y="-530.5" font-family="Helvetica,sans-Serif" font-size="10.00">+</text>
<text text-anchor="start" x="339.5" y="-530.5" font-family="Helvetica,sans-Serif" font-size="10.00">IRenderSubsystem &amp;</text>
<text text-anchor="start" x="339.5" y="-518.5" font-family="Helvetica,sans-Serif" font-size="10.00"> operator=(const IRenderSubsystem</text>
<text text-anchor="start" x="339.5" y="-506.5" font-family="Helvetica,sans-Serif" font-size="10.00"> &amp;)=delete</text>
<text text-anchor="start" x="329.5" y="-490.5" font-family="Helvetica,sans-Serif" font-size="10.00">+</text>
<text text-anchor="start" x="339.5" y="-490.5" font-family="Helvetica,sans-Serif" font-size="10.00">virtual void record</text>
<text text-anchor="start" x="339.5" y="-478.5" font-family="Helvetica,sans-Serif" font-size="10.00">(ActiveFrame &amp;frame)</text>
<text text-anchor="start" x="339.5" y="-466.5" font-family="Helvetica,sans-Serif" font-size="10.00"> const =0</text>
<polygon fill="#666666" stroke="#666666" points="325.5,-714 325.5,-714 499.5,-714 499.5,-714 325.5,-714"/>
<polygon fill="#666666" stroke="#666666" points="325.5,-614 325.5,-614 337.5,-614 337.5,-614 325.5,-614"/>
<polygon fill="#666666" stroke="#666666" points="337.5,-614 337.5,-614 499.5,-614 499.5,-614 337.5,-614"/>
<polygon fill="none" stroke="#666666" points="325.5,-460 325.5,-732 499.5,-732 499.5,-460 325.5,-460"/>
</a>
</g>
</g>
<!-- Node2 -->
<g id="Node000002" class="node">
<title>Node2</title>
<g id="a_Node000002"><a xlink:href="class_g_buffer_layout_subsystem.html" target="_top" xlink:title="The GBuffer Layout Subsystem handles drawing a scene and storing the resulting geometry data (depth,...">
<polygon fill="white" stroke="none" points="201,-424 0,-424 0,-204 201,-204 201,-424"/>
<text text-anchor="start" x="45" y="-410.5" font-family="Helvetica,sans-Serif" font-size="10.00">GBufferLayoutSubsystem</text>
<text text-anchor="start" x="4.38" y="-394.5" font-family="Helvetica,sans-Serif" font-size="10.00">#</text>
<text text-anchor="start" x="14" y="-394.5" font-family="Helvetica,sans-Serif" font-size="10.00">GBufferLayoutFrameInfo</text>
<text text-anchor="start" x="14" y="-382.5" font-family="Helvetica,sans-Serif" font-size="10.00"> m_currentFrameInfo</text>
<text text-anchor="start" x="4" y="-366.5" font-family="Helvetica,sans-Serif" font-size="10.00">+</text>
<text text-anchor="start" x="14" y="-366.5" font-family="Helvetica,sans-Serif" font-size="10.00">GBufferLayoutSubsystem</text>
<text text-anchor="start" x="14" y="-354.5" font-family="Helvetica,sans-Serif" font-size="10.00">(hri::RenderContext &amp;ctx,</text>
<text text-anchor="start" x="14" y="-342.5" font-family="Helvetica,sans-Serif" font-size="10.00"> hri::ShaderDatabase &amp;shaderDB,</text>
<text text-anchor="start" x="14" y="-330.5" font-family="Helvetica,sans-Serif" font-size="10.00"> VkRenderPass renderPass, VkDescriptor</text>
<text text-anchor="start" x="14" y="-318.5" font-family="Helvetica,sans-Serif" font-size="10.00">SetLayout sceneDataSetLayout)</text>
<text text-anchor="start" x="4" y="-302.5" font-family="Helvetica,sans-Serif" font-size="10.00">+</text>
<text text-anchor="start" x="14" y="-302.5" font-family="Helvetica,sans-Serif" font-size="10.00">virtual ~GBufferLayoutSubsystem</text>
<text text-anchor="start" x="14" y="-290.5" font-family="Helvetica,sans-Serif" font-size="10.00">()=default</text>
<text text-anchor="start" x="4" y="-274.5" font-family="Helvetica,sans-Serif" font-size="10.00">+</text>
<text text-anchor="start" x="14" y="-274.5" font-family="Helvetica,sans-Serif" font-size="10.00">virtual void record</text>
<text text-anchor="start" x="14" y="-262.5" font-family="Helvetica,sans-Serif" font-size="10.00">(hri::ActiveFrame &amp;frame)</text>
<text text-anchor="start" x="14" y="-250.5" font-family="Helvetica,sans-Serif" font-size="10.00"> const override</text>
<text text-anchor="start" x="4" y="-234.5" font-family="Helvetica,sans-Serif" font-size="10.00">+</text>
<text text-anchor="start" x="14" y="-234.5" font-family="Helvetica,sans-Serif" font-size="10.00">void updateFrameInfo</text>
<text text-anchor="start" x="14" y="-222.5" font-family="Helvetica,sans-Serif" font-size="10.00">(const GBufferLayoutFrameInfo</text>
<text text-anchor="start" x="14" y="-210.5" font-family="Helvetica,sans-Serif" font-size="10.00"> &amp;frameInfo)</text>
<polygon fill="#666666" stroke="#666666" points="0,-406 0,-406 201,-406 201,-406 0,-406"/>
<polygon fill="#666666" stroke="#666666" points="0,-378 0,-378 12,-378 12,-378 0,-378"/>
<polygon fill="#666666" stroke="#666666" points="12,-378 12,-378 201,-378 201,-378 12,-378"/>
<polygon fill="none" stroke="#666666" points="0,-204 0,-424 201,-424 201,-204 0,-204"/>
</a>
</g>
</g>
<!-- Node1&#45;&gt;Node2 -->
<g id="edge1_Node000001_Node000002" class="edge">
<title>Node1&#45;&gt;Node2</title>
<g id="a_edge1_Node000001_Node000002"><a xlink:title=" ">
<path fill="none" stroke="#63b8ff" d="M317.12,-516.88C282.98,-488.24 244.54,-455.19 210.5,-424 207.33,-421.09 204.12,-418.13 200.9,-415.11"/>
<polygon fill="none" stroke="#63b8ff" points="314.63,-519.36 324.55,-523.1 319.12,-513.99 314.63,-519.36"/>
</a>
</g>
</g>
<!-- Node3 -->
<g id="Node000003" class="node">
<title>Node3</title>
<g id="a_Node000003"><a xlink:href="class_i_ray_tracing_sub_system.html" target="_top" xlink:title=" ">
<polygon fill="white" stroke="none" points="397.5,-414 219.5,-414 219.5,-214 397.5,-214 397.5,-414"/>
<text text-anchor="start" x="257.5" y="-400.5" font-family="Helvetica,sans-Serif" font-size="10.00">IRayTracingSubSystem</text>
<text text-anchor="start" x="223.88" y="-384.5" font-family="Helvetica,sans-Serif" font-size="10.00">#</text>
<text text-anchor="start" x="233.5" y="-384.5" font-family="Helvetica,sans-Serif" font-size="10.00">raytracing::RayTracingContext</text>
<text text-anchor="start" x="233.5" y="-372.5" font-family="Helvetica,sans-Serif" font-size="10.00"> &amp; m_rtCtx</text>
<text text-anchor="start" x="223.88" y="-356.5" font-family="Helvetica,sans-Serif" font-size="10.00">#</text>
<text text-anchor="start" x="233.5" y="-356.5" font-family="Helvetica,sans-Serif" font-size="10.00">std::unique_ptr&lt; raytracing</text>
<text text-anchor="start" x="233.5" y="-344.5" font-family="Helvetica,sans-Serif" font-size="10.00">::ShaderBindingTable &gt; m_SBT</text>
<text text-anchor="start" x="223.88" y="-328.5" font-family="Helvetica,sans-Serif" font-size="10.00">#</text>
<text text-anchor="start" x="233.5" y="-328.5" font-family="Helvetica,sans-Serif" font-size="10.00">RayTracingFrameInfo</text>
<text text-anchor="start" x="233.5" y="-316.5" font-family="Helvetica,sans-Serif" font-size="10.00"> m_currentFrameInfo</text>
<text text-anchor="start" x="223.5" y="-300.5" font-family="Helvetica,sans-Serif" font-size="10.00">+</text>
<text text-anchor="start" x="233.5" y="-300.5" font-family="Helvetica,sans-Serif" font-size="10.00">IRayTracingSubSystem</text>
<text text-anchor="start" x="233.5" y="-288.5" font-family="Helvetica,sans-Serif" font-size="10.00">(raytracing::RayTracingContext &amp;ctx)</text>
<text text-anchor="start" x="223.5" y="-272.5" font-family="Helvetica,sans-Serif" font-size="10.00">+</text>
<text text-anchor="start" x="233.5" y="-272.5" font-family="Helvetica,sans-Serif" font-size="10.00">virtual ~IRayTracingSubSystem</text>
<text text-anchor="start" x="233.5" y="-260.5" font-family="Helvetica,sans-Serif" font-size="10.00">()=default</text>
<text text-anchor="start" x="223.5" y="-244.5" font-family="Helvetica,sans-Serif" font-size="10.00">+</text>
<text text-anchor="start" x="233.5" y="-244.5" font-family="Helvetica,sans-Serif" font-size="10.00">void updateFrameInfo</text>
<text text-anchor="start" x="233.5" y="-232.5" font-family="Helvetica,sans-Serif" font-size="10.00">(const RayTracingFrameInfo</text>
<text text-anchor="start" x="233.5" y="-220.5" font-family="Helvetica,sans-Serif" font-size="10.00"> &amp;frameInfo)</text>
<polygon fill="#666666" stroke="#666666" points="219.5,-396 219.5,-396 397.5,-396 397.5,-396 219.5,-396"/>
<polygon fill="#666666" stroke="#666666" points="219.5,-312 219.5,-312 231.5,-312 231.5,-312 219.5,-312"/>
<polygon fill="#666666" stroke="#666666" points="231.5,-312 231.5,-312 397.5,-312 397.5,-312 231.5,-312"/>
<polygon fill="none" stroke="#666666" points="219.5,-214 219.5,-414 397.5,-414 397.5,-214 219.5,-214"/>
</a>
</g>
</g>
<!-- Node1&#45;&gt;Node3 -->
<g id="edge2_Node000001_Node000003" class="edge">
<title>Node1&#45;&gt;Node3</title>
<g id="a_edge2_Node000001_Node000003"><a xlink:title=" ">
<path fill="none" stroke="#63b8ff" d="M358.52,-449.66C354.01,-437.53 349.52,-425.44 345.19,-413.78"/>
<polygon fill="none" stroke="#63b8ff" points="355.19,-450.76 361.95,-458.91 361.75,-448.32 355.19,-450.76"/>
</a>
</g>
</g>
<!-- Node5 -->
<g id="Node000005" class="node">
<title>Node5</title>
<g id="a_Node000005"><a xlink:href="class_presentation_subsystem.html" target="_top" xlink:title="The Presentation Subsystem handles drawing offscreen render results to a swap image.">
<polygon fill="white" stroke="none" points="617,-424 416,-424 416,-204 617,-204 617,-424"/>
<text text-anchor="start" x="464.38" y="-410.5" font-family="Helvetica,sans-Serif" font-size="10.00">PresentationSubsystem</text>
<text text-anchor="start" x="420.38" y="-394.5" font-family="Helvetica,sans-Serif" font-size="10.00">#</text>
<text text-anchor="start" x="430" y="-394.5" font-family="Helvetica,sans-Serif" font-size="10.00">PresentFrameInfo m</text>
<text text-anchor="start" x="430" y="-382.5" font-family="Helvetica,sans-Serif" font-size="10.00">_currentFrameInfo</text>
<text text-anchor="start" x="420" y="-366.5" font-family="Helvetica,sans-Serif" font-size="10.00">+</text>
<text text-anchor="start" x="430" y="-366.5" font-family="Helvetica,sans-Serif" font-size="10.00">PresentationSubsystem</text>
<text text-anchor="start" x="430" y="-354.5" font-family="Helvetica,sans-Serif" font-size="10.00">(hri::RenderContext &amp;ctx,</text>
<text text-anchor="start" x="430" y="-342.5" font-family="Helvetica,sans-Serif" font-size="10.00"> hri::ShaderDatabase &amp;shaderDB,</text>
<text text-anchor="start" x="430" y="-330.5" font-family="Helvetica,sans-Serif" font-size="10.00"> VkRenderPass renderPass, VkDescriptor</text>
<text text-anchor="start" x="430" y="-318.5" font-family="Helvetica,sans-Serif" font-size="10.00">SetLayout presentInputSetLayout)</text>
<text text-anchor="start" x="420" y="-302.5" font-family="Helvetica,sans-Serif" font-size="10.00">+</text>
<text text-anchor="start" x="430" y="-302.5" font-family="Helvetica,sans-Serif" font-size="10.00">virtual ~PresentationSubsystem</text>
<text text-anchor="start" x="430" y="-290.5" font-family="Helvetica,sans-Serif" font-size="10.00">()=default</text>
<text text-anchor="start" x="420" y="-274.5" font-family="Helvetica,sans-Serif" font-size="10.00">+</text>
<text text-anchor="start" x="430" y="-274.5" font-family="Helvetica,sans-Serif" font-size="10.00">virtual void record</text>
<text text-anchor="start" x="430" y="-262.5" font-family="Helvetica,sans-Serif" font-size="10.00">(hri::ActiveFrame &amp;frame)</text>
<text text-anchor="start" x="430" y="-250.5" font-family="Helvetica,sans-Serif" font-size="10.00"> const override</text>
<text text-anchor="start" x="420" y="-234.5" font-family="Helvetica,sans-Serif" font-size="10.00">+</text>
<text text-anchor="start" x="430" y="-234.5" font-family="Helvetica,sans-Serif" font-size="10.00">void updateFrameInfo</text>
<text text-anchor="start" x="430" y="-222.5" font-family="Helvetica,sans-Serif" font-size="10.00">(const PresentFrameInfo</text>
<text text-anchor="start" x="430" y="-210.5" font-family="Helvetica,sans-Serif" font-size="10.00"> &amp;frameInfo)</text>
<polygon fill="#666666" stroke="#666666" points="416,-406 416,-406 617,-406 617,-406 416,-406"/>
<polygon fill="#666666" stroke="#666666" points="416,-378 416,-378 428,-378 428,-378 416,-378"/>
<polygon fill="#666666" stroke="#666666" points="428,-378 428,-378 617,-378 617,-378 428,-378"/>
<polygon fill="none" stroke="#666666" points="416,-204 416,-424 617,-424 617,-204 416,-204"/>
</a>
</g>
</g>
<!-- Node1&#45;&gt;Node5 -->
<g id="edge4_Node000001_Node000005" class="edge">
<title>Node1&#45;&gt;Node5</title>
<g id="a_edge4_Node000001_Node000005"><a xlink:title=" ">
<path fill="none" stroke="#63b8ff" d="M466.45,-449.76C469.67,-441.09 472.87,-432.45 476.02,-423.97"/>
<polygon fill="none" stroke="#63b8ff" points="463.25,-448.32 463.05,-458.91 469.81,-450.76 463.25,-448.32"/>
</a>
</g>
</g>
<!-- Node6 -->
<g id="Node000006" class="node">
<title>Node6</title>
<g id="a_Node000006"><a xlink:href="class_u_i_subsystem.html" target="_top" xlink:title="The UI Subsystem handles drawing an UI overlay to the swap render pass.">
<polygon fill="white" stroke="none" points="787.5,-386 635.5,-386 635.5,-242 787.5,-242 787.5,-386"/>
<text text-anchor="start" x="682.25" y="-372.5" font-family="Helvetica,sans-Serif" font-size="10.00">UISubsystem</text>
<text text-anchor="start" x="710" y="-356.5" font-family="Helvetica,sans-Serif" font-size="10.00"> </text>
<text text-anchor="start" x="639.5" y="-340.5" font-family="Helvetica,sans-Serif" font-size="10.00">+</text>
<text text-anchor="start" x="649.5" y="-340.5" font-family="Helvetica,sans-Serif" font-size="10.00">UISubsystem(hri::Render</text>
<text text-anchor="start" x="649.5" y="-328.5" font-family="Helvetica,sans-Serif" font-size="10.00">Context &amp;ctx, VkRenderPass</text>
<text text-anchor="start" x="649.5" y="-316.5" font-family="Helvetica,sans-Serif" font-size="10.00"> renderPass, VkDescriptorPool</text>
<text text-anchor="start" x="649.5" y="-304.5" font-family="Helvetica,sans-Serif" font-size="10.00"> uiPool)</text>
<text text-anchor="start" x="639.5" y="-288.5" font-family="Helvetica,sans-Serif" font-size="10.00">+</text>
<text text-anchor="start" x="649.5" y="-288.5" font-family="Helvetica,sans-Serif" font-size="10.00">virtual ~UISubsystem()</text>
<text text-anchor="start" x="639.5" y="-272.5" font-family="Helvetica,sans-Serif" font-size="10.00">+</text>
<text text-anchor="start" x="649.5" y="-272.5" font-family="Helvetica,sans-Serif" font-size="10.00">virtual void record</text>
<text text-anchor="start" x="649.5" y="-260.5" font-family="Helvetica,sans-Serif" font-size="10.00">(hri::ActiveFrame &amp;frame)</text>
<text text-anchor="start" x="649.5" y="-248.5" font-family="Helvetica,sans-Serif" font-size="10.00"> const override</text>
<polygon fill="#666666" stroke="#666666" points="635.5,-368 635.5,-368 787.5,-368 787.5,-368 635.5,-368"/>
<polygon fill="#666666" stroke="#666666" points="635.5,-352 635.5,-352 787.5,-352 787.5,-352 635.5,-352"/>
<polygon fill="none" stroke="#666666" points="635.5,-242 635.5,-386 787.5,-386 787.5,-242 635.5,-242"/>
</a>
</g>
</g>
<!-- Node1&#45;&gt;Node6 -->
<g id="edge5_Node000001_Node000006" class="edge">
<title>Node1&#45;&gt;Node6</title>
<g id="a_edge5_Node000001_Node000006"><a xlink:title=" ">
<path fill="none" stroke="#63b8ff" d="M508.58,-525.94C546.98,-496.42 590.52,-460.41 626.5,-424 638.05,-412.31 649.51,-399.07 660.1,-385.95"/>
<polygon fill="none" stroke="#63b8ff" points="506.48,-523.15 500.65,-532 510.73,-528.71 506.48,-523.15"/>
</a>
</g>
</g>
<!-- Node4 -->
<g id="Node000004" class="node">
<title>Node4</title>
<g id="a_Node000004"><a xlink:href="class_hybrid_ray_tracing_subsystem.html" target="_top" xlink:title=" ">
<polygon fill="white" stroke="none" points="417.5,-168 199.5,-168 199.5,0 417.5,0 417.5,-168"/>
<text text-anchor="start" x="245.5" y="-154.5" font-family="Helvetica,sans-Serif" font-size="10.00">HybridRayTracingSubsystem</text>
<text text-anchor="start" x="307" y="-138.5" font-family="Helvetica,sans-Serif" font-size="10.00"> </text>
<text text-anchor="start" x="203.5" y="-122.5" font-family="Helvetica,sans-Serif" font-size="10.00">+</text>
<text text-anchor="start" x="213.5" y="-122.5" font-family="Helvetica,sans-Serif" font-size="10.00">HybridRayTracingSubsystem</text>
<text text-anchor="start" x="213.5" y="-110.5" font-family="Helvetica,sans-Serif" font-size="10.00">(raytracing::RayTracingContext</text>
<text text-anchor="start" x="213.5" y="-98.5" font-family="Helvetica,sans-Serif" font-size="10.00"> &amp;ctx, hri::ShaderDatabase &amp;shaderDB,</text>
<text text-anchor="start" x="213.5" y="-86.5" font-family="Helvetica,sans-Serif" font-size="10.00"> VkDescriptorSetLayout sceneDataSetLayout,</text>
<text text-anchor="start" x="213.5" y="-74.5" font-family="Helvetica,sans-Serif" font-size="10.00"> VkDescriptorSetLayout rtSetLayout)</text>
<text text-anchor="start" x="203.5" y="-58.5" font-family="Helvetica,sans-Serif" font-size="10.00">+</text>
<text text-anchor="start" x="213.5" y="-58.5" font-family="Helvetica,sans-Serif" font-size="10.00">virtual ~HybridRayTracing</text>
<text text-anchor="start" x="213.5" y="-46.5" font-family="Helvetica,sans-Serif" font-size="10.00">Subsystem()=default</text>
<text text-anchor="start" x="203.5" y="-30.5" font-family="Helvetica,sans-Serif" font-size="10.00">+</text>
<text text-anchor="start" x="213.5" y="-30.5" font-family="Helvetica,sans-Serif" font-size="10.00">virtual void record</text>
<text text-anchor="start" x="213.5" y="-18.5" font-family="Helvetica,sans-Serif" font-size="10.00">(hri::ActiveFrame &amp;frame)</text>
<text text-anchor="start" x="213.5" y="-6.5" font-family="Helvetica,sans-Serif" font-size="10.00"> const override</text>
<polygon fill="#666666" stroke="#666666" points="199.5,-150 199.5,-150 417.5,-150 417.5,-150 199.5,-150"/>
<polygon fill="#666666" stroke="#666666" points="199.5,-134 199.5,-134 417.5,-134 417.5,-134 199.5,-134"/>
<polygon fill="none" stroke="#666666" points="199.5,0 199.5,-168 417.5,-168 417.5,0 199.5,0"/>
</a>
</g>
</g>
<!-- Node3&#45;&gt;Node4 -->
<g id="edge3_Node000003_Node000004" class="edge">
<title>Node3&#45;&gt;Node4</title>
<g id="a_edge3_Node000003_Node000004"><a xlink:title=" ">
<path fill="none" stroke="#63b8ff" d="M308.5,-202.99C308.5,-191.14 308.5,-179.22 308.5,-167.77"/>
<polygon fill="none" stroke="#63b8ff" points="305,-202.81 308.5,-212.81 312,-202.81 305,-202.81"/>
</a>
</g>
</g>
</g>
</svg>
