<?xml version="1.0" encoding="UTF-8" standalone="no"?>
<!DOCTYPE svg PUBLIC "-//W3C//DTD SVG 1.1//EN"
 "http://www.w3.org/Graphics/SVG/1.1/DTD/svg11.dtd">
<!-- Generated by graphviz version 10.0.1 (20240210.2158)
 -->
<!-- Title: hri::IRenderPassResourceManagerBase::recreateResources Pages: 1 -->
<svg width="559pt" height="140pt"
 viewBox="0.00 0.00 559.25 140.00" xmlns="http://www.w3.org/2000/svg" xmlns:xlink="http://www.w3.org/1999/xlink">
<g id="graph0" class="graph" transform="scale(1 1) rotate(0) translate(4 136)">
<title>hri::IRenderPassResourceManagerBase::recreateResources</title>
<!-- Node1 -->
<g id="Node000001" class="node">
<title>Node1</title>
<g id="a_Node000001"><a xlink:title="Recreate resources.">
<polygon fill="#999999" stroke="#666666" points="163.75,-57 0,-57 0,-25 163.75,-25 163.75,-57"/>
<text text-anchor="start" x="8" y="-43.5" font-family="Helvetica,sans-Serif" font-size="10.00">hri::IRenderPassResource</text>
<text text-anchor="middle" x="81.88" y="-31.5" font-family="Helvetica,sans-Serif" font-size="10.00">ManagerBase::recreateResources</text>
</a>
</g>
</g>
<!-- Node2 -->
<g id="Node000002" class="node">
<title>Node2</title>
<g id="a_Node000002"><a xlink:href="classhri_1_1_i_render_pass_resource_manager_base.html#a4391328fd9a0316ede758d338bee9fea" target="_top" xlink:title="Create resources.">
<polygon fill="white" stroke="#666666" points="357.88,-82 202.38,-82 202.38,-50 357.88,-50 357.88,-82"/>
<text text-anchor="start" x="210.38" y="-68.5" font-family="Helvetica,sans-Serif" font-size="10.00">hri::IRenderPassResource</text>
<text text-anchor="middle" x="280.12" y="-56.5" font-family="Helvetica,sans-Serif" font-size="10.00">ManagerBase::createResources</text>
</a>
</g>
</g>
<!-- Node1&#45;&gt;Node2 -->
<g id="edge1_Node000001_Node000002" class="edge">
<title>Node1&#45;&gt;Node2</title>
<g id="a_edge1_Node000001_Node000002"><a xlink:title=" ">
<path fill="none" stroke="#63b8ff" d="M164.11,-51.35C172.94,-52.47 181.95,-53.62 190.85,-54.75"/>
<polygon fill="#63b8ff" stroke="#63b8ff" points="190.18,-58.2 200.54,-55.99 191.07,-51.25 190.18,-58.2"/>
</a>
</g>
</g>
<!-- Node6 -->
<g id="Node000006" class="node">
<title>Node6</title>
<g id="a_Node000006"><a xlink:href="classhri_1_1_i_render_pass_resource_manager_base.html#a30f0100697124c38b641948896456521" target="_top" xlink:title="Destroy resources.">
<polygon fill="white" stroke="#666666" points="360.5,-32 199.75,-32 199.75,0 360.5,0 360.5,-32"/>
<text text-anchor="start" x="207.75" y="-18.5" font-family="Helvetica,sans-Serif" font-size="10.00">hri::IRenderPassResource</text>
<text text-anchor="middle" x="280.12" y="-6.5" font-family="Helvetica,sans-Serif" font-size="10.00">ManagerBase::destroyResources</text>
</a>
</g>
</g>
<!-- Node1&#45;&gt;Node6 -->
<g id="edge5_Node000001_Node000006" class="edge">
<title>Node1&#45;&gt;Node6</title>
<g id="a_edge5_Node000001_Node000006"><a xlink:title=" ">
<path fill="none" stroke="#63b8ff" d="M164.11,-30.65C172.07,-29.64 180.18,-28.6 188.22,-27.58"/>
<polygon fill="#63b8ff" stroke="#63b8ff" points="188.55,-31.07 198.03,-26.33 187.66,-24.12 188.55,-31.07"/>
</a>
</g>
</g>
<!-- Node3 -->
<g id="Node000003" class="node">
<title>Node3</title>
<g id="a_Node000003"><a xlink:href="classhri_1_1_image_resource.html#a56ffb48c12007c708401a7cf6c7f9c51" target="_top" xlink:title="Get the default component mapping for images.">
<polygon fill="white" stroke="#666666" points="543,-132 404.75,-132 404.75,-100 543,-100 543,-132"/>
<text text-anchor="start" x="412.75" y="-118.5" font-family="Helvetica,sans-Serif" font-size="10.00">hri::ImageResource</text>
<text text-anchor="middle" x="473.88" y="-106.5" font-family="Helvetica,sans-Serif" font-size="10.00">::DefaultComponentMapping</text>
</a>
</g>
</g>
<!-- Node2&#45;&gt;Node3 -->
<g id="edge2_Node000002_Node000003" class="edge">
<title>Node2&#45;&gt;Node3</title>
<g id="a_edge2_Node000002_Node000003"><a xlink:title=" ">
<path fill="none" stroke="#63b8ff" d="M344.18,-82.44C361.62,-86.99 380.72,-91.97 398.73,-96.67"/>
<polygon fill="#63b8ff" stroke="#63b8ff" points="397.76,-100.03 408.32,-99.17 399.53,-93.26 397.76,-100.03"/>
</a>
</g>
</g>
<!-- Node4 -->
<g id="Node000004" class="node">
<title>Node4</title>
<g id="a_Node000004"><a xlink:href="classhri_1_1_i_render_pass_resource_manager_base.html#aabea2269ebd554cf3d75885a4e4dec87" target="_top" xlink:title="Get the render extent configured for this resouce manager.">
<polygon fill="white" stroke="#666666" points="551.25,-82 396.5,-82 396.5,-50 551.25,-50 551.25,-82"/>
<text text-anchor="start" x="404.5" y="-68.5" font-family="Helvetica,sans-Serif" font-size="10.00">hri::IRenderPassResource</text>
<text text-anchor="middle" x="473.88" y="-56.5" font-family="Helvetica,sans-Serif" font-size="10.00">ManagerBase::getRenderExtent</text>
</a>
</g>
</g>
<!-- Node2&#45;&gt;Node4 -->
<g id="edge3_Node000002_Node000004" class="edge">
<title>Node2&#45;&gt;Node4</title>
<g id="a_edge3_Node000002_Node000004"><a xlink:title=" ">
<path fill="none" stroke="#63b8ff" d="M358.29,-66C366.97,-66 375.87,-66 384.68,-66"/>
<polygon fill="#63b8ff" stroke="#63b8ff" points="384.67,-69.5 394.67,-66 384.67,-62.5 384.67,-69.5"/>
</a>
</g>
</g>
<!-- Node5 -->
<g id="Node000005" class="node">
<title>Node5</title>
<g id="a_Node000005"><a xlink:href="classhri_1_1_image_resource.html#acb45dad4bfb49d9e739ed8d5d5a25cf0" target="_top" xlink:title="Create an image subresource range.">
<polygon fill="white" stroke="#666666" points="526.12,-32 421.62,-32 421.62,0 526.12,0 526.12,-32"/>
<text text-anchor="start" x="429.62" y="-18.5" font-family="Helvetica,sans-Serif" font-size="10.00">hri::ImageResource</text>
<text text-anchor="middle" x="473.88" y="-6.5" font-family="Helvetica,sans-Serif" font-size="10.00">::SubresourceRange</text>
</a>
</g>
</g>
<!-- Node2&#45;&gt;Node5 -->
<g id="edge4_Node000002_Node000005" class="edge">
<title>Node2&#45;&gt;Node5</title>
<g id="a_edge4_Node000002_Node000005"><a xlink:title=" ">
<path fill="none" stroke="#63b8ff" d="M344.18,-49.56C365.46,-44.01 389.2,-37.82 410.44,-32.28"/>
<polygon fill="#63b8ff" stroke="#63b8ff" points="411.04,-35.74 419.83,-29.83 409.27,-28.97 411.04,-35.74"/>
</a>
</g>
</g>
</g>
</svg>
