<?xml version="1.0" encoding="UTF-8" standalone="no"?>
<!DOCTYPE svg PUBLIC "-//W3C//DTD SVG 1.1//EN"
 "http://www.w3.org/Graphics/SVG/1.1/DTD/svg11.dtd">
<!-- Generated by graphviz version 10.0.1 (20240210.2158)
 -->
<!-- Title: UISubsystem Pages: 1 -->
<svg width="185pt" height="484pt"
 viewBox="0.00 0.00 185.00 484.00" xmlns="http://www.w3.org/2000/svg" xmlns:xlink="http://www.w3.org/1999/xlink">
<g id="graph0" class="graph" transform="scale(1 1) rotate(0) translate(4 480)">
<title>UISubsystem</title>
<!-- Node1 -->
<g id="Node000001" class="node">
<title>Node1</title>
<g id="a_Node000001"><a xlink:title=" ">
<polygon fill="#999999" stroke="none" points="177,-156 0,-156 0,0 177,0 177,-156"/>
<text text-anchor="start" x="59.25" y="-142.5" font-family="Helvetica,sans-Serif" font-size="10.00">UISubsystem</text>
<text text-anchor="start" x="87" y="-126.5" font-family="Helvetica,sans-Serif" font-size="10.00"> </text>
<text text-anchor="start" x="4" y="-110.5" font-family="Helvetica,sans-Serif" font-size="10.00">+</text>
<text text-anchor="start" x="14" y="-110.5" font-family="Helvetica,sans-Serif" font-size="10.00">UISubsystem(hri::Render</text>
<text text-anchor="start" x="14" y="-98.5" font-family="Helvetica,sans-Serif" font-size="10.00">Context *ctx, hri::Descriptor</text>
<text text-anchor="start" x="14" y="-86.5" font-family="Helvetica,sans-Serif" font-size="10.00">SetAllocator *descriptorSetAllocator,</text>
<text text-anchor="start" x="14" y="-74.5" font-family="Helvetica,sans-Serif" font-size="10.00"> hri::ShaderDatabase *shaderDB,</text>
<text text-anchor="start" x="14" y="-62.5" font-family="Helvetica,sans-Serif" font-size="10.00"> VkRenderPass renderPass)</text>
<text text-anchor="start" x="4" y="-46.5" font-family="Helvetica,sans-Serif" font-size="10.00">+</text>
<text text-anchor="start" x="14" y="-46.5" font-family="Helvetica,sans-Serif" font-size="10.00">virtual ~UISubsystem()</text>
<text text-anchor="start" x="4" y="-30.5" font-family="Helvetica,sans-Serif" font-size="10.00">+</text>
<text text-anchor="start" x="14" y="-30.5" font-family="Helvetica,sans-Serif" font-size="10.00">virtual void record</text>
<text text-anchor="start" x="14" y="-18.5" font-family="Helvetica,sans-Serif" font-size="10.00">(hri::ActiveFrame &amp;frame)</text>
<text text-anchor="start" x="14" y="-6.5" font-family="Helvetica,sans-Serif" font-size="10.00"> const override</text>
<polygon fill="#666666" stroke="#666666" points="0,-138 0,-138 177,-138 177,-138 0,-138"/>
<polygon fill="#666666" stroke="#666666" points="0,-122 0,-122 177,-122 177,-122 0,-122"/>
<polygon fill="none" stroke="#666666" points="0,0 0,-156 177,-156 177,0 0,0"/>
</a>
</g>
</g>
<!-- Node2 -->
<g id="Node000002" class="node">
<title>Node2</title>
<g id="a_Node000002"><a xlink:href="classhri_1_1_i_render_subsystem.html" target="_top" xlink:title="A Render Subsystem manages a render pipeline, layout, and subsystem descriptors. A Render Subsystem b...">
<polygon fill="white" stroke="none" points="176,-476 1,-476 1,-192 176,-192 176,-476"/>
<text text-anchor="start" x="39" y="-462.5" font-family="Helvetica,sans-Serif" font-size="10.00">hri::IRenderSubsystem</text>
<text text-anchor="start" x="5.38" y="-446.5" font-family="Helvetica,sans-Serif" font-size="10.00">#</text>
<text text-anchor="start" x="15" y="-446.5" font-family="Helvetica,sans-Serif" font-size="10.00">RenderContext * m_pCtx</text>
<text text-anchor="start" x="5.38" y="-430.5" font-family="Helvetica,sans-Serif" font-size="10.00">#</text>
<text text-anchor="start" x="15" y="-430.5" font-family="Helvetica,sans-Serif" font-size="10.00">DescriptorSetAllocator</text>
<text text-anchor="start" x="15" y="-418.5" font-family="Helvetica,sans-Serif" font-size="10.00"> * m_pDescriptorSetAllocator</text>
<text text-anchor="start" x="5.38" y="-402.5" font-family="Helvetica,sans-Serif" font-size="10.00">#</text>
<text text-anchor="start" x="15" y="-402.5" font-family="Helvetica,sans-Serif" font-size="10.00">VkPipelineLayout m</text>
<text text-anchor="start" x="15" y="-390.5" font-family="Helvetica,sans-Serif" font-size="10.00">_layout</text>
<text text-anchor="start" x="5.38" y="-374.5" font-family="Helvetica,sans-Serif" font-size="10.00">#</text>
<text text-anchor="start" x="15" y="-374.5" font-family="Helvetica,sans-Serif" font-size="10.00">PipelineStateObject</text>
<text text-anchor="start" x="15" y="-362.5" font-family="Helvetica,sans-Serif" font-size="10.00"> * m_pPSO</text>
<text text-anchor="start" x="5" y="-346.5" font-family="Helvetica,sans-Serif" font-size="10.00">+</text>
<text text-anchor="start" x="15" y="-346.5" font-family="Helvetica,sans-Serif" font-size="10.00">IRenderSubsystem(Render</text>
<text text-anchor="start" x="15" y="-334.5" font-family="Helvetica,sans-Serif" font-size="10.00">Context *ctx, DescriptorSetAllocator</text>
<text text-anchor="start" x="15" y="-322.5" font-family="Helvetica,sans-Serif" font-size="10.00"> *descriptorSetAllocator)</text>
<text text-anchor="start" x="5" y="-306.5" font-family="Helvetica,sans-Serif" font-size="10.00">+</text>
<text text-anchor="start" x="15" y="-306.5" font-family="Helvetica,sans-Serif" font-size="10.00">virtual ~IRenderSubsystem()</text>
<text text-anchor="start" x="5" y="-290.5" font-family="Helvetica,sans-Serif" font-size="10.00">+</text>
<text text-anchor="start" x="15" y="-290.5" font-family="Helvetica,sans-Serif" font-size="10.00">IRenderSubsystem(const</text>
<text text-anchor="start" x="15" y="-278.5" font-family="Helvetica,sans-Serif" font-size="10.00"> IRenderSubsystem &amp;)=delete</text>
<text text-anchor="start" x="5" y="-262.5" font-family="Helvetica,sans-Serif" font-size="10.00">+</text>
<text text-anchor="start" x="15" y="-262.5" font-family="Helvetica,sans-Serif" font-size="10.00">IRenderSubsystem &amp;</text>
<text text-anchor="start" x="15" y="-250.5" font-family="Helvetica,sans-Serif" font-size="10.00"> operator=(const IRenderSubsystem</text>
<text text-anchor="start" x="15" y="-238.5" font-family="Helvetica,sans-Serif" font-size="10.00"> &amp;)=delete</text>
<text text-anchor="start" x="5" y="-222.5" font-family="Helvetica,sans-Serif" font-size="10.00">+</text>
<text text-anchor="start" x="15" y="-222.5" font-family="Helvetica,sans-Serif" font-size="10.00">virtual void record</text>
<text text-anchor="start" x="15" y="-210.5" font-family="Helvetica,sans-Serif" font-size="10.00">(ActiveFrame &amp;frame)</text>
<text text-anchor="start" x="15" y="-198.5" font-family="Helvetica,sans-Serif" font-size="10.00"> const =0</text>
<polygon fill="#666666" stroke="#666666" points="1,-458 1,-458 176,-458 176,-458 1,-458"/>
<polygon fill="#666666" stroke="#666666" points="1,-358 1,-358 13,-358 13,-358 1,-358"/>
<polygon fill="#666666" stroke="#666666" points="13,-358 13,-358 176,-358 176,-358 13,-358"/>
<polygon fill="none" stroke="#666666" points="1,-192 1,-476 176,-476 176,-192 1,-192"/>
</a>
</g>
</g>
<!-- Node2&#45;&gt;Node1 -->
<g id="edge1_Node000001_Node000002" class="edge">
<title>Node2&#45;&gt;Node1</title>
<g id="a_edge1_Node000001_Node000002"><a xlink:title=" ">
<path fill="none" stroke="#63b8ff" d="M88.5,-180.92C88.5,-172.35 88.5,-163.94 88.5,-155.86"/>
<polygon fill="none" stroke="#63b8ff" points="85,-180.74 88.5,-190.74 92,-180.74 85,-180.74"/>
</a>
</g>
</g>
</g>
</svg>
