<?xml version="1.0" encoding="UTF-8" standalone="no"?>
<!DOCTYPE svg PUBLIC "-//W3C//DTD SVG 1.1//EN"
 "http://www.w3.org/Graphics/SVG/1.1/DTD/svg11.dtd">
<!-- Generated by graphviz version 10.0.1 (20240210.2158)
 -->
<!-- Title: hri::SwapchainPassResourceManager Pages: 1 -->
<svg width="257pt" height="1497pt"
 viewBox="0.00 0.00 257.00 1497.00" xmlns="http://www.w3.org/2000/svg" xmlns:xlink="http://www.w3.org/1999/xlink">
<g id="graph0" class="graph" transform="scale(1 1) rotate(0) translate(4 1493)">
<title>hri::SwapchainPassResourceManager</title>
<!-- Node1 -->
<g id="Node000001" class="node">
<title>Node1</title>
<g id="a_Node000001"><a xlink:title="The Swapchain pass resource manager is a special type of resource manager that handles rendering to s...">
<polygon fill="#999999" stroke="none" points="249,-224 0,-224 0,0 249,0 249,-224"/>
<text text-anchor="start" x="60.75" y="-210.5" font-family="Helvetica,sans-Serif" font-size="10.00">hri::SwapchainPassResource</text>
<text text-anchor="start" x="105.75" y="-198.5" font-family="Helvetica,sans-Serif" font-size="10.00">Manager</text>
<text text-anchor="start" x="123" y="-182.5" font-family="Helvetica,sans-Serif" font-size="10.00"> </text>
<text text-anchor="start" x="4" y="-166.5" font-family="Helvetica,sans-Serif" font-size="10.00">+</text>
<text text-anchor="start" x="14" y="-166.5" font-family="Helvetica,sans-Serif" font-size="10.00">SwapchainPassResourceManager</text>
<text text-anchor="start" x="14" y="-154.5" font-family="Helvetica,sans-Serif" font-size="10.00">(RenderContext *ctx, VkRenderPass</text>
<text text-anchor="start" x="14" y="-142.5" font-family="Helvetica,sans-Serif" font-size="10.00"> renderPass, const std::vector</text>
<text text-anchor="start" x="14" y="-130.5" font-family="Helvetica,sans-Serif" font-size="10.00">&lt; RenderAttachmentConfig &gt; &amp;attachmentConfigs={})</text>
<text text-anchor="start" x="4" y="-114.5" font-family="Helvetica,sans-Serif" font-size="10.00">+</text>
<text text-anchor="start" x="14" y="-114.5" font-family="Helvetica,sans-Serif" font-size="10.00">virtual ~SwapchainPassResource</text>
<text text-anchor="start" x="14" y="-102.5" font-family="Helvetica,sans-Serif" font-size="10.00">Manager()</text>
<text text-anchor="start" x="4" y="-86.5" font-family="Helvetica,sans-Serif" font-size="10.00">+</text>
<text text-anchor="start" x="14" y="-86.5" font-family="Helvetica,sans-Serif" font-size="10.00">virtual void beginRender</text>
<text text-anchor="start" x="14" y="-74.5" font-family="Helvetica,sans-Serif" font-size="10.00">Pass(ActiveFrame &amp;frame)</text>
<text text-anchor="start" x="14" y="-62.5" font-family="Helvetica,sans-Serif" font-size="10.00"> const override</text>
<text text-anchor="start" x="4.38" y="-46.5" font-family="Helvetica,sans-Serif" font-size="10.00">#</text>
<text text-anchor="start" x="14" y="-46.5" font-family="Helvetica,sans-Serif" font-size="10.00">virtual void createResources</text>
<text text-anchor="start" x="14" y="-34.5" font-family="Helvetica,sans-Serif" font-size="10.00">() override</text>
<text text-anchor="start" x="4.38" y="-18.5" font-family="Helvetica,sans-Serif" font-size="10.00">#</text>
<text text-anchor="start" x="14" y="-18.5" font-family="Helvetica,sans-Serif" font-size="10.00">virtual void destroyResources</text>
<text text-anchor="start" x="14" y="-6.5" font-family="Helvetica,sans-Serif" font-size="10.00">() override</text>
<polygon fill="#666666" stroke="#666666" points="0,-194 0,-194 249,-194 249,-194 0,-194"/>
<polygon fill="#666666" stroke="#666666" points="0,-178 0,-178 249,-178 249,-178 0,-178"/>
<polygon fill="none" stroke="#666666" points="0,0 0,-224 249,-224 249,0 0,0"/>
</a>
</g>
</g>
<!-- Node2 -->
<g id="Node000002" class="node">
<title>Node2</title>
<g id="a_Node000002"><a xlink:href="classhri_1_1_i_render_pass_resource_manager_base.html" target="_top" xlink:title="The Render Pass Resource Manager Base is used to create and recreate render pass resources....">
<polygon fill="white" stroke="none" points="221.5,-873 27.5,-873 27.5,-261 221.5,-261 221.5,-873"/>
<text text-anchor="start" x="67.88" y="-859.5" font-family="Helvetica,sans-Serif" font-size="10.00">hri::IRenderPassResource</text>
<text text-anchor="start" x="94.5" y="-847.5" font-family="Helvetica,sans-Serif" font-size="10.00">ManagerBase</text>
<text text-anchor="start" x="31.88" y="-831.5" font-family="Helvetica,sans-Serif" font-size="10.00">#</text>
<text text-anchor="start" x="41.5" y="-831.5" font-family="Helvetica,sans-Serif" font-size="10.00">VkRenderPass m_renderPass</text>
<text text-anchor="start" x="31.88" y="-815.5" font-family="Helvetica,sans-Serif" font-size="10.00">#</text>
<text text-anchor="start" x="41.5" y="-815.5" font-family="Helvetica,sans-Serif" font-size="10.00">VkExtent2D m_renderExtent</text>
<text text-anchor="start" x="31.88" y="-799.5" font-family="Helvetica,sans-Serif" font-size="10.00">#</text>
<text text-anchor="start" x="41.5" y="-799.5" font-family="Helvetica,sans-Serif" font-size="10.00">std::vector&lt; VkClearValue</text>
<text text-anchor="start" x="41.5" y="-787.5" font-family="Helvetica,sans-Serif" font-size="10.00"> &gt; m_clearValues</text>
<text text-anchor="start" x="31.88" y="-771.5" font-family="Helvetica,sans-Serif" font-size="10.00">#</text>
<text text-anchor="start" x="41.5" y="-771.5" font-family="Helvetica,sans-Serif" font-size="10.00">std::vector&lt; RenderAttachment</text>
<text text-anchor="start" x="41.5" y="-759.5" font-family="Helvetica,sans-Serif" font-size="10.00">Config &gt; m_attachmentConfigs</text>
<text text-anchor="start" x="31.88" y="-743.5" font-family="Helvetica,sans-Serif" font-size="10.00">#</text>
<text text-anchor="start" x="41.5" y="-743.5" font-family="Helvetica,sans-Serif" font-size="10.00">std::vector&lt; ImageResource</text>
<text text-anchor="start" x="41.5" y="-731.5" font-family="Helvetica,sans-Serif" font-size="10.00"> &gt; m_imageResources</text>
<text text-anchor="start" x="31.5" y="-715.5" font-family="Helvetica,sans-Serif" font-size="10.00">+</text>
<text text-anchor="start" x="41.5" y="-715.5" font-family="Helvetica,sans-Serif" font-size="10.00">IRenderPassResourceManager</text>
<text text-anchor="start" x="41.5" y="-703.5" font-family="Helvetica,sans-Serif" font-size="10.00">Base(RenderContext *ctx,</text>
<text text-anchor="start" x="41.5" y="-691.5" font-family="Helvetica,sans-Serif" font-size="10.00"> VkRenderPass renderPass,</text>
<text text-anchor="start" x="41.5" y="-679.5" font-family="Helvetica,sans-Serif" font-size="10.00"> const std::vector&lt; RenderAttachment</text>
<text text-anchor="start" x="41.5" y="-667.5" font-family="Helvetica,sans-Serif" font-size="10.00">Config &gt; &amp;attachmentConfigs)</text>
<text text-anchor="start" x="31.5" y="-651.5" font-family="Helvetica,sans-Serif" font-size="10.00">+</text>
<text text-anchor="start" x="41.5" y="-651.5" font-family="Helvetica,sans-Serif" font-size="10.00">virtual ~IRenderPassResource</text>
<text text-anchor="start" x="41.5" y="-639.5" font-family="Helvetica,sans-Serif" font-size="10.00">ManagerBase()</text>
<text text-anchor="start" x="31.5" y="-623.5" font-family="Helvetica,sans-Serif" font-size="10.00">+</text>
<text text-anchor="start" x="41.5" y="-623.5" font-family="Helvetica,sans-Serif" font-size="10.00">IRenderPassResourceManager</text>
<text text-anchor="start" x="41.5" y="-611.5" font-family="Helvetica,sans-Serif" font-size="10.00">Base(IRenderPassResourceManager</text>
<text text-anchor="start" x="41.5" y="-599.5" font-family="Helvetica,sans-Serif" font-size="10.00">Base &amp;)=delete</text>
<text text-anchor="start" x="31.5" y="-583.5" font-family="Helvetica,sans-Serif" font-size="10.00">+</text>
<text text-anchor="start" x="41.5" y="-583.5" font-family="Helvetica,sans-Serif" font-size="10.00">IRenderPassResourceManager</text>
<text text-anchor="start" x="41.5" y="-571.5" font-family="Helvetica,sans-Serif" font-size="10.00">Base &amp; operator=(IRenderPassResource</text>
<text text-anchor="start" x="41.5" y="-559.5" font-family="Helvetica,sans-Serif" font-size="10.00">ManagerBase &amp;)=delete</text>
<text text-anchor="start" x="31.5" y="-543.5" font-family="Helvetica,sans-Serif" font-size="10.00">+</text>
<text text-anchor="start" x="41.5" y="-543.5" font-family="Helvetica,sans-Serif" font-size="10.00">virtual void beginRender</text>
<text text-anchor="start" x="41.5" y="-531.5" font-family="Helvetica,sans-Serif" font-size="10.00">Pass(ActiveFrame &amp;frame)</text>
<text text-anchor="start" x="41.5" y="-519.5" font-family="Helvetica,sans-Serif" font-size="10.00"> const =0</text>
<text text-anchor="start" x="31.5" y="-503.5" font-family="Helvetica,sans-Serif" font-size="10.00">+</text>
<text text-anchor="start" x="41.5" y="-503.5" font-family="Helvetica,sans-Serif" font-size="10.00">virtual void endRenderPass</text>
<text text-anchor="start" x="41.5" y="-491.5" font-family="Helvetica,sans-Serif" font-size="10.00">(ActiveFrame &amp;frame) const</text>
<text text-anchor="start" x="31.5" y="-475.5" font-family="Helvetica,sans-Serif" font-size="10.00">+</text>
<text text-anchor="start" x="41.5" y="-475.5" font-family="Helvetica,sans-Serif" font-size="10.00">virtual void setClearValue</text>
<text text-anchor="start" x="41.5" y="-463.5" font-family="Helvetica,sans-Serif" font-size="10.00">(uint32_t attachmentIndex,</text>
<text text-anchor="start" x="41.5" y="-451.5" font-family="Helvetica,sans-Serif" font-size="10.00"> VkClearValue clearValue)</text>
<text text-anchor="start" x="31.5" y="-435.5" font-family="Helvetica,sans-Serif" font-size="10.00">+</text>
<text text-anchor="start" x="41.5" y="-435.5" font-family="Helvetica,sans-Serif" font-size="10.00">virtual VkRenderPass</text>
<text text-anchor="start" x="41.5" y="-423.5" font-family="Helvetica,sans-Serif" font-size="10.00"> renderPass() const</text>
<text text-anchor="start" x="31.5" y="-407.5" font-family="Helvetica,sans-Serif" font-size="10.00">+</text>
<text text-anchor="start" x="41.5" y="-407.5" font-family="Helvetica,sans-Serif" font-size="10.00">virtual ImageResource</text>
<text text-anchor="start" x="41.5" y="-395.5" font-family="Helvetica,sans-Serif" font-size="10.00"> getAttachmentResource</text>
<text text-anchor="start" x="41.5" y="-383.5" font-family="Helvetica,sans-Serif" font-size="10.00">(uint32_t attachmentIndex) const</text>
<text text-anchor="start" x="31.5" y="-367.5" font-family="Helvetica,sans-Serif" font-size="10.00">+</text>
<text text-anchor="start" x="41.5" y="-367.5" font-family="Helvetica,sans-Serif" font-size="10.00">virtual void recreateResources()</text>
<text text-anchor="start" x="31.88" y="-351.5" font-family="Helvetica,sans-Serif" font-size="10.00">#</text>
<text text-anchor="start" x="41.5" y="-351.5" font-family="Helvetica,sans-Serif" font-size="10.00">virtual void createResources()</text>
<text text-anchor="start" x="31.88" y="-335.5" font-family="Helvetica,sans-Serif" font-size="10.00">#</text>
<text text-anchor="start" x="41.5" y="-335.5" font-family="Helvetica,sans-Serif" font-size="10.00">virtual void destroyResources()</text>
<text text-anchor="start" x="31.88" y="-319.5" font-family="Helvetica,sans-Serif" font-size="10.00">#</text>
<text text-anchor="start" x="41.5" y="-319.5" font-family="Helvetica,sans-Serif" font-size="10.00">virtual std::vector</text>
<text text-anchor="start" x="41.5" y="-307.5" font-family="Helvetica,sans-Serif" font-size="10.00">&lt; VkImageView &gt; getImageResource</text>
<text text-anchor="start" x="41.5" y="-295.5" font-family="Helvetica,sans-Serif" font-size="10.00">Views()</text>
<text text-anchor="start" x="31.88" y="-279.5" font-family="Helvetica,sans-Serif" font-size="10.00">#</text>
<text text-anchor="start" x="41.5" y="-279.5" font-family="Helvetica,sans-Serif" font-size="10.00">virtual VkExtent2D</text>
<text text-anchor="start" x="41.5" y="-267.5" font-family="Helvetica,sans-Serif" font-size="10.00"> getRenderExtent() const</text>
<polygon fill="#666666" stroke="#666666" points="27.5,-843 27.5,-843 221.5,-843 221.5,-843 27.5,-843"/>
<polygon fill="#666666" stroke="#666666" points="27.5,-727 27.5,-727 39.5,-727 39.5,-727 27.5,-727"/>
<polygon fill="#666666" stroke="#666666" points="39.5,-727 39.5,-727 221.5,-727 221.5,-727 39.5,-727"/>
<polygon fill="none" stroke="#666666" points="27.5,-261 27.5,-873 221.5,-873 221.5,-261 27.5,-261"/>
</a>
</g>
</g>
<!-- Node2&#45;&gt;Node1 -->
<g id="edge1_Node000001_Node000002" class="edge">
<title>Node2&#45;&gt;Node1</title>
<g id="a_edge1_Node000001_Node000002"><a xlink:title=" ">
<path fill="none" stroke="#63b8ff" d="M124.5,-249.6C124.5,-240.67 124.5,-231.97 124.5,-223.56"/>
<polygon fill="none" stroke="#63b8ff" points="121,-249.5 124.5,-259.5 128,-249.5 121,-249.5"/>
</a>
</g>
</g>
<!-- Node3 -->
<g id="Node000003" class="node">
<title>Node3</title>
<g id="a_Node000003"><a xlink:href="classhri_1_1_render_context.html" target="_top" xlink:title="THe RenderContext manages the Vulkan instance, device, and swapchain state.">
<polygon fill="white" stroke="none" points="204.5,-1221 44.5,-1221 44.5,-921 204.5,-921 204.5,-1221"/>
<text text-anchor="start" x="84" y="-1207.5" font-family="Helvetica,sans-Serif" font-size="10.00">hri::RenderContext</text>
<text text-anchor="start" x="48.5" y="-1191.5" font-family="Helvetica,sans-Serif" font-size="10.00">+</text>
<text text-anchor="start" x="58.5" y="-1191.5" font-family="Helvetica,sans-Serif" font-size="10.00">vkb::Instance instance</text>
<text text-anchor="start" x="48.5" y="-1175.5" font-family="Helvetica,sans-Serif" font-size="10.00">+</text>
<text text-anchor="start" x="58.5" y="-1175.5" font-family="Helvetica,sans-Serif" font-size="10.00">VkSurfaceKHR surface</text>
<text text-anchor="start" x="48.5" y="-1159.5" font-family="Helvetica,sans-Serif" font-size="10.00">+</text>
<text text-anchor="start" x="58.5" y="-1159.5" font-family="Helvetica,sans-Serif" font-size="10.00">vkb::PhysicalDevice gpu</text>
<text text-anchor="start" x="48.5" y="-1143.5" font-family="Helvetica,sans-Serif" font-size="10.00">+</text>
<text text-anchor="start" x="58.5" y="-1143.5" font-family="Helvetica,sans-Serif" font-size="10.00">vkb::Device device</text>
<text text-anchor="start" x="48.5" y="-1127.5" font-family="Helvetica,sans-Serif" font-size="10.00">+</text>
<text text-anchor="start" x="58.5" y="-1127.5" font-family="Helvetica,sans-Serif" font-size="10.00">VmaAllocator allocator</text>
<text text-anchor="start" x="48.5" y="-1111.5" font-family="Helvetica,sans-Serif" font-size="10.00">+</text>
<text text-anchor="start" x="58.5" y="-1111.5" font-family="Helvetica,sans-Serif" font-size="10.00">vkb::Swapchain swapchain</text>
<text text-anchor="start" x="48.5" y="-1095.5" font-family="Helvetica,sans-Serif" font-size="10.00">+</text>
<text text-anchor="start" x="58.5" y="-1095.5" font-family="Helvetica,sans-Serif" font-size="10.00">RenderContext(RenderContext</text>
<text text-anchor="start" x="58.5" y="-1083.5" font-family="Helvetica,sans-Serif" font-size="10.00">CreateInfo createInfo)</text>
<text text-anchor="start" x="48.5" y="-1067.5" font-family="Helvetica,sans-Serif" font-size="10.00">+</text>
<text text-anchor="start" x="58.5" y="-1067.5" font-family="Helvetica,sans-Serif" font-size="10.00">virtual ~RenderContext()</text>
<text text-anchor="start" x="48.5" y="-1051.5" font-family="Helvetica,sans-Serif" font-size="10.00">+</text>
<text text-anchor="start" x="58.5" y="-1051.5" font-family="Helvetica,sans-Serif" font-size="10.00">RenderContext(const</text>
<text text-anchor="start" x="58.5" y="-1039.5" font-family="Helvetica,sans-Serif" font-size="10.00"> RenderContext &amp;)=delete</text>
<text text-anchor="start" x="48.5" y="-1023.5" font-family="Helvetica,sans-Serif" font-size="10.00">+</text>
<text text-anchor="start" x="58.5" y="-1023.5" font-family="Helvetica,sans-Serif" font-size="10.00">RenderContext &amp; operator</text>
<text text-anchor="start" x="58.5" y="-1011.5" font-family="Helvetica,sans-Serif" font-size="10.00">=(const RenderContext &amp;)</text>
<text text-anchor="start" x="58.5" y="-999.5" font-family="Helvetica,sans-Serif" font-size="10.00">=delete</text>
<text text-anchor="start" x="48.5" y="-983.5" font-family="Helvetica,sans-Serif" font-size="10.00">+</text>
<text text-anchor="start" x="58.5" y="-983.5" font-family="Helvetica,sans-Serif" font-size="10.00">void setVSyncMode(VSyncMode</text>
<text text-anchor="start" x="58.5" y="-971.5" font-family="Helvetica,sans-Serif" font-size="10.00"> vsyncMode)</text>
<text text-anchor="start" x="48.5" y="-955.5" font-family="Helvetica,sans-Serif" font-size="10.00">+</text>
<text text-anchor="start" x="58.5" y="-955.5" font-family="Helvetica,sans-Serif" font-size="10.00">void recreateSwapchain()</text>
<text text-anchor="start" x="48.5" y="-939.5" font-family="Helvetica,sans-Serif" font-size="10.00">+</text>
<text text-anchor="start" x="58.5" y="-939.5" font-family="Helvetica,sans-Serif" font-size="10.00">VkFormat swapFormat</text>
<text text-anchor="start" x="58.5" y="-927.5" font-family="Helvetica,sans-Serif" font-size="10.00">() const</text>
<polygon fill="#666666" stroke="#666666" points="44.5,-1203 44.5,-1203 204.5,-1203 204.5,-1203 44.5,-1203"/>
<polygon fill="#666666" stroke="#666666" points="44.5,-1107 44.5,-1107 56.5,-1107 56.5,-1107 44.5,-1107"/>
<polygon fill="#666666" stroke="#666666" points="56.5,-1107 56.5,-1107 204.5,-1107 204.5,-1107 56.5,-1107"/>
<polygon fill="none" stroke="#666666" points="44.5,-921 44.5,-1221 204.5,-1221 204.5,-921 44.5,-921"/>
</a>
</g>
</g>
<!-- Node3&#45;&gt;Node2 -->
<g id="edge2_Node000002_Node000003" class="edge">
<title>Node3&#45;&gt;Node2</title>
<g id="a_edge2_Node000002_Node000003"><a xlink:title=" ">
<path fill="none" stroke="#63b8ff" d="M124.5,-921.08C124.5,-909.5 124.5,-897.56 124.5,-885.4"/>
<polygon fill="none" stroke="#63b8ff" points="124.5,-885.56 120.5,-879.56 124.5,-873.56 128.5,-879.56 124.5,-885.56"/>
</a>
</g>
<text text-anchor="middle" x="145.5" y="-893.5" font-family="Helvetica,sans-Serif" font-size="10.00" fill="grey"> #m_pCtx</text>
</g>
<!-- Node4 -->
<g id="Node000004" class="node">
<title>Node4</title>
<g id="a_Node000004"><a xlink:href="classhri_1_1_render_context_queue_state.html" target="_top" xlink:title="The context queue state creates and maintains the device queue setup.">
<polygon fill="white" stroke="none" points="195.5,-1361 53.5,-1361 53.5,-1269 195.5,-1269 195.5,-1361"/>
<text text-anchor="start" x="58.12" y="-1347.5" font-family="Helvetica,sans-Serif" font-size="10.00">hri::RenderContextQueueState</text>
<text text-anchor="start" x="123" y="-1331.5" font-family="Helvetica,sans-Serif" font-size="10.00"> </text>
<text text-anchor="start" x="59.5" y="-1315.5" font-family="Helvetica,sans-Serif" font-size="10.00">+</text>
<text text-anchor="start" x="71.5" y="-1315.5" font-family="Helvetica,sans-Serif" font-size="10.00">RenderContextQueueState</text>
<text text-anchor="start" x="71.5" y="-1303.5" font-family="Helvetica,sans-Serif" font-size="10.00">()=default</text>
<text text-anchor="start" x="59.5" y="-1287.5" font-family="Helvetica,sans-Serif" font-size="10.00">+</text>
<text text-anchor="start" x="71.5" y="-1287.5" font-family="Helvetica,sans-Serif" font-size="10.00">RenderContextQueueState</text>
<text text-anchor="start" x="71.5" y="-1275.5" font-family="Helvetica,sans-Serif" font-size="10.00">(vkb::Device device)</text>
<polygon fill="#666666" stroke="#666666" points="53.5,-1343 53.5,-1343 195.5,-1343 195.5,-1343 53.5,-1343"/>
<polygon fill="#666666" stroke="#666666" points="53.5,-1327 53.5,-1327 195.5,-1327 195.5,-1327 53.5,-1327"/>
<polygon fill="none" stroke="#666666" points="53.5,-1269 53.5,-1361 195.5,-1361 195.5,-1269 53.5,-1269"/>
</a>
</g>
</g>
<!-- Node4&#45;&gt;Node3 -->
<g id="edge3_Node000003_Node000004" class="edge">
<title>Node4&#45;&gt;Node3</title>
<g id="a_edge3_Node000003_Node000004"><a xlink:title=" ">
<path fill="none" stroke="#63b8ff" d="M124.5,-1269.05C124.5,-1258.39 124.5,-1246.4 124.5,-1233.74"/>
<polygon fill="none" stroke="#63b8ff" points="124.5,-1233.78 120.5,-1227.78 124.5,-1221.78 128.5,-1227.78 124.5,-1233.78"/>
</a>
</g>
<text text-anchor="middle" x="144.75" y="-1241.5" font-family="Helvetica,sans-Serif" font-size="10.00" fill="grey"> +queues</text>
</g>
<!-- Node5 -->
<g id="Node000005" class="node">
<title>Node5</title>
<g id="a_Node000005"><a xlink:href="structhri_1_1_device_queue.html" target="_top" xlink:title="A Device Queue is a queue on the logical device to which operations can be submitted.">
<polygon fill="white" stroke="none" points="169.5,-1489 79.5,-1489 79.5,-1421 169.5,-1421 169.5,-1489"/>
<text text-anchor="start" x="87.75" y="-1475.5" font-family="Helvetica,sans-Serif" font-size="10.00">hri::DeviceQueue</text>
<text text-anchor="start" x="83.5" y="-1459.5" font-family="Helvetica,sans-Serif" font-size="10.00">+</text>
<text text-anchor="start" x="93.5" y="-1459.5" font-family="Helvetica,sans-Serif" font-size="10.00">uint32_t family</text>
<text text-anchor="start" x="83.5" y="-1443.5" font-family="Helvetica,sans-Serif" font-size="10.00">+</text>
<text text-anchor="start" x="93.5" y="-1443.5" font-family="Helvetica,sans-Serif" font-size="10.00">VkQueue handle</text>
<text text-anchor="start" x="123" y="-1427.5" font-family="Helvetica,sans-Serif" font-size="10.00"> </text>
<polygon fill="#666666" stroke="#666666" points="79.5,-1471 79.5,-1471 169.5,-1471 169.5,-1471 79.5,-1471"/>
<polygon fill="#666666" stroke="#666666" points="79.5,-1439 79.5,-1439 91.5,-1439 91.5,-1439 79.5,-1439"/>
<polygon fill="#666666" stroke="#666666" points="91.5,-1439 91.5,-1439 169.5,-1439 169.5,-1439 91.5,-1439"/>
<polygon fill="none" stroke="#666666" points="79.5,-1421 79.5,-1489 169.5,-1489 169.5,-1421 79.5,-1421"/>
</a>
</g>
</g>
<!-- Node5&#45;&gt;Node4 -->
<g id="edge4_Node000004_Node000005" class="edge">
<title>Node5&#45;&gt;Node4</title>
<g id="a_edge4_Node000004_Node000005"><a xlink:title=" ">
<path fill="none" stroke="#63b8ff" d="M124.5,-1421.3C124.5,-1407.08 124.5,-1390 124.5,-1373.76"/>
<polygon fill="none" stroke="#63b8ff" points="124.5,-1373.9 120.5,-1367.9 124.5,-1361.9 128.5,-1367.9 124.5,-1373.9"/>
</a>
</g>
<text text-anchor="middle" x="161.62" y="-1393.5" font-family="Helvetica,sans-Serif" font-size="10.00" fill="grey"> +graphicsQueue</text>
<text text-anchor="middle" x="161.62" y="-1381.5" font-family="Helvetica,sans-Serif" font-size="10.00" fill="grey">+presentQueue</text>
</g>
</g>
</svg>
