<?xml version="1.0" encoding="UTF-8" standalone="no"?>
<!DOCTYPE svg PUBLIC "-//W3C//DTD SVG 1.1//EN"
 "http://www.w3.org/Graphics/SVG/1.1/DTD/svg11.dtd">
<!-- Generated by graphviz version 10.0.1 (20240210.2158)
 -->
<!-- Title: hri::RenderPassResourceManager Pages: 1 -->
<svg width="170pt" height="548pt"
 viewBox="0.00 0.00 170.00 548.00" xmlns="http://www.w3.org/2000/svg" xmlns:xlink="http://www.w3.org/1999/xlink">
<g id="graph0" class="graph" transform="scale(1 1) rotate(0) translate(4 544)">
<title>hri::RenderPassResourceManager</title>
<!-- Node1 -->
<g id="Node000001" class="node">
<title>Node1</title>
<g id="a_Node000001"><a xlink:title="The Render Pass Resource manager handles drawing to a framebuffer constructed using the interface&#39;s c...">
<polygon fill="#999999" stroke="none" points="162,-116 0,-116 0,0 162,0 162,-116"/>
<text text-anchor="start" x="6.75" y="-102.5" font-family="Helvetica,sans-Serif" font-size="10.00">hri::RenderPassResourceManager</text>
<text text-anchor="start" x="79.5" y="-86.5" font-family="Helvetica,sans-Serif" font-size="10.00"> </text>
<text text-anchor="start" x="4" y="-70.5" font-family="Helvetica,sans-Serif" font-size="10.00">+</text>
<text text-anchor="start" x="14" y="-70.5" font-family="Helvetica,sans-Serif" font-size="10.00">RenderPassResourceManager()</text>
<text text-anchor="start" x="4" y="-54.5" font-family="Helvetica,sans-Serif" font-size="10.00">+</text>
<text text-anchor="start" x="14" y="-54.5" font-family="Helvetica,sans-Serif" font-size="10.00">~RenderPassResourceManager()</text>
<text text-anchor="start" x="4" y="-38.5" font-family="Helvetica,sans-Serif" font-size="10.00">+</text>
<text text-anchor="start" x="14" y="-38.5" font-family="Helvetica,sans-Serif" font-size="10.00">beginRenderPass()</text>
<text text-anchor="start" x="4.38" y="-22.5" font-family="Helvetica,sans-Serif" font-size="10.00">#</text>
<text text-anchor="start" x="14" y="-22.5" font-family="Helvetica,sans-Serif" font-size="10.00">createResources()</text>
<text text-anchor="start" x="4.38" y="-6.5" font-family="Helvetica,sans-Serif" font-size="10.00">#</text>
<text text-anchor="start" x="14" y="-6.5" font-family="Helvetica,sans-Serif" font-size="10.00">destroyResources()</text>
<polygon fill="#666666" stroke="#666666" points="0,-98 0,-98 162,-98 162,-98 0,-98"/>
<polygon fill="#666666" stroke="#666666" points="0,-82 0,-82 162,-82 162,-82 0,-82"/>
<polygon fill="none" stroke="#666666" points="0,0 0,-116 162,-116 162,0 0,0"/>
</a>
</g>
</g>
<!-- Node2 -->
<g id="Node000002" class="node">
<title>Node2</title>
<g id="a_Node000002"><a xlink:href="classhri_1_1_i_render_pass_resource_manager_base.html" target="_top" xlink:title="The Render Pass Resource Manager Base is used to create and recreate render pass resources....">
<polygon fill="white" stroke="none" points="160,-540 2,-540 2,-152 160,-152 160,-540"/>
<text text-anchor="start" x="24.38" y="-526.5" font-family="Helvetica,sans-Serif" font-size="10.00">hri::IRenderPassResource</text>
<text text-anchor="start" x="51" y="-514.5" font-family="Helvetica,sans-Serif" font-size="10.00">ManagerBase</text>
<text text-anchor="start" x="6.38" y="-498.5" font-family="Helvetica,sans-Serif" font-size="10.00">#</text>
<text text-anchor="start" x="16" y="-498.5" font-family="Helvetica,sans-Serif" font-size="10.00">m_pCtx</text>
<text text-anchor="start" x="6.38" y="-482.5" font-family="Helvetica,sans-Serif" font-size="10.00">#</text>
<text text-anchor="start" x="16" y="-482.5" font-family="Helvetica,sans-Serif" font-size="10.00">m_renderPass</text>
<text text-anchor="start" x="6.38" y="-466.5" font-family="Helvetica,sans-Serif" font-size="10.00">#</text>
<text text-anchor="start" x="16" y="-466.5" font-family="Helvetica,sans-Serif" font-size="10.00">m_renderExtent</text>
<text text-anchor="start" x="6.38" y="-450.5" font-family="Helvetica,sans-Serif" font-size="10.00">#</text>
<text text-anchor="start" x="16" y="-450.5" font-family="Helvetica,sans-Serif" font-size="10.00">m_clearValues</text>
<text text-anchor="start" x="6.38" y="-434.5" font-family="Helvetica,sans-Serif" font-size="10.00">#</text>
<text text-anchor="start" x="16" y="-434.5" font-family="Helvetica,sans-Serif" font-size="10.00">m_attachmentConfigs</text>
<text text-anchor="start" x="6.38" y="-418.5" font-family="Helvetica,sans-Serif" font-size="10.00">#</text>
<text text-anchor="start" x="16" y="-418.5" font-family="Helvetica,sans-Serif" font-size="10.00">m_imageResources</text>
<text text-anchor="start" x="6" y="-402.5" font-family="Helvetica,sans-Serif" font-size="10.00">+</text>
<text text-anchor="start" x="16" y="-402.5" font-family="Helvetica,sans-Serif" font-size="10.00">IRenderPassResourceManager</text>
<text text-anchor="start" x="16" y="-390.5" font-family="Helvetica,sans-Serif" font-size="10.00">Base()</text>
<text text-anchor="start" x="6" y="-374.5" font-family="Helvetica,sans-Serif" font-size="10.00">+</text>
<text text-anchor="start" x="16" y="-374.5" font-family="Helvetica,sans-Serif" font-size="10.00">~IRenderPassResourceManager</text>
<text text-anchor="start" x="16" y="-362.5" font-family="Helvetica,sans-Serif" font-size="10.00">Base()</text>
<text text-anchor="start" x="6" y="-346.5" font-family="Helvetica,sans-Serif" font-size="10.00">+</text>
<text text-anchor="start" x="16" y="-346.5" font-family="Helvetica,sans-Serif" font-size="10.00">IRenderPassResourceManager</text>
<text text-anchor="start" x="16" y="-334.5" font-family="Helvetica,sans-Serif" font-size="10.00">Base()</text>
<text text-anchor="start" x="6" y="-318.5" font-family="Helvetica,sans-Serif" font-size="10.00">+</text>
<text text-anchor="start" x="16" y="-318.5" font-family="Helvetica,sans-Serif" font-size="10.00">operator=()</text>
<text text-anchor="start" x="6" y="-302.5" font-family="Helvetica,sans-Serif" font-size="10.00">+</text>
<text text-anchor="start" x="16" y="-302.5" font-family="Helvetica,sans-Serif" font-size="10.00">beginRenderPass()</text>
<text text-anchor="start" x="6" y="-286.5" font-family="Helvetica,sans-Serif" font-size="10.00">+</text>
<text text-anchor="start" x="16" y="-286.5" font-family="Helvetica,sans-Serif" font-size="10.00">endRenderPass()</text>
<text text-anchor="start" x="6" y="-270.5" font-family="Helvetica,sans-Serif" font-size="10.00">+</text>
<text text-anchor="start" x="16" y="-270.5" font-family="Helvetica,sans-Serif" font-size="10.00">setClearValue()</text>
<text text-anchor="start" x="6" y="-254.5" font-family="Helvetica,sans-Serif" font-size="10.00">+</text>
<text text-anchor="start" x="16" y="-254.5" font-family="Helvetica,sans-Serif" font-size="10.00">renderPass()</text>
<text text-anchor="start" x="6" y="-238.5" font-family="Helvetica,sans-Serif" font-size="10.00">+</text>
<text text-anchor="start" x="16" y="-238.5" font-family="Helvetica,sans-Serif" font-size="10.00">getAttachmentResource()</text>
<text text-anchor="start" x="6" y="-222.5" font-family="Helvetica,sans-Serif" font-size="10.00">+</text>
<text text-anchor="start" x="16" y="-222.5" font-family="Helvetica,sans-Serif" font-size="10.00">recreateResources()</text>
<text text-anchor="start" x="6.38" y="-206.5" font-family="Helvetica,sans-Serif" font-size="10.00">#</text>
<text text-anchor="start" x="16" y="-206.5" font-family="Helvetica,sans-Serif" font-size="10.00">createResources()</text>
<text text-anchor="start" x="6.38" y="-190.5" font-family="Helvetica,sans-Serif" font-size="10.00">#</text>
<text text-anchor="start" x="16" y="-190.5" font-family="Helvetica,sans-Serif" font-size="10.00">destroyResources()</text>
<text text-anchor="start" x="6.38" y="-174.5" font-family="Helvetica,sans-Serif" font-size="10.00">#</text>
<text text-anchor="start" x="16" y="-174.5" font-family="Helvetica,sans-Serif" font-size="10.00">getImageResourceViews()</text>
<text text-anchor="start" x="6.38" y="-158.5" font-family="Helvetica,sans-Serif" font-size="10.00">#</text>
<text text-anchor="start" x="16" y="-158.5" font-family="Helvetica,sans-Serif" font-size="10.00">getRenderExtent()</text>
<polygon fill="#666666" stroke="#666666" points="2,-510 2,-510 160,-510 160,-510 2,-510"/>
<polygon fill="#666666" stroke="#666666" points="2,-414 2,-414 14,-414 14,-414 2,-414"/>
<polygon fill="#666666" stroke="#666666" points="14,-414 14,-414 160,-414 160,-414 14,-414"/>
<polygon fill="none" stroke="#666666" points="2,-152 2,-540 160,-540 160,-152 2,-152"/>
</a>
</g>
</g>
<!-- Node2&#45;&gt;Node1 -->
<g id="edge1_Node000001_Node000002" class="edge">
<title>Node2&#45;&gt;Node1</title>
<g id="a_edge1_Node000001_Node000002"><a xlink:title=" ">
<path fill="none" stroke="#63b8ff" d="M81,-140.95C81,-132.17 81,-123.78 81,-115.93"/>
<polygon fill="none" stroke="#63b8ff" points="77.5,-140.74 81,-150.74 84.5,-140.74 77.5,-140.74"/>
</a>
</g>
</g>
</g>
</svg>
