<?xml version="1.0" encoding="UTF-8" standalone="no"?>
<!DOCTYPE svg PUBLIC "-//W3C//DTD SVG 1.1//EN"
 "http://www.w3.org/Graphics/SVG/1.1/DTD/svg11.dtd">
<!-- Generated by graphviz version 10.0.1 (20240210.2158)
 -->
<!-- Title: SceneASManager::cmdBuildTLAS Pages: 1 -->
<svg width="544pt" height="178pt"
 viewBox="0.00 0.00 544.25 178.00" xmlns="http://www.w3.org/2000/svg" xmlns:xlink="http://www.w3.org/1999/xlink">
<g id="graph0" class="graph" transform="scale(1 1) rotate(0) translate(4 174)">
<title>SceneASManager::cmdBuildTLAS</title>
<!-- Node1 -->
<g id="Node000001" class="node">
<title>Node1</title>
<g id="a_Node000001"><a xlink:title=" ">
<polygon fill="#999999" stroke="#666666" points="165.25,-92 0,-92 0,-72 165.25,-72 165.25,-92"/>
<text text-anchor="middle" x="82.62" y="-78.5" font-family="Helvetica,sans-Serif" font-size="10.00">SceneASManager::cmdBuildTLAS</text>
</a>
</g>
</g>
<!-- Node2 -->
<g id="Node000002" class="node">
<title>Node2</title>
<g id="a_Node000002"><a xlink:href="classraytracing_1_1_a_s_builder.html#abd3b4d49769f0a8e1d141efda178aac7" target="_top" xlink:title="Build an acceleration structure.">
<polygon fill="white" stroke="#666666" points="357.5,-170 201.25,-170 201.25,-138 357.5,-138 357.5,-170"/>
<text text-anchor="start" x="209.25" y="-156.5" font-family="Helvetica,sans-Serif" font-size="10.00">raytracing::ASBuilder</text>
<text text-anchor="middle" x="279.38" y="-144.5" font-family="Helvetica,sans-Serif" font-size="10.00">::cmdBuildAccelerationStructure</text>
</a>
</g>
</g>
<!-- Node1&#45;&gt;Node2 -->
<g id="edge1_Node000001_Node000002" class="edge">
<title>Node1&#45;&gt;Node2</title>
<g id="a_edge1_Node000001_Node000002"><a xlink:title=" ">
<path fill="none" stroke="#63b8ff" d="M108.22,-92.39C131.9,-102.25 168.78,-117.27 201.25,-129 205.84,-130.66 210.61,-132.33 215.41,-133.97"/>
<polygon fill="#63b8ff" stroke="#63b8ff" points="213.91,-137.16 224.51,-137.04 216.15,-130.53 213.91,-137.16"/>
</a>
</g>
</g>
<!-- Node3 -->
<g id="Node000003" class="node">
<title>Node3</title>
<g id="a_Node000003"><a xlink:href="classraytracing_1_1_a_s_builder.html#a735324c0da6b17aa548c590af9b29208" target="_top" xlink:title="Generate build info from input.">
<polygon fill="white" stroke="#666666" points="334.25,-120 224.5,-120 224.5,-88 334.25,-88 334.25,-120"/>
<text text-anchor="start" x="232.5" y="-106.5" font-family="Helvetica,sans-Serif" font-size="10.00">raytracing::ASBuilder</text>
<text text-anchor="middle" x="279.38" y="-94.5" font-family="Helvetica,sans-Serif" font-size="10.00">::generateASBuildInfo</text>
</a>
</g>
</g>
<!-- Node1&#45;&gt;Node3 -->
<g id="edge2_Node000001_Node000003" class="edge">
<title>Node1&#45;&gt;Node3</title>
<g id="a_edge2_Node000001_Node000003"><a xlink:title=" ">
<path fill="none" stroke="#63b8ff" d="M165.65,-91.27C181.39,-93.04 197.68,-94.88 212.81,-96.59"/>
<polygon fill="#63b8ff" stroke="#63b8ff" points="212.3,-100.06 222.63,-97.7 213.09,-93.1 212.3,-100.06"/>
</a>
</g>
</g>
<!-- Node5 -->
<g id="Node000005" class="node">
<title>Node5</title>
<g id="a_Node000005"><a xlink:href="namespaceraytracing.html#a88f8e296ad709ea3326ae37c0be49ff5" target="_top" xlink:title="Get the device address from a buffer resource.">
<polygon fill="white" stroke="#666666" points="536.25,-48 393.5,-48 393.5,-28 536.25,-28 536.25,-48"/>
<text text-anchor="middle" x="464.88" y="-34.5" font-family="Helvetica,sans-Serif" font-size="10.00">raytracing::getDeviceAddress</text>
</a>
</g>
</g>
<!-- Node1&#45;&gt;Node5 -->
<g id="edge4_Node000001_Node000005" class="edge">
<title>Node1&#45;&gt;Node5</title>
<g id="a_edge4_Node000001_Node000005"><a xlink:title=" ">
<path fill="none" stroke="#63b8ff" d="M165.67,-72.51C229.62,-65.11 318,-54.88 381.92,-47.48"/>
<polygon fill="#63b8ff" stroke="#63b8ff" points="382.13,-50.98 391.66,-46.36 381.33,-44.03 382.13,-50.98"/>
</a>
</g>
</g>
<!-- Node6 -->
<g id="Node000006" class="node">
<title>Node6</title>
<g id="a_Node000006"><a xlink:href="classraytracing_1_1_a_s_builder.html#a42350a22f3a56d2e6fa9ad06a032c723" target="_top" xlink:title="Convert an instance buffer to AS Input.">
<polygon fill="white" stroke="#666666" points="338,-32 220.75,-32 220.75,0 338,0 338,-32"/>
<text text-anchor="start" x="228.75" y="-18.5" font-family="Helvetica,sans-Serif" font-size="10.00">raytracing::ASBuilder</text>
<text text-anchor="middle" x="279.38" y="-6.5" font-family="Helvetica,sans-Serif" font-size="10.00">::instancesToGeometry</text>
</a>
</g>
</g>
<!-- Node1&#45;&gt;Node6 -->
<g id="edge5_Node000001_Node000006" class="edge">
<title>Node1&#45;&gt;Node6</title>
<g id="a_edge5_Node000001_Node000006"><a xlink:title=" ">
<path fill="none" stroke="#63b8ff" d="M114.48,-71.54C142.45,-62.06 184.45,-47.83 218.92,-36.15"/>
<polygon fill="#63b8ff" stroke="#63b8ff" points="220.05,-39.46 228.39,-32.94 217.8,-32.83 220.05,-39.46"/>
</a>
</g>
</g>
<!-- Node4 -->
<g id="Node000004" class="node">
<title>Node4</title>
<g id="a_Node000004"><a xlink:href="namespacehri.html#ad174e49d89763692b01496e2615c7d49" target="_top" xlink:title=" ">
<polygon fill="white" stroke="#666666" points="490.5,-114 439.25,-114 439.25,-94 490.5,-94 490.5,-114"/>
<text text-anchor="middle" x="464.88" y="-100.5" font-family="Helvetica,sans-Serif" font-size="10.00">hri::max</text>
</a>
</g>
</g>
<!-- Node3&#45;&gt;Node4 -->
<g id="edge3_Node000003_Node000004" class="edge">
<title>Node3&#45;&gt;Node4</title>
<g id="a_edge3_Node000003_Node000004"><a xlink:title=" ">
<path fill="none" stroke="#63b8ff" d="M334.44,-104C364.51,-104 401.12,-104 427.72,-104"/>
<polygon fill="#63b8ff" stroke="#63b8ff" points="427.66,-107.5 437.66,-104 427.66,-100.5 427.66,-107.5"/>
</a>
</g>
</g>
<!-- Node6&#45;&gt;Node5 -->
<g id="edge6_Node000006_Node000005" class="edge">
<title>Node6&#45;&gt;Node5</title>
<g id="a_edge6_Node000006_Node000005"><a xlink:title=" ">
<path fill="none" stroke="#63b8ff" d="M338.44,-22.96C352.33,-24.63 367.41,-26.43 382.15,-28.2"/>
<polygon fill="#63b8ff" stroke="#63b8ff" points="381.47,-31.65 391.82,-29.36 382.31,-24.7 381.47,-31.65"/>
</a>
</g>
</g>
</g>
</svg>
