<?xml version="1.0" encoding="UTF-8" standalone="no"?>
<!DOCTYPE svg PUBLIC "-//W3C//DTD SVG 1.1//EN"
 "http://www.w3.org/Graphics/SVG/1.1/DTD/svg11.dtd">
<!-- Generated by graphviz version 10.0.1 (20240210.2158)
 -->
<!-- Title: hri::IRenderSubsystem Pages: 1 -->
<svg width="478pt" height="836pt"
 viewBox="0.00 0.00 478.00 836.00" xmlns="http://www.w3.org/2000/svg" xmlns:xlink="http://www.w3.org/1999/xlink">
<g id="graph0" class="graph" transform="scale(1 1) rotate(0) translate(4 832)">
<title>hri::IRenderSubsystem</title>
<!-- Node1 -->
<g id="Node000001" class="node">
<title>Node1</title>
<g id="a_Node000001"><a xlink:title="A Render Subsystem manages a render pipeline, layout, and subsystem descriptors. A Render Subsystem b...">
<polygon fill="#999999" stroke="none" points="346.5,-212 171.5,-212 171.5,0 346.5,0 346.5,-212"/>
<text text-anchor="start" x="209.5" y="-198.5" font-family="Helvetica,sans-Serif" font-size="10.00">hri::IRenderSubsystem</text>
<text text-anchor="start" x="175.88" y="-182.5" font-family="Helvetica,sans-Serif" font-size="10.00">#</text>
<text text-anchor="start" x="185.5" y="-182.5" font-family="Helvetica,sans-Serif" font-size="10.00">VkPipelineLayout m</text>
<text text-anchor="start" x="185.5" y="-170.5" font-family="Helvetica,sans-Serif" font-size="10.00">_layout</text>
<text text-anchor="start" x="175.5" y="-154.5" font-family="Helvetica,sans-Serif" font-size="10.00">+</text>
<text text-anchor="start" x="185.5" y="-154.5" font-family="Helvetica,sans-Serif" font-size="10.00">IRenderSubsystem(Render</text>
<text text-anchor="start" x="185.5" y="-142.5" font-family="Helvetica,sans-Serif" font-size="10.00">Context *ctx, DescriptorSetAllocator</text>
<text text-anchor="start" x="185.5" y="-130.5" font-family="Helvetica,sans-Serif" font-size="10.00"> *descriptorSetAllocator)</text>
<text text-anchor="start" x="175.5" y="-114.5" font-family="Helvetica,sans-Serif" font-size="10.00">+</text>
<text text-anchor="start" x="185.5" y="-114.5" font-family="Helvetica,sans-Serif" font-size="10.00">virtual ~IRenderSubsystem()</text>
<text text-anchor="start" x="175.5" y="-98.5" font-family="Helvetica,sans-Serif" font-size="10.00">+</text>
<text text-anchor="start" x="185.5" y="-98.5" font-family="Helvetica,sans-Serif" font-size="10.00">IRenderSubsystem(const</text>
<text text-anchor="start" x="185.5" y="-86.5" font-family="Helvetica,sans-Serif" font-size="10.00"> IRenderSubsystem &amp;)=delete</text>
<text text-anchor="start" x="175.5" y="-70.5" font-family="Helvetica,sans-Serif" font-size="10.00">+</text>
<text text-anchor="start" x="185.5" y="-70.5" font-family="Helvetica,sans-Serif" font-size="10.00">IRenderSubsystem &amp;</text>
<text text-anchor="start" x="185.5" y="-58.5" font-family="Helvetica,sans-Serif" font-size="10.00"> operator=(const IRenderSubsystem</text>
<text text-anchor="start" x="185.5" y="-46.5" font-family="Helvetica,sans-Serif" font-size="10.00"> &amp;)=delete</text>
<text text-anchor="start" x="175.5" y="-30.5" font-family="Helvetica,sans-Serif" font-size="10.00">+</text>
<text text-anchor="start" x="185.5" y="-30.5" font-family="Helvetica,sans-Serif" font-size="10.00">virtual void record</text>
<text text-anchor="start" x="185.5" y="-18.5" font-family="Helvetica,sans-Serif" font-size="10.00">(ActiveFrame &amp;frame)</text>
<text text-anchor="start" x="185.5" y="-6.5" font-family="Helvetica,sans-Serif" font-size="10.00"> const =0</text>
<polygon fill="#666666" stroke="#666666" points="171.5,-194 171.5,-194 346.5,-194 346.5,-194 171.5,-194"/>
<polygon fill="#666666" stroke="#666666" points="171.5,-166 171.5,-166 183.5,-166 183.5,-166 171.5,-166"/>
<polygon fill="#666666" stroke="#666666" points="183.5,-166 183.5,-166 346.5,-166 346.5,-166 183.5,-166"/>
<polygon fill="none" stroke="#666666" points="171.5,0 171.5,-212 346.5,-212 346.5,0 171.5,0"/>
</a>
</g>
</g>
<!-- Node2 -->
<g id="Node000002" class="node">
<title>Node2</title>
<g id="a_Node000002"><a xlink:href="classhri_1_1_render_context.html" target="_top" xlink:title="THe RenderContext manages the Vulkan instance, device, and swapchain state.">
<polygon fill="white" stroke="none" points="160,-560 0,-560 0,-260 160,-260 160,-560"/>
<text text-anchor="start" x="39.5" y="-546.5" font-family="Helvetica,sans-Serif" font-size="10.00">hri::RenderContext</text>
<text text-anchor="start" x="4" y="-530.5" font-family="Helvetica,sans-Serif" font-size="10.00">+</text>
<text text-anchor="start" x="14" y="-530.5" font-family="Helvetica,sans-Serif" font-size="10.00">vkb::Instance instance</text>
<text text-anchor="start" x="4" y="-514.5" font-family="Helvetica,sans-Serif" font-size="10.00">+</text>
<text text-anchor="start" x="14" y="-514.5" font-family="Helvetica,sans-Serif" font-size="10.00">VkSurfaceKHR surface</text>
<text text-anchor="start" x="4" y="-498.5" font-family="Helvetica,sans-Serif" font-size="10.00">+</text>
<text text-anchor="start" x="14" y="-498.5" font-family="Helvetica,sans-Serif" font-size="10.00">vkb::PhysicalDevice gpu</text>
<text text-anchor="start" x="4" y="-482.5" font-family="Helvetica,sans-Serif" font-size="10.00">+</text>
<text text-anchor="start" x="14" y="-482.5" font-family="Helvetica,sans-Serif" font-size="10.00">vkb::Device device</text>
<text text-anchor="start" x="4" y="-466.5" font-family="Helvetica,sans-Serif" font-size="10.00">+</text>
<text text-anchor="start" x="14" y="-466.5" font-family="Helvetica,sans-Serif" font-size="10.00">VmaAllocator allocator</text>
<text text-anchor="start" x="4" y="-450.5" font-family="Helvetica,sans-Serif" font-size="10.00">+</text>
<text text-anchor="start" x="14" y="-450.5" font-family="Helvetica,sans-Serif" font-size="10.00">vkb::Swapchain swapchain</text>
<text text-anchor="start" x="4" y="-434.5" font-family="Helvetica,sans-Serif" font-size="10.00">+</text>
<text text-anchor="start" x="14" y="-434.5" font-family="Helvetica,sans-Serif" font-size="10.00">RenderContext(RenderContext</text>
<text text-anchor="start" x="14" y="-422.5" font-family="Helvetica,sans-Serif" font-size="10.00">CreateInfo createInfo)</text>
<text text-anchor="start" x="4" y="-406.5" font-family="Helvetica,sans-Serif" font-size="10.00">+</text>
<text text-anchor="start" x="14" y="-406.5" font-family="Helvetica,sans-Serif" font-size="10.00">virtual ~RenderContext()</text>
<text text-anchor="start" x="4" y="-390.5" font-family="Helvetica,sans-Serif" font-size="10.00">+</text>
<text text-anchor="start" x="14" y="-390.5" font-family="Helvetica,sans-Serif" font-size="10.00">RenderContext(const</text>
<text text-anchor="start" x="14" y="-378.5" font-family="Helvetica,sans-Serif" font-size="10.00"> RenderContext &amp;)=delete</text>
<text text-anchor="start" x="4" y="-362.5" font-family="Helvetica,sans-Serif" font-size="10.00">+</text>
<text text-anchor="start" x="14" y="-362.5" font-family="Helvetica,sans-Serif" font-size="10.00">RenderContext &amp; operator</text>
<text text-anchor="start" x="14" y="-350.5" font-family="Helvetica,sans-Serif" font-size="10.00">=(const RenderContext &amp;)</text>
<text text-anchor="start" x="14" y="-338.5" font-family="Helvetica,sans-Serif" font-size="10.00">=delete</text>
<text text-anchor="start" x="4" y="-322.5" font-family="Helvetica,sans-Serif" font-size="10.00">+</text>
<text text-anchor="start" x="14" y="-322.5" font-family="Helvetica,sans-Serif" font-size="10.00">void setVSyncMode(VSyncMode</text>
<text text-anchor="start" x="14" y="-310.5" font-family="Helvetica,sans-Serif" font-size="10.00"> vsyncMode)</text>
<text text-anchor="start" x="4" y="-294.5" font-family="Helvetica,sans-Serif" font-size="10.00">+</text>
<text text-anchor="start" x="14" y="-294.5" font-family="Helvetica,sans-Serif" font-size="10.00">void recreateSwapchain()</text>
<text text-anchor="start" x="4" y="-278.5" font-family="Helvetica,sans-Serif" font-size="10.00">+</text>
<text text-anchor="start" x="14" y="-278.5" font-family="Helvetica,sans-Serif" font-size="10.00">VkFormat swapFormat</text>
<text text-anchor="start" x="14" y="-266.5" font-family="Helvetica,sans-Serif" font-size="10.00">() const</text>
<polygon fill="#666666" stroke="#666666" points="0,-542 0,-542 160,-542 160,-542 0,-542"/>
<polygon fill="#666666" stroke="#666666" points="0,-446 0,-446 12,-446 12,-446 0,-446"/>
<polygon fill="#666666" stroke="#666666" points="12,-446 12,-446 160,-446 160,-446 12,-446"/>
<polygon fill="none" stroke="#666666" points="0,-260 0,-560 160,-560 160,-260 0,-260"/>
</a>
</g>
</g>
<!-- Node2&#45;&gt;Node1 -->
<g id="edge1_Node000001_Node000002" class="edge">
<title>Node2&#45;&gt;Node1</title>
<g id="a_edge1_Node000001_Node000002"><a xlink:title=" ">
<path fill="none" stroke="#63b8ff" d="M159.82,-274.34C169.99,-257.18 180.33,-239.73 190.3,-222.9"/>
<polygon fill="none" stroke="#63b8ff" points="190.22,-223.04 189.84,-215.84 196.34,-212.72 196.72,-219.92 190.22,-223.04"/>
</a>
</g>
<text text-anchor="middle" x="207" y="-232.5" font-family="Helvetica,sans-Serif" font-size="10.00" fill="grey"> #m_pCtx</text>
</g>
<!-- Node3 -->
<g id="Node000003" class="node">
<title>Node3</title>
<g id="a_Node000003"><a xlink:href="classhri_1_1_render_context_queue_state.html" target="_top" xlink:title="The context queue state creates and maintains the device queue setup.">
<polygon fill="white" stroke="none" points="151,-700 9,-700 9,-608 151,-608 151,-700"/>
<text text-anchor="start" x="13.62" y="-686.5" font-family="Helvetica,sans-Serif" font-size="10.00">hri::RenderContextQueueState</text>
<text text-anchor="start" x="78.5" y="-670.5" font-family="Helvetica,sans-Serif" font-size="10.00"> </text>
<text text-anchor="start" x="15" y="-654.5" font-family="Helvetica,sans-Serif" font-size="10.00">+</text>
<text text-anchor="start" x="27" y="-654.5" font-family="Helvetica,sans-Serif" font-size="10.00">RenderContextQueueState</text>
<text text-anchor="start" x="27" y="-642.5" font-family="Helvetica,sans-Serif" font-size="10.00">()=default</text>
<text text-anchor="start" x="15" y="-626.5" font-family="Helvetica,sans-Serif" font-size="10.00">+</text>
<text text-anchor="start" x="27" y="-626.5" font-family="Helvetica,sans-Serif" font-size="10.00">RenderContextQueueState</text>
<text text-anchor="start" x="27" y="-614.5" font-family="Helvetica,sans-Serif" font-size="10.00">(vkb::Device device)</text>
<polygon fill="#666666" stroke="#666666" points="9,-682 9,-682 151,-682 151,-682 9,-682"/>
<polygon fill="#666666" stroke="#666666" points="9,-666 9,-666 151,-666 151,-666 9,-666"/>
<polygon fill="none" stroke="#666666" points="9,-608 9,-700 151,-700 151,-608 9,-608"/>
</a>
</g>
</g>
<!-- Node3&#45;&gt;Node2 -->
<g id="edge2_Node000002_Node000003" class="edge">
<title>Node3&#45;&gt;Node2</title>
<g id="a_edge2_Node000002_Node000003"><a xlink:title=" ">
<path fill="none" stroke="#63b8ff" d="M80,-608.05C80,-597.39 80,-585.4 80,-572.74"/>
<polygon fill="none" stroke="#63b8ff" points="80,-572.78 76,-566.78 80,-560.78 84,-566.78 80,-572.78"/>
</a>
</g>
<text text-anchor="middle" x="100.25" y="-580.5" font-family="Helvetica,sans-Serif" font-size="10.00" fill="grey"> +queues</text>
</g>
<!-- Node4 -->
<g id="Node000004" class="node">
<title>Node4</title>
<g id="a_Node000004"><a xlink:href="structhri_1_1_device_queue.html" target="_top" xlink:title="A Device Queue is a queue on the logical device to which operations can be submitted.">
<polygon fill="white" stroke="none" points="125,-828 35,-828 35,-760 125,-760 125,-828"/>
<text text-anchor="start" x="43.25" y="-814.5" font-family="Helvetica,sans-Serif" font-size="10.00">hri::DeviceQueue</text>
<text text-anchor="start" x="39" y="-798.5" font-family="Helvetica,sans-Serif" font-size="10.00">+</text>
<text text-anchor="start" x="49" y="-798.5" font-family="Helvetica,sans-Serif" font-size="10.00">uint32_t family</text>
<text text-anchor="start" x="39" y="-782.5" font-family="Helvetica,sans-Serif" font-size="10.00">+</text>
<text text-anchor="start" x="49" y="-782.5" font-family="Helvetica,sans-Serif" font-size="10.00">VkQueue handle</text>
<text text-anchor="start" x="78.5" y="-766.5" font-family="Helvetica,sans-Serif" font-size="10.00"> </text>
<polygon fill="#666666" stroke="#666666" points="35,-810 35,-810 125,-810 125,-810 35,-810"/>
<polygon fill="#666666" stroke="#666666" points="35,-778 35,-778 47,-778 47,-778 35,-778"/>
<polygon fill="#666666" stroke="#666666" points="47,-778 47,-778 125,-778 125,-778 47,-778"/>
<polygon fill="none" stroke="#666666" points="35,-760 35,-828 125,-828 125,-760 35,-760"/>
</a>
</g>
</g>
<!-- Node4&#45;&gt;Node3 -->
<g id="edge3_Node000003_Node000004" class="edge">
<title>Node4&#45;&gt;Node3</title>
<g id="a_edge3_Node000003_Node000004"><a xlink:title=" ">
<path fill="none" stroke="#63b8ff" d="M80,-760.3C80,-746.08 80,-729 80,-712.76"/>
<polygon fill="none" stroke="#63b8ff" points="80,-712.9 76,-706.9 80,-700.9 84,-706.9 80,-712.9"/>
</a>
</g>
<text text-anchor="middle" x="117.12" y="-732.5" font-family="Helvetica,sans-Serif" font-size="10.00" fill="grey"> +graphicsQueue</text>
<text text-anchor="middle" x="117.12" y="-720.5" font-family="Helvetica,sans-Serif" font-size="10.00" fill="grey">+presentQueue</text>
</g>
<!-- Node5 -->
<g id="Node000005" class="node">
<title>Node5</title>
<g id="a_Node000005"><a xlink:href="classhri_1_1_descriptor_set_allocator.html" target="_top" xlink:title="The Descriptor Set Allocator handles allocation of Descriptor Sets from descriptor pools.">
<polygon fill="white" stroke="none" points="340,-538 178,-538 178,-282 340,-282 340,-538"/>
<text text-anchor="start" x="202" y="-524.5" font-family="Helvetica,sans-Serif" font-size="10.00">hri::DescriptorSetAllocator</text>
<text text-anchor="start" x="257.5" y="-508.5" font-family="Helvetica,sans-Serif" font-size="10.00"> </text>
<text text-anchor="start" x="182" y="-492.5" font-family="Helvetica,sans-Serif" font-size="10.00">+</text>
<text text-anchor="start" x="192" y="-492.5" font-family="Helvetica,sans-Serif" font-size="10.00">DescriptorSetAllocator</text>
<text text-anchor="start" x="192" y="-480.5" font-family="Helvetica,sans-Serif" font-size="10.00">(RenderContext *ctx)</text>
<text text-anchor="start" x="182" y="-464.5" font-family="Helvetica,sans-Serif" font-size="10.00">+</text>
<text text-anchor="start" x="192" y="-464.5" font-family="Helvetica,sans-Serif" font-size="10.00">virtual ~DescriptorSetAllocator()</text>
<text text-anchor="start" x="182" y="-448.5" font-family="Helvetica,sans-Serif" font-size="10.00">+</text>
<text text-anchor="start" x="192" y="-448.5" font-family="Helvetica,sans-Serif" font-size="10.00">DescriptorSetAllocator</text>
<text text-anchor="start" x="192" y="-436.5" font-family="Helvetica,sans-Serif" font-size="10.00">(const DescriptorSetAllocator</text>
<text text-anchor="start" x="192" y="-424.5" font-family="Helvetica,sans-Serif" font-size="10.00"> &amp;)=delete</text>
<text text-anchor="start" x="182" y="-408.5" font-family="Helvetica,sans-Serif" font-size="10.00">+</text>
<text text-anchor="start" x="192" y="-408.5" font-family="Helvetica,sans-Serif" font-size="10.00">DescriptorSetAllocator</text>
<text text-anchor="start" x="192" y="-396.5" font-family="Helvetica,sans-Serif" font-size="10.00"> &amp; operator=(const Descriptor</text>
<text text-anchor="start" x="192" y="-384.5" font-family="Helvetica,sans-Serif" font-size="10.00">SetAllocator &amp;)=delete</text>
<text text-anchor="start" x="182" y="-368.5" font-family="Helvetica,sans-Serif" font-size="10.00">+</text>
<text text-anchor="start" x="192" y="-368.5" font-family="Helvetica,sans-Serif" font-size="10.00">void allocateDescriptorSet</text>
<text text-anchor="start" x="192" y="-356.5" font-family="Helvetica,sans-Serif" font-size="10.00">(const DescriptorSetLayout</text>
<text text-anchor="start" x="192" y="-344.5" font-family="Helvetica,sans-Serif" font-size="10.00"> &amp;setlayout, VkDescriptorSet</text>
<text text-anchor="start" x="192" y="-332.5" font-family="Helvetica,sans-Serif" font-size="10.00"> &amp;descriptorSet)</text>
<text text-anchor="start" x="182" y="-316.5" font-family="Helvetica,sans-Serif" font-size="10.00">+</text>
<text text-anchor="start" x="192" y="-316.5" font-family="Helvetica,sans-Serif" font-size="10.00">void freeDescriptorSet</text>
<text text-anchor="start" x="192" y="-304.5" font-family="Helvetica,sans-Serif" font-size="10.00">(VkDescriptorSet &amp;descriptorSet)</text>
<text text-anchor="start" x="182" y="-288.5" font-family="Helvetica,sans-Serif" font-size="10.00">+</text>
<text text-anchor="start" x="192" y="-288.5" font-family="Helvetica,sans-Serif" font-size="10.00">void reset()</text>
<polygon fill="#666666" stroke="#666666" points="178,-520 178,-520 340,-520 340,-520 178,-520"/>
<polygon fill="#666666" stroke="#666666" points="178,-504 178,-504 340,-504 340,-504 178,-504"/>
<polygon fill="none" stroke="#666666" points="178,-282 178,-538 340,-538 340,-282 178,-282"/>
</a>
</g>
</g>
<!-- Node5&#45;&gt;Node1 -->
<g id="edge4_Node000001_Node000005" class="edge">
<title>Node5&#45;&gt;Node1</title>
<g id="a_edge4_Node000001_Node000005"><a xlink:title=" ">
<path fill="none" stroke="#63b8ff" d="M259,-282.24C259,-263.22 259,-243.68 259,-224.86"/>
<polygon fill="none" stroke="#63b8ff" points="259,-224.86 255,-218.86 259,-212.86 263,-218.86 259,-224.86"/>
</a>
</g>
<text text-anchor="middle" x="321.25" y="-232.5" font-family="Helvetica,sans-Serif" font-size="10.00" fill="grey"> #m_pDescriptorSetAllocator</text>
</g>
<!-- Node6 -->
<g id="Node000006" class="node">
<title>Node6</title>
<g id="a_Node000006"><a xlink:href="structhri_1_1_pipeline_state_object.html" target="_top" xlink:title="A pipeline state object (PSO) stores a pipeline and its bind point.">
<polygon fill="white" stroke="none" points="470,-450 358,-450 358,-370 470,-370 470,-450"/>
<text text-anchor="start" x="362.62" y="-436.5" font-family="Helvetica,sans-Serif" font-size="10.00">hri::PipelineStateObject</text>
<text text-anchor="start" x="363.5" y="-420.5" font-family="Helvetica,sans-Serif" font-size="10.00">+</text>
<text text-anchor="start" x="375" y="-420.5" font-family="Helvetica,sans-Serif" font-size="10.00">VkPipelineBindPoint</text>
<text text-anchor="start" x="375" y="-408.5" font-family="Helvetica,sans-Serif" font-size="10.00"> bindPoint</text>
<text text-anchor="start" x="363.5" y="-392.5" font-family="Helvetica,sans-Serif" font-size="10.00">+</text>
<text text-anchor="start" x="375" y="-392.5" font-family="Helvetica,sans-Serif" font-size="10.00">VkPipeline pipeline</text>
<text text-anchor="start" x="412.5" y="-376.5" font-family="Helvetica,sans-Serif" font-size="10.00"> </text>
<polygon fill="#666666" stroke="#666666" points="358,-432 358,-432 470,-432 470,-432 358,-432"/>
<polygon fill="#666666" stroke="#666666" points="358,-388 358,-388 373,-388 373,-388 358,-388"/>
<polygon fill="#666666" stroke="#666666" points="373,-388 373,-388 470,-388 470,-388 373,-388"/>
<polygon fill="none" stroke="#666666" points="358,-370 358,-450 470,-450 470,-370 358,-370"/>
</a>
</g>
</g>
<!-- Node6&#45;&gt;Node1 -->
<g id="edge5_Node000001_Node000006" class="edge">
<title>Node6&#45;&gt;Node1</title>
<g id="a_edge5_Node000001_Node000006"><a xlink:title=" ">
<path fill="none" stroke="#63b8ff" d="M415.5,-370.13C415.36,-332.3 410.84,-274.22 388,-230 379.44,-213.42 367.75,-197.83 354.89,-183.68"/>
<polygon fill="none" stroke="#63b8ff" points="355.16,-183.96 348.13,-182.36 346.91,-175.25 353.94,-176.86 355.16,-183.96"/>
</a>
</g>
<text text-anchor="middle" x="416" y="-232.5" font-family="Helvetica,sans-Serif" font-size="10.00" fill="grey"> #m_pPSO</text>
</g>
</g>
</svg>
