<?xml version="1.0" encoding="UTF-8" standalone="no"?>
<!DOCTYPE svg PUBLIC "-//W3C//DTD SVG 1.1//EN"
 "http://www.w3.org/Graphics/SVG/1.1/DTD/svg11.dtd">
<!-- Generated by graphviz version 10.0.1 (20240210.2158)
 -->
<!-- Title: hri::IRenderSubsystem Pages: 1 -->
<svg width="318pt" height="320pt"
 viewBox="0.00 0.00 317.50 320.00" xmlns="http://www.w3.org/2000/svg" xmlns:xlink="http://www.w3.org/1999/xlink">
<g id="graph0" class="graph" transform="scale(1 1) rotate(0) translate(4 316)">
<title>hri::IRenderSubsystem</title>
<!-- Node1 -->
<g id="Node000001" class="node">
<title>Node1</title>
<g id="a_Node000001"><a xlink:title="A Render Subsystem manages a render pipeline, layout, and subsystem descriptors. A Render Subsystem b...">
<polygon fill="#999999" stroke="none" points="222,-312 88,-312 88,-148 222,-148 222,-312"/>
<text text-anchor="start" x="105.5" y="-298.5" font-family="Helvetica,sans-Serif" font-size="10.00">hri::IRenderSubsystem</text>
<text text-anchor="start" x="92.38" y="-282.5" font-family="Helvetica,sans-Serif" font-size="10.00">#</text>
<text text-anchor="start" x="102" y="-282.5" font-family="Helvetica,sans-Serif" font-size="10.00">m_pCtx</text>
<text text-anchor="start" x="92.38" y="-266.5" font-family="Helvetica,sans-Serif" font-size="10.00">#</text>
<text text-anchor="start" x="102" y="-266.5" font-family="Helvetica,sans-Serif" font-size="10.00">m_pDescriptorSetAllocator</text>
<text text-anchor="start" x="92.38" y="-250.5" font-family="Helvetica,sans-Serif" font-size="10.00">#</text>
<text text-anchor="start" x="102" y="-250.5" font-family="Helvetica,sans-Serif" font-size="10.00">m_layout</text>
<text text-anchor="start" x="92.38" y="-234.5" font-family="Helvetica,sans-Serif" font-size="10.00">#</text>
<text text-anchor="start" x="102" y="-234.5" font-family="Helvetica,sans-Serif" font-size="10.00">m_pPSO</text>
<text text-anchor="start" x="92" y="-218.5" font-family="Helvetica,sans-Serif" font-size="10.00">+</text>
<text text-anchor="start" x="102" y="-218.5" font-family="Helvetica,sans-Serif" font-size="10.00">IRenderSubsystem()</text>
<text text-anchor="start" x="92" y="-202.5" font-family="Helvetica,sans-Serif" font-size="10.00">+</text>
<text text-anchor="start" x="102" y="-202.5" font-family="Helvetica,sans-Serif" font-size="10.00">~IRenderSubsystem()</text>
<text text-anchor="start" x="92" y="-186.5" font-family="Helvetica,sans-Serif" font-size="10.00">+</text>
<text text-anchor="start" x="102" y="-186.5" font-family="Helvetica,sans-Serif" font-size="10.00">IRenderSubsystem()</text>
<text text-anchor="start" x="92" y="-170.5" font-family="Helvetica,sans-Serif" font-size="10.00">+</text>
<text text-anchor="start" x="102" y="-170.5" font-family="Helvetica,sans-Serif" font-size="10.00">operator=()</text>
<text text-anchor="start" x="92" y="-154.5" font-family="Helvetica,sans-Serif" font-size="10.00">+</text>
<text text-anchor="start" x="102" y="-154.5" font-family="Helvetica,sans-Serif" font-size="10.00">record()</text>
<polygon fill="#666666" stroke="#666666" points="88,-294 88,-294 222,-294 222,-294 88,-294"/>
<polygon fill="#666666" stroke="#666666" points="88,-230 88,-230 100,-230 100,-230 88,-230"/>
<polygon fill="#666666" stroke="#666666" points="100,-230 100,-230 222,-230 222,-230 100,-230"/>
<polygon fill="none" stroke="#666666" points="88,-148 88,-312 222,-312 222,-148 88,-148"/>
</a>
</g>
</g>
<!-- Node2 -->
<g id="Node000002" class="node">
<title>Node2</title>
<g id="a_Node000002"><a xlink:href="class_g_buffer_layout_subsystem.html" target="_top" xlink:title=" ">
<polygon fill="white" stroke="none" points="146,-106 0,-106 0,-6 146,-6 146,-106"/>
<text text-anchor="start" x="17.5" y="-92.5" font-family="Helvetica,sans-Serif" font-size="10.00">GBufferLayoutSubsystem</text>
<text text-anchor="start" x="4.38" y="-76.5" font-family="Helvetica,sans-Serif" font-size="10.00">#</text>
<text text-anchor="start" x="14" y="-76.5" font-family="Helvetica,sans-Serif" font-size="10.00">m_sceneDescriptorSetLayout</text>
<text text-anchor="start" x="4.38" y="-60.5" font-family="Helvetica,sans-Serif" font-size="10.00">#</text>
<text text-anchor="start" x="14" y="-60.5" font-family="Helvetica,sans-Serif" font-size="10.00">m_objectDescriptorSetLayout</text>
<text text-anchor="start" x="4" y="-44.5" font-family="Helvetica,sans-Serif" font-size="10.00">+</text>
<text text-anchor="start" x="14" y="-44.5" font-family="Helvetica,sans-Serif" font-size="10.00">GBufferLayoutSubsystem()</text>
<text text-anchor="start" x="4" y="-28.5" font-family="Helvetica,sans-Serif" font-size="10.00">+</text>
<text text-anchor="start" x="14" y="-28.5" font-family="Helvetica,sans-Serif" font-size="10.00">~GBufferLayoutSubsystem()</text>
<text text-anchor="start" x="4" y="-12.5" font-family="Helvetica,sans-Serif" font-size="10.00">+</text>
<text text-anchor="start" x="14" y="-12.5" font-family="Helvetica,sans-Serif" font-size="10.00">record()</text>
<polygon fill="#666666" stroke="#666666" points="0,-88 0,-88 146,-88 146,-88 0,-88"/>
<polygon fill="#666666" stroke="#666666" points="0,-56 0,-56 12,-56 12,-56 0,-56"/>
<polygon fill="#666666" stroke="#666666" points="12,-56 12,-56 146,-56 146,-56 12,-56"/>
<polygon fill="none" stroke="#666666" points="0,-6 0,-106 146,-106 146,-6 0,-6"/>
</a>
</g>
</g>
<!-- Node1&#45;&gt;Node2 -->
<g id="edge1_Node000001_Node000002" class="edge">
<title>Node1&#45;&gt;Node2</title>
<g id="a_edge1_Node000001_Node000002"><a xlink:title=" ">
<path fill="none" stroke="#63b8ff" d="M111.55,-137.86C106.27,-126.78 101.04,-115.82 96.23,-105.72"/>
<polygon fill="none" stroke="#63b8ff" points="108.29,-139.15 115.75,-146.67 114.61,-136.14 108.29,-139.15"/>
</a>
</g>
</g>
<!-- Node3 -->
<g id="Node000003" class="node">
<title>Node3</title>
<g id="a_Node000003"><a xlink:href="class_presentation_subsystem.html" target="_top" xlink:title=" ">
<polygon fill="white" stroke="none" points="309.5,-112 164.5,-112 164.5,0 309.5,0 309.5,-112"/>
<text text-anchor="start" x="184.88" y="-98.5" font-family="Helvetica,sans-Serif" font-size="10.00">PresentationSubsystem</text>
<text text-anchor="start" x="168.88" y="-82.5" font-family="Helvetica,sans-Serif" font-size="10.00">#</text>
<text text-anchor="start" x="178.5" y="-82.5" font-family="Helvetica,sans-Serif" font-size="10.00">m_renderResultDescriptor</text>
<text text-anchor="start" x="178.5" y="-70.5" font-family="Helvetica,sans-Serif" font-size="10.00">SetLayout</text>
<text text-anchor="start" x="168.88" y="-54.5" font-family="Helvetica,sans-Serif" font-size="10.00">#</text>
<text text-anchor="start" x="178.5" y="-54.5" font-family="Helvetica,sans-Serif" font-size="10.00">m_renderResultDescriptorSet</text>
<text text-anchor="start" x="168.5" y="-38.5" font-family="Helvetica,sans-Serif" font-size="10.00">+</text>
<text text-anchor="start" x="178.5" y="-38.5" font-family="Helvetica,sans-Serif" font-size="10.00">PresentationSubsystem()</text>
<text text-anchor="start" x="168.5" y="-22.5" font-family="Helvetica,sans-Serif" font-size="10.00">+</text>
<text text-anchor="start" x="178.5" y="-22.5" font-family="Helvetica,sans-Serif" font-size="10.00">~PresentationSubsystem()</text>
<text text-anchor="start" x="168.5" y="-6.5" font-family="Helvetica,sans-Serif" font-size="10.00">+</text>
<text text-anchor="start" x="178.5" y="-6.5" font-family="Helvetica,sans-Serif" font-size="10.00">record()</text>
<polygon fill="#666666" stroke="#666666" points="164.5,-94 164.5,-94 309.5,-94 309.5,-94 164.5,-94"/>
<polygon fill="#666666" stroke="#666666" points="164.5,-50 164.5,-50 176.5,-50 176.5,-50 164.5,-50"/>
<polygon fill="#666666" stroke="#666666" points="176.5,-50 176.5,-50 309.5,-50 309.5,-50 176.5,-50"/>
<polygon fill="none" stroke="#666666" points="164.5,0 164.5,-112 309.5,-112 309.5,0 164.5,0"/>
</a>
</g>
</g>
<!-- Node1&#45;&gt;Node3 -->
<g id="edge2_Node000001_Node000003" class="edge">
<title>Node1&#45;&gt;Node3</title>
<g id="a_edge2_Node000001_Node000003"><a xlink:title=" ">
<path fill="none" stroke="#63b8ff" d="M198.44,-137.88C202.73,-128.89 206.98,-119.97 211,-111.53"/>
<polygon fill="none" stroke="#63b8ff" points="195.39,-136.14 194.25,-146.67 201.71,-139.15 195.39,-136.14"/>
</a>
</g>
</g>
</g>
</svg>
