<?xml version="1.0" encoding="UTF-8" standalone="no"?>
<!DOCTYPE svg PUBLIC "-//W3C//DTD SVG 1.1//EN"
 "http://www.w3.org/Graphics/SVG/1.1/DTD/svg11.dtd">
<!-- Generated by graphviz version 10.0.1 (20240210.2158)
 -->
<!-- Title: PresentationSubsystem Pages: 1 -->
<svg width="529pt" height="1228pt"
 viewBox="0.00 0.00 528.50 1228.00" xmlns="http://www.w3.org/2000/svg" xmlns:xlink="http://www.w3.org/1999/xlink">
<g id="graph0" class="graph" transform="scale(1 1) rotate(0) translate(4 1224)">
<title>PresentationSubsystem</title>
<!-- Node1 -->
<g id="Node000001" class="node">
<title>Node1</title>
<g id="a_Node000001"><a xlink:title="The Presentation Subsystem handles drawing offscreen render results to a swap image.">
<polygon fill="#999999" stroke="none" points="459.5,-208 258.5,-208 258.5,0 459.5,0 459.5,-208"/>
<text text-anchor="start" x="306.88" y="-194.5" font-family="Helvetica,sans-Serif" font-size="10.00">PresentationSubsystem</text>
<text text-anchor="start" x="357.5" y="-178.5" font-family="Helvetica,sans-Serif" font-size="10.00"> </text>
<text text-anchor="start" x="262.5" y="-162.5" font-family="Helvetica,sans-Serif" font-size="10.00">+</text>
<text text-anchor="start" x="272.5" y="-162.5" font-family="Helvetica,sans-Serif" font-size="10.00">PresentationSubsystem</text>
<text text-anchor="start" x="272.5" y="-150.5" font-family="Helvetica,sans-Serif" font-size="10.00">(hri::RenderContext &amp;ctx,</text>
<text text-anchor="start" x="272.5" y="-138.5" font-family="Helvetica,sans-Serif" font-size="10.00"> hri::ShaderDatabase &amp;shaderDB,</text>
<text text-anchor="start" x="272.5" y="-126.5" font-family="Helvetica,sans-Serif" font-size="10.00"> VkRenderPass renderPass, VkDescriptor</text>
<text text-anchor="start" x="272.5" y="-114.5" font-family="Helvetica,sans-Serif" font-size="10.00">SetLayout presentInputSetLayout)</text>
<text text-anchor="start" x="262.5" y="-98.5" font-family="Helvetica,sans-Serif" font-size="10.00">+</text>
<text text-anchor="start" x="272.5" y="-98.5" font-family="Helvetica,sans-Serif" font-size="10.00">virtual ~PresentationSubsystem</text>
<text text-anchor="start" x="272.5" y="-86.5" font-family="Helvetica,sans-Serif" font-size="10.00">()=default</text>
<text text-anchor="start" x="262.5" y="-70.5" font-family="Helvetica,sans-Serif" font-size="10.00">+</text>
<text text-anchor="start" x="272.5" y="-70.5" font-family="Helvetica,sans-Serif" font-size="10.00">virtual void record</text>
<text text-anchor="start" x="272.5" y="-58.5" font-family="Helvetica,sans-Serif" font-size="10.00">(hri::ActiveFrame &amp;frame)</text>
<text text-anchor="start" x="272.5" y="-46.5" font-family="Helvetica,sans-Serif" font-size="10.00"> const override</text>
<text text-anchor="start" x="262.5" y="-30.5" font-family="Helvetica,sans-Serif" font-size="10.00">+</text>
<text text-anchor="start" x="272.5" y="-30.5" font-family="Helvetica,sans-Serif" font-size="10.00">void updateFrameInfo</text>
<text text-anchor="start" x="272.5" y="-18.5" font-family="Helvetica,sans-Serif" font-size="10.00">(const PresentFrameInfo</text>
<text text-anchor="start" x="272.5" y="-6.5" font-family="Helvetica,sans-Serif" font-size="10.00"> &amp;frameInfo)</text>
<polygon fill="#666666" stroke="#666666" points="258.5,-190 258.5,-190 459.5,-190 459.5,-190 258.5,-190"/>
<polygon fill="#666666" stroke="#666666" points="258.5,-174 258.5,-174 459.5,-174 459.5,-174 258.5,-174"/>
<polygon fill="none" stroke="#666666" points="258.5,0 258.5,-208 459.5,-208 459.5,0 258.5,0"/>
</a>
</g>
</g>
<!-- Node2 -->
<g id="Node000002" class="node">
<title>Node2</title>
<g id="a_Node000002"><a xlink:href="classhri_1_1_i_render_subsystem.html" target="_top" xlink:title="A Render Subsystem manages a render pipeline, layout, and subsystem descriptors. A Render Subsystem b...">
<polygon fill="white" stroke="none" points="357,-456 183,-456 183,-256 357,-256 357,-456"/>
<text text-anchor="start" x="220.5" y="-442.5" font-family="Helvetica,sans-Serif" font-size="10.00">hri::IRenderSubsystem</text>
<text text-anchor="start" x="187.38" y="-426.5" font-family="Helvetica,sans-Serif" font-size="10.00">#</text>
<text text-anchor="start" x="197" y="-426.5" font-family="Helvetica,sans-Serif" font-size="10.00">VkPipelineLayout m</text>
<text text-anchor="start" x="197" y="-414.5" font-family="Helvetica,sans-Serif" font-size="10.00">_layout</text>
<text text-anchor="start" x="187" y="-398.5" font-family="Helvetica,sans-Serif" font-size="10.00">+</text>
<text text-anchor="start" x="197" y="-398.5" font-family="Helvetica,sans-Serif" font-size="10.00">IRenderSubsystem(Render</text>
<text text-anchor="start" x="197" y="-386.5" font-family="Helvetica,sans-Serif" font-size="10.00">Context &amp;ctx)</text>
<text text-anchor="start" x="187" y="-370.5" font-family="Helvetica,sans-Serif" font-size="10.00">+</text>
<text text-anchor="start" x="197" y="-370.5" font-family="Helvetica,sans-Serif" font-size="10.00">virtual ~IRenderSubsystem()</text>
<text text-anchor="start" x="187" y="-354.5" font-family="Helvetica,sans-Serif" font-size="10.00">+</text>
<text text-anchor="start" x="197" y="-354.5" font-family="Helvetica,sans-Serif" font-size="10.00">IRenderSubsystem(const</text>
<text text-anchor="start" x="197" y="-342.5" font-family="Helvetica,sans-Serif" font-size="10.00"> IRenderSubsystem &amp;)=delete</text>
<text text-anchor="start" x="187" y="-326.5" font-family="Helvetica,sans-Serif" font-size="10.00">+</text>
<text text-anchor="start" x="197" y="-326.5" font-family="Helvetica,sans-Serif" font-size="10.00">IRenderSubsystem &amp;</text>
<text text-anchor="start" x="197" y="-314.5" font-family="Helvetica,sans-Serif" font-size="10.00"> operator=(const IRenderSubsystem</text>
<text text-anchor="start" x="197" y="-302.5" font-family="Helvetica,sans-Serif" font-size="10.00"> &amp;)=delete</text>
<text text-anchor="start" x="187" y="-286.5" font-family="Helvetica,sans-Serif" font-size="10.00">+</text>
<text text-anchor="start" x="197" y="-286.5" font-family="Helvetica,sans-Serif" font-size="10.00">virtual void record</text>
<text text-anchor="start" x="197" y="-274.5" font-family="Helvetica,sans-Serif" font-size="10.00">(ActiveFrame &amp;frame)</text>
<text text-anchor="start" x="197" y="-262.5" font-family="Helvetica,sans-Serif" font-size="10.00"> const =0</text>
<polygon fill="#666666" stroke="#666666" points="183,-438 183,-438 357,-438 357,-438 183,-438"/>
<polygon fill="#666666" stroke="#666666" points="183,-410 183,-410 195,-410 195,-410 183,-410"/>
<polygon fill="#666666" stroke="#666666" points="195,-410 195,-410 357,-410 357,-410 195,-410"/>
<polygon fill="none" stroke="#666666" points="183,-256 183,-456 357,-456 357,-256 183,-256"/>
</a>
</g>
</g>
<!-- Node2&#45;&gt;Node1 -->
<g id="edge1_Node000001_Node000002" class="edge">
<title>Node2&#45;&gt;Node1</title>
<g id="a_edge1_Node000001_Node000002"><a xlink:title=" ">
<path fill="none" stroke="#63b8ff" d="M308.93,-245.64C313.43,-233 318.01,-220.15 322.47,-207.6"/>
<polygon fill="none" stroke="#63b8ff" points="305.74,-244.17 305.68,-254.77 312.33,-246.52 305.74,-244.17"/>
</a>
</g>
</g>
<!-- Node3 -->
<g id="Node000003" class="node">
<title>Node3</title>
<g id="a_Node000003"><a xlink:href="classhri_1_1_render_context.html" target="_top" xlink:title="THe RenderContext manages the Vulkan instance, device, and swapchain state.">
<polygon fill="white" stroke="none" points="160,-928 0,-928 0,-504 160,-504 160,-928"/>
<text text-anchor="start" x="39.5" y="-914.5" font-family="Helvetica,sans-Serif" font-size="10.00">hri::RenderContext</text>
<text text-anchor="start" x="4" y="-898.5" font-family="Helvetica,sans-Serif" font-size="10.00">+</text>
<text text-anchor="start" x="14" y="-898.5" font-family="Helvetica,sans-Serif" font-size="10.00">vkb::Instance instance</text>
<text text-anchor="start" x="4" y="-882.5" font-family="Helvetica,sans-Serif" font-size="10.00">+</text>
<text text-anchor="start" x="14" y="-882.5" font-family="Helvetica,sans-Serif" font-size="10.00">VkSurfaceKHR surface</text>
<text text-anchor="start" x="4" y="-866.5" font-family="Helvetica,sans-Serif" font-size="10.00">+</text>
<text text-anchor="start" x="14" y="-866.5" font-family="Helvetica,sans-Serif" font-size="10.00">vkb::PhysicalDevice gpu</text>
<text text-anchor="start" x="4" y="-850.5" font-family="Helvetica,sans-Serif" font-size="10.00">+</text>
<text text-anchor="start" x="14" y="-850.5" font-family="Helvetica,sans-Serif" font-size="10.00">vkb::Device device</text>
<text text-anchor="start" x="4" y="-834.5" font-family="Helvetica,sans-Serif" font-size="10.00">+</text>
<text text-anchor="start" x="14" y="-834.5" font-family="Helvetica,sans-Serif" font-size="10.00">VmaAllocator allocator</text>
<text text-anchor="start" x="4" y="-818.5" font-family="Helvetica,sans-Serif" font-size="10.00">+</text>
<text text-anchor="start" x="14" y="-818.5" font-family="Helvetica,sans-Serif" font-size="10.00">vkb::Swapchain swapchain</text>
<text text-anchor="start" x="4" y="-802.5" font-family="Helvetica,sans-Serif" font-size="10.00">+</text>
<text text-anchor="start" x="14" y="-802.5" font-family="Helvetica,sans-Serif" font-size="10.00">RenderContext(RenderContext</text>
<text text-anchor="start" x="14" y="-790.5" font-family="Helvetica,sans-Serif" font-size="10.00">CreateInfo &amp;createInfo)</text>
<text text-anchor="start" x="4" y="-774.5" font-family="Helvetica,sans-Serif" font-size="10.00">+</text>
<text text-anchor="start" x="14" y="-774.5" font-family="Helvetica,sans-Serif" font-size="10.00">virtual ~RenderContext()</text>
<text text-anchor="start" x="4" y="-758.5" font-family="Helvetica,sans-Serif" font-size="10.00">+</text>
<text text-anchor="start" x="14" y="-758.5" font-family="Helvetica,sans-Serif" font-size="10.00">RenderContext(const</text>
<text text-anchor="start" x="14" y="-746.5" font-family="Helvetica,sans-Serif" font-size="10.00"> RenderContext &amp;)=delete</text>
<text text-anchor="start" x="4" y="-730.5" font-family="Helvetica,sans-Serif" font-size="10.00">+</text>
<text text-anchor="start" x="14" y="-730.5" font-family="Helvetica,sans-Serif" font-size="10.00">RenderContext &amp; operator</text>
<text text-anchor="start" x="14" y="-718.5" font-family="Helvetica,sans-Serif" font-size="10.00">=(const RenderContext &amp;)</text>
<text text-anchor="start" x="14" y="-706.5" font-family="Helvetica,sans-Serif" font-size="10.00">=delete</text>
<text text-anchor="start" x="4" y="-690.5" font-family="Helvetica,sans-Serif" font-size="10.00">+</text>
<text text-anchor="start" x="14" y="-690.5" font-family="Helvetica,sans-Serif" font-size="10.00">RenderContext(RenderContext</text>
<text text-anchor="start" x="14" y="-678.5" font-family="Helvetica,sans-Serif" font-size="10.00"> &amp;&amp;other) noexcept</text>
<text text-anchor="start" x="4" y="-662.5" font-family="Helvetica,sans-Serif" font-size="10.00">+</text>
<text text-anchor="start" x="14" y="-662.5" font-family="Helvetica,sans-Serif" font-size="10.00">RenderContext &amp; operator</text>
<text text-anchor="start" x="14" y="-650.5" font-family="Helvetica,sans-Serif" font-size="10.00">=(RenderContext &amp;&amp;other)</text>
<text text-anchor="start" x="14" y="-638.5" font-family="Helvetica,sans-Serif" font-size="10.00"> noexcept</text>
<text text-anchor="start" x="4" y="-622.5" font-family="Helvetica,sans-Serif" font-size="10.00">+</text>
<text text-anchor="start" x="14" y="-622.5" font-family="Helvetica,sans-Serif" font-size="10.00">void setVSyncMode(VSyncMode</text>
<text text-anchor="start" x="14" y="-610.5" font-family="Helvetica,sans-Serif" font-size="10.00"> vsyncMode)</text>
<text text-anchor="start" x="4" y="-594.5" font-family="Helvetica,sans-Serif" font-size="10.00">+</text>
<text text-anchor="start" x="14" y="-594.5" font-family="Helvetica,sans-Serif" font-size="10.00">void recreateSwapchain()</text>
<text text-anchor="start" x="4" y="-578.5" font-family="Helvetica,sans-Serif" font-size="10.00">+</text>
<text text-anchor="start" x="14" y="-578.5" font-family="Helvetica,sans-Serif" font-size="10.00">_PFn getInstanceFunction</text>
<text text-anchor="start" x="14" y="-566.5" font-family="Helvetica,sans-Serif" font-size="10.00">(const char *name) const</text>
<text text-anchor="start" x="4" y="-550.5" font-family="Helvetica,sans-Serif" font-size="10.00">+</text>
<text text-anchor="start" x="14" y="-550.5" font-family="Helvetica,sans-Serif" font-size="10.00">_PFn getDeviceFunction</text>
<text text-anchor="start" x="14" y="-538.5" font-family="Helvetica,sans-Serif" font-size="10.00">(const char *name) const</text>
<text text-anchor="start" x="4" y="-522.5" font-family="Helvetica,sans-Serif" font-size="10.00">+</text>
<text text-anchor="start" x="14" y="-522.5" font-family="Helvetica,sans-Serif" font-size="10.00">VkFormat swapFormat</text>
<text text-anchor="start" x="14" y="-510.5" font-family="Helvetica,sans-Serif" font-size="10.00">() const</text>
<polygon fill="#666666" stroke="#666666" points="0,-910 0,-910 160,-910 160,-910 0,-910"/>
<polygon fill="#666666" stroke="#666666" points="0,-814 0,-814 12,-814 12,-814 0,-814"/>
<polygon fill="#666666" stroke="#666666" points="12,-814 12,-814 160,-814 160,-814 12,-814"/>
<polygon fill="none" stroke="#666666" points="0,-504 0,-928 160,-928 160,-504 0,-504"/>
</a>
</g>
</g>
<!-- Node3&#45;&gt;Node2 -->
<g id="edge2_Node000002_Node000003" class="edge">
<title>Node3&#45;&gt;Node2</title>
<g id="a_edge2_Node000002_Node000003"><a xlink:title=" ">
<path fill="none" stroke="#63b8ff" d="M159.95,-521.08C162.93,-515.29 165.95,-509.58 169,-504 175.78,-491.6 183.35,-478.96 191.22,-466.54"/>
<polygon fill="none" stroke="#63b8ff" points="191.21,-466.55 191.1,-459.34 197.71,-456.46 197.83,-463.67 191.21,-466.55"/>
</a>
</g>
<text text-anchor="middle" x="204.62" y="-476.5" font-family="Helvetica,sans-Serif" font-size="10.00" fill="grey"> #m_ctx</text>
</g>
<!-- Node4 -->
<g id="Node000004" class="node">
<title>Node4</title>
<g id="a_Node000004"><a xlink:href="classhri_1_1_render_context_queue_state.html" target="_top" xlink:title="The context queue state creates and maintains the device queue setup.">
<polygon fill="white" stroke="none" points="151,-1068 9,-1068 9,-976 151,-976 151,-1068"/>
<text text-anchor="start" x="13.62" y="-1054.5" font-family="Helvetica,sans-Serif" font-size="10.00">hri::RenderContextQueueState</text>
<text text-anchor="start" x="78.5" y="-1038.5" font-family="Helvetica,sans-Serif" font-size="10.00"> </text>
<text text-anchor="start" x="15" y="-1022.5" font-family="Helvetica,sans-Serif" font-size="10.00">+</text>
<text text-anchor="start" x="27" y="-1022.5" font-family="Helvetica,sans-Serif" font-size="10.00">RenderContextQueueState</text>
<text text-anchor="start" x="27" y="-1010.5" font-family="Helvetica,sans-Serif" font-size="10.00">()=default</text>
<text text-anchor="start" x="15" y="-994.5" font-family="Helvetica,sans-Serif" font-size="10.00">+</text>
<text text-anchor="start" x="27" y="-994.5" font-family="Helvetica,sans-Serif" font-size="10.00">RenderContextQueueState</text>
<text text-anchor="start" x="27" y="-982.5" font-family="Helvetica,sans-Serif" font-size="10.00">(vkb::Device device)</text>
<polygon fill="#666666" stroke="#666666" points="9,-1050 9,-1050 151,-1050 151,-1050 9,-1050"/>
<polygon fill="#666666" stroke="#666666" points="9,-1034 9,-1034 151,-1034 151,-1034 9,-1034"/>
<polygon fill="none" stroke="#666666" points="9,-976 9,-1068 151,-1068 151,-976 9,-976"/>
</a>
</g>
</g>
<!-- Node4&#45;&gt;Node3 -->
<g id="edge3_Node000003_Node000004" class="edge">
<title>Node4&#45;&gt;Node3</title>
<g id="a_edge3_Node000003_Node000004"><a xlink:title=" ">
<path fill="none" stroke="#63b8ff" d="M80,-976.14C80,-965.51 80,-953.44 80,-940.48"/>
<polygon fill="none" stroke="#63b8ff" points="80,-940.7 76,-934.7 80,-928.7 84,-934.7 80,-940.7"/>
</a>
</g>
<text text-anchor="middle" x="100.25" y="-948.5" font-family="Helvetica,sans-Serif" font-size="10.00" fill="grey"> +queues</text>
</g>
<!-- Node5 -->
<g id="Node000005" class="node">
<title>Node5</title>
<g id="a_Node000005"><a xlink:href="structhri_1_1_device_queue.html" target="_top" xlink:title="A Device Queue is a queue on the logical device to which operations can be submitted.">
<polygon fill="white" stroke="none" points="125,-1220 35,-1220 35,-1152 125,-1152 125,-1220"/>
<text text-anchor="start" x="43.25" y="-1206.5" font-family="Helvetica,sans-Serif" font-size="10.00">hri::DeviceQueue</text>
<text text-anchor="start" x="39" y="-1190.5" font-family="Helvetica,sans-Serif" font-size="10.00">+</text>
<text text-anchor="start" x="49" y="-1190.5" font-family="Helvetica,sans-Serif" font-size="10.00">uint32_t family</text>
<text text-anchor="start" x="39" y="-1174.5" font-family="Helvetica,sans-Serif" font-size="10.00">+</text>
<text text-anchor="start" x="49" y="-1174.5" font-family="Helvetica,sans-Serif" font-size="10.00">VkQueue handle</text>
<text text-anchor="start" x="78.5" y="-1158.5" font-family="Helvetica,sans-Serif" font-size="10.00"> </text>
<polygon fill="#666666" stroke="#666666" points="35,-1202 35,-1202 125,-1202 125,-1202 35,-1202"/>
<polygon fill="#666666" stroke="#666666" points="35,-1170 35,-1170 47,-1170 47,-1170 35,-1170"/>
<polygon fill="#666666" stroke="#666666" points="47,-1170 47,-1170 125,-1170 125,-1170 47,-1170"/>
<polygon fill="none" stroke="#666666" points="35,-1152 35,-1220 125,-1220 125,-1152 35,-1152"/>
</a>
</g>
</g>
<!-- Node5&#45;&gt;Node4 -->
<g id="edge4_Node000004_Node000005" class="edge">
<title>Node5&#45;&gt;Node4</title>
<g id="a_edge4_Node000004_Node000005"><a xlink:title=" ">
<path fill="none" stroke="#63b8ff" d="M80,-1152.22C80,-1131.7 80,-1104.7 80,-1080.68"/>
<polygon fill="none" stroke="#63b8ff" points="80,-1080.61 76,-1074.61 80,-1068.61 84,-1074.61 80,-1080.61"/>
</a>
</g>
<text text-anchor="middle" x="117.5" y="-1124.5" font-family="Helvetica,sans-Serif" font-size="10.00" fill="grey"> +computeQueue</text>
<text text-anchor="middle" x="117.5" y="-1112.5" font-family="Helvetica,sans-Serif" font-size="10.00" fill="grey">+graphicsQueue</text>
<text text-anchor="middle" x="117.5" y="-1100.5" font-family="Helvetica,sans-Serif" font-size="10.00" fill="grey">+presentQueue</text>
<text text-anchor="middle" x="117.5" y="-1088.5" font-family="Helvetica,sans-Serif" font-size="10.00" fill="grey">+transferQueue</text>
</g>
<!-- Node6 -->
<g id="Node000006" class="node">
<title>Node6</title>
<g id="a_Node000006"><a xlink:href="classhri__debug_1_1_debug_label_handler.html" target="_top" xlink:title="The debug label handler allows setting debug labels for Vulkan objects.">
<polygon fill="white" stroke="none" points="361.5,-816 178.5,-816 178.5,-616 361.5,-616 361.5,-816"/>
<text text-anchor="start" x="204" y="-802.5" font-family="Helvetica,sans-Serif" font-size="10.00">hri_debug::DebugLabelHandler</text>
<text text-anchor="start" x="182.88" y="-786.5" font-family="Helvetica,sans-Serif" font-size="10.00">#</text>
<text text-anchor="start" x="192.5" y="-786.5" font-family="Helvetica,sans-Serif" font-size="10.00">PFN_vkCmdBeginDebugUtils</text>
<text text-anchor="start" x="192.5" y="-774.5" font-family="Helvetica,sans-Serif" font-size="10.00">LabelEXT vkBeginDebugUtilsLabelEXT</text>
<text text-anchor="start" x="182.88" y="-758.5" font-family="Helvetica,sans-Serif" font-size="10.00">#</text>
<text text-anchor="start" x="192.5" y="-758.5" font-family="Helvetica,sans-Serif" font-size="10.00">PFN_vkCmdEndDebugUtilsLabel</text>
<text text-anchor="start" x="192.5" y="-746.5" font-family="Helvetica,sans-Serif" font-size="10.00">EXT vkEndDebugUtilsLabelEXT</text>
<text text-anchor="start" x="182.5" y="-730.5" font-family="Helvetica,sans-Serif" font-size="10.00">+</text>
<text text-anchor="start" x="192.5" y="-730.5" font-family="Helvetica,sans-Serif" font-size="10.00">DebugLabelHandler</text>
<text text-anchor="start" x="192.5" y="-718.5" font-family="Helvetica,sans-Serif" font-size="10.00">(RenderContext &amp;ctx)</text>
<text text-anchor="start" x="182.5" y="-702.5" font-family="Helvetica,sans-Serif" font-size="10.00">+</text>
<text text-anchor="start" x="192.5" y="-702.5" font-family="Helvetica,sans-Serif" font-size="10.00">virtual ~DebugLabelHandler</text>
<text text-anchor="start" x="192.5" y="-690.5" font-family="Helvetica,sans-Serif" font-size="10.00">()=default</text>
<text text-anchor="start" x="182.5" y="-674.5" font-family="Helvetica,sans-Serif" font-size="10.00">+</text>
<text text-anchor="start" x="192.5" y="-674.5" font-family="Helvetica,sans-Serif" font-size="10.00">void cmdBeginLabel</text>
<text text-anchor="start" x="192.5" y="-662.5" font-family="Helvetica,sans-Serif" font-size="10.00">(VkCommandBuffer commandBuffer,</text>
<text text-anchor="start" x="192.5" y="-650.5" font-family="Helvetica,sans-Serif" font-size="10.00"> const char *pName) const</text>
<text text-anchor="start" x="182.5" y="-634.5" font-family="Helvetica,sans-Serif" font-size="10.00">+</text>
<text text-anchor="start" x="192.5" y="-634.5" font-family="Helvetica,sans-Serif" font-size="10.00">void cmdEndLabel(VkCommand</text>
<text text-anchor="start" x="192.5" y="-622.5" font-family="Helvetica,sans-Serif" font-size="10.00">Buffer commandBuffer) const</text>
<polygon fill="#666666" stroke="#666666" points="178.5,-798 178.5,-798 361.5,-798 361.5,-798 178.5,-798"/>
<polygon fill="#666666" stroke="#666666" points="178.5,-742 178.5,-742 190.5,-742 190.5,-742 178.5,-742"/>
<polygon fill="#666666" stroke="#666666" points="190.5,-742 190.5,-742 361.5,-742 361.5,-742 190.5,-742"/>
<polygon fill="none" stroke="#666666" points="178.5,-616 178.5,-816 361.5,-816 361.5,-616 178.5,-616"/>
</a>
</g>
</g>
<!-- Node6&#45;&gt;Node2 -->
<g id="edge5_Node000002_Node000006" class="edge">
<title>Node6&#45;&gt;Node2</title>
<g id="a_edge5_Node000002_Node000006"><a xlink:title=" ">
<path fill="none" stroke="#63b8ff" d="M270,-616.23C270,-570.44 270,-515.83 270,-468.56"/>
<polygon fill="none" stroke="#63b8ff" points="270,-468.66 266,-462.66 270,-456.66 274,-462.66 270,-468.66"/>
</a>
</g>
<text text-anchor="middle" x="294" y="-476.5" font-family="Helvetica,sans-Serif" font-size="10.00" fill="grey"> #m_debug</text>
</g>
<!-- Node7 -->
<g id="Node000007" class="node">
<title>Node7</title>
<g id="a_Node000007"><a xlink:href="structhri_1_1_pipeline_state_object.html" target="_top" xlink:title="A pipeline state object (PSO) stores a pipeline and its bind point.">
<polygon fill="white" stroke="none" points="492,-756 380,-756 380,-676 492,-676 492,-756"/>
<text text-anchor="start" x="384.62" y="-742.5" font-family="Helvetica,sans-Serif" font-size="10.00">hri::PipelineStateObject</text>
<text text-anchor="start" x="385.5" y="-726.5" font-family="Helvetica,sans-Serif" font-size="10.00">+</text>
<text text-anchor="start" x="397" y="-726.5" font-family="Helvetica,sans-Serif" font-size="10.00">VkPipelineBindPoint</text>
<text text-anchor="start" x="397" y="-714.5" font-family="Helvetica,sans-Serif" font-size="10.00"> bindPoint</text>
<text text-anchor="start" x="385.5" y="-698.5" font-family="Helvetica,sans-Serif" font-size="10.00">+</text>
<text text-anchor="start" x="397" y="-698.5" font-family="Helvetica,sans-Serif" font-size="10.00">VkPipeline pipeline</text>
<text text-anchor="start" x="434.5" y="-682.5" font-family="Helvetica,sans-Serif" font-size="10.00"> </text>
<polygon fill="#666666" stroke="#666666" points="380,-738 380,-738 492,-738 492,-738 380,-738"/>
<polygon fill="#666666" stroke="#666666" points="380,-694 380,-694 395,-694 395,-694 380,-694"/>
<polygon fill="#666666" stroke="#666666" points="395,-694 395,-694 492,-694 492,-694 395,-694"/>
<polygon fill="none" stroke="#666666" points="380,-676 380,-756 492,-756 492,-676 380,-676"/>
</a>
</g>
</g>
<!-- Node7&#45;&gt;Node2 -->
<g id="edge6_Node000002_Node000007" class="edge">
<title>Node7&#45;&gt;Node2</title>
<g id="a_edge6_Node000002_Node000007"><a xlink:title=" ">
<path fill="none" stroke="#63b8ff" d="M427.54,-676.37C417.25,-633.05 397.73,-561.36 370,-504 363.97,-491.53 356.99,-478.92 349.57,-466.6"/>
<polygon fill="none" stroke="#63b8ff" points="349.71,-466.84 343.16,-463.83 343.42,-456.62 349.97,-459.63 349.71,-466.84"/>
</a>
</g>
<text text-anchor="middle" x="383" y="-476.5" font-family="Helvetica,sans-Serif" font-size="10.00" fill="grey"> #m_pPSO</text>
</g>
<!-- Node8 -->
<g id="Node000008" class="node">
<title>Node8</title>
<g id="a_Node000008"><a xlink:href="struct_present_frame_info.html" target="_top" xlink:title=" ">
<polygon fill="white" stroke="none" points="520.5,-388 375.5,-388 375.5,-324 520.5,-324 520.5,-388"/>
<text text-anchor="start" x="409.75" y="-374.5" font-family="Helvetica,sans-Serif" font-size="10.00">PresentFrameInfo</text>
<text text-anchor="start" x="379.5" y="-358.5" font-family="Helvetica,sans-Serif" font-size="10.00">+</text>
<text text-anchor="start" x="389.5" y="-358.5" font-family="Helvetica,sans-Serif" font-size="10.00">VkDescriptorSet presentInput</text>
<text text-anchor="start" x="389.5" y="-346.5" font-family="Helvetica,sans-Serif" font-size="10.00">SetHandle</text>
<text text-anchor="start" x="446.5" y="-330.5" font-family="Helvetica,sans-Serif" font-size="10.00"> </text>
<polygon fill="#666666" stroke="#666666" points="375.5,-370 375.5,-370 520.5,-370 520.5,-370 375.5,-370"/>
<polygon fill="#666666" stroke="#666666" points="375.5,-342 375.5,-342 387.5,-342 387.5,-342 375.5,-342"/>
<polygon fill="#666666" stroke="#666666" points="387.5,-342 387.5,-342 520.5,-342 520.5,-342 387.5,-342"/>
<polygon fill="none" stroke="#666666" points="375.5,-324 375.5,-388 520.5,-388 520.5,-324 375.5,-324"/>
</a>
</g>
</g>
<!-- Node8&#45;&gt;Node1 -->
<g id="edge7_Node000001_Node000008" class="edge">
<title>Node8&#45;&gt;Node1</title>
<g id="a_edge7_Node000001_Node000008"><a xlink:title=" ">
<path fill="none" stroke="#63b8ff" d="M437,-324.09C427.6,-297.69 413.47,-258 399.8,-219.62"/>
<polygon fill="none" stroke="#63b8ff" points="399.91,-219.92 394.13,-215.61 395.89,-208.62 401.67,-212.93 399.91,-219.92"/>
</a>
</g>
<text text-anchor="middle" x="454.25" y="-228.5" font-family="Helvetica,sans-Serif" font-size="10.00" fill="grey"> #m_currentFrameInfo</text>
</g>
</g>
</svg>
