<?xml version="1.0" encoding="UTF-8" standalone="no"?>
<!DOCTYPE svg PUBLIC "-//W3C//DTD SVG 1.1//EN"
 "http://www.w3.org/Graphics/SVG/1.1/DTD/svg11.dtd">
<!-- Generated by graphviz version 10.0.1 (20240210.2158)
 -->
<!-- Title: PresentationSubsystem::PresentationSubsystem Pages: 1 -->
<svg width="306pt" height="440pt"
 viewBox="0.00 0.00 306.25 440.00" xmlns="http://www.w3.org/2000/svg" xmlns:xlink="http://www.w3.org/1999/xlink">

<svg id="main" version="1.1" xmlns="http://www.w3.org/2000/svg" xmlns:xlink="http://www.w3.org/1999/xlink" xml:space="preserve" onload="init(evt)">
<style type="text/css"><![CDATA[
.node, .edge {opacity: 0.7;}
.node.selected, .edge.selected {opacity: 1;}
.edge:hover path { stroke: red; }
.edge:hover polygon { stroke: red; fill: red; }
]]></style>
<script type="application/ecmascript" xlink:href="svg.min.js"/>
<svg id="graph" class="graph">
<g id="graph0" class="graph" transform="scale(1 1) rotate(0) translate(4 436)">
<title>PresentationSubsystem::PresentationSubsystem</title>
<!-- Node1 -->
<g id="Node000001" class="node">
<title>Node1</title>
<g id="a_Node000001"><a xlink:title="Create a new Presentation Subsystem.">
<polygon fill="#999999" stroke="#666666" points="126.25,-232 0,-232 0,-200 126.25,-200 126.25,-232"/>
<text text-anchor="start" x="8" y="-218.5" font-family="Helvetica,sans-Serif" font-size="10.00">PresentationSubsystem</text>
<text text-anchor="middle" x="63.12" y="-206.5" font-family="Helvetica,sans-Serif" font-size="10.00">::PresentationSubsystem</text>
</a>
</g>
</g>
<!-- Node2 -->
<g id="Node000002" class="node">
<title>Node2</title>
<g id="a_Node000002"><a xlink:href="classhri_1_1_pipeline_layout_builder.html#aa7d886ec4265dc7dd15243401f8b23c6" target="_top" xlink:title="Add a new Descriptor Set Layout to the pipeline layout.">
<polygon fill="white" stroke="#666666" points="293.38,-432 167.12,-432 167.12,-400 293.38,-400 293.38,-432"/>
<text text-anchor="start" x="175.12" y="-418.5" font-family="Helvetica,sans-Serif" font-size="10.00">hri::PipelineLayoutBuilder</text>
<text text-anchor="middle" x="230.25" y="-406.5" font-family="Helvetica,sans-Serif" font-size="10.00">::addDescriptorSetLayout</text>
</a>
</g>
</g>
<!-- Node1&#45;&gt;Node2 -->
<g id="edge1_Node000001_Node000002" class="edge">
<title>Node1&#45;&gt;Node2</title>
<g id="a_edge1_Node000001_Node000002"><a xlink:title=" ">
<path fill="none" stroke="#63b8ff" d="M69.06,-232.49C80.12,-266.79 110.14,-346.35 162.25,-391 163.19,-391.81 164.16,-392.59 165.16,-393.35"/>
<polygon fill="#63b8ff" stroke="#63b8ff" points="163.14,-396.21 173.43,-398.72 166.95,-390.34 163.14,-396.21"/>
</a>
</g>
</g>
<!-- Node3 -->
<g id="Node000003" class="node">
<title>Node3</title>
<g id="a_Node000003"><a xlink:href="classhri_1_1_pipeline_layout_builder.html#ad88e3add16c5f341425531e1db34c77d" target="_top" xlink:title="Build the configured pipeline layout.">
<polygon fill="white" stroke="#666666" points="293.38,-382 167.12,-382 167.12,-350 293.38,-350 293.38,-382"/>
<text text-anchor="start" x="175.12" y="-368.5" font-family="Helvetica,sans-Serif" font-size="10.00">hri::PipelineLayoutBuilder</text>
<text text-anchor="middle" x="230.25" y="-356.5" font-family="Helvetica,sans-Serif" font-size="10.00">::build</text>
</a>
</g>
</g>
<!-- Node1&#45;&gt;Node3 -->
<g id="edge2_Node000001_Node000003" class="edge">
<title>Node1&#45;&gt;Node3</title>
<g id="a_edge2_Node000001_Node000003"><a xlink:title=" ">
<path fill="none" stroke="#63b8ff" d="M72.83,-232.13C87.79,-258.45 120.82,-310.72 162.25,-341 163.77,-342.11 165.34,-343.17 166.95,-344.19"/>
<polygon fill="#63b8ff" stroke="#63b8ff" points="164.83,-347.02 175.26,-348.85 168.25,-340.91 164.83,-347.02"/>
</a>
</g>
</g>
<!-- Node4 -->
<g id="Node000004" class="node">
<title>Node4</title>
<g id="a_Node000004"><a xlink:href="structhri_1_1_graphics_pipeline_builder.html#a6c9fa89e6b0675c7f460f67f2d674479" target="_top" xlink:title=" ">
<polygon fill="white" stroke="#666666" points="298.25,-332 162.25,-332 162.25,-300 298.25,-300 298.25,-332"/>
<text text-anchor="start" x="170.25" y="-318.5" font-family="Helvetica,sans-Serif" font-size="10.00">hri::GraphicsPipelineBuilder</text>
<text text-anchor="middle" x="230.25" y="-306.5" font-family="Helvetica,sans-Serif" font-size="10.00">::initColorBlendState</text>
</a>
</g>
</g>
<!-- Node1&#45;&gt;Node4 -->
<g id="edge3_Node000001_Node000004" class="edge">
<title>Node1&#45;&gt;Node4</title>
<g id="a_edge3_Node000001_Node000004"><a xlink:title=" ">
<path fill="none" stroke="#63b8ff" d="M82.15,-232.42C101.01,-248.94 132.04,-274.3 162.25,-291 164.72,-292.37 167.28,-293.69 169.9,-294.96"/>
<polygon fill="#63b8ff" stroke="#63b8ff" points="168.25,-298.06 178.81,-299 171.14,-291.68 168.25,-298.06"/>
</a>
</g>
</g>
<!-- Node5 -->
<g id="Node000005" class="node">
<title>Node5</title>
<g id="a_Node000005"><a xlink:href="structhri_1_1_graphics_pipeline_builder.html#aebf69250a889e1ac3196f3c54b147630" target="_top" xlink:title=" ">
<polygon fill="white" stroke="#666666" points="298.25,-282 162.25,-282 162.25,-250 298.25,-250 298.25,-282"/>
<text text-anchor="start" x="170.25" y="-268.5" font-family="Helvetica,sans-Serif" font-size="10.00">hri::GraphicsPipelineBuilder</text>
<text text-anchor="middle" x="230.25" y="-256.5" font-family="Helvetica,sans-Serif" font-size="10.00">::initDefaultScissor</text>
</a>
</g>
</g>
<!-- Node1&#45;&gt;Node5 -->
<g id="edge4_Node000001_Node000005" class="edge">
<title>Node1&#45;&gt;Node5</title>
<g id="a_edge4_Node000001_Node000005"><a xlink:title=" ">
<path fill="none" stroke="#63b8ff" d="M118.19,-232.37C132.8,-236.8 148.76,-241.63 163.92,-246.22"/>
<polygon fill="#63b8ff" stroke="#63b8ff" points="162.74,-249.52 173.33,-249.07 164.77,-242.82 162.74,-249.52"/>
</a>
</g>
</g>
<!-- Node6 -->
<g id="Node000006" class="node">
<title>Node6</title>
<g id="a_Node000006"><a xlink:href="structhri_1_1_graphics_pipeline_builder.html#a50539a9cc2f38a2da3416d07f069e8b3" target="_top" xlink:title=" ">
<polygon fill="white" stroke="#666666" points="298.25,-232 162.25,-232 162.25,-200 298.25,-200 298.25,-232"/>
<text text-anchor="start" x="170.25" y="-218.5" font-family="Helvetica,sans-Serif" font-size="10.00">hri::GraphicsPipelineBuilder</text>
<text text-anchor="middle" x="230.25" y="-206.5" font-family="Helvetica,sans-Serif" font-size="10.00">::initDefaultViewport</text>
</a>
</g>
</g>
<!-- Node1&#45;&gt;Node6 -->
<g id="edge5_Node000001_Node000006" class="edge">
<title>Node1&#45;&gt;Node6</title>
<g id="a_edge5_Node000001_Node000006"><a xlink:title=" ">
<path fill="none" stroke="#63b8ff" d="M126.55,-216C134.37,-216 142.45,-216 150.48,-216"/>
<polygon fill="#63b8ff" stroke="#63b8ff" points="150.26,-219.5 160.26,-216 150.26,-212.5 150.26,-219.5"/>
</a>
</g>
</g>
<!-- Node7 -->
<g id="Node000007" class="node">
<title>Node7</title>
<g id="a_Node000007"><a xlink:href="structhri_1_1_graphics_pipeline_builder.html#abd3ba37381aa860148b95c6feb6ca129" target="_top" xlink:title=" ">
<polygon fill="white" stroke="#666666" points="298.25,-182 162.25,-182 162.25,-150 298.25,-150 298.25,-182"/>
<text text-anchor="start" x="170.25" y="-168.5" font-family="Helvetica,sans-Serif" font-size="10.00">hri::GraphicsPipelineBuilder</text>
<text text-anchor="middle" x="230.25" y="-156.5" font-family="Helvetica,sans-Serif" font-size="10.00">::initDepthStencilState</text>
</a>
</g>
</g>
<!-- Node1&#45;&gt;Node7 -->
<g id="edge6_Node000001_Node000007" class="edge">
<title>Node1&#45;&gt;Node7</title>
<g id="a_edge6_Node000001_Node000007"><a xlink:title=" ">
<path fill="none" stroke="#63b8ff" d="M118.19,-199.63C132.8,-195.2 148.76,-190.37 163.92,-185.78"/>
<polygon fill="#63b8ff" stroke="#63b8ff" points="164.77,-189.18 173.33,-182.93 162.74,-182.48 164.77,-189.18"/>
</a>
</g>
</g>
<!-- Node8 -->
<g id="Node000008" class="node">
<title>Node8</title>
<g id="a_Node000008"><a xlink:href="structhri_1_1_graphics_pipeline_builder.html#ac7a8817225341e5268221226e0040b3b" target="_top" xlink:title=" ">
<polygon fill="white" stroke="#666666" points="298.25,-132 162.25,-132 162.25,-100 298.25,-100 298.25,-132"/>
<text text-anchor="start" x="170.25" y="-118.5" font-family="Helvetica,sans-Serif" font-size="10.00">hri::GraphicsPipelineBuilder</text>
<text text-anchor="middle" x="230.25" y="-106.5" font-family="Helvetica,sans-Serif" font-size="10.00">::initInputAssemblyState</text>
</a>
</g>
</g>
<!-- Node1&#45;&gt;Node8 -->
<g id="edge7_Node000001_Node000008" class="edge">
<title>Node1&#45;&gt;Node8</title>
<g id="a_edge7_Node000001_Node000008"><a xlink:title=" ">
<path fill="none" stroke="#63b8ff" d="M82.15,-199.58C101.01,-183.06 132.04,-157.7 162.25,-141 164.72,-139.63 167.28,-138.31 169.9,-137.04"/>
<polygon fill="#63b8ff" stroke="#63b8ff" points="171.14,-140.32 178.81,-133 168.25,-133.94 171.14,-140.32"/>
</a>
</g>
</g>
<!-- Node9 -->
<g id="Node000009" class="node">
<title>Node9</title>
<g id="a_Node000009"><a xlink:href="structhri_1_1_graphics_pipeline_builder.html#ac0e003f458114cb94bdce9d73d6b6526" target="_top" xlink:title=" ">
<polygon fill="white" stroke="#666666" points="298.25,-82 162.25,-82 162.25,-50 298.25,-50 298.25,-82"/>
<text text-anchor="start" x="170.25" y="-68.5" font-family="Helvetica,sans-Serif" font-size="10.00">hri::GraphicsPipelineBuilder</text>
<text text-anchor="middle" x="230.25" y="-56.5" font-family="Helvetica,sans-Serif" font-size="10.00">::initMultisampleState</text>
</a>
</g>
</g>
<!-- Node1&#45;&gt;Node9 -->
<g id="edge8_Node000001_Node000009" class="edge">
<title>Node1&#45;&gt;Node9</title>
<g id="a_edge8_Node000001_Node000009"><a xlink:title=" ">
<path fill="none" stroke="#63b8ff" d="M72.83,-199.87C87.79,-173.55 120.82,-121.28 162.25,-91 163.77,-89.89 165.34,-88.83 166.95,-87.81"/>
<polygon fill="#63b8ff" stroke="#63b8ff" points="168.25,-91.09 175.26,-83.15 164.83,-84.98 168.25,-91.09"/>
</a>
</g>
</g>
<!-- Node10 -->
<g id="Node000010" class="node">
<title>Node10</title>
<g id="a_Node000010"><a xlink:href="structhri_1_1_graphics_pipeline_builder.html#aaaa7a563067832f496b46ee8174db0ec" target="_top" xlink:title=" ">
<polygon fill="white" stroke="#666666" points="298.25,-32 162.25,-32 162.25,0 298.25,0 298.25,-32"/>
<text text-anchor="start" x="170.25" y="-18.5" font-family="Helvetica,sans-Serif" font-size="10.00">hri::GraphicsPipelineBuilder</text>
<text text-anchor="middle" x="230.25" y="-6.5" font-family="Helvetica,sans-Serif" font-size="10.00">::initRasterizationState</text>
</a>
</g>
</g>
<!-- Node1&#45;&gt;Node10 -->
<g id="edge9_Node000001_Node000010" class="edge">
<title>Node1&#45;&gt;Node10</title>
<g id="a_edge9_Node000001_Node000010"><a xlink:title=" ">
<path fill="none" stroke="#63b8ff" d="M69.06,-199.51C80.12,-165.21 110.14,-85.65 162.25,-41 163.19,-40.19 164.16,-39.41 165.16,-38.65"/>
<polygon fill="#63b8ff" stroke="#63b8ff" points="166.95,-41.66 173.43,-33.28 163.14,-35.79 166.95,-41.66"/>
</a>
</g>
</g>
</g>
</svg>
</svg>

<style type='text/css'>
<![CDATA[
[data-mouse-over-selected='false'] { opacity: 0.7; }
[data-mouse-over-selected='true']  { opacity: 1.0; }
]]>
</style>
<script type="application/ecmascript"><![CDATA[
document.addEventListener('DOMContentLoaded', (event) => {
  highlightEdges();
  highlightAdjacentNodes();
});
]]></script>
</svg>
