<?xml version="1.0" encoding="UTF-8" standalone="no"?>
<!DOCTYPE svg PUBLIC "-//W3C//DTD SVG 1.1//EN"
 "http://www.w3.org/Graphics/SVG/1.1/DTD/svg11.dtd">
<!-- Generated by graphviz version 10.0.1 (20240210.2158)
 -->
<!-- Title: hri::IRenderSubsystem Pages: 1 -->
<!--zoomable 544 -->

<svg id="main" version="1.1" xmlns="http://www.w3.org/2000/svg" xmlns:xlink="http://www.w3.org/1999/xlink" xml:space="preserve" onload="init(evt)">
<style type="text/css"><![CDATA[
.node, .edge {opacity: 0.7;}
.node.selected, .edge.selected {opacity: 1;}
.edge:hover path { stroke: red; }
.edge:hover polygon { stroke: red; fill: red; }
]]></style>

<defs>
  <circle id="rim" cx="0" cy="0" r="7"/>
  <circle id="rim2" cx="0" cy="0" r="3.5"/>
  <g id="zoomPlus">
    <use xlink:href="#rim" fill="#404040"><set attributeName="fill" to="#808080" begin="zoomplus.mouseover" end="zoomplus.mouseout"/></use>
    <path d="M-4,0h8M0,-4v8" fill="none" stroke="white" stroke-width="1.5" pointer-events="none"/>
  </g>
  <g id="zoomMin">
    <use xlink:href="#rim" fill="#404040"><set attributeName="fill" to="#808080" begin="zoomminus.mouseover" end="zoomminus.mouseout"/></use>
    <path d="M-4,0h8" fill="none" stroke="white" stroke-width="1.5" pointer-events="none"/>
  </g>
  <g id="arrowUp" transform="translate(30 24)">
    <use xlink:href="#rim"/>
    <path pointer-events="none" fill="none" stroke="white" stroke-width="1.5" d="M0,-3.0v7 M-2.5,-0.5L0,-3.0L2.5,-0.5"/>
  </g>
  <g id="arrowRight" transform="rotate(90) translate(36 -43)">
    <use xlink:href="#rim"/>
    <path pointer-events="none" fill="none" stroke="white" stroke-width="1.5" d="M0,-3.0v7 M-2.5,-0.5L0,-3.0L2.5,-0.5"/>
  </g>
  <g id="arrowDown" transform="rotate(180) translate(-30 -48)">
    <use xlink:href="#rim"/>
    <path pointer-events="none" fill="none" stroke="white" stroke-width="1.5" d="M0,-3.0v7 M-2.5,-0.5L0,-3.0L2.5,-0.5"/>
  </g>
  <g id="arrowLeft" transform="rotate(270) translate(-36 17)">
    <use xlink:href="#rim"/>
    <path pointer-events="none" fill="none" stroke="white" stroke-width="1.5" d="M0,-3.0v7 M-2.5,-0.5L0,-3.0L2.5,-0.5"/>
  </g>
  <g id="resetDef">
    <use xlink:href="#rim2" fill="#404040"><set attributeName="fill" to="#808080" begin="reset.mouseover" end="reset.mouseout"/></use>
  </g>
</defs>
<script type="application/ecmascript">
var viewWidth = 654;
var viewHeight = 544;
var sectionId = 'dynsection-0';
</script>
<script type="application/ecmascript" xlink:href="svg.min.js"/>
<svg id="graph" class="graph">
<g id="viewport">
<title>hri::IRenderSubsystem</title>
<!-- Node1 -->
<g id="Node000001" class="node">
<title>Node1</title>
<g id="a_Node000001"><a xlink:title="A Render Subsystem manages a render pipeline, layout, and subsystem descriptors. A Render Subsystem b...">
<polygon fill="#999999" stroke="none" points="429.5,-536 254.5,-536 254.5,-252 429.5,-252 429.5,-536"/>
<text text-anchor="start" x="292.5" y="-522.5" font-family="Helvetica,sans-Serif" font-size="10.00">hri::IRenderSubsystem</text>
<text text-anchor="start" x="258.88" y="-506.5" font-family="Helvetica,sans-Serif" font-size="10.00">#</text>
<text text-anchor="start" x="268.5" y="-506.5" font-family="Helvetica,sans-Serif" font-size="10.00">RenderContext * m_pCtx</text>
<text text-anchor="start" x="258.88" y="-490.5" font-family="Helvetica,sans-Serif" font-size="10.00">#</text>
<text text-anchor="start" x="268.5" y="-490.5" font-family="Helvetica,sans-Serif" font-size="10.00">DescriptorSetAllocator</text>
<text text-anchor="start" x="268.5" y="-478.5" font-family="Helvetica,sans-Serif" font-size="10.00"> * m_pDescriptorSetAllocator</text>
<text text-anchor="start" x="258.88" y="-462.5" font-family="Helvetica,sans-Serif" font-size="10.00">#</text>
<text text-anchor="start" x="268.5" y="-462.5" font-family="Helvetica,sans-Serif" font-size="10.00">VkPipelineLayout m</text>
<text text-anchor="start" x="268.5" y="-450.5" font-family="Helvetica,sans-Serif" font-size="10.00">_layout</text>
<text text-anchor="start" x="258.88" y="-434.5" font-family="Helvetica,sans-Serif" font-size="10.00">#</text>
<text text-anchor="start" x="268.5" y="-434.5" font-family="Helvetica,sans-Serif" font-size="10.00">PipelineStateObject</text>
<text text-anchor="start" x="268.5" y="-422.5" font-family="Helvetica,sans-Serif" font-size="10.00"> * m_pPSO</text>
<text text-anchor="start" x="258.5" y="-406.5" font-family="Helvetica,sans-Serif" font-size="10.00">+</text>
<text text-anchor="start" x="268.5" y="-406.5" font-family="Helvetica,sans-Serif" font-size="10.00">IRenderSubsystem(Render</text>
<text text-anchor="start" x="268.5" y="-394.5" font-family="Helvetica,sans-Serif" font-size="10.00">Context *ctx, DescriptorSetAllocator</text>
<text text-anchor="start" x="268.5" y="-382.5" font-family="Helvetica,sans-Serif" font-size="10.00"> *descriptorSetAllocator)</text>
<text text-anchor="start" x="258.5" y="-366.5" font-family="Helvetica,sans-Serif" font-size="10.00">+</text>
<text text-anchor="start" x="268.5" y="-366.5" font-family="Helvetica,sans-Serif" font-size="10.00">virtual ~IRenderSubsystem()</text>
<text text-anchor="start" x="258.5" y="-350.5" font-family="Helvetica,sans-Serif" font-size="10.00">+</text>
<text text-anchor="start" x="268.5" y="-350.5" font-family="Helvetica,sans-Serif" font-size="10.00">IRenderSubsystem(const</text>
<text text-anchor="start" x="268.5" y="-338.5" font-family="Helvetica,sans-Serif" font-size="10.00"> IRenderSubsystem &amp;)=delete</text>
<text text-anchor="start" x="258.5" y="-322.5" font-family="Helvetica,sans-Serif" font-size="10.00">+</text>
<text text-anchor="start" x="268.5" y="-322.5" font-family="Helvetica,sans-Serif" font-size="10.00">IRenderSubsystem &amp;</text>
<text text-anchor="start" x="268.5" y="-310.5" font-family="Helvetica,sans-Serif" font-size="10.00"> operator=(const IRenderSubsystem</text>
<text text-anchor="start" x="268.5" y="-298.5" font-family="Helvetica,sans-Serif" font-size="10.00"> &amp;)=delete</text>
<text text-anchor="start" x="258.5" y="-282.5" font-family="Helvetica,sans-Serif" font-size="10.00">+</text>
<text text-anchor="start" x="268.5" y="-282.5" font-family="Helvetica,sans-Serif" font-size="10.00">virtual void record</text>
<text text-anchor="start" x="268.5" y="-270.5" font-family="Helvetica,sans-Serif" font-size="10.00">(ActiveFrame &amp;frame)</text>
<text text-anchor="start" x="268.5" y="-258.5" font-family="Helvetica,sans-Serif" font-size="10.00"> const =0</text>
<polygon fill="#666666" stroke="#666666" points="254.5,-518 254.5,-518 429.5,-518 429.5,-518 254.5,-518"/>
<polygon fill="#666666" stroke="#666666" points="254.5,-418 254.5,-418 266.5,-418 266.5,-418 254.5,-418"/>
<polygon fill="#666666" stroke="#666666" points="266.5,-418 266.5,-418 429.5,-418 429.5,-418 266.5,-418"/>
<polygon fill="none" stroke="#666666" points="254.5,-252 254.5,-536 429.5,-536 429.5,-252 254.5,-252"/>
</a>
</g>
</g>
<!-- Node2 -->
<g id="Node000002" class="node">
<title>Node2</title>
<g id="a_Node000002"><a xlink:href="class_g_buffer_layout_subsystem.html" target="_top" xlink:title=" ">
<polygon fill="white" stroke="none" points="216,-216 0,-216 0,0 216,0 216,-216"/>
<text text-anchor="start" x="52.5" y="-202.5" font-family="Helvetica,sans-Serif" font-size="10.00">GBufferLayoutSubsystem</text>
<text text-anchor="start" x="4.38" y="-186.5" font-family="Helvetica,sans-Serif" font-size="10.00">#</text>
<text text-anchor="start" x="14" y="-186.5" font-family="Helvetica,sans-Serif" font-size="10.00">hri::DescriptorSetManager</text>
<text text-anchor="start" x="14" y="-174.5" font-family="Helvetica,sans-Serif" font-size="10.00"> &amp; m_globalDescriptorSet</text>
<text text-anchor="start" x="4" y="-158.5" font-family="Helvetica,sans-Serif" font-size="10.00">+</text>
<text text-anchor="start" x="14" y="-158.5" font-family="Helvetica,sans-Serif" font-size="10.00">GBufferLayoutSubsystem</text>
<text text-anchor="start" x="14" y="-146.5" font-family="Helvetica,sans-Serif" font-size="10.00">(hri::RenderContext *ctx,</text>
<text text-anchor="start" x="14" y="-134.5" font-family="Helvetica,sans-Serif" font-size="10.00"> hri::DescriptorSetAllocator</text>
<text text-anchor="start" x="14" y="-122.5" font-family="Helvetica,sans-Serif" font-size="10.00"> *descriptorSetAllocator, hri</text>
<text text-anchor="start" x="14" y="-110.5" font-family="Helvetica,sans-Serif" font-size="10.00">::ShaderDatabase *shaderDB, VkRenderPass</text>
<text text-anchor="start" x="14" y="-98.5" font-family="Helvetica,sans-Serif" font-size="10.00"> renderPass, hri::DescriptorSetLayout</text>
<text text-anchor="start" x="14" y="-86.5" font-family="Helvetica,sans-Serif" font-size="10.00"> &amp;globalSetLayout, hri::DescriptorSetManager</text>
<text text-anchor="start" x="14" y="-74.5" font-family="Helvetica,sans-Serif" font-size="10.00"> &amp;globalDescriptorSet)</text>
<text text-anchor="start" x="4" y="-58.5" font-family="Helvetica,sans-Serif" font-size="10.00">+</text>
<text text-anchor="start" x="14" y="-58.5" font-family="Helvetica,sans-Serif" font-size="10.00">virtual ~GBufferLayoutSubsystem</text>
<text text-anchor="start" x="14" y="-46.5" font-family="Helvetica,sans-Serif" font-size="10.00">()=default</text>
<text text-anchor="start" x="4" y="-30.5" font-family="Helvetica,sans-Serif" font-size="10.00">+</text>
<text text-anchor="start" x="14" y="-30.5" font-family="Helvetica,sans-Serif" font-size="10.00">virtual void record</text>
<text text-anchor="start" x="14" y="-18.5" font-family="Helvetica,sans-Serif" font-size="10.00">(hri::ActiveFrame &amp;frame)</text>
<text text-anchor="start" x="14" y="-6.5" font-family="Helvetica,sans-Serif" font-size="10.00"> const override</text>
<polygon fill="#666666" stroke="#666666" points="0,-198 0,-198 216,-198 216,-198 0,-198"/>
<polygon fill="#666666" stroke="#666666" points="0,-170 0,-170 12,-170 12,-170 0,-170"/>
<polygon fill="#666666" stroke="#666666" points="12,-170 12,-170 216,-170 216,-170 12,-170"/>
<polygon fill="none" stroke="#666666" points="0,0 0,-216 216,-216 216,0 0,0"/>
</a>
</g>
</g>
<!-- Node1&#45;&gt;Node2 -->
<g id="edge1_Node000001_Node000002" class="edge">
<title>Node1&#45;&gt;Node2</title>
<g id="a_edge1_Node000001_Node000002"><a xlink:title=" ">
<path fill="none" stroke="#63b8ff" d="M247.33,-278.1C230.42,-257.58 212.86,-236.26 196.14,-215.97"/>
<polygon fill="none" stroke="#63b8ff" points="244.51,-280.18 253.57,-285.68 249.91,-275.73 244.51,-280.18"/>
</a>
</g>
</g>
<!-- Node3 -->
<g id="Node000003" class="node">
<title>Node3</title>
<g id="a_Node000003"><a xlink:href="class_presentation_subsystem.html" target="_top" xlink:title=" ">
<polygon fill="white" stroke="none" points="450,-216 234,-216 234,0 450,0 450,-216"/>
<text text-anchor="start" x="289.88" y="-202.5" font-family="Helvetica,sans-Serif" font-size="10.00">PresentationSubsystem</text>
<text text-anchor="start" x="238.38" y="-186.5" font-family="Helvetica,sans-Serif" font-size="10.00">#</text>
<text text-anchor="start" x="248" y="-186.5" font-family="Helvetica,sans-Serif" font-size="10.00">hri::DescriptorSetManager</text>
<text text-anchor="start" x="248" y="-174.5" font-family="Helvetica,sans-Serif" font-size="10.00"> &amp; m_globalDescriptorSet</text>
<text text-anchor="start" x="238" y="-158.5" font-family="Helvetica,sans-Serif" font-size="10.00">+</text>
<text text-anchor="start" x="248" y="-158.5" font-family="Helvetica,sans-Serif" font-size="10.00">PresentationSubsystem</text>
<text text-anchor="start" x="248" y="-146.5" font-family="Helvetica,sans-Serif" font-size="10.00">(hri::RenderContext *ctx,</text>
<text text-anchor="start" x="248" y="-134.5" font-family="Helvetica,sans-Serif" font-size="10.00"> hri::DescriptorSetAllocator</text>
<text text-anchor="start" x="248" y="-122.5" font-family="Helvetica,sans-Serif" font-size="10.00"> *descriptorSetAllocator, hri</text>
<text text-anchor="start" x="248" y="-110.5" font-family="Helvetica,sans-Serif" font-size="10.00">::ShaderDatabase *shaderDB, VkRenderPass</text>
<text text-anchor="start" x="248" y="-98.5" font-family="Helvetica,sans-Serif" font-size="10.00"> renderPass, hri::DescriptorSetLayout</text>
<text text-anchor="start" x="248" y="-86.5" font-family="Helvetica,sans-Serif" font-size="10.00"> &amp;globalSetLayout, hri::DescriptorSetManager</text>
<text text-anchor="start" x="248" y="-74.5" font-family="Helvetica,sans-Serif" font-size="10.00"> &amp;globalDescriptorSet)</text>
<text text-anchor="start" x="238" y="-58.5" font-family="Helvetica,sans-Serif" font-size="10.00">+</text>
<text text-anchor="start" x="248" y="-58.5" font-family="Helvetica,sans-Serif" font-size="10.00">virtual ~PresentationSubsystem</text>
<text text-anchor="start" x="248" y="-46.5" font-family="Helvetica,sans-Serif" font-size="10.00">()=default</text>
<text text-anchor="start" x="238" y="-30.5" font-family="Helvetica,sans-Serif" font-size="10.00">+</text>
<text text-anchor="start" x="248" y="-30.5" font-family="Helvetica,sans-Serif" font-size="10.00">virtual void record</text>
<text text-anchor="start" x="248" y="-18.5" font-family="Helvetica,sans-Serif" font-size="10.00">(hri::ActiveFrame &amp;frame)</text>
<text text-anchor="start" x="248" y="-6.5" font-family="Helvetica,sans-Serif" font-size="10.00"> const override</text>
<polygon fill="#666666" stroke="#666666" points="234,-198 234,-198 450,-198 450,-198 234,-198"/>
<polygon fill="#666666" stroke="#666666" points="234,-170 234,-170 246,-170 246,-170 234,-170"/>
<polygon fill="#666666" stroke="#666666" points="246,-170 246,-170 450,-170 450,-170 246,-170"/>
<polygon fill="none" stroke="#666666" points="234,0 234,-216 450,-216 450,0 234,0"/>
</a>
</g>
</g>
<!-- Node1&#45;&gt;Node3 -->
<g id="edge2_Node000001_Node000003" class="edge">
<title>Node1&#45;&gt;Node3</title>
<g id="a_edge2_Node000001_Node000003"><a xlink:title=" ">
<path fill="none" stroke="#63b8ff" d="M342,-240.75C342,-232.33 342,-223.96 342,-215.75"/>
<polygon fill="none" stroke="#63b8ff" points="338.5,-240.73 342,-250.73 345.5,-240.73 338.5,-240.73"/>
</a>
</g>
</g>
<!-- Node4 -->
<g id="Node000004" class="node">
<title>Node4</title>
<g id="a_Node000004"><a xlink:href="class_u_i_subsystem.html" target="_top" xlink:title=" ">
<polygon fill="white" stroke="none" points="645.5,-186 468.5,-186 468.5,-30 645.5,-30 645.5,-186"/>
<text text-anchor="start" x="527.75" y="-172.5" font-family="Helvetica,sans-Serif" font-size="10.00">UISubsystem</text>
<text text-anchor="start" x="555.5" y="-156.5" font-family="Helvetica,sans-Serif" font-size="10.00"> </text>
<text text-anchor="start" x="472.5" y="-140.5" font-family="Helvetica,sans-Serif" font-size="10.00">+</text>
<text text-anchor="start" x="482.5" y="-140.5" font-family="Helvetica,sans-Serif" font-size="10.00">UISubsystem(hri::Render</text>
<text text-anchor="start" x="482.5" y="-128.5" font-family="Helvetica,sans-Serif" font-size="10.00">Context *ctx, hri::Descriptor</text>
<text text-anchor="start" x="482.5" y="-116.5" font-family="Helvetica,sans-Serif" font-size="10.00">SetAllocator *descriptorSetAllocator,</text>
<text text-anchor="start" x="482.5" y="-104.5" font-family="Helvetica,sans-Serif" font-size="10.00"> hri::ShaderDatabase *shaderDB,</text>
<text text-anchor="start" x="482.5" y="-92.5" font-family="Helvetica,sans-Serif" font-size="10.00"> VkRenderPass renderPass)</text>
<text text-anchor="start" x="472.5" y="-76.5" font-family="Helvetica,sans-Serif" font-size="10.00">+</text>
<text text-anchor="start" x="482.5" y="-76.5" font-family="Helvetica,sans-Serif" font-size="10.00">virtual ~UISubsystem()</text>
<text text-anchor="start" x="472.5" y="-60.5" font-family="Helvetica,sans-Serif" font-size="10.00">+</text>
<text text-anchor="start" x="482.5" y="-60.5" font-family="Helvetica,sans-Serif" font-size="10.00">virtual void record</text>
<text text-anchor="start" x="482.5" y="-48.5" font-family="Helvetica,sans-Serif" font-size="10.00">(hri::ActiveFrame &amp;frame)</text>
<text text-anchor="start" x="482.5" y="-36.5" font-family="Helvetica,sans-Serif" font-size="10.00"> const override</text>
<polygon fill="#666666" stroke="#666666" points="468.5,-168 468.5,-168 645.5,-168 645.5,-168 468.5,-168"/>
<polygon fill="#666666" stroke="#666666" points="468.5,-152 468.5,-152 645.5,-152 645.5,-152 468.5,-152"/>
<polygon fill="none" stroke="#666666" points="468.5,-30 468.5,-186 645.5,-186 645.5,-30 468.5,-30"/>
</a>
</g>
</g>
<!-- Node1&#45;&gt;Node4 -->
<g id="edge3_Node000001_Node000004" class="edge">
<title>Node1&#45;&gt;Node4</title>
<g id="a_edge3_Node000001_Node000004"><a xlink:title=" ">
<path fill="none" stroke="#63b8ff" d="M436.33,-268.4C457.6,-240.29 479.58,-211.27 498.85,-185.81"/>
<polygon fill="none" stroke="#63b8ff" points="433.61,-266.19 430.36,-276.28 439.19,-270.42 433.61,-266.19"/>
</a>
</g>
</g>
</g>
</svg>

<g id="navigator" transform="translate(0 0)" fill="#404254">
  <rect fill="#f2f5e9" fill-opacity="0.5" stroke="#606060" stroke-width=".5" x="0" y="0" width="60" height="60"/>
  <use id="zoomplus" xlink:href="#zoomPlus" x="17" y="9" onmousedown="handleZoom(evt,'in')"/>
  <use id="zoomminus" xlink:href="#zoomMin" x="42" y="9" onmousedown="handleZoom(evt,'out')"/>
  <use id="reset" xlink:href="#resetDef" x="30" y="36" onmousedown="handleReset()"/>
   <use id="arrowup" xlink:href="#arrowUp" x="0" y="0" onmousedown="handlePan(0,-1)"/>
  <use id="arrowright" xlink:href="#arrowRight" x="0" y="0" onmousedown="handlePan(1,0)"/>
  <use id="arrowdown" xlink:href="#arrowDown" x="0" y="0" onmousedown="handlePan(0,1)"/>
  <use id="arrowleft" xlink:href="#arrowLeft" x="0" y="0" onmousedown="handlePan(-1,0)"/>
</g>
<svg viewBox="0 0 15 15" width="100%" height="30px" preserveAspectRatio="xMaxYMin meet">
 <g id="arrow_out" transform="scale(0.3 0.3)">
  <a xlink:href="classhri_1_1_i_render_subsystem__inherit__graph_org.svg" target="_base">
   <rect id="button" ry="5" rx="5" y="6" x="6" height="38" width="38"
        fill="#f2f5e9" fill-opacity="0.5" stroke="#606060" stroke-width="1.0"/>
   <path id="arrow"
     d="M 11.500037,31.436501 C 11.940474,20.09759 22.043105,11.32322 32.158766,21.979434 L 37.068811,17.246167 C 37.068811,17.246167 37.088388,32 37.088388,32 L 22.160133,31.978069 C 22.160133,31.978069 26.997745,27.140456 26.997745,27.140456 C 18.528582,18.264221 13.291696,25.230495 11.500037,31.436501 z"
     style="fill:#404040;"/>
  </a>
 </g>
</svg>

<style type='text/css'>
<![CDATA[
[data-mouse-over-selected='false'] { opacity: 0.7; }
[data-mouse-over-selected='true']  { opacity: 1.0; }
]]>
</style>
<script type="application/ecmascript"><![CDATA[
document.addEventListener('DOMContentLoaded', (event) => {
  highlightEdges();
  highlightAdjacentNodes();
});
]]></script>
</svg>
