<?xml version="1.0" encoding="UTF-8" standalone="no"?>
<!DOCTYPE svg PUBLIC "-//W3C//DTD SVG 1.1//EN"
 "http://www.w3.org/Graphics/SVG/1.1/DTD/svg11.dtd">
<!-- Generated by graphviz version 10.0.1 (20240210.2158)
 -->
<!-- Title: PresentationSubsystem Pages: 1 -->
<svg width="544pt" height="1312pt"
 viewBox="0.00 0.00 543.50 1312.00" xmlns="http://www.w3.org/2000/svg" xmlns:xlink="http://www.w3.org/1999/xlink">
<g id="graph0" class="graph" transform="scale(1 1) rotate(0) translate(4 1308)">
<title>PresentationSubsystem</title>
<!-- Node1 -->
<g id="Node000001" class="node">
<title>Node1</title>
<g id="a_Node000001"><a xlink:title=" ">
<polygon fill="#999999" stroke="none" points="462,-204 246,-204 246,0 462,0 462,-204"/>
<text text-anchor="start" x="301.88" y="-190.5" font-family="Helvetica,sans-Serif" font-size="10.00">PresentationSubsystem</text>
<text text-anchor="start" x="352.5" y="-174.5" font-family="Helvetica,sans-Serif" font-size="10.00"> </text>
<text text-anchor="start" x="250" y="-158.5" font-family="Helvetica,sans-Serif" font-size="10.00">+</text>
<text text-anchor="start" x="260" y="-158.5" font-family="Helvetica,sans-Serif" font-size="10.00">PresentationSubsystem</text>
<text text-anchor="start" x="260" y="-146.5" font-family="Helvetica,sans-Serif" font-size="10.00">(hri::RenderContext *ctx,</text>
<text text-anchor="start" x="260" y="-134.5" font-family="Helvetica,sans-Serif" font-size="10.00"> hri::DescriptorSetAllocator</text>
<text text-anchor="start" x="260" y="-122.5" font-family="Helvetica,sans-Serif" font-size="10.00"> *descriptorSetAllocator, hri</text>
<text text-anchor="start" x="260" y="-110.5" font-family="Helvetica,sans-Serif" font-size="10.00">::ShaderDatabase *shaderDB, VkRenderPass</text>
<text text-anchor="start" x="260" y="-98.5" font-family="Helvetica,sans-Serif" font-size="10.00"> renderPass, hri::DescriptorSetLayout</text>
<text text-anchor="start" x="260" y="-86.5" font-family="Helvetica,sans-Serif" font-size="10.00"> &amp;globalSetLayout, hri::DescriptorSetManager</text>
<text text-anchor="start" x="260" y="-74.5" font-family="Helvetica,sans-Serif" font-size="10.00"> &amp;globalDescriptorSet)</text>
<text text-anchor="start" x="250" y="-58.5" font-family="Helvetica,sans-Serif" font-size="10.00">+</text>
<text text-anchor="start" x="260" y="-58.5" font-family="Helvetica,sans-Serif" font-size="10.00">virtual ~PresentationSubsystem</text>
<text text-anchor="start" x="260" y="-46.5" font-family="Helvetica,sans-Serif" font-size="10.00">()=default</text>
<text text-anchor="start" x="250" y="-30.5" font-family="Helvetica,sans-Serif" font-size="10.00">+</text>
<text text-anchor="start" x="260" y="-30.5" font-family="Helvetica,sans-Serif" font-size="10.00">virtual void record</text>
<text text-anchor="start" x="260" y="-18.5" font-family="Helvetica,sans-Serif" font-size="10.00">(hri::ActiveFrame &amp;frame)</text>
<text text-anchor="start" x="260" y="-6.5" font-family="Helvetica,sans-Serif" font-size="10.00"> const override</text>
<polygon fill="#666666" stroke="#666666" points="246,-186 246,-186 462,-186 462,-186 246,-186"/>
<polygon fill="#666666" stroke="#666666" points="246,-170 246,-170 462,-170 462,-170 246,-170"/>
<polygon fill="none" stroke="#666666" points="246,0 246,-204 462,-204 462,0 246,0"/>
</a>
</g>
</g>
<!-- Node2 -->
<g id="Node000002" class="node">
<title>Node2</title>
<g id="a_Node000002"><a xlink:href="classhri_1_1_i_render_subsystem.html" target="_top" xlink:title="A Render Subsystem manages a render pipeline, layout, and subsystem descriptors. A Render Subsystem b...">
<polygon fill="white" stroke="none" points="346.5,-576 171.5,-576 171.5,-364 346.5,-364 346.5,-576"/>
<text text-anchor="start" x="209.5" y="-562.5" font-family="Helvetica,sans-Serif" font-size="10.00">hri::IRenderSubsystem</text>
<text text-anchor="start" x="175.88" y="-546.5" font-family="Helvetica,sans-Serif" font-size="10.00">#</text>
<text text-anchor="start" x="185.5" y="-546.5" font-family="Helvetica,sans-Serif" font-size="10.00">VkPipelineLayout m</text>
<text text-anchor="start" x="185.5" y="-534.5" font-family="Helvetica,sans-Serif" font-size="10.00">_layout</text>
<text text-anchor="start" x="175.5" y="-518.5" font-family="Helvetica,sans-Serif" font-size="10.00">+</text>
<text text-anchor="start" x="185.5" y="-518.5" font-family="Helvetica,sans-Serif" font-size="10.00">IRenderSubsystem(Render</text>
<text text-anchor="start" x="185.5" y="-506.5" font-family="Helvetica,sans-Serif" font-size="10.00">Context *ctx, DescriptorSetAllocator</text>
<text text-anchor="start" x="185.5" y="-494.5" font-family="Helvetica,sans-Serif" font-size="10.00"> *descriptorSetAllocator)</text>
<text text-anchor="start" x="175.5" y="-478.5" font-family="Helvetica,sans-Serif" font-size="10.00">+</text>
<text text-anchor="start" x="185.5" y="-478.5" font-family="Helvetica,sans-Serif" font-size="10.00">virtual ~IRenderSubsystem()</text>
<text text-anchor="start" x="175.5" y="-462.5" font-family="Helvetica,sans-Serif" font-size="10.00">+</text>
<text text-anchor="start" x="185.5" y="-462.5" font-family="Helvetica,sans-Serif" font-size="10.00">IRenderSubsystem(const</text>
<text text-anchor="start" x="185.5" y="-450.5" font-family="Helvetica,sans-Serif" font-size="10.00"> IRenderSubsystem &amp;)=delete</text>
<text text-anchor="start" x="175.5" y="-434.5" font-family="Helvetica,sans-Serif" font-size="10.00">+</text>
<text text-anchor="start" x="185.5" y="-434.5" font-family="Helvetica,sans-Serif" font-size="10.00">IRenderSubsystem &amp;</text>
<text text-anchor="start" x="185.5" y="-422.5" font-family="Helvetica,sans-Serif" font-size="10.00"> operator=(const IRenderSubsystem</text>
<text text-anchor="start" x="185.5" y="-410.5" font-family="Helvetica,sans-Serif" font-size="10.00"> &amp;)=delete</text>
<text text-anchor="start" x="175.5" y="-394.5" font-family="Helvetica,sans-Serif" font-size="10.00">+</text>
<text text-anchor="start" x="185.5" y="-394.5" font-family="Helvetica,sans-Serif" font-size="10.00">virtual void record</text>
<text text-anchor="start" x="185.5" y="-382.5" font-family="Helvetica,sans-Serif" font-size="10.00">(ActiveFrame &amp;frame)</text>
<text text-anchor="start" x="185.5" y="-370.5" font-family="Helvetica,sans-Serif" font-size="10.00"> const =0</text>
<polygon fill="#666666" stroke="#666666" points="171.5,-558 171.5,-558 346.5,-558 346.5,-558 171.5,-558"/>
<polygon fill="#666666" stroke="#666666" points="171.5,-530 171.5,-530 183.5,-530 183.5,-530 171.5,-530"/>
<polygon fill="#666666" stroke="#666666" points="183.5,-530 183.5,-530 346.5,-530 346.5,-530 183.5,-530"/>
<polygon fill="none" stroke="#666666" points="171.5,-364 171.5,-576 346.5,-576 346.5,-364 171.5,-364"/>
</a>
</g>
</g>
<!-- Node2&#45;&gt;Node1 -->
<g id="edge1_Node000001_Node000002" class="edge">
<title>Node2&#45;&gt;Node1</title>
<g id="a_edge1_Node000001_Node000002"><a xlink:title=" ">
<path fill="none" stroke="#63b8ff" d="M289.1,-353.05C301.54,-305.11 315.84,-250.03 327.84,-203.8"/>
<polygon fill="none" stroke="#63b8ff" points="285.73,-352.1 286.6,-362.65 292.5,-353.85 285.73,-352.1"/>
</a>
</g>
</g>
<!-- Node3 -->
<g id="Node000003" class="node">
<title>Node3</title>
<g id="a_Node000003"><a xlink:href="classhri_1_1_render_context.html" target="_top" xlink:title="THe RenderContext manages the Vulkan instance, device, and swapchain state.">
<polygon fill="white" stroke="none" points="160,-1036 0,-1036 0,-736 160,-736 160,-1036"/>
<text text-anchor="start" x="39.5" y="-1022.5" font-family="Helvetica,sans-Serif" font-size="10.00">hri::RenderContext</text>
<text text-anchor="start" x="4" y="-1006.5" font-family="Helvetica,sans-Serif" font-size="10.00">+</text>
<text text-anchor="start" x="14" y="-1006.5" font-family="Helvetica,sans-Serif" font-size="10.00">vkb::Instance instance</text>
<text text-anchor="start" x="4" y="-990.5" font-family="Helvetica,sans-Serif" font-size="10.00">+</text>
<text text-anchor="start" x="14" y="-990.5" font-family="Helvetica,sans-Serif" font-size="10.00">VkSurfaceKHR surface</text>
<text text-anchor="start" x="4" y="-974.5" font-family="Helvetica,sans-Serif" font-size="10.00">+</text>
<text text-anchor="start" x="14" y="-974.5" font-family="Helvetica,sans-Serif" font-size="10.00">vkb::PhysicalDevice gpu</text>
<text text-anchor="start" x="4" y="-958.5" font-family="Helvetica,sans-Serif" font-size="10.00">+</text>
<text text-anchor="start" x="14" y="-958.5" font-family="Helvetica,sans-Serif" font-size="10.00">vkb::Device device</text>
<text text-anchor="start" x="4" y="-942.5" font-family="Helvetica,sans-Serif" font-size="10.00">+</text>
<text text-anchor="start" x="14" y="-942.5" font-family="Helvetica,sans-Serif" font-size="10.00">VmaAllocator allocator</text>
<text text-anchor="start" x="4" y="-926.5" font-family="Helvetica,sans-Serif" font-size="10.00">+</text>
<text text-anchor="start" x="14" y="-926.5" font-family="Helvetica,sans-Serif" font-size="10.00">vkb::Swapchain swapchain</text>
<text text-anchor="start" x="4" y="-910.5" font-family="Helvetica,sans-Serif" font-size="10.00">+</text>
<text text-anchor="start" x="14" y="-910.5" font-family="Helvetica,sans-Serif" font-size="10.00">RenderContext(RenderContext</text>
<text text-anchor="start" x="14" y="-898.5" font-family="Helvetica,sans-Serif" font-size="10.00">CreateInfo createInfo)</text>
<text text-anchor="start" x="4" y="-882.5" font-family="Helvetica,sans-Serif" font-size="10.00">+</text>
<text text-anchor="start" x="14" y="-882.5" font-family="Helvetica,sans-Serif" font-size="10.00">virtual ~RenderContext()</text>
<text text-anchor="start" x="4" y="-866.5" font-family="Helvetica,sans-Serif" font-size="10.00">+</text>
<text text-anchor="start" x="14" y="-866.5" font-family="Helvetica,sans-Serif" font-size="10.00">RenderContext(const</text>
<text text-anchor="start" x="14" y="-854.5" font-family="Helvetica,sans-Serif" font-size="10.00"> RenderContext &amp;)=delete</text>
<text text-anchor="start" x="4" y="-838.5" font-family="Helvetica,sans-Serif" font-size="10.00">+</text>
<text text-anchor="start" x="14" y="-838.5" font-family="Helvetica,sans-Serif" font-size="10.00">RenderContext &amp; operator</text>
<text text-anchor="start" x="14" y="-826.5" font-family="Helvetica,sans-Serif" font-size="10.00">=(const RenderContext &amp;)</text>
<text text-anchor="start" x="14" y="-814.5" font-family="Helvetica,sans-Serif" font-size="10.00">=delete</text>
<text text-anchor="start" x="4" y="-798.5" font-family="Helvetica,sans-Serif" font-size="10.00">+</text>
<text text-anchor="start" x="14" y="-798.5" font-family="Helvetica,sans-Serif" font-size="10.00">void setVSyncMode(VSyncMode</text>
<text text-anchor="start" x="14" y="-786.5" font-family="Helvetica,sans-Serif" font-size="10.00"> vsyncMode)</text>
<text text-anchor="start" x="4" y="-770.5" font-family="Helvetica,sans-Serif" font-size="10.00">+</text>
<text text-anchor="start" x="14" y="-770.5" font-family="Helvetica,sans-Serif" font-size="10.00">void recreateSwapchain()</text>
<text text-anchor="start" x="4" y="-754.5" font-family="Helvetica,sans-Serif" font-size="10.00">+</text>
<text text-anchor="start" x="14" y="-754.5" font-family="Helvetica,sans-Serif" font-size="10.00">VkFormat swapFormat</text>
<text text-anchor="start" x="14" y="-742.5" font-family="Helvetica,sans-Serif" font-size="10.00">() const</text>
<polygon fill="#666666" stroke="#666666" points="0,-1018 0,-1018 160,-1018 160,-1018 0,-1018"/>
<polygon fill="#666666" stroke="#666666" points="0,-922 0,-922 12,-922 12,-922 0,-922"/>
<polygon fill="#666666" stroke="#666666" points="12,-922 12,-922 160,-922 160,-922 12,-922"/>
<polygon fill="none" stroke="#666666" points="0,-736 0,-1036 160,-1036 160,-736 0,-736"/>
</a>
</g>
</g>
<!-- Node3&#45;&gt;Node2 -->
<g id="edge2_Node000002_Node000003" class="edge">
<title>Node3&#45;&gt;Node2</title>
<g id="a_edge2_Node000002_Node000003"><a xlink:title=" ">
<path fill="none" stroke="#63b8ff" d="M144.37,-736.12C165.48,-687.29 188.63,-633.76 208.56,-587.66"/>
<polygon fill="none" stroke="#63b8ff" points="208.57,-587.64 207.28,-580.55 213.33,-576.63 214.62,-583.72 208.57,-587.64"/>
</a>
</g>
<text text-anchor="middle" x="175" y="-708.5" font-family="Helvetica,sans-Serif" font-size="10.00" fill="grey"> #m_pCtx</text>
</g>
<!-- Node4 -->
<g id="Node000004" class="node">
<title>Node4</title>
<g id="a_Node000004"><a xlink:href="classhri_1_1_render_context_queue_state.html" target="_top" xlink:title="The context queue state creates and maintains the device queue setup.">
<polygon fill="white" stroke="none" points="151,-1176 9,-1176 9,-1084 151,-1084 151,-1176"/>
<text text-anchor="start" x="13.62" y="-1162.5" font-family="Helvetica,sans-Serif" font-size="10.00">hri::RenderContextQueueState</text>
<text text-anchor="start" x="78.5" y="-1146.5" font-family="Helvetica,sans-Serif" font-size="10.00"> </text>
<text text-anchor="start" x="15" y="-1130.5" font-family="Helvetica,sans-Serif" font-size="10.00">+</text>
<text text-anchor="start" x="27" y="-1130.5" font-family="Helvetica,sans-Serif" font-size="10.00">RenderContextQueueState</text>
<text text-anchor="start" x="27" y="-1118.5" font-family="Helvetica,sans-Serif" font-size="10.00">()=default</text>
<text text-anchor="start" x="15" y="-1102.5" font-family="Helvetica,sans-Serif" font-size="10.00">+</text>
<text text-anchor="start" x="27" y="-1102.5" font-family="Helvetica,sans-Serif" font-size="10.00">RenderContextQueueState</text>
<text text-anchor="start" x="27" y="-1090.5" font-family="Helvetica,sans-Serif" font-size="10.00">(vkb::Device device)</text>
<polygon fill="#666666" stroke="#666666" points="9,-1158 9,-1158 151,-1158 151,-1158 9,-1158"/>
<polygon fill="#666666" stroke="#666666" points="9,-1142 9,-1142 151,-1142 151,-1142 9,-1142"/>
<polygon fill="none" stroke="#666666" points="9,-1084 9,-1176 151,-1176 151,-1084 9,-1084"/>
</a>
</g>
</g>
<!-- Node4&#45;&gt;Node3 -->
<g id="edge3_Node000003_Node000004" class="edge">
<title>Node4&#45;&gt;Node3</title>
<g id="a_edge3_Node000003_Node000004"><a xlink:title=" ">
<path fill="none" stroke="#63b8ff" d="M80,-1084.05C80,-1073.39 80,-1061.4 80,-1048.74"/>
<polygon fill="none" stroke="#63b8ff" points="80,-1048.78 76,-1042.78 80,-1036.78 84,-1042.78 80,-1048.78"/>
</a>
</g>
<text text-anchor="middle" x="100.25" y="-1056.5" font-family="Helvetica,sans-Serif" font-size="10.00" fill="grey"> +queues</text>
</g>
<!-- Node5 -->
<g id="Node000005" class="node">
<title>Node5</title>
<g id="a_Node000005"><a xlink:href="structhri_1_1_device_queue.html" target="_top" xlink:title="A Device Queue is a queue on the logical device to which operations can be submitted.">
<polygon fill="white" stroke="none" points="125,-1304 35,-1304 35,-1236 125,-1236 125,-1304"/>
<text text-anchor="start" x="43.25" y="-1290.5" font-family="Helvetica,sans-Serif" font-size="10.00">hri::DeviceQueue</text>
<text text-anchor="start" x="39" y="-1274.5" font-family="Helvetica,sans-Serif" font-size="10.00">+</text>
<text text-anchor="start" x="49" y="-1274.5" font-family="Helvetica,sans-Serif" font-size="10.00">uint32_t family</text>
<text text-anchor="start" x="39" y="-1258.5" font-family="Helvetica,sans-Serif" font-size="10.00">+</text>
<text text-anchor="start" x="49" y="-1258.5" font-family="Helvetica,sans-Serif" font-size="10.00">VkQueue handle</text>
<text text-anchor="start" x="78.5" y="-1242.5" font-family="Helvetica,sans-Serif" font-size="10.00"> </text>
<polygon fill="#666666" stroke="#666666" points="35,-1286 35,-1286 125,-1286 125,-1286 35,-1286"/>
<polygon fill="#666666" stroke="#666666" points="35,-1254 35,-1254 47,-1254 47,-1254 35,-1254"/>
<polygon fill="#666666" stroke="#666666" points="47,-1254 47,-1254 125,-1254 125,-1254 47,-1254"/>
<polygon fill="none" stroke="#666666" points="35,-1236 35,-1304 125,-1304 125,-1236 35,-1236"/>
</a>
</g>
</g>
<!-- Node5&#45;&gt;Node4 -->
<g id="edge4_Node000004_Node000005" class="edge">
<title>Node5&#45;&gt;Node4</title>
<g id="a_edge4_Node000004_Node000005"><a xlink:title=" ">
<path fill="none" stroke="#63b8ff" d="M80,-1236.3C80,-1222.08 80,-1205 80,-1188.76"/>
<polygon fill="none" stroke="#63b8ff" points="80,-1188.9 76,-1182.9 80,-1176.9 84,-1182.9 80,-1188.9"/>
</a>
</g>
<text text-anchor="middle" x="117.12" y="-1208.5" font-family="Helvetica,sans-Serif" font-size="10.00" fill="grey"> +graphicsQueue</text>
<text text-anchor="middle" x="117.12" y="-1196.5" font-family="Helvetica,sans-Serif" font-size="10.00" fill="grey">+presentQueue</text>
</g>
<!-- Node6 -->
<g id="Node000006" class="node">
<title>Node6</title>
<g id="a_Node000006"><a xlink:href="classhri_1_1_descriptor_set_allocator.html" target="_top" xlink:title="The Descriptor Set Allocator handles allocation of Descriptor Sets from descriptor pools.">
<polygon fill="white" stroke="none" points="340,-1028 178,-1028 178,-744 340,-744 340,-1028"/>
<text text-anchor="start" x="202" y="-1014.5" font-family="Helvetica,sans-Serif" font-size="10.00">hri::DescriptorSetAllocator</text>
<text text-anchor="start" x="257.5" y="-998.5" font-family="Helvetica,sans-Serif" font-size="10.00"> </text>
<text text-anchor="start" x="182" y="-982.5" font-family="Helvetica,sans-Serif" font-size="10.00">+</text>
<text text-anchor="start" x="192" y="-982.5" font-family="Helvetica,sans-Serif" font-size="10.00">DescriptorSetAllocator</text>
<text text-anchor="start" x="192" y="-970.5" font-family="Helvetica,sans-Serif" font-size="10.00">(RenderContext *ctx)</text>
<text text-anchor="start" x="182" y="-954.5" font-family="Helvetica,sans-Serif" font-size="10.00">+</text>
<text text-anchor="start" x="192" y="-954.5" font-family="Helvetica,sans-Serif" font-size="10.00">virtual ~DescriptorSetAllocator()</text>
<text text-anchor="start" x="182" y="-938.5" font-family="Helvetica,sans-Serif" font-size="10.00">+</text>
<text text-anchor="start" x="192" y="-938.5" font-family="Helvetica,sans-Serif" font-size="10.00">DescriptorSetAllocator</text>
<text text-anchor="start" x="192" y="-926.5" font-family="Helvetica,sans-Serif" font-size="10.00">(const DescriptorSetAllocator</text>
<text text-anchor="start" x="192" y="-914.5" font-family="Helvetica,sans-Serif" font-size="10.00"> &amp;)=delete</text>
<text text-anchor="start" x="182" y="-898.5" font-family="Helvetica,sans-Serif" font-size="10.00">+</text>
<text text-anchor="start" x="192" y="-898.5" font-family="Helvetica,sans-Serif" font-size="10.00">DescriptorSetAllocator</text>
<text text-anchor="start" x="192" y="-886.5" font-family="Helvetica,sans-Serif" font-size="10.00"> &amp; operator=(const Descriptor</text>
<text text-anchor="start" x="192" y="-874.5" font-family="Helvetica,sans-Serif" font-size="10.00">SetAllocator &amp;)=delete</text>
<text text-anchor="start" x="182" y="-858.5" font-family="Helvetica,sans-Serif" font-size="10.00">+</text>
<text text-anchor="start" x="192" y="-858.5" font-family="Helvetica,sans-Serif" font-size="10.00">void allocateDescriptorSet</text>
<text text-anchor="start" x="192" y="-846.5" font-family="Helvetica,sans-Serif" font-size="10.00">(const DescriptorSetLayout</text>
<text text-anchor="start" x="192" y="-834.5" font-family="Helvetica,sans-Serif" font-size="10.00"> &amp;setlayout, VkDescriptorSet</text>
<text text-anchor="start" x="192" y="-822.5" font-family="Helvetica,sans-Serif" font-size="10.00"> &amp;descriptorSet)</text>
<text text-anchor="start" x="182" y="-806.5" font-family="Helvetica,sans-Serif" font-size="10.00">+</text>
<text text-anchor="start" x="192" y="-806.5" font-family="Helvetica,sans-Serif" font-size="10.00">void freeDescriptorSet</text>
<text text-anchor="start" x="192" y="-794.5" font-family="Helvetica,sans-Serif" font-size="10.00">(VkDescriptorSet &amp;descriptorSet)</text>
<text text-anchor="start" x="182" y="-778.5" font-family="Helvetica,sans-Serif" font-size="10.00">+</text>
<text text-anchor="start" x="192" y="-778.5" font-family="Helvetica,sans-Serif" font-size="10.00">void reset()</text>
<text text-anchor="start" x="182" y="-762.5" font-family="Helvetica,sans-Serif" font-size="10.00">+</text>
<text text-anchor="start" x="192" y="-762.5" font-family="Helvetica,sans-Serif" font-size="10.00">VkDescriptorPool fixedPool</text>
<text text-anchor="start" x="192" y="-750.5" font-family="Helvetica,sans-Serif" font-size="10.00">() const</text>
<polygon fill="#666666" stroke="#666666" points="178,-1010 178,-1010 340,-1010 340,-1010 178,-1010"/>
<polygon fill="#666666" stroke="#666666" points="178,-994 178,-994 340,-994 340,-994 178,-994"/>
<polygon fill="none" stroke="#666666" points="178,-744 178,-1028 340,-1028 340,-744 178,-744"/>
</a>
</g>
</g>
<!-- Node6&#45;&gt;Node2 -->
<g id="edge5_Node000002_Node000006" class="edge">
<title>Node6&#45;&gt;Node2</title>
<g id="a_edge5_Node000002_Node000006"><a xlink:title=" ">
<path fill="none" stroke="#63b8ff" d="M259,-744.26C259,-693.59 259,-636.99 259,-588.5"/>
<polygon fill="none" stroke="#63b8ff" points="259,-588.61 255,-582.61 259,-576.61 263,-582.61 259,-588.61"/>
</a>
</g>
<text text-anchor="middle" x="321.25" y="-708.5" font-family="Helvetica,sans-Serif" font-size="10.00" fill="grey"> #m_pDescriptorSetAllocator</text>
</g>
<!-- Node7 -->
<g id="Node000007" class="node">
<title>Node7</title>
<g id="a_Node000007"><a xlink:href="structhri_1_1_pipeline_state_object.html" target="_top" xlink:title="A pipeline state object (PSO) stores a pipeline and its bind point.">
<polygon fill="white" stroke="none" points="470,-926 358,-926 358,-846 470,-846 470,-926"/>
<text text-anchor="start" x="362.62" y="-912.5" font-family="Helvetica,sans-Serif" font-size="10.00">hri::PipelineStateObject</text>
<text text-anchor="start" x="363.5" y="-896.5" font-family="Helvetica,sans-Serif" font-size="10.00">+</text>
<text text-anchor="start" x="375" y="-896.5" font-family="Helvetica,sans-Serif" font-size="10.00">VkPipelineBindPoint</text>
<text text-anchor="start" x="375" y="-884.5" font-family="Helvetica,sans-Serif" font-size="10.00"> bindPoint</text>
<text text-anchor="start" x="363.5" y="-868.5" font-family="Helvetica,sans-Serif" font-size="10.00">+</text>
<text text-anchor="start" x="375" y="-868.5" font-family="Helvetica,sans-Serif" font-size="10.00">VkPipeline pipeline</text>
<text text-anchor="start" x="412.5" y="-852.5" font-family="Helvetica,sans-Serif" font-size="10.00"> </text>
<polygon fill="#666666" stroke="#666666" points="358,-908 358,-908 470,-908 470,-908 358,-908"/>
<polygon fill="#666666" stroke="#666666" points="358,-864 358,-864 373,-864 373,-864 358,-864"/>
<polygon fill="#666666" stroke="#666666" points="373,-864 373,-864 470,-864 470,-864 373,-864"/>
<polygon fill="none" stroke="#666666" points="358,-846 358,-926 470,-926 470,-846 358,-846"/>
</a>
</g>
</g>
<!-- Node7&#45;&gt;Node2 -->
<g id="edge6_Node000002_Node000007" class="edge">
<title>Node7&#45;&gt;Node2</title>
<g id="a_edge6_Node000002_Node000007"><a xlink:title=" ">
<path fill="none" stroke="#63b8ff" d="M417.49,-846.19C418.99,-807.33 415.65,-747.52 387,-706 377.73,-692.57 365.97,-700.08 355,-688 329.06,-659.44 309.24,-622.73 294.55,-587.66"/>
<polygon fill="none" stroke="#63b8ff" points="294.61,-587.8 288.65,-583.74 290.1,-576.68 296.06,-580.74 294.61,-587.8"/>
</a>
</g>
<text text-anchor="middle" x="417" y="-708.5" font-family="Helvetica,sans-Serif" font-size="10.00" fill="grey"> #m_pPSO</text>
</g>
<!-- Node8 -->
<g id="Node000008" class="node">
<title>Node8</title>
<g id="a_Node000008"><a xlink:href="classhri_1_1_descriptor_set_manager.html" target="_top" xlink:title="A Descriptor Set Manager manages a single descriptor set and its updates.">
<polygon fill="white" stroke="none" points="535.5,-688 364.5,-688 364.5,-252 535.5,-252 535.5,-688"/>
<text text-anchor="start" x="393.38" y="-674.5" font-family="Helvetica,sans-Serif" font-size="10.00">hri::DescriptorSetManager</text>
<text text-anchor="start" x="448.5" y="-658.5" font-family="Helvetica,sans-Serif" font-size="10.00"> </text>
<text text-anchor="start" x="368.5" y="-642.5" font-family="Helvetica,sans-Serif" font-size="10.00">+</text>
<text text-anchor="start" x="378.5" y="-642.5" font-family="Helvetica,sans-Serif" font-size="10.00">DescriptorSetManager</text>
<text text-anchor="start" x="378.5" y="-630.5" font-family="Helvetica,sans-Serif" font-size="10.00">(RenderContext *ctx,</text>
<text text-anchor="start" x="378.5" y="-618.5" font-family="Helvetica,sans-Serif" font-size="10.00"> DescriptorSetAllocator</text>
<text text-anchor="start" x="378.5" y="-606.5" font-family="Helvetica,sans-Serif" font-size="10.00"> *allocator, const DescriptorSet</text>
<text text-anchor="start" x="378.5" y="-594.5" font-family="Helvetica,sans-Serif" font-size="10.00">Layout &amp;layout)</text>
<text text-anchor="start" x="368.5" y="-578.5" font-family="Helvetica,sans-Serif" font-size="10.00">+</text>
<text text-anchor="start" x="378.5" y="-578.5" font-family="Helvetica,sans-Serif" font-size="10.00">virtual ~DescriptorSetManager()</text>
<text text-anchor="start" x="368.5" y="-562.5" font-family="Helvetica,sans-Serif" font-size="10.00">+</text>
<text text-anchor="start" x="378.5" y="-562.5" font-family="Helvetica,sans-Serif" font-size="10.00">DescriptorSetManager</text>
<text text-anchor="start" x="378.5" y="-550.5" font-family="Helvetica,sans-Serif" font-size="10.00">(const DescriptorSetManager</text>
<text text-anchor="start" x="378.5" y="-538.5" font-family="Helvetica,sans-Serif" font-size="10.00"> &amp;)=delete</text>
<text text-anchor="start" x="368.5" y="-522.5" font-family="Helvetica,sans-Serif" font-size="10.00">+</text>
<text text-anchor="start" x="378.5" y="-522.5" font-family="Helvetica,sans-Serif" font-size="10.00">DescriptorSetManager</text>
<text text-anchor="start" x="378.5" y="-510.5" font-family="Helvetica,sans-Serif" font-size="10.00"> &amp; operator=(const Descriptor</text>
<text text-anchor="start" x="378.5" y="-498.5" font-family="Helvetica,sans-Serif" font-size="10.00">SetManager &amp;)=delete</text>
<text text-anchor="start" x="368.5" y="-482.5" font-family="Helvetica,sans-Serif" font-size="10.00">+</text>
<text text-anchor="start" x="378.5" y="-482.5" font-family="Helvetica,sans-Serif" font-size="10.00">DescriptorSetManager</text>
<text text-anchor="start" x="378.5" y="-470.5" font-family="Helvetica,sans-Serif" font-size="10.00">(DescriptorSetManager</text>
<text text-anchor="start" x="378.5" y="-458.5" font-family="Helvetica,sans-Serif" font-size="10.00"> &amp;&amp;other) noexcept</text>
<text text-anchor="start" x="368.5" y="-442.5" font-family="Helvetica,sans-Serif" font-size="10.00">+</text>
<text text-anchor="start" x="378.5" y="-442.5" font-family="Helvetica,sans-Serif" font-size="10.00">DescriptorSetManager</text>
<text text-anchor="start" x="378.5" y="-430.5" font-family="Helvetica,sans-Serif" font-size="10.00"> &amp; operator=(DescriptorSetManager</text>
<text text-anchor="start" x="378.5" y="-418.5" font-family="Helvetica,sans-Serif" font-size="10.00"> &amp;&amp;other) noexcept</text>
<text text-anchor="start" x="368.5" y="-402.5" font-family="Helvetica,sans-Serif" font-size="10.00">+</text>
<text text-anchor="start" x="378.5" y="-402.5" font-family="Helvetica,sans-Serif" font-size="10.00">DescriptorSetManager</text>
<text text-anchor="start" x="378.5" y="-390.5" font-family="Helvetica,sans-Serif" font-size="10.00"> &amp; writeBuffer(uint32</text>
<text text-anchor="start" x="378.5" y="-378.5" font-family="Helvetica,sans-Serif" font-size="10.00">_t binding, VkDescriptorBuffer</text>
<text text-anchor="start" x="378.5" y="-366.5" font-family="Helvetica,sans-Serif" font-size="10.00">Info *bufferInfo)</text>
<text text-anchor="start" x="368.5" y="-350.5" font-family="Helvetica,sans-Serif" font-size="10.00">+</text>
<text text-anchor="start" x="378.5" y="-350.5" font-family="Helvetica,sans-Serif" font-size="10.00">DescriptorSetManager</text>
<text text-anchor="start" x="378.5" y="-338.5" font-family="Helvetica,sans-Serif" font-size="10.00"> &amp; writeImage(uint32</text>
<text text-anchor="start" x="378.5" y="-326.5" font-family="Helvetica,sans-Serif" font-size="10.00">_t binding, VkDescriptorImage</text>
<text text-anchor="start" x="378.5" y="-314.5" font-family="Helvetica,sans-Serif" font-size="10.00">Info *imageInfo)</text>
<text text-anchor="start" x="368.5" y="-298.5" font-family="Helvetica,sans-Serif" font-size="10.00">+</text>
<text text-anchor="start" x="378.5" y="-298.5" font-family="Helvetica,sans-Serif" font-size="10.00">DescriptorSetManager</text>
<text text-anchor="start" x="378.5" y="-286.5" font-family="Helvetica,sans-Serif" font-size="10.00"> &amp; flush()</text>
<text text-anchor="start" x="368.5" y="-270.5" font-family="Helvetica,sans-Serif" font-size="10.00">+</text>
<text text-anchor="start" x="378.5" y="-270.5" font-family="Helvetica,sans-Serif" font-size="10.00">VkDescriptorSet descriptor</text>
<text text-anchor="start" x="378.5" y="-258.5" font-family="Helvetica,sans-Serif" font-size="10.00">Set() const</text>
<polygon fill="#666666" stroke="#666666" points="364.5,-670 364.5,-670 535.5,-670 535.5,-670 364.5,-670"/>
<polygon fill="#666666" stroke="#666666" points="364.5,-654 364.5,-654 535.5,-654 535.5,-654 364.5,-654"/>
<polygon fill="none" stroke="#666666" points="364.5,-252 364.5,-688 535.5,-688 535.5,-252 364.5,-252"/>
</a>
</g>
</g>
<!-- Node8&#45;&gt;Node1 -->
<g id="edge7_Node000001_Node000008" class="edge">
<title>Node8&#45;&gt;Node1</title>
<g id="a_edge7_Node000001_Node000008"><a xlink:title=" ">
<path fill="none" stroke="#63b8ff" d="M393.12,-252.13C389.91,-239.91 386.76,-227.89 383.72,-216.31"/>
<polygon fill="none" stroke="#63b8ff" points="383.75,-216.41 378.36,-211.62 380.7,-204.8 386.09,-209.59 383.75,-216.41"/>
</a>
</g>
<text text-anchor="middle" x="441.25" y="-224.5" font-family="Helvetica,sans-Serif" font-size="10.00" fill="grey"> #m_globalDescriptorSet</text>
</g>
</g>
</svg>
