<?xml version="1.0" encoding="UTF-8" standalone="no"?>
<!DOCTYPE svg PUBLIC "-//W3C//DTD SVG 1.1//EN"
 "http://www.w3.org/Graphics/SVG/1.1/DTD/svg11.dtd">
<!-- Generated by graphviz version 10.0.1 (20240210.2158)
 -->
<!-- Title: hri::Camera::Camera Pages: 1 -->
<svg width="315pt" height="85pt"
 viewBox="0.00 0.00 314.75 85.00" xmlns="http://www.w3.org/2000/svg" xmlns:xlink="http://www.w3.org/1999/xlink">
<g id="graph0" class="graph" transform="scale(1 1) rotate(0) translate(4 81)">
<title>hri::Camera::Camera</title>
<!-- Node1 -->
<g id="Node000001" class="node">
<title>Node1</title>
<g id="a_Node000001"><a xlink:title="Instantiate a camera.">
<polygon fill="#999999" stroke="#666666" points="106,-58 0,-58 0,-38 106,-38 106,-58"/>
<text text-anchor="middle" x="53" y="-44.5" font-family="Helvetica,sans-Serif" font-size="10.00">hri::Camera::Camera</text>
</a>
</g>
</g>
<!-- Node2 -->
<g id="Node000002" class="node">
<title>Node2</title>
<g id="a_Node000002"><a xlink:href="namespacehri.html#ab81e99a2bbe92d4d1002b786d897d624" target="_top" xlink:title=" ">
<polygon fill="white" stroke="#666666" points="207.5,-77 151,-77 151,-57 207.5,-57 207.5,-77"/>
<text text-anchor="middle" x="179.25" y="-63.5" font-family="Helvetica,sans-Serif" font-size="10.00">hri::cross</text>
</a>
</g>
</g>
<!-- Node1&#45;&gt;Node2 -->
<g id="edge1_Node000001_Node000002" class="edge">
<title>Node1&#45;&gt;Node2</title>
<g id="a_edge1_Node000001_Node000002"><a xlink:title=" ">
<path fill="none" stroke="#63b8ff" d="M106.33,-56C117.42,-57.7 128.93,-59.46 139.4,-61.06"/>
<polygon fill="#63b8ff" stroke="#63b8ff" points="138.8,-64.51 149.22,-62.56 139.86,-57.59 138.8,-64.51"/>
</a>
</g>
</g>
<!-- Node3 -->
<g id="Node000003" class="node">
<title>Node3</title>
<g id="a_Node000003"><a xlink:href="namespacehri.html#ac37aa10e96e3d4f0775c3a659f16d490" target="_top" xlink:title=" ">
<polygon fill="white" stroke="#666666" points="216.5,-39 142,-39 142,-19 216.5,-19 216.5,-39"/>
<text text-anchor="middle" x="179.25" y="-25.5" font-family="Helvetica,sans-Serif" font-size="10.00">hri::normalize</text>
</a>
</g>
</g>
<!-- Node1&#45;&gt;Node3 -->
<g id="edge2_Node000001_Node000003" class="edge">
<title>Node1&#45;&gt;Node3</title>
<g id="a_edge2_Node000001_Node000003"><a xlink:title=" ">
<path fill="none" stroke="#63b8ff" d="M106.33,-40C114.35,-38.77 122.6,-37.51 130.51,-36.3"/>
<polygon fill="#63b8ff" stroke="#63b8ff" points="130.96,-39.77 140.31,-34.8 129.9,-32.85 130.96,-39.77"/>
</a>
</g>
</g>
<!-- Node4 -->
<g id="Node000004" class="node">
<title>Node4</title>
<g id="a_Node000004"><a xlink:href="namespacehri.html#a3f539220562b091be4c7e5409dd4c80e" target="_top" xlink:title=" ">
<polygon fill="white" stroke="#666666" points="302.62,-58 256.62,-58 256.62,-38 302.62,-38 302.62,-58"/>
<text text-anchor="middle" x="279.62" y="-44.5" font-family="Helvetica,sans-Serif" font-size="10.00">hri::dot</text>
</a>
</g>
</g>
<!-- Node3&#45;&gt;Node4 -->
<g id="edge3_Node000003_Node000004" class="edge">
<title>Node3&#45;&gt;Node4</title>
<g id="a_edge3_Node000003_Node000004"><a xlink:title=" ">
<path fill="none" stroke="#63b8ff" d="M216.88,-36.07C226.18,-37.87 236.11,-39.79 245.24,-41.55"/>
<polygon fill="#63b8ff" stroke="#63b8ff" points="244.28,-44.93 254.77,-43.39 245.61,-38.06 244.28,-44.93"/>
</a>
</g>
</g>
<!-- Node5 -->
<g id="Node000005" class="node">
<title>Node5</title>
<g id="a_Node000005"><a xlink:href="namespacehri.html#a80da0ea8cafbed379ba92a21796fe33c" target="_top" xlink:title="Simple inverse square root function.">
<polygon fill="white" stroke="#666666" points="306.75,-20 252.5,-20 252.5,0 306.75,0 306.75,-20"/>
<text text-anchor="middle" x="279.62" y="-6.5" font-family="Helvetica,sans-Serif" font-size="10.00">hri::rsqrtf</text>
</a>
</g>
</g>
<!-- Node3&#45;&gt;Node5 -->
<g id="edge4_Node000003_Node000005" class="edge">
<title>Node3&#45;&gt;Node5</title>
<g id="a_edge4_Node000003_Node000005"><a xlink:title=" ">
<path fill="none" stroke="#63b8ff" d="M216.88,-21.93C224.74,-20.41 233.05,-18.8 240.94,-17.28"/>
<polygon fill="#63b8ff" stroke="#63b8ff" points="241.46,-20.74 250.62,-15.41 240.14,-13.87 241.46,-20.74"/>
</a>
</g>
</g>
</g>
</svg>
