<?xml version="1.0" encoding="UTF-8" standalone="no"?>
<!DOCTYPE svg PUBLIC "-//W3C//DTD SVG 1.1//EN"
 "http://www.w3.org/Graphics/SVG/1.1/DTD/svg11.dtd">
<!-- Generated by graphviz version 10.0.1 (20240210.2158)
 -->
<!-- Title: hri::IRenderPassResourceManagerBase::getImageResourceViews Pages: 1 -->
<svg width="604pt" height="102pt"
 viewBox="0.00 0.00 604.25 102.00" xmlns="http://www.w3.org/2000/svg" xmlns:xlink="http://www.w3.org/1999/xlink">
<g id="graph0" class="graph" transform="scale(1 1) rotate(0) translate(4 98)">
<title>hri::IRenderPassResourceManagerBase::getImageResourceViews</title>
<!-- Node1 -->
<g id="Node000001" class="node">
<title>Node1</title>
<g id="a_Node000001"><a xlink:title="Get image resource views.">
<polygon fill="#999999" stroke="#666666" points="596.25,-60 407,-60 407,-28 596.25,-28 596.25,-60"/>
<text text-anchor="start" x="415" y="-46.5" font-family="Helvetica,sans-Serif" font-size="10.00">hri::IRenderPassResource</text>
<text text-anchor="middle" x="501.62" y="-34.5" font-family="Helvetica,sans-Serif" font-size="10.00">ManagerBase::getImageResourceViews</text>
</a>
</g>
</g>
<!-- Node2 -->
<g id="Node000002" class="node">
<title>Node2</title>
<g id="a_Node000002"><a xlink:href="classhri_1_1_swapchain_pass_resource_manager.html#a47e6b8357bfa6232737e69cb478ef45e" target="_top" xlink:title="Create resources.">
<polygon fill="white" stroke="#666666" points="360.5,-86 217,-86 217,-54 360.5,-54 360.5,-86"/>
<text text-anchor="start" x="225" y="-72.5" font-family="Helvetica,sans-Serif" font-size="10.00">hri::SwapchainPassResource</text>
<text text-anchor="middle" x="288.75" y="-60.5" font-family="Helvetica,sans-Serif" font-size="10.00">Manager::createResources</text>
</a>
</g>
</g>
<!-- Node1&#45;&gt;Node2 -->
<g id="edge1_Node000001_Node000002" class="edge">
<title>Node1&#45;&gt;Node2</title>
<g id="a_edge1_Node000001_Node000002"><a xlink:title=" ">
<path fill="none" stroke="#63b8ff" d="M395.39,-56.98C383.67,-58.42 371.96,-59.86 360.81,-61.24"/>
<polygon fill="#63b8ff" stroke="#63b8ff" points="395.6,-60.48 405.09,-55.78 394.74,-53.53 395.6,-60.48"/>
</a>
</g>
</g>
<!-- Node4 -->
<g id="Node000004" class="node">
<title>Node4</title>
<g id="a_Node000004"><a xlink:href="classhri_1_1_render_pass_resource_manager.html#af1d3d90e346a5101ecb20e469206669c" target="_top" xlink:title="Create resources.">
<polygon fill="white" stroke="#666666" points="371,-35 206.5,-35 206.5,-3 371,-3 371,-35"/>
<text text-anchor="start" x="214.5" y="-21.5" font-family="Helvetica,sans-Serif" font-size="10.00">hri::RenderPassResourceManager</text>
<text text-anchor="middle" x="288.75" y="-9.5" font-family="Helvetica,sans-Serif" font-size="10.00">::createResources</text>
</a>
</g>
</g>
<!-- Node1&#45;&gt;Node4 -->
<g id="edge3_Node000001_Node000004" class="edge">
<title>Node1&#45;&gt;Node4</title>
<g id="a_edge3_Node000001_Node000004"><a xlink:title=" ">
<path fill="none" stroke="#63b8ff" d="M395.26,-31.51C387.24,-30.56 379.2,-29.61 371.36,-28.68"/>
<polygon fill="#63b8ff" stroke="#63b8ff" points="394.75,-34.97 405.09,-32.67 395.58,-28.02 394.75,-34.97"/>
</a>
</g>
</g>
<!-- Node3 -->
<g id="Node000003" class="node">
<title>Node3</title>
<g id="a_Node000003"><a xlink:href="classhri_1_1_swapchain_pass_resource_manager.html#a37fb0d79f8ee46085616dd9b85156284" target="_top" xlink:title="Create a new Swapchain resource manager.">
<polygon fill="white" stroke="#666666" points="170.5,-94 0,-94 0,-50 170.5,-50 170.5,-94"/>
<text text-anchor="start" x="8" y="-80.5" font-family="Helvetica,sans-Serif" font-size="10.00">hri::SwapchainPassResource</text>
<text text-anchor="start" x="8" y="-68.5" font-family="Helvetica,sans-Serif" font-size="10.00">Manager::SwapchainPassResource</text>
<text text-anchor="middle" x="85.25" y="-56.5" font-family="Helvetica,sans-Serif" font-size="10.00">Manager</text>
</a>
</g>
</g>
<!-- Node2&#45;&gt;Node3 -->
<g id="edge2_Node000002_Node000003" class="edge">
<title>Node2&#45;&gt;Node3</title>
<g id="a_edge2_Node000002_Node000003"><a xlink:title=" ">
<path fill="none" stroke="#63b8ff" d="M205.42,-70.82C194,-70.93 182.26,-71.05 170.8,-71.16"/>
<polygon fill="#63b8ff" stroke="#63b8ff" points="205.23,-74.32 215.2,-70.72 205.16,-67.32 205.23,-74.32"/>
</a>
</g>
</g>
<!-- Node5 -->
<g id="Node000005" class="node">
<title>Node5</title>
<g id="a_Node000005"><a xlink:href="classhri_1_1_render_pass_resource_manager.html#a7ce056b4db9605f863c414c2b6071b98" target="_top" xlink:title="Create a new Render Pass Resource Manager.">
<polygon fill="white" stroke="#666666" points="167.5,-32 3,-32 3,0 167.5,0 167.5,-32"/>
<text text-anchor="start" x="11" y="-18.5" font-family="Helvetica,sans-Serif" font-size="10.00">hri::RenderPassResourceManager</text>
<text text-anchor="middle" x="85.25" y="-6.5" font-family="Helvetica,sans-Serif" font-size="10.00">::RenderPassResourceManager</text>
</a>
</g>
</g>
<!-- Node4&#45;&gt;Node5 -->
<g id="edge4_Node000004_Node000005" class="edge">
<title>Node4&#45;&gt;Node5</title>
<g id="a_edge4_Node000004_Node000005"><a xlink:title=" ">
<path fill="none" stroke="#63b8ff" d="M194.72,-17.61C185.7,-17.48 176.6,-17.35 167.71,-17.21"/>
<polygon fill="#63b8ff" stroke="#63b8ff" points="194.52,-21.11 204.57,-17.76 194.62,-14.11 194.52,-21.11"/>
</a>
</g>
</g>
</g>
</svg>
