<?xml version="1.0" encoding="UTF-8" standalone="no"?>
<!DOCTYPE svg PUBLIC "-//W3C//DTD SVG 1.1//EN"
 "http://www.w3.org/Graphics/SVG/1.1/DTD/svg11.dtd">
<!-- Generated by graphviz version 10.0.1 (20240210.2158)
 -->
<!-- Title: hri::Shader Pages: 1 -->
<!--zoomable 1052 -->

<svg id="main" version="1.1" xmlns="http://www.w3.org/2000/svg" xmlns:xlink="http://www.w3.org/1999/xlink" xml:space="preserve" onload="init(evt)">
<style type="text/css"><![CDATA[
.node, .edge {opacity: 0.7;}
.node.selected, .edge.selected {opacity: 1;}
.edge:hover path { stroke: red; }
.edge:hover polygon { stroke: red; fill: red; }
]]></style>

<defs>
  <circle id="rim" cx="0" cy="0" r="7"/>
  <circle id="rim2" cx="0" cy="0" r="3.5"/>
  <g id="zoomPlus">
    <use xlink:href="#rim" fill="#404040"><set attributeName="fill" to="#808080" begin="zoomplus.mouseover" end="zoomplus.mouseout"/></use>
    <path d="M-4,0h8M0,-4v8" fill="none" stroke="white" stroke-width="1.5" pointer-events="none"/>
  </g>
  <g id="zoomMin">
    <use xlink:href="#rim" fill="#404040"><set attributeName="fill" to="#808080" begin="zoomminus.mouseover" end="zoomminus.mouseout"/></use>
    <path d="M-4,0h8" fill="none" stroke="white" stroke-width="1.5" pointer-events="none"/>
  </g>
  <g id="arrowUp" transform="translate(30 24)">
    <use xlink:href="#rim"/>
    <path pointer-events="none" fill="none" stroke="white" stroke-width="1.5" d="M0,-3.0v7 M-2.5,-0.5L0,-3.0L2.5,-0.5"/>
  </g>
  <g id="arrowRight" transform="rotate(90) translate(36 -43)">
    <use xlink:href="#rim"/>
    <path pointer-events="none" fill="none" stroke="white" stroke-width="1.5" d="M0,-3.0v7 M-2.5,-0.5L0,-3.0L2.5,-0.5"/>
  </g>
  <g id="arrowDown" transform="rotate(180) translate(-30 -48)">
    <use xlink:href="#rim"/>
    <path pointer-events="none" fill="none" stroke="white" stroke-width="1.5" d="M0,-3.0v7 M-2.5,-0.5L0,-3.0L2.5,-0.5"/>
  </g>
  <g id="arrowLeft" transform="rotate(270) translate(-36 17)">
    <use xlink:href="#rim"/>
    <path pointer-events="none" fill="none" stroke="white" stroke-width="1.5" d="M0,-3.0v7 M-2.5,-0.5L0,-3.0L2.5,-0.5"/>
  </g>
  <g id="resetDef">
    <use xlink:href="#rim2" fill="#404040"><set attributeName="fill" to="#808080" begin="reset.mouseover" end="reset.mouseout"/></use>
  </g>
</defs>
<script type="application/ecmascript">
var viewWidth = 175;
var viewHeight = 1052;
var sectionId = 'dynsection-0';
</script>
<script type="application/ecmascript" xlink:href="svg.min.js"/>
<svg id="graph" class="graph">
<g id="viewport">
<title>hri::Shader</title>
<!-- Node1 -->
<g id="Node000001" class="node">
<title>Node1</title>
<g id="a_Node000001"><a xlink:title="A Shader object represents a programmable pipeline stage.">
<polygon fill="#999999" stroke="none" points="167,-280 0,-280 0,0 167,0 167,-280"/>
<text text-anchor="start" x="59.88" y="-266.5" font-family="Helvetica,sans-Serif" font-size="10.00">hri::Shader</text>
<text text-anchor="start" x="4" y="-250.5" font-family="Helvetica,sans-Serif" font-size="10.00">+</text>
<text text-anchor="start" x="14" y="-250.5" font-family="Helvetica,sans-Serif" font-size="10.00">VkShaderStageFlagBits</text>
<text text-anchor="start" x="14" y="-238.5" font-family="Helvetica,sans-Serif" font-size="10.00"> stage</text>
<text text-anchor="start" x="4" y="-222.5" font-family="Helvetica,sans-Serif" font-size="10.00">+</text>
<text text-anchor="start" x="14" y="-222.5" font-family="Helvetica,sans-Serif" font-size="10.00">Shader(RenderContext</text>
<text text-anchor="start" x="14" y="-210.5" font-family="Helvetica,sans-Serif" font-size="10.00"> &amp;ctx, const uint32_t</text>
<text text-anchor="start" x="14" y="-198.5" font-family="Helvetica,sans-Serif" font-size="10.00"> *pCode, size_t codeSize,</text>
<text text-anchor="start" x="14" y="-186.5" font-family="Helvetica,sans-Serif" font-size="10.00"> VkShaderStageFlagBits stage)</text>
<text text-anchor="start" x="4" y="-170.5" font-family="Helvetica,sans-Serif" font-size="10.00">+</text>
<text text-anchor="start" x="14" y="-170.5" font-family="Helvetica,sans-Serif" font-size="10.00">virtual ~Shader()</text>
<text text-anchor="start" x="4" y="-154.5" font-family="Helvetica,sans-Serif" font-size="10.00">+</text>
<text text-anchor="start" x="14" y="-154.5" font-family="Helvetica,sans-Serif" font-size="10.00">Shader(const Shader</text>
<text text-anchor="start" x="14" y="-142.5" font-family="Helvetica,sans-Serif" font-size="10.00"> &amp;)=delete</text>
<text text-anchor="start" x="4" y="-126.5" font-family="Helvetica,sans-Serif" font-size="10.00">+</text>
<text text-anchor="start" x="14" y="-126.5" font-family="Helvetica,sans-Serif" font-size="10.00">Shader &amp; operator=</text>
<text text-anchor="start" x="14" y="-114.5" font-family="Helvetica,sans-Serif" font-size="10.00">(const Shader &amp;)=delete</text>
<text text-anchor="start" x="4" y="-98.5" font-family="Helvetica,sans-Serif" font-size="10.00">+</text>
<text text-anchor="start" x="14" y="-98.5" font-family="Helvetica,sans-Serif" font-size="10.00">Shader(Shader &amp;&amp;other)</text>
<text text-anchor="start" x="14" y="-86.5" font-family="Helvetica,sans-Serif" font-size="10.00"> noexcept</text>
<text text-anchor="start" x="4" y="-70.5" font-family="Helvetica,sans-Serif" font-size="10.00">+</text>
<text text-anchor="start" x="14" y="-70.5" font-family="Helvetica,sans-Serif" font-size="10.00">Shader &amp; operator=</text>
<text text-anchor="start" x="14" y="-58.5" font-family="Helvetica,sans-Serif" font-size="10.00">(Shader &amp;&amp;other) noexcept</text>
<text text-anchor="start" x="4" y="-42.5" font-family="Helvetica,sans-Serif" font-size="10.00">+</text>
<text text-anchor="start" x="14" y="-42.5" font-family="Helvetica,sans-Serif" font-size="10.00">static Shader loadFile</text>
<text text-anchor="start" x="14" y="-30.5" font-family="Helvetica,sans-Serif" font-size="10.00">(RenderContext &amp;ctx, const</text>
<text text-anchor="start" x="14" y="-18.5" font-family="Helvetica,sans-Serif" font-size="10.00"> std::string &amp;path, VkShaderStage</text>
<text text-anchor="start" x="14" y="-6.5" font-family="Helvetica,sans-Serif" font-size="10.00">FlagBits stage)</text>
<polygon fill="#666666" stroke="#666666" points="0,-262 0,-262 167,-262 167,-262 0,-262"/>
<polygon fill="#666666" stroke="#666666" points="0,-234 0,-234 12,-234 12,-234 0,-234"/>
<polygon fill="#666666" stroke="#666666" points="12,-234 12,-234 167,-234 167,-234 12,-234"/>
<polygon fill="none" stroke="#666666" points="0,0 0,-280 167,-280 167,0 0,0"/>
</a>
</g>
</g>
<!-- Node2 -->
<g id="Node000002" class="node">
<title>Node2</title>
<g id="a_Node000002"><a xlink:href="classhri_1_1_render_context.html" target="_top" xlink:title="THe RenderContext manages the Vulkan instance, device, and swapchain state.">
<polygon fill="white" stroke="none" points="163.5,-752 3.5,-752 3.5,-328 163.5,-328 163.5,-752"/>
<text text-anchor="start" x="43" y="-738.5" font-family="Helvetica,sans-Serif" font-size="10.00">hri::RenderContext</text>
<text text-anchor="start" x="7.5" y="-722.5" font-family="Helvetica,sans-Serif" font-size="10.00">+</text>
<text text-anchor="start" x="17.5" y="-722.5" font-family="Helvetica,sans-Serif" font-size="10.00">vkb::Instance instance</text>
<text text-anchor="start" x="7.5" y="-706.5" font-family="Helvetica,sans-Serif" font-size="10.00">+</text>
<text text-anchor="start" x="17.5" y="-706.5" font-family="Helvetica,sans-Serif" font-size="10.00">VkSurfaceKHR surface</text>
<text text-anchor="start" x="7.5" y="-690.5" font-family="Helvetica,sans-Serif" font-size="10.00">+</text>
<text text-anchor="start" x="17.5" y="-690.5" font-family="Helvetica,sans-Serif" font-size="10.00">vkb::PhysicalDevice gpu</text>
<text text-anchor="start" x="7.5" y="-674.5" font-family="Helvetica,sans-Serif" font-size="10.00">+</text>
<text text-anchor="start" x="17.5" y="-674.5" font-family="Helvetica,sans-Serif" font-size="10.00">vkb::Device device</text>
<text text-anchor="start" x="7.5" y="-658.5" font-family="Helvetica,sans-Serif" font-size="10.00">+</text>
<text text-anchor="start" x="17.5" y="-658.5" font-family="Helvetica,sans-Serif" font-size="10.00">VmaAllocator allocator</text>
<text text-anchor="start" x="7.5" y="-642.5" font-family="Helvetica,sans-Serif" font-size="10.00">+</text>
<text text-anchor="start" x="17.5" y="-642.5" font-family="Helvetica,sans-Serif" font-size="10.00">vkb::Swapchain swapchain</text>
<text text-anchor="start" x="7.5" y="-626.5" font-family="Helvetica,sans-Serif" font-size="10.00">+</text>
<text text-anchor="start" x="17.5" y="-626.5" font-family="Helvetica,sans-Serif" font-size="10.00">RenderContext(RenderContext</text>
<text text-anchor="start" x="17.5" y="-614.5" font-family="Helvetica,sans-Serif" font-size="10.00">CreateInfo &amp;createInfo)</text>
<text text-anchor="start" x="7.5" y="-598.5" font-family="Helvetica,sans-Serif" font-size="10.00">+</text>
<text text-anchor="start" x="17.5" y="-598.5" font-family="Helvetica,sans-Serif" font-size="10.00">virtual ~RenderContext()</text>
<text text-anchor="start" x="7.5" y="-582.5" font-family="Helvetica,sans-Serif" font-size="10.00">+</text>
<text text-anchor="start" x="17.5" y="-582.5" font-family="Helvetica,sans-Serif" font-size="10.00">RenderContext(const</text>
<text text-anchor="start" x="17.5" y="-570.5" font-family="Helvetica,sans-Serif" font-size="10.00"> RenderContext &amp;)=delete</text>
<text text-anchor="start" x="7.5" y="-554.5" font-family="Helvetica,sans-Serif" font-size="10.00">+</text>
<text text-anchor="start" x="17.5" y="-554.5" font-family="Helvetica,sans-Serif" font-size="10.00">RenderContext &amp; operator</text>
<text text-anchor="start" x="17.5" y="-542.5" font-family="Helvetica,sans-Serif" font-size="10.00">=(const RenderContext &amp;)</text>
<text text-anchor="start" x="17.5" y="-530.5" font-family="Helvetica,sans-Serif" font-size="10.00">=delete</text>
<text text-anchor="start" x="7.5" y="-514.5" font-family="Helvetica,sans-Serif" font-size="10.00">+</text>
<text text-anchor="start" x="17.5" y="-514.5" font-family="Helvetica,sans-Serif" font-size="10.00">RenderContext(RenderContext</text>
<text text-anchor="start" x="17.5" y="-502.5" font-family="Helvetica,sans-Serif" font-size="10.00"> &amp;&amp;other) noexcept</text>
<text text-anchor="start" x="7.5" y="-486.5" font-family="Helvetica,sans-Serif" font-size="10.00">+</text>
<text text-anchor="start" x="17.5" y="-486.5" font-family="Helvetica,sans-Serif" font-size="10.00">RenderContext &amp; operator</text>
<text text-anchor="start" x="17.5" y="-474.5" font-family="Helvetica,sans-Serif" font-size="10.00">=(RenderContext &amp;&amp;other)</text>
<text text-anchor="start" x="17.5" y="-462.5" font-family="Helvetica,sans-Serif" font-size="10.00"> noexcept</text>
<text text-anchor="start" x="7.5" y="-446.5" font-family="Helvetica,sans-Serif" font-size="10.00">+</text>
<text text-anchor="start" x="17.5" y="-446.5" font-family="Helvetica,sans-Serif" font-size="10.00">void setVSyncMode(VSyncMode</text>
<text text-anchor="start" x="17.5" y="-434.5" font-family="Helvetica,sans-Serif" font-size="10.00"> vsyncMode)</text>
<text text-anchor="start" x="7.5" y="-418.5" font-family="Helvetica,sans-Serif" font-size="10.00">+</text>
<text text-anchor="start" x="17.5" y="-418.5" font-family="Helvetica,sans-Serif" font-size="10.00">void recreateSwapchain()</text>
<text text-anchor="start" x="7.5" y="-402.5" font-family="Helvetica,sans-Serif" font-size="10.00">+</text>
<text text-anchor="start" x="17.5" y="-402.5" font-family="Helvetica,sans-Serif" font-size="10.00">_PFn getInstanceFunction</text>
<text text-anchor="start" x="17.5" y="-390.5" font-family="Helvetica,sans-Serif" font-size="10.00">(const char *name) const</text>
<text text-anchor="start" x="7.5" y="-374.5" font-family="Helvetica,sans-Serif" font-size="10.00">+</text>
<text text-anchor="start" x="17.5" y="-374.5" font-family="Helvetica,sans-Serif" font-size="10.00">_PFn getDeviceFunction</text>
<text text-anchor="start" x="17.5" y="-362.5" font-family="Helvetica,sans-Serif" font-size="10.00">(const char *name) const</text>
<text text-anchor="start" x="7.5" y="-346.5" font-family="Helvetica,sans-Serif" font-size="10.00">+</text>
<text text-anchor="start" x="17.5" y="-346.5" font-family="Helvetica,sans-Serif" font-size="10.00">VkFormat swapFormat</text>
<text text-anchor="start" x="17.5" y="-334.5" font-family="Helvetica,sans-Serif" font-size="10.00">() const</text>
<polygon fill="#666666" stroke="#666666" points="3.5,-734 3.5,-734 163.5,-734 163.5,-734 3.5,-734"/>
<polygon fill="#666666" stroke="#666666" points="3.5,-638 3.5,-638 15.5,-638 15.5,-638 3.5,-638"/>
<polygon fill="#666666" stroke="#666666" points="15.5,-638 15.5,-638 163.5,-638 163.5,-638 15.5,-638"/>
<polygon fill="none" stroke="#666666" points="3.5,-328 3.5,-752 163.5,-752 163.5,-328 3.5,-328"/>
</a>
</g>
</g>
<!-- Node2&#45;&gt;Node1 -->
<g id="edge1_Node000001_Node000002" class="edge">
<title>Node2&#45;&gt;Node1</title>
<g id="a_edge1_Node000001_Node000002"><a xlink:title=" ">
<path fill="none" stroke="#63b8ff" d="M83.5,-328.05C83.5,-316.21 83.5,-304.43 83.5,-292.87"/>
<polygon fill="none" stroke="#63b8ff" points="83.5,-292.82 79.5,-286.82 83.5,-280.82 87.5,-286.82 83.5,-292.82"/>
</a>
</g>
<text text-anchor="middle" x="101.12" y="-300.5" font-family="Helvetica,sans-Serif" font-size="10.00" fill="grey"> #m_ctx</text>
</g>
<!-- Node3 -->
<g id="Node000003" class="node">
<title>Node3</title>
<g id="a_Node000003"><a xlink:href="classhri_1_1_render_context_queue_state.html" target="_top" xlink:title="The context queue state creates and maintains the device queue setup.">
<polygon fill="white" stroke="none" points="154.5,-892 12.5,-892 12.5,-800 154.5,-800 154.5,-892"/>
<text text-anchor="start" x="17.12" y="-878.5" font-family="Helvetica,sans-Serif" font-size="10.00">hri::RenderContextQueueState</text>
<text text-anchor="start" x="82" y="-862.5" font-family="Helvetica,sans-Serif" font-size="10.00"> </text>
<text text-anchor="start" x="18.5" y="-846.5" font-family="Helvetica,sans-Serif" font-size="10.00">+</text>
<text text-anchor="start" x="30.5" y="-846.5" font-family="Helvetica,sans-Serif" font-size="10.00">RenderContextQueueState</text>
<text text-anchor="start" x="30.5" y="-834.5" font-family="Helvetica,sans-Serif" font-size="10.00">()=default</text>
<text text-anchor="start" x="18.5" y="-818.5" font-family="Helvetica,sans-Serif" font-size="10.00">+</text>
<text text-anchor="start" x="30.5" y="-818.5" font-family="Helvetica,sans-Serif" font-size="10.00">RenderContextQueueState</text>
<text text-anchor="start" x="30.5" y="-806.5" font-family="Helvetica,sans-Serif" font-size="10.00">(vkb::Device device)</text>
<polygon fill="#666666" stroke="#666666" points="12.5,-874 12.5,-874 154.5,-874 154.5,-874 12.5,-874"/>
<polygon fill="#666666" stroke="#666666" points="12.5,-858 12.5,-858 154.5,-858 154.5,-858 12.5,-858"/>
<polygon fill="none" stroke="#666666" points="12.5,-800 12.5,-892 154.5,-892 154.5,-800 12.5,-800"/>
</a>
</g>
</g>
<!-- Node3&#45;&gt;Node2 -->
<g id="edge2_Node000002_Node000003" class="edge">
<title>Node3&#45;&gt;Node2</title>
<g id="a_edge2_Node000002_Node000003"><a xlink:title=" ">
<path fill="none" stroke="#63b8ff" d="M83.5,-800.14C83.5,-789.51 83.5,-777.44 83.5,-764.48"/>
<polygon fill="none" stroke="#63b8ff" points="83.5,-764.7 79.5,-758.7 83.5,-752.7 87.5,-758.7 83.5,-764.7"/>
</a>
</g>
<text text-anchor="middle" x="103.75" y="-772.5" font-family="Helvetica,sans-Serif" font-size="10.00" fill="grey"> +queues</text>
</g>
<!-- Node4 -->
<g id="Node000004" class="node">
<title>Node4</title>
<g id="a_Node000004"><a xlink:href="structhri_1_1_device_queue.html" target="_top" xlink:title="A Device Queue is a queue on the logical device to which operations can be submitted.">
<polygon fill="white" stroke="none" points="128.5,-1044 38.5,-1044 38.5,-976 128.5,-976 128.5,-1044"/>
<text text-anchor="start" x="46.75" y="-1030.5" font-family="Helvetica,sans-Serif" font-size="10.00">hri::DeviceQueue</text>
<text text-anchor="start" x="42.5" y="-1014.5" font-family="Helvetica,sans-Serif" font-size="10.00">+</text>
<text text-anchor="start" x="52.5" y="-1014.5" font-family="Helvetica,sans-Serif" font-size="10.00">uint32_t family</text>
<text text-anchor="start" x="42.5" y="-998.5" font-family="Helvetica,sans-Serif" font-size="10.00">+</text>
<text text-anchor="start" x="52.5" y="-998.5" font-family="Helvetica,sans-Serif" font-size="10.00">VkQueue handle</text>
<text text-anchor="start" x="82" y="-982.5" font-family="Helvetica,sans-Serif" font-size="10.00"> </text>
<polygon fill="#666666" stroke="#666666" points="38.5,-1026 38.5,-1026 128.5,-1026 128.5,-1026 38.5,-1026"/>
<polygon fill="#666666" stroke="#666666" points="38.5,-994 38.5,-994 50.5,-994 50.5,-994 38.5,-994"/>
<polygon fill="#666666" stroke="#666666" points="50.5,-994 50.5,-994 128.5,-994 128.5,-994 50.5,-994"/>
<polygon fill="none" stroke="#666666" points="38.5,-976 38.5,-1044 128.5,-1044 128.5,-976 38.5,-976"/>
</a>
</g>
</g>
<!-- Node4&#45;&gt;Node3 -->
<g id="edge3_Node000003_Node000004" class="edge">
<title>Node4&#45;&gt;Node3</title>
<g id="a_edge3_Node000003_Node000004"><a xlink:title=" ">
<path fill="none" stroke="#63b8ff" d="M83.5,-976.22C83.5,-955.7 83.5,-928.7 83.5,-904.68"/>
<polygon fill="none" stroke="#63b8ff" points="83.5,-904.61 79.5,-898.61 83.5,-892.61 87.5,-898.61 83.5,-904.61"/>
</a>
</g>
<text text-anchor="middle" x="121" y="-948.5" font-family="Helvetica,sans-Serif" font-size="10.00" fill="grey"> +computeQueue</text>
<text text-anchor="middle" x="121" y="-936.5" font-family="Helvetica,sans-Serif" font-size="10.00" fill="grey">+graphicsQueue</text>
<text text-anchor="middle" x="121" y="-924.5" font-family="Helvetica,sans-Serif" font-size="10.00" fill="grey">+presentQueue</text>
<text text-anchor="middle" x="121" y="-912.5" font-family="Helvetica,sans-Serif" font-size="10.00" fill="grey">+transferQueue</text>
</g>
</g>
</svg>

<g id="navigator" transform="translate(0 0)" fill="#404254">
  <rect fill="#f2f5e9" fill-opacity="0.5" stroke="#606060" stroke-width=".5" x="0" y="0" width="60" height="60"/>
  <use id="zoomplus" xlink:href="#zoomPlus" x="17" y="9" onmousedown="handleZoom(evt,'in')"/>
  <use id="zoomminus" xlink:href="#zoomMin" x="42" y="9" onmousedown="handleZoom(evt,'out')"/>
  <use id="reset" xlink:href="#resetDef" x="30" y="36" onmousedown="handleReset()"/>
   <use id="arrowup" xlink:href="#arrowUp" x="0" y="0" onmousedown="handlePan(0,-1)"/>
  <use id="arrowright" xlink:href="#arrowRight" x="0" y="0" onmousedown="handlePan(1,0)"/>
  <use id="arrowdown" xlink:href="#arrowDown" x="0" y="0" onmousedown="handlePan(0,1)"/>
  <use id="arrowleft" xlink:href="#arrowLeft" x="0" y="0" onmousedown="handlePan(-1,0)"/>
</g>
<svg viewBox="0 0 15 15" width="100%" height="30px" preserveAspectRatio="xMaxYMin meet">
 <g id="arrow_out" transform="scale(0.3 0.3)">
  <a xlink:href="classhri_1_1_shader__coll__graph_org.svg" target="_base">
   <rect id="button" ry="5" rx="5" y="6" x="6" height="38" width="38"
        fill="#f2f5e9" fill-opacity="0.5" stroke="#606060" stroke-width="1.0"/>
   <path id="arrow"
     d="M 11.500037,31.436501 C 11.940474,20.09759 22.043105,11.32322 32.158766,21.979434 L 37.068811,17.246167 C 37.068811,17.246167 37.088388,32 37.088388,32 L 22.160133,31.978069 C 22.160133,31.978069 26.997745,27.140456 26.997745,27.140456 C 18.528582,18.264221 13.291696,25.230495 11.500037,31.436501 z"
     style="fill:#404040;"/>
  </a>
 </g>
</svg>

<style type='text/css'>
<![CDATA[
[data-mouse-over-selected='false'] { opacity: 0.7; }
[data-mouse-over-selected='true']  { opacity: 1.0; }
]]>
</style>
<script type="application/ecmascript"><![CDATA[
document.addEventListener('DOMContentLoaded', (event) => {
  highlightEdges();
  highlightAdjacentNodes();
});
]]></script>
</svg>
