<?xml version="1.0" encoding="UTF-8" standalone="no"?>
<!DOCTYPE svg PUBLIC "-//W3C//DTD SVG 1.1//EN"
 "http://www.w3.org/Graphics/SVG/1.1/DTD/svg11.dtd">
<!-- Generated by graphviz version 10.0.1 (20240210.2158)
 -->
<!-- Title: hri::SwapchainPassResourceManager::SwapchainPassResourceManager Pages: 1 -->
<svg width="774pt" height="140pt"
 viewBox="0.00 0.00 774.00 140.00" xmlns="http://www.w3.org/2000/svg" xmlns:xlink="http://www.w3.org/1999/xlink">
<g id="graph0" class="graph" transform="scale(1 1) rotate(0) translate(4 136)">
<title>hri::SwapchainPassResourceManager::SwapchainPassResourceManager</title>
<!-- Node1 -->
<g id="Node000001" class="node">
<title>Node1</title>
<g id="a_Node000001"><a xlink:title="Create a new Swapchain resource manager.">
<polygon fill="#999999" stroke="#666666" points="170.5,-63 0,-63 0,-19 170.5,-19 170.5,-63"/>
<text text-anchor="start" x="8" y="-49.5" font-family="Helvetica,sans-Serif" font-size="10.00">hri::SwapchainPassResource</text>
<text text-anchor="start" x="8" y="-37.5" font-family="Helvetica,sans-Serif" font-size="10.00">Manager::SwapchainPassResource</text>
<text text-anchor="middle" x="85.25" y="-25.5" font-family="Helvetica,sans-Serif" font-size="10.00">Manager</text>
</a>
</g>
</g>
<!-- Node2 -->
<g id="Node000002" class="node">
<title>Node2</title>
<g id="a_Node000002"><a xlink:href="classhri_1_1_swapchain_pass_resource_manager.html#a47e6b8357bfa6232737e69cb478ef45e" target="_top" xlink:title="Create resources.">
<polygon fill="white" stroke="#666666" points="350,-57 206.5,-57 206.5,-25 350,-25 350,-57"/>
<text text-anchor="start" x="214.5" y="-43.5" font-family="Helvetica,sans-Serif" font-size="10.00">hri::SwapchainPassResource</text>
<text text-anchor="middle" x="278.25" y="-31.5" font-family="Helvetica,sans-Serif" font-size="10.00">Manager::createResources</text>
</a>
</g>
</g>
<!-- Node1&#45;&gt;Node2 -->
<g id="edge1_Node000001_Node000002" class="edge">
<title>Node1&#45;&gt;Node2</title>
<g id="a_edge1_Node000001_Node000002"><a xlink:title=" ">
<path fill="none" stroke="#63b8ff" d="M170.86,-41C178.77,-41 186.78,-41 194.67,-41"/>
<polygon fill="#63b8ff" stroke="#63b8ff" points="194.61,-44.5 204.61,-41 194.61,-37.5 194.61,-44.5"/>
</a>
</g>
</g>
<!-- Node3 -->
<g id="Node000003" class="node">
<title>Node3</title>
<g id="a_Node000003"><a xlink:href="classhri_1_1_i_render_pass_resource_manager_base.html#a4391328fd9a0316ede758d338bee9fea" target="_top" xlink:title="Create resources.">
<polygon fill="white" stroke="#666666" points="558.38,-82 402.88,-82 402.88,-50 558.38,-50 558.38,-82"/>
<text text-anchor="start" x="410.88" y="-68.5" font-family="Helvetica,sans-Serif" font-size="10.00">hri::IRenderPassResource</text>
<text text-anchor="middle" x="480.62" y="-56.5" font-family="Helvetica,sans-Serif" font-size="10.00">ManagerBase::createResources</text>
</a>
</g>
</g>
<!-- Node2&#45;&gt;Node3 -->
<g id="edge2_Node000002_Node000003" class="edge">
<title>Node2&#45;&gt;Node3</title>
<g id="a_edge2_Node000002_Node000003"><a xlink:title=" ">
<path fill="none" stroke="#63b8ff" d="M350.46,-49.88C363.64,-51.53 377.56,-53.27 391.18,-54.96"/>
<polygon fill="#63b8ff" stroke="#63b8ff" points="390.67,-58.43 401.02,-56.19 391.53,-51.48 390.67,-58.43"/>
</a>
</g>
</g>
<!-- Node7 -->
<g id="Node000007" class="node">
<title>Node7</title>
<g id="a_Node000007"><a xlink:href="classhri_1_1_i_render_pass_resource_manager_base.html#a504eb862015a956f74d5020f20a3cb00" target="_top" xlink:title="Get image resource views.">
<polygon fill="white" stroke="#666666" points="575.25,-32 386,-32 386,0 575.25,0 575.25,-32"/>
<text text-anchor="start" x="394" y="-18.5" font-family="Helvetica,sans-Serif" font-size="10.00">hri::IRenderPassResource</text>
<text text-anchor="middle" x="480.62" y="-6.5" font-family="Helvetica,sans-Serif" font-size="10.00">ManagerBase::getImageResourceViews</text>
</a>
</g>
</g>
<!-- Node2&#45;&gt;Node7 -->
<g id="edge6_Node000002_Node000007" class="edge">
<title>Node2&#45;&gt;Node7</title>
<g id="a_edge6_Node000002_Node000007"><a xlink:title=" ">
<path fill="none" stroke="#63b8ff" d="M350.46,-32.12C358.18,-31.15 366.15,-30.16 374.17,-29.16"/>
<polygon fill="#63b8ff" stroke="#63b8ff" points="374.53,-32.64 384.02,-27.93 373.66,-25.69 374.53,-32.64"/>
</a>
</g>
</g>
<!-- Node4 -->
<g id="Node000004" class="node">
<title>Node4</title>
<g id="a_Node000004"><a xlink:href="classhri_1_1_image_resource.html#a56ffb48c12007c708401a7cf6c7f9c51" target="_top" xlink:title="Get the default component mapping for images.">
<polygon fill="white" stroke="#666666" points="757.75,-132 619.5,-132 619.5,-100 757.75,-100 757.75,-132"/>
<text text-anchor="start" x="627.5" y="-118.5" font-family="Helvetica,sans-Serif" font-size="10.00">hri::ImageResource</text>
<text text-anchor="middle" x="688.62" y="-106.5" font-family="Helvetica,sans-Serif" font-size="10.00">::DefaultComponentMapping</text>
</a>
</g>
</g>
<!-- Node3&#45;&gt;Node4 -->
<g id="edge3_Node000003_Node000004" class="edge">
<title>Node3&#45;&gt;Node4</title>
<g id="a_edge3_Node000003_Node000004"><a xlink:title=" ">
<path fill="none" stroke="#63b8ff" d="M549.36,-82.44C568.37,-87.05 589.2,-92.11 608.79,-96.87"/>
<polygon fill="#63b8ff" stroke="#63b8ff" points="607.83,-100.23 618.38,-99.19 609.48,-93.43 607.83,-100.23"/>
</a>
</g>
</g>
<!-- Node5 -->
<g id="Node000005" class="node">
<title>Node5</title>
<g id="a_Node000005"><a xlink:href="classhri_1_1_i_render_pass_resource_manager_base.html#aabea2269ebd554cf3d75885a4e4dec87" target="_top" xlink:title="Get the render extent configured for this resouce manager.">
<polygon fill="white" stroke="#666666" points="766,-82 611.25,-82 611.25,-50 766,-50 766,-82"/>
<text text-anchor="start" x="619.25" y="-68.5" font-family="Helvetica,sans-Serif" font-size="10.00">hri::IRenderPassResource</text>
<text text-anchor="middle" x="688.62" y="-56.5" font-family="Helvetica,sans-Serif" font-size="10.00">ManagerBase::getRenderExtent</text>
</a>
</g>
</g>
<!-- Node3&#45;&gt;Node5 -->
<g id="edge4_Node000003_Node000005" class="edge">
<title>Node3&#45;&gt;Node5</title>
<g id="a_edge4_Node000003_Node000005"><a xlink:title=" ">
<path fill="none" stroke="#63b8ff" d="M558.62,-66C572.02,-66 586.04,-66 599.69,-66"/>
<polygon fill="#63b8ff" stroke="#63b8ff" points="599.55,-69.5 609.55,-66 599.55,-62.5 599.55,-69.5"/>
</a>
</g>
</g>
<!-- Node6 -->
<g id="Node000006" class="node">
<title>Node6</title>
<g id="a_Node000006"><a xlink:href="classhri_1_1_image_resource.html#acb45dad4bfb49d9e739ed8d5d5a25cf0" target="_top" xlink:title="Create an image subresource range.">
<polygon fill="white" stroke="#666666" points="740.88,-32 636.38,-32 636.38,0 740.88,0 740.88,-32"/>
<text text-anchor="start" x="644.38" y="-18.5" font-family="Helvetica,sans-Serif" font-size="10.00">hri::ImageResource</text>
<text text-anchor="middle" x="688.62" y="-6.5" font-family="Helvetica,sans-Serif" font-size="10.00">::SubresourceRange</text>
</a>
</g>
</g>
<!-- Node3&#45;&gt;Node6 -->
<g id="edge5_Node000003_Node000006" class="edge">
<title>Node3&#45;&gt;Node6</title>
<g id="a_edge5_Node000003_Node000006"><a xlink:title=" ">
<path fill="none" stroke="#63b8ff" d="M549.36,-49.56C573.76,-43.64 601.16,-36.99 625.09,-31.18"/>
<polygon fill="#63b8ff" stroke="#63b8ff" points="625.81,-34.6 634.71,-28.84 624.16,-27.8 625.81,-34.6"/>
</a>
</g>
</g>
</g>
</svg>
