<?xml version="1.0" encoding="UTF-8" standalone="no"?>
<!DOCTYPE svg PUBLIC "-//W3C//DTD SVG 1.1//EN"
 "http://www.w3.org/Graphics/SVG/1.1/DTD/svg11.dtd">
<!-- Generated by graphviz version 10.0.1 (20240210.2158)
 -->
<!-- Title: HybridRayTracingSubsystem::HybridRayTracingSubsystem Pages: 1 -->
<svg width="366pt" height="340pt"
 viewBox="0.00 0.00 365.50 340.00" xmlns="http://www.w3.org/2000/svg" xmlns:xlink="http://www.w3.org/1999/xlink">
<g id="graph0" class="graph" transform="scale(1 1) rotate(0) translate(4 336)">
<title>HybridRayTracingSubsystem::HybridRayTracingSubsystem</title>
<!-- Node1 -->
<g id="Node000001" class="node">
<title>Node1</title>
<g id="a_Node000001"><a xlink:title=" ">
<polygon fill="#999999" stroke="#666666" points="148,-182 0,-182 0,-150 148,-150 148,-182"/>
<text text-anchor="start" x="8" y="-168.5" font-family="Helvetica,sans-Serif" font-size="10.00">HybridRayTracingSubsystem</text>
<text text-anchor="middle" x="74" y="-156.5" font-family="Helvetica,sans-Serif" font-size="10.00">::HybridRayTracingSubsystem</text>
</a>
</g>
</g>
<!-- Node2 -->
<g id="Node000002" class="node">
<title>Node2</title>
<g id="a_Node000002"><a xlink:href="classhri_1_1_pipeline_layout_builder.html#aa7d886ec4265dc7dd15243401f8b23c6" target="_top" xlink:title="Add a new Descriptor Set Layout to the pipeline layout.">
<polygon fill="white" stroke="#666666" points="333.88,-332 207.62,-332 207.62,-300 333.88,-300 333.88,-332"/>
<text text-anchor="start" x="215.62" y="-318.5" font-family="Helvetica,sans-Serif" font-size="10.00">hri::PipelineLayoutBuilder</text>
<text text-anchor="middle" x="270.75" y="-306.5" font-family="Helvetica,sans-Serif" font-size="10.00">::addDescriptorSetLayout</text>
</a>
</g>
</g>
<!-- Node1&#45;&gt;Node2 -->
<g id="edge1_Node000001_Node000002" class="edge">
<title>Node1&#45;&gt;Node2</title>
<g id="a_edge1_Node000001_Node000002"><a xlink:title=" ">
<path fill="none" stroke="#63b8ff" d="M84.87,-182.46C101.78,-209.24 138.87,-262.16 184,-291 188.15,-293.66 192.6,-296.04 197.2,-298.17"/>
<polygon fill="#63b8ff" stroke="#63b8ff" points="195.49,-301.25 206.07,-301.88 198.19,-294.79 195.49,-301.25"/>
</a>
</g>
</g>
<!-- Node3 -->
<g id="Node000003" class="node">
<title>Node3</title>
<g id="a_Node000003"><a xlink:href="classraytracing_1_1_ray_tracing_pipeline_builder.html#aa4c92b93a2619319877dd34b87ef4da5" target="_top" xlink:title="Add a ray tracing shader group to this pipeline.">
<polygon fill="white" stroke="#666666" points="357.5,-282 184,-282 184,-250 357.5,-250 357.5,-282"/>
<text text-anchor="start" x="192" y="-268.5" font-family="Helvetica,sans-Serif" font-size="10.00">raytracing::RayTracingPipeline</text>
<text text-anchor="middle" x="270.75" y="-256.5" font-family="Helvetica,sans-Serif" font-size="10.00">Builder::addRayTracingShaderGroup</text>
</a>
</g>
</g>
<!-- Node1&#45;&gt;Node3 -->
<g id="edge2_Node000001_Node000003" class="edge">
<title>Node1&#45;&gt;Node3</title>
<g id="a_edge2_Node000001_Node000003"><a xlink:title=" ">
<path fill="none" stroke="#63b8ff" d="M94.7,-182.46C115.66,-199.25 150.38,-225.04 184,-241 187.47,-242.65 191.07,-244.21 194.74,-245.68"/>
<polygon fill="#63b8ff" stroke="#63b8ff" points="193.22,-248.85 203.81,-249.1 195.68,-242.3 193.22,-248.85"/>
</a>
</g>
</g>
<!-- Node4 -->
<g id="Node000004" class="node">
<title>Node4</title>
<g id="a_Node000004"><a xlink:href="classraytracing_1_1_ray_tracing_pipeline_builder.html#a552c71f5060e159809305616b3e68b6d" target="_top" xlink:title="Add a shader stage to this pipeline.">
<polygon fill="white" stroke="#666666" points="344.75,-232 196.75,-232 196.75,-200 344.75,-200 344.75,-232"/>
<text text-anchor="start" x="204.75" y="-218.5" font-family="Helvetica,sans-Serif" font-size="10.00">raytracing::RayTracingPipeline</text>
<text text-anchor="middle" x="270.75" y="-206.5" font-family="Helvetica,sans-Serif" font-size="10.00">Builder::addShaderStage</text>
</a>
</g>
</g>
<!-- Node1&#45;&gt;Node4 -->
<g id="edge3_Node000001_Node000004" class="edge">
<title>Node1&#45;&gt;Node4</title>
<g id="a_edge3_Node000001_Node000004"><a xlink:title=" ">
<path fill="none" stroke="#63b8ff" d="M139.04,-182.44C156.84,-187.01 176.33,-192.02 194.71,-196.73"/>
<polygon fill="#63b8ff" stroke="#63b8ff" points="193.65,-200.08 204.21,-199.17 195.39,-193.3 193.65,-200.08"/>
</a>
</g>
</g>
<!-- Node5 -->
<g id="Node000005" class="node">
<title>Node5</title>
<g id="a_Node000005"><a xlink:href="classhri_1_1_pipeline_layout_builder.html#ad88e3add16c5f341425531e1db34c77d" target="_top" xlink:title="Build the configured pipeline layout.">
<polygon fill="white" stroke="#666666" points="333.88,-182 207.62,-182 207.62,-150 333.88,-150 333.88,-182"/>
<text text-anchor="start" x="215.62" y="-168.5" font-family="Helvetica,sans-Serif" font-size="10.00">hri::PipelineLayoutBuilder</text>
<text text-anchor="middle" x="270.75" y="-156.5" font-family="Helvetica,sans-Serif" font-size="10.00">::build</text>
</a>
</g>
</g>
<!-- Node1&#45;&gt;Node5 -->
<g id="edge4_Node000001_Node000005" class="edge">
<title>Node1&#45;&gt;Node5</title>
<g id="a_edge4_Node000001_Node000005"><a xlink:title=" ">
<path fill="none" stroke="#63b8ff" d="M148.35,-166C163.97,-166 180.46,-166 196.09,-166"/>
<polygon fill="#63b8ff" stroke="#63b8ff" points="195.78,-169.5 205.78,-166 195.78,-162.5 195.78,-169.5"/>
</a>
</g>
</g>
<!-- Node6 -->
<g id="Node000006" class="node">
<title>Node6</title>
<g id="a_Node000006"><a xlink:href="classraytracing_1_1_ray_tracing_pipeline_builder.html#a33c3377aef4382a3b7ba790deaf96c13" target="_top" xlink:title="Build a ray tracing pipeline using the configuration provided.">
<polygon fill="white" stroke="#666666" points="344.75,-132 196.75,-132 196.75,-100 344.75,-100 344.75,-132"/>
<text text-anchor="start" x="204.75" y="-118.5" font-family="Helvetica,sans-Serif" font-size="10.00">raytracing::RayTracingPipeline</text>
<text text-anchor="middle" x="270.75" y="-106.5" font-family="Helvetica,sans-Serif" font-size="10.00">Builder::build</text>
</a>
</g>
</g>
<!-- Node1&#45;&gt;Node6 -->
<g id="edge5_Node000001_Node000006" class="edge">
<title>Node1&#45;&gt;Node6</title>
<g id="a_edge5_Node000001_Node000006"><a xlink:title=" ">
<path fill="none" stroke="#63b8ff" d="M139.04,-149.56C156.84,-144.99 176.33,-139.98 194.71,-135.27"/>
<polygon fill="#63b8ff" stroke="#63b8ff" points="195.39,-138.7 204.21,-132.83 193.65,-131.92 195.39,-138.7"/>
</a>
</g>
</g>
<!-- Node7 -->
<g id="Node000007" class="node">
<title>Node7</title>
<g id="a_Node000007"><a xlink:href="classraytracing_1_1_ray_tracing_pipeline_builder.html#a50e2ce96de901ee51708989817a0c8ce" target="_top" xlink:title="Set the pipeline layout to use for creation.">
<polygon fill="white" stroke="#666666" points="344.75,-82 196.75,-82 196.75,-50 344.75,-50 344.75,-82"/>
<text text-anchor="start" x="204.75" y="-68.5" font-family="Helvetica,sans-Serif" font-size="10.00">raytracing::RayTracingPipeline</text>
<text text-anchor="middle" x="270.75" y="-56.5" font-family="Helvetica,sans-Serif" font-size="10.00">Builder::setLayout</text>
</a>
</g>
</g>
<!-- Node1&#45;&gt;Node7 -->
<g id="edge6_Node000001_Node000007" class="edge">
<title>Node1&#45;&gt;Node7</title>
<g id="a_edge6_Node000001_Node000007"><a xlink:title=" ">
<path fill="none" stroke="#63b8ff" d="M94.7,-149.54C115.66,-132.75 150.38,-106.96 184,-91 187.47,-89.35 191.07,-87.79 194.74,-86.32"/>
<polygon fill="#63b8ff" stroke="#63b8ff" points="195.68,-89.7 203.81,-82.9 193.22,-83.15 195.68,-89.7"/>
</a>
</g>
</g>
<!-- Node8 -->
<g id="Node000008" class="node">
<title>Node8</title>
<g id="a_Node000008"><a xlink:href="classraytracing_1_1_ray_tracing_pipeline_builder.html#ab6d70d84b23cdb870a3d41c987a6c4d3" target="_top" xlink:title="Set the maximum recursion depth for raytracing (default is DEMO_DEFAULT_RT_RECURSION_DEPTH)">
<polygon fill="white" stroke="#666666" points="347.38,-32 194.12,-32 194.12,0 347.38,0 347.38,-32"/>
<text text-anchor="start" x="202.12" y="-18.5" font-family="Helvetica,sans-Serif" font-size="10.00">raytracing::RayTracingPipeline</text>
<text text-anchor="middle" x="270.75" y="-6.5" font-family="Helvetica,sans-Serif" font-size="10.00">Builder::setMaxRecursionDepth</text>
</a>
</g>
</g>
<!-- Node1&#45;&gt;Node8 -->
<g id="edge7_Node000001_Node000008" class="edge">
<title>Node1&#45;&gt;Node8</title>
<g id="a_edge7_Node000001_Node000008"><a xlink:title=" ">
<path fill="none" stroke="#63b8ff" d="M84.87,-149.54C101.78,-122.76 138.87,-69.84 184,-41 185.99,-39.73 188.05,-38.52 190.16,-37.37"/>
<polygon fill="#63b8ff" stroke="#63b8ff" points="191.52,-40.6 198.99,-33.08 188.46,-34.3 191.52,-40.6"/>
</a>
</g>
</g>
</g>
</svg>
