<?xml version="1.0" encoding="UTF-8" standalone="no"?>
<!DOCTYPE svg PUBLIC "-//W3C//DTD SVG 1.1//EN"
 "http://www.w3.org/Graphics/SVG/1.1/DTD/svg11.dtd">
<!-- Generated by graphviz version 10.0.1 (20240210.2158)
 -->
<!-- Title: hri::Scene Pages: 1 -->
<svg width="181pt" height="128pt"
 viewBox="0.00 0.00 181.00 128.00" xmlns="http://www.w3.org/2000/svg" xmlns:xlink="http://www.w3.org/1999/xlink">
<g id="graph0" class="graph" transform="scale(1 1) rotate(0) translate(4 124)">
<title>hri::Scene</title>
<!-- Node1 -->
<g id="Node000001" class="node">
<title>Node1</title>
<g id="a_Node000001"><a xlink:title="The Scene class represents the renderable world and its contents.">
<polygon fill="#999999" stroke="none" points="173,-120 0,-120 0,0 173,0 173,-120"/>
<text text-anchor="start" x="64.38" y="-106.5" font-family="Helvetica,sans-Serif" font-size="10.00">hri::Scene</text>
<text text-anchor="start" x="85" y="-90.5" font-family="Helvetica,sans-Serif" font-size="10.00"> </text>
<text text-anchor="start" x="4" y="-74.5" font-family="Helvetica,sans-Serif" font-size="10.00">+</text>
<text text-anchor="start" x="14" y="-74.5" font-family="Helvetica,sans-Serif" font-size="10.00">Scene()=default</text>
<text text-anchor="start" x="4" y="-58.5" font-family="Helvetica,sans-Serif" font-size="10.00">+</text>
<text text-anchor="start" x="14" y="-58.5" font-family="Helvetica,sans-Serif" font-size="10.00">Scene(SceneParameters</text>
<text text-anchor="start" x="14" y="-46.5" font-family="Helvetica,sans-Serif" font-size="10.00"> sceneParameters, const</text>
<text text-anchor="start" x="14" y="-34.5" font-family="Helvetica,sans-Serif" font-size="10.00"> SceneData &amp;sceneData, const</text>
<text text-anchor="start" x="14" y="-22.5" font-family="Helvetica,sans-Serif" font-size="10.00"> std::vector&lt; SceneNode &gt; &amp;nodes)</text>
<text text-anchor="start" x="4" y="-6.5" font-family="Helvetica,sans-Serif" font-size="10.00">+</text>
<text text-anchor="start" x="14" y="-6.5" font-family="Helvetica,sans-Serif" font-size="10.00">virtual ~Scene()=default</text>
<polygon fill="#666666" stroke="#666666" points="0,-102 0,-102 173,-102 173,-102 0,-102"/>
<polygon fill="#666666" stroke="#666666" points="0,-86 0,-86 173,-86 173,-86 0,-86"/>
<polygon fill="none" stroke="#666666" points="0,0 0,-120 173,-120 173,0 0,0"/>
</a>
</g>
</g>
</g>
</svg>
