<?xml version="1.0" encoding="UTF-8" standalone="no"?>
<!DOCTYPE svg PUBLIC "-//W3C//DTD SVG 1.1//EN"
 "http://www.w3.org/Graphics/SVG/1.1/DTD/svg11.dtd">
<!-- Generated by graphviz version 10.0.1 (20240210.2158)
 -->
<!-- Title: hri::SwapchainPassResourceManager Pages: 1 -->
<!--zoomable 1645 -->

<svg id="main" version="1.1" xmlns="http://www.w3.org/2000/svg" xmlns:xlink="http://www.w3.org/1999/xlink" xml:space="preserve" onload="init(evt)">
<style type="text/css"><![CDATA[
.node, .edge {opacity: 0.7;}
.node.selected, .edge.selected {opacity: 1;}
.edge:hover path { stroke: red; }
.edge:hover polygon { stroke: red; fill: red; }
]]></style>

<defs>
  <circle id="rim" cx="0" cy="0" r="7"/>
  <circle id="rim2" cx="0" cy="0" r="3.5"/>
  <g id="zoomPlus">
    <use xlink:href="#rim" fill="#404040"><set attributeName="fill" to="#808080" begin="zoomplus.mouseover" end="zoomplus.mouseout"/></use>
    <path d="M-4,0h8M0,-4v8" fill="none" stroke="white" stroke-width="1.5" pointer-events="none"/>
  </g>
  <g id="zoomMin">
    <use xlink:href="#rim" fill="#404040"><set attributeName="fill" to="#808080" begin="zoomminus.mouseover" end="zoomminus.mouseout"/></use>
    <path d="M-4,0h8" fill="none" stroke="white" stroke-width="1.5" pointer-events="none"/>
  </g>
  <g id="arrowUp" transform="translate(30 24)">
    <use xlink:href="#rim"/>
    <path pointer-events="none" fill="none" stroke="white" stroke-width="1.5" d="M0,-3.0v7 M-2.5,-0.5L0,-3.0L2.5,-0.5"/>
  </g>
  <g id="arrowRight" transform="rotate(90) translate(36 -43)">
    <use xlink:href="#rim"/>
    <path pointer-events="none" fill="none" stroke="white" stroke-width="1.5" d="M0,-3.0v7 M-2.5,-0.5L0,-3.0L2.5,-0.5"/>
  </g>
  <g id="arrowDown" transform="rotate(180) translate(-30 -48)">
    <use xlink:href="#rim"/>
    <path pointer-events="none" fill="none" stroke="white" stroke-width="1.5" d="M0,-3.0v7 M-2.5,-0.5L0,-3.0L2.5,-0.5"/>
  </g>
  <g id="arrowLeft" transform="rotate(270) translate(-36 17)">
    <use xlink:href="#rim"/>
    <path pointer-events="none" fill="none" stroke="white" stroke-width="1.5" d="M0,-3.0v7 M-2.5,-0.5L0,-3.0L2.5,-0.5"/>
  </g>
  <g id="resetDef">
    <use xlink:href="#rim2" fill="#404040"><set attributeName="fill" to="#808080" begin="reset.mouseover" end="reset.mouseout"/></use>
  </g>
</defs>
<script type="application/ecmascript">
var viewWidth = 257;
var viewHeight = 1645;
var sectionId = 'dynsection-1';
</script>
<script type="application/ecmascript" xlink:href="svg.min.js"/>
<svg id="graph" class="graph">
<g id="viewport">
<title>hri::SwapchainPassResourceManager</title>
<!-- Node1 -->
<g id="Node000001" class="node">
<title>Node1</title>
<g id="a_Node000001"><a xlink:title="The Swapchain pass resource manager is a special type of resource manager that handles rendering to s...">
<polygon fill="#999999" stroke="none" points="249,-224 0,-224 0,0 249,0 249,-224"/>
<text text-anchor="start" x="60.75" y="-210.5" font-family="Helvetica,sans-Serif" font-size="10.00">hri::SwapchainPassResource</text>
<text text-anchor="start" x="105.75" y="-198.5" font-family="Helvetica,sans-Serif" font-size="10.00">Manager</text>
<text text-anchor="start" x="123" y="-182.5" font-family="Helvetica,sans-Serif" font-size="10.00"> </text>
<text text-anchor="start" x="4" y="-166.5" font-family="Helvetica,sans-Serif" font-size="10.00">+</text>
<text text-anchor="start" x="14" y="-166.5" font-family="Helvetica,sans-Serif" font-size="10.00">SwapchainPassResourceManager</text>
<text text-anchor="start" x="14" y="-154.5" font-family="Helvetica,sans-Serif" font-size="10.00">(RenderContext &amp;ctx, VkRenderPass</text>
<text text-anchor="start" x="14" y="-142.5" font-family="Helvetica,sans-Serif" font-size="10.00"> renderPass, const std::vector</text>
<text text-anchor="start" x="14" y="-130.5" font-family="Helvetica,sans-Serif" font-size="10.00">&lt; RenderAttachmentConfig &gt; &amp;attachmentConfigs={})</text>
<text text-anchor="start" x="4" y="-114.5" font-family="Helvetica,sans-Serif" font-size="10.00">+</text>
<text text-anchor="start" x="14" y="-114.5" font-family="Helvetica,sans-Serif" font-size="10.00">virtual ~SwapchainPassResource</text>
<text text-anchor="start" x="14" y="-102.5" font-family="Helvetica,sans-Serif" font-size="10.00">Manager()</text>
<text text-anchor="start" x="4" y="-86.5" font-family="Helvetica,sans-Serif" font-size="10.00">+</text>
<text text-anchor="start" x="14" y="-86.5" font-family="Helvetica,sans-Serif" font-size="10.00">virtual void beginRender</text>
<text text-anchor="start" x="14" y="-74.5" font-family="Helvetica,sans-Serif" font-size="10.00">Pass(ActiveFrame &amp;frame)</text>
<text text-anchor="start" x="14" y="-62.5" font-family="Helvetica,sans-Serif" font-size="10.00"> const override</text>
<text text-anchor="start" x="4.38" y="-46.5" font-family="Helvetica,sans-Serif" font-size="10.00">#</text>
<text text-anchor="start" x="14" y="-46.5" font-family="Helvetica,sans-Serif" font-size="10.00">virtual void createResources</text>
<text text-anchor="start" x="14" y="-34.5" font-family="Helvetica,sans-Serif" font-size="10.00">() override</text>
<text text-anchor="start" x="4.38" y="-18.5" font-family="Helvetica,sans-Serif" font-size="10.00">#</text>
<text text-anchor="start" x="14" y="-18.5" font-family="Helvetica,sans-Serif" font-size="10.00">virtual void destroyResources</text>
<text text-anchor="start" x="14" y="-6.5" font-family="Helvetica,sans-Serif" font-size="10.00">() override</text>
<polygon fill="#666666" stroke="#666666" points="0,-194 0,-194 249,-194 249,-194 0,-194"/>
<polygon fill="#666666" stroke="#666666" points="0,-178 0,-178 249,-178 249,-178 0,-178"/>
<polygon fill="none" stroke="#666666" points="0,0 0,-224 249,-224 249,0 0,0"/>
</a>
</g>
</g>
<!-- Node2 -->
<g id="Node000002" class="node">
<title>Node2</title>
<g id="a_Node000002"><a xlink:href="classhri_1_1_i_render_pass_resource_manager_base.html" target="_top" xlink:title="The Render Pass Resource Manager Base is used to create and recreate render pass resources....">
<polygon fill="white" stroke="none" points="221.5,-873 27.5,-873 27.5,-261 221.5,-261 221.5,-873"/>
<text text-anchor="start" x="67.88" y="-859.5" font-family="Helvetica,sans-Serif" font-size="10.00">hri::IRenderPassResource</text>
<text text-anchor="start" x="94.5" y="-847.5" font-family="Helvetica,sans-Serif" font-size="10.00">ManagerBase</text>
<text text-anchor="start" x="31.88" y="-831.5" font-family="Helvetica,sans-Serif" font-size="10.00">#</text>
<text text-anchor="start" x="41.5" y="-831.5" font-family="Helvetica,sans-Serif" font-size="10.00">VkRenderPass m_renderPass</text>
<text text-anchor="start" x="31.88" y="-815.5" font-family="Helvetica,sans-Serif" font-size="10.00">#</text>
<text text-anchor="start" x="41.5" y="-815.5" font-family="Helvetica,sans-Serif" font-size="10.00">VkExtent2D m_renderExtent</text>
<text text-anchor="start" x="31.88" y="-799.5" font-family="Helvetica,sans-Serif" font-size="10.00">#</text>
<text text-anchor="start" x="41.5" y="-799.5" font-family="Helvetica,sans-Serif" font-size="10.00">std::vector&lt; VkClearValue</text>
<text text-anchor="start" x="41.5" y="-787.5" font-family="Helvetica,sans-Serif" font-size="10.00"> &gt; m_clearValues</text>
<text text-anchor="start" x="31.88" y="-771.5" font-family="Helvetica,sans-Serif" font-size="10.00">#</text>
<text text-anchor="start" x="41.5" y="-771.5" font-family="Helvetica,sans-Serif" font-size="10.00">std::vector&lt; RenderAttachment</text>
<text text-anchor="start" x="41.5" y="-759.5" font-family="Helvetica,sans-Serif" font-size="10.00">Config &gt; m_attachmentConfigs</text>
<text text-anchor="start" x="31.88" y="-743.5" font-family="Helvetica,sans-Serif" font-size="10.00">#</text>
<text text-anchor="start" x="41.5" y="-743.5" font-family="Helvetica,sans-Serif" font-size="10.00">std::vector&lt; ImageResource</text>
<text text-anchor="start" x="41.5" y="-731.5" font-family="Helvetica,sans-Serif" font-size="10.00"> &gt; m_imageResources</text>
<text text-anchor="start" x="31.5" y="-715.5" font-family="Helvetica,sans-Serif" font-size="10.00">+</text>
<text text-anchor="start" x="41.5" y="-715.5" font-family="Helvetica,sans-Serif" font-size="10.00">IRenderPassResourceManager</text>
<text text-anchor="start" x="41.5" y="-703.5" font-family="Helvetica,sans-Serif" font-size="10.00">Base(RenderContext &amp;ctx,</text>
<text text-anchor="start" x="41.5" y="-691.5" font-family="Helvetica,sans-Serif" font-size="10.00"> VkRenderPass renderPass,</text>
<text text-anchor="start" x="41.5" y="-679.5" font-family="Helvetica,sans-Serif" font-size="10.00"> const std::vector&lt; RenderAttachment</text>
<text text-anchor="start" x="41.5" y="-667.5" font-family="Helvetica,sans-Serif" font-size="10.00">Config &gt; &amp;attachmentConfigs)</text>
<text text-anchor="start" x="31.5" y="-651.5" font-family="Helvetica,sans-Serif" font-size="10.00">+</text>
<text text-anchor="start" x="41.5" y="-651.5" font-family="Helvetica,sans-Serif" font-size="10.00">virtual ~IRenderPassResource</text>
<text text-anchor="start" x="41.5" y="-639.5" font-family="Helvetica,sans-Serif" font-size="10.00">ManagerBase()</text>
<text text-anchor="start" x="31.5" y="-623.5" font-family="Helvetica,sans-Serif" font-size="10.00">+</text>
<text text-anchor="start" x="41.5" y="-623.5" font-family="Helvetica,sans-Serif" font-size="10.00">IRenderPassResourceManager</text>
<text text-anchor="start" x="41.5" y="-611.5" font-family="Helvetica,sans-Serif" font-size="10.00">Base(IRenderPassResourceManager</text>
<text text-anchor="start" x="41.5" y="-599.5" font-family="Helvetica,sans-Serif" font-size="10.00">Base &amp;)=delete</text>
<text text-anchor="start" x="31.5" y="-583.5" font-family="Helvetica,sans-Serif" font-size="10.00">+</text>
<text text-anchor="start" x="41.5" y="-583.5" font-family="Helvetica,sans-Serif" font-size="10.00">IRenderPassResourceManager</text>
<text text-anchor="start" x="41.5" y="-571.5" font-family="Helvetica,sans-Serif" font-size="10.00">Base &amp; operator=(IRenderPassResource</text>
<text text-anchor="start" x="41.5" y="-559.5" font-family="Helvetica,sans-Serif" font-size="10.00">ManagerBase &amp;)=delete</text>
<text text-anchor="start" x="31.5" y="-543.5" font-family="Helvetica,sans-Serif" font-size="10.00">+</text>
<text text-anchor="start" x="41.5" y="-543.5" font-family="Helvetica,sans-Serif" font-size="10.00">virtual void beginRender</text>
<text text-anchor="start" x="41.5" y="-531.5" font-family="Helvetica,sans-Serif" font-size="10.00">Pass(ActiveFrame &amp;frame)</text>
<text text-anchor="start" x="41.5" y="-519.5" font-family="Helvetica,sans-Serif" font-size="10.00"> const =0</text>
<text text-anchor="start" x="31.5" y="-503.5" font-family="Helvetica,sans-Serif" font-size="10.00">+</text>
<text text-anchor="start" x="41.5" y="-503.5" font-family="Helvetica,sans-Serif" font-size="10.00">virtual void endRenderPass</text>
<text text-anchor="start" x="41.5" y="-491.5" font-family="Helvetica,sans-Serif" font-size="10.00">(ActiveFrame &amp;frame) const</text>
<text text-anchor="start" x="31.5" y="-475.5" font-family="Helvetica,sans-Serif" font-size="10.00">+</text>
<text text-anchor="start" x="41.5" y="-475.5" font-family="Helvetica,sans-Serif" font-size="10.00">virtual void setClearValue</text>
<text text-anchor="start" x="41.5" y="-463.5" font-family="Helvetica,sans-Serif" font-size="10.00">(uint32_t attachmentIndex,</text>
<text text-anchor="start" x="41.5" y="-451.5" font-family="Helvetica,sans-Serif" font-size="10.00"> VkClearValue clearValue)</text>
<text text-anchor="start" x="31.5" y="-435.5" font-family="Helvetica,sans-Serif" font-size="10.00">+</text>
<text text-anchor="start" x="41.5" y="-435.5" font-family="Helvetica,sans-Serif" font-size="10.00">virtual VkRenderPass</text>
<text text-anchor="start" x="41.5" y="-423.5" font-family="Helvetica,sans-Serif" font-size="10.00"> renderPass() const</text>
<text text-anchor="start" x="31.5" y="-407.5" font-family="Helvetica,sans-Serif" font-size="10.00">+</text>
<text text-anchor="start" x="41.5" y="-407.5" font-family="Helvetica,sans-Serif" font-size="10.00">virtual const ImageResource</text>
<text text-anchor="start" x="41.5" y="-395.5" font-family="Helvetica,sans-Serif" font-size="10.00"> &amp; getAttachmentResource</text>
<text text-anchor="start" x="41.5" y="-383.5" font-family="Helvetica,sans-Serif" font-size="10.00">(uint32_t attachmentIndex) const</text>
<text text-anchor="start" x="31.5" y="-367.5" font-family="Helvetica,sans-Serif" font-size="10.00">+</text>
<text text-anchor="start" x="41.5" y="-367.5" font-family="Helvetica,sans-Serif" font-size="10.00">virtual void recreateResources()</text>
<text text-anchor="start" x="31.88" y="-351.5" font-family="Helvetica,sans-Serif" font-size="10.00">#</text>
<text text-anchor="start" x="41.5" y="-351.5" font-family="Helvetica,sans-Serif" font-size="10.00">virtual void createResources()</text>
<text text-anchor="start" x="31.88" y="-335.5" font-family="Helvetica,sans-Serif" font-size="10.00">#</text>
<text text-anchor="start" x="41.5" y="-335.5" font-family="Helvetica,sans-Serif" font-size="10.00">virtual void destroyResources()</text>
<text text-anchor="start" x="31.88" y="-319.5" font-family="Helvetica,sans-Serif" font-size="10.00">#</text>
<text text-anchor="start" x="41.5" y="-319.5" font-family="Helvetica,sans-Serif" font-size="10.00">virtual std::vector</text>
<text text-anchor="start" x="41.5" y="-307.5" font-family="Helvetica,sans-Serif" font-size="10.00">&lt; VkImageView &gt; getImageResource</text>
<text text-anchor="start" x="41.5" y="-295.5" font-family="Helvetica,sans-Serif" font-size="10.00">Views()</text>
<text text-anchor="start" x="31.88" y="-279.5" font-family="Helvetica,sans-Serif" font-size="10.00">#</text>
<text text-anchor="start" x="41.5" y="-279.5" font-family="Helvetica,sans-Serif" font-size="10.00">virtual VkExtent2D</text>
<text text-anchor="start" x="41.5" y="-267.5" font-family="Helvetica,sans-Serif" font-size="10.00"> getRenderExtent() const</text>
<polygon fill="#666666" stroke="#666666" points="27.5,-843 27.5,-843 221.5,-843 221.5,-843 27.5,-843"/>
<polygon fill="#666666" stroke="#666666" points="27.5,-727 27.5,-727 39.5,-727 39.5,-727 27.5,-727"/>
<polygon fill="#666666" stroke="#666666" points="39.5,-727 39.5,-727 221.5,-727 221.5,-727 39.5,-727"/>
<polygon fill="none" stroke="#666666" points="27.5,-261 27.5,-873 221.5,-873 221.5,-261 27.5,-261"/>
</a>
</g>
</g>
<!-- Node2&#45;&gt;Node1 -->
<g id="edge1_Node000001_Node000002" class="edge">
<title>Node2&#45;&gt;Node1</title>
<g id="a_edge1_Node000001_Node000002"><a xlink:title=" ">
<path fill="none" stroke="#63b8ff" d="M124.5,-249.6C124.5,-240.67 124.5,-231.97 124.5,-223.56"/>
<polygon fill="none" stroke="#63b8ff" points="121,-249.5 124.5,-259.5 128,-249.5 121,-249.5"/>
</a>
</g>
</g>
<!-- Node3 -->
<g id="Node000003" class="node">
<title>Node3</title>
<g id="a_Node000003"><a xlink:href="classhri_1_1_render_context.html" target="_top" xlink:title="THe RenderContext manages the Vulkan instance, device, and swapchain state.">
<polygon fill="white" stroke="none" points="204.5,-1345 44.5,-1345 44.5,-921 204.5,-921 204.5,-1345"/>
<text text-anchor="start" x="84" y="-1331.5" font-family="Helvetica,sans-Serif" font-size="10.00">hri::RenderContext</text>
<text text-anchor="start" x="48.5" y="-1315.5" font-family="Helvetica,sans-Serif" font-size="10.00">+</text>
<text text-anchor="start" x="58.5" y="-1315.5" font-family="Helvetica,sans-Serif" font-size="10.00">vkb::Instance instance</text>
<text text-anchor="start" x="48.5" y="-1299.5" font-family="Helvetica,sans-Serif" font-size="10.00">+</text>
<text text-anchor="start" x="58.5" y="-1299.5" font-family="Helvetica,sans-Serif" font-size="10.00">VkSurfaceKHR surface</text>
<text text-anchor="start" x="48.5" y="-1283.5" font-family="Helvetica,sans-Serif" font-size="10.00">+</text>
<text text-anchor="start" x="58.5" y="-1283.5" font-family="Helvetica,sans-Serif" font-size="10.00">vkb::PhysicalDevice gpu</text>
<text text-anchor="start" x="48.5" y="-1267.5" font-family="Helvetica,sans-Serif" font-size="10.00">+</text>
<text text-anchor="start" x="58.5" y="-1267.5" font-family="Helvetica,sans-Serif" font-size="10.00">vkb::Device device</text>
<text text-anchor="start" x="48.5" y="-1251.5" font-family="Helvetica,sans-Serif" font-size="10.00">+</text>
<text text-anchor="start" x="58.5" y="-1251.5" font-family="Helvetica,sans-Serif" font-size="10.00">VmaAllocator allocator</text>
<text text-anchor="start" x="48.5" y="-1235.5" font-family="Helvetica,sans-Serif" font-size="10.00">+</text>
<text text-anchor="start" x="58.5" y="-1235.5" font-family="Helvetica,sans-Serif" font-size="10.00">vkb::Swapchain swapchain</text>
<text text-anchor="start" x="48.5" y="-1219.5" font-family="Helvetica,sans-Serif" font-size="10.00">+</text>
<text text-anchor="start" x="58.5" y="-1219.5" font-family="Helvetica,sans-Serif" font-size="10.00">RenderContext(RenderContext</text>
<text text-anchor="start" x="58.5" y="-1207.5" font-family="Helvetica,sans-Serif" font-size="10.00">CreateInfo &amp;createInfo)</text>
<text text-anchor="start" x="48.5" y="-1191.5" font-family="Helvetica,sans-Serif" font-size="10.00">+</text>
<text text-anchor="start" x="58.5" y="-1191.5" font-family="Helvetica,sans-Serif" font-size="10.00">virtual ~RenderContext()</text>
<text text-anchor="start" x="48.5" y="-1175.5" font-family="Helvetica,sans-Serif" font-size="10.00">+</text>
<text text-anchor="start" x="58.5" y="-1175.5" font-family="Helvetica,sans-Serif" font-size="10.00">RenderContext(const</text>
<text text-anchor="start" x="58.5" y="-1163.5" font-family="Helvetica,sans-Serif" font-size="10.00"> RenderContext &amp;)=delete</text>
<text text-anchor="start" x="48.5" y="-1147.5" font-family="Helvetica,sans-Serif" font-size="10.00">+</text>
<text text-anchor="start" x="58.5" y="-1147.5" font-family="Helvetica,sans-Serif" font-size="10.00">RenderContext &amp; operator</text>
<text text-anchor="start" x="58.5" y="-1135.5" font-family="Helvetica,sans-Serif" font-size="10.00">=(const RenderContext &amp;)</text>
<text text-anchor="start" x="58.5" y="-1123.5" font-family="Helvetica,sans-Serif" font-size="10.00">=delete</text>
<text text-anchor="start" x="48.5" y="-1107.5" font-family="Helvetica,sans-Serif" font-size="10.00">+</text>
<text text-anchor="start" x="58.5" y="-1107.5" font-family="Helvetica,sans-Serif" font-size="10.00">RenderContext(RenderContext</text>
<text text-anchor="start" x="58.5" y="-1095.5" font-family="Helvetica,sans-Serif" font-size="10.00"> &amp;&amp;other) noexcept</text>
<text text-anchor="start" x="48.5" y="-1079.5" font-family="Helvetica,sans-Serif" font-size="10.00">+</text>
<text text-anchor="start" x="58.5" y="-1079.5" font-family="Helvetica,sans-Serif" font-size="10.00">RenderContext &amp; operator</text>
<text text-anchor="start" x="58.5" y="-1067.5" font-family="Helvetica,sans-Serif" font-size="10.00">=(RenderContext &amp;&amp;other)</text>
<text text-anchor="start" x="58.5" y="-1055.5" font-family="Helvetica,sans-Serif" font-size="10.00"> noexcept</text>
<text text-anchor="start" x="48.5" y="-1039.5" font-family="Helvetica,sans-Serif" font-size="10.00">+</text>
<text text-anchor="start" x="58.5" y="-1039.5" font-family="Helvetica,sans-Serif" font-size="10.00">void setVSyncMode(VSyncMode</text>
<text text-anchor="start" x="58.5" y="-1027.5" font-family="Helvetica,sans-Serif" font-size="10.00"> vsyncMode)</text>
<text text-anchor="start" x="48.5" y="-1011.5" font-family="Helvetica,sans-Serif" font-size="10.00">+</text>
<text text-anchor="start" x="58.5" y="-1011.5" font-family="Helvetica,sans-Serif" font-size="10.00">void recreateSwapchain()</text>
<text text-anchor="start" x="48.5" y="-995.5" font-family="Helvetica,sans-Serif" font-size="10.00">+</text>
<text text-anchor="start" x="58.5" y="-995.5" font-family="Helvetica,sans-Serif" font-size="10.00">_PFn getInstanceFunction</text>
<text text-anchor="start" x="58.5" y="-983.5" font-family="Helvetica,sans-Serif" font-size="10.00">(const char *name) const</text>
<text text-anchor="start" x="48.5" y="-967.5" font-family="Helvetica,sans-Serif" font-size="10.00">+</text>
<text text-anchor="start" x="58.5" y="-967.5" font-family="Helvetica,sans-Serif" font-size="10.00">_PFn getDeviceFunction</text>
<text text-anchor="start" x="58.5" y="-955.5" font-family="Helvetica,sans-Serif" font-size="10.00">(const char *name) const</text>
<text text-anchor="start" x="48.5" y="-939.5" font-family="Helvetica,sans-Serif" font-size="10.00">+</text>
<text text-anchor="start" x="58.5" y="-939.5" font-family="Helvetica,sans-Serif" font-size="10.00">VkFormat swapFormat</text>
<text text-anchor="start" x="58.5" y="-927.5" font-family="Helvetica,sans-Serif" font-size="10.00">() const</text>
<polygon fill="#666666" stroke="#666666" points="44.5,-1327 44.5,-1327 204.5,-1327 204.5,-1327 44.5,-1327"/>
<polygon fill="#666666" stroke="#666666" points="44.5,-1231 44.5,-1231 56.5,-1231 56.5,-1231 44.5,-1231"/>
<polygon fill="#666666" stroke="#666666" points="56.5,-1231 56.5,-1231 204.5,-1231 204.5,-1231 56.5,-1231"/>
<polygon fill="none" stroke="#666666" points="44.5,-921 44.5,-1345 204.5,-1345 204.5,-921 44.5,-921"/>
</a>
</g>
</g>
<!-- Node3&#45;&gt;Node2 -->
<g id="edge2_Node000002_Node000003" class="edge">
<title>Node3&#45;&gt;Node2</title>
<g id="a_edge2_Node000002_Node000003"><a xlink:title=" ">
<path fill="none" stroke="#63b8ff" d="M124.5,-921.19C124.5,-909.47 124.5,-897.57 124.5,-885.59"/>
<polygon fill="none" stroke="#63b8ff" points="124.5,-885.46 120.5,-879.46 124.5,-873.46 128.5,-879.46 124.5,-885.46"/>
</a>
</g>
<text text-anchor="middle" x="142.12" y="-893.5" font-family="Helvetica,sans-Serif" font-size="10.00" fill="grey"> #m_ctx</text>
</g>
<!-- Node4 -->
<g id="Node000004" class="node">
<title>Node4</title>
<g id="a_Node000004"><a xlink:href="classhri_1_1_render_context_queue_state.html" target="_top" xlink:title="The context queue state creates and maintains the device queue setup.">
<polygon fill="white" stroke="none" points="195.5,-1485 53.5,-1485 53.5,-1393 195.5,-1393 195.5,-1485"/>
<text text-anchor="start" x="58.12" y="-1471.5" font-family="Helvetica,sans-Serif" font-size="10.00">hri::RenderContextQueueState</text>
<text text-anchor="start" x="123" y="-1455.5" font-family="Helvetica,sans-Serif" font-size="10.00"> </text>
<text text-anchor="start" x="59.5" y="-1439.5" font-family="Helvetica,sans-Serif" font-size="10.00">+</text>
<text text-anchor="start" x="71.5" y="-1439.5" font-family="Helvetica,sans-Serif" font-size="10.00">RenderContextQueueState</text>
<text text-anchor="start" x="71.5" y="-1427.5" font-family="Helvetica,sans-Serif" font-size="10.00">()=default</text>
<text text-anchor="start" x="59.5" y="-1411.5" font-family="Helvetica,sans-Serif" font-size="10.00">+</text>
<text text-anchor="start" x="71.5" y="-1411.5" font-family="Helvetica,sans-Serif" font-size="10.00">RenderContextQueueState</text>
<text text-anchor="start" x="71.5" y="-1399.5" font-family="Helvetica,sans-Serif" font-size="10.00">(vkb::Device device)</text>
<polygon fill="#666666" stroke="#666666" points="53.5,-1467 53.5,-1467 195.5,-1467 195.5,-1467 53.5,-1467"/>
<polygon fill="#666666" stroke="#666666" points="53.5,-1451 53.5,-1451 195.5,-1451 195.5,-1451 53.5,-1451"/>
<polygon fill="none" stroke="#666666" points="53.5,-1393 53.5,-1485 195.5,-1485 195.5,-1393 53.5,-1393"/>
</a>
</g>
</g>
<!-- Node4&#45;&gt;Node3 -->
<g id="edge3_Node000003_Node000004" class="edge">
<title>Node4&#45;&gt;Node3</title>
<g id="a_edge3_Node000003_Node000004"><a xlink:title=" ">
<path fill="none" stroke="#63b8ff" d="M124.5,-1393.14C124.5,-1382.51 124.5,-1370.44 124.5,-1357.48"/>
<polygon fill="none" stroke="#63b8ff" points="124.5,-1357.7 120.5,-1351.7 124.5,-1345.7 128.5,-1351.7 124.5,-1357.7"/>
</a>
</g>
<text text-anchor="middle" x="144.75" y="-1365.5" font-family="Helvetica,sans-Serif" font-size="10.00" fill="grey"> +queues</text>
</g>
<!-- Node5 -->
<g id="Node000005" class="node">
<title>Node5</title>
<g id="a_Node000005"><a xlink:href="structhri_1_1_device_queue.html" target="_top" xlink:title="A Device Queue is a queue on the logical device to which operations can be submitted.">
<polygon fill="white" stroke="none" points="169.5,-1637 79.5,-1637 79.5,-1569 169.5,-1569 169.5,-1637"/>
<text text-anchor="start" x="87.75" y="-1623.5" font-family="Helvetica,sans-Serif" font-size="10.00">hri::DeviceQueue</text>
<text text-anchor="start" x="83.5" y="-1607.5" font-family="Helvetica,sans-Serif" font-size="10.00">+</text>
<text text-anchor="start" x="93.5" y="-1607.5" font-family="Helvetica,sans-Serif" font-size="10.00">uint32_t family</text>
<text text-anchor="start" x="83.5" y="-1591.5" font-family="Helvetica,sans-Serif" font-size="10.00">+</text>
<text text-anchor="start" x="93.5" y="-1591.5" font-family="Helvetica,sans-Serif" font-size="10.00">VkQueue handle</text>
<text text-anchor="start" x="123" y="-1575.5" font-family="Helvetica,sans-Serif" font-size="10.00"> </text>
<polygon fill="#666666" stroke="#666666" points="79.5,-1619 79.5,-1619 169.5,-1619 169.5,-1619 79.5,-1619"/>
<polygon fill="#666666" stroke="#666666" points="79.5,-1587 79.5,-1587 91.5,-1587 91.5,-1587 79.5,-1587"/>
<polygon fill="#666666" stroke="#666666" points="91.5,-1587 91.5,-1587 169.5,-1587 169.5,-1587 91.5,-1587"/>
<polygon fill="none" stroke="#666666" points="79.5,-1569 79.5,-1637 169.5,-1637 169.5,-1569 79.5,-1569"/>
</a>
</g>
</g>
<!-- Node5&#45;&gt;Node4 -->
<g id="edge4_Node000004_Node000005" class="edge">
<title>Node5&#45;&gt;Node4</title>
<g id="a_edge4_Node000004_Node000005"><a xlink:title=" ">
<path fill="none" stroke="#63b8ff" d="M124.5,-1569.22C124.5,-1548.7 124.5,-1521.7 124.5,-1497.68"/>
<polygon fill="none" stroke="#63b8ff" points="124.5,-1497.61 120.5,-1491.61 124.5,-1485.61 128.5,-1491.61 124.5,-1497.61"/>
</a>
</g>
<text text-anchor="middle" x="162" y="-1541.5" font-family="Helvetica,sans-Serif" font-size="10.00" fill="grey"> +computeQueue</text>
<text text-anchor="middle" x="162" y="-1529.5" font-family="Helvetica,sans-Serif" font-size="10.00" fill="grey">+graphicsQueue</text>
<text text-anchor="middle" x="162" y="-1517.5" font-family="Helvetica,sans-Serif" font-size="10.00" fill="grey">+presentQueue</text>
<text text-anchor="middle" x="162" y="-1505.5" font-family="Helvetica,sans-Serif" font-size="10.00" fill="grey">+transferQueue</text>
</g>
</g>
</svg>

<g id="navigator" transform="translate(0 0)" fill="#404254">
  <rect fill="#f2f5e9" fill-opacity="0.5" stroke="#606060" stroke-width=".5" x="0" y="0" width="60" height="60"/>
  <use id="zoomplus" xlink:href="#zoomPlus" x="17" y="9" onmousedown="handleZoom(evt,'in')"/>
  <use id="zoomminus" xlink:href="#zoomMin" x="42" y="9" onmousedown="handleZoom(evt,'out')"/>
  <use id="reset" xlink:href="#resetDef" x="30" y="36" onmousedown="handleReset()"/>
   <use id="arrowup" xlink:href="#arrowUp" x="0" y="0" onmousedown="handlePan(0,-1)"/>
  <use id="arrowright" xlink:href="#arrowRight" x="0" y="0" onmousedown="handlePan(1,0)"/>
  <use id="arrowdown" xlink:href="#arrowDown" x="0" y="0" onmousedown="handlePan(0,1)"/>
  <use id="arrowleft" xlink:href="#arrowLeft" x="0" y="0" onmousedown="handlePan(-1,0)"/>
</g>
<svg viewBox="0 0 15 15" width="100%" height="30px" preserveAspectRatio="xMaxYMin meet">
 <g id="arrow_out" transform="scale(0.3 0.3)">
  <a xlink:href="classhri_1_1_swapchain_pass_resource_manager__coll__graph_org.svg" target="_base">
   <rect id="button" ry="5" rx="5" y="6" x="6" height="38" width="38"
        fill="#f2f5e9" fill-opacity="0.5" stroke="#606060" stroke-width="1.0"/>
   <path id="arrow"
     d="M 11.500037,31.436501 C 11.940474,20.09759 22.043105,11.32322 32.158766,21.979434 L 37.068811,17.246167 C 37.068811,17.246167 37.088388,32 37.088388,32 L 22.160133,31.978069 C 22.160133,31.978069 26.997745,27.140456 26.997745,27.140456 C 18.528582,18.264221 13.291696,25.230495 11.500037,31.436501 z"
     style="fill:#404040;"/>
  </a>
 </g>
</svg>

<style type='text/css'>
<![CDATA[
[data-mouse-over-selected='false'] { opacity: 0.7; }
[data-mouse-over-selected='true']  { opacity: 1.0; }
]]>
</style>
<script type="application/ecmascript"><![CDATA[
document.addEventListener('DOMContentLoaded', (event) => {
  highlightEdges();
  highlightAdjacentNodes();
});
]]></script>
</svg>
