<?xml version="1.0" encoding="UTF-8" standalone="no"?>
<!DOCTYPE svg PUBLIC "-//W3C//DTD SVG 1.1//EN"
 "http://www.w3.org/Graphics/SVG/1.1/DTD/svg11.dtd">
<!-- Generated by graphviz version 10.0.1 (20240210.2158)
 -->
<!-- Title: HybridRayTracingSubsystem::record Pages: 1 -->
<svg width="334pt" height="90pt"
 viewBox="0.00 0.00 334.00 90.00" xmlns="http://www.w3.org/2000/svg" xmlns:xlink="http://www.w3.org/1999/xlink">
<g id="graph0" class="graph" transform="scale(1 1) rotate(0) translate(4 86)">
<title>HybridRayTracingSubsystem::record</title>
<!-- Node1 -->
<g id="Node000001" class="node">
<title>Node1</title>
<g id="a_Node000001"><a xlink:title="Record this subsystem&#39;s render commands.">
<polygon fill="#999999" stroke="#666666" points="142,-57 0,-57 0,-25 142,-25 142,-57"/>
<text text-anchor="start" x="8" y="-43.5" font-family="Helvetica,sans-Serif" font-size="10.00">HybridRayTracingSubsystem</text>
<text text-anchor="middle" x="71" y="-31.5" font-family="Helvetica,sans-Serif" font-size="10.00">::record</text>
</a>
</g>
</g>
<!-- Node2 -->
<g id="Node000002" class="node">
<title>Node2</title>
<g id="a_Node000002"><a xlink:href="classhri__debug_1_1_debug_label_handler.html#aa8deadfbc3d6e9592babb5f4972dcd21" target="_top" xlink:title="Begin a new command buffer label.">
<polygon fill="white" stroke="#666666" points="326,-82 178,-82 178,-50 326,-50 326,-82"/>
<text text-anchor="start" x="186" y="-68.5" font-family="Helvetica,sans-Serif" font-size="10.00">hri_debug::DebugLabelHandler</text>
<text text-anchor="middle" x="252" y="-56.5" font-family="Helvetica,sans-Serif" font-size="10.00">::cmdBeginLabel</text>
</a>
</g>
</g>
<!-- Node1&#45;&gt;Node2 -->
<g id="edge1_Node000001_Node000002" class="edge">
<title>Node1&#45;&gt;Node2</title>
<g id="a_edge1_Node000001_Node000002"><a xlink:title=" ">
<path fill="none" stroke="#63b8ff" d="M142.49,-50.84C150.34,-51.94 158.39,-53.07 166.38,-54.18"/>
<polygon fill="#63b8ff" stroke="#63b8ff" points="165.74,-57.63 176.13,-55.54 166.71,-50.69 165.74,-57.63"/>
</a>
</g>
</g>
<!-- Node3 -->
<g id="Node000003" class="node">
<title>Node3</title>
<g id="a_Node000003"><a xlink:href="classhri__debug_1_1_debug_label_handler.html#a8b0a90f5f26f6c496299e2a52b92ed2c" target="_top" xlink:title="End a command buffer label region.">
<polygon fill="white" stroke="#666666" points="326,-32 178,-32 178,0 326,0 326,-32"/>
<text text-anchor="start" x="186" y="-18.5" font-family="Helvetica,sans-Serif" font-size="10.00">hri_debug::DebugLabelHandler</text>
<text text-anchor="middle" x="252" y="-6.5" font-family="Helvetica,sans-Serif" font-size="10.00">::cmdEndLabel</text>
</a>
</g>
</g>
<!-- Node1&#45;&gt;Node3 -->
<g id="edge2_Node000001_Node000003" class="edge">
<title>Node1&#45;&gt;Node3</title>
<g id="a_edge2_Node000001_Node000003"><a xlink:title=" ">
<path fill="none" stroke="#63b8ff" d="M142.49,-31.16C150.34,-30.06 158.39,-28.93 166.38,-27.82"/>
<polygon fill="#63b8ff" stroke="#63b8ff" points="166.71,-31.31 176.13,-26.46 165.74,-24.37 166.71,-31.31"/>
</a>
</g>
</g>
</g>
</svg>
