<?xml version="1.0" encoding="UTF-8" standalone="no"?>
<!DOCTYPE svg PUBLIC "-//W3C//DTD SVG 1.1//EN"
 "http://www.w3.org/Graphics/SVG/1.1/DTD/svg11.dtd">
<!-- Generated by graphviz version 10.0.1 (20240210.2158)
 -->
<!-- Title: PresentationSubsystem::record Pages: 1 -->
<svg width="312pt" height="90pt"
 viewBox="0.00 0.00 312.25 90.00" xmlns="http://www.w3.org/2000/svg" xmlns:xlink="http://www.w3.org/1999/xlink">
<g id="graph0" class="graph" transform="scale(1 1) rotate(0) translate(4 86)">
<title>PresentationSubsystem::record</title>
<!-- Node1 -->
<g id="Node000001" class="node">
<title>Node1</title>
<g id="a_Node000001"><a xlink:title="Record Present render commands.">
<polygon fill="#999999" stroke="#666666" points="120.25,-57 0,-57 0,-25 120.25,-25 120.25,-57"/>
<text text-anchor="start" x="8" y="-43.5" font-family="Helvetica,sans-Serif" font-size="10.00">PresentationSubsystem</text>
<text text-anchor="middle" x="60.12" y="-31.5" font-family="Helvetica,sans-Serif" font-size="10.00">::record</text>
</a>
</g>
</g>
<!-- Node2 -->
<g id="Node000002" class="node">
<title>Node2</title>
<g id="a_Node000002"><a xlink:href="classhri__debug_1_1_debug_label_handler.html#aa8deadfbc3d6e9592babb5f4972dcd21" target="_top" xlink:title="Begin a new command buffer label.">
<polygon fill="white" stroke="#666666" points="304.25,-82 156.25,-82 156.25,-50 304.25,-50 304.25,-82"/>
<text text-anchor="start" x="164.25" y="-68.5" font-family="Helvetica,sans-Serif" font-size="10.00">hri_debug::DebugLabelHandler</text>
<text text-anchor="middle" x="230.25" y="-56.5" font-family="Helvetica,sans-Serif" font-size="10.00">::cmdBeginLabel</text>
</a>
</g>
</g>
<!-- Node1&#45;&gt;Node2 -->
<g id="edge1_Node000001_Node000002" class="edge">
<title>Node1&#45;&gt;Node2</title>
<g id="a_edge1_Node000001_Node000002"><a xlink:title=" ">
<path fill="none" stroke="#63b8ff" d="M120.4,-49.81C128.26,-50.98 136.45,-52.2 144.64,-53.42"/>
<polygon fill="#63b8ff" stroke="#63b8ff" points="143.88,-56.84 154.28,-54.85 144.9,-49.92 143.88,-56.84"/>
</a>
</g>
</g>
<!-- Node3 -->
<g id="Node000003" class="node">
<title>Node3</title>
<g id="a_Node000003"><a xlink:href="classhri__debug_1_1_debug_label_handler.html#a8b0a90f5f26f6c496299e2a52b92ed2c" target="_top" xlink:title="End a command buffer label region.">
<polygon fill="white" stroke="#666666" points="304.25,-32 156.25,-32 156.25,0 304.25,0 304.25,-32"/>
<text text-anchor="start" x="164.25" y="-18.5" font-family="Helvetica,sans-Serif" font-size="10.00">hri_debug::DebugLabelHandler</text>
<text text-anchor="middle" x="230.25" y="-6.5" font-family="Helvetica,sans-Serif" font-size="10.00">::cmdEndLabel</text>
</a>
</g>
</g>
<!-- Node1&#45;&gt;Node3 -->
<g id="edge2_Node000001_Node000003" class="edge">
<title>Node1&#45;&gt;Node3</title>
<g id="a_edge2_Node000001_Node000003"><a xlink:title=" ">
<path fill="none" stroke="#63b8ff" d="M120.4,-32.19C128.26,-31.02 136.45,-29.8 144.64,-28.58"/>
<polygon fill="#63b8ff" stroke="#63b8ff" points="144.9,-32.08 154.28,-27.15 143.88,-25.16 144.9,-32.08"/>
</a>
</g>
</g>
</g>
</svg>
