<?xml version="1.0" encoding="UTF-8" standalone="no"?>
<!DOCTYPE svg PUBLIC "-//W3C//DTD SVG 1.1//EN"
 "http://www.w3.org/Graphics/SVG/1.1/DTD/svg11.dtd">
<!-- Generated by graphviz version 10.0.1 (20240210.2158)
 -->
<!-- Title: raytracing::ASBuilder::generateASBuildInfo Pages: 1 -->
<svg width="339pt" height="242pt"
 viewBox="0.00 0.00 339.25 242.00" xmlns="http://www.w3.org/2000/svg" xmlns:xlink="http://www.w3.org/1999/xlink">
<g id="graph0" class="graph" transform="scale(1 1) rotate(0) translate(4 238)">
<title>raytracing::ASBuilder::generateASBuildInfo</title>
<!-- Node1 -->
<g id="Node000001" class="node">
<title>Node1</title>
<g id="a_Node000001"><a xlink:title="Generate build info from input.">
<polygon fill="#999999" stroke="#666666" points="331.25,-133 221.5,-133 221.5,-101 331.25,-101 331.25,-133"/>
<text text-anchor="start" x="229.5" y="-119.5" font-family="Helvetica,sans-Serif" font-size="10.00">raytracing::ASBuilder</text>
<text text-anchor="middle" x="276.38" y="-107.5" font-family="Helvetica,sans-Serif" font-size="10.00">::generateASBuildInfo</text>
</a>
</g>
</g>
<!-- Node2 -->
<g id="Node000002" class="node">
<title>Node2</title>
<g id="a_Node000002"><a xlink:href="class_scene_a_s_manager.html#ac1e394e99a4742852e700bc941a81541" target="_top" xlink:title=" ">
<polygon fill="white" stroke="#666666" points="163.38,-234 22.12,-234 22.12,-202 163.38,-202 163.38,-234"/>
<text text-anchor="start" x="30.12" y="-220.5" font-family="Helvetica,sans-Serif" font-size="10.00">SceneASManager::cmdBuild</text>
<text text-anchor="middle" x="92.75" y="-208.5" font-family="Helvetica,sans-Serif" font-size="10.00">BLASses</text>
</a>
</g>
</g>
<!-- Node1&#45;&gt;Node2 -->
<g id="edge1_Node000001_Node000002" class="edge">
<title>Node1&#45;&gt;Node2</title>
<g id="a_edge1_Node000001_Node000002"><a xlink:title=" ">
<path fill="none" stroke="#63b8ff" d="M252.68,-141.14C235.66,-157.92 210.99,-179.6 185.5,-193 178.63,-196.61 171.19,-199.74 163.62,-202.44"/>
<polygon fill="#63b8ff" stroke="#63b8ff" points="254.77,-143.99 259.32,-134.43 249.8,-139.07 254.77,-143.99"/>
</a>
</g>
</g>
<!-- Node3 -->
<g id="Node000003" class="node">
<title>Node3</title>
<g id="a_Node000003"><a xlink:href="class_scene_a_s_manager.html#a3a6567c53fd1bbc025b547db857575aa" target="_top" xlink:title=" ">
<polygon fill="white" stroke="#666666" points="175.38,-184 10.12,-184 10.12,-164 175.38,-164 175.38,-184"/>
<text text-anchor="middle" x="92.75" y="-170.5" font-family="Helvetica,sans-Serif" font-size="10.00">SceneASManager::cmdBuildTLAS</text>
</a>
</g>
</g>
<!-- Node1&#45;&gt;Node3 -->
<g id="edge2_Node000001_Node000003" class="edge">
<title>Node1&#45;&gt;Node3</title>
<g id="a_edge2_Node000001_Node000003"><a xlink:title=" ">
<path fill="none" stroke="#63b8ff" d="M230.5,-138.01C216.32,-144.09 200.45,-150.34 185.5,-155 175.09,-158.24 163.85,-161.09 152.92,-163.53"/>
<polygon fill="#63b8ff" stroke="#63b8ff" points="231.83,-141.25 239.58,-134.03 229.02,-134.84 231.83,-141.25"/>
</a>
</g>
</g>
<!-- Node4 -->
<g id="Node000004" class="node">
<title>Node4</title>
<g id="a_Node000004"><a xlink:href="class_scene_a_s_manager.html#a4b0f8612bbc6b9a22b86239a03b91b1f" target="_top" xlink:title=" ">
<polygon fill="white" stroke="#666666" points="177.25,-146 8.25,-146 8.25,-126 177.25,-126 177.25,-146"/>
<text text-anchor="middle" x="92.75" y="-132.5" font-family="Helvetica,sans-Serif" font-size="10.00">SceneASManager::createBLASList</text>
</a>
</g>
</g>
<!-- Node1&#45;&gt;Node4 -->
<g id="edge3_Node000001_Node000004" class="edge">
<title>Node1&#45;&gt;Node4</title>
<g id="a_edge3_Node000001_Node000004"><a xlink:title=" ">
<path fill="none" stroke="#63b8ff" d="M210.12,-123.83C199.53,-124.93 188.44,-126.09 177.49,-127.24"/>
<polygon fill="#63b8ff" stroke="#63b8ff" points="210.29,-127.33 219.87,-122.81 209.56,-120.37 210.29,-127.33"/>
</a>
</g>
</g>
<!-- Node5 -->
<g id="Node000005" class="node">
<title>Node5</title>
<g id="a_Node000005"><a xlink:href="class_scene_a_s_manager.html#a5d945af1c6136a2dedcba6caba66b74b" target="_top" xlink:title=" ">
<polygon fill="white" stroke="#666666" points="168.62,-108 16.88,-108 16.88,-88 168.62,-88 168.62,-108"/>
<text text-anchor="middle" x="92.75" y="-94.5" font-family="Helvetica,sans-Serif" font-size="10.00">SceneASManager::createTLAS</text>
</a>
</g>
</g>
<!-- Node1&#45;&gt;Node5 -->
<g id="edge4_Node000001_Node000005" class="edge">
<title>Node1&#45;&gt;Node5</title>
<g id="a_edge4_Node000001_Node000005"><a xlink:title=" ">
<path fill="none" stroke="#63b8ff" d="M209.95,-110.16C196.68,-108.77 182.63,-107.3 169.05,-105.88"/>
<polygon fill="#63b8ff" stroke="#63b8ff" points="209.56,-113.63 219.87,-111.19 210.29,-106.67 209.56,-113.63"/>
</a>
</g>
</g>
<!-- Node6 -->
<g id="Node000006" class="node">
<title>Node6</title>
<g id="a_Node000006"><a xlink:href="classraytracing_1_1_a_s_builder.html#ac8de648461bdab4778fd28213486e9b6" target="_top" xlink:title="Generate build infos from inputs.">
<polygon fill="white" stroke="#666666" points="147.62,-70 37.88,-70 37.88,-38 147.62,-38 147.62,-70"/>
<text text-anchor="start" x="45.88" y="-56.5" font-family="Helvetica,sans-Serif" font-size="10.00">raytracing::ASBuilder</text>
<text text-anchor="middle" x="92.75" y="-44.5" font-family="Helvetica,sans-Serif" font-size="10.00">::generateASBuildInfo</text>
</a>
</g>
</g>
<!-- Node1&#45;&gt;Node6 -->
<g id="edge5_Node000001_Node000006" class="edge">
<title>Node1&#45;&gt;Node6</title>
<g id="a_edge5_Node000001_Node000006"><a xlink:title=" ">
<path fill="none" stroke="#63b8ff" d="M229.21,-96.08C215.31,-90.17 199.92,-83.99 185.5,-79 173.49,-74.84 160.4,-70.93 147.97,-67.48"/>
<polygon fill="#63b8ff" stroke="#63b8ff" points="227.55,-99.18 238.12,-99.93 230.33,-92.75 227.55,-99.18"/>
</a>
</g>
</g>
<!-- Node7 -->
<g id="Node000007" class="node">
<title>Node7</title>
<g id="a_Node000007"><a xlink:href="class_scene_a_s_manager.html#a0b76beddf292469cd273d91ca2cbcf99" target="_top" xlink:title=" ">
<polygon fill="white" stroke="#666666" points="185.5,-20 0,-20 0,0 185.5,0 185.5,-20"/>
<text text-anchor="middle" x="92.75" y="-6.5" font-family="Helvetica,sans-Serif" font-size="10.00">SceneASManager::shouldReallocTLAS</text>
</a>
</g>
</g>
<!-- Node1&#45;&gt;Node7 -->
<g id="edge6_Node000001_Node000007" class="edge">
<title>Node1&#45;&gt;Node7</title>
<g id="a_edge6_Node000001_Node000007"><a xlink:title=" ">
<path fill="none" stroke="#63b8ff" d="M256.56,-91.89C240.07,-71.73 214.28,-44.34 185.5,-29 179.04,-25.56 172.02,-22.74 164.83,-20.43"/>
<polygon fill="#63b8ff" stroke="#63b8ff" points="253.77,-94.01 262.73,-99.66 259.26,-89.65 253.77,-94.01"/>
</a>
</g>
</g>
</g>
</svg>
