<?xml version="1.0" encoding="UTF-8" standalone="no"?>
<!DOCTYPE svg PUBLIC "-//W3C//DTD SVG 1.1//EN"
 "http://www.w3.org/Graphics/SVG/1.1/DTD/svg11.dtd">
<!-- Generated by graphviz version 10.0.1 (20240210.2158)
 -->
<!-- Title: hri::RenderContextQueueState Pages: 1 -->
<svg width="154pt" height="252pt"
 viewBox="0.00 0.00 154.00 252.00" xmlns="http://www.w3.org/2000/svg" xmlns:xlink="http://www.w3.org/1999/xlink">

<svg id="main" version="1.1" xmlns="http://www.w3.org/2000/svg" xmlns:xlink="http://www.w3.org/1999/xlink" xml:space="preserve" onload="init(evt)">
<style type="text/css"><![CDATA[
.node, .edge {opacity: 0.7;}
.node.selected, .edge.selected {opacity: 1;}
.edge:hover path { stroke: red; }
.edge:hover polygon { stroke: red; fill: red; }
]]></style>
<script type="application/ecmascript" xlink:href="svg.min.js"/>
<svg id="graph" class="graph">
<g id="graph0" class="graph" transform="scale(1 1) rotate(0) translate(4 248)">
<title>hri::RenderContextQueueState</title>
<!-- Node1 -->
<g id="Node000001" class="node">
<title>Node1</title>
<g id="a_Node000001"><a xlink:title="The context queue state creates and maintains the device queue setup.">
<polygon fill="#999999" stroke="none" points="142,-92 0,-92 0,0 142,0 142,-92"/>
<text text-anchor="start" x="4.62" y="-78.5" font-family="Helvetica,sans-Serif" font-size="10.00">hri::RenderContextQueueState</text>
<text text-anchor="start" x="69.5" y="-62.5" font-family="Helvetica,sans-Serif" font-size="10.00"> </text>
<text text-anchor="start" x="6" y="-46.5" font-family="Helvetica,sans-Serif" font-size="10.00">+</text>
<text text-anchor="start" x="18" y="-46.5" font-family="Helvetica,sans-Serif" font-size="10.00">RenderContextQueueState</text>
<text text-anchor="start" x="18" y="-34.5" font-family="Helvetica,sans-Serif" font-size="10.00">()=default</text>
<text text-anchor="start" x="6" y="-18.5" font-family="Helvetica,sans-Serif" font-size="10.00">+</text>
<text text-anchor="start" x="18" y="-18.5" font-family="Helvetica,sans-Serif" font-size="10.00">RenderContextQueueState</text>
<text text-anchor="start" x="18" y="-6.5" font-family="Helvetica,sans-Serif" font-size="10.00">(vkb::Device device)</text>
<polygon fill="#666666" stroke="#666666" points="0,-74 0,-74 142,-74 142,-74 0,-74"/>
<polygon fill="#666666" stroke="#666666" points="0,-58 0,-58 142,-58 142,-58 0,-58"/>
<polygon fill="none" stroke="#666666" points="0,0 0,-92 142,-92 142,0 0,0"/>
</a>
</g>
</g>
<!-- Node2 -->
<g id="Node000002" class="node">
<title>Node2</title>
<g id="a_Node000002"><a xlink:href="structhri_1_1_device_queue.html" target="_top" xlink:title="A Device Queue is a queue on the logical device to which operations can be submitted.">
<polygon fill="white" stroke="none" points="116,-244 26,-244 26,-176 116,-176 116,-244"/>
<text text-anchor="start" x="34.25" y="-230.5" font-family="Helvetica,sans-Serif" font-size="10.00">hri::DeviceQueue</text>
<text text-anchor="start" x="30" y="-214.5" font-family="Helvetica,sans-Serif" font-size="10.00">+</text>
<text text-anchor="start" x="40" y="-214.5" font-family="Helvetica,sans-Serif" font-size="10.00">uint32_t family</text>
<text text-anchor="start" x="30" y="-198.5" font-family="Helvetica,sans-Serif" font-size="10.00">+</text>
<text text-anchor="start" x="40" y="-198.5" font-family="Helvetica,sans-Serif" font-size="10.00">VkQueue handle</text>
<text text-anchor="start" x="69.5" y="-182.5" font-family="Helvetica,sans-Serif" font-size="10.00"> </text>
<polygon fill="#666666" stroke="#666666" points="26,-226 26,-226 116,-226 116,-226 26,-226"/>
<polygon fill="#666666" stroke="#666666" points="26,-194 26,-194 38,-194 38,-194 26,-194"/>
<polygon fill="#666666" stroke="#666666" points="38,-194 38,-194 116,-194 116,-194 38,-194"/>
<polygon fill="none" stroke="#666666" points="26,-176 26,-244 116,-244 116,-176 26,-176"/>
</a>
</g>
</g>
<!-- Node2&#45;&gt;Node1 -->
<g id="edge1_Node000001_Node000002" class="edge">
<title>Node2&#45;&gt;Node1</title>
<g id="a_edge1_Node000001_Node000002"><a xlink:title=" ">
<path fill="none" stroke="#63b8ff" d="M71,-176.22C71,-155.7 71,-128.7 71,-104.68"/>
<polygon fill="none" stroke="#63b8ff" points="71,-104.61 67,-98.61 71,-92.61 75,-98.61 71,-104.61"/>
</a>
</g>
<text text-anchor="middle" x="108.5" y="-148.5" font-family="Helvetica,sans-Serif" font-size="10.00" fill="grey"> +computeQueue</text>
<text text-anchor="middle" x="108.5" y="-136.5" font-family="Helvetica,sans-Serif" font-size="10.00" fill="grey">+graphicsQueue</text>
<text text-anchor="middle" x="108.5" y="-124.5" font-family="Helvetica,sans-Serif" font-size="10.00" fill="grey">+presentQueue</text>
<text text-anchor="middle" x="108.5" y="-112.5" font-family="Helvetica,sans-Serif" font-size="10.00" fill="grey">+transferQueue</text>
</g>
</g>
</svg>
</svg>

<style type='text/css'>
<![CDATA[
[data-mouse-over-selected='false'] { opacity: 0.7; }
[data-mouse-over-selected='true']  { opacity: 1.0; }
]]>
</style>
<script type="application/ecmascript"><![CDATA[
document.addEventListener('DOMContentLoaded', (event) => {
  highlightEdges();
  highlightAdjacentNodes();
});
]]></script>
</svg>
