<?xml version="1.0" encoding="UTF-8" standalone="no"?>
<!DOCTYPE svg PUBLIC "-//W3C//DTD SVG 1.1//EN"
 "http://www.w3.org/Graphics/SVG/1.1/DTD/svg11.dtd">
<!-- Generated by graphviz version 10.0.1 (20240210.2158)
 -->
<!-- Title: hri::SwapchainPassResourceManager::createResources Pages: 1 -->
<svg width="568pt" height="140pt"
 viewBox="0.00 0.00 567.50 140.00" xmlns="http://www.w3.org/2000/svg" xmlns:xlink="http://www.w3.org/1999/xlink">
<g id="graph0" class="graph" transform="scale(1 1) rotate(0) translate(4 136)">
<title>hri::SwapchainPassResourceManager::createResources</title>
<!-- Node1 -->
<g id="Node000001" class="node">
<title>Node1</title>
<g id="a_Node000001"><a xlink:title="Create resources.">
<polygon fill="#999999" stroke="#666666" points="143.5,-57 0,-57 0,-25 143.5,-25 143.5,-57"/>
<text text-anchor="start" x="8" y="-43.5" font-family="Helvetica,sans-Serif" font-size="10.00">hri::SwapchainPassResource</text>
<text text-anchor="middle" x="71.75" y="-31.5" font-family="Helvetica,sans-Serif" font-size="10.00">Manager::createResources</text>
</a>
</g>
</g>
<!-- Node2 -->
<g id="Node000002" class="node">
<title>Node2</title>
<g id="a_Node000002"><a xlink:href="classhri_1_1_i_render_pass_resource_manager_base.html#a4391328fd9a0316ede758d338bee9fea" target="_top" xlink:title="Create resources.">
<polygon fill="white" stroke="#666666" points="351.88,-82 196.38,-82 196.38,-50 351.88,-50 351.88,-82"/>
<text text-anchor="start" x="204.38" y="-68.5" font-family="Helvetica,sans-Serif" font-size="10.00">hri::IRenderPassResource</text>
<text text-anchor="middle" x="274.12" y="-56.5" font-family="Helvetica,sans-Serif" font-size="10.00">ManagerBase::createResources</text>
</a>
</g>
</g>
<!-- Node1&#45;&gt;Node2 -->
<g id="edge1_Node000001_Node000002" class="edge">
<title>Node1&#45;&gt;Node2</title>
<g id="a_edge1_Node000001_Node000002"><a xlink:title=" ">
<path fill="none" stroke="#63b8ff" d="M143.96,-49.88C157.14,-51.53 171.06,-53.27 184.68,-54.96"/>
<polygon fill="#63b8ff" stroke="#63b8ff" points="184.17,-58.43 194.52,-56.19 185.03,-51.48 184.17,-58.43"/>
</a>
</g>
</g>
<!-- Node6 -->
<g id="Node000006" class="node">
<title>Node6</title>
<g id="a_Node000006"><a xlink:href="classhri_1_1_i_render_pass_resource_manager_base.html#a504eb862015a956f74d5020f20a3cb00" target="_top" xlink:title="Get image resource views.">
<polygon fill="white" stroke="#666666" points="368.75,-32 179.5,-32 179.5,0 368.75,0 368.75,-32"/>
<text text-anchor="start" x="187.5" y="-18.5" font-family="Helvetica,sans-Serif" font-size="10.00">hri::IRenderPassResource</text>
<text text-anchor="middle" x="274.12" y="-6.5" font-family="Helvetica,sans-Serif" font-size="10.00">ManagerBase::getImageResourceViews</text>
</a>
</g>
</g>
<!-- Node1&#45;&gt;Node6 -->
<g id="edge5_Node000001_Node000006" class="edge">
<title>Node1&#45;&gt;Node6</title>
<g id="a_edge5_Node000001_Node000006"><a xlink:title=" ">
<path fill="none" stroke="#63b8ff" d="M143.96,-32.12C151.68,-31.15 159.65,-30.16 167.67,-29.16"/>
<polygon fill="#63b8ff" stroke="#63b8ff" points="168.03,-32.64 177.52,-27.93 167.16,-25.69 168.03,-32.64"/>
</a>
</g>
</g>
<!-- Node3 -->
<g id="Node000003" class="node">
<title>Node3</title>
<g id="a_Node000003"><a xlink:href="classhri_1_1_image_resource.html#a56ffb48c12007c708401a7cf6c7f9c51" target="_top" xlink:title="Get the default component mapping for images.">
<polygon fill="white" stroke="#666666" points="551.25,-132 413,-132 413,-100 551.25,-100 551.25,-132"/>
<text text-anchor="start" x="421" y="-118.5" font-family="Helvetica,sans-Serif" font-size="10.00">hri::ImageResource</text>
<text text-anchor="middle" x="482.12" y="-106.5" font-family="Helvetica,sans-Serif" font-size="10.00">::DefaultComponentMapping</text>
</a>
</g>
</g>
<!-- Node2&#45;&gt;Node3 -->
<g id="edge2_Node000002_Node000003" class="edge">
<title>Node2&#45;&gt;Node3</title>
<g id="a_edge2_Node000002_Node000003"><a xlink:title=" ">
<path fill="none" stroke="#63b8ff" d="M342.86,-82.44C361.87,-87.05 382.7,-92.11 402.29,-96.87"/>
<polygon fill="#63b8ff" stroke="#63b8ff" points="401.33,-100.23 411.88,-99.19 402.98,-93.43 401.33,-100.23"/>
</a>
</g>
</g>
<!-- Node4 -->
<g id="Node000004" class="node">
<title>Node4</title>
<g id="a_Node000004"><a xlink:href="classhri_1_1_i_render_pass_resource_manager_base.html#aabea2269ebd554cf3d75885a4e4dec87" target="_top" xlink:title="Get the render extent configured for this resouce manager.">
<polygon fill="white" stroke="#666666" points="559.5,-82 404.75,-82 404.75,-50 559.5,-50 559.5,-82"/>
<text text-anchor="start" x="412.75" y="-68.5" font-family="Helvetica,sans-Serif" font-size="10.00">hri::IRenderPassResource</text>
<text text-anchor="middle" x="482.12" y="-56.5" font-family="Helvetica,sans-Serif" font-size="10.00">ManagerBase::getRenderExtent</text>
</a>
</g>
</g>
<!-- Node2&#45;&gt;Node4 -->
<g id="edge3_Node000002_Node000004" class="edge">
<title>Node2&#45;&gt;Node4</title>
<g id="a_edge3_Node000002_Node000004"><a xlink:title=" ">
<path fill="none" stroke="#63b8ff" d="M352.12,-66C365.52,-66 379.54,-66 393.19,-66"/>
<polygon fill="#63b8ff" stroke="#63b8ff" points="393.05,-69.5 403.05,-66 393.05,-62.5 393.05,-69.5"/>
</a>
</g>
</g>
<!-- Node5 -->
<g id="Node000005" class="node">
<title>Node5</title>
<g id="a_Node000005"><a xlink:href="classhri_1_1_image_resource.html#acb45dad4bfb49d9e739ed8d5d5a25cf0" target="_top" xlink:title="Create an image subresource range.">
<polygon fill="white" stroke="#666666" points="534.38,-32 429.88,-32 429.88,0 534.38,0 534.38,-32"/>
<text text-anchor="start" x="437.88" y="-18.5" font-family="Helvetica,sans-Serif" font-size="10.00">hri::ImageResource</text>
<text text-anchor="middle" x="482.12" y="-6.5" font-family="Helvetica,sans-Serif" font-size="10.00">::SubresourceRange</text>
</a>
</g>
</g>
<!-- Node2&#45;&gt;Node5 -->
<g id="edge4_Node000002_Node000005" class="edge">
<title>Node2&#45;&gt;Node5</title>
<g id="a_edge4_Node000002_Node000005"><a xlink:title=" ">
<path fill="none" stroke="#63b8ff" d="M342.86,-49.56C367.26,-43.64 394.66,-36.99 418.59,-31.18"/>
<polygon fill="#63b8ff" stroke="#63b8ff" points="419.31,-34.6 428.21,-28.84 417.66,-27.8 419.31,-34.6"/>
</a>
</g>
</g>
</g>
</svg>
