<?xml version="1.0" encoding="UTF-8" standalone="no"?>
<!DOCTYPE svg PUBLIC "-//W3C//DTD SVG 1.1//EN"
 "http://www.w3.org/Graphics/SVG/1.1/DTD/svg11.dtd">
<!-- Generated by graphviz version 10.0.1 (20240210.2158)
 -->
<!-- Title: SceneASManager::shouldReallocTLAS Pages: 1 -->
<svg width="526pt" height="90pt"
 viewBox="0.00 0.00 525.50 90.00" xmlns="http://www.w3.org/2000/svg" xmlns:xlink="http://www.w3.org/1999/xlink">
<g id="graph0" class="graph" transform="scale(1 1) rotate(0) translate(4 86)">
<title>SceneASManager::shouldReallocTLAS</title>
<!-- Node1 -->
<g id="Node000001" class="node">
<title>Node1</title>
<g id="a_Node000001"><a xlink:title=" ">
<polygon fill="#999999" stroke="#666666" points="185.5,-51 0,-51 0,-31 185.5,-31 185.5,-51"/>
<text text-anchor="middle" x="92.75" y="-37.5" font-family="Helvetica,sans-Serif" font-size="10.00">SceneASManager::shouldReallocTLAS</text>
</a>
</g>
</g>
<!-- Node2 -->
<g id="Node000002" class="node">
<title>Node2</title>
<g id="a_Node000002"><a xlink:href="classraytracing_1_1_a_s_builder.html#a735324c0da6b17aa548c590af9b29208" target="_top" xlink:title="Generate build info from input.">
<polygon fill="white" stroke="#666666" points="335,-82 225.25,-82 225.25,-50 335,-50 335,-82"/>
<text text-anchor="start" x="233.25" y="-68.5" font-family="Helvetica,sans-Serif" font-size="10.00">raytracing::ASBuilder</text>
<text text-anchor="middle" x="280.12" y="-56.5" font-family="Helvetica,sans-Serif" font-size="10.00">::generateASBuildInfo</text>
</a>
</g>
</g>
<!-- Node1&#45;&gt;Node2 -->
<g id="edge1_Node000001_Node000002" class="edge">
<title>Node1&#45;&gt;Node2</title>
<g id="a_edge1_Node000001_Node000002"><a xlink:title=" ">
<path fill="none" stroke="#63b8ff" d="M171.56,-51.49C185.57,-53.38 200.05,-55.34 213.66,-57.17"/>
<polygon fill="#63b8ff" stroke="#63b8ff" points="212.99,-60.61 223.37,-58.48 213.93,-53.68 212.99,-60.61"/>
</a>
</g>
</g>
<!-- Node4 -->
<g id="Node000004" class="node">
<title>Node4</title>
<g id="a_Node000004"><a xlink:href="classraytracing_1_1_a_s_builder.html#a42350a22f3a56d2e6fa9ad06a032c723" target="_top" xlink:title="Convert an instance buffer to AS Input.">
<polygon fill="white" stroke="#666666" points="338.75,-32 221.5,-32 221.5,0 338.75,0 338.75,-32"/>
<text text-anchor="start" x="229.5" y="-18.5" font-family="Helvetica,sans-Serif" font-size="10.00">raytracing::ASBuilder</text>
<text text-anchor="middle" x="280.12" y="-6.5" font-family="Helvetica,sans-Serif" font-size="10.00">::instancesToGeometry</text>
</a>
</g>
</g>
<!-- Node1&#45;&gt;Node4 -->
<g id="edge3_Node000001_Node000004" class="edge">
<title>Node1&#45;&gt;Node4</title>
<g id="a_edge3_Node000001_Node000004"><a xlink:title=" ">
<path fill="none" stroke="#63b8ff" d="M171.56,-30.51C184.3,-28.79 197.43,-27.02 209.95,-25.33"/>
<polygon fill="#63b8ff" stroke="#63b8ff" points="210.3,-28.81 219.75,-24.01 209.37,-21.88 210.3,-28.81"/>
</a>
</g>
</g>
<!-- Node3 -->
<g id="Node000003" class="node">
<title>Node3</title>
<g id="a_Node000003"><a xlink:href="namespacehri.html#ad174e49d89763692b01496e2615c7d49" target="_top" xlink:title=" ">
<polygon fill="white" stroke="#666666" points="471.75,-76 420.5,-76 420.5,-56 471.75,-56 471.75,-76"/>
<text text-anchor="middle" x="446.12" y="-62.5" font-family="Helvetica,sans-Serif" font-size="10.00">hri::max</text>
</a>
</g>
</g>
<!-- Node2&#45;&gt;Node3 -->
<g id="edge2_Node000002_Node000003" class="edge">
<title>Node2&#45;&gt;Node3</title>
<g id="a_edge2_Node000002_Node000003"><a xlink:title=" ">
<path fill="none" stroke="#63b8ff" d="M335.28,-66C359.53,-66 387.46,-66 409.09,-66"/>
<polygon fill="#63b8ff" stroke="#63b8ff" points="408.88,-69.5 418.88,-66 408.88,-62.5 408.88,-69.5"/>
</a>
</g>
</g>
<!-- Node5 -->
<g id="Node000005" class="node">
<title>Node5</title>
<g id="a_Node000005"><a xlink:href="namespaceraytracing.html#a88f8e296ad709ea3326ae37c0be49ff5" target="_top" xlink:title="Get the device address from a buffer resource.">
<polygon fill="white" stroke="#666666" points="517.5,-26 374.75,-26 374.75,-6 517.5,-6 517.5,-26"/>
<text text-anchor="middle" x="446.12" y="-12.5" font-family="Helvetica,sans-Serif" font-size="10.00">raytracing::getDeviceAddress</text>
</a>
</g>
</g>
<!-- Node4&#45;&gt;Node5 -->
<g id="edge4_Node000004_Node000005" class="edge">
<title>Node4&#45;&gt;Node5</title>
<g id="a_edge4_Node000004_Node000005"><a xlink:title=" ">
<path fill="none" stroke="#63b8ff" d="M338.95,-16C346.72,-16 354.81,-16 362.9,-16"/>
<polygon fill="#63b8ff" stroke="#63b8ff" points="362.8,-19.5 372.8,-16 362.8,-12.5 362.8,-19.5"/>
</a>
</g>
</g>
</g>
</svg>
