<?xml version="1.0" encoding="UTF-8" standalone="no"?>
<!DOCTYPE svg PUBLIC "-//W3C//DTD SVG 1.1//EN"
 "http://www.w3.org/Graphics/SVG/1.1/DTD/svg11.dtd">
<!-- Generated by graphviz version 10.0.1 (20240210.2158)
 -->
<!-- Title: hri_debug::DebugLabelHandler::cmdEndLabel Pages: 1 -->
<svg width="334pt" height="178pt"
 viewBox="0.00 0.00 334.00 178.00" xmlns="http://www.w3.org/2000/svg" xmlns:xlink="http://www.w3.org/1999/xlink">

<svg id="main" version="1.1" xmlns="http://www.w3.org/2000/svg" xmlns:xlink="http://www.w3.org/1999/xlink" xml:space="preserve" onload="init(evt)">
<style type="text/css"><![CDATA[
.node, .edge {opacity: 0.7;}
.node.selected, .edge.selected {opacity: 1;}
.edge:hover path { stroke: red; }
.edge:hover polygon { stroke: red; fill: red; }
]]></style>
<script type="application/ecmascript" xlink:href="svg.min.js"/>
<svg id="graph" class="graph">
<g id="graph0" class="graph" transform="scale(1 1) rotate(0) translate(4 174)">
<title>hri_debug::DebugLabelHandler::cmdEndLabel</title>
<!-- Node1 -->
<g id="Node000001" class="node">
<title>Node1</title>
<g id="a_Node000001"><a xlink:title="End a command buffer label region.">
<polygon fill="#999999" stroke="#666666" points="326,-98 178,-98 178,-66 326,-66 326,-98"/>
<text text-anchor="start" x="186" y="-84.5" font-family="Helvetica,sans-Serif" font-size="10.00">hri_debug::DebugLabelHandler</text>
<text text-anchor="middle" x="252" y="-72.5" font-family="Helvetica,sans-Serif" font-size="10.00">::cmdEndLabel</text>
</a>
</g>
</g>
<!-- Node2 -->
<g id="Node000002" class="node">
<title>Node2</title>
<g id="a_Node000002"><a xlink:href="class_g_buffer_layout_subsystem.html#a99e8e6d2ea238397874b4139821fee4f" target="_top" xlink:title="Record GBuffer Layout render commands.">
<polygon fill="white" stroke="#666666" points="134.5,-170 7.5,-170 7.5,-138 134.5,-138 134.5,-170"/>
<text text-anchor="start" x="15.5" y="-156.5" font-family="Helvetica,sans-Serif" font-size="10.00">GBufferLayoutSubsystem</text>
<text text-anchor="middle" x="71" y="-144.5" font-family="Helvetica,sans-Serif" font-size="10.00">::record</text>
</a>
</g>
</g>
<!-- Node1&#45;&gt;Node2 -->
<g id="edge1_Node000001_Node000002" class="edge">
<title>Node1&#45;&gt;Node2</title>
<g id="a_edge1_Node000001_Node000002"><a xlink:title=" ">
<path fill="none" stroke="#63b8ff" d="M203.88,-103.1C184.78,-111.45 162.45,-120.95 142,-129 134.68,-131.88 126.87,-134.81 119.22,-137.6"/>
<polygon fill="#63b8ff" stroke="#63b8ff" points="205.28,-106.31 213.03,-99.08 202.46,-99.9 205.28,-106.31"/>
</a>
</g>
</g>
<!-- Node3 -->
<g id="Node000003" class="node">
<title>Node3</title>
<g id="a_Node000003"><a xlink:href="class_hybrid_ray_tracing_subsystem.html#ab64539e96aa909e377439b83d2202575" target="_top" xlink:title="Record this subsystem&#39;s render commands.">
<polygon fill="white" stroke="#666666" points="142,-120 0,-120 0,-88 142,-88 142,-120"/>
<text text-anchor="start" x="8" y="-106.5" font-family="Helvetica,sans-Serif" font-size="10.00">HybridRayTracingSubsystem</text>
<text text-anchor="middle" x="71" y="-94.5" font-family="Helvetica,sans-Serif" font-size="10.00">::record</text>
</a>
</g>
</g>
<!-- Node1&#45;&gt;Node3 -->
<g id="edge2_Node000001_Node000003" class="edge">
<title>Node1&#45;&gt;Node3</title>
<g id="a_edge2_Node000001_Node000003"><a xlink:title=" ">
<path fill="none" stroke="#63b8ff" d="M166.36,-92.4C158.31,-93.39 150.21,-94.39 142.32,-95.36"/>
<polygon fill="#63b8ff" stroke="#63b8ff" points="166.68,-95.89 176.18,-91.2 165.82,-88.94 166.68,-95.89"/>
</a>
</g>
</g>
<!-- Node4 -->
<g id="Node000004" class="node">
<title>Node4</title>
<g id="a_Node000004"><a xlink:href="class_u_i_subsystem.html#a7b08236eb4a9bccdbdc15ca96a720564" target="_top" xlink:title="Record UI render commands.">
<polygon fill="white" stroke="#666666" points="124.75,-70 17.25,-70 17.25,-50 124.75,-50 124.75,-70"/>
<text text-anchor="middle" x="71" y="-56.5" font-family="Helvetica,sans-Serif" font-size="10.00">UISubsystem::record</text>
</a>
</g>
</g>
<!-- Node1&#45;&gt;Node4 -->
<g id="edge3_Node000001_Node000004" class="edge">
<title>Node1&#45;&gt;Node4</title>
<g id="a_edge3_Node000001_Node000004"><a xlink:title=" ">
<path fill="none" stroke="#63b8ff" d="M166.47,-71.61C152.42,-69.88 138.2,-68.14 125.21,-66.54"/>
<polygon fill="#63b8ff" stroke="#63b8ff" points="165.82,-75.06 176.18,-72.8 166.68,-68.11 165.82,-75.06"/>
</a>
</g>
</g>
<!-- Node5 -->
<g id="Node000005" class="node">
<title>Node5</title>
<g id="a_Node000005"><a xlink:href="class_presentation_subsystem.html#aa08e6b3f6b728dd7e36648f0ffc7d269" target="_top" xlink:title="Record Present render commands.">
<polygon fill="white" stroke="#666666" points="131.12,-32 10.88,-32 10.88,0 131.12,0 131.12,-32"/>
<text text-anchor="start" x="18.88" y="-18.5" font-family="Helvetica,sans-Serif" font-size="10.00">PresentationSubsystem</text>
<text text-anchor="middle" x="71" y="-6.5" font-family="Helvetica,sans-Serif" font-size="10.00">::record</text>
</a>
</g>
</g>
<!-- Node1&#45;&gt;Node5 -->
<g id="edge4_Node000001_Node000005" class="edge">
<title>Node1&#45;&gt;Node5</title>
<g id="a_edge4_Node000001_Node000005"><a xlink:title=" ">
<path fill="none" stroke="#63b8ff" d="M197.19,-61.56C179.62,-54.93 160,-47.6 142,-41 134.37,-38.2 126.25,-35.27 118.35,-32.43"/>
<polygon fill="#63b8ff" stroke="#63b8ff" points="195.82,-64.78 206.42,-65.04 198.3,-58.23 195.82,-64.78"/>
</a>
</g>
</g>
</g>
</svg>
</svg>

<style type='text/css'>
<![CDATA[
[data-mouse-over-selected='false'] { opacity: 0.7; }
[data-mouse-over-selected='true']  { opacity: 1.0; }
]]>
</style>
<script type="application/ecmascript"><![CDATA[
document.addEventListener('DOMContentLoaded', (event) => {
  highlightEdges();
  highlightAdjacentNodes();
});
]]></script>
</svg>
