<?xml version="1.0" encoding="UTF-8" standalone="no"?>
<!DOCTYPE svg PUBLIC "-//W3C//DTD SVG 1.1//EN"
 "http://www.w3.org/Graphics/SVG/1.1/DTD/svg11.dtd">
<!-- Generated by graphviz version 10.0.1 (20240210.2158)
 -->
<!-- Title: raytracing::ASBuilder::cmdBuildAccelerationStructure Pages: 1 -->
<svg width="543pt" height="78pt"
 viewBox="0.00 0.00 542.75 78.00" xmlns="http://www.w3.org/2000/svg" xmlns:xlink="http://www.w3.org/1999/xlink">
<g id="graph0" class="graph" transform="scale(1 1) rotate(0) translate(4 74)">
<title>raytracing::ASBuilder::cmdBuildAccelerationStructure</title>
<!-- Node1 -->
<g id="Node000001" class="node">
<title>Node1</title>
<g id="a_Node000001"><a xlink:title="Build an acceleration structure.">
<polygon fill="#999999" stroke="#666666" points="534.75,-48 378.5,-48 378.5,-16 534.75,-16 534.75,-48"/>
<text text-anchor="start" x="386.5" y="-34.5" font-family="Helvetica,sans-Serif" font-size="10.00">raytracing::ASBuilder</text>
<text text-anchor="middle" x="456.62" y="-22.5" font-family="Helvetica,sans-Serif" font-size="10.00">::cmdBuildAccelerationStructure</text>
</a>
</g>
</g>
<!-- Node2 -->
<g id="Node000002" class="node">
<title>Node2</title>
<g id="a_Node000002"><a xlink:href="classraytracing_1_1_a_s_builder.html#a889d40449453fd038e8afe1a3e51d2d1" target="_top" xlink:title="Build a list of acceleration structures.">
<polygon fill="white" stroke="#666666" points="340.62,-70 179.12,-70 179.12,-38 340.62,-38 340.62,-70"/>
<text text-anchor="start" x="187.12" y="-56.5" font-family="Helvetica,sans-Serif" font-size="10.00">raytracing::ASBuilder</text>
<text text-anchor="middle" x="259.88" y="-44.5" font-family="Helvetica,sans-Serif" font-size="10.00">::cmdBuildAccelerationStructures</text>
</a>
</g>
</g>
<!-- Node1&#45;&gt;Node2 -->
<g id="edge1_Node000001_Node000002" class="edge">
<title>Node1&#45;&gt;Node2</title>
<g id="a_edge1_Node000001_Node000002"><a xlink:title=" ">
<path fill="none" stroke="#63b8ff" d="M366.85,-42.03C358.23,-43 349.53,-43.99 341.01,-44.95"/>
<polygon fill="#63b8ff" stroke="#63b8ff" points="367.05,-45.53 376.59,-40.93 366.26,-38.57 367.05,-45.53"/>
</a>
</g>
</g>
<!-- Node4 -->
<g id="Node000004" class="node">
<title>Node4</title>
<g id="a_Node000004"><a xlink:href="class_scene_a_s_manager.html#a3a6567c53fd1bbc025b547db857575aa" target="_top" xlink:title=" ">
<polygon fill="white" stroke="#666666" points="342.5,-20 177.25,-20 177.25,0 342.5,0 342.5,-20"/>
<text text-anchor="middle" x="259.88" y="-6.5" font-family="Helvetica,sans-Serif" font-size="10.00">SceneASManager::cmdBuildTLAS</text>
</a>
</g>
</g>
<!-- Node1&#45;&gt;Node4 -->
<g id="edge3_Node000001_Node000004" class="edge">
<title>Node1&#45;&gt;Node4</title>
<g id="a_edge3_Node000001_Node000004"><a xlink:title=" ">
<path fill="none" stroke="#63b8ff" d="M366.89,-21.98C358.91,-21.07 350.85,-20.16 342.93,-19.27"/>
<polygon fill="#63b8ff" stroke="#63b8ff" points="366.26,-25.43 376.59,-23.07 367.05,-18.47 366.26,-25.43"/>
</a>
</g>
</g>
<!-- Node3 -->
<g id="Node000003" class="node">
<title>Node3</title>
<g id="a_Node000003"><a xlink:href="class_scene_a_s_manager.html#ac1e394e99a4742852e700bc941a81541" target="_top" xlink:title=" ">
<polygon fill="white" stroke="#666666" points="141.25,-70 0,-70 0,-38 141.25,-38 141.25,-70"/>
<text text-anchor="start" x="8" y="-56.5" font-family="Helvetica,sans-Serif" font-size="10.00">SceneASManager::cmdBuild</text>
<text text-anchor="middle" x="70.62" y="-44.5" font-family="Helvetica,sans-Serif" font-size="10.00">BLASses</text>
</a>
</g>
</g>
<!-- Node2&#45;&gt;Node3 -->
<g id="edge2_Node000002_Node000003" class="edge">
<title>Node2&#45;&gt;Node3</title>
<g id="a_edge2_Node000002_Node000003"><a xlink:title=" ">
<path fill="none" stroke="#63b8ff" d="M167.34,-54C158.7,-54 150.04,-54 141.65,-54"/>
<polygon fill="#63b8ff" stroke="#63b8ff" points="167.14,-57.5 177.14,-54 167.14,-50.5 167.14,-57.5"/>
</a>
</g>
</g>
</g>
</svg>
