<?xml version="1.0" encoding="UTF-8" standalone="no"?>
<!DOCTYPE svg PUBLIC "-//W3C//DTD SVG 1.1//EN"
 "http://www.w3.org/Graphics/SVG/1.1/DTD/svg11.dtd">
<!-- Generated by graphviz version 10.0.1 (20240210.2158)
 -->
<!-- Title: hri::RenderPassResourceManager::~RenderPassResourceManager Pages: 1 -->
<svg width="706pt" height="40pt"
 viewBox="0.00 0.00 705.75 40.00" xmlns="http://www.w3.org/2000/svg" xmlns:xlink="http://www.w3.org/1999/xlink">
<g id="graph0" class="graph" transform="scale(1 1) rotate(0) translate(4 36)">
<title>hri::RenderPassResourceManager::~RenderPassResourceManager</title>
<!-- Node1 -->
<g id="Node000001" class="node">
<title>Node1</title>
<g id="a_Node000001"><a xlink:title="Destroy this resource manager.">
<polygon fill="#999999" stroke="#666666" points="164.5,-32 0,-32 0,0 164.5,0 164.5,-32"/>
<text text-anchor="start" x="8" y="-18.5" font-family="Helvetica,sans-Serif" font-size="10.00">hri::RenderPassResourceManager</text>
<text text-anchor="middle" x="82.25" y="-6.5" font-family="Helvetica,sans-Serif" font-size="10.00">::~RenderPassResourceManager</text>
</a>
</g>
</g>
<!-- Node2 -->
<g id="Node000002" class="node">
<title>Node2</title>
<g id="a_Node000002"><a xlink:href="classhri_1_1_render_pass_resource_manager.html#ac0f58ff968e21cc1757033cabc3db6be" target="_top" xlink:title="Destroy resources.">
<polygon fill="white" stroke="#666666" points="365,-32 200.5,-32 200.5,0 365,0 365,-32"/>
<text text-anchor="start" x="208.5" y="-18.5" font-family="Helvetica,sans-Serif" font-size="10.00">hri::RenderPassResourceManager</text>
<text text-anchor="middle" x="282.75" y="-6.5" font-family="Helvetica,sans-Serif" font-size="10.00">::destroyResources</text>
</a>
</g>
</g>
<!-- Node1&#45;&gt;Node2 -->
<g id="edge1_Node000001_Node000002" class="edge">
<title>Node1&#45;&gt;Node2</title>
<g id="a_edge1_Node000001_Node000002"><a xlink:title=" ">
<path fill="none" stroke="#63b8ff" d="M164.85,-16C172.77,-16 180.85,-16 188.87,-16"/>
<polygon fill="#63b8ff" stroke="#63b8ff" points="188.64,-19.5 198.64,-16 188.64,-12.5 188.64,-19.5"/>
</a>
</g>
</g>
<!-- Node3 -->
<g id="Node000003" class="node">
<title>Node3</title>
<g id="a_Node000003"><a xlink:href="classhri_1_1_i_render_pass_resource_manager_base.html#a30f0100697124c38b641948896456521" target="_top" xlink:title="Destroy resources.">
<polygon fill="white" stroke="#666666" points="561.75,-32 401,-32 401,0 561.75,0 561.75,-32"/>
<text text-anchor="start" x="409" y="-18.5" font-family="Helvetica,sans-Serif" font-size="10.00">hri::IRenderPassResource</text>
<text text-anchor="middle" x="481.38" y="-6.5" font-family="Helvetica,sans-Serif" font-size="10.00">ManagerBase::destroyResources</text>
</a>
</g>
</g>
<!-- Node2&#45;&gt;Node3 -->
<g id="edge2_Node000002_Node000003" class="edge">
<title>Node2&#45;&gt;Node3</title>
<g id="a_edge2_Node000002_Node000003"><a xlink:title=" ">
<path fill="none" stroke="#63b8ff" d="M365.43,-16C373.23,-16 381.17,-16 389.05,-16"/>
<polygon fill="#63b8ff" stroke="#63b8ff" points="389.02,-19.5 399.02,-16 389.02,-12.5 389.02,-19.5"/>
</a>
</g>
</g>
<!-- Node4 -->
<g id="Node000004" class="node">
<title>Node4</title>
<g id="a_Node000004"><a xlink:href="structhri_1_1_image_resource.html#af4c1d34769d3beef7b748af443123088" target="_top" xlink:title="Destroy an image resource.">
<polygon fill="white" stroke="#666666" points="697.75,-32 597.75,-32 597.75,0 697.75,0 697.75,-32"/>
<text text-anchor="start" x="605.75" y="-18.5" font-family="Helvetica,sans-Serif" font-size="10.00">hri::ImageResource</text>
<text text-anchor="middle" x="647.75" y="-6.5" font-family="Helvetica,sans-Serif" font-size="10.00">::destroy</text>
</a>
</g>
</g>
<!-- Node3&#45;&gt;Node4 -->
<g id="edge3_Node000003_Node000004" class="edge">
<title>Node3&#45;&gt;Node4</title>
<g id="a_edge3_Node000003_Node000004"><a xlink:title=" ">
<path fill="none" stroke="#63b8ff" d="M562.15,-16C570.29,-16 578.45,-16 586.33,-16"/>
<polygon fill="#63b8ff" stroke="#63b8ff" points="586.12,-19.5 596.12,-16 586.12,-12.5 586.12,-19.5"/>
</a>
</g>
</g>
</g>
</svg>
