<?xml version="1.0" encoding="UTF-8" standalone="no"?>
<!DOCTYPE svg PUBLIC "-//W3C//DTD SVG 1.1//EN"
 "http://www.w3.org/Graphics/SVG/1.1/DTD/svg11.dtd">
<!-- Generated by graphviz version 10.0.1 (20240210.2158)
 -->
<!-- Title: hri::SwapchainPassResourceManager::SwapchainPassResourceManager Pages: 1 -->
<svg width="774pt" height="115pt"
 viewBox="0.00 0.00 774.00 115.00" xmlns="http://www.w3.org/2000/svg" xmlns:xlink="http://www.w3.org/1999/xlink">
<g id="graph0" class="graph" transform="scale(1 1) rotate(0) translate(4 111)">
<title>hri::SwapchainPassResourceManager::SwapchainPassResourceManager</title>
<!-- Node1 -->
<g id="Node000001" class="node">
<title>Node1</title>
<g id="a_Node000001"><a xlink:title="Create a new Swapchain resource manager.">
<polygon fill="#999999" stroke="#666666" points="170.5,-63 0,-63 0,-19 170.5,-19 170.5,-63"/>
<text text-anchor="start" x="8" y="-49.5" font-family="Helvetica,sans-Serif" font-size="10.00">hri::SwapchainPassResource</text>
<text text-anchor="start" x="8" y="-37.5" font-family="Helvetica,sans-Serif" font-size="10.00">Manager::SwapchainPassResource</text>
<text text-anchor="middle" x="85.25" y="-25.5" font-family="Helvetica,sans-Serif" font-size="10.00">Manager</text>
</a>
</g>
</g>
<!-- Node2 -->
<g id="Node000002" class="node">
<title>Node2</title>
<g id="a_Node000002"><a xlink:href="classhri_1_1_swapchain_pass_resource_manager.html#a47e6b8357bfa6232737e69cb478ef45e" target="_top" xlink:title="Create resources.">
<polygon fill="white" stroke="#666666" points="350,-57 206.5,-57 206.5,-25 350,-25 350,-57"/>
<text text-anchor="start" x="214.5" y="-43.5" font-family="Helvetica,sans-Serif" font-size="10.00">hri::SwapchainPassResource</text>
<text text-anchor="middle" x="278.25" y="-31.5" font-family="Helvetica,sans-Serif" font-size="10.00">Manager::createResources</text>
</a>
</g>
</g>
<!-- Node1&#45;&gt;Node2 -->
<g id="edge1_Node000001_Node000002" class="edge">
<title>Node1&#45;&gt;Node2</title>
<g id="a_edge1_Node000001_Node000002"><a xlink:title=" ">
<path fill="none" stroke="#63b8ff" d="M170.86,-41C178.77,-41 186.78,-41 194.67,-41"/>
<polygon fill="#63b8ff" stroke="#63b8ff" points="194.61,-44.5 204.61,-41 194.61,-37.5 194.61,-44.5"/>
</a>
</g>
</g>
<!-- Node3 -->
<g id="Node000003" class="node">
<title>Node3</title>
<g id="a_Node000003"><a xlink:href="classhri_1_1_i_render_pass_resource_manager_base.html#a4391328fd9a0316ede758d338bee9fea" target="_top" xlink:title="Create resources.">
<polygon fill="white" stroke="#666666" points="558.38,-82 402.88,-82 402.88,-50 558.38,-50 558.38,-82"/>
<text text-anchor="start" x="410.88" y="-68.5" font-family="Helvetica,sans-Serif" font-size="10.00">hri::IRenderPassResource</text>
<text text-anchor="middle" x="480.62" y="-56.5" font-family="Helvetica,sans-Serif" font-size="10.00">ManagerBase::createResources</text>
</a>
</g>
</g>
<!-- Node2&#45;&gt;Node3 -->
<g id="edge2_Node000002_Node000003" class="edge">
<title>Node2&#45;&gt;Node3</title>
<g id="a_edge2_Node000002_Node000003"><a xlink:title=" ">
<path fill="none" stroke="#63b8ff" d="M350.46,-49.88C363.64,-51.53 377.56,-53.27 391.18,-54.96"/>
<polygon fill="#63b8ff" stroke="#63b8ff" points="390.67,-58.43 401.02,-56.19 391.53,-51.48 390.67,-58.43"/>
</a>
</g>
</g>
<!-- Node6 -->
<g id="Node000006" class="node">
<title>Node6</title>
<g id="a_Node000006"><a xlink:href="classhri_1_1_i_render_pass_resource_manager_base.html#a504eb862015a956f74d5020f20a3cb00" target="_top" xlink:title="Get image resource views.">
<polygon fill="white" stroke="#666666" points="575.25,-32 386,-32 386,0 575.25,0 575.25,-32"/>
<text text-anchor="start" x="394" y="-18.5" font-family="Helvetica,sans-Serif" font-size="10.00">hri::IRenderPassResource</text>
<text text-anchor="middle" x="480.62" y="-6.5" font-family="Helvetica,sans-Serif" font-size="10.00">ManagerBase::getImageResourceViews</text>
</a>
</g>
</g>
<!-- Node2&#45;&gt;Node6 -->
<g id="edge5_Node000002_Node000006" class="edge">
<title>Node2&#45;&gt;Node6</title>
<g id="a_edge5_Node000002_Node000006"><a xlink:title=" ">
<path fill="none" stroke="#63b8ff" d="M350.46,-32.12C358.18,-31.15 366.15,-30.16 374.17,-29.16"/>
<polygon fill="#63b8ff" stroke="#63b8ff" points="374.53,-32.64 384.02,-27.93 373.66,-25.69 374.53,-32.64"/>
</a>
</g>
</g>
<!-- Node4 -->
<g id="Node000004" class="node">
<title>Node4</title>
<g id="a_Node000004"><a xlink:href="classhri_1_1_i_render_pass_resource_manager_base.html#aabea2269ebd554cf3d75885a4e4dec87" target="_top" xlink:title="Get the render extent configured for this resouce manager.">
<polygon fill="white" stroke="#666666" points="766,-107 611.25,-107 611.25,-75 766,-75 766,-107"/>
<text text-anchor="start" x="619.25" y="-93.5" font-family="Helvetica,sans-Serif" font-size="10.00">hri::IRenderPassResource</text>
<text text-anchor="middle" x="688.62" y="-81.5" font-family="Helvetica,sans-Serif" font-size="10.00">ManagerBase::getRenderExtent</text>
</a>
</g>
</g>
<!-- Node3&#45;&gt;Node4 -->
<g id="edge3_Node000003_Node000004" class="edge">
<title>Node3&#45;&gt;Node4</title>
<g id="a_edge3_Node000003_Node000004"><a xlink:title=" ">
<path fill="none" stroke="#63b8ff" d="M558.62,-75.34C572.02,-76.97 586.04,-78.67 599.69,-80.33"/>
<polygon fill="#63b8ff" stroke="#63b8ff" points="599.21,-83.8 609.56,-81.53 600.05,-76.85 599.21,-83.8"/>
</a>
</g>
</g>
<!-- Node5 -->
<g id="Node000005" class="node">
<title>Node5</title>
<g id="a_Node000005"><a xlink:href="structhri_1_1_image_resource.html#a1d2b3ef1a0d2542bfea8f385b08ae4be" target="_top" xlink:title="Initialize a new image resource.">
<polygon fill="white" stroke="#666666" points="738.62,-57 638.62,-57 638.62,-25 738.62,-25 738.62,-57"/>
<text text-anchor="start" x="646.62" y="-43.5" font-family="Helvetica,sans-Serif" font-size="10.00">hri::ImageResource</text>
<text text-anchor="middle" x="688.62" y="-31.5" font-family="Helvetica,sans-Serif" font-size="10.00">::init</text>
</a>
</g>
</g>
<!-- Node3&#45;&gt;Node5 -->
<g id="edge4_Node000003_Node000005" class="edge">
<title>Node3&#45;&gt;Node5</title>
<g id="a_edge4_Node000003_Node000005"><a xlink:title=" ">
<path fill="none" stroke="#63b8ff" d="M558.62,-56.66C581.2,-53.92 605.55,-50.96 626.95,-48.36"/>
<polygon fill="#63b8ff" stroke="#63b8ff" points="627.17,-51.86 636.67,-47.18 626.32,-44.91 627.17,-51.86"/>
</a>
</g>
</g>
</g>
</svg>
