<?xml version="1.0" encoding="UTF-8" standalone="no"?>
<!DOCTYPE svg PUBLIC "-//W3C//DTD SVG 1.1//EN"
 "http://www.w3.org/Graphics/SVG/1.1/DTD/svg11.dtd">
<!-- Generated by graphviz version 10.0.1 (20240210.2158)
 -->
<!-- Title: hri::RenderPassResourceManager::RenderPassResourceManager Pages: 1 -->
<!--zoomable 140 -->

<svg id="main" version="1.1" xmlns="http://www.w3.org/2000/svg" xmlns:xlink="http://www.w3.org/1999/xlink" xml:space="preserve" onload="init(evt)">
<style type="text/css"><![CDATA[
.node, .edge {opacity: 0.7;}
.node.selected, .edge.selected {opacity: 1;}
.edge:hover path { stroke: red; }
.edge:hover polygon { stroke: red; fill: red; }
]]></style>

<defs>
  <circle id="rim" cx="0" cy="0" r="7"/>
  <circle id="rim2" cx="0" cy="0" r="3.5"/>
  <g id="zoomPlus">
    <use xlink:href="#rim" fill="#404040"><set attributeName="fill" to="#808080" begin="zoomplus.mouseover" end="zoomplus.mouseout"/></use>
    <path d="M-4,0h8M0,-4v8" fill="none" stroke="white" stroke-width="1.5" pointer-events="none"/>
  </g>
  <g id="zoomMin">
    <use xlink:href="#rim" fill="#404040"><set attributeName="fill" to="#808080" begin="zoomminus.mouseover" end="zoomminus.mouseout"/></use>
    <path d="M-4,0h8" fill="none" stroke="white" stroke-width="1.5" pointer-events="none"/>
  </g>
  <g id="arrowUp" transform="translate(30 24)">
    <use xlink:href="#rim"/>
    <path pointer-events="none" fill="none" stroke="white" stroke-width="1.5" d="M0,-3.0v7 M-2.5,-0.5L0,-3.0L2.5,-0.5"/>
  </g>
  <g id="arrowRight" transform="rotate(90) translate(36 -43)">
    <use xlink:href="#rim"/>
    <path pointer-events="none" fill="none" stroke="white" stroke-width="1.5" d="M0,-3.0v7 M-2.5,-0.5L0,-3.0L2.5,-0.5"/>
  </g>
  <g id="arrowDown" transform="rotate(180) translate(-30 -48)">
    <use xlink:href="#rim"/>
    <path pointer-events="none" fill="none" stroke="white" stroke-width="1.5" d="M0,-3.0v7 M-2.5,-0.5L0,-3.0L2.5,-0.5"/>
  </g>
  <g id="arrowLeft" transform="rotate(270) translate(-36 17)">
    <use xlink:href="#rim"/>
    <path pointer-events="none" fill="none" stroke="white" stroke-width="1.5" d="M0,-3.0v7 M-2.5,-0.5L0,-3.0L2.5,-0.5"/>
  </g>
  <g id="resetDef">
    <use xlink:href="#rim2" fill="#404040"><set attributeName="fill" to="#808080" begin="reset.mouseover" end="reset.mouseout"/></use>
  </g>
</defs>
<script type="application/ecmascript">
var viewWidth = 789;
var viewHeight = 140;
var sectionId = 'dynsection-2';
</script>
<script type="application/ecmascript" xlink:href="svg.min.js"/>
<svg id="graph" class="graph">
<g id="viewport">
<title>hri::RenderPassResourceManager::RenderPassResourceManager</title>
<!-- Node1 -->
<g id="Node000001" class="node">
<title>Node1</title>
<g id="a_Node000001"><a xlink:title="Create a new Render Pass Resource Manager.">
<polygon fill="#999999" stroke="#666666" points="164.5,-57 0,-57 0,-25 164.5,-25 164.5,-57"/>
<text text-anchor="start" x="8" y="-43.5" font-family="Helvetica,sans-Serif" font-size="10.00">hri::RenderPassResourceManager</text>
<text text-anchor="middle" x="82.25" y="-31.5" font-family="Helvetica,sans-Serif" font-size="10.00">::RenderPassResourceManager</text>
</a>
</g>
</g>
<!-- Node2 -->
<g id="Node000002" class="node">
<title>Node2</title>
<g id="a_Node000002"><a xlink:href="classhri_1_1_render_pass_resource_manager.html#af1d3d90e346a5101ecb20e469206669c" target="_top" xlink:title="Create resources.">
<polygon fill="white" stroke="#666666" points="365,-57 200.5,-57 200.5,-25 365,-25 365,-57"/>
<text text-anchor="start" x="208.5" y="-43.5" font-family="Helvetica,sans-Serif" font-size="10.00">hri::RenderPassResourceManager</text>
<text text-anchor="middle" x="282.75" y="-31.5" font-family="Helvetica,sans-Serif" font-size="10.00">::createResources</text>
</a>
</g>
</g>
<!-- Node1&#45;&gt;Node2 -->
<g id="edge1_Node000001_Node000002" class="edge">
<title>Node1&#45;&gt;Node2</title>
<g id="a_edge1_Node000001_Node000002"><a xlink:title=" ">
<path fill="none" stroke="#63b8ff" d="M164.85,-41C172.77,-41 180.85,-41 188.87,-41"/>
<polygon fill="#63b8ff" stroke="#63b8ff" points="188.64,-44.5 198.64,-41 188.64,-37.5 188.64,-44.5"/>
</a>
</g>
</g>
<!-- Node3 -->
<g id="Node000003" class="node">
<title>Node3</title>
<g id="a_Node000003"><a xlink:href="classhri_1_1_i_render_pass_resource_manager_base.html#a4391328fd9a0316ede758d338bee9fea" target="_top" xlink:title="Create resources.">
<polygon fill="white" stroke="#666666" points="573.38,-82 417.88,-82 417.88,-50 573.38,-50 573.38,-82"/>
<text text-anchor="start" x="425.88" y="-68.5" font-family="Helvetica,sans-Serif" font-size="10.00">hri::IRenderPassResource</text>
<text text-anchor="middle" x="495.62" y="-56.5" font-family="Helvetica,sans-Serif" font-size="10.00">ManagerBase::createResources</text>
</a>
</g>
</g>
<!-- Node2&#45;&gt;Node3 -->
<g id="edge2_Node000002_Node000003" class="edge">
<title>Node2&#45;&gt;Node3</title>
<g id="a_edge2_Node000002_Node000003"><a xlink:title=" ">
<path fill="none" stroke="#63b8ff" d="M365.28,-50.67C378.68,-52.25 392.63,-53.91 406.18,-55.52"/>
<polygon fill="#63b8ff" stroke="#63b8ff" points="405.62,-58.97 415.96,-56.67 406.44,-52.02 405.62,-58.97"/>
</a>
</g>
</g>
<!-- Node7 -->
<g id="Node000007" class="node">
<title>Node7</title>
<g id="a_Node000007"><a xlink:href="classhri_1_1_i_render_pass_resource_manager_base.html#a504eb862015a956f74d5020f20a3cb00" target="_top" xlink:title="Get image resource views.">
<polygon fill="white" stroke="#666666" points="590.25,-32 401,-32 401,0 590.25,0 590.25,-32"/>
<text text-anchor="start" x="409" y="-18.5" font-family="Helvetica,sans-Serif" font-size="10.00">hri::IRenderPassResource</text>
<text text-anchor="middle" x="495.62" y="-6.5" font-family="Helvetica,sans-Serif" font-size="10.00">ManagerBase::getImageResourceViews</text>
</a>
</g>
</g>
<!-- Node2&#45;&gt;Node7 -->
<g id="edge6_Node000002_Node000007" class="edge">
<title>Node2&#45;&gt;Node7</title>
<g id="a_edge6_Node000002_Node000007"><a xlink:title=" ">
<path fill="none" stroke="#63b8ff" d="M365.28,-31.33C373.16,-30.4 381.22,-29.44 389.29,-28.49"/>
<polygon fill="#63b8ff" stroke="#63b8ff" points="389.65,-31.97 399.17,-27.32 388.82,-25.02 389.65,-31.97"/>
</a>
</g>
</g>
<!-- Node4 -->
<g id="Node000004" class="node">
<title>Node4</title>
<g id="a_Node000004"><a xlink:href="classhri_1_1_image_resource.html#a56ffb48c12007c708401a7cf6c7f9c51" target="_top" xlink:title="Get the default component mapping for images.">
<polygon fill="white" stroke="#666666" points="772.75,-132 634.5,-132 634.5,-100 772.75,-100 772.75,-132"/>
<text text-anchor="start" x="642.5" y="-118.5" font-family="Helvetica,sans-Serif" font-size="10.00">hri::ImageResource</text>
<text text-anchor="middle" x="703.62" y="-106.5" font-family="Helvetica,sans-Serif" font-size="10.00">::DefaultComponentMapping</text>
</a>
</g>
</g>
<!-- Node3&#45;&gt;Node4 -->
<g id="edge3_Node000003_Node000004" class="edge">
<title>Node3&#45;&gt;Node4</title>
<g id="a_edge3_Node000003_Node000004"><a xlink:title=" ">
<path fill="none" stroke="#63b8ff" d="M564.36,-82.44C583.37,-87.05 604.2,-92.11 623.79,-96.87"/>
<polygon fill="#63b8ff" stroke="#63b8ff" points="622.83,-100.23 633.38,-99.19 624.48,-93.43 622.83,-100.23"/>
</a>
</g>
</g>
<!-- Node5 -->
<g id="Node000005" class="node">
<title>Node5</title>
<g id="a_Node000005"><a xlink:href="classhri_1_1_i_render_pass_resource_manager_base.html#aabea2269ebd554cf3d75885a4e4dec87" target="_top" xlink:title="Get the render extent configured for this resouce manager.">
<polygon fill="white" stroke="#666666" points="781,-82 626.25,-82 626.25,-50 781,-50 781,-82"/>
<text text-anchor="start" x="634.25" y="-68.5" font-family="Helvetica,sans-Serif" font-size="10.00">hri::IRenderPassResource</text>
<text text-anchor="middle" x="703.62" y="-56.5" font-family="Helvetica,sans-Serif" font-size="10.00">ManagerBase::getRenderExtent</text>
</a>
</g>
</g>
<!-- Node3&#45;&gt;Node5 -->
<g id="edge4_Node000003_Node000005" class="edge">
<title>Node3&#45;&gt;Node5</title>
<g id="a_edge4_Node000003_Node000005"><a xlink:title=" ">
<path fill="none" stroke="#63b8ff" d="M573.62,-66C587.02,-66 601.04,-66 614.69,-66"/>
<polygon fill="#63b8ff" stroke="#63b8ff" points="614.55,-69.5 624.55,-66 614.55,-62.5 614.55,-69.5"/>
</a>
</g>
</g>
<!-- Node6 -->
<g id="Node000006" class="node">
<title>Node6</title>
<g id="a_Node000006"><a xlink:href="classhri_1_1_image_resource.html#acb45dad4bfb49d9e739ed8d5d5a25cf0" target="_top" xlink:title="Create an image subresource range.">
<polygon fill="white" stroke="#666666" points="755.88,-32 651.38,-32 651.38,0 755.88,0 755.88,-32"/>
<text text-anchor="start" x="659.38" y="-18.5" font-family="Helvetica,sans-Serif" font-size="10.00">hri::ImageResource</text>
<text text-anchor="middle" x="703.62" y="-6.5" font-family="Helvetica,sans-Serif" font-size="10.00">::SubresourceRange</text>
</a>
</g>
</g>
<!-- Node3&#45;&gt;Node6 -->
<g id="edge5_Node000003_Node000006" class="edge">
<title>Node3&#45;&gt;Node6</title>
<g id="a_edge5_Node000003_Node000006"><a xlink:title=" ">
<path fill="none" stroke="#63b8ff" d="M564.36,-49.56C588.76,-43.64 616.16,-36.99 640.09,-31.18"/>
<polygon fill="#63b8ff" stroke="#63b8ff" points="640.81,-34.6 649.71,-28.84 639.16,-27.8 640.81,-34.6"/>
</a>
</g>
</g>
</g>
</svg>

<g id="navigator" transform="translate(0 0)" fill="#404254">
  <rect fill="#f2f5e9" fill-opacity="0.5" stroke="#606060" stroke-width=".5" x="0" y="0" width="60" height="60"/>
  <use id="zoomplus" xlink:href="#zoomPlus" x="17" y="9" onmousedown="handleZoom(evt,'in')"/>
  <use id="zoomminus" xlink:href="#zoomMin" x="42" y="9" onmousedown="handleZoom(evt,'out')"/>
  <use id="reset" xlink:href="#resetDef" x="30" y="36" onmousedown="handleReset()"/>
   <use id="arrowup" xlink:href="#arrowUp" x="0" y="0" onmousedown="handlePan(0,-1)"/>
  <use id="arrowright" xlink:href="#arrowRight" x="0" y="0" onmousedown="handlePan(1,0)"/>
  <use id="arrowdown" xlink:href="#arrowDown" x="0" y="0" onmousedown="handlePan(0,1)"/>
  <use id="arrowleft" xlink:href="#arrowLeft" x="0" y="0" onmousedown="handlePan(-1,0)"/>
</g>
<svg viewBox="0 0 15 15" width="100%" height="30px" preserveAspectRatio="xMaxYMin meet">
 <g id="arrow_out" transform="scale(0.3 0.3)">
  <a xlink:href="classhri_1_1_render_pass_resource_manager_a7ce056b4db9605f863c414c2b6071b98_cgraph_org.svg" target="_base">
   <rect id="button" ry="5" rx="5" y="6" x="6" height="38" width="38"
        fill="#f2f5e9" fill-opacity="0.5" stroke="#606060" stroke-width="1.0"/>
   <path id="arrow"
     d="M 11.500037,31.436501 C 11.940474,20.09759 22.043105,11.32322 32.158766,21.979434 L 37.068811,17.246167 C 37.068811,17.246167 37.088388,32 37.088388,32 L 22.160133,31.978069 C 22.160133,31.978069 26.997745,27.140456 26.997745,27.140456 C 18.528582,18.264221 13.291696,25.230495 11.500037,31.436501 z"
     style="fill:#404040;"/>
  </a>
 </g>
</svg>

<style type='text/css'>
<![CDATA[
[data-mouse-over-selected='false'] { opacity: 0.7; }
[data-mouse-over-selected='true']  { opacity: 1.0; }
]]>
</style>
<script type="application/ecmascript"><![CDATA[
document.addEventListener('DOMContentLoaded', (event) => {
  highlightEdges();
  highlightAdjacentNodes();
});
]]></script>
</svg>
