<?xml version="1.0" encoding="UTF-8" standalone="no"?>
<!DOCTYPE svg PUBLIC "-//W3C//DTD SVG 1.1//EN"
 "http://www.w3.org/Graphics/SVG/1.1/DTD/svg11.dtd">
<!-- Generated by graphviz version 10.0.1 (20240210.2158)
 -->
<!-- Title: hri::RenderPassResourceManager::createResources Pages: 1 -->
<svg width="589pt" height="140pt"
 viewBox="0.00 0.00 588.50 140.00" xmlns="http://www.w3.org/2000/svg" xmlns:xlink="http://www.w3.org/1999/xlink">
<g id="graph0" class="graph" transform="scale(1 1) rotate(0) translate(4 136)">
<title>hri::RenderPassResourceManager::createResources</title>
<!-- Node1 -->
<g id="Node000001" class="node">
<title>Node1</title>
<g id="a_Node000001"><a xlink:title="Create resources.">
<polygon fill="#999999" stroke="#666666" points="164.5,-57 0,-57 0,-25 164.5,-25 164.5,-57"/>
<text text-anchor="start" x="8" y="-43.5" font-family="Helvetica,sans-Serif" font-size="10.00">hri::RenderPassResourceManager</text>
<text text-anchor="middle" x="82.25" y="-31.5" font-family="Helvetica,sans-Serif" font-size="10.00">::createResources</text>
</a>
</g>
</g>
<!-- Node2 -->
<g id="Node000002" class="node">
<title>Node2</title>
<g id="a_Node000002"><a xlink:href="classhri_1_1_i_render_pass_resource_manager_base.html#a4391328fd9a0316ede758d338bee9fea" target="_top" xlink:title="Create resources.">
<polygon fill="white" stroke="#666666" points="372.88,-82 217.38,-82 217.38,-50 372.88,-50 372.88,-82"/>
<text text-anchor="start" x="225.38" y="-68.5" font-family="Helvetica,sans-Serif" font-size="10.00">hri::IRenderPassResource</text>
<text text-anchor="middle" x="295.12" y="-56.5" font-family="Helvetica,sans-Serif" font-size="10.00">ManagerBase::createResources</text>
</a>
</g>
</g>
<!-- Node1&#45;&gt;Node2 -->
<g id="edge1_Node000001_Node000002" class="edge">
<title>Node1&#45;&gt;Node2</title>
<g id="a_edge1_Node000001_Node000002"><a xlink:title=" ">
<path fill="none" stroke="#63b8ff" d="M164.78,-50.67C178.18,-52.25 192.13,-53.91 205.68,-55.52"/>
<polygon fill="#63b8ff" stroke="#63b8ff" points="205.12,-58.97 215.46,-56.67 205.94,-52.02 205.12,-58.97"/>
</a>
</g>
</g>
<!-- Node6 -->
<g id="Node000006" class="node">
<title>Node6</title>
<g id="a_Node000006"><a xlink:href="classhri_1_1_i_render_pass_resource_manager_base.html#a504eb862015a956f74d5020f20a3cb00" target="_top" xlink:title="Get image resource views.">
<polygon fill="white" stroke="#666666" points="389.75,-32 200.5,-32 200.5,0 389.75,0 389.75,-32"/>
<text text-anchor="start" x="208.5" y="-18.5" font-family="Helvetica,sans-Serif" font-size="10.00">hri::IRenderPassResource</text>
<text text-anchor="middle" x="295.12" y="-6.5" font-family="Helvetica,sans-Serif" font-size="10.00">ManagerBase::getImageResourceViews</text>
</a>
</g>
</g>
<!-- Node1&#45;&gt;Node6 -->
<g id="edge5_Node000001_Node000006" class="edge">
<title>Node1&#45;&gt;Node6</title>
<g id="a_edge5_Node000001_Node000006"><a xlink:title=" ">
<path fill="none" stroke="#63b8ff" d="M164.78,-31.33C172.66,-30.4 180.72,-29.44 188.79,-28.49"/>
<polygon fill="#63b8ff" stroke="#63b8ff" points="189.15,-31.97 198.67,-27.32 188.32,-25.02 189.15,-31.97"/>
</a>
</g>
</g>
<!-- Node3 -->
<g id="Node000003" class="node">
<title>Node3</title>
<g id="a_Node000003"><a xlink:href="classhri_1_1_image_resource.html#a56ffb48c12007c708401a7cf6c7f9c51" target="_top" xlink:title="Get the default component mapping for images.">
<polygon fill="white" stroke="#666666" points="572.25,-132 434,-132 434,-100 572.25,-100 572.25,-132"/>
<text text-anchor="start" x="442" y="-118.5" font-family="Helvetica,sans-Serif" font-size="10.00">hri::ImageResource</text>
<text text-anchor="middle" x="503.12" y="-106.5" font-family="Helvetica,sans-Serif" font-size="10.00">::DefaultComponentMapping</text>
</a>
</g>
</g>
<!-- Node2&#45;&gt;Node3 -->
<g id="edge2_Node000002_Node000003" class="edge">
<title>Node2&#45;&gt;Node3</title>
<g id="a_edge2_Node000002_Node000003"><a xlink:title=" ">
<path fill="none" stroke="#63b8ff" d="M363.86,-82.44C382.87,-87.05 403.7,-92.11 423.29,-96.87"/>
<polygon fill="#63b8ff" stroke="#63b8ff" points="422.33,-100.23 432.88,-99.19 423.98,-93.43 422.33,-100.23"/>
</a>
</g>
</g>
<!-- Node4 -->
<g id="Node000004" class="node">
<title>Node4</title>
<g id="a_Node000004"><a xlink:href="classhri_1_1_i_render_pass_resource_manager_base.html#aabea2269ebd554cf3d75885a4e4dec87" target="_top" xlink:title="Get the render extent configured for this resouce manager.">
<polygon fill="white" stroke="#666666" points="580.5,-82 425.75,-82 425.75,-50 580.5,-50 580.5,-82"/>
<text text-anchor="start" x="433.75" y="-68.5" font-family="Helvetica,sans-Serif" font-size="10.00">hri::IRenderPassResource</text>
<text text-anchor="middle" x="503.12" y="-56.5" font-family="Helvetica,sans-Serif" font-size="10.00">ManagerBase::getRenderExtent</text>
</a>
</g>
</g>
<!-- Node2&#45;&gt;Node4 -->
<g id="edge3_Node000002_Node000004" class="edge">
<title>Node2&#45;&gt;Node4</title>
<g id="a_edge3_Node000002_Node000004"><a xlink:title=" ">
<path fill="none" stroke="#63b8ff" d="M373.12,-66C386.52,-66 400.54,-66 414.19,-66"/>
<polygon fill="#63b8ff" stroke="#63b8ff" points="414.05,-69.5 424.05,-66 414.05,-62.5 414.05,-69.5"/>
</a>
</g>
</g>
<!-- Node5 -->
<g id="Node000005" class="node">
<title>Node5</title>
<g id="a_Node000005"><a xlink:href="classhri_1_1_image_resource.html#acb45dad4bfb49d9e739ed8d5d5a25cf0" target="_top" xlink:title="Create an image subresource range.">
<polygon fill="white" stroke="#666666" points="555.38,-32 450.88,-32 450.88,0 555.38,0 555.38,-32"/>
<text text-anchor="start" x="458.88" y="-18.5" font-family="Helvetica,sans-Serif" font-size="10.00">hri::ImageResource</text>
<text text-anchor="middle" x="503.12" y="-6.5" font-family="Helvetica,sans-Serif" font-size="10.00">::SubresourceRange</text>
</a>
</g>
</g>
<!-- Node2&#45;&gt;Node5 -->
<g id="edge4_Node000002_Node000005" class="edge">
<title>Node2&#45;&gt;Node5</title>
<g id="a_edge4_Node000002_Node000005"><a xlink:title=" ">
<path fill="none" stroke="#63b8ff" d="M363.86,-49.56C388.26,-43.64 415.66,-36.99 439.59,-31.18"/>
<polygon fill="#63b8ff" stroke="#63b8ff" points="440.31,-34.6 449.21,-28.84 438.66,-27.8 440.31,-34.6"/>
</a>
</g>
</g>
</g>
</svg>
