<?xml version="1.0" encoding="UTF-8" standalone="no"?>
<!DOCTYPE svg PUBLIC "-//W3C//DTD SVG 1.1//EN"
 "http://www.w3.org/Graphics/SVG/1.1/DTD/svg11.dtd">
<!-- Generated by graphviz version 10.0.1 (20240210.2158)
 -->
<!-- Title: Renderer::~Renderer Pages: 1 -->
<svg width="290pt" height="90pt"
 viewBox="0.00 0.00 289.75 90.00" xmlns="http://www.w3.org/2000/svg" xmlns:xlink="http://www.w3.org/1999/xlink">
<g id="graph0" class="graph" transform="scale(1 1) rotate(0) translate(4 86)">
<title>Renderer::~Renderer</title>
<!-- Node1 -->
<g id="Node000001" class="node">
<title>Node1</title>
<g id="a_Node000001"><a xlink:title=" ">
<polygon fill="#999999" stroke="#666666" points="106,-51 0,-51 0,-31 106,-31 106,-51"/>
<text text-anchor="middle" x="53" y="-37.5" font-family="Helvetica,sans-Serif" font-size="10.00">Renderer::~Renderer</text>
</a>
</g>
</g>
<!-- Node2 -->
<g id="Node000002" class="node">
<title>Node2</title>
<g id="a_Node000002"><a xlink:href="classhri_1_1_render_core.html#a41c0ca170e62df347e4c7d623b9fef57" target="_top" xlink:title="Await the finish of the currently active frame.">
<polygon fill="white" stroke="#666666" points="281.75,-82 142,-82 142,-50 281.75,-50 281.75,-82"/>
<text text-anchor="start" x="150" y="-68.5" font-family="Helvetica,sans-Serif" font-size="10.00">hri::RenderCore::awaitFrame</text>
<text text-anchor="middle" x="211.88" y="-56.5" font-family="Helvetica,sans-Serif" font-size="10.00">Finished</text>
</a>
</g>
</g>
<!-- Node1&#45;&gt;Node2 -->
<g id="edge1_Node000001_Node000002" class="edge">
<title>Node1&#45;&gt;Node2</title>
<g id="a_edge1_Node000001_Node000002"><a xlink:title=" ">
<path fill="none" stroke="#63b8ff" d="M106.24,-49.32C114.02,-50.56 122.19,-51.87 130.39,-53.17"/>
<polygon fill="#63b8ff" stroke="#63b8ff" points="129.64,-56.6 140.06,-54.72 130.74,-49.69 129.64,-56.6"/>
</a>
</g>
</g>
<!-- Node3 -->
<g id="Node000003" class="node">
<title>Node3</title>
<g id="a_Node000003"><a xlink:href="structhri_1_1_buffer_resource.html#a99665502a8e8f3561285b09487ecf632" target="_top" xlink:title="Destroy a Buffer Resource.">
<polygon fill="white" stroke="#666666" points="261.12,-32 162.62,-32 162.62,0 261.12,0 261.12,-32"/>
<text text-anchor="start" x="170.62" y="-18.5" font-family="Helvetica,sans-Serif" font-size="10.00">hri::BufferResource</text>
<text text-anchor="middle" x="211.88" y="-6.5" font-family="Helvetica,sans-Serif" font-size="10.00">::destroy</text>
</a>
</g>
</g>
<!-- Node1&#45;&gt;Node3 -->
<g id="edge2_Node000001_Node000003" class="edge">
<title>Node1&#45;&gt;Node3</title>
<g id="a_edge2_Node000001_Node000003"><a xlink:title=" ">
<path fill="none" stroke="#63b8ff" d="M106.24,-32.68C120.66,-30.38 136.41,-27.87 151.21,-25.51"/>
<polygon fill="#63b8ff" stroke="#63b8ff" points="151.49,-29.01 160.82,-23.98 150.39,-22.09 151.49,-29.01"/>
</a>
</g>
</g>
</g>
</svg>
