<?xml version="1.0" encoding="UTF-8" standalone="no"?>
<!DOCTYPE svg PUBLIC "-//W3C//DTD SVG 1.1//EN"
 "http://www.w3.org/Graphics/SVG/1.1/DTD/svg11.dtd">
<!-- Generated by graphviz version 10.0.1 (20240210.2158)
 -->
<!-- Title: Renderer::drawFrame Pages: 1 -->
<svg width="444pt" height="266pt"
 viewBox="0.00 0.00 443.75 266.00" xmlns="http://www.w3.org/2000/svg" xmlns:xlink="http://www.w3.org/1999/xlink">

<svg id="main" version="1.1" xmlns="http://www.w3.org/2000/svg" xmlns:xlink="http://www.w3.org/1999/xlink" xml:space="preserve" onload="init(evt)">
<style type="text/css"><![CDATA[
.node, .edge {opacity: 0.7;}
.node.selected, .edge.selected {opacity: 1;}
.edge:hover path { stroke: red; }
.edge:hover polygon { stroke: red; fill: red; }
]]></style>
<script type="application/ecmascript" xlink:href="svg.min.js"/>
<svg id="graph" class="graph">
<g id="graph0" class="graph" transform="scale(1 1) rotate(0) translate(4 262)">
<title>Renderer::drawFrame</title>
<!-- Node1 -->
<g id="Node000001" class="node">
<title>Node1</title>
<g id="a_Node000001"><a xlink:title=" ">
<polygon fill="#999999" stroke="#666666" points="109,-139 0,-139 0,-119 109,-119 109,-139"/>
<text text-anchor="middle" x="54.5" y="-125.5" font-family="Helvetica,sans-Serif" font-size="10.00">Renderer::drawFrame</text>
</a>
</g>
</g>
<!-- Node2 -->
<g id="Node000002" class="node">
<title>Node2</title>
<g id="a_Node000002"><a xlink:href="classhri_1_1_render_core.html#aaa98d9771acdbbc31ebd77f9e1987ea9" target="_top" xlink:title="End the currently active frame, submitting recorded work to the GPU.">
<polygon fill="white" stroke="#666666" points="286.62,-258 153.62,-258 153.62,-238 286.62,-238 286.62,-258"/>
<text text-anchor="middle" x="220.12" y="-244.5" font-family="Helvetica,sans-Serif" font-size="10.00">hri::RenderCore::endFrame</text>
</a>
</g>
</g>
<!-- Node1&#45;&gt;Node2 -->
<g id="edge1_Node000001_Node000002" class="edge">
<title>Node1&#45;&gt;Node2</title>
<g id="a_edge1_Node000001_Node000002"><a xlink:title=" ">
<path fill="none" stroke="#63b8ff" d="M61.71,-139.31C74.57,-159.74 106.17,-205.41 145,-229 147.57,-230.56 150.27,-232 153.05,-233.31"/>
<polygon fill="#63b8ff" stroke="#63b8ff" points="151.43,-236.43 162.01,-237.01 154.1,-229.96 151.43,-236.43"/>
</a>
</g>
</g>
<!-- Node3 -->
<g id="Node000003" class="node">
<title>Node3</title>
<g id="a_Node000003"><a xlink:href="classhri_1_1_render_core.html#ab9ba2bdfeb37964e49337191d2391274" target="_top" xlink:title="Retrieve number of frames in flight for this render core.">
<polygon fill="white" stroke="#666666" points="283.25,-220 157,-220 157,-188 283.25,-188 283.25,-220"/>
<text text-anchor="start" x="165" y="-206.5" font-family="Helvetica,sans-Serif" font-size="10.00">hri::RenderCore::framesIn</text>
<text text-anchor="middle" x="220.12" y="-194.5" font-family="Helvetica,sans-Serif" font-size="10.00">Flight</text>
</a>
</g>
</g>
<!-- Node1&#45;&gt;Node3 -->
<g id="edge2_Node000001_Node000003" class="edge">
<title>Node1&#45;&gt;Node3</title>
<g id="a_edge2_Node000001_Node000003"><a xlink:title=" ">
<path fill="none" stroke="#63b8ff" d="M71.85,-139.35C89.45,-150.18 118.48,-167.24 145,-179 148.52,-180.56 152.17,-182.08 155.88,-183.56"/>
<polygon fill="#63b8ff" stroke="#63b8ff" points="154.42,-186.74 165.01,-187.03 156.91,-180.2 154.42,-186.74"/>
</a>
</g>
</g>
<!-- Node4 -->
<g id="Node000004" class="node">
<title>Node4</title>
<g id="a_Node000004"><a xlink:href="classhri_1_1_render_core.html#ad89555315c2eb5a161aa35e0363be9b8" target="_top" xlink:title="Retrive the currently active frame&#39;s data.">
<polygon fill="white" stroke="#666666" points="284.75,-170 155.5,-170 155.5,-138 284.75,-138 284.75,-170"/>
<text text-anchor="start" x="163.5" y="-156.5" font-family="Helvetica,sans-Serif" font-size="10.00">hri::RenderCore::getActive</text>
<text text-anchor="middle" x="220.12" y="-144.5" font-family="Helvetica,sans-Serif" font-size="10.00">Frame</text>
</a>
</g>
</g>
<!-- Node1&#45;&gt;Node4 -->
<g id="edge3_Node000001_Node000004" class="edge">
<title>Node1&#45;&gt;Node4</title>
<g id="a_edge3_Node000001_Node000004"><a xlink:title=" ">
<path fill="none" stroke="#63b8ff" d="M109.08,-137.19C120.24,-138.89 132.2,-140.72 143.97,-142.52"/>
<polygon fill="#63b8ff" stroke="#63b8ff" points="143.26,-145.95 153.67,-144 144.31,-139.03 143.26,-145.95"/>
</a>
</g>
</g>
<!-- Node5 -->
<g id="Node000005" class="node">
<title>Node5</title>
<g id="a_Node000005"><a xlink:href="classhri_1_1_render_subsystem_manager.html#a3ac43dbf8182362d7621a4052de0e1e7" target="_top" xlink:title="Record a subsystem&#39;s render commands.">
<polygon fill="white" stroke="#666666" points="295.25,-120 145,-120 145,-88 295.25,-88 295.25,-120"/>
<text text-anchor="start" x="153" y="-106.5" font-family="Helvetica,sans-Serif" font-size="10.00">hri::RenderSubsystemManager</text>
<text text-anchor="middle" x="220.12" y="-94.5" font-family="Helvetica,sans-Serif" font-size="10.00">::recordSubsystem</text>
</a>
</g>
</g>
<!-- Node1&#45;&gt;Node5 -->
<g id="edge4_Node000001_Node000005" class="edge">
<title>Node1&#45;&gt;Node5</title>
<g id="a_edge4_Node000001_Node000005"><a xlink:title=" ">
<path fill="none" stroke="#63b8ff" d="M109.08,-120.81C116.89,-119.62 125.1,-118.37 133.37,-117.1"/>
<polygon fill="#63b8ff" stroke="#63b8ff" points="133.78,-120.58 143.14,-115.61 132.73,-113.66 133.78,-120.58"/>
</a>
</g>
</g>
<!-- Node6 -->
<g id="Node000006" class="node">
<title>Node6</title>
<g id="a_Node000006"><a xlink:href="classhri_1_1_render_core.html#a0effa6efd78811071c92ffb467678145" target="_top" xlink:title="Start a new frame.">
<polygon fill="white" stroke="#666666" points="288.5,-70 151.75,-70 151.75,-50 288.5,-50 288.5,-70"/>
<text text-anchor="middle" x="220.12" y="-56.5" font-family="Helvetica,sans-Serif" font-size="10.00">hri::RenderCore::startFrame</text>
</a>
</g>
</g>
<!-- Node1&#45;&gt;Node6 -->
<g id="edge5_Node000001_Node000006" class="edge">
<title>Node1&#45;&gt;Node6</title>
<g id="a_edge5_Node000001_Node000006"><a xlink:title=" ">
<path fill="none" stroke="#63b8ff" d="M71.05,-118.67C88.43,-107.52 117.73,-89.9 145,-79 149.71,-77.12 154.66,-75.38 159.67,-73.77"/>
<polygon fill="#63b8ff" stroke="#63b8ff" points="160.66,-77.13 169.24,-70.92 158.66,-70.42 160.66,-77.13"/>
</a>
</g>
</g>
<!-- Node8 -->
<g id="Node000008" class="node">
<title>Node8</title>
<g id="a_Node000008"><a xlink:href="classhri_1_1_image_resource.html#acb45dad4bfb49d9e739ed8d5d5a25cf0" target="_top" xlink:title="Create an image subresource range.">
<polygon fill="white" stroke="#666666" points="272.38,-32 167.88,-32 167.88,0 272.38,0 272.38,-32"/>
<text text-anchor="start" x="175.88" y="-18.5" font-family="Helvetica,sans-Serif" font-size="10.00">hri::ImageResource</text>
<text text-anchor="middle" x="220.12" y="-6.5" font-family="Helvetica,sans-Serif" font-size="10.00">::SubresourceRange</text>
</a>
</g>
</g>
<!-- Node1&#45;&gt;Node8 -->
<g id="edge7_Node000001_Node000008" class="edge">
<title>Node1&#45;&gt;Node8</title>
<g id="a_edge7_Node000001_Node000008"><a xlink:title=" ">
<path fill="none" stroke="#63b8ff" d="M63.47,-118.5C77.85,-100.25 109.91,-62.57 145,-41 148.8,-38.67 152.84,-36.52 157,-34.55"/>
<polygon fill="#63b8ff" stroke="#63b8ff" points="158.33,-37.79 166.12,-30.62 155.56,-31.36 158.33,-37.79"/>
</a>
</g>
</g>
<!-- Node7 -->
<g id="Node000007" class="node">
<title>Node7</title>
<g id="a_Node000007"><a xlink:href="classhri_1_1_render_context.html#add095daf5c2e22f4250ac18c02fbbe50" target="_top" xlink:title="Recreate the swap chain, freeing old resources. NOTE: does not free any allocated swap images or view...">
<polygon fill="white" stroke="#666666" points="435.75,-76 331.25,-76 331.25,-44 435.75,-44 435.75,-76"/>
<text text-anchor="start" x="339.25" y="-62.5" font-family="Helvetica,sans-Serif" font-size="10.00">hri::RenderContext</text>
<text text-anchor="middle" x="383.5" y="-50.5" font-family="Helvetica,sans-Serif" font-size="10.00">::recreateSwapchain</text>
</a>
</g>
</g>
<!-- Node6&#45;&gt;Node7 -->
<g id="edge6_Node000006_Node000007" class="edge">
<title>Node6&#45;&gt;Node7</title>
<g id="a_edge6_Node000006_Node000007"><a xlink:title=" ">
<path fill="none" stroke="#63b8ff" d="M288.63,-60C298.92,-60 309.5,-60 319.69,-60"/>
<polygon fill="#63b8ff" stroke="#63b8ff" points="319.47,-63.5 329.47,-60 319.47,-56.5 319.47,-63.5"/>
</a>
</g>
</g>
</g>
</svg>
</svg>

<style type='text/css'>
<![CDATA[
[data-mouse-over-selected='false'] { opacity: 0.7; }
[data-mouse-over-selected='true']  { opacity: 1.0; }
]]>
</style>
<script type="application/ecmascript"><![CDATA[
document.addEventListener('DOMContentLoaded', (event) => {
  highlightEdges();
  highlightAdjacentNodes();
});
]]></script>
</svg>
