<?xml version="1.0" encoding="UTF-8" standalone="no"?>
<!DOCTYPE svg PUBLIC "-//W3C//DTD SVG 1.1//EN"
 "http://www.w3.org/Graphics/SVG/1.1/DTD/svg11.dtd">
<!-- Generated by graphviz version 10.0.1 (20240210.2158)
 -->
<!-- Title: hri::SwapchainPassResourceManager::SwapchainPassResourceManager Pages: 1 -->
<!--zoomable 115 -->

<svg id="main" version="1.1" xmlns="http://www.w3.org/2000/svg" xmlns:xlink="http://www.w3.org/1999/xlink" xml:space="preserve" onload="init(evt)">
<style type="text/css"><![CDATA[
.node, .edge {opacity: 0.7;}
.node.selected, .edge.selected {opacity: 1;}
.edge:hover path { stroke: red; }
.edge:hover polygon { stroke: red; fill: red; }
]]></style>

<defs>
  <circle id="rim" cx="0" cy="0" r="7"/>
  <circle id="rim2" cx="0" cy="0" r="3.5"/>
  <g id="zoomPlus">
    <use xlink:href="#rim" fill="#404040"><set attributeName="fill" to="#808080" begin="zoomplus.mouseover" end="zoomplus.mouseout"/></use>
    <path d="M-4,0h8M0,-4v8" fill="none" stroke="white" stroke-width="1.5" pointer-events="none"/>
  </g>
  <g id="zoomMin">
    <use xlink:href="#rim" fill="#404040"><set attributeName="fill" to="#808080" begin="zoomminus.mouseover" end="zoomminus.mouseout"/></use>
    <path d="M-4,0h8" fill="none" stroke="white" stroke-width="1.5" pointer-events="none"/>
  </g>
  <g id="arrowUp" transform="translate(30 24)">
    <use xlink:href="#rim"/>
    <path pointer-events="none" fill="none" stroke="white" stroke-width="1.5" d="M0,-3.0v7 M-2.5,-0.5L0,-3.0L2.5,-0.5"/>
  </g>
  <g id="arrowRight" transform="rotate(90) translate(36 -43)">
    <use xlink:href="#rim"/>
    <path pointer-events="none" fill="none" stroke="white" stroke-width="1.5" d="M0,-3.0v7 M-2.5,-0.5L0,-3.0L2.5,-0.5"/>
  </g>
  <g id="arrowDown" transform="rotate(180) translate(-30 -48)">
    <use xlink:href="#rim"/>
    <path pointer-events="none" fill="none" stroke="white" stroke-width="1.5" d="M0,-3.0v7 M-2.5,-0.5L0,-3.0L2.5,-0.5"/>
  </g>
  <g id="arrowLeft" transform="rotate(270) translate(-36 17)">
    <use xlink:href="#rim"/>
    <path pointer-events="none" fill="none" stroke="white" stroke-width="1.5" d="M0,-3.0v7 M-2.5,-0.5L0,-3.0L2.5,-0.5"/>
  </g>
  <g id="resetDef">
    <use xlink:href="#rim2" fill="#404040"><set attributeName="fill" to="#808080" begin="reset.mouseover" end="reset.mouseout"/></use>
  </g>
</defs>
<script type="application/ecmascript">
var viewWidth = 774;
var viewHeight = 115;
var sectionId = 'dynsection-2';
</script>
<script type="application/ecmascript" xlink:href="svg.min.js"/>
<svg id="graph" class="graph">
<g id="viewport">
<title>hri::SwapchainPassResourceManager::SwapchainPassResourceManager</title>
<!-- Node1 -->
<g id="Node000001" class="node">
<title>Node1</title>
<g id="a_Node000001"><a xlink:title="Create a new Swapchain resource manager.">
<polygon fill="#999999" stroke="#666666" points="170.5,-63 0,-63 0,-19 170.5,-19 170.5,-63"/>
<text text-anchor="start" x="8" y="-49.5" font-family="Helvetica,sans-Serif" font-size="10.00">hri::SwapchainPassResource</text>
<text text-anchor="start" x="8" y="-37.5" font-family="Helvetica,sans-Serif" font-size="10.00">Manager::SwapchainPassResource</text>
<text text-anchor="middle" x="85.25" y="-25.5" font-family="Helvetica,sans-Serif" font-size="10.00">Manager</text>
</a>
</g>
</g>
<!-- Node2 -->
<g id="Node000002" class="node">
<title>Node2</title>
<g id="a_Node000002"><a xlink:href="classhri_1_1_swapchain_pass_resource_manager.html#a47e6b8357bfa6232737e69cb478ef45e" target="_top" xlink:title="Create resources.">
<polygon fill="white" stroke="#666666" points="350,-57 206.5,-57 206.5,-25 350,-25 350,-57"/>
<text text-anchor="start" x="214.5" y="-43.5" font-family="Helvetica,sans-Serif" font-size="10.00">hri::SwapchainPassResource</text>
<text text-anchor="middle" x="278.25" y="-31.5" font-family="Helvetica,sans-Serif" font-size="10.00">Manager::createResources</text>
</a>
</g>
</g>
<!-- Node1&#45;&gt;Node2 -->
<g id="edge1_Node000001_Node000002" class="edge">
<title>Node1&#45;&gt;Node2</title>
<g id="a_edge1_Node000001_Node000002"><a xlink:title=" ">
<path fill="none" stroke="#63b8ff" d="M170.86,-41C178.77,-41 186.78,-41 194.67,-41"/>
<polygon fill="#63b8ff" stroke="#63b8ff" points="194.61,-44.5 204.61,-41 194.61,-37.5 194.61,-44.5"/>
</a>
</g>
</g>
<!-- Node3 -->
<g id="Node000003" class="node">
<title>Node3</title>
<g id="a_Node000003"><a xlink:href="classhri_1_1_i_render_pass_resource_manager_base.html#a4391328fd9a0316ede758d338bee9fea" target="_top" xlink:title="Create resources.">
<polygon fill="white" stroke="#666666" points="558.38,-82 402.88,-82 402.88,-50 558.38,-50 558.38,-82"/>
<text text-anchor="start" x="410.88" y="-68.5" font-family="Helvetica,sans-Serif" font-size="10.00">hri::IRenderPassResource</text>
<text text-anchor="middle" x="480.62" y="-56.5" font-family="Helvetica,sans-Serif" font-size="10.00">ManagerBase::createResources</text>
</a>
</g>
</g>
<!-- Node2&#45;&gt;Node3 -->
<g id="edge2_Node000002_Node000003" class="edge">
<title>Node2&#45;&gt;Node3</title>
<g id="a_edge2_Node000002_Node000003"><a xlink:title=" ">
<path fill="none" stroke="#63b8ff" d="M350.46,-49.88C363.64,-51.53 377.56,-53.27 391.18,-54.96"/>
<polygon fill="#63b8ff" stroke="#63b8ff" points="390.67,-58.43 401.02,-56.19 391.53,-51.48 390.67,-58.43"/>
</a>
</g>
</g>
<!-- Node6 -->
<g id="Node000006" class="node">
<title>Node6</title>
<g id="a_Node000006"><a xlink:href="classhri_1_1_i_render_pass_resource_manager_base.html#a504eb862015a956f74d5020f20a3cb00" target="_top" xlink:title="Get image resource views.">
<polygon fill="white" stroke="#666666" points="575.25,-32 386,-32 386,0 575.25,0 575.25,-32"/>
<text text-anchor="start" x="394" y="-18.5" font-family="Helvetica,sans-Serif" font-size="10.00">hri::IRenderPassResource</text>
<text text-anchor="middle" x="480.62" y="-6.5" font-family="Helvetica,sans-Serif" font-size="10.00">ManagerBase::getImageResourceViews</text>
</a>
</g>
</g>
<!-- Node2&#45;&gt;Node6 -->
<g id="edge5_Node000002_Node000006" class="edge">
<title>Node2&#45;&gt;Node6</title>
<g id="a_edge5_Node000002_Node000006"><a xlink:title=" ">
<path fill="none" stroke="#63b8ff" d="M350.46,-32.12C358.18,-31.15 366.15,-30.16 374.17,-29.16"/>
<polygon fill="#63b8ff" stroke="#63b8ff" points="374.53,-32.64 384.02,-27.93 373.66,-25.69 374.53,-32.64"/>
</a>
</g>
</g>
<!-- Node4 -->
<g id="Node000004" class="node">
<title>Node4</title>
<g id="a_Node000004"><a xlink:href="classhri_1_1_i_render_pass_resource_manager_base.html#aabea2269ebd554cf3d75885a4e4dec87" target="_top" xlink:title="Get the render extent configured for this resouce manager.">
<polygon fill="white" stroke="#666666" points="766,-107 611.25,-107 611.25,-75 766,-75 766,-107"/>
<text text-anchor="start" x="619.25" y="-93.5" font-family="Helvetica,sans-Serif" font-size="10.00">hri::IRenderPassResource</text>
<text text-anchor="middle" x="688.62" y="-81.5" font-family="Helvetica,sans-Serif" font-size="10.00">ManagerBase::getRenderExtent</text>
</a>
</g>
</g>
<!-- Node3&#45;&gt;Node4 -->
<g id="edge3_Node000003_Node000004" class="edge">
<title>Node3&#45;&gt;Node4</title>
<g id="a_edge3_Node000003_Node000004"><a xlink:title=" ">
<path fill="none" stroke="#63b8ff" d="M558.62,-75.34C572.02,-76.97 586.04,-78.67 599.69,-80.33"/>
<polygon fill="#63b8ff" stroke="#63b8ff" points="599.21,-83.8 609.56,-81.53 600.05,-76.85 599.21,-83.8"/>
</a>
</g>
</g>
<!-- Node5 -->
<g id="Node000005" class="node">
<title>Node5</title>
<g id="a_Node000005"><a xlink:href="structhri_1_1_image_resource.html#a1d2b3ef1a0d2542bfea8f385b08ae4be" target="_top" xlink:title="Initialize a new image resource.">
<polygon fill="white" stroke="#666666" points="738.62,-57 638.62,-57 638.62,-25 738.62,-25 738.62,-57"/>
<text text-anchor="start" x="646.62" y="-43.5" font-family="Helvetica,sans-Serif" font-size="10.00">hri::ImageResource</text>
<text text-anchor="middle" x="688.62" y="-31.5" font-family="Helvetica,sans-Serif" font-size="10.00">::init</text>
</a>
</g>
</g>
<!-- Node3&#45;&gt;Node5 -->
<g id="edge4_Node000003_Node000005" class="edge">
<title>Node3&#45;&gt;Node5</title>
<g id="a_edge4_Node000003_Node000005"><a xlink:title=" ">
<path fill="none" stroke="#63b8ff" d="M558.62,-56.66C581.2,-53.92 605.55,-50.96 626.95,-48.36"/>
<polygon fill="#63b8ff" stroke="#63b8ff" points="627.17,-51.86 636.67,-47.18 626.32,-44.91 627.17,-51.86"/>
</a>
</g>
</g>
</g>
</svg>

<g id="navigator" transform="translate(0 0)" fill="#404254">
  <rect fill="#f2f5e9" fill-opacity="0.5" stroke="#606060" stroke-width=".5" x="0" y="0" width="60" height="60"/>
  <use id="zoomplus" xlink:href="#zoomPlus" x="17" y="9" onmousedown="handleZoom(evt,'in')"/>
  <use id="zoomminus" xlink:href="#zoomMin" x="42" y="9" onmousedown="handleZoom(evt,'out')"/>
  <use id="reset" xlink:href="#resetDef" x="30" y="36" onmousedown="handleReset()"/>
   <use id="arrowup" xlink:href="#arrowUp" x="0" y="0" onmousedown="handlePan(0,-1)"/>
  <use id="arrowright" xlink:href="#arrowRight" x="0" y="0" onmousedown="handlePan(1,0)"/>
  <use id="arrowdown" xlink:href="#arrowDown" x="0" y="0" onmousedown="handlePan(0,1)"/>
  <use id="arrowleft" xlink:href="#arrowLeft" x="0" y="0" onmousedown="handlePan(-1,0)"/>
</g>
<svg viewBox="0 0 15 15" width="100%" height="30px" preserveAspectRatio="xMaxYMin meet">
 <g id="arrow_out" transform="scale(0.3 0.3)">
  <a xlink:href="classhri_1_1_swapchain_pass_resource_manager_a804e2ab1ac08e83f7f17f7ef6b26b839_cgraph_org.svg" target="_base">
   <rect id="button" ry="5" rx="5" y="6" x="6" height="38" width="38"
        fill="#f2f5e9" fill-opacity="0.5" stroke="#606060" stroke-width="1.0"/>
   <path id="arrow"
     d="M 11.500037,31.436501 C 11.940474,20.09759 22.043105,11.32322 32.158766,21.979434 L 37.068811,17.246167 C 37.068811,17.246167 37.088388,32 37.088388,32 L 22.160133,31.978069 C 22.160133,31.978069 26.997745,27.140456 26.997745,27.140456 C 18.528582,18.264221 13.291696,25.230495 11.500037,31.436501 z"
     style="fill:#404040;"/>
  </a>
 </g>
</svg>

<style type='text/css'>
<![CDATA[
[data-mouse-over-selected='false'] { opacity: 0.7; }
[data-mouse-over-selected='true']  { opacity: 1.0; }
]]>
</style>
<script type="application/ecmascript"><![CDATA[
document.addEventListener('DOMContentLoaded', (event) => {
  highlightEdges();
  highlightAdjacentNodes();
});
]]></script>
</svg>
