<?xml version="1.0" encoding="UTF-8" standalone="no"?>
<!DOCTYPE svg PUBLIC "-//W3C//DTD SVG 1.1//EN"
 "http://www.w3.org/Graphics/SVG/1.1/DTD/svg11.dtd">
<!-- Generated by graphviz version 10.0.1 (20240210.2158)
 -->
<!-- Title: hri::Camera::updateMatrices Pages: 1 -->
<svg width="350pt" height="28pt"
 viewBox="0.00 0.00 350.00 28.00" xmlns="http://www.w3.org/2000/svg" xmlns:xlink="http://www.w3.org/1999/xlink">
<g id="graph0" class="graph" transform="scale(1 1) rotate(0) translate(4 24)">
<title>hri::Camera::updateMatrices</title>
<!-- Node1 -->
<g id="Node000001" class="node">
<title>Node1</title>
<g id="a_Node000001"><a xlink:title="Update view &amp; project matrices using basis vectors.">
<polygon fill="#999999" stroke="#666666" points="139,-20 0,-20 0,0 139,0 139,-20"/>
<text text-anchor="middle" x="69.5" y="-6.5" font-family="Helvetica,sans-Serif" font-size="10.00">hri::Camera::updateMatrices</text>
</a>
</g>
</g>
<!-- Node2 -->
<g id="Node000002" class="node">
<title>Node2</title>
<g id="a_Node000002"><a xlink:href="namespacehri.html#acd3a7c0c786cee7eb37afe8bfb309464" target="_top" xlink:title=" ">
<polygon fill="white" stroke="#666666" points="239,-20 175,-20 175,0 239,0 239,-20"/>
<text text-anchor="middle" x="207" y="-6.5" font-family="Helvetica,sans-Serif" font-size="10.00">hri::radians</text>
</a>
</g>
</g>
<!-- Node1&#45;&gt;Node2 -->
<g id="edge1_Node000001_Node000002" class="edge">
<title>Node1&#45;&gt;Node2</title>
<g id="a_edge1_Node000001_Node000002"><a xlink:title=" ">
<path fill="none" stroke="#63b8ff" d="M139.44,-10C147.51,-10 155.55,-10 163.11,-10"/>
<polygon fill="#63b8ff" stroke="#63b8ff" points="163.02,-13.5 173.02,-10 163.02,-6.5 163.02,-13.5"/>
</a>
</g>
</g>
<!-- Node3 -->
<g id="Node000003" class="node">
<title>Node3</title>
<g id="a_Node000003"><a xlink:href="namespacehri.html#a778909c1320f31774fdf25dc126fcb9d" target="_top" xlink:title=" ">
<polygon fill="white" stroke="#666666" points="342,-20 275,-20 275,0 342,0 342,-20"/>
<text text-anchor="middle" x="308.5" y="-6.5" font-family="Helvetica,sans-Serif" font-size="10.00">hri::degrees</text>
</a>
</g>
</g>
<!-- Node2&#45;&gt;Node3 -->
<g id="edge2_Node000002_Node000003" class="edge">
<title>Node2&#45;&gt;Node3</title>
<g id="a_edge2_Node000002_Node000003"><a xlink:title=" ">
<path fill="none" stroke="#63b8ff" d="M239.48,-3.67C246.98,-3.31 255.12,-3.18 263.08,-3.28"/>
<polygon fill="#63b8ff" stroke="#63b8ff" points="262.9,-6.78 272.99,-3.56 263.09,0.22 262.9,-6.78"/>
</a>
</g>
</g>
<!-- Node3&#45;&gt;Node2 -->
<g id="edge3_Node000003_Node000002" class="edge">
<title>Node3&#45;&gt;Node2</title>
<g id="a_edge3_Node000003_Node000002"><a xlink:title=" ">
<path fill="none" stroke="#63b8ff" d="M274.51,-16.4C266.93,-16.73 258.76,-16.83 250.83,-16.69"/>
<polygon fill="#63b8ff" stroke="#63b8ff" points="251.1,-13.2 241,-16.38 250.88,-20.2 251.1,-13.2"/>
</a>
</g>
</g>
</g>
</svg>
