<?xml version="1.0" encoding="UTF-8" standalone="no"?>
<!DOCTYPE svg PUBLIC "-//W3C//DTD SVG 1.1//EN"
 "http://www.w3.org/Graphics/SVG/1.1/DTD/svg11.dtd">
<!-- Generated by graphviz version 10.0.1 (20240210.2158)
 -->
<!-- Title: raytracing::ShaderBindingTable::size Pages: 1 -->
<svg width="303pt" height="90pt"
 viewBox="0.00 0.00 303.25 90.00" xmlns="http://www.w3.org/2000/svg" xmlns:xlink="http://www.w3.org/1999/xlink">
<g id="graph0" class="graph" transform="scale(1 1) rotate(0) translate(4 86)">
<title>raytracing::ShaderBindingTable::size</title>
<!-- Node1 -->
<g id="Node000001" class="node">
<title>Node1</title>
<g id="a_Node000001"><a xlink:title="Get the size of an SBT Shader Group.">
<polygon fill="#999999" stroke="#666666" points="295.25,-57 167.5,-57 167.5,-25 295.25,-25 295.25,-57"/>
<text text-anchor="start" x="175.5" y="-43.5" font-family="Helvetica,sans-Serif" font-size="10.00">raytracing::ShaderBinding</text>
<text text-anchor="middle" x="231.38" y="-31.5" font-family="Helvetica,sans-Serif" font-size="10.00">Table::size</text>
</a>
</g>
</g>
<!-- Node2 -->
<g id="Node000002" class="node">
<title>Node2</title>
<g id="a_Node000002"><a xlink:href="classraytracing_1_1_shader_binding_table.html#af7218aaad09d256d7e171776f445e005" target="_top" xlink:title="Get an SBT region.">
<polygon fill="white" stroke="#666666" points="129.62,-82 1.88,-82 1.88,-50 129.62,-50 129.62,-82"/>
<text text-anchor="start" x="9.88" y="-68.5" font-family="Helvetica,sans-Serif" font-size="10.00">raytracing::ShaderBinding</text>
<text text-anchor="middle" x="65.75" y="-56.5" font-family="Helvetica,sans-Serif" font-size="10.00">Table::getRegion</text>
</a>
</g>
</g>
<!-- Node1&#45;&gt;Node2 -->
<g id="edge1_Node000001_Node000002" class="edge">
<title>Node1&#45;&gt;Node2</title>
<g id="a_edge1_Node000001_Node000002"><a xlink:title=" ">
<path fill="none" stroke="#63b8ff" d="M155.89,-52.38C147.28,-53.7 138.56,-55.03 130.11,-56.32"/>
<polygon fill="#63b8ff" stroke="#63b8ff" points="156.26,-55.86 165.62,-50.89 155.2,-48.94 156.26,-55.86"/>
</a>
</g>
</g>
<!-- Node3 -->
<g id="Node000003" class="node">
<title>Node3</title>
<g id="a_Node000003"><a xlink:href="classraytracing_1_1_shader_binding_table.html#ae8f9c78889c59caa2403276f3b3d5ed4" target="_top" xlink:title="Create a new SBT.">
<polygon fill="white" stroke="#666666" points="131.5,-32 0,-32 0,0 131.5,0 131.5,-32"/>
<text text-anchor="start" x="8" y="-18.5" font-family="Helvetica,sans-Serif" font-size="10.00">raytracing::ShaderBinding</text>
<text text-anchor="middle" x="65.75" y="-6.5" font-family="Helvetica,sans-Serif" font-size="10.00">Table::ShaderBindingTable</text>
</a>
</g>
</g>
<!-- Node1&#45;&gt;Node3 -->
<g id="edge2_Node000001_Node000003" class="edge">
<title>Node1&#45;&gt;Node3</title>
<g id="a_edge2_Node000001_Node000003"><a xlink:title=" ">
<path fill="none" stroke="#63b8ff" d="M155.84,-29.61C147.79,-28.38 139.65,-27.14 131.74,-25.93"/>
<polygon fill="#63b8ff" stroke="#63b8ff" points="155.2,-33.06 165.62,-31.11 156.26,-26.14 155.2,-33.06"/>
</a>
</g>
</g>
</g>
</svg>
