<?xml version="1.0" encoding="UTF-8" standalone="no"?>
<!DOCTYPE svg PUBLIC "-//W3C//DTD SVG 1.1//EN"
 "http://www.w3.org/Graphics/SVG/1.1/DTD/svg11.dtd">
<!-- Generated by graphviz version 10.0.1 (20240210.2158)
 -->
<!-- Title: hri::RenderPassResourceManager Pages: 1 -->
<svg width="257pt" height="1485pt"
 viewBox="0.00 0.00 257.00 1485.00" xmlns="http://www.w3.org/2000/svg" xmlns:xlink="http://www.w3.org/1999/xlink">
<g id="graph0" class="graph" transform="scale(1 1) rotate(0) translate(4 1481)">
<title>hri::RenderPassResourceManager</title>
<!-- Node1 -->
<g id="Node000001" class="node">
<title>Node1</title>
<g id="a_Node000001"><a xlink:title="The Render Pass Resource manager handles drawing to a framebuffer constructed using the interface&#39;s c...">
<polygon fill="#999999" stroke="none" points="249,-212 0,-212 0,0 249,0 249,-212"/>
<text text-anchor="start" x="50.25" y="-198.5" font-family="Helvetica,sans-Serif" font-size="10.00">hri::RenderPassResourceManager</text>
<text text-anchor="start" x="123" y="-182.5" font-family="Helvetica,sans-Serif" font-size="10.00"> </text>
<text text-anchor="start" x="4" y="-166.5" font-family="Helvetica,sans-Serif" font-size="10.00">+</text>
<text text-anchor="start" x="14" y="-166.5" font-family="Helvetica,sans-Serif" font-size="10.00">RenderPassResourceManager</text>
<text text-anchor="start" x="14" y="-154.5" font-family="Helvetica,sans-Serif" font-size="10.00">(RenderContext *ctx, VkRenderPass</text>
<text text-anchor="start" x="14" y="-142.5" font-family="Helvetica,sans-Serif" font-size="10.00"> renderPass, const std::vector</text>
<text text-anchor="start" x="14" y="-130.5" font-family="Helvetica,sans-Serif" font-size="10.00">&lt; RenderAttachmentConfig &gt; &amp;attachmentConfigs={})</text>
<text text-anchor="start" x="4" y="-114.5" font-family="Helvetica,sans-Serif" font-size="10.00">+</text>
<text text-anchor="start" x="14" y="-114.5" font-family="Helvetica,sans-Serif" font-size="10.00">virtual ~RenderPassResource</text>
<text text-anchor="start" x="14" y="-102.5" font-family="Helvetica,sans-Serif" font-size="10.00">Manager()</text>
<text text-anchor="start" x="4" y="-86.5" font-family="Helvetica,sans-Serif" font-size="10.00">+</text>
<text text-anchor="start" x="14" y="-86.5" font-family="Helvetica,sans-Serif" font-size="10.00">virtual void beginRender</text>
<text text-anchor="start" x="14" y="-74.5" font-family="Helvetica,sans-Serif" font-size="10.00">Pass(ActiveFrame &amp;frame)</text>
<text text-anchor="start" x="14" y="-62.5" font-family="Helvetica,sans-Serif" font-size="10.00"> const override</text>
<text text-anchor="start" x="4.38" y="-46.5" font-family="Helvetica,sans-Serif" font-size="10.00">#</text>
<text text-anchor="start" x="14" y="-46.5" font-family="Helvetica,sans-Serif" font-size="10.00">virtual void createResources</text>
<text text-anchor="start" x="14" y="-34.5" font-family="Helvetica,sans-Serif" font-size="10.00">() override</text>
<text text-anchor="start" x="4.38" y="-18.5" font-family="Helvetica,sans-Serif" font-size="10.00">#</text>
<text text-anchor="start" x="14" y="-18.5" font-family="Helvetica,sans-Serif" font-size="10.00">virtual void destroyResources</text>
<text text-anchor="start" x="14" y="-6.5" font-family="Helvetica,sans-Serif" font-size="10.00">() override</text>
<polygon fill="#666666" stroke="#666666" points="0,-194 0,-194 249,-194 249,-194 0,-194"/>
<polygon fill="#666666" stroke="#666666" points="0,-178 0,-178 249,-178 249,-178 0,-178"/>
<polygon fill="none" stroke="#666666" points="0,0 0,-212 249,-212 249,0 0,0"/>
</a>
</g>
</g>
<!-- Node2 -->
<g id="Node000002" class="node">
<title>Node2</title>
<g id="a_Node000002"><a xlink:href="classhri_1_1_i_render_pass_resource_manager_base.html" target="_top" xlink:title="The Render Pass Resource Manager Base is used to create and recreate render pass resources....">
<polygon fill="white" stroke="none" points="221.5,-861 27.5,-861 27.5,-249 221.5,-249 221.5,-861"/>
<text text-anchor="start" x="67.88" y="-847.5" font-family="Helvetica,sans-Serif" font-size="10.00">hri::IRenderPassResource</text>
<text text-anchor="start" x="94.5" y="-835.5" font-family="Helvetica,sans-Serif" font-size="10.00">ManagerBase</text>
<text text-anchor="start" x="31.88" y="-819.5" font-family="Helvetica,sans-Serif" font-size="10.00">#</text>
<text text-anchor="start" x="41.5" y="-819.5" font-family="Helvetica,sans-Serif" font-size="10.00">VkRenderPass m_renderPass</text>
<text text-anchor="start" x="31.88" y="-803.5" font-family="Helvetica,sans-Serif" font-size="10.00">#</text>
<text text-anchor="start" x="41.5" y="-803.5" font-family="Helvetica,sans-Serif" font-size="10.00">VkExtent2D m_renderExtent</text>
<text text-anchor="start" x="31.88" y="-787.5" font-family="Helvetica,sans-Serif" font-size="10.00">#</text>
<text text-anchor="start" x="41.5" y="-787.5" font-family="Helvetica,sans-Serif" font-size="10.00">std::vector&lt; VkClearValue</text>
<text text-anchor="start" x="41.5" y="-775.5" font-family="Helvetica,sans-Serif" font-size="10.00"> &gt; m_clearValues</text>
<text text-anchor="start" x="31.88" y="-759.5" font-family="Helvetica,sans-Serif" font-size="10.00">#</text>
<text text-anchor="start" x="41.5" y="-759.5" font-family="Helvetica,sans-Serif" font-size="10.00">std::vector&lt; RenderAttachment</text>
<text text-anchor="start" x="41.5" y="-747.5" font-family="Helvetica,sans-Serif" font-size="10.00">Config &gt; m_attachmentConfigs</text>
<text text-anchor="start" x="31.88" y="-731.5" font-family="Helvetica,sans-Serif" font-size="10.00">#</text>
<text text-anchor="start" x="41.5" y="-731.5" font-family="Helvetica,sans-Serif" font-size="10.00">std::vector&lt; ImageResource</text>
<text text-anchor="start" x="41.5" y="-719.5" font-family="Helvetica,sans-Serif" font-size="10.00"> &gt; m_imageResources</text>
<text text-anchor="start" x="31.5" y="-703.5" font-family="Helvetica,sans-Serif" font-size="10.00">+</text>
<text text-anchor="start" x="41.5" y="-703.5" font-family="Helvetica,sans-Serif" font-size="10.00">IRenderPassResourceManager</text>
<text text-anchor="start" x="41.5" y="-691.5" font-family="Helvetica,sans-Serif" font-size="10.00">Base(RenderContext *ctx,</text>
<text text-anchor="start" x="41.5" y="-679.5" font-family="Helvetica,sans-Serif" font-size="10.00"> VkRenderPass renderPass,</text>
<text text-anchor="start" x="41.5" y="-667.5" font-family="Helvetica,sans-Serif" font-size="10.00"> const std::vector&lt; RenderAttachment</text>
<text text-anchor="start" x="41.5" y="-655.5" font-family="Helvetica,sans-Serif" font-size="10.00">Config &gt; &amp;attachmentConfigs)</text>
<text text-anchor="start" x="31.5" y="-639.5" font-family="Helvetica,sans-Serif" font-size="10.00">+</text>
<text text-anchor="start" x="41.5" y="-639.5" font-family="Helvetica,sans-Serif" font-size="10.00">virtual ~IRenderPassResource</text>
<text text-anchor="start" x="41.5" y="-627.5" font-family="Helvetica,sans-Serif" font-size="10.00">ManagerBase()</text>
<text text-anchor="start" x="31.5" y="-611.5" font-family="Helvetica,sans-Serif" font-size="10.00">+</text>
<text text-anchor="start" x="41.5" y="-611.5" font-family="Helvetica,sans-Serif" font-size="10.00">IRenderPassResourceManager</text>
<text text-anchor="start" x="41.5" y="-599.5" font-family="Helvetica,sans-Serif" font-size="10.00">Base(IRenderPassResourceManager</text>
<text text-anchor="start" x="41.5" y="-587.5" font-family="Helvetica,sans-Serif" font-size="10.00">Base &amp;)=delete</text>
<text text-anchor="start" x="31.5" y="-571.5" font-family="Helvetica,sans-Serif" font-size="10.00">+</text>
<text text-anchor="start" x="41.5" y="-571.5" font-family="Helvetica,sans-Serif" font-size="10.00">IRenderPassResourceManager</text>
<text text-anchor="start" x="41.5" y="-559.5" font-family="Helvetica,sans-Serif" font-size="10.00">Base &amp; operator=(IRenderPassResource</text>
<text text-anchor="start" x="41.5" y="-547.5" font-family="Helvetica,sans-Serif" font-size="10.00">ManagerBase &amp;)=delete</text>
<text text-anchor="start" x="31.5" y="-531.5" font-family="Helvetica,sans-Serif" font-size="10.00">+</text>
<text text-anchor="start" x="41.5" y="-531.5" font-family="Helvetica,sans-Serif" font-size="10.00">virtual void beginRender</text>
<text text-anchor="start" x="41.5" y="-519.5" font-family="Helvetica,sans-Serif" font-size="10.00">Pass(ActiveFrame &amp;frame)</text>
<text text-anchor="start" x="41.5" y="-507.5" font-family="Helvetica,sans-Serif" font-size="10.00"> const =0</text>
<text text-anchor="start" x="31.5" y="-491.5" font-family="Helvetica,sans-Serif" font-size="10.00">+</text>
<text text-anchor="start" x="41.5" y="-491.5" font-family="Helvetica,sans-Serif" font-size="10.00">virtual void endRenderPass</text>
<text text-anchor="start" x="41.5" y="-479.5" font-family="Helvetica,sans-Serif" font-size="10.00">(ActiveFrame &amp;frame) const</text>
<text text-anchor="start" x="31.5" y="-463.5" font-family="Helvetica,sans-Serif" font-size="10.00">+</text>
<text text-anchor="start" x="41.5" y="-463.5" font-family="Helvetica,sans-Serif" font-size="10.00">virtual void setClearValue</text>
<text text-anchor="start" x="41.5" y="-451.5" font-family="Helvetica,sans-Serif" font-size="10.00">(uint32_t attachmentIndex,</text>
<text text-anchor="start" x="41.5" y="-439.5" font-family="Helvetica,sans-Serif" font-size="10.00"> VkClearValue clearValue)</text>
<text text-anchor="start" x="31.5" y="-423.5" font-family="Helvetica,sans-Serif" font-size="10.00">+</text>
<text text-anchor="start" x="41.5" y="-423.5" font-family="Helvetica,sans-Serif" font-size="10.00">virtual VkRenderPass</text>
<text text-anchor="start" x="41.5" y="-411.5" font-family="Helvetica,sans-Serif" font-size="10.00"> renderPass() const</text>
<text text-anchor="start" x="31.5" y="-395.5" font-family="Helvetica,sans-Serif" font-size="10.00">+</text>
<text text-anchor="start" x="41.5" y="-395.5" font-family="Helvetica,sans-Serif" font-size="10.00">virtual ImageResource</text>
<text text-anchor="start" x="41.5" y="-383.5" font-family="Helvetica,sans-Serif" font-size="10.00"> getAttachmentResource</text>
<text text-anchor="start" x="41.5" y="-371.5" font-family="Helvetica,sans-Serif" font-size="10.00">(uint32_t attachmentIndex) const</text>
<text text-anchor="start" x="31.5" y="-355.5" font-family="Helvetica,sans-Serif" font-size="10.00">+</text>
<text text-anchor="start" x="41.5" y="-355.5" font-family="Helvetica,sans-Serif" font-size="10.00">virtual void recreateResources()</text>
<text text-anchor="start" x="31.88" y="-339.5" font-family="Helvetica,sans-Serif" font-size="10.00">#</text>
<text text-anchor="start" x="41.5" y="-339.5" font-family="Helvetica,sans-Serif" font-size="10.00">virtual void createResources()</text>
<text text-anchor="start" x="31.88" y="-323.5" font-family="Helvetica,sans-Serif" font-size="10.00">#</text>
<text text-anchor="start" x="41.5" y="-323.5" font-family="Helvetica,sans-Serif" font-size="10.00">virtual void destroyResources()</text>
<text text-anchor="start" x="31.88" y="-307.5" font-family="Helvetica,sans-Serif" font-size="10.00">#</text>
<text text-anchor="start" x="41.5" y="-307.5" font-family="Helvetica,sans-Serif" font-size="10.00">virtual std::vector</text>
<text text-anchor="start" x="41.5" y="-295.5" font-family="Helvetica,sans-Serif" font-size="10.00">&lt; VkImageView &gt; getImageResource</text>
<text text-anchor="start" x="41.5" y="-283.5" font-family="Helvetica,sans-Serif" font-size="10.00">Views()</text>
<text text-anchor="start" x="31.88" y="-267.5" font-family="Helvetica,sans-Serif" font-size="10.00">#</text>
<text text-anchor="start" x="41.5" y="-267.5" font-family="Helvetica,sans-Serif" font-size="10.00">virtual VkExtent2D</text>
<text text-anchor="start" x="41.5" y="-255.5" font-family="Helvetica,sans-Serif" font-size="10.00"> getRenderExtent() const</text>
<polygon fill="#666666" stroke="#666666" points="27.5,-831 27.5,-831 221.5,-831 221.5,-831 27.5,-831"/>
<polygon fill="#666666" stroke="#666666" points="27.5,-715 27.5,-715 39.5,-715 39.5,-715 27.5,-715"/>
<polygon fill="#666666" stroke="#666666" points="39.5,-715 39.5,-715 221.5,-715 221.5,-715 39.5,-715"/>
<polygon fill="none" stroke="#666666" points="27.5,-249 27.5,-861 221.5,-861 221.5,-249 27.5,-249"/>
</a>
</g>
</g>
<!-- Node2&#45;&gt;Node1 -->
<g id="edge1_Node000001_Node000002" class="edge">
<title>Node2&#45;&gt;Node1</title>
<g id="a_edge1_Node000001_Node000002"><a xlink:title=" ">
<path fill="none" stroke="#63b8ff" d="M124.5,-237.64C124.5,-228.73 124.5,-220.07 124.5,-211.71"/>
<polygon fill="none" stroke="#63b8ff" points="121,-237.53 124.5,-247.53 128,-237.53 121,-237.53"/>
</a>
</g>
</g>
<!-- Node3 -->
<g id="Node000003" class="node">
<title>Node3</title>
<g id="a_Node000003"><a xlink:href="classhri_1_1_render_context.html" target="_top" xlink:title="THe RenderContext manages the Vulkan instance, device, and swapchain state.">
<polygon fill="white" stroke="none" points="204.5,-1209 44.5,-1209 44.5,-909 204.5,-909 204.5,-1209"/>
<text text-anchor="start" x="84" y="-1195.5" font-family="Helvetica,sans-Serif" font-size="10.00">hri::RenderContext</text>
<text text-anchor="start" x="48.5" y="-1179.5" font-family="Helvetica,sans-Serif" font-size="10.00">+</text>
<text text-anchor="start" x="58.5" y="-1179.5" font-family="Helvetica,sans-Serif" font-size="10.00">vkb::Instance instance</text>
<text text-anchor="start" x="48.5" y="-1163.5" font-family="Helvetica,sans-Serif" font-size="10.00">+</text>
<text text-anchor="start" x="58.5" y="-1163.5" font-family="Helvetica,sans-Serif" font-size="10.00">VkSurfaceKHR surface</text>
<text text-anchor="start" x="48.5" y="-1147.5" font-family="Helvetica,sans-Serif" font-size="10.00">+</text>
<text text-anchor="start" x="58.5" y="-1147.5" font-family="Helvetica,sans-Serif" font-size="10.00">vkb::PhysicalDevice gpu</text>
<text text-anchor="start" x="48.5" y="-1131.5" font-family="Helvetica,sans-Serif" font-size="10.00">+</text>
<text text-anchor="start" x="58.5" y="-1131.5" font-family="Helvetica,sans-Serif" font-size="10.00">vkb::Device device</text>
<text text-anchor="start" x="48.5" y="-1115.5" font-family="Helvetica,sans-Serif" font-size="10.00">+</text>
<text text-anchor="start" x="58.5" y="-1115.5" font-family="Helvetica,sans-Serif" font-size="10.00">VmaAllocator allocator</text>
<text text-anchor="start" x="48.5" y="-1099.5" font-family="Helvetica,sans-Serif" font-size="10.00">+</text>
<text text-anchor="start" x="58.5" y="-1099.5" font-family="Helvetica,sans-Serif" font-size="10.00">vkb::Swapchain swapchain</text>
<text text-anchor="start" x="48.5" y="-1083.5" font-family="Helvetica,sans-Serif" font-size="10.00">+</text>
<text text-anchor="start" x="58.5" y="-1083.5" font-family="Helvetica,sans-Serif" font-size="10.00">RenderContext(RenderContext</text>
<text text-anchor="start" x="58.5" y="-1071.5" font-family="Helvetica,sans-Serif" font-size="10.00">CreateInfo createInfo)</text>
<text text-anchor="start" x="48.5" y="-1055.5" font-family="Helvetica,sans-Serif" font-size="10.00">+</text>
<text text-anchor="start" x="58.5" y="-1055.5" font-family="Helvetica,sans-Serif" font-size="10.00">virtual ~RenderContext()</text>
<text text-anchor="start" x="48.5" y="-1039.5" font-family="Helvetica,sans-Serif" font-size="10.00">+</text>
<text text-anchor="start" x="58.5" y="-1039.5" font-family="Helvetica,sans-Serif" font-size="10.00">RenderContext(const</text>
<text text-anchor="start" x="58.5" y="-1027.5" font-family="Helvetica,sans-Serif" font-size="10.00"> RenderContext &amp;)=delete</text>
<text text-anchor="start" x="48.5" y="-1011.5" font-family="Helvetica,sans-Serif" font-size="10.00">+</text>
<text text-anchor="start" x="58.5" y="-1011.5" font-family="Helvetica,sans-Serif" font-size="10.00">RenderContext &amp; operator</text>
<text text-anchor="start" x="58.5" y="-999.5" font-family="Helvetica,sans-Serif" font-size="10.00">=(const RenderContext &amp;)</text>
<text text-anchor="start" x="58.5" y="-987.5" font-family="Helvetica,sans-Serif" font-size="10.00">=delete</text>
<text text-anchor="start" x="48.5" y="-971.5" font-family="Helvetica,sans-Serif" font-size="10.00">+</text>
<text text-anchor="start" x="58.5" y="-971.5" font-family="Helvetica,sans-Serif" font-size="10.00">void setVSyncMode(VSyncMode</text>
<text text-anchor="start" x="58.5" y="-959.5" font-family="Helvetica,sans-Serif" font-size="10.00"> vsyncMode)</text>
<text text-anchor="start" x="48.5" y="-943.5" font-family="Helvetica,sans-Serif" font-size="10.00">+</text>
<text text-anchor="start" x="58.5" y="-943.5" font-family="Helvetica,sans-Serif" font-size="10.00">void recreateSwapchain()</text>
<text text-anchor="start" x="48.5" y="-927.5" font-family="Helvetica,sans-Serif" font-size="10.00">+</text>
<text text-anchor="start" x="58.5" y="-927.5" font-family="Helvetica,sans-Serif" font-size="10.00">VkFormat swapFormat</text>
<text text-anchor="start" x="58.5" y="-915.5" font-family="Helvetica,sans-Serif" font-size="10.00">() const</text>
<polygon fill="#666666" stroke="#666666" points="44.5,-1191 44.5,-1191 204.5,-1191 204.5,-1191 44.5,-1191"/>
<polygon fill="#666666" stroke="#666666" points="44.5,-1095 44.5,-1095 56.5,-1095 56.5,-1095 44.5,-1095"/>
<polygon fill="#666666" stroke="#666666" points="56.5,-1095 56.5,-1095 204.5,-1095 204.5,-1095 56.5,-1095"/>
<polygon fill="none" stroke="#666666" points="44.5,-909 44.5,-1209 204.5,-1209 204.5,-909 44.5,-909"/>
</a>
</g>
</g>
<!-- Node3&#45;&gt;Node2 -->
<g id="edge2_Node000002_Node000003" class="edge">
<title>Node3&#45;&gt;Node2</title>
<g id="a_edge2_Node000002_Node000003"><a xlink:title=" ">
<path fill="none" stroke="#63b8ff" d="M124.5,-909.08C124.5,-897.5 124.5,-885.56 124.5,-873.4"/>
<polygon fill="none" stroke="#63b8ff" points="124.5,-873.56 120.5,-867.56 124.5,-861.56 128.5,-867.56 124.5,-873.56"/>
</a>
</g>
<text text-anchor="middle" x="145.5" y="-881.5" font-family="Helvetica,sans-Serif" font-size="10.00" fill="grey"> #m_pCtx</text>
</g>
<!-- Node4 -->
<g id="Node000004" class="node">
<title>Node4</title>
<g id="a_Node000004"><a xlink:href="classhri_1_1_render_context_queue_state.html" target="_top" xlink:title="The context queue state creates and maintains the device queue setup.">
<polygon fill="white" stroke="none" points="195.5,-1349 53.5,-1349 53.5,-1257 195.5,-1257 195.5,-1349"/>
<text text-anchor="start" x="58.12" y="-1335.5" font-family="Helvetica,sans-Serif" font-size="10.00">hri::RenderContextQueueState</text>
<text text-anchor="start" x="123" y="-1319.5" font-family="Helvetica,sans-Serif" font-size="10.00"> </text>
<text text-anchor="start" x="59.5" y="-1303.5" font-family="Helvetica,sans-Serif" font-size="10.00">+</text>
<text text-anchor="start" x="71.5" y="-1303.5" font-family="Helvetica,sans-Serif" font-size="10.00">RenderContextQueueState</text>
<text text-anchor="start" x="71.5" y="-1291.5" font-family="Helvetica,sans-Serif" font-size="10.00">()=default</text>
<text text-anchor="start" x="59.5" y="-1275.5" font-family="Helvetica,sans-Serif" font-size="10.00">+</text>
<text text-anchor="start" x="71.5" y="-1275.5" font-family="Helvetica,sans-Serif" font-size="10.00">RenderContextQueueState</text>
<text text-anchor="start" x="71.5" y="-1263.5" font-family="Helvetica,sans-Serif" font-size="10.00">(vkb::Device device)</text>
<polygon fill="#666666" stroke="#666666" points="53.5,-1331 53.5,-1331 195.5,-1331 195.5,-1331 53.5,-1331"/>
<polygon fill="#666666" stroke="#666666" points="53.5,-1315 53.5,-1315 195.5,-1315 195.5,-1315 53.5,-1315"/>
<polygon fill="none" stroke="#666666" points="53.5,-1257 53.5,-1349 195.5,-1349 195.5,-1257 53.5,-1257"/>
</a>
</g>
</g>
<!-- Node4&#45;&gt;Node3 -->
<g id="edge3_Node000003_Node000004" class="edge">
<title>Node4&#45;&gt;Node3</title>
<g id="a_edge3_Node000003_Node000004"><a xlink:title=" ">
<path fill="none" stroke="#63b8ff" d="M124.5,-1257.05C124.5,-1246.39 124.5,-1234.4 124.5,-1221.74"/>
<polygon fill="none" stroke="#63b8ff" points="124.5,-1221.78 120.5,-1215.78 124.5,-1209.78 128.5,-1215.78 124.5,-1221.78"/>
</a>
</g>
<text text-anchor="middle" x="144.75" y="-1229.5" font-family="Helvetica,sans-Serif" font-size="10.00" fill="grey"> +queues</text>
</g>
<!-- Node5 -->
<g id="Node000005" class="node">
<title>Node5</title>
<g id="a_Node000005"><a xlink:href="structhri_1_1_device_queue.html" target="_top" xlink:title="A Device Queue is a queue on the logical device to which operations can be submitted.">
<polygon fill="white" stroke="none" points="169.5,-1477 79.5,-1477 79.5,-1409 169.5,-1409 169.5,-1477"/>
<text text-anchor="start" x="87.75" y="-1463.5" font-family="Helvetica,sans-Serif" font-size="10.00">hri::DeviceQueue</text>
<text text-anchor="start" x="83.5" y="-1447.5" font-family="Helvetica,sans-Serif" font-size="10.00">+</text>
<text text-anchor="start" x="93.5" y="-1447.5" font-family="Helvetica,sans-Serif" font-size="10.00">uint32_t family</text>
<text text-anchor="start" x="83.5" y="-1431.5" font-family="Helvetica,sans-Serif" font-size="10.00">+</text>
<text text-anchor="start" x="93.5" y="-1431.5" font-family="Helvetica,sans-Serif" font-size="10.00">VkQueue handle</text>
<text text-anchor="start" x="123" y="-1415.5" font-family="Helvetica,sans-Serif" font-size="10.00"> </text>
<polygon fill="#666666" stroke="#666666" points="79.5,-1459 79.5,-1459 169.5,-1459 169.5,-1459 79.5,-1459"/>
<polygon fill="#666666" stroke="#666666" points="79.5,-1427 79.5,-1427 91.5,-1427 91.5,-1427 79.5,-1427"/>
<polygon fill="#666666" stroke="#666666" points="91.5,-1427 91.5,-1427 169.5,-1427 169.5,-1427 91.5,-1427"/>
<polygon fill="none" stroke="#666666" points="79.5,-1409 79.5,-1477 169.5,-1477 169.5,-1409 79.5,-1409"/>
</a>
</g>
</g>
<!-- Node5&#45;&gt;Node4 -->
<g id="edge4_Node000004_Node000005" class="edge">
<title>Node5&#45;&gt;Node4</title>
<g id="a_edge4_Node000004_Node000005"><a xlink:title=" ">
<path fill="none" stroke="#63b8ff" d="M124.5,-1409.3C124.5,-1395.08 124.5,-1378 124.5,-1361.76"/>
<polygon fill="none" stroke="#63b8ff" points="124.5,-1361.9 120.5,-1355.9 124.5,-1349.9 128.5,-1355.9 124.5,-1361.9"/>
</a>
</g>
<text text-anchor="middle" x="161.62" y="-1381.5" font-family="Helvetica,sans-Serif" font-size="10.00" fill="grey"> +graphicsQueue</text>
<text text-anchor="middle" x="161.62" y="-1369.5" font-family="Helvetica,sans-Serif" font-size="10.00" fill="grey">+presentQueue</text>
</g>
</g>
</svg>
