<?xml version="1.0" encoding="UTF-8" standalone="no"?>
<!DOCTYPE svg PUBLIC "-//W3C//DTD SVG 1.1//EN"
 "http://www.w3.org/Graphics/SVG/1.1/DTD/svg11.dtd">
<!-- Generated by graphviz version 10.0.1 (20240210.2158)
 -->
<!-- Title: hri::IRenderPassResourceManagerBase Pages: 1 -->
<!--zoomable 1384 -->

<svg id="main" version="1.1" xmlns="http://www.w3.org/2000/svg" xmlns:xlink="http://www.w3.org/1999/xlink" xml:space="preserve" onload="init(evt)">
<style type="text/css"><![CDATA[
.node, .edge {opacity: 0.7;}
.node.selected, .edge.selected {opacity: 1;}
.edge:hover path { stroke: red; }
.edge:hover polygon { stroke: red; fill: red; }
]]></style>

<defs>
  <circle id="rim" cx="0" cy="0" r="7"/>
  <circle id="rim2" cx="0" cy="0" r="3.5"/>
  <g id="zoomPlus">
    <use xlink:href="#rim" fill="#404040"><set attributeName="fill" to="#808080" begin="zoomplus.mouseover" end="zoomplus.mouseout"/></use>
    <path d="M-4,0h8M0,-4v8" fill="none" stroke="white" stroke-width="1.5" pointer-events="none"/>
  </g>
  <g id="zoomMin">
    <use xlink:href="#rim" fill="#404040"><set attributeName="fill" to="#808080" begin="zoomminus.mouseover" end="zoomminus.mouseout"/></use>
    <path d="M-4,0h8" fill="none" stroke="white" stroke-width="1.5" pointer-events="none"/>
  </g>
  <g id="arrowUp" transform="translate(30 24)">
    <use xlink:href="#rim"/>
    <path pointer-events="none" fill="none" stroke="white" stroke-width="1.5" d="M0,-3.0v7 M-2.5,-0.5L0,-3.0L2.5,-0.5"/>
  </g>
  <g id="arrowRight" transform="rotate(90) translate(36 -43)">
    <use xlink:href="#rim"/>
    <path pointer-events="none" fill="none" stroke="white" stroke-width="1.5" d="M0,-3.0v7 M-2.5,-0.5L0,-3.0L2.5,-0.5"/>
  </g>
  <g id="arrowDown" transform="rotate(180) translate(-30 -48)">
    <use xlink:href="#rim"/>
    <path pointer-events="none" fill="none" stroke="white" stroke-width="1.5" d="M0,-3.0v7 M-2.5,-0.5L0,-3.0L2.5,-0.5"/>
  </g>
  <g id="arrowLeft" transform="rotate(270) translate(-36 17)">
    <use xlink:href="#rim"/>
    <path pointer-events="none" fill="none" stroke="white" stroke-width="1.5" d="M0,-3.0v7 M-2.5,-0.5L0,-3.0L2.5,-0.5"/>
  </g>
  <g id="resetDef">
    <use xlink:href="#rim2" fill="#404040"><set attributeName="fill" to="#808080" begin="reset.mouseover" end="reset.mouseout"/></use>
  </g>
</defs>
<script type="application/ecmascript">
var viewWidth = 202;
var viewHeight = 1384;
var sectionId = 'dynsection-1';
</script>
<script type="application/ecmascript" xlink:href="svg.min.js"/>
<svg id="graph" class="graph">
<g id="viewport">
<title>hri::IRenderPassResourceManagerBase</title>
<!-- Node1 -->
<g id="Node000001" class="node">
<title>Node1</title>
<g id="a_Node000001"><a xlink:title="The Render Pass Resource Manager Base is used to create and recreate render pass resources....">
<polygon fill="#999999" stroke="none" points="194,-612 0,-612 0,0 194,0 194,-612"/>
<text text-anchor="start" x="40.38" y="-598.5" font-family="Helvetica,sans-Serif" font-size="10.00">hri::IRenderPassResource</text>
<text text-anchor="start" x="67" y="-586.5" font-family="Helvetica,sans-Serif" font-size="10.00">ManagerBase</text>
<text text-anchor="start" x="4.38" y="-570.5" font-family="Helvetica,sans-Serif" font-size="10.00">#</text>
<text text-anchor="start" x="14" y="-570.5" font-family="Helvetica,sans-Serif" font-size="10.00">VkRenderPass m_renderPass</text>
<text text-anchor="start" x="4.38" y="-554.5" font-family="Helvetica,sans-Serif" font-size="10.00">#</text>
<text text-anchor="start" x="14" y="-554.5" font-family="Helvetica,sans-Serif" font-size="10.00">VkExtent2D m_renderExtent</text>
<text text-anchor="start" x="4.38" y="-538.5" font-family="Helvetica,sans-Serif" font-size="10.00">#</text>
<text text-anchor="start" x="14" y="-538.5" font-family="Helvetica,sans-Serif" font-size="10.00">std::vector&lt; VkClearValue</text>
<text text-anchor="start" x="14" y="-526.5" font-family="Helvetica,sans-Serif" font-size="10.00"> &gt; m_clearValues</text>
<text text-anchor="start" x="4.38" y="-510.5" font-family="Helvetica,sans-Serif" font-size="10.00">#</text>
<text text-anchor="start" x="14" y="-510.5" font-family="Helvetica,sans-Serif" font-size="10.00">std::vector&lt; RenderAttachment</text>
<text text-anchor="start" x="14" y="-498.5" font-family="Helvetica,sans-Serif" font-size="10.00">Config &gt; m_attachmentConfigs</text>
<text text-anchor="start" x="4.38" y="-482.5" font-family="Helvetica,sans-Serif" font-size="10.00">#</text>
<text text-anchor="start" x="14" y="-482.5" font-family="Helvetica,sans-Serif" font-size="10.00">std::vector&lt; ImageResource</text>
<text text-anchor="start" x="14" y="-470.5" font-family="Helvetica,sans-Serif" font-size="10.00"> &gt; m_imageResources</text>
<text text-anchor="start" x="4" y="-454.5" font-family="Helvetica,sans-Serif" font-size="10.00">+</text>
<text text-anchor="start" x="14" y="-454.5" font-family="Helvetica,sans-Serif" font-size="10.00">IRenderPassResourceManager</text>
<text text-anchor="start" x="14" y="-442.5" font-family="Helvetica,sans-Serif" font-size="10.00">Base(RenderContext &amp;ctx,</text>
<text text-anchor="start" x="14" y="-430.5" font-family="Helvetica,sans-Serif" font-size="10.00"> VkRenderPass renderPass,</text>
<text text-anchor="start" x="14" y="-418.5" font-family="Helvetica,sans-Serif" font-size="10.00"> const std::vector&lt; RenderAttachment</text>
<text text-anchor="start" x="14" y="-406.5" font-family="Helvetica,sans-Serif" font-size="10.00">Config &gt; &amp;attachmentConfigs)</text>
<text text-anchor="start" x="4" y="-390.5" font-family="Helvetica,sans-Serif" font-size="10.00">+</text>
<text text-anchor="start" x="14" y="-390.5" font-family="Helvetica,sans-Serif" font-size="10.00">virtual ~IRenderPassResource</text>
<text text-anchor="start" x="14" y="-378.5" font-family="Helvetica,sans-Serif" font-size="10.00">ManagerBase()</text>
<text text-anchor="start" x="4" y="-362.5" font-family="Helvetica,sans-Serif" font-size="10.00">+</text>
<text text-anchor="start" x="14" y="-362.5" font-family="Helvetica,sans-Serif" font-size="10.00">IRenderPassResourceManager</text>
<text text-anchor="start" x="14" y="-350.5" font-family="Helvetica,sans-Serif" font-size="10.00">Base(IRenderPassResourceManager</text>
<text text-anchor="start" x="14" y="-338.5" font-family="Helvetica,sans-Serif" font-size="10.00">Base &amp;)=delete</text>
<text text-anchor="start" x="4" y="-322.5" font-family="Helvetica,sans-Serif" font-size="10.00">+</text>
<text text-anchor="start" x="14" y="-322.5" font-family="Helvetica,sans-Serif" font-size="10.00">IRenderPassResourceManager</text>
<text text-anchor="start" x="14" y="-310.5" font-family="Helvetica,sans-Serif" font-size="10.00">Base &amp; operator=(IRenderPassResource</text>
<text text-anchor="start" x="14" y="-298.5" font-family="Helvetica,sans-Serif" font-size="10.00">ManagerBase &amp;)=delete</text>
<text text-anchor="start" x="4" y="-282.5" font-family="Helvetica,sans-Serif" font-size="10.00">+</text>
<text text-anchor="start" x="14" y="-282.5" font-family="Helvetica,sans-Serif" font-size="10.00">virtual void beginRender</text>
<text text-anchor="start" x="14" y="-270.5" font-family="Helvetica,sans-Serif" font-size="10.00">Pass(ActiveFrame &amp;frame)</text>
<text text-anchor="start" x="14" y="-258.5" font-family="Helvetica,sans-Serif" font-size="10.00"> const =0</text>
<text text-anchor="start" x="4" y="-242.5" font-family="Helvetica,sans-Serif" font-size="10.00">+</text>
<text text-anchor="start" x="14" y="-242.5" font-family="Helvetica,sans-Serif" font-size="10.00">virtual void endRenderPass</text>
<text text-anchor="start" x="14" y="-230.5" font-family="Helvetica,sans-Serif" font-size="10.00">(ActiveFrame &amp;frame) const</text>
<text text-anchor="start" x="4" y="-214.5" font-family="Helvetica,sans-Serif" font-size="10.00">+</text>
<text text-anchor="start" x="14" y="-214.5" font-family="Helvetica,sans-Serif" font-size="10.00">virtual void setClearValue</text>
<text text-anchor="start" x="14" y="-202.5" font-family="Helvetica,sans-Serif" font-size="10.00">(uint32_t attachmentIndex,</text>
<text text-anchor="start" x="14" y="-190.5" font-family="Helvetica,sans-Serif" font-size="10.00"> VkClearValue clearValue)</text>
<text text-anchor="start" x="4" y="-174.5" font-family="Helvetica,sans-Serif" font-size="10.00">+</text>
<text text-anchor="start" x="14" y="-174.5" font-family="Helvetica,sans-Serif" font-size="10.00">virtual VkRenderPass</text>
<text text-anchor="start" x="14" y="-162.5" font-family="Helvetica,sans-Serif" font-size="10.00"> renderPass() const</text>
<text text-anchor="start" x="4" y="-146.5" font-family="Helvetica,sans-Serif" font-size="10.00">+</text>
<text text-anchor="start" x="14" y="-146.5" font-family="Helvetica,sans-Serif" font-size="10.00">virtual const ImageResource</text>
<text text-anchor="start" x="14" y="-134.5" font-family="Helvetica,sans-Serif" font-size="10.00"> &amp; getAttachmentResource</text>
<text text-anchor="start" x="14" y="-122.5" font-family="Helvetica,sans-Serif" font-size="10.00">(uint32_t attachmentIndex) const</text>
<text text-anchor="start" x="4" y="-106.5" font-family="Helvetica,sans-Serif" font-size="10.00">+</text>
<text text-anchor="start" x="14" y="-106.5" font-family="Helvetica,sans-Serif" font-size="10.00">virtual void recreateResources()</text>
<text text-anchor="start" x="4.38" y="-90.5" font-family="Helvetica,sans-Serif" font-size="10.00">#</text>
<text text-anchor="start" x="14" y="-90.5" font-family="Helvetica,sans-Serif" font-size="10.00">virtual void createResources()</text>
<text text-anchor="start" x="4.38" y="-74.5" font-family="Helvetica,sans-Serif" font-size="10.00">#</text>
<text text-anchor="start" x="14" y="-74.5" font-family="Helvetica,sans-Serif" font-size="10.00">virtual void destroyResources()</text>
<text text-anchor="start" x="4.38" y="-58.5" font-family="Helvetica,sans-Serif" font-size="10.00">#</text>
<text text-anchor="start" x="14" y="-58.5" font-family="Helvetica,sans-Serif" font-size="10.00">virtual std::vector</text>
<text text-anchor="start" x="14" y="-46.5" font-family="Helvetica,sans-Serif" font-size="10.00">&lt; VkImageView &gt; getImageResource</text>
<text text-anchor="start" x="14" y="-34.5" font-family="Helvetica,sans-Serif" font-size="10.00">Views()</text>
<text text-anchor="start" x="4.38" y="-18.5" font-family="Helvetica,sans-Serif" font-size="10.00">#</text>
<text text-anchor="start" x="14" y="-18.5" font-family="Helvetica,sans-Serif" font-size="10.00">virtual VkExtent2D</text>
<text text-anchor="start" x="14" y="-6.5" font-family="Helvetica,sans-Serif" font-size="10.00"> getRenderExtent() const</text>
<polygon fill="#666666" stroke="#666666" points="0,-582 0,-582 194,-582 194,-582 0,-582"/>
<polygon fill="#666666" stroke="#666666" points="0,-466 0,-466 12,-466 12,-466 0,-466"/>
<polygon fill="#666666" stroke="#666666" points="12,-466 12,-466 194,-466 194,-466 12,-466"/>
<polygon fill="none" stroke="#666666" points="0,0 0,-612 194,-612 194,0 0,0"/>
</a>
</g>
</g>
<!-- Node2 -->
<g id="Node000002" class="node">
<title>Node2</title>
<g id="a_Node000002"><a xlink:href="classhri_1_1_render_context.html" target="_top" xlink:title="THe RenderContext manages the Vulkan instance, device, and swapchain state.">
<polygon fill="white" stroke="none" points="177,-1084 17,-1084 17,-660 177,-660 177,-1084"/>
<text text-anchor="start" x="56.5" y="-1070.5" font-family="Helvetica,sans-Serif" font-size="10.00">hri::RenderContext</text>
<text text-anchor="start" x="21" y="-1054.5" font-family="Helvetica,sans-Serif" font-size="10.00">+</text>
<text text-anchor="start" x="31" y="-1054.5" font-family="Helvetica,sans-Serif" font-size="10.00">vkb::Instance instance</text>
<text text-anchor="start" x="21" y="-1038.5" font-family="Helvetica,sans-Serif" font-size="10.00">+</text>
<text text-anchor="start" x="31" y="-1038.5" font-family="Helvetica,sans-Serif" font-size="10.00">VkSurfaceKHR surface</text>
<text text-anchor="start" x="21" y="-1022.5" font-family="Helvetica,sans-Serif" font-size="10.00">+</text>
<text text-anchor="start" x="31" y="-1022.5" font-family="Helvetica,sans-Serif" font-size="10.00">vkb::PhysicalDevice gpu</text>
<text text-anchor="start" x="21" y="-1006.5" font-family="Helvetica,sans-Serif" font-size="10.00">+</text>
<text text-anchor="start" x="31" y="-1006.5" font-family="Helvetica,sans-Serif" font-size="10.00">vkb::Device device</text>
<text text-anchor="start" x="21" y="-990.5" font-family="Helvetica,sans-Serif" font-size="10.00">+</text>
<text text-anchor="start" x="31" y="-990.5" font-family="Helvetica,sans-Serif" font-size="10.00">VmaAllocator allocator</text>
<text text-anchor="start" x="21" y="-974.5" font-family="Helvetica,sans-Serif" font-size="10.00">+</text>
<text text-anchor="start" x="31" y="-974.5" font-family="Helvetica,sans-Serif" font-size="10.00">vkb::Swapchain swapchain</text>
<text text-anchor="start" x="21" y="-958.5" font-family="Helvetica,sans-Serif" font-size="10.00">+</text>
<text text-anchor="start" x="31" y="-958.5" font-family="Helvetica,sans-Serif" font-size="10.00">RenderContext(RenderContext</text>
<text text-anchor="start" x="31" y="-946.5" font-family="Helvetica,sans-Serif" font-size="10.00">CreateInfo &amp;createInfo)</text>
<text text-anchor="start" x="21" y="-930.5" font-family="Helvetica,sans-Serif" font-size="10.00">+</text>
<text text-anchor="start" x="31" y="-930.5" font-family="Helvetica,sans-Serif" font-size="10.00">virtual ~RenderContext()</text>
<text text-anchor="start" x="21" y="-914.5" font-family="Helvetica,sans-Serif" font-size="10.00">+</text>
<text text-anchor="start" x="31" y="-914.5" font-family="Helvetica,sans-Serif" font-size="10.00">RenderContext(const</text>
<text text-anchor="start" x="31" y="-902.5" font-family="Helvetica,sans-Serif" font-size="10.00"> RenderContext &amp;)=delete</text>
<text text-anchor="start" x="21" y="-886.5" font-family="Helvetica,sans-Serif" font-size="10.00">+</text>
<text text-anchor="start" x="31" y="-886.5" font-family="Helvetica,sans-Serif" font-size="10.00">RenderContext &amp; operator</text>
<text text-anchor="start" x="31" y="-874.5" font-family="Helvetica,sans-Serif" font-size="10.00">=(const RenderContext &amp;)</text>
<text text-anchor="start" x="31" y="-862.5" font-family="Helvetica,sans-Serif" font-size="10.00">=delete</text>
<text text-anchor="start" x="21" y="-846.5" font-family="Helvetica,sans-Serif" font-size="10.00">+</text>
<text text-anchor="start" x="31" y="-846.5" font-family="Helvetica,sans-Serif" font-size="10.00">RenderContext(RenderContext</text>
<text text-anchor="start" x="31" y="-834.5" font-family="Helvetica,sans-Serif" font-size="10.00"> &amp;&amp;other) noexcept</text>
<text text-anchor="start" x="21" y="-818.5" font-family="Helvetica,sans-Serif" font-size="10.00">+</text>
<text text-anchor="start" x="31" y="-818.5" font-family="Helvetica,sans-Serif" font-size="10.00">RenderContext &amp; operator</text>
<text text-anchor="start" x="31" y="-806.5" font-family="Helvetica,sans-Serif" font-size="10.00">=(RenderContext &amp;&amp;other)</text>
<text text-anchor="start" x="31" y="-794.5" font-family="Helvetica,sans-Serif" font-size="10.00"> noexcept</text>
<text text-anchor="start" x="21" y="-778.5" font-family="Helvetica,sans-Serif" font-size="10.00">+</text>
<text text-anchor="start" x="31" y="-778.5" font-family="Helvetica,sans-Serif" font-size="10.00">void setVSyncMode(VSyncMode</text>
<text text-anchor="start" x="31" y="-766.5" font-family="Helvetica,sans-Serif" font-size="10.00"> vsyncMode)</text>
<text text-anchor="start" x="21" y="-750.5" font-family="Helvetica,sans-Serif" font-size="10.00">+</text>
<text text-anchor="start" x="31" y="-750.5" font-family="Helvetica,sans-Serif" font-size="10.00">void recreateSwapchain()</text>
<text text-anchor="start" x="21" y="-734.5" font-family="Helvetica,sans-Serif" font-size="10.00">+</text>
<text text-anchor="start" x="31" y="-734.5" font-family="Helvetica,sans-Serif" font-size="10.00">_PFn getInstanceFunction</text>
<text text-anchor="start" x="31" y="-722.5" font-family="Helvetica,sans-Serif" font-size="10.00">(const char *name) const</text>
<text text-anchor="start" x="21" y="-706.5" font-family="Helvetica,sans-Serif" font-size="10.00">+</text>
<text text-anchor="start" x="31" y="-706.5" font-family="Helvetica,sans-Serif" font-size="10.00">_PFn getDeviceFunction</text>
<text text-anchor="start" x="31" y="-694.5" font-family="Helvetica,sans-Serif" font-size="10.00">(const char *name) const</text>
<text text-anchor="start" x="21" y="-678.5" font-family="Helvetica,sans-Serif" font-size="10.00">+</text>
<text text-anchor="start" x="31" y="-678.5" font-family="Helvetica,sans-Serif" font-size="10.00">VkFormat swapFormat</text>
<text text-anchor="start" x="31" y="-666.5" font-family="Helvetica,sans-Serif" font-size="10.00">() const</text>
<polygon fill="#666666" stroke="#666666" points="17,-1066 17,-1066 177,-1066 177,-1066 17,-1066"/>
<polygon fill="#666666" stroke="#666666" points="17,-970 17,-970 29,-970 29,-970 17,-970"/>
<polygon fill="#666666" stroke="#666666" points="29,-970 29,-970 177,-970 177,-970 29,-970"/>
<polygon fill="none" stroke="#666666" points="17,-660 17,-1084 177,-1084 177,-660 17,-660"/>
</a>
</g>
</g>
<!-- Node2&#45;&gt;Node1 -->
<g id="edge1_Node000001_Node000002" class="edge">
<title>Node2&#45;&gt;Node1</title>
<g id="a_edge1_Node000001_Node000002"><a xlink:title=" ">
<path fill="none" stroke="#63b8ff" d="M97,-660.19C97,-648.47 97,-636.57 97,-624.59"/>
<polygon fill="none" stroke="#63b8ff" points="97,-624.46 93,-618.46 97,-612.46 101,-618.46 97,-624.46"/>
</a>
</g>
<text text-anchor="middle" x="114.62" y="-632.5" font-family="Helvetica,sans-Serif" font-size="10.00" fill="grey"> #m_ctx</text>
</g>
<!-- Node3 -->
<g id="Node000003" class="node">
<title>Node3</title>
<g id="a_Node000003"><a xlink:href="classhri_1_1_render_context_queue_state.html" target="_top" xlink:title="The context queue state creates and maintains the device queue setup.">
<polygon fill="white" stroke="none" points="168,-1224 26,-1224 26,-1132 168,-1132 168,-1224"/>
<text text-anchor="start" x="30.62" y="-1210.5" font-family="Helvetica,sans-Serif" font-size="10.00">hri::RenderContextQueueState</text>
<text text-anchor="start" x="95.5" y="-1194.5" font-family="Helvetica,sans-Serif" font-size="10.00"> </text>
<text text-anchor="start" x="32" y="-1178.5" font-family="Helvetica,sans-Serif" font-size="10.00">+</text>
<text text-anchor="start" x="44" y="-1178.5" font-family="Helvetica,sans-Serif" font-size="10.00">RenderContextQueueState</text>
<text text-anchor="start" x="44" y="-1166.5" font-family="Helvetica,sans-Serif" font-size="10.00">()=default</text>
<text text-anchor="start" x="32" y="-1150.5" font-family="Helvetica,sans-Serif" font-size="10.00">+</text>
<text text-anchor="start" x="44" y="-1150.5" font-family="Helvetica,sans-Serif" font-size="10.00">RenderContextQueueState</text>
<text text-anchor="start" x="44" y="-1138.5" font-family="Helvetica,sans-Serif" font-size="10.00">(vkb::Device device)</text>
<polygon fill="#666666" stroke="#666666" points="26,-1206 26,-1206 168,-1206 168,-1206 26,-1206"/>
<polygon fill="#666666" stroke="#666666" points="26,-1190 26,-1190 168,-1190 168,-1190 26,-1190"/>
<polygon fill="none" stroke="#666666" points="26,-1132 26,-1224 168,-1224 168,-1132 26,-1132"/>
</a>
</g>
</g>
<!-- Node3&#45;&gt;Node2 -->
<g id="edge2_Node000002_Node000003" class="edge">
<title>Node3&#45;&gt;Node2</title>
<g id="a_edge2_Node000002_Node000003"><a xlink:title=" ">
<path fill="none" stroke="#63b8ff" d="M97,-1132.14C97,-1121.51 97,-1109.44 97,-1096.48"/>
<polygon fill="none" stroke="#63b8ff" points="97,-1096.7 93,-1090.7 97,-1084.7 101,-1090.7 97,-1096.7"/>
</a>
</g>
<text text-anchor="middle" x="117.25" y="-1104.5" font-family="Helvetica,sans-Serif" font-size="10.00" fill="grey"> +queues</text>
</g>
<!-- Node4 -->
<g id="Node000004" class="node">
<title>Node4</title>
<g id="a_Node000004"><a xlink:href="structhri_1_1_device_queue.html" target="_top" xlink:title="A Device Queue is a queue on the logical device to which operations can be submitted.">
<polygon fill="white" stroke="none" points="142,-1376 52,-1376 52,-1308 142,-1308 142,-1376"/>
<text text-anchor="start" x="60.25" y="-1362.5" font-family="Helvetica,sans-Serif" font-size="10.00">hri::DeviceQueue</text>
<text text-anchor="start" x="56" y="-1346.5" font-family="Helvetica,sans-Serif" font-size="10.00">+</text>
<text text-anchor="start" x="66" y="-1346.5" font-family="Helvetica,sans-Serif" font-size="10.00">uint32_t family</text>
<text text-anchor="start" x="56" y="-1330.5" font-family="Helvetica,sans-Serif" font-size="10.00">+</text>
<text text-anchor="start" x="66" y="-1330.5" font-family="Helvetica,sans-Serif" font-size="10.00">VkQueue handle</text>
<text text-anchor="start" x="95.5" y="-1314.5" font-family="Helvetica,sans-Serif" font-size="10.00"> </text>
<polygon fill="#666666" stroke="#666666" points="52,-1358 52,-1358 142,-1358 142,-1358 52,-1358"/>
<polygon fill="#666666" stroke="#666666" points="52,-1326 52,-1326 64,-1326 64,-1326 52,-1326"/>
<polygon fill="#666666" stroke="#666666" points="64,-1326 64,-1326 142,-1326 142,-1326 64,-1326"/>
<polygon fill="none" stroke="#666666" points="52,-1308 52,-1376 142,-1376 142,-1308 52,-1308"/>
</a>
</g>
</g>
<!-- Node4&#45;&gt;Node3 -->
<g id="edge3_Node000003_Node000004" class="edge">
<title>Node4&#45;&gt;Node3</title>
<g id="a_edge3_Node000003_Node000004"><a xlink:title=" ">
<path fill="none" stroke="#63b8ff" d="M97,-1308.22C97,-1287.7 97,-1260.7 97,-1236.68"/>
<polygon fill="none" stroke="#63b8ff" points="97,-1236.61 93,-1230.61 97,-1224.61 101,-1230.61 97,-1236.61"/>
</a>
</g>
<text text-anchor="middle" x="134.5" y="-1280.5" font-family="Helvetica,sans-Serif" font-size="10.00" fill="grey"> +computeQueue</text>
<text text-anchor="middle" x="134.5" y="-1268.5" font-family="Helvetica,sans-Serif" font-size="10.00" fill="grey">+graphicsQueue</text>
<text text-anchor="middle" x="134.5" y="-1256.5" font-family="Helvetica,sans-Serif" font-size="10.00" fill="grey">+presentQueue</text>
<text text-anchor="middle" x="134.5" y="-1244.5" font-family="Helvetica,sans-Serif" font-size="10.00" fill="grey">+transferQueue</text>
</g>
</g>
</svg>

<g id="navigator" transform="translate(0 0)" fill="#404254">
  <rect fill="#f2f5e9" fill-opacity="0.5" stroke="#606060" stroke-width=".5" x="0" y="0" width="60" height="60"/>
  <use id="zoomplus" xlink:href="#zoomPlus" x="17" y="9" onmousedown="handleZoom(evt,'in')"/>
  <use id="zoomminus" xlink:href="#zoomMin" x="42" y="9" onmousedown="handleZoom(evt,'out')"/>
  <use id="reset" xlink:href="#resetDef" x="30" y="36" onmousedown="handleReset()"/>
   <use id="arrowup" xlink:href="#arrowUp" x="0" y="0" onmousedown="handlePan(0,-1)"/>
  <use id="arrowright" xlink:href="#arrowRight" x="0" y="0" onmousedown="handlePan(1,0)"/>
  <use id="arrowdown" xlink:href="#arrowDown" x="0" y="0" onmousedown="handlePan(0,1)"/>
  <use id="arrowleft" xlink:href="#arrowLeft" x="0" y="0" onmousedown="handlePan(-1,0)"/>
</g>
<svg viewBox="0 0 15 15" width="100%" height="30px" preserveAspectRatio="xMaxYMin meet">
 <g id="arrow_out" transform="scale(0.3 0.3)">
  <a xlink:href="classhri_1_1_i_render_pass_resource_manager_base__coll__graph_org.svg" target="_base">
   <rect id="button" ry="5" rx="5" y="6" x="6" height="38" width="38"
        fill="#f2f5e9" fill-opacity="0.5" stroke="#606060" stroke-width="1.0"/>
   <path id="arrow"
     d="M 11.500037,31.436501 C 11.940474,20.09759 22.043105,11.32322 32.158766,21.979434 L 37.068811,17.246167 C 37.068811,17.246167 37.088388,32 37.088388,32 L 22.160133,31.978069 C 22.160133,31.978069 26.997745,27.140456 26.997745,27.140456 C 18.528582,18.264221 13.291696,25.230495 11.500037,31.436501 z"
     style="fill:#404040;"/>
  </a>
 </g>
</svg>

<style type='text/css'>
<![CDATA[
[data-mouse-over-selected='false'] { opacity: 0.7; }
[data-mouse-over-selected='true']  { opacity: 1.0; }
]]>
</style>
<script type="application/ecmascript"><![CDATA[
document.addEventListener('DOMContentLoaded', (event) => {
  highlightEdges();
  highlightAdjacentNodes();
});
]]></script>
</svg>
