<?xml version="1.0" encoding="UTF-8" standalone="no"?>
<!DOCTYPE svg PUBLIC "-//W3C//DTD SVG 1.1//EN"
 "http://www.w3.org/Graphics/SVG/1.1/DTD/svg11.dtd">
<!-- Generated by graphviz version 10.0.1 (20240210.2158)
 -->
<!-- Title: hri::IRenderSubsystem Pages: 1 -->
<!--zoomable 644 -->

<svg id="main" version="1.1" xmlns="http://www.w3.org/2000/svg" xmlns:xlink="http://www.w3.org/1999/xlink" xml:space="preserve" onload="init(evt)">
<style type="text/css"><![CDATA[
.node, .edge {opacity: 0.7;}
.node.selected, .edge.selected {opacity: 1;}
.edge:hover path { stroke: red; }
.edge:hover polygon { stroke: red; fill: red; }
]]></style>

<defs>
  <circle id="rim" cx="0" cy="0" r="7"/>
  <circle id="rim2" cx="0" cy="0" r="3.5"/>
  <g id="zoomPlus">
    <use xlink:href="#rim" fill="#404040"><set attributeName="fill" to="#808080" begin="zoomplus.mouseover" end="zoomplus.mouseout"/></use>
    <path d="M-4,0h8M0,-4v8" fill="none" stroke="white" stroke-width="1.5" pointer-events="none"/>
  </g>
  <g id="zoomMin">
    <use xlink:href="#rim" fill="#404040"><set attributeName="fill" to="#808080" begin="zoomminus.mouseover" end="zoomminus.mouseout"/></use>
    <path d="M-4,0h8" fill="none" stroke="white" stroke-width="1.5" pointer-events="none"/>
  </g>
  <g id="arrowUp" transform="translate(30 24)">
    <use xlink:href="#rim"/>
    <path pointer-events="none" fill="none" stroke="white" stroke-width="1.5" d="M0,-3.0v7 M-2.5,-0.5L0,-3.0L2.5,-0.5"/>
  </g>
  <g id="arrowRight" transform="rotate(90) translate(36 -43)">
    <use xlink:href="#rim"/>
    <path pointer-events="none" fill="none" stroke="white" stroke-width="1.5" d="M0,-3.0v7 M-2.5,-0.5L0,-3.0L2.5,-0.5"/>
  </g>
  <g id="arrowDown" transform="rotate(180) translate(-30 -48)">
    <use xlink:href="#rim"/>
    <path pointer-events="none" fill="none" stroke="white" stroke-width="1.5" d="M0,-3.0v7 M-2.5,-0.5L0,-3.0L2.5,-0.5"/>
  </g>
  <g id="arrowLeft" transform="rotate(270) translate(-36 17)">
    <use xlink:href="#rim"/>
    <path pointer-events="none" fill="none" stroke="white" stroke-width="1.5" d="M0,-3.0v7 M-2.5,-0.5L0,-3.0L2.5,-0.5"/>
  </g>
  <g id="resetDef">
    <use xlink:href="#rim2" fill="#404040"><set attributeName="fill" to="#808080" begin="reset.mouseover" end="reset.mouseout"/></use>
  </g>
</defs>
<script type="application/ecmascript">
var viewWidth = 418;
var viewHeight = 644;
var sectionId = 'dynsection-1';
</script>
<script type="application/ecmascript" xlink:href="svg.min.js"/>
<svg id="graph" class="graph">
<g id="viewport">
<title>hri::IRenderSubsystem</title>
<!-- Node1 -->
<g id="Node000001" class="node">
<title>Node1</title>
<g id="a_Node000001"><a xlink:title="A Render Subsystem manages a render pipeline, layout, and subsystem descriptors. A Render Subsystem b...">
<polygon fill="#999999" stroke="none" points="262,-116 150,-116 150,0 262,0 262,-116"/>
<text text-anchor="start" x="156.5" y="-102.5" font-family="Helvetica,sans-Serif" font-size="10.00">hri::IRenderSubsystem</text>
<text text-anchor="start" x="154.38" y="-86.5" font-family="Helvetica,sans-Serif" font-size="10.00">#</text>
<text text-anchor="start" x="164" y="-86.5" font-family="Helvetica,sans-Serif" font-size="10.00">m_layout</text>
<text text-anchor="start" x="154" y="-70.5" font-family="Helvetica,sans-Serif" font-size="10.00">+</text>
<text text-anchor="start" x="164" y="-70.5" font-family="Helvetica,sans-Serif" font-size="10.00">IRenderSubsystem()</text>
<text text-anchor="start" x="154" y="-54.5" font-family="Helvetica,sans-Serif" font-size="10.00">+</text>
<text text-anchor="start" x="164" y="-54.5" font-family="Helvetica,sans-Serif" font-size="10.00">~IRenderSubsystem()</text>
<text text-anchor="start" x="154" y="-38.5" font-family="Helvetica,sans-Serif" font-size="10.00">+</text>
<text text-anchor="start" x="164" y="-38.5" font-family="Helvetica,sans-Serif" font-size="10.00">IRenderSubsystem()</text>
<text text-anchor="start" x="154" y="-22.5" font-family="Helvetica,sans-Serif" font-size="10.00">+</text>
<text text-anchor="start" x="164" y="-22.5" font-family="Helvetica,sans-Serif" font-size="10.00">operator=()</text>
<text text-anchor="start" x="154" y="-6.5" font-family="Helvetica,sans-Serif" font-size="10.00">+</text>
<text text-anchor="start" x="164" y="-6.5" font-family="Helvetica,sans-Serif" font-size="10.00">record()</text>
<polygon fill="#666666" stroke="#666666" points="150,-98 150,-98 262,-98 262,-98 150,-98"/>
<polygon fill="#666666" stroke="#666666" points="150,-82 150,-82 162,-82 162,-82 150,-82"/>
<polygon fill="#666666" stroke="#666666" points="162,-82 162,-82 262,-82 262,-82 162,-82"/>
<polygon fill="none" stroke="#666666" points="150,0 150,-116 262,-116 262,0 150,0"/>
</a>
</g>
</g>
<!-- Node2 -->
<g id="Node000002" class="node">
<title>Node2</title>
<g id="a_Node000002"><a xlink:href="classhri_1_1_render_context.html" target="_top" xlink:title="THe RenderContext manages the Vulkan instance, device, and swapchain state.">
<polygon fill="white" stroke="none" points="124,-392 18,-392 18,-164 124,-164 124,-392"/>
<text text-anchor="start" x="30.5" y="-378.5" font-family="Helvetica,sans-Serif" font-size="10.00">hri::RenderContext</text>
<text text-anchor="start" x="22" y="-362.5" font-family="Helvetica,sans-Serif" font-size="10.00">+</text>
<text text-anchor="start" x="32" y="-362.5" font-family="Helvetica,sans-Serif" font-size="10.00">instance</text>
<text text-anchor="start" x="22" y="-346.5" font-family="Helvetica,sans-Serif" font-size="10.00">+</text>
<text text-anchor="start" x="32" y="-346.5" font-family="Helvetica,sans-Serif" font-size="10.00">surface</text>
<text text-anchor="start" x="22" y="-330.5" font-family="Helvetica,sans-Serif" font-size="10.00">+</text>
<text text-anchor="start" x="32" y="-330.5" font-family="Helvetica,sans-Serif" font-size="10.00">gpu</text>
<text text-anchor="start" x="22" y="-314.5" font-family="Helvetica,sans-Serif" font-size="10.00">+</text>
<text text-anchor="start" x="32" y="-314.5" font-family="Helvetica,sans-Serif" font-size="10.00">device</text>
<text text-anchor="start" x="22" y="-298.5" font-family="Helvetica,sans-Serif" font-size="10.00">+</text>
<text text-anchor="start" x="32" y="-298.5" font-family="Helvetica,sans-Serif" font-size="10.00">allocator</text>
<text text-anchor="start" x="22" y="-282.5" font-family="Helvetica,sans-Serif" font-size="10.00">+</text>
<text text-anchor="start" x="32" y="-282.5" font-family="Helvetica,sans-Serif" font-size="10.00">swapchain</text>
<text text-anchor="start" x="22" y="-266.5" font-family="Helvetica,sans-Serif" font-size="10.00">+</text>
<text text-anchor="start" x="32" y="-266.5" font-family="Helvetica,sans-Serif" font-size="10.00">RenderContext()</text>
<text text-anchor="start" x="22" y="-250.5" font-family="Helvetica,sans-Serif" font-size="10.00">+</text>
<text text-anchor="start" x="32" y="-250.5" font-family="Helvetica,sans-Serif" font-size="10.00">~RenderContext()</text>
<text text-anchor="start" x="22" y="-234.5" font-family="Helvetica,sans-Serif" font-size="10.00">+</text>
<text text-anchor="start" x="32" y="-234.5" font-family="Helvetica,sans-Serif" font-size="10.00">RenderContext()</text>
<text text-anchor="start" x="22" y="-218.5" font-family="Helvetica,sans-Serif" font-size="10.00">+</text>
<text text-anchor="start" x="32" y="-218.5" font-family="Helvetica,sans-Serif" font-size="10.00">operator=()</text>
<text text-anchor="start" x="22" y="-202.5" font-family="Helvetica,sans-Serif" font-size="10.00">+</text>
<text text-anchor="start" x="32" y="-202.5" font-family="Helvetica,sans-Serif" font-size="10.00">setVSyncMode()</text>
<text text-anchor="start" x="22" y="-186.5" font-family="Helvetica,sans-Serif" font-size="10.00">+</text>
<text text-anchor="start" x="32" y="-186.5" font-family="Helvetica,sans-Serif" font-size="10.00">recreateSwapchain()</text>
<text text-anchor="start" x="22" y="-170.5" font-family="Helvetica,sans-Serif" font-size="10.00">+</text>
<text text-anchor="start" x="32" y="-170.5" font-family="Helvetica,sans-Serif" font-size="10.00">swapFormat()</text>
<polygon fill="#666666" stroke="#666666" points="18,-374 18,-374 124,-374 124,-374 18,-374"/>
<polygon fill="#666666" stroke="#666666" points="18,-278 18,-278 30,-278 30,-278 18,-278"/>
<polygon fill="#666666" stroke="#666666" points="30,-278 30,-278 124,-278 124,-278 30,-278"/>
<polygon fill="none" stroke="#666666" points="18,-164 18,-392 124,-392 124,-164 18,-164"/>
</a>
</g>
</g>
<!-- Node2&#45;&gt;Node1 -->
<g id="edge1_Node000001_Node000002" class="edge">
<title>Node2&#45;&gt;Node1</title>
<g id="a_edge1_Node000001_Node000002"><a xlink:title=" ">
<path fill="none" stroke="#63b8ff" d="M123.97,-178.94C126.97,-173.86 129.99,-168.85 133,-164 140.64,-151.67 149.14,-138.79 157.56,-126.44"/>
<polygon fill="none" stroke="#63b8ff" points="157.6,-126.39 157.7,-119.18 164.4,-116.5 164.29,-123.71 157.6,-126.39"/>
</a>
</g>
<text text-anchor="middle" x="173" y="-136.5" font-family="Helvetica,sans-Serif" font-size="10.00" fill="grey"> #m_pCtx</text>
</g>
<!-- Node3 -->
<g id="Node000003" class="node">
<title>Node3</title>
<g id="a_Node000003"><a xlink:href="classhri_1_1_render_context_queue_state.html" target="_top" xlink:title="The context queue state creates and maintains the device queue setup.">
<polygon fill="white" stroke="none" points="142,-508 0,-508 0,-440 142,-440 142,-508"/>
<text text-anchor="start" x="4.62" y="-494.5" font-family="Helvetica,sans-Serif" font-size="10.00">hri::RenderContextQueueState</text>
<text text-anchor="start" x="69.5" y="-478.5" font-family="Helvetica,sans-Serif" font-size="10.00"> </text>
<text text-anchor="start" x="4.5" y="-462.5" font-family="Helvetica,sans-Serif" font-size="10.00">+</text>
<text text-anchor="start" x="15" y="-462.5" font-family="Helvetica,sans-Serif" font-size="10.00">RenderContextQueueState()</text>
<text text-anchor="start" x="4.5" y="-446.5" font-family="Helvetica,sans-Serif" font-size="10.00">+</text>
<text text-anchor="start" x="15" y="-446.5" font-family="Helvetica,sans-Serif" font-size="10.00">RenderContextQueueState()</text>
<polygon fill="#666666" stroke="#666666" points="0,-490 0,-490 142,-490 142,-490 0,-490"/>
<polygon fill="#666666" stroke="#666666" points="0,-474 0,-474 142,-474 142,-474 0,-474"/>
<polygon fill="none" stroke="#666666" points="0,-440 0,-508 142,-508 142,-440 0,-440"/>
</a>
</g>
</g>
<!-- Node3&#45;&gt;Node2 -->
<g id="edge2_Node000002_Node000003" class="edge">
<title>Node3&#45;&gt;Node2</title>
<g id="a_edge2_Node000002_Node000003"><a xlink:title=" ">
<path fill="none" stroke="#63b8ff" d="M71,-440.09C71,-429.79 71,-417.75 71,-404.97"/>
<polygon fill="none" stroke="#63b8ff" points="71,-404.89 67,-398.89 71,-392.89 75,-398.89 71,-404.89"/>
</a>
</g>
<text text-anchor="middle" x="91.25" y="-412.5" font-family="Helvetica,sans-Serif" font-size="10.00" fill="grey"> +queues</text>
</g>
<!-- Node4 -->
<g id="Node000004" class="node">
<title>Node4</title>
<g id="a_Node000004"><a xlink:href="structhri_1_1_device_queue.html" target="_top" xlink:title="A Device Queue is a queue on the logical device to which operations can be submitted.">
<polygon fill="white" stroke="none" points="112.5,-636 29.5,-636 29.5,-568 112.5,-568 112.5,-636"/>
<text text-anchor="start" x="34.25" y="-622.5" font-family="Helvetica,sans-Serif" font-size="10.00">hri::DeviceQueue</text>
<text text-anchor="start" x="42.5" y="-606.5" font-family="Helvetica,sans-Serif" font-size="10.00">+</text>
<text text-anchor="start" x="61.5" y="-606.5" font-family="Helvetica,sans-Serif" font-size="10.00">family</text>
<text text-anchor="start" x="42.5" y="-590.5" font-family="Helvetica,sans-Serif" font-size="10.00">+</text>
<text text-anchor="start" x="61.5" y="-590.5" font-family="Helvetica,sans-Serif" font-size="10.00">handle</text>
<text text-anchor="start" x="69.5" y="-574.5" font-family="Helvetica,sans-Serif" font-size="10.00"> </text>
<polygon fill="#666666" stroke="#666666" points="29.5,-618 29.5,-618 112.5,-618 112.5,-618 29.5,-618"/>
<polygon fill="#666666" stroke="#666666" points="29.5,-586 29.5,-586 59.5,-586 59.5,-586 29.5,-586"/>
<polygon fill="#666666" stroke="#666666" points="59.5,-586 59.5,-586 112.5,-586 112.5,-586 59.5,-586"/>
<polygon fill="none" stroke="#666666" points="29.5,-568 29.5,-636 112.5,-636 112.5,-568 29.5,-568"/>
</a>
</g>
</g>
<!-- Node4&#45;&gt;Node3 -->
<g id="edge3_Node000003_Node000004" class="edge">
<title>Node4&#45;&gt;Node3</title>
<g id="a_edge3_Node000003_Node000004"><a xlink:title=" ">
<path fill="none" stroke="#63b8ff" d="M71,-568.22C71,-553.64 71,-536.23 71,-520.42"/>
<polygon fill="none" stroke="#63b8ff" points="71,-520.51 67,-514.51 71,-508.51 75,-514.51 71,-520.51"/>
</a>
</g>
<text text-anchor="middle" x="108.12" y="-540.5" font-family="Helvetica,sans-Serif" font-size="10.00" fill="grey"> +graphicsQueue</text>
<text text-anchor="middle" x="108.12" y="-528.5" font-family="Helvetica,sans-Serif" font-size="10.00" fill="grey">+presentQueue</text>
</g>
<!-- Node5 -->
<g id="Node000005" class="node">
<title>Node5</title>
<g id="a_Node000005"><a xlink:href="classhri_1_1_descriptor_set_allocator.html" target="_top" xlink:title="The Descriptor Set Allocator handles allocation of Descriptor Sets from descriptor pools.">
<polygon fill="white" stroke="none" points="269.5,-352 142.5,-352 142.5,-204 269.5,-204 269.5,-352"/>
<text text-anchor="start" x="149" y="-338.5" font-family="Helvetica,sans-Serif" font-size="10.00">hri::DescriptorSetAllocator</text>
<text text-anchor="start" x="204.5" y="-322.5" font-family="Helvetica,sans-Serif" font-size="10.00"> </text>
<text text-anchor="start" x="146.5" y="-306.5" font-family="Helvetica,sans-Serif" font-size="10.00">+</text>
<text text-anchor="start" x="156.5" y="-306.5" font-family="Helvetica,sans-Serif" font-size="10.00">DescriptorSetAllocator()</text>
<text text-anchor="start" x="146.5" y="-290.5" font-family="Helvetica,sans-Serif" font-size="10.00">+</text>
<text text-anchor="start" x="156.5" y="-290.5" font-family="Helvetica,sans-Serif" font-size="10.00">~DescriptorSetAllocator()</text>
<text text-anchor="start" x="146.5" y="-274.5" font-family="Helvetica,sans-Serif" font-size="10.00">+</text>
<text text-anchor="start" x="156.5" y="-274.5" font-family="Helvetica,sans-Serif" font-size="10.00">DescriptorSetAllocator()</text>
<text text-anchor="start" x="146.5" y="-258.5" font-family="Helvetica,sans-Serif" font-size="10.00">+</text>
<text text-anchor="start" x="156.5" y="-258.5" font-family="Helvetica,sans-Serif" font-size="10.00">operator=()</text>
<text text-anchor="start" x="146.5" y="-242.5" font-family="Helvetica,sans-Serif" font-size="10.00">+</text>
<text text-anchor="start" x="156.5" y="-242.5" font-family="Helvetica,sans-Serif" font-size="10.00">allocateDescriptorSet()</text>
<text text-anchor="start" x="146.5" y="-226.5" font-family="Helvetica,sans-Serif" font-size="10.00">+</text>
<text text-anchor="start" x="156.5" y="-226.5" font-family="Helvetica,sans-Serif" font-size="10.00">freeDescriptorSet()</text>
<text text-anchor="start" x="146.5" y="-210.5" font-family="Helvetica,sans-Serif" font-size="10.00">+</text>
<text text-anchor="start" x="156.5" y="-210.5" font-family="Helvetica,sans-Serif" font-size="10.00">reset()</text>
<polygon fill="#666666" stroke="#666666" points="142.5,-334 142.5,-334 269.5,-334 269.5,-334 142.5,-334"/>
<polygon fill="#666666" stroke="#666666" points="142.5,-318 142.5,-318 269.5,-318 269.5,-318 142.5,-318"/>
<polygon fill="none" stroke="#666666" points="142.5,-204 142.5,-352 269.5,-352 269.5,-204 142.5,-204"/>
</a>
</g>
</g>
<!-- Node5&#45;&gt;Node1 -->
<g id="edge4_Node000001_Node000005" class="edge">
<title>Node5&#45;&gt;Node1</title>
<g id="a_edge4_Node000001_Node000005"><a xlink:title=" ">
<path fill="none" stroke="#63b8ff" d="M206,-204.11C206,-179.88 206,-152.96 206,-128.96"/>
<polygon fill="none" stroke="#63b8ff" points="206,-128.86 202,-122.86 206,-116.86 210,-122.86 206,-128.86"/>
</a>
</g>
<text text-anchor="middle" x="268.25" y="-136.5" font-family="Helvetica,sans-Serif" font-size="10.00" fill="grey"> #m_pDescriptorSetAllocator</text>
</g>
<!-- Node6 -->
<g id="Node000006" class="node">
<title>Node6</title>
<g id="a_Node000006"><a xlink:href="structhri_1_1_pipeline_state_object.html" target="_top" xlink:title="A pipeline state object (PSO) stores a pipeline and its bind point.">
<polygon fill="white" stroke="none" points="410,-312 298,-312 298,-244 410,-244 410,-312"/>
<text text-anchor="start" x="302.62" y="-298.5" font-family="Helvetica,sans-Serif" font-size="10.00">hri::PipelineStateObject</text>
<text text-anchor="start" x="315.5" y="-282.5" font-family="Helvetica,sans-Serif" font-size="10.00">+</text>
<text text-anchor="start" x="339" y="-282.5" font-family="Helvetica,sans-Serif" font-size="10.00">bindPoint</text>
<text text-anchor="start" x="315.5" y="-266.5" font-family="Helvetica,sans-Serif" font-size="10.00">+</text>
<text text-anchor="start" x="339" y="-266.5" font-family="Helvetica,sans-Serif" font-size="10.00">pipeline</text>
<text text-anchor="start" x="352.5" y="-250.5" font-family="Helvetica,sans-Serif" font-size="10.00"> </text>
<polygon fill="#666666" stroke="#666666" points="298,-294 298,-294 410,-294 410,-294 298,-294"/>
<polygon fill="#666666" stroke="#666666" points="298,-262 298,-262 337,-262 337,-262 298,-262"/>
<polygon fill="#666666" stroke="#666666" points="337,-262 337,-262 410,-262 410,-262 337,-262"/>
<polygon fill="none" stroke="#666666" points="298,-244 298,-312 410,-312 410,-244 298,-244"/>
</a>
</g>
</g>
<!-- Node6&#45;&gt;Node1 -->
<g id="edge5_Node000001_Node000006" class="edge">
<title>Node6&#45;&gt;Node1</title>
<g id="a_edge5_Node000001_Node000006"><a xlink:title=" ">
<path fill="none" stroke="#63b8ff" d="M356.57,-244.05C357.33,-213.07 354.05,-166.7 332,-134 317.7,-112.79 295.21,-96.68 273.17,-84.92"/>
<polygon fill="none" stroke="#63b8ff" points="273.25,-84.97 266.1,-85.85 262.53,-79.58 269.69,-78.7 273.25,-84.97"/>
</a>
</g>
<text text-anchor="middle" x="361" y="-136.5" font-family="Helvetica,sans-Serif" font-size="10.00" fill="grey"> #m_pPSO</text>
</g>
</g>
</svg>

<g id="navigator" transform="translate(0 0)" fill="#404254">
  <rect fill="#f2f5e9" fill-opacity="0.5" stroke="#606060" stroke-width=".5" x="0" y="0" width="60" height="60"/>
  <use id="zoomplus" xlink:href="#zoomPlus" x="17" y="9" onmousedown="handleZoom(evt,'in')"/>
  <use id="zoomminus" xlink:href="#zoomMin" x="42" y="9" onmousedown="handleZoom(evt,'out')"/>
  <use id="reset" xlink:href="#resetDef" x="30" y="36" onmousedown="handleReset()"/>
   <use id="arrowup" xlink:href="#arrowUp" x="0" y="0" onmousedown="handlePan(0,-1)"/>
  <use id="arrowright" xlink:href="#arrowRight" x="0" y="0" onmousedown="handlePan(1,0)"/>
  <use id="arrowdown" xlink:href="#arrowDown" x="0" y="0" onmousedown="handlePan(0,1)"/>
  <use id="arrowleft" xlink:href="#arrowLeft" x="0" y="0" onmousedown="handlePan(-1,0)"/>
</g>
<svg viewBox="0 0 15 15" width="100%" height="30px" preserveAspectRatio="xMaxYMin meet">
 <g id="arrow_out" transform="scale(0.3 0.3)">
  <a xlink:href="classhri_1_1_i_render_subsystem__coll__graph_org.svg" target="_base">
   <rect id="button" ry="5" rx="5" y="6" x="6" height="38" width="38"
        fill="#f2f5e9" fill-opacity="0.5" stroke="#606060" stroke-width="1.0"/>
   <path id="arrow"
     d="M 11.500037,31.436501 C 11.940474,20.09759 22.043105,11.32322 32.158766,21.979434 L 37.068811,17.246167 C 37.068811,17.246167 37.088388,32 37.088388,32 L 22.160133,31.978069 C 22.160133,31.978069 26.997745,27.140456 26.997745,27.140456 C 18.528582,18.264221 13.291696,25.230495 11.500037,31.436501 z"
     style="fill:#404040;"/>
  </a>
 </g>
</svg>

<style type='text/css'>
<![CDATA[
[data-mouse-over-selected='false'] { opacity: 0.7; }
[data-mouse-over-selected='true']  { opacity: 1.0; }
]]>
</style>
<script type="application/ecmascript"><![CDATA[
document.addEventListener('DOMContentLoaded', (event) => {
  highlightEdges();
  highlightAdjacentNodes();
});
]]></script>
</svg>
