<?xml version="1.0" encoding="UTF-8" standalone="no"?>
<!DOCTYPE svg PUBLIC "-//W3C//DTD SVG 1.1//EN"
 "http://www.w3.org/Graphics/SVG/1.1/DTD/svg11.dtd">
<!-- Generated by graphviz version 10.0.1 (20240210.2158)
 -->
<!-- Title: Renderer::drawFrame Pages: 1 -->
<svg width="459pt" height="298pt"
 viewBox="0.00 0.00 458.75 298.00" xmlns="http://www.w3.org/2000/svg" xmlns:xlink="http://www.w3.org/1999/xlink">
<g id="graph0" class="graph" transform="scale(1 1) rotate(0) translate(4 294)">
<title>Renderer::drawFrame</title>
<!-- Node1 -->
<g id="Node000001" class="node">
<title>Node1</title>
<g id="a_Node000001"><a xlink:title=" ">
<polygon fill="#999999" stroke="#666666" points="109,-158 0,-158 0,-138 109,-138 109,-158"/>
<text text-anchor="middle" x="54.5" y="-144.5" font-family="Helvetica,sans-Serif" font-size="10.00">Renderer::drawFrame</text>
</a>
</g>
</g>
<!-- Node2 -->
<g id="Node000002" class="node">
<title>Node2</title>
<g id="a_Node000002"><a xlink:href="structhri_1_1_active_frame.html#a4a3c093f72eb04c992358080664336fa" target="_top" xlink:title="Begin rendering commands for this frame.">
<polygon fill="white" stroke="#666666" points="310.25,-290 145,-290 145,-270 310.25,-270 310.25,-290"/>
<text text-anchor="middle" x="227.62" y="-276.5" font-family="Helvetica,sans-Serif" font-size="10.00">hri::ActiveFrame::beginCommands</text>
</a>
</g>
</g>
<!-- Node1&#45;&gt;Node2 -->
<g id="edge1_Node000001_Node000002" class="edge">
<title>Node1&#45;&gt;Node2</title>
<g id="a_edge1_Node000001_Node000002"><a xlink:title=" ">
<path fill="none" stroke="#63b8ff" d="M60.58,-158.35C72.19,-180.85 102.93,-234.34 145,-261 147.28,-262.45 149.66,-263.78 152.11,-265.02"/>
<polygon fill="#63b8ff" stroke="#63b8ff" points="150.58,-268.16 161.14,-268.94 153.36,-261.74 150.58,-268.16"/>
</a>
</g>
</g>
<!-- Node3 -->
<g id="Node000003" class="node">
<title>Node3</title>
<g id="a_Node000003"><a xlink:href="structhri_1_1_buffer_resource.html#a2a8f6218347ba5e713be2b1c09abeaba" target="_top" xlink:title="Copy data to this buffer.">
<polygon fill="white" stroke="#666666" points="276.88,-252 178.38,-252 178.38,-220 276.88,-220 276.88,-252"/>
<text text-anchor="start" x="186.38" y="-238.5" font-family="Helvetica,sans-Serif" font-size="10.00">hri::BufferResource</text>
<text text-anchor="middle" x="227.62" y="-226.5" font-family="Helvetica,sans-Serif" font-size="10.00">::copyToBuffer</text>
</a>
</g>
</g>
<!-- Node1&#45;&gt;Node3 -->
<g id="edge2_Node000001_Node000003" class="edge">
<title>Node1&#45;&gt;Node3</title>
<g id="a_edge2_Node000001_Node000003"><a xlink:title=" ">
<path fill="none" stroke="#63b8ff" d="M67.46,-158.3C83.92,-172.03 114.96,-196.29 145,-211 152.06,-214.45 159.69,-217.55 167.36,-220.29"/>
<polygon fill="#63b8ff" stroke="#63b8ff" points="166.15,-223.57 176.74,-223.44 168.37,-216.94 166.15,-223.57"/>
</a>
</g>
</g>
<!-- Node4 -->
<g id="Node000004" class="node">
<title>Node4</title>
<g id="a_Node000004"><a xlink:href="classhri_1_1_render_core.html#aaa98d9771acdbbc31ebd77f9e1987ea9" target="_top" xlink:title="End the currently active frame, submitting recorded work to the GPU.">
<polygon fill="white" stroke="#666666" points="294.12,-202 161.12,-202 161.12,-182 294.12,-182 294.12,-202"/>
<text text-anchor="middle" x="227.62" y="-188.5" font-family="Helvetica,sans-Serif" font-size="10.00">hri::RenderCore::endFrame</text>
</a>
</g>
</g>
<!-- Node1&#45;&gt;Node4 -->
<g id="edge3_Node000001_Node000004" class="edge">
<title>Node1&#45;&gt;Node4</title>
<g id="a_edge3_Node000001_Node000004"><a xlink:title=" ">
<path fill="none" stroke="#63b8ff" d="M91.55,-158.46C107.83,-163.08 127.34,-168.48 145,-173 152.85,-175.01 161.15,-177.04 169.32,-179"/>
<polygon fill="#63b8ff" stroke="#63b8ff" points="168.34,-182.36 178.88,-181.25 169.95,-175.55 168.34,-182.36"/>
</a>
</g>
</g>
<!-- Node5 -->
<g id="Node000005" class="node">
<title>Node5</title>
<g id="a_Node000005"><a xlink:href="classhri_1_1_render_core.html#ad89555315c2eb5a161aa35e0363be9b8" target="_top" xlink:title="Retrive the currently active frame&#39;s data.">
<polygon fill="white" stroke="#666666" points="292.25,-164 163,-164 163,-132 292.25,-132 292.25,-164"/>
<text text-anchor="start" x="171" y="-150.5" font-family="Helvetica,sans-Serif" font-size="10.00">hri::RenderCore::getActive</text>
<text text-anchor="middle" x="227.62" y="-138.5" font-family="Helvetica,sans-Serif" font-size="10.00">Frame</text>
</a>
</g>
</g>
<!-- Node1&#45;&gt;Node5 -->
<g id="edge4_Node000001_Node000005" class="edge">
<title>Node1&#45;&gt;Node5</title>
<g id="a_edge4_Node000001_Node000005"><a xlink:title=" ">
<path fill="none" stroke="#63b8ff" d="M109.18,-148C122.56,-148 137.15,-148 151.36,-148"/>
<polygon fill="#63b8ff" stroke="#63b8ff" points="151.13,-151.5 161.13,-148 151.13,-144.5 151.13,-151.5"/>
</a>
</g>
</g>
<!-- Node6 -->
<g id="Node000006" class="node">
<title>Node6</title>
<g id="a_Node000006"><a xlink:href="classhri_1_1_camera.html#a86d982164352fcf5f146274c23f5b17a" target="_top" xlink:title="Retrieve the camera data in a shader ready layout.">
<polygon fill="white" stroke="#666666" points="296,-114 159.25,-114 159.25,-94 296,-94 296,-114"/>
<text text-anchor="middle" x="227.62" y="-100.5" font-family="Helvetica,sans-Serif" font-size="10.00">hri::Camera::getShaderData</text>
</a>
</g>
</g>
<!-- Node1&#45;&gt;Node6 -->
<g id="edge5_Node000001_Node000006" class="edge">
<title>Node1&#45;&gt;Node6</title>
<g id="a_edge5_Node000001_Node000006"><a xlink:title=" ">
<path fill="none" stroke="#63b8ff" d="M91.55,-137.54C107.83,-132.92 127.34,-127.52 145,-123 152.85,-120.99 161.15,-118.96 169.32,-117"/>
<polygon fill="#63b8ff" stroke="#63b8ff" points="169.95,-120.45 178.88,-114.75 168.34,-113.64 169.95,-120.45"/>
</a>
</g>
</g>
<!-- Node7 -->
<g id="Node000007" class="node">
<title>Node7</title>
<g id="a_Node000007"><a xlink:href="classhri_1_1_render_subsystem_manager.html#a3ac43dbf8182362d7621a4052de0e1e7" target="_top" xlink:title="Record a subsystem&#39;s render commands.">
<polygon fill="white" stroke="#666666" points="302.75,-76 152.5,-76 152.5,-44 302.75,-44 302.75,-76"/>
<text text-anchor="start" x="160.5" y="-62.5" font-family="Helvetica,sans-Serif" font-size="10.00">hri::RenderSubsystemManager</text>
<text text-anchor="middle" x="227.62" y="-50.5" font-family="Helvetica,sans-Serif" font-size="10.00">::recordSubsystem</text>
</a>
</g>
</g>
<!-- Node1&#45;&gt;Node7 -->
<g id="edge6_Node000001_Node000007" class="edge">
<title>Node1&#45;&gt;Node7</title>
<g id="a_edge6_Node000001_Node000007"><a xlink:title=" ">
<path fill="none" stroke="#63b8ff" d="M67.46,-137.7C83.92,-123.97 114.96,-99.71 145,-85 148.09,-83.48 151.3,-82.04 154.57,-80.66"/>
<polygon fill="#63b8ff" stroke="#63b8ff" points="155.75,-83.96 163.78,-77.05 153.19,-77.44 155.75,-83.96"/>
</a>
</g>
</g>
<!-- Node8 -->
<g id="Node000008" class="node">
<title>Node8</title>
<g id="a_Node000008"><a xlink:href="classhri_1_1_render_core.html#a0effa6efd78811071c92ffb467678145" target="_top" xlink:title="Start a new frame.">
<polygon fill="white" stroke="#666666" points="296,-26 159.25,-26 159.25,-6 296,-6 296,-26"/>
<text text-anchor="middle" x="227.62" y="-12.5" font-family="Helvetica,sans-Serif" font-size="10.00">hri::RenderCore::startFrame</text>
</a>
</g>
</g>
<!-- Node1&#45;&gt;Node8 -->
<g id="edge7_Node000001_Node000008" class="edge">
<title>Node1&#45;&gt;Node8</title>
<g id="a_edge7_Node000001_Node000008"><a xlink:title=" ">
<path fill="none" stroke="#63b8ff" d="M60.58,-137.65C72.19,-115.15 102.93,-61.66 145,-35 147.28,-33.55 149.66,-32.22 152.11,-30.98"/>
<polygon fill="#63b8ff" stroke="#63b8ff" points="153.36,-34.26 161.14,-27.06 150.58,-27.84 153.36,-34.26"/>
</a>
</g>
</g>
<!-- Node9 -->
<g id="Node000009" class="node">
<title>Node9</title>
<g id="a_Node000009"><a xlink:href="classhri_1_1_render_context.html#add095daf5c2e22f4250ac18c02fbbe50" target="_top" xlink:title="Recreate the swap chain, freeing old resources. NOTE: does not free any allocated swap images or view...">
<polygon fill="white" stroke="#666666" points="450.75,-32 346.25,-32 346.25,0 450.75,0 450.75,-32"/>
<text text-anchor="start" x="354.25" y="-18.5" font-family="Helvetica,sans-Serif" font-size="10.00">hri::RenderContext</text>
<text text-anchor="middle" x="398.5" y="-6.5" font-family="Helvetica,sans-Serif" font-size="10.00">::recreateSwapchain</text>
</a>
</g>
</g>
<!-- Node8&#45;&gt;Node9 -->
<g id="edge8_Node000008_Node000009" class="edge">
<title>Node8&#45;&gt;Node9</title>
<g id="a_edge8_Node000008_Node000009"><a xlink:title=" ">
<path fill="none" stroke="#63b8ff" d="M296.34,-16C308.99,-16 322.15,-16 334.64,-16"/>
<polygon fill="#63b8ff" stroke="#63b8ff" points="334.38,-19.5 344.38,-16 334.38,-12.5 334.38,-19.5"/>
</a>
</g>
</g>
</g>
</svg>
