<?xml version="1.0" encoding="UTF-8" standalone="no"?>
<!DOCTYPE svg PUBLIC "-//W3C//DTD SVG 1.1//EN"
 "http://www.w3.org/Graphics/SVG/1.1/DTD/svg11.dtd">
<!-- Generated by graphviz version 10.0.1 (20240210.2158)
 -->
<!-- Title: GBufferLayoutSubsystem::GBufferLayoutSubsystem Pages: 1 -->
<!--zoomable 490 -->

<svg id="main" version="1.1" xmlns="http://www.w3.org/2000/svg" xmlns:xlink="http://www.w3.org/1999/xlink" xml:space="preserve" onload="init(evt)">
<style type="text/css"><![CDATA[
.node, .edge {opacity: 0.7;}
.node.selected, .edge.selected {opacity: 1;}
.edge:hover path { stroke: red; }
.edge:hover polygon { stroke: red; fill: red; }
]]></style>

<defs>
  <circle id="rim" cx="0" cy="0" r="7"/>
  <circle id="rim2" cx="0" cy="0" r="3.5"/>
  <g id="zoomPlus">
    <use xlink:href="#rim" fill="#404040"><set attributeName="fill" to="#808080" begin="zoomplus.mouseover" end="zoomplus.mouseout"/></use>
    <path d="M-4,0h8M0,-4v8" fill="none" stroke="white" stroke-width="1.5" pointer-events="none"/>
  </g>
  <g id="zoomMin">
    <use xlink:href="#rim" fill="#404040"><set attributeName="fill" to="#808080" begin="zoomminus.mouseover" end="zoomminus.mouseout"/></use>
    <path d="M-4,0h8" fill="none" stroke="white" stroke-width="1.5" pointer-events="none"/>
  </g>
  <g id="arrowUp" transform="translate(30 24)">
    <use xlink:href="#rim"/>
    <path pointer-events="none" fill="none" stroke="white" stroke-width="1.5" d="M0,-3.0v7 M-2.5,-0.5L0,-3.0L2.5,-0.5"/>
  </g>
  <g id="arrowRight" transform="rotate(90) translate(36 -43)">
    <use xlink:href="#rim"/>
    <path pointer-events="none" fill="none" stroke="white" stroke-width="1.5" d="M0,-3.0v7 M-2.5,-0.5L0,-3.0L2.5,-0.5"/>
  </g>
  <g id="arrowDown" transform="rotate(180) translate(-30 -48)">
    <use xlink:href="#rim"/>
    <path pointer-events="none" fill="none" stroke="white" stroke-width="1.5" d="M0,-3.0v7 M-2.5,-0.5L0,-3.0L2.5,-0.5"/>
  </g>
  <g id="arrowLeft" transform="rotate(270) translate(-36 17)">
    <use xlink:href="#rim"/>
    <path pointer-events="none" fill="none" stroke="white" stroke-width="1.5" d="M0,-3.0v7 M-2.5,-0.5L0,-3.0L2.5,-0.5"/>
  </g>
  <g id="resetDef">
    <use xlink:href="#rim2" fill="#404040"><set attributeName="fill" to="#808080" begin="reset.mouseover" end="reset.mouseout"/></use>
  </g>
</defs>
<script type="application/ecmascript">
var viewWidth = 313;
var viewHeight = 490;
var sectionId = 'dynsection-2';
</script>
<script type="application/ecmascript" xlink:href="svg.min.js"/>
<svg id="graph" class="graph">
<g id="viewport">
<title>GBufferLayoutSubsystem::GBufferLayoutSubsystem</title>
<!-- Node1 -->
<g id="Node000001" class="node">
<title>Node1</title>
<g id="a_Node000001"><a xlink:title="Create a new GBuffer Layout subsystem.">
<polygon fill="#999999" stroke="#666666" points="133,-257 0,-257 0,-225 133,-225 133,-257"/>
<text text-anchor="start" x="8" y="-243.5" font-family="Helvetica,sans-Serif" font-size="10.00">GBufferLayoutSubsystem</text>
<text text-anchor="middle" x="66.5" y="-231.5" font-family="Helvetica,sans-Serif" font-size="10.00">::GBufferLayoutSubsystem</text>
</a>
</g>
</g>
<!-- Node2 -->
<g id="Node000002" class="node">
<title>Node2</title>
<g id="a_Node000002"><a xlink:href="classhri_1_1_pipeline_layout_builder.html#aa7d886ec4265dc7dd15243401f8b23c6" target="_top" xlink:title="Add a new Descriptor Set Layout to the pipeline layout.">
<polygon fill="white" stroke="#666666" points="300.12,-482 173.88,-482 173.88,-450 300.12,-450 300.12,-482"/>
<text text-anchor="start" x="181.88" y="-468.5" font-family="Helvetica,sans-Serif" font-size="10.00">hri::PipelineLayoutBuilder</text>
<text text-anchor="middle" x="237" y="-456.5" font-family="Helvetica,sans-Serif" font-size="10.00">::addDescriptorSetLayout</text>
</a>
</g>
</g>
<!-- Node1&#45;&gt;Node2 -->
<g id="edge1_Node000001_Node000002" class="edge">
<title>Node1&#45;&gt;Node2</title>
<g id="a_edge1_Node000001_Node000002"><a xlink:title=" ">
<path fill="none" stroke="#63b8ff" d="M71.39,-257.23C81.2,-294.84 110.49,-388.73 169,-441 169.9,-441.81 170.83,-442.59 171.79,-443.34"/>
<polygon fill="#63b8ff" stroke="#63b8ff" points="169.47,-446 179.72,-448.67 173.37,-440.19 169.47,-446"/>
</a>
</g>
</g>
<!-- Node3 -->
<g id="Node000003" class="node">
<title>Node3</title>
<g id="a_Node000003"><a xlink:href="classhri_1_1_pipeline_layout_builder.html#a4952201b84eef285b8c048b048025bc2" target="_top" xlink:title="Add a push constant to the pipeline layout.">
<polygon fill="white" stroke="#666666" points="300.12,-432 173.88,-432 173.88,-400 300.12,-400 300.12,-432"/>
<text text-anchor="start" x="181.88" y="-418.5" font-family="Helvetica,sans-Serif" font-size="10.00">hri::PipelineLayoutBuilder</text>
<text text-anchor="middle" x="237" y="-406.5" font-family="Helvetica,sans-Serif" font-size="10.00">::addPushConstant</text>
</a>
</g>
</g>
<!-- Node1&#45;&gt;Node3 -->
<g id="edge2_Node000001_Node000003" class="edge">
<title>Node1&#45;&gt;Node3</title>
<g id="a_edge2_Node000001_Node000003"><a xlink:title=" ">
<path fill="none" stroke="#63b8ff" d="M74.46,-257.44C88.18,-287.96 121.55,-353.68 169,-391 170.15,-391.91 171.34,-392.78 172.56,-393.63"/>
<polygon fill="#63b8ff" stroke="#63b8ff" points="170.74,-396.62 181.11,-398.78 174.35,-390.62 170.74,-396.62"/>
</a>
</g>
</g>
<!-- Node4 -->
<g id="Node000004" class="node">
<title>Node4</title>
<g id="a_Node000004"><a xlink:href="classhri_1_1_pipeline_layout_builder.html#ad88e3add16c5f341425531e1db34c77d" target="_top" xlink:title="Build the configured pipeline layout.">
<polygon fill="white" stroke="#666666" points="300.12,-382 173.88,-382 173.88,-350 300.12,-350 300.12,-382"/>
<text text-anchor="start" x="181.88" y="-368.5" font-family="Helvetica,sans-Serif" font-size="10.00">hri::PipelineLayoutBuilder</text>
<text text-anchor="middle" x="237" y="-356.5" font-family="Helvetica,sans-Serif" font-size="10.00">::build</text>
</a>
</g>
</g>
<!-- Node1&#45;&gt;Node4 -->
<g id="edge3_Node000001_Node000004" class="edge">
<title>Node1&#45;&gt;Node4</title>
<g id="a_edge3_Node000001_Node000004"><a xlink:title=" ">
<path fill="none" stroke="#63b8ff" d="M80.29,-257.34C98.08,-279.11 132.29,-317.6 169,-341 170.96,-342.25 173,-343.45 175.08,-344.61"/>
<polygon fill="#63b8ff" stroke="#63b8ff" points="173.27,-347.62 183.78,-348.97 176.41,-341.36 173.27,-347.62"/>
</a>
</g>
</g>
<!-- Node5 -->
<g id="Node000005" class="node">
<title>Node5</title>
<g id="a_Node000005"><a xlink:href="structhri_1_1_graphics_pipeline_builder.html#a6c9fa89e6b0675c7f460f67f2d674479" target="_top" xlink:title=" ">
<polygon fill="white" stroke="#666666" points="305,-332 169,-332 169,-300 305,-300 305,-332"/>
<text text-anchor="start" x="177" y="-318.5" font-family="Helvetica,sans-Serif" font-size="10.00">hri::GraphicsPipelineBuilder</text>
<text text-anchor="middle" x="237" y="-306.5" font-family="Helvetica,sans-Serif" font-size="10.00">::initColorBlendState</text>
</a>
</g>
</g>
<!-- Node1&#45;&gt;Node5 -->
<g id="edge4_Node000001_Node000005" class="edge">
<title>Node1&#45;&gt;Node5</title>
<g id="a_edge4_Node000001_Node000005"><a xlink:title=" ">
<path fill="none" stroke="#63b8ff" d="M98.67,-257.37C118.55,-267.56 145.01,-280.65 169,-291 172.36,-292.45 175.84,-293.9 179.36,-295.33"/>
<polygon fill="#63b8ff" stroke="#63b8ff" points="177.99,-298.55 188.58,-298.97 180.56,-292.04 177.99,-298.55"/>
</a>
</g>
</g>
<!-- Node6 -->
<g id="Node000006" class="node">
<title>Node6</title>
<g id="a_Node000006"><a xlink:href="structhri_1_1_graphics_pipeline_builder.html#aebf69250a889e1ac3196f3c54b147630" target="_top" xlink:title=" ">
<polygon fill="white" stroke="#666666" points="305,-282 169,-282 169,-250 305,-250 305,-282"/>
<text text-anchor="start" x="177" y="-268.5" font-family="Helvetica,sans-Serif" font-size="10.00">hri::GraphicsPipelineBuilder</text>
<text text-anchor="middle" x="237" y="-256.5" font-family="Helvetica,sans-Serif" font-size="10.00">::initDefaultScissor</text>
</a>
</g>
</g>
<!-- Node1&#45;&gt;Node6 -->
<g id="edge5_Node000001_Node000006" class="edge">
<title>Node1&#45;&gt;Node6</title>
<g id="a_edge5_Node000001_Node000006"><a xlink:title=" ">
<path fill="none" stroke="#63b8ff" d="M133.13,-250.74C141.04,-251.91 149.19,-253.12 157.26,-254.32"/>
<polygon fill="#63b8ff" stroke="#63b8ff" points="156.7,-257.77 167.11,-255.78 157.73,-250.85 156.7,-257.77"/>
</a>
</g>
</g>
<!-- Node7 -->
<g id="Node000007" class="node">
<title>Node7</title>
<g id="a_Node000007"><a xlink:href="structhri_1_1_graphics_pipeline_builder.html#a50539a9cc2f38a2da3416d07f069e8b3" target="_top" xlink:title=" ">
<polygon fill="white" stroke="#666666" points="305,-232 169,-232 169,-200 305,-200 305,-232"/>
<text text-anchor="start" x="177" y="-218.5" font-family="Helvetica,sans-Serif" font-size="10.00">hri::GraphicsPipelineBuilder</text>
<text text-anchor="middle" x="237" y="-206.5" font-family="Helvetica,sans-Serif" font-size="10.00">::initDefaultViewport</text>
</a>
</g>
</g>
<!-- Node1&#45;&gt;Node7 -->
<g id="edge6_Node000001_Node000007" class="edge">
<title>Node1&#45;&gt;Node7</title>
<g id="a_edge6_Node000001_Node000007"><a xlink:title=" ">
<path fill="none" stroke="#63b8ff" d="M133.13,-231.26C141.04,-230.09 149.19,-228.88 157.26,-227.68"/>
<polygon fill="#63b8ff" stroke="#63b8ff" points="157.73,-231.15 167.11,-226.22 156.7,-224.23 157.73,-231.15"/>
</a>
</g>
</g>
<!-- Node8 -->
<g id="Node000008" class="node">
<title>Node8</title>
<g id="a_Node000008"><a xlink:href="structhri_1_1_graphics_pipeline_builder.html#abd3ba37381aa860148b95c6feb6ca129" target="_top" xlink:title=" ">
<polygon fill="white" stroke="#666666" points="305,-182 169,-182 169,-150 305,-150 305,-182"/>
<text text-anchor="start" x="177" y="-168.5" font-family="Helvetica,sans-Serif" font-size="10.00">hri::GraphicsPipelineBuilder</text>
<text text-anchor="middle" x="237" y="-156.5" font-family="Helvetica,sans-Serif" font-size="10.00">::initDepthStencilState</text>
</a>
</g>
</g>
<!-- Node1&#45;&gt;Node8 -->
<g id="edge7_Node000001_Node000008" class="edge">
<title>Node1&#45;&gt;Node8</title>
<g id="a_edge7_Node000001_Node000008"><a xlink:title=" ">
<path fill="none" stroke="#63b8ff" d="M98.67,-224.63C118.55,-214.44 145.01,-201.35 169,-191 172.36,-189.55 175.84,-188.1 179.36,-186.67"/>
<polygon fill="#63b8ff" stroke="#63b8ff" points="180.56,-189.96 188.58,-183.03 177.99,-183.45 180.56,-189.96"/>
</a>
</g>
</g>
<!-- Node9 -->
<g id="Node000009" class="node">
<title>Node9</title>
<g id="a_Node000009"><a xlink:href="structhri_1_1_graphics_pipeline_builder.html#ac7a8817225341e5268221226e0040b3b" target="_top" xlink:title=" ">
<polygon fill="white" stroke="#666666" points="305,-132 169,-132 169,-100 305,-100 305,-132"/>
<text text-anchor="start" x="177" y="-118.5" font-family="Helvetica,sans-Serif" font-size="10.00">hri::GraphicsPipelineBuilder</text>
<text text-anchor="middle" x="237" y="-106.5" font-family="Helvetica,sans-Serif" font-size="10.00">::initInputAssemblyState</text>
</a>
</g>
</g>
<!-- Node1&#45;&gt;Node9 -->
<g id="edge8_Node000001_Node000009" class="edge">
<title>Node1&#45;&gt;Node9</title>
<g id="a_edge8_Node000001_Node000009"><a xlink:title=" ">
<path fill="none" stroke="#63b8ff" d="M80.29,-224.66C98.08,-202.89 132.29,-164.4 169,-141 170.96,-139.75 173,-138.55 175.08,-137.39"/>
<polygon fill="#63b8ff" stroke="#63b8ff" points="176.41,-140.64 183.78,-133.03 173.27,-134.38 176.41,-140.64"/>
</a>
</g>
</g>
<!-- Node10 -->
<g id="Node000010" class="node">
<title>Node10</title>
<g id="a_Node000010"><a xlink:href="structhri_1_1_graphics_pipeline_builder.html#ac0e003f458114cb94bdce9d73d6b6526" target="_top" xlink:title=" ">
<polygon fill="white" stroke="#666666" points="305,-82 169,-82 169,-50 305,-50 305,-82"/>
<text text-anchor="start" x="177" y="-68.5" font-family="Helvetica,sans-Serif" font-size="10.00">hri::GraphicsPipelineBuilder</text>
<text text-anchor="middle" x="237" y="-56.5" font-family="Helvetica,sans-Serif" font-size="10.00">::initMultisampleState</text>
</a>
</g>
</g>
<!-- Node1&#45;&gt;Node10 -->
<g id="edge9_Node000001_Node000010" class="edge">
<title>Node1&#45;&gt;Node10</title>
<g id="a_edge9_Node000001_Node000010"><a xlink:title=" ">
<path fill="none" stroke="#63b8ff" d="M74.46,-224.56C88.18,-194.04 121.55,-128.32 169,-91 170.15,-90.09 171.34,-89.22 172.56,-88.37"/>
<polygon fill="#63b8ff" stroke="#63b8ff" points="174.35,-91.38 181.11,-83.22 170.74,-85.38 174.35,-91.38"/>
</a>
</g>
</g>
<!-- Node11 -->
<g id="Node000011" class="node">
<title>Node11</title>
<g id="a_Node000011"><a xlink:href="structhri_1_1_graphics_pipeline_builder.html#aaaa7a563067832f496b46ee8174db0ec" target="_top" xlink:title=" ">
<polygon fill="white" stroke="#666666" points="305,-32 169,-32 169,0 305,0 305,-32"/>
<text text-anchor="start" x="177" y="-18.5" font-family="Helvetica,sans-Serif" font-size="10.00">hri::GraphicsPipelineBuilder</text>
<text text-anchor="middle" x="237" y="-6.5" font-family="Helvetica,sans-Serif" font-size="10.00">::initRasterizationState</text>
</a>
</g>
</g>
<!-- Node1&#45;&gt;Node11 -->
<g id="edge10_Node000001_Node000011" class="edge">
<title>Node1&#45;&gt;Node11</title>
<g id="a_edge10_Node000001_Node000011"><a xlink:title=" ">
<path fill="none" stroke="#63b8ff" d="M71.39,-224.77C81.2,-187.16 110.49,-93.27 169,-41 169.9,-40.19 170.83,-39.41 171.79,-38.66"/>
<polygon fill="#63b8ff" stroke="#63b8ff" points="173.37,-41.81 179.72,-33.33 169.47,-36 173.37,-41.81"/>
</a>
</g>
</g>
</g>
</svg>

<g id="navigator" transform="translate(0 0)" fill="#404254">
  <rect fill="#f2f5e9" fill-opacity="0.5" stroke="#606060" stroke-width=".5" x="0" y="0" width="60" height="60"/>
  <use id="zoomplus" xlink:href="#zoomPlus" x="17" y="9" onmousedown="handleZoom(evt,'in')"/>
  <use id="zoomminus" xlink:href="#zoomMin" x="42" y="9" onmousedown="handleZoom(evt,'out')"/>
  <use id="reset" xlink:href="#resetDef" x="30" y="36" onmousedown="handleReset()"/>
   <use id="arrowup" xlink:href="#arrowUp" x="0" y="0" onmousedown="handlePan(0,-1)"/>
  <use id="arrowright" xlink:href="#arrowRight" x="0" y="0" onmousedown="handlePan(1,0)"/>
  <use id="arrowdown" xlink:href="#arrowDown" x="0" y="0" onmousedown="handlePan(0,1)"/>
  <use id="arrowleft" xlink:href="#arrowLeft" x="0" y="0" onmousedown="handlePan(-1,0)"/>
</g>
<svg viewBox="0 0 15 15" width="100%" height="30px" preserveAspectRatio="xMaxYMin meet">
 <g id="arrow_out" transform="scale(0.3 0.3)">
  <a xlink:href="class_g_buffer_layout_subsystem_a26867401ba6679f838b890edbb4ebceb_cgraph_org.svg" target="_base">
   <rect id="button" ry="5" rx="5" y="6" x="6" height="38" width="38"
        fill="#f2f5e9" fill-opacity="0.5" stroke="#606060" stroke-width="1.0"/>
   <path id="arrow"
     d="M 11.500037,31.436501 C 11.940474,20.09759 22.043105,11.32322 32.158766,21.979434 L 37.068811,17.246167 C 37.068811,17.246167 37.088388,32 37.088388,32 L 22.160133,31.978069 C 22.160133,31.978069 26.997745,27.140456 26.997745,27.140456 C 18.528582,18.264221 13.291696,25.230495 11.500037,31.436501 z"
     style="fill:#404040;"/>
  </a>
 </g>
</svg>

<style type='text/css'>
<![CDATA[
[data-mouse-over-selected='false'] { opacity: 0.7; }
[data-mouse-over-selected='true']  { opacity: 1.0; }
]]>
</style>
<script type="application/ecmascript"><![CDATA[
document.addEventListener('DOMContentLoaded', (event) => {
  highlightEdges();
  highlightAdjacentNodes();
});
]]></script>
</svg>
