<?xml version="1.0" encoding="UTF-8" standalone="no"?>
<!DOCTYPE svg PUBLIC "-//W3C//DTD SVG 1.1//EN"
 "http://www.w3.org/Graphics/SVG/1.1/DTD/svg11.dtd">
<!-- Generated by graphviz version 10.0.1 (20240210.2158)
 -->
<!-- Title: hri::IRenderSubsystem Pages: 1 -->
<svg width="500pt" height="972pt"
 viewBox="0.00 0.00 500.00 972.00" xmlns="http://www.w3.org/2000/svg" xmlns:xlink="http://www.w3.org/1999/xlink">
<g id="graph0" class="graph" transform="scale(1 1) rotate(0) translate(4 968)">
<title>hri::IRenderSubsystem</title>
<!-- Node1 -->
<g id="Node000001" class="node">
<title>Node1</title>
<g id="a_Node000001"><a xlink:title="A Render Subsystem manages a render pipeline, layout, and subsystem descriptors. A Render Subsystem b...">
<polygon fill="#999999" stroke="none" points="357,-200 183,-200 183,0 357,0 357,-200"/>
<text text-anchor="start" x="220.5" y="-186.5" font-family="Helvetica,sans-Serif" font-size="10.00">hri::IRenderSubsystem</text>
<text text-anchor="start" x="187.38" y="-170.5" font-family="Helvetica,sans-Serif" font-size="10.00">#</text>
<text text-anchor="start" x="197" y="-170.5" font-family="Helvetica,sans-Serif" font-size="10.00">VkPipelineLayout m</text>
<text text-anchor="start" x="197" y="-158.5" font-family="Helvetica,sans-Serif" font-size="10.00">_layout</text>
<text text-anchor="start" x="187" y="-142.5" font-family="Helvetica,sans-Serif" font-size="10.00">+</text>
<text text-anchor="start" x="197" y="-142.5" font-family="Helvetica,sans-Serif" font-size="10.00">IRenderSubsystem(Render</text>
<text text-anchor="start" x="197" y="-130.5" font-family="Helvetica,sans-Serif" font-size="10.00">Context &amp;ctx)</text>
<text text-anchor="start" x="187" y="-114.5" font-family="Helvetica,sans-Serif" font-size="10.00">+</text>
<text text-anchor="start" x="197" y="-114.5" font-family="Helvetica,sans-Serif" font-size="10.00">virtual ~IRenderSubsystem()</text>
<text text-anchor="start" x="187" y="-98.5" font-family="Helvetica,sans-Serif" font-size="10.00">+</text>
<text text-anchor="start" x="197" y="-98.5" font-family="Helvetica,sans-Serif" font-size="10.00">IRenderSubsystem(const</text>
<text text-anchor="start" x="197" y="-86.5" font-family="Helvetica,sans-Serif" font-size="10.00"> IRenderSubsystem &amp;)=delete</text>
<text text-anchor="start" x="187" y="-70.5" font-family="Helvetica,sans-Serif" font-size="10.00">+</text>
<text text-anchor="start" x="197" y="-70.5" font-family="Helvetica,sans-Serif" font-size="10.00">IRenderSubsystem &amp;</text>
<text text-anchor="start" x="197" y="-58.5" font-family="Helvetica,sans-Serif" font-size="10.00"> operator=(const IRenderSubsystem</text>
<text text-anchor="start" x="197" y="-46.5" font-family="Helvetica,sans-Serif" font-size="10.00"> &amp;)=delete</text>
<text text-anchor="start" x="187" y="-30.5" font-family="Helvetica,sans-Serif" font-size="10.00">+</text>
<text text-anchor="start" x="197" y="-30.5" font-family="Helvetica,sans-Serif" font-size="10.00">virtual void record</text>
<text text-anchor="start" x="197" y="-18.5" font-family="Helvetica,sans-Serif" font-size="10.00">(ActiveFrame &amp;frame)</text>
<text text-anchor="start" x="197" y="-6.5" font-family="Helvetica,sans-Serif" font-size="10.00"> const =0</text>
<polygon fill="#666666" stroke="#666666" points="183,-182 183,-182 357,-182 357,-182 183,-182"/>
<polygon fill="#666666" stroke="#666666" points="183,-154 183,-154 195,-154 195,-154 183,-154"/>
<polygon fill="#666666" stroke="#666666" points="195,-154 195,-154 357,-154 357,-154 195,-154"/>
<polygon fill="none" stroke="#666666" points="183,0 183,-200 357,-200 357,0 183,0"/>
</a>
</g>
</g>
<!-- Node2 -->
<g id="Node000002" class="node">
<title>Node2</title>
<g id="a_Node000002"><a xlink:href="classhri_1_1_render_context.html" target="_top" xlink:title="THe RenderContext manages the Vulkan instance, device, and swapchain state.">
<polygon fill="white" stroke="none" points="160,-672 0,-672 0,-248 160,-248 160,-672"/>
<text text-anchor="start" x="39.5" y="-658.5" font-family="Helvetica,sans-Serif" font-size="10.00">hri::RenderContext</text>
<text text-anchor="start" x="4" y="-642.5" font-family="Helvetica,sans-Serif" font-size="10.00">+</text>
<text text-anchor="start" x="14" y="-642.5" font-family="Helvetica,sans-Serif" font-size="10.00">vkb::Instance instance</text>
<text text-anchor="start" x="4" y="-626.5" font-family="Helvetica,sans-Serif" font-size="10.00">+</text>
<text text-anchor="start" x="14" y="-626.5" font-family="Helvetica,sans-Serif" font-size="10.00">VkSurfaceKHR surface</text>
<text text-anchor="start" x="4" y="-610.5" font-family="Helvetica,sans-Serif" font-size="10.00">+</text>
<text text-anchor="start" x="14" y="-610.5" font-family="Helvetica,sans-Serif" font-size="10.00">vkb::PhysicalDevice gpu</text>
<text text-anchor="start" x="4" y="-594.5" font-family="Helvetica,sans-Serif" font-size="10.00">+</text>
<text text-anchor="start" x="14" y="-594.5" font-family="Helvetica,sans-Serif" font-size="10.00">vkb::Device device</text>
<text text-anchor="start" x="4" y="-578.5" font-family="Helvetica,sans-Serif" font-size="10.00">+</text>
<text text-anchor="start" x="14" y="-578.5" font-family="Helvetica,sans-Serif" font-size="10.00">VmaAllocator allocator</text>
<text text-anchor="start" x="4" y="-562.5" font-family="Helvetica,sans-Serif" font-size="10.00">+</text>
<text text-anchor="start" x="14" y="-562.5" font-family="Helvetica,sans-Serif" font-size="10.00">vkb::Swapchain swapchain</text>
<text text-anchor="start" x="4" y="-546.5" font-family="Helvetica,sans-Serif" font-size="10.00">+</text>
<text text-anchor="start" x="14" y="-546.5" font-family="Helvetica,sans-Serif" font-size="10.00">RenderContext(RenderContext</text>
<text text-anchor="start" x="14" y="-534.5" font-family="Helvetica,sans-Serif" font-size="10.00">CreateInfo &amp;createInfo)</text>
<text text-anchor="start" x="4" y="-518.5" font-family="Helvetica,sans-Serif" font-size="10.00">+</text>
<text text-anchor="start" x="14" y="-518.5" font-family="Helvetica,sans-Serif" font-size="10.00">virtual ~RenderContext()</text>
<text text-anchor="start" x="4" y="-502.5" font-family="Helvetica,sans-Serif" font-size="10.00">+</text>
<text text-anchor="start" x="14" y="-502.5" font-family="Helvetica,sans-Serif" font-size="10.00">RenderContext(const</text>
<text text-anchor="start" x="14" y="-490.5" font-family="Helvetica,sans-Serif" font-size="10.00"> RenderContext &amp;)=delete</text>
<text text-anchor="start" x="4" y="-474.5" font-family="Helvetica,sans-Serif" font-size="10.00">+</text>
<text text-anchor="start" x="14" y="-474.5" font-family="Helvetica,sans-Serif" font-size="10.00">RenderContext &amp; operator</text>
<text text-anchor="start" x="14" y="-462.5" font-family="Helvetica,sans-Serif" font-size="10.00">=(const RenderContext &amp;)</text>
<text text-anchor="start" x="14" y="-450.5" font-family="Helvetica,sans-Serif" font-size="10.00">=delete</text>
<text text-anchor="start" x="4" y="-434.5" font-family="Helvetica,sans-Serif" font-size="10.00">+</text>
<text text-anchor="start" x="14" y="-434.5" font-family="Helvetica,sans-Serif" font-size="10.00">RenderContext(RenderContext</text>
<text text-anchor="start" x="14" y="-422.5" font-family="Helvetica,sans-Serif" font-size="10.00"> &amp;&amp;other) noexcept</text>
<text text-anchor="start" x="4" y="-406.5" font-family="Helvetica,sans-Serif" font-size="10.00">+</text>
<text text-anchor="start" x="14" y="-406.5" font-family="Helvetica,sans-Serif" font-size="10.00">RenderContext &amp; operator</text>
<text text-anchor="start" x="14" y="-394.5" font-family="Helvetica,sans-Serif" font-size="10.00">=(RenderContext &amp;&amp;other)</text>
<text text-anchor="start" x="14" y="-382.5" font-family="Helvetica,sans-Serif" font-size="10.00"> noexcept</text>
<text text-anchor="start" x="4" y="-366.5" font-family="Helvetica,sans-Serif" font-size="10.00">+</text>
<text text-anchor="start" x="14" y="-366.5" font-family="Helvetica,sans-Serif" font-size="10.00">void setVSyncMode(VSyncMode</text>
<text text-anchor="start" x="14" y="-354.5" font-family="Helvetica,sans-Serif" font-size="10.00"> vsyncMode)</text>
<text text-anchor="start" x="4" y="-338.5" font-family="Helvetica,sans-Serif" font-size="10.00">+</text>
<text text-anchor="start" x="14" y="-338.5" font-family="Helvetica,sans-Serif" font-size="10.00">void recreateSwapchain()</text>
<text text-anchor="start" x="4" y="-322.5" font-family="Helvetica,sans-Serif" font-size="10.00">+</text>
<text text-anchor="start" x="14" y="-322.5" font-family="Helvetica,sans-Serif" font-size="10.00">_PFn getInstanceFunction</text>
<text text-anchor="start" x="14" y="-310.5" font-family="Helvetica,sans-Serif" font-size="10.00">(const char *name) const</text>
<text text-anchor="start" x="4" y="-294.5" font-family="Helvetica,sans-Serif" font-size="10.00">+</text>
<text text-anchor="start" x="14" y="-294.5" font-family="Helvetica,sans-Serif" font-size="10.00">_PFn getDeviceFunction</text>
<text text-anchor="start" x="14" y="-282.5" font-family="Helvetica,sans-Serif" font-size="10.00">(const char *name) const</text>
<text text-anchor="start" x="4" y="-266.5" font-family="Helvetica,sans-Serif" font-size="10.00">+</text>
<text text-anchor="start" x="14" y="-266.5" font-family="Helvetica,sans-Serif" font-size="10.00">VkFormat swapFormat</text>
<text text-anchor="start" x="14" y="-254.5" font-family="Helvetica,sans-Serif" font-size="10.00">() const</text>
<polygon fill="#666666" stroke="#666666" points="0,-654 0,-654 160,-654 160,-654 0,-654"/>
<polygon fill="#666666" stroke="#666666" points="0,-558 0,-558 12,-558 12,-558 0,-558"/>
<polygon fill="#666666" stroke="#666666" points="12,-558 12,-558 160,-558 160,-558 12,-558"/>
<polygon fill="none" stroke="#666666" points="0,-248 0,-672 160,-672 160,-248 0,-248"/>
</a>
</g>
</g>
<!-- Node2&#45;&gt;Node1 -->
<g id="edge1_Node000001_Node000002" class="edge">
<title>Node2&#45;&gt;Node1</title>
<g id="a_edge1_Node000001_Node000002"><a xlink:title=" ">
<path fill="none" stroke="#63b8ff" d="M159.95,-265.08C162.93,-259.29 165.95,-253.58 169,-248 175.78,-235.6 183.35,-222.96 191.22,-210.54"/>
<polygon fill="none" stroke="#63b8ff" points="191.21,-210.55 191.1,-203.34 197.71,-200.46 197.83,-207.67 191.21,-210.55"/>
</a>
</g>
<text text-anchor="middle" x="204.62" y="-220.5" font-family="Helvetica,sans-Serif" font-size="10.00" fill="grey"> #m_ctx</text>
</g>
<!-- Node3 -->
<g id="Node000003" class="node">
<title>Node3</title>
<g id="a_Node000003"><a xlink:href="classhri_1_1_render_context_queue_state.html" target="_top" xlink:title="The context queue state creates and maintains the device queue setup.">
<polygon fill="white" stroke="none" points="151,-812 9,-812 9,-720 151,-720 151,-812"/>
<text text-anchor="start" x="13.62" y="-798.5" font-family="Helvetica,sans-Serif" font-size="10.00">hri::RenderContextQueueState</text>
<text text-anchor="start" x="78.5" y="-782.5" font-family="Helvetica,sans-Serif" font-size="10.00"> </text>
<text text-anchor="start" x="15" y="-766.5" font-family="Helvetica,sans-Serif" font-size="10.00">+</text>
<text text-anchor="start" x="27" y="-766.5" font-family="Helvetica,sans-Serif" font-size="10.00">RenderContextQueueState</text>
<text text-anchor="start" x="27" y="-754.5" font-family="Helvetica,sans-Serif" font-size="10.00">()=default</text>
<text text-anchor="start" x="15" y="-738.5" font-family="Helvetica,sans-Serif" font-size="10.00">+</text>
<text text-anchor="start" x="27" y="-738.5" font-family="Helvetica,sans-Serif" font-size="10.00">RenderContextQueueState</text>
<text text-anchor="start" x="27" y="-726.5" font-family="Helvetica,sans-Serif" font-size="10.00">(vkb::Device device)</text>
<polygon fill="#666666" stroke="#666666" points="9,-794 9,-794 151,-794 151,-794 9,-794"/>
<polygon fill="#666666" stroke="#666666" points="9,-778 9,-778 151,-778 151,-778 9,-778"/>
<polygon fill="none" stroke="#666666" points="9,-720 9,-812 151,-812 151,-720 9,-720"/>
</a>
</g>
</g>
<!-- Node3&#45;&gt;Node2 -->
<g id="edge2_Node000002_Node000003" class="edge">
<title>Node3&#45;&gt;Node2</title>
<g id="a_edge2_Node000002_Node000003"><a xlink:title=" ">
<path fill="none" stroke="#63b8ff" d="M80,-720.14C80,-709.51 80,-697.44 80,-684.48"/>
<polygon fill="none" stroke="#63b8ff" points="80,-684.7 76,-678.7 80,-672.7 84,-678.7 80,-684.7"/>
</a>
</g>
<text text-anchor="middle" x="100.25" y="-692.5" font-family="Helvetica,sans-Serif" font-size="10.00" fill="grey"> +queues</text>
</g>
<!-- Node4 -->
<g id="Node000004" class="node">
<title>Node4</title>
<g id="a_Node000004"><a xlink:href="structhri_1_1_device_queue.html" target="_top" xlink:title="A Device Queue is a queue on the logical device to which operations can be submitted.">
<polygon fill="white" stroke="none" points="125,-964 35,-964 35,-896 125,-896 125,-964"/>
<text text-anchor="start" x="43.25" y="-950.5" font-family="Helvetica,sans-Serif" font-size="10.00">hri::DeviceQueue</text>
<text text-anchor="start" x="39" y="-934.5" font-family="Helvetica,sans-Serif" font-size="10.00">+</text>
<text text-anchor="start" x="49" y="-934.5" font-family="Helvetica,sans-Serif" font-size="10.00">uint32_t family</text>
<text text-anchor="start" x="39" y="-918.5" font-family="Helvetica,sans-Serif" font-size="10.00">+</text>
<text text-anchor="start" x="49" y="-918.5" font-family="Helvetica,sans-Serif" font-size="10.00">VkQueue handle</text>
<text text-anchor="start" x="78.5" y="-902.5" font-family="Helvetica,sans-Serif" font-size="10.00"> </text>
<polygon fill="#666666" stroke="#666666" points="35,-946 35,-946 125,-946 125,-946 35,-946"/>
<polygon fill="#666666" stroke="#666666" points="35,-914 35,-914 47,-914 47,-914 35,-914"/>
<polygon fill="#666666" stroke="#666666" points="47,-914 47,-914 125,-914 125,-914 47,-914"/>
<polygon fill="none" stroke="#666666" points="35,-896 35,-964 125,-964 125,-896 35,-896"/>
</a>
</g>
</g>
<!-- Node4&#45;&gt;Node3 -->
<g id="edge3_Node000003_Node000004" class="edge">
<title>Node4&#45;&gt;Node3</title>
<g id="a_edge3_Node000003_Node000004"><a xlink:title=" ">
<path fill="none" stroke="#63b8ff" d="M80,-896.22C80,-875.7 80,-848.7 80,-824.68"/>
<polygon fill="none" stroke="#63b8ff" points="80,-824.61 76,-818.61 80,-812.61 84,-818.61 80,-824.61"/>
</a>
</g>
<text text-anchor="middle" x="117.5" y="-868.5" font-family="Helvetica,sans-Serif" font-size="10.00" fill="grey"> +computeQueue</text>
<text text-anchor="middle" x="117.5" y="-856.5" font-family="Helvetica,sans-Serif" font-size="10.00" fill="grey">+graphicsQueue</text>
<text text-anchor="middle" x="117.5" y="-844.5" font-family="Helvetica,sans-Serif" font-size="10.00" fill="grey">+presentQueue</text>
<text text-anchor="middle" x="117.5" y="-832.5" font-family="Helvetica,sans-Serif" font-size="10.00" fill="grey">+transferQueue</text>
</g>
<!-- Node5 -->
<g id="Node000005" class="node">
<title>Node5</title>
<g id="a_Node000005"><a xlink:href="classhri__debug_1_1_debug_label_handler.html" target="_top" xlink:title="The debug label handler allows setting debug labels for Vulkan objects.">
<polygon fill="white" stroke="none" points="361.5,-560 178.5,-560 178.5,-360 361.5,-360 361.5,-560"/>
<text text-anchor="start" x="204" y="-546.5" font-family="Helvetica,sans-Serif" font-size="10.00">hri_debug::DebugLabelHandler</text>
<text text-anchor="start" x="182.88" y="-530.5" font-family="Helvetica,sans-Serif" font-size="10.00">#</text>
<text text-anchor="start" x="192.5" y="-530.5" font-family="Helvetica,sans-Serif" font-size="10.00">PFN_vkCmdBeginDebugUtils</text>
<text text-anchor="start" x="192.5" y="-518.5" font-family="Helvetica,sans-Serif" font-size="10.00">LabelEXT vkBeginDebugUtilsLabelEXT</text>
<text text-anchor="start" x="182.88" y="-502.5" font-family="Helvetica,sans-Serif" font-size="10.00">#</text>
<text text-anchor="start" x="192.5" y="-502.5" font-family="Helvetica,sans-Serif" font-size="10.00">PFN_vkCmdEndDebugUtilsLabel</text>
<text text-anchor="start" x="192.5" y="-490.5" font-family="Helvetica,sans-Serif" font-size="10.00">EXT vkEndDebugUtilsLabelEXT</text>
<text text-anchor="start" x="182.5" y="-474.5" font-family="Helvetica,sans-Serif" font-size="10.00">+</text>
<text text-anchor="start" x="192.5" y="-474.5" font-family="Helvetica,sans-Serif" font-size="10.00">DebugLabelHandler</text>
<text text-anchor="start" x="192.5" y="-462.5" font-family="Helvetica,sans-Serif" font-size="10.00">(RenderContext &amp;ctx)</text>
<text text-anchor="start" x="182.5" y="-446.5" font-family="Helvetica,sans-Serif" font-size="10.00">+</text>
<text text-anchor="start" x="192.5" y="-446.5" font-family="Helvetica,sans-Serif" font-size="10.00">virtual ~DebugLabelHandler</text>
<text text-anchor="start" x="192.5" y="-434.5" font-family="Helvetica,sans-Serif" font-size="10.00">()=default</text>
<text text-anchor="start" x="182.5" y="-418.5" font-family="Helvetica,sans-Serif" font-size="10.00">+</text>
<text text-anchor="start" x="192.5" y="-418.5" font-family="Helvetica,sans-Serif" font-size="10.00">void cmdBeginLabel</text>
<text text-anchor="start" x="192.5" y="-406.5" font-family="Helvetica,sans-Serif" font-size="10.00">(VkCommandBuffer commandBuffer,</text>
<text text-anchor="start" x="192.5" y="-394.5" font-family="Helvetica,sans-Serif" font-size="10.00"> const char *pName) const</text>
<text text-anchor="start" x="182.5" y="-378.5" font-family="Helvetica,sans-Serif" font-size="10.00">+</text>
<text text-anchor="start" x="192.5" y="-378.5" font-family="Helvetica,sans-Serif" font-size="10.00">void cmdEndLabel(VkCommand</text>
<text text-anchor="start" x="192.5" y="-366.5" font-family="Helvetica,sans-Serif" font-size="10.00">Buffer commandBuffer) const</text>
<polygon fill="#666666" stroke="#666666" points="178.5,-542 178.5,-542 361.5,-542 361.5,-542 178.5,-542"/>
<polygon fill="#666666" stroke="#666666" points="178.5,-486 178.5,-486 190.5,-486 190.5,-486 178.5,-486"/>
<polygon fill="#666666" stroke="#666666" points="190.5,-486 190.5,-486 361.5,-486 361.5,-486 190.5,-486"/>
<polygon fill="none" stroke="#666666" points="178.5,-360 178.5,-560 361.5,-560 361.5,-360 178.5,-360"/>
</a>
</g>
</g>
<!-- Node5&#45;&gt;Node1 -->
<g id="edge4_Node000001_Node000005" class="edge">
<title>Node5&#45;&gt;Node1</title>
<g id="a_edge4_Node000001_Node000005"><a xlink:title=" ">
<path fill="none" stroke="#63b8ff" d="M270,-360.23C270,-314.44 270,-259.83 270,-212.56"/>
<polygon fill="none" stroke="#63b8ff" points="270,-212.66 266,-206.66 270,-200.66 274,-206.66 270,-212.66"/>
</a>
</g>
<text text-anchor="middle" x="294" y="-220.5" font-family="Helvetica,sans-Serif" font-size="10.00" fill="grey"> #m_debug</text>
</g>
<!-- Node6 -->
<g id="Node000006" class="node">
<title>Node6</title>
<g id="a_Node000006"><a xlink:href="structhri_1_1_pipeline_state_object.html" target="_top" xlink:title="A pipeline state object (PSO) stores a pipeline and its bind point.">
<polygon fill="white" stroke="none" points="492,-500 380,-500 380,-420 492,-420 492,-500"/>
<text text-anchor="start" x="384.62" y="-486.5" font-family="Helvetica,sans-Serif" font-size="10.00">hri::PipelineStateObject</text>
<text text-anchor="start" x="385.5" y="-470.5" font-family="Helvetica,sans-Serif" font-size="10.00">+</text>
<text text-anchor="start" x="397" y="-470.5" font-family="Helvetica,sans-Serif" font-size="10.00">VkPipelineBindPoint</text>
<text text-anchor="start" x="397" y="-458.5" font-family="Helvetica,sans-Serif" font-size="10.00"> bindPoint</text>
<text text-anchor="start" x="385.5" y="-442.5" font-family="Helvetica,sans-Serif" font-size="10.00">+</text>
<text text-anchor="start" x="397" y="-442.5" font-family="Helvetica,sans-Serif" font-size="10.00">VkPipeline pipeline</text>
<text text-anchor="start" x="434.5" y="-426.5" font-family="Helvetica,sans-Serif" font-size="10.00"> </text>
<polygon fill="#666666" stroke="#666666" points="380,-482 380,-482 492,-482 492,-482 380,-482"/>
<polygon fill="#666666" stroke="#666666" points="380,-438 380,-438 395,-438 395,-438 380,-438"/>
<polygon fill="#666666" stroke="#666666" points="395,-438 395,-438 492,-438 492,-438 395,-438"/>
<polygon fill="none" stroke="#666666" points="380,-420 380,-500 492,-500 492,-420 380,-420"/>
</a>
</g>
</g>
<!-- Node6&#45;&gt;Node1 -->
<g id="edge5_Node000001_Node000006" class="edge">
<title>Node6&#45;&gt;Node1</title>
<g id="a_edge5_Node000001_Node000006"><a xlink:title=" ">
<path fill="none" stroke="#63b8ff" d="M427.82,-420.34C417.81,-377 398.7,-305.28 371,-248 364.95,-235.5 357.92,-222.86 350.44,-210.52"/>
<polygon fill="none" stroke="#63b8ff" points="350.57,-210.73 344.01,-207.74 344.24,-200.53 350.8,-203.52 350.57,-210.73"/>
</a>
</g>
<text text-anchor="middle" x="383" y="-220.5" font-family="Helvetica,sans-Serif" font-size="10.00" fill="grey"> #m_pPSO</text>
</g>
</g>
</svg>
