<?xml version="1.0" encoding="UTF-8" standalone="no"?>
<!DOCTYPE svg PUBLIC "-//W3C//DTD SVG 1.1//EN"
 "http://www.w3.org/Graphics/SVG/1.1/DTD/svg11.dtd">
<!-- Generated by graphviz version 10.0.1 (20240210.2158)
 -->
<!-- Title: hri::IRenderPassResourceManagerBase Pages: 1 -->
<svg width="366pt" height="560pt"
 viewBox="0.00 0.00 366.00 560.00" xmlns="http://www.w3.org/2000/svg" xmlns:xlink="http://www.w3.org/1999/xlink">
<g id="graph0" class="graph" transform="scale(1 1) rotate(0) translate(4 556)">
<title>hri::IRenderPassResourceManagerBase</title>
<!-- Node1 -->
<g id="Node000001" class="node">
<title>Node1</title>
<g id="a_Node000001"><a xlink:title="The Render Pass Resource Manager Base is used to create and recreate render pass resources....">
<polygon fill="#999999" stroke="none" points="254,-552 96,-552 96,-164 254,-164 254,-552"/>
<text text-anchor="start" x="118.38" y="-538.5" font-family="Helvetica,sans-Serif" font-size="10.00">hri::IRenderPassResource</text>
<text text-anchor="start" x="145" y="-526.5" font-family="Helvetica,sans-Serif" font-size="10.00">ManagerBase</text>
<text text-anchor="start" x="100.38" y="-510.5" font-family="Helvetica,sans-Serif" font-size="10.00">#</text>
<text text-anchor="start" x="110" y="-510.5" font-family="Helvetica,sans-Serif" font-size="10.00">m_pCtx</text>
<text text-anchor="start" x="100.38" y="-494.5" font-family="Helvetica,sans-Serif" font-size="10.00">#</text>
<text text-anchor="start" x="110" y="-494.5" font-family="Helvetica,sans-Serif" font-size="10.00">m_renderPass</text>
<text text-anchor="start" x="100.38" y="-478.5" font-family="Helvetica,sans-Serif" font-size="10.00">#</text>
<text text-anchor="start" x="110" y="-478.5" font-family="Helvetica,sans-Serif" font-size="10.00">m_renderExtent</text>
<text text-anchor="start" x="100.38" y="-462.5" font-family="Helvetica,sans-Serif" font-size="10.00">#</text>
<text text-anchor="start" x="110" y="-462.5" font-family="Helvetica,sans-Serif" font-size="10.00">m_clearValues</text>
<text text-anchor="start" x="100.38" y="-446.5" font-family="Helvetica,sans-Serif" font-size="10.00">#</text>
<text text-anchor="start" x="110" y="-446.5" font-family="Helvetica,sans-Serif" font-size="10.00">m_attachmentConfigs</text>
<text text-anchor="start" x="100.38" y="-430.5" font-family="Helvetica,sans-Serif" font-size="10.00">#</text>
<text text-anchor="start" x="110" y="-430.5" font-family="Helvetica,sans-Serif" font-size="10.00">m_imageResources</text>
<text text-anchor="start" x="100" y="-414.5" font-family="Helvetica,sans-Serif" font-size="10.00">+</text>
<text text-anchor="start" x="110" y="-414.5" font-family="Helvetica,sans-Serif" font-size="10.00">IRenderPassResourceManager</text>
<text text-anchor="start" x="110" y="-402.5" font-family="Helvetica,sans-Serif" font-size="10.00">Base()</text>
<text text-anchor="start" x="100" y="-386.5" font-family="Helvetica,sans-Serif" font-size="10.00">+</text>
<text text-anchor="start" x="110" y="-386.5" font-family="Helvetica,sans-Serif" font-size="10.00">~IRenderPassResourceManager</text>
<text text-anchor="start" x="110" y="-374.5" font-family="Helvetica,sans-Serif" font-size="10.00">Base()</text>
<text text-anchor="start" x="100" y="-358.5" font-family="Helvetica,sans-Serif" font-size="10.00">+</text>
<text text-anchor="start" x="110" y="-358.5" font-family="Helvetica,sans-Serif" font-size="10.00">IRenderPassResourceManager</text>
<text text-anchor="start" x="110" y="-346.5" font-family="Helvetica,sans-Serif" font-size="10.00">Base()</text>
<text text-anchor="start" x="100" y="-330.5" font-family="Helvetica,sans-Serif" font-size="10.00">+</text>
<text text-anchor="start" x="110" y="-330.5" font-family="Helvetica,sans-Serif" font-size="10.00">operator=()</text>
<text text-anchor="start" x="100" y="-314.5" font-family="Helvetica,sans-Serif" font-size="10.00">+</text>
<text text-anchor="start" x="110" y="-314.5" font-family="Helvetica,sans-Serif" font-size="10.00">beginRenderPass()</text>
<text text-anchor="start" x="100" y="-298.5" font-family="Helvetica,sans-Serif" font-size="10.00">+</text>
<text text-anchor="start" x="110" y="-298.5" font-family="Helvetica,sans-Serif" font-size="10.00">endRenderPass()</text>
<text text-anchor="start" x="100" y="-282.5" font-family="Helvetica,sans-Serif" font-size="10.00">+</text>
<text text-anchor="start" x="110" y="-282.5" font-family="Helvetica,sans-Serif" font-size="10.00">setClearValue()</text>
<text text-anchor="start" x="100" y="-266.5" font-family="Helvetica,sans-Serif" font-size="10.00">+</text>
<text text-anchor="start" x="110" y="-266.5" font-family="Helvetica,sans-Serif" font-size="10.00">renderPass()</text>
<text text-anchor="start" x="100" y="-250.5" font-family="Helvetica,sans-Serif" font-size="10.00">+</text>
<text text-anchor="start" x="110" y="-250.5" font-family="Helvetica,sans-Serif" font-size="10.00">getAttachmentResource()</text>
<text text-anchor="start" x="100" y="-234.5" font-family="Helvetica,sans-Serif" font-size="10.00">+</text>
<text text-anchor="start" x="110" y="-234.5" font-family="Helvetica,sans-Serif" font-size="10.00">recreateResources()</text>
<text text-anchor="start" x="100.38" y="-218.5" font-family="Helvetica,sans-Serif" font-size="10.00">#</text>
<text text-anchor="start" x="110" y="-218.5" font-family="Helvetica,sans-Serif" font-size="10.00">createResources()</text>
<text text-anchor="start" x="100.38" y="-202.5" font-family="Helvetica,sans-Serif" font-size="10.00">#</text>
<text text-anchor="start" x="110" y="-202.5" font-family="Helvetica,sans-Serif" font-size="10.00">destroyResources()</text>
<text text-anchor="start" x="100.38" y="-186.5" font-family="Helvetica,sans-Serif" font-size="10.00">#</text>
<text text-anchor="start" x="110" y="-186.5" font-family="Helvetica,sans-Serif" font-size="10.00">getImageResourceViews()</text>
<text text-anchor="start" x="100.38" y="-170.5" font-family="Helvetica,sans-Serif" font-size="10.00">#</text>
<text text-anchor="start" x="110" y="-170.5" font-family="Helvetica,sans-Serif" font-size="10.00">getRenderExtent()</text>
<polygon fill="#666666" stroke="#666666" points="96,-522 96,-522 254,-522 254,-522 96,-522"/>
<polygon fill="#666666" stroke="#666666" points="96,-426 96,-426 108,-426 108,-426 96,-426"/>
<polygon fill="#666666" stroke="#666666" points="108,-426 108,-426 254,-426 254,-426 108,-426"/>
<polygon fill="none" stroke="#666666" points="96,-164 96,-552 254,-552 254,-164 96,-164"/>
</a>
</g>
</g>
<!-- Node2 -->
<g id="Node000002" class="node">
<title>Node2</title>
<g id="a_Node000002"><a xlink:href="classhri_1_1_render_pass_resource_manager.html" target="_top" xlink:title="The Render Pass Resource manager handles drawing to a framebuffer constructed using the interface&#39;s c...">
<polygon fill="white" stroke="none" points="162,-122 0,-122 0,-6 162,-6 162,-122"/>
<text text-anchor="start" x="6.75" y="-108.5" font-family="Helvetica,sans-Serif" font-size="10.00">hri::RenderPassResourceManager</text>
<text text-anchor="start" x="79.5" y="-92.5" font-family="Helvetica,sans-Serif" font-size="10.00"> </text>
<text text-anchor="start" x="4" y="-76.5" font-family="Helvetica,sans-Serif" font-size="10.00">+</text>
<text text-anchor="start" x="14" y="-76.5" font-family="Helvetica,sans-Serif" font-size="10.00">RenderPassResourceManager()</text>
<text text-anchor="start" x="4" y="-60.5" font-family="Helvetica,sans-Serif" font-size="10.00">+</text>
<text text-anchor="start" x="14" y="-60.5" font-family="Helvetica,sans-Serif" font-size="10.00">~RenderPassResourceManager()</text>
<text text-anchor="start" x="4" y="-44.5" font-family="Helvetica,sans-Serif" font-size="10.00">+</text>
<text text-anchor="start" x="14" y="-44.5" font-family="Helvetica,sans-Serif" font-size="10.00">beginRenderPass()</text>
<text text-anchor="start" x="4.38" y="-28.5" font-family="Helvetica,sans-Serif" font-size="10.00">#</text>
<text text-anchor="start" x="14" y="-28.5" font-family="Helvetica,sans-Serif" font-size="10.00">createResources()</text>
<text text-anchor="start" x="4.38" y="-12.5" font-family="Helvetica,sans-Serif" font-size="10.00">#</text>
<text text-anchor="start" x="14" y="-12.5" font-family="Helvetica,sans-Serif" font-size="10.00">destroyResources()</text>
<polygon fill="#666666" stroke="#666666" points="0,-104 0,-104 162,-104 162,-104 0,-104"/>
<polygon fill="#666666" stroke="#666666" points="0,-88 0,-88 162,-88 162,-88 0,-88"/>
<polygon fill="none" stroke="#666666" points="0,-6 0,-122 162,-122 162,-6 0,-6"/>
</a>
</g>
</g>
<!-- Node1&#45;&gt;Node2 -->
<g id="edge1_Node000001_Node000002" class="edge">
<title>Node1&#45;&gt;Node2</title>
<g id="a_edge1_Node000001_Node000002"><a xlink:title=" ">
<path fill="none" stroke="#63b8ff" d="M109.47,-153.43C105.88,-142.28 102.46,-131.67 99.32,-121.92"/>
<polygon fill="none" stroke="#63b8ff" points="106.1,-154.38 112.49,-162.82 112.76,-152.23 106.1,-154.38"/>
</a>
</g>
</g>
<!-- Node3 -->
<g id="Node000003" class="node">
<title>Node3</title>
<g id="a_Node000003"><a xlink:href="classhri_1_1_swapchain_pass_resource_manager.html" target="_top" xlink:title="The Swapchain pass resource manager is a special type of resource manager that handles rendering to s...">
<polygon fill="white" stroke="none" points="358,-128 180,-128 180,0 358,0 358,-128"/>
<text text-anchor="start" x="205.25" y="-114.5" font-family="Helvetica,sans-Serif" font-size="10.00">hri::SwapchainPassResource</text>
<text text-anchor="start" x="250.25" y="-102.5" font-family="Helvetica,sans-Serif" font-size="10.00">Manager</text>
<text text-anchor="start" x="267.5" y="-86.5" font-family="Helvetica,sans-Serif" font-size="10.00"> </text>
<text text-anchor="start" x="184" y="-70.5" font-family="Helvetica,sans-Serif" font-size="10.00">+</text>
<text text-anchor="start" x="194" y="-70.5" font-family="Helvetica,sans-Serif" font-size="10.00">SwapchainPassResourceManager()</text>
<text text-anchor="start" x="184" y="-54.5" font-family="Helvetica,sans-Serif" font-size="10.00">+</text>
<text text-anchor="start" x="194" y="-54.5" font-family="Helvetica,sans-Serif" font-size="10.00">~SwapchainPassResourceManager()</text>
<text text-anchor="start" x="184" y="-38.5" font-family="Helvetica,sans-Serif" font-size="10.00">+</text>
<text text-anchor="start" x="194" y="-38.5" font-family="Helvetica,sans-Serif" font-size="10.00">beginRenderPass()</text>
<text text-anchor="start" x="184.38" y="-22.5" font-family="Helvetica,sans-Serif" font-size="10.00">#</text>
<text text-anchor="start" x="194" y="-22.5" font-family="Helvetica,sans-Serif" font-size="10.00">createResources()</text>
<text text-anchor="start" x="184.38" y="-6.5" font-family="Helvetica,sans-Serif" font-size="10.00">#</text>
<text text-anchor="start" x="194" y="-6.5" font-family="Helvetica,sans-Serif" font-size="10.00">destroyResources()</text>
<polygon fill="#666666" stroke="#666666" points="180,-98 180,-98 358,-98 358,-98 180,-98"/>
<polygon fill="#666666" stroke="#666666" points="180,-82 180,-82 358,-82 358,-82 180,-82"/>
<polygon fill="none" stroke="#666666" points="180,0 180,-128 358,-128 358,0 180,0"/>
</a>
</g>
</g>
<!-- Node1&#45;&gt;Node3 -->
<g id="edge2_Node000001_Node000003" class="edge">
<title>Node1&#45;&gt;Node3</title>
<g id="a_edge2_Node000001_Node000003"><a xlink:title=" ">
<path fill="none" stroke="#63b8ff" d="M240.5,-153.54C243.4,-144.53 246.19,-135.87 248.81,-127.72"/>
<polygon fill="none" stroke="#63b8ff" points="237.24,-152.23 237.51,-162.82 243.9,-154.38 237.24,-152.23"/>
</a>
</g>
</g>
</g>
</svg>
