<?xml version="1.0" encoding="UTF-8" standalone="no"?>
<!DOCTYPE svg PUBLIC "-//W3C//DTD SVG 1.1//EN"
 "http://www.w3.org/Graphics/SVG/1.1/DTD/svg11.dtd">
<!-- Generated by graphviz version 10.0.1 (20240210.2158)
 -->
<!-- Title: hri::BufferResource::copyToBuffer Pages: 1 -->
<svg width="266pt" height="78pt"
 viewBox="0.00 0.00 265.75 78.00" xmlns="http://www.w3.org/2000/svg" xmlns:xlink="http://www.w3.org/1999/xlink">
<g id="graph0" class="graph" transform="scale(1 1) rotate(0) translate(4 74)">
<title>hri::BufferResource::copyToBuffer</title>
<!-- Node1 -->
<g id="Node000001" class="node">
<title>Node1</title>
<g id="a_Node000001"><a xlink:title="Copy data to this buffer.">
<polygon fill="#999999" stroke="#666666" points="98.5,-54 0,-54 0,-22 98.5,-22 98.5,-54"/>
<text text-anchor="start" x="8" y="-40.5" font-family="Helvetica,sans-Serif" font-size="10.00">hri::BufferResource</text>
<text text-anchor="middle" x="49.25" y="-28.5" font-family="Helvetica,sans-Serif" font-size="10.00">::copyToBuffer</text>
</a>
</g>
</g>
<!-- Node2 -->
<g id="Node000002" class="node">
<title>Node2</title>
<g id="a_Node000002"><a xlink:href="classhri_1_1_buffer_resource.html#a285ebf56fb778cfe90a44f5bc01fb999" target="_top" xlink:title=" ">
<polygon fill="white" stroke="#666666" points="257.75,-70 134.5,-70 134.5,-50 257.75,-50 257.75,-70"/>
<text text-anchor="middle" x="196.12" y="-56.5" font-family="Helvetica,sans-Serif" font-size="10.00">hri::BufferResource::map</text>
</a>
</g>
</g>
<!-- Node1&#45;&gt;Node2 -->
<g id="edge1_Node000001_Node000002" class="edge">
<title>Node1&#45;&gt;Node2</title>
<g id="a_edge1_Node000001_Node000002"><a xlink:title=" ">
<path fill="none" stroke="#63b8ff" d="M98.89,-45.39C106.55,-46.55 114.6,-47.77 122.66,-49"/>
<polygon fill="#63b8ff" stroke="#63b8ff" points="122.09,-52.45 132.5,-50.49 123.14,-45.53 122.09,-52.45"/>
</a>
</g>
</g>
<!-- Node3 -->
<g id="Node000003" class="node">
<title>Node3</title>
<g id="a_Node000003"><a xlink:href="classhri_1_1_buffer_resource.html#a82f088f94efb7e39684c9755edb6662a" target="_top" xlink:title=" ">
<polygon fill="white" stroke="#666666" points="245.38,-32 146.88,-32 146.88,0 245.38,0 245.38,-32"/>
<text text-anchor="start" x="154.88" y="-18.5" font-family="Helvetica,sans-Serif" font-size="10.00">hri::BufferResource</text>
<text text-anchor="middle" x="196.12" y="-6.5" font-family="Helvetica,sans-Serif" font-size="10.00">::unmap</text>
</a>
</g>
</g>
<!-- Node1&#45;&gt;Node3 -->
<g id="edge2_Node000001_Node000003" class="edge">
<title>Node1&#45;&gt;Node3</title>
<g id="a_edge2_Node000001_Node000003"><a xlink:title=" ">
<path fill="none" stroke="#63b8ff" d="M98.89,-30.61C110.73,-28.82 123.51,-26.87 135.78,-25.01"/>
<polygon fill="#63b8ff" stroke="#63b8ff" points="136,-28.52 145.36,-23.56 134.95,-21.6 136,-28.52"/>
</a>
</g>
</g>
</g>
</svg>
