<?xml version="1.0" encoding="UTF-8" standalone="no"?>
<!DOCTYPE svg PUBLIC "-//W3C//DTD SVG 1.1//EN"
 "http://www.w3.org/Graphics/SVG/1.1/DTD/svg11.dtd">
<!-- Generated by graphviz version 10.0.1 (20240210.2158)
 -->
<!-- Title: hri::SwapchainPassResourceManager Pages: 1 -->
<svg width="186pt" height="560pt"
 viewBox="0.00 0.00 186.00 560.00" xmlns="http://www.w3.org/2000/svg" xmlns:xlink="http://www.w3.org/1999/xlink">
<g id="graph0" class="graph" transform="scale(1 1) rotate(0) translate(4 556)">
<title>hri::SwapchainPassResourceManager</title>
<!-- Node1 -->
<g id="Node000001" class="node">
<title>Node1</title>
<g id="a_Node000001"><a xlink:title="The Swapchain pass resource manager is a special type of resource manager that handles rendering to s...">
<polygon fill="#999999" stroke="none" points="178,-128 0,-128 0,0 178,0 178,-128"/>
<text text-anchor="start" x="25.25" y="-114.5" font-family="Helvetica,sans-Serif" font-size="10.00">hri::SwapchainPassResource</text>
<text text-anchor="start" x="70.25" y="-102.5" font-family="Helvetica,sans-Serif" font-size="10.00">Manager</text>
<text text-anchor="start" x="87.5" y="-86.5" font-family="Helvetica,sans-Serif" font-size="10.00"> </text>
<text text-anchor="start" x="4" y="-70.5" font-family="Helvetica,sans-Serif" font-size="10.00">+</text>
<text text-anchor="start" x="14" y="-70.5" font-family="Helvetica,sans-Serif" font-size="10.00">SwapchainPassResourceManager()</text>
<text text-anchor="start" x="4" y="-54.5" font-family="Helvetica,sans-Serif" font-size="10.00">+</text>
<text text-anchor="start" x="14" y="-54.5" font-family="Helvetica,sans-Serif" font-size="10.00">~SwapchainPassResourceManager()</text>
<text text-anchor="start" x="4" y="-38.5" font-family="Helvetica,sans-Serif" font-size="10.00">+</text>
<text text-anchor="start" x="14" y="-38.5" font-family="Helvetica,sans-Serif" font-size="10.00">beginRenderPass()</text>
<text text-anchor="start" x="4.38" y="-22.5" font-family="Helvetica,sans-Serif" font-size="10.00">#</text>
<text text-anchor="start" x="14" y="-22.5" font-family="Helvetica,sans-Serif" font-size="10.00">createResources()</text>
<text text-anchor="start" x="4.38" y="-6.5" font-family="Helvetica,sans-Serif" font-size="10.00">#</text>
<text text-anchor="start" x="14" y="-6.5" font-family="Helvetica,sans-Serif" font-size="10.00">destroyResources()</text>
<polygon fill="#666666" stroke="#666666" points="0,-98 0,-98 178,-98 178,-98 0,-98"/>
<polygon fill="#666666" stroke="#666666" points="0,-82 0,-82 178,-82 178,-82 0,-82"/>
<polygon fill="none" stroke="#666666" points="0,0 0,-128 178,-128 178,0 0,0"/>
</a>
</g>
</g>
<!-- Node2 -->
<g id="Node000002" class="node">
<title>Node2</title>
<g id="a_Node000002"><a xlink:href="classhri_1_1_i_render_pass_resource_manager_base.html" target="_top" xlink:title="The Render Pass Resource Manager Base is used to create and recreate render pass resources....">
<polygon fill="white" stroke="none" points="168,-552 10,-552 10,-164 168,-164 168,-552"/>
<text text-anchor="start" x="32.38" y="-538.5" font-family="Helvetica,sans-Serif" font-size="10.00">hri::IRenderPassResource</text>
<text text-anchor="start" x="59" y="-526.5" font-family="Helvetica,sans-Serif" font-size="10.00">ManagerBase</text>
<text text-anchor="start" x="14.38" y="-510.5" font-family="Helvetica,sans-Serif" font-size="10.00">#</text>
<text text-anchor="start" x="24" y="-510.5" font-family="Helvetica,sans-Serif" font-size="10.00">m_pCtx</text>
<text text-anchor="start" x="14.38" y="-494.5" font-family="Helvetica,sans-Serif" font-size="10.00">#</text>
<text text-anchor="start" x="24" y="-494.5" font-family="Helvetica,sans-Serif" font-size="10.00">m_renderPass</text>
<text text-anchor="start" x="14.38" y="-478.5" font-family="Helvetica,sans-Serif" font-size="10.00">#</text>
<text text-anchor="start" x="24" y="-478.5" font-family="Helvetica,sans-Serif" font-size="10.00">m_renderExtent</text>
<text text-anchor="start" x="14.38" y="-462.5" font-family="Helvetica,sans-Serif" font-size="10.00">#</text>
<text text-anchor="start" x="24" y="-462.5" font-family="Helvetica,sans-Serif" font-size="10.00">m_clearValues</text>
<text text-anchor="start" x="14.38" y="-446.5" font-family="Helvetica,sans-Serif" font-size="10.00">#</text>
<text text-anchor="start" x="24" y="-446.5" font-family="Helvetica,sans-Serif" font-size="10.00">m_attachmentConfigs</text>
<text text-anchor="start" x="14.38" y="-430.5" font-family="Helvetica,sans-Serif" font-size="10.00">#</text>
<text text-anchor="start" x="24" y="-430.5" font-family="Helvetica,sans-Serif" font-size="10.00">m_imageResources</text>
<text text-anchor="start" x="14" y="-414.5" font-family="Helvetica,sans-Serif" font-size="10.00">+</text>
<text text-anchor="start" x="24" y="-414.5" font-family="Helvetica,sans-Serif" font-size="10.00">IRenderPassResourceManager</text>
<text text-anchor="start" x="24" y="-402.5" font-family="Helvetica,sans-Serif" font-size="10.00">Base()</text>
<text text-anchor="start" x="14" y="-386.5" font-family="Helvetica,sans-Serif" font-size="10.00">+</text>
<text text-anchor="start" x="24" y="-386.5" font-family="Helvetica,sans-Serif" font-size="10.00">~IRenderPassResourceManager</text>
<text text-anchor="start" x="24" y="-374.5" font-family="Helvetica,sans-Serif" font-size="10.00">Base()</text>
<text text-anchor="start" x="14" y="-358.5" font-family="Helvetica,sans-Serif" font-size="10.00">+</text>
<text text-anchor="start" x="24" y="-358.5" font-family="Helvetica,sans-Serif" font-size="10.00">IRenderPassResourceManager</text>
<text text-anchor="start" x="24" y="-346.5" font-family="Helvetica,sans-Serif" font-size="10.00">Base()</text>
<text text-anchor="start" x="14" y="-330.5" font-family="Helvetica,sans-Serif" font-size="10.00">+</text>
<text text-anchor="start" x="24" y="-330.5" font-family="Helvetica,sans-Serif" font-size="10.00">operator=()</text>
<text text-anchor="start" x="14" y="-314.5" font-family="Helvetica,sans-Serif" font-size="10.00">+</text>
<text text-anchor="start" x="24" y="-314.5" font-family="Helvetica,sans-Serif" font-size="10.00">beginRenderPass()</text>
<text text-anchor="start" x="14" y="-298.5" font-family="Helvetica,sans-Serif" font-size="10.00">+</text>
<text text-anchor="start" x="24" y="-298.5" font-family="Helvetica,sans-Serif" font-size="10.00">endRenderPass()</text>
<text text-anchor="start" x="14" y="-282.5" font-family="Helvetica,sans-Serif" font-size="10.00">+</text>
<text text-anchor="start" x="24" y="-282.5" font-family="Helvetica,sans-Serif" font-size="10.00">setClearValue()</text>
<text text-anchor="start" x="14" y="-266.5" font-family="Helvetica,sans-Serif" font-size="10.00">+</text>
<text text-anchor="start" x="24" y="-266.5" font-family="Helvetica,sans-Serif" font-size="10.00">renderPass()</text>
<text text-anchor="start" x="14" y="-250.5" font-family="Helvetica,sans-Serif" font-size="10.00">+</text>
<text text-anchor="start" x="24" y="-250.5" font-family="Helvetica,sans-Serif" font-size="10.00">getAttachmentResource()</text>
<text text-anchor="start" x="14" y="-234.5" font-family="Helvetica,sans-Serif" font-size="10.00">+</text>
<text text-anchor="start" x="24" y="-234.5" font-family="Helvetica,sans-Serif" font-size="10.00">recreateResources()</text>
<text text-anchor="start" x="14.38" y="-218.5" font-family="Helvetica,sans-Serif" font-size="10.00">#</text>
<text text-anchor="start" x="24" y="-218.5" font-family="Helvetica,sans-Serif" font-size="10.00">createResources()</text>
<text text-anchor="start" x="14.38" y="-202.5" font-family="Helvetica,sans-Serif" font-size="10.00">#</text>
<text text-anchor="start" x="24" y="-202.5" font-family="Helvetica,sans-Serif" font-size="10.00">destroyResources()</text>
<text text-anchor="start" x="14.38" y="-186.5" font-family="Helvetica,sans-Serif" font-size="10.00">#</text>
<text text-anchor="start" x="24" y="-186.5" font-family="Helvetica,sans-Serif" font-size="10.00">getImageResourceViews()</text>
<text text-anchor="start" x="14.38" y="-170.5" font-family="Helvetica,sans-Serif" font-size="10.00">#</text>
<text text-anchor="start" x="24" y="-170.5" font-family="Helvetica,sans-Serif" font-size="10.00">getRenderExtent()</text>
<polygon fill="#666666" stroke="#666666" points="10,-522 10,-522 168,-522 168,-522 10,-522"/>
<polygon fill="#666666" stroke="#666666" points="10,-426 10,-426 22,-426 22,-426 10,-426"/>
<polygon fill="#666666" stroke="#666666" points="22,-426 22,-426 168,-426 168,-426 22,-426"/>
<polygon fill="none" stroke="#666666" points="10,-164 10,-552 168,-552 168,-164 10,-164"/>
</a>
</g>
</g>
<!-- Node2&#45;&gt;Node1 -->
<g id="edge1_Node000001_Node000002" class="edge">
<title>Node2&#45;&gt;Node1</title>
<g id="a_edge1_Node000001_Node000002"><a xlink:title=" ">
<path fill="none" stroke="#63b8ff" d="M89,-152.95C89,-144.15 89,-135.69 89,-127.72"/>
<polygon fill="none" stroke="#63b8ff" points="85.5,-152.75 89,-162.75 92.5,-152.75 85.5,-152.75"/>
</a>
</g>
</g>
</g>
</svg>
