<?xml version="1.0" encoding="UTF-8" standalone="no"?>
<!DOCTYPE svg PUBLIC "-//W3C//DTD SVG 1.1//EN"
 "http://www.w3.org/Graphics/SVG/1.1/DTD/svg11.dtd">
<!-- Generated by graphviz version 10.0.1 (20240210.2158)
 -->
<!-- Title: hri::Mesh Pages: 1 -->
<svg width="62pt" height="108pt"
 viewBox="0.00 0.00 62.00 108.00" xmlns="http://www.w3.org/2000/svg" xmlns:xlink="http://www.w3.org/1999/xlink">
<g id="graph0" class="graph" transform="scale(1 1) rotate(0) translate(4 104)">
<title>hri::Mesh</title>
<!-- Node1 -->
<g id="Node000001" class="node">
<title>Node1</title>
<g id="a_Node000001"><a xlink:title="A Mesh represents a renderable object. It uses indexed drawing to reduce vertex array size.">
<polygon fill="#999999" stroke="none" points="54,-100 0,-100 0,0 54,0 54,-100"/>
<text text-anchor="start" x="6.75" y="-86.5" font-family="Helvetica,sans-Serif" font-size="10.00">hri::Mesh</text>
<text text-anchor="start" x="4" y="-70.5" font-family="Helvetica,sans-Serif" font-size="10.00">+</text>
<text text-anchor="start" x="14" y="-70.5" font-family="Helvetica,sans-Serif" font-size="10.00">vertices</text>
<text text-anchor="start" x="4" y="-54.5" font-family="Helvetica,sans-Serif" font-size="10.00">+</text>
<text text-anchor="start" x="14" y="-54.5" font-family="Helvetica,sans-Serif" font-size="10.00">indices</text>
<text text-anchor="start" x="4" y="-38.5" font-family="Helvetica,sans-Serif" font-size="10.00">+</text>
<text text-anchor="start" x="14" y="-38.5" font-family="Helvetica,sans-Serif" font-size="10.00">Mesh()</text>
<text text-anchor="start" x="4" y="-22.5" font-family="Helvetica,sans-Serif" font-size="10.00">+</text>
<text text-anchor="start" x="14" y="-22.5" font-family="Helvetica,sans-Serif" font-size="10.00">Mesh()</text>
<text text-anchor="start" x="4" y="-6.5" font-family="Helvetica,sans-Serif" font-size="10.00">+</text>
<text text-anchor="start" x="14" y="-6.5" font-family="Helvetica,sans-Serif" font-size="10.00">~Mesh()</text>
<polygon fill="#666666" stroke="#666666" points="0,-82 0,-82 54,-82 54,-82 0,-82"/>
<polygon fill="#666666" stroke="#666666" points="0,-50 0,-50 12,-50 12,-50 0,-50"/>
<polygon fill="#666666" stroke="#666666" points="12,-50 12,-50 54,-50 54,-50 12,-50"/>
<polygon fill="none" stroke="#666666" points="0,0 0,-100 54,-100 54,0 0,0"/>
</a>
</g>
</g>
</g>
</svg>
