<?xml version="1.0" encoding="UTF-8" standalone="no"?>
<!DOCTYPE svg PUBLIC "-//W3C//DTD SVG 1.1//EN"
 "http://www.w3.org/Graphics/SVG/1.1/DTD/svg11.dtd">
<!-- Generated by graphviz version 10.0.1 (20240210.2158)
 -->
<!-- Title: GBufferLayoutSubsystem::GBufferLayoutSubsystem Pages: 1 -->
<svg width="470pt" height="440pt"
 viewBox="0.00 0.00 470.00 440.00" xmlns="http://www.w3.org/2000/svg" xmlns:xlink="http://www.w3.org/1999/xlink">
<g id="graph0" class="graph" transform="scale(1 1) rotate(0) translate(4 436)">
<title>GBufferLayoutSubsystem::GBufferLayoutSubsystem</title>
<!-- Node1 -->
<g id="Node000001" class="node">
<title>Node1</title>
<g id="a_Node000001"><a xlink:title=" ">
<polygon fill="#999999" stroke="#666666" points="133,-232 0,-232 0,-200 133,-200 133,-232"/>
<text text-anchor="start" x="8" y="-218.5" font-family="Helvetica,sans-Serif" font-size="10.00">GBufferLayoutSubsystem</text>
<text text-anchor="middle" x="66.5" y="-206.5" font-family="Helvetica,sans-Serif" font-size="10.00">::GBufferLayoutSubsystem</text>
</a>
</g>
</g>
<!-- Node2 -->
<g id="Node000002" class="node">
<title>Node2</title>
<g id="a_Node000002"><a xlink:href="classhri_1_1_pipeline_layout_builder.html#a98ca63c2f88a41ce1d3bbdbc4dfb5643" target="_top" xlink:title="Add a new Descriptor Set Layout to the pipeline layout.">
<polygon fill="white" stroke="#666666" points="300.12,-432 173.88,-432 173.88,-400 300.12,-400 300.12,-432"/>
<text text-anchor="start" x="181.88" y="-418.5" font-family="Helvetica,sans-Serif" font-size="10.00">hri::PipelineLayoutBuilder</text>
<text text-anchor="middle" x="237" y="-406.5" font-family="Helvetica,sans-Serif" font-size="10.00">::addDescriptorSetLayout</text>
</a>
</g>
</g>
<!-- Node1&#45;&gt;Node2 -->
<g id="edge1_Node000001_Node000002" class="edge">
<title>Node1&#45;&gt;Node2</title>
<g id="a_edge1_Node000001_Node000002"><a xlink:title=" ">
<path fill="none" stroke="#63b8ff" d="M72.76,-232.49C84.53,-266.79 116.13,-346.36 169,-391 170.09,-391.92 171.23,-392.81 172.39,-393.67"/>
<polygon fill="#63b8ff" stroke="#63b8ff" points="170.24,-396.46 180.56,-398.86 173.99,-390.54 170.24,-396.46"/>
</a>
</g>
</g>
<!-- Node4 -->
<g id="Node000004" class="node">
<title>Node4</title>
<g id="a_Node000004"><a xlink:href="classhri_1_1_pipeline_layout_builder.html#ad88e3add16c5f341425531e1db34c77d" target="_top" xlink:title="Build the configured pipeline layout.">
<polygon fill="white" stroke="#666666" points="300.12,-382 173.88,-382 173.88,-350 300.12,-350 300.12,-382"/>
<text text-anchor="start" x="181.88" y="-368.5" font-family="Helvetica,sans-Serif" font-size="10.00">hri::PipelineLayoutBuilder</text>
<text text-anchor="middle" x="237" y="-356.5" font-family="Helvetica,sans-Serif" font-size="10.00">::build</text>
</a>
</g>
</g>
<!-- Node1&#45;&gt;Node4 -->
<g id="edge3_Node000001_Node000004" class="edge">
<title>Node1&#45;&gt;Node4</title>
<g id="a_edge3_Node000001_Node000004"><a xlink:title=" ">
<path fill="none" stroke="#63b8ff" d="M76.64,-232.12C92.32,-258.42 126.77,-310.66 169,-341 170.53,-342.1 172.1,-343.15 173.72,-344.16"/>
<polygon fill="#63b8ff" stroke="#63b8ff" points="171.62,-347 182.06,-348.78 175.01,-340.87 171.62,-347"/>
</a>
</g>
</g>
<!-- Node5 -->
<g id="Node000005" class="node">
<title>Node5</title>
<g id="a_Node000005"><a xlink:href="structhri_1_1_graphics_pipeline_builder.html#a6c9fa89e6b0675c7f460f67f2d674479" target="_top" xlink:title=" ">
<polygon fill="white" stroke="#666666" points="305,-332 169,-332 169,-300 305,-300 305,-332"/>
<text text-anchor="start" x="177" y="-318.5" font-family="Helvetica,sans-Serif" font-size="10.00">hri::GraphicsPipelineBuilder</text>
<text text-anchor="middle" x="237" y="-306.5" font-family="Helvetica,sans-Serif" font-size="10.00">::initColorBlendState</text>
</a>
</g>
</g>
<!-- Node1&#45;&gt;Node5 -->
<g id="edge4_Node000001_Node000005" class="edge">
<title>Node1&#45;&gt;Node5</title>
<g id="a_edge4_Node000001_Node000005"><a xlink:title=" ">
<path fill="none" stroke="#63b8ff" d="M86.25,-232.37C105.84,-248.86 137.99,-274.19 169,-291 171.48,-292.35 174.05,-293.65 176.68,-294.91"/>
<polygon fill="#63b8ff" stroke="#63b8ff" points="175.05,-298.01 185.6,-298.92 177.91,-291.63 175.05,-298.01"/>
</a>
</g>
</g>
<!-- Node6 -->
<g id="Node000006" class="node">
<title>Node6</title>
<g id="a_Node000006"><a xlink:href="structhri_1_1_graphics_pipeline_builder.html#aebf69250a889e1ac3196f3c54b147630" target="_top" xlink:title=" ">
<polygon fill="white" stroke="#666666" points="305,-282 169,-282 169,-250 305,-250 305,-282"/>
<text text-anchor="start" x="177" y="-268.5" font-family="Helvetica,sans-Serif" font-size="10.00">hri::GraphicsPipelineBuilder</text>
<text text-anchor="middle" x="237" y="-256.5" font-family="Helvetica,sans-Serif" font-size="10.00">::initDefaultScissor</text>
</a>
</g>
</g>
<!-- Node1&#45;&gt;Node6 -->
<g id="edge5_Node000001_Node000006" class="edge">
<title>Node1&#45;&gt;Node6</title>
<g id="a_edge5_Node000001_Node000006"><a xlink:title=" ">
<path fill="none" stroke="#63b8ff" d="M122.67,-232.37C137.72,-236.84 154.19,-241.72 169.78,-246.35"/>
<polygon fill="#63b8ff" stroke="#63b8ff" points="168.38,-249.59 178.96,-249.08 170.37,-242.88 168.38,-249.59"/>
</a>
</g>
</g>
<!-- Node7 -->
<g id="Node000007" class="node">
<title>Node7</title>
<g id="a_Node000007"><a xlink:href="structhri_1_1_graphics_pipeline_builder.html#a50539a9cc2f38a2da3416d07f069e8b3" target="_top" xlink:title=" ">
<polygon fill="white" stroke="#666666" points="305,-232 169,-232 169,-200 305,-200 305,-232"/>
<text text-anchor="start" x="177" y="-218.5" font-family="Helvetica,sans-Serif" font-size="10.00">hri::GraphicsPipelineBuilder</text>
<text text-anchor="middle" x="237" y="-206.5" font-family="Helvetica,sans-Serif" font-size="10.00">::initDefaultViewport</text>
</a>
</g>
</g>
<!-- Node1&#45;&gt;Node7 -->
<g id="edge6_Node000001_Node000007" class="edge">
<title>Node1&#45;&gt;Node7</title>
<g id="a_edge6_Node000001_Node000007"><a xlink:title=" ">
<path fill="none" stroke="#63b8ff" d="M133.13,-216C141.04,-216 149.19,-216 157.26,-216"/>
<polygon fill="#63b8ff" stroke="#63b8ff" points="157.09,-219.5 167.09,-216 157.09,-212.5 157.09,-219.5"/>
</a>
</g>
</g>
<!-- Node8 -->
<g id="Node000008" class="node">
<title>Node8</title>
<g id="a_Node000008"><a xlink:href="structhri_1_1_graphics_pipeline_builder.html#abd3ba37381aa860148b95c6feb6ca129" target="_top" xlink:title=" ">
<polygon fill="white" stroke="#666666" points="305,-182 169,-182 169,-150 305,-150 305,-182"/>
<text text-anchor="start" x="177" y="-168.5" font-family="Helvetica,sans-Serif" font-size="10.00">hri::GraphicsPipelineBuilder</text>
<text text-anchor="middle" x="237" y="-156.5" font-family="Helvetica,sans-Serif" font-size="10.00">::initDepthStencilState</text>
</a>
</g>
</g>
<!-- Node1&#45;&gt;Node8 -->
<g id="edge7_Node000001_Node000008" class="edge">
<title>Node1&#45;&gt;Node8</title>
<g id="a_edge7_Node000001_Node000008"><a xlink:title=" ">
<path fill="none" stroke="#63b8ff" d="M122.67,-199.63C137.72,-195.16 154.19,-190.28 169.78,-185.65"/>
<polygon fill="#63b8ff" stroke="#63b8ff" points="170.37,-189.12 178.96,-182.92 168.38,-182.41 170.37,-189.12"/>
</a>
</g>
</g>
<!-- Node9 -->
<g id="Node000009" class="node">
<title>Node9</title>
<g id="a_Node000009"><a xlink:href="structhri_1_1_graphics_pipeline_builder.html#ac7a8817225341e5268221226e0040b3b" target="_top" xlink:title=" ">
<polygon fill="white" stroke="#666666" points="305,-132 169,-132 169,-100 305,-100 305,-132"/>
<text text-anchor="start" x="177" y="-118.5" font-family="Helvetica,sans-Serif" font-size="10.00">hri::GraphicsPipelineBuilder</text>
<text text-anchor="middle" x="237" y="-106.5" font-family="Helvetica,sans-Serif" font-size="10.00">::initInputAssemblyState</text>
</a>
</g>
</g>
<!-- Node1&#45;&gt;Node9 -->
<g id="edge8_Node000001_Node000009" class="edge">
<title>Node1&#45;&gt;Node9</title>
<g id="a_edge8_Node000001_Node000009"><a xlink:title=" ">
<path fill="none" stroke="#63b8ff" d="M86.25,-199.63C105.84,-183.14 137.99,-157.81 169,-141 171.48,-139.65 174.05,-138.35 176.68,-137.09"/>
<polygon fill="#63b8ff" stroke="#63b8ff" points="177.91,-140.37 185.6,-133.08 175.05,-133.99 177.91,-140.37"/>
</a>
</g>
</g>
<!-- Node10 -->
<g id="Node000010" class="node">
<title>Node10</title>
<g id="a_Node000010"><a xlink:href="structhri_1_1_graphics_pipeline_builder.html#ac0e003f458114cb94bdce9d73d6b6526" target="_top" xlink:title=" ">
<polygon fill="white" stroke="#666666" points="305,-82 169,-82 169,-50 305,-50 305,-82"/>
<text text-anchor="start" x="177" y="-68.5" font-family="Helvetica,sans-Serif" font-size="10.00">hri::GraphicsPipelineBuilder</text>
<text text-anchor="middle" x="237" y="-56.5" font-family="Helvetica,sans-Serif" font-size="10.00">::initMultisampleState</text>
</a>
</g>
</g>
<!-- Node1&#45;&gt;Node10 -->
<g id="edge9_Node000001_Node000010" class="edge">
<title>Node1&#45;&gt;Node10</title>
<g id="a_edge9_Node000001_Node000010"><a xlink:title=" ">
<path fill="none" stroke="#63b8ff" d="M76.64,-199.88C92.32,-173.58 126.77,-121.34 169,-91 170.53,-89.9 172.1,-88.85 173.72,-87.84"/>
<polygon fill="#63b8ff" stroke="#63b8ff" points="175.01,-91.13 182.06,-83.22 171.62,-85 175.01,-91.13"/>
</a>
</g>
</g>
<!-- Node11 -->
<g id="Node000011" class="node">
<title>Node11</title>
<g id="a_Node000011"><a xlink:href="structhri_1_1_graphics_pipeline_builder.html#aaaa7a563067832f496b46ee8174db0ec" target="_top" xlink:title=" ">
<polygon fill="white" stroke="#666666" points="305,-32 169,-32 169,0 305,0 305,-32"/>
<text text-anchor="start" x="177" y="-18.5" font-family="Helvetica,sans-Serif" font-size="10.00">hri::GraphicsPipelineBuilder</text>
<text text-anchor="middle" x="237" y="-6.5" font-family="Helvetica,sans-Serif" font-size="10.00">::initRasterizationState</text>
</a>
</g>
</g>
<!-- Node1&#45;&gt;Node11 -->
<g id="edge10_Node000001_Node000011" class="edge">
<title>Node1&#45;&gt;Node11</title>
<g id="a_edge10_Node000001_Node000011"><a xlink:title=" ">
<path fill="none" stroke="#63b8ff" d="M72.76,-199.51C84.53,-165.21 116.13,-85.64 169,-41 170.09,-40.08 171.23,-39.19 172.39,-38.33"/>
<polygon fill="#63b8ff" stroke="#63b8ff" points="173.99,-41.46 180.56,-33.14 170.24,-35.54 173.99,-41.46"/>
</a>
</g>
</g>
<!-- Node3 -->
<g id="Node000003" class="node">
<title>Node3</title>
<g id="a_Node000003"><a xlink:href="structhri_1_1_descriptor_set_layout.html#a44d96a9bbc20103084787671af90b88d" target="_top" xlink:title="Retrieve the set layout handle.">
<polygon fill="white" stroke="#666666" points="462,-432 341,-432 341,-400 462,-400 462,-432"/>
<text text-anchor="start" x="349" y="-418.5" font-family="Helvetica,sans-Serif" font-size="10.00">hri::DescriptorSetLayout</text>
<text text-anchor="middle" x="401.5" y="-406.5" font-family="Helvetica,sans-Serif" font-size="10.00">::setLayout</text>
</a>
</g>
</g>
<!-- Node2&#45;&gt;Node3 -->
<g id="edge2_Node000002_Node000003" class="edge">
<title>Node2&#45;&gt;Node3</title>
<g id="a_edge2_Node000002_Node000003"><a xlink:title=" ">
<path fill="none" stroke="#63b8ff" d="M300.36,-416C309.88,-416 319.77,-416 329.46,-416"/>
<polygon fill="#63b8ff" stroke="#63b8ff" points="329.2,-419.5 339.2,-416 329.2,-412.5 329.2,-419.5"/>
</a>
</g>
</g>
</g>
</svg>
