<?xml version="1.0" encoding="UTF-8" standalone="no"?>
<!DOCTYPE svg PUBLIC "-//W3C//DTD SVG 1.1//EN"
 "http://www.w3.org/Graphics/SVG/1.1/DTD/svg11.dtd">
<!-- Generated by graphviz version 10.0.1 (20240210.2158)
 -->
<!-- Title: raytracing::ShaderBindingTable::indexCount Pages: 1 -->
<svg width="467pt" height="90pt"
 viewBox="0.00 0.00 467.00 90.00" xmlns="http://www.w3.org/2000/svg" xmlns:xlink="http://www.w3.org/1999/xlink">
<g id="graph0" class="graph" transform="scale(1 1) rotate(0) translate(4 86)">
<title>raytracing::ShaderBindingTable::indexCount</title>
<!-- Node1 -->
<g id="Node000001" class="node">
<title>Node1</title>
<g id="a_Node000001"><a xlink:title="Get the number of shader stage indices in a shader group.">
<polygon fill="#999999" stroke="#666666" points="459,-60 331.25,-60 331.25,-28 459,-28 459,-60"/>
<text text-anchor="start" x="339.25" y="-46.5" font-family="Helvetica,sans-Serif" font-size="10.00">raytracing::ShaderBinding</text>
<text text-anchor="middle" x="395.12" y="-34.5" font-family="Helvetica,sans-Serif" font-size="10.00">Table::indexCount</text>
</a>
</g>
</g>
<!-- Node2 -->
<g id="Node000002" class="node">
<title>Node2</title>
<g id="a_Node000002"><a xlink:href="classraytracing_1_1_shader_binding_table.html#ae8f9c78889c59caa2403276f3b3d5ed4" target="_top" xlink:title="Create a new SBT.">
<polygon fill="white" stroke="#666666" points="131.5,-82 0,-82 0,-50 131.5,-50 131.5,-82"/>
<text text-anchor="start" x="8" y="-68.5" font-family="Helvetica,sans-Serif" font-size="10.00">raytracing::ShaderBinding</text>
<text text-anchor="middle" x="65.75" y="-56.5" font-family="Helvetica,sans-Serif" font-size="10.00">Table::ShaderBindingTable</text>
</a>
</g>
</g>
<!-- Node1&#45;&gt;Node2 -->
<g id="edge1_Node000001_Node000002" class="edge">
<title>Node1&#45;&gt;Node2</title>
<g id="a_edge1_Node000001_Node000002"><a xlink:title=" ">
<path fill="none" stroke="#63b8ff" d="M319.62,-49.01C263.06,-52.81 186.04,-57.98 131.92,-61.62"/>
<polygon fill="#63b8ff" stroke="#63b8ff" points="319.75,-52.51 329.49,-48.34 319.28,-45.52 319.75,-52.51"/>
</a>
</g>
</g>
<!-- Node3 -->
<g id="Node000003" class="node">
<title>Node3</title>
<g id="a_Node000003"><a xlink:href="classraytracing_1_1_shader_binding_table.html#a42673cf488a9ab6247be79889d7f6e81" target="_top" xlink:title="Get the size of an SBT Shader Group.">
<polygon fill="white" stroke="#666666" points="295.25,-38 167.5,-38 167.5,-6 295.25,-6 295.25,-38"/>
<text text-anchor="start" x="175.5" y="-24.5" font-family="Helvetica,sans-Serif" font-size="10.00">raytracing::ShaderBinding</text>
<text text-anchor="middle" x="231.38" y="-12.5" font-family="Helvetica,sans-Serif" font-size="10.00">Table::size</text>
</a>
</g>
</g>
<!-- Node1&#45;&gt;Node3 -->
<g id="edge2_Node000001_Node000003" class="edge">
<title>Node1&#45;&gt;Node3</title>
<g id="a_edge2_Node000001_Node000003"><a xlink:title=" ">
<path fill="none" stroke="#63b8ff" d="M319.83,-33.9C311.78,-32.8 303.64,-31.69 295.74,-30.62"/>
<polygon fill="#63b8ff" stroke="#63b8ff" points="319.24,-37.35 329.63,-35.23 320.19,-30.41 319.24,-37.35"/>
</a>
</g>
</g>
<!-- Node3&#45;&gt;Node2 -->
<g id="edge4_Node000003_Node000002" class="edge">
<title>Node3&#45;&gt;Node2</title>
<g id="a_edge4_Node000003_Node000002"><a xlink:title=" ">
<path fill="none" stroke="#63b8ff" d="M158.52,-41.32C148.34,-44.06 137.95,-46.85 128,-49.53"/>
<polygon fill="#63b8ff" stroke="#63b8ff" points="159.24,-44.75 167.99,-38.78 157.42,-37.99 159.24,-44.75"/>
</a>
</g>
</g>
<!-- Node4 -->
<g id="Node000004" class="node">
<title>Node4</title>
<g id="a_Node000004"><a xlink:href="classraytracing_1_1_shader_binding_table.html#af7218aaad09d256d7e171776f445e005" target="_top" xlink:title="Get an SBT region.">
<polygon fill="white" stroke="#666666" points="129.62,-32 1.88,-32 1.88,0 129.62,0 129.62,-32"/>
<text text-anchor="start" x="9.88" y="-18.5" font-family="Helvetica,sans-Serif" font-size="10.00">raytracing::ShaderBinding</text>
<text text-anchor="middle" x="65.75" y="-6.5" font-family="Helvetica,sans-Serif" font-size="10.00">Table::getRegion</text>
</a>
</g>
</g>
<!-- Node3&#45;&gt;Node4 -->
<g id="edge3_Node000003_Node000004" class="edge">
<title>Node3&#45;&gt;Node4</title>
<g id="a_edge3_Node000003_Node000004"><a xlink:title=" ">
<path fill="none" stroke="#63b8ff" d="M155.89,-19.27C147.28,-18.95 138.56,-18.63 130.11,-18.32"/>
<polygon fill="#63b8ff" stroke="#63b8ff" points="155.48,-22.76 165.6,-19.62 155.74,-15.76 155.48,-22.76"/>
</a>
</g>
</g>
</g>
</svg>
