<?xml version="1.0" encoding="UTF-8" standalone="no"?>
<!DOCTYPE svg PUBLIC "-//W3C//DTD SVG 1.1//EN"
 "http://www.w3.org/Graphics/SVG/1.1/DTD/svg11.dtd">
<!-- Generated by graphviz version 10.0.1 (20240210.2158)
 -->
<!-- Title: Renderer::setVSyncMode Pages: 1 -->
<svg width="409pt" height="40pt"
 viewBox="0.00 0.00 409.25 40.00" xmlns="http://www.w3.org/2000/svg" xmlns:xlink="http://www.w3.org/1999/xlink">
<g id="graph0" class="graph" transform="scale(1 1) rotate(0) translate(4 36)">
<title>Renderer::setVSyncMode</title>
<!-- Node1 -->
<g id="Node000001" class="node">
<title>Node1</title>
<g id="a_Node000001"><a xlink:title=" ">
<polygon fill="#999999" stroke="#666666" points="127.75,-26 0,-26 0,-6 127.75,-6 127.75,-26"/>
<text text-anchor="middle" x="63.88" y="-12.5" font-family="Helvetica,sans-Serif" font-size="10.00">Renderer::setVSyncMode</text>
</a>
</g>
</g>
<!-- Node2 -->
<g id="Node000002" class="node">
<title>Node2</title>
<g id="a_Node000002"><a xlink:href="classhri_1_1_render_context.html#ac97443dd7688d762d9a865c3b106ae3d" target="_top" xlink:title="Set the VSync mode for the swap chain. Recreates the swap chain. NOTE: does not free any allocated sw...">
<polygon fill="white" stroke="#666666" points="260.75,-32 163.75,-32 163.75,0 260.75,0 260.75,-32"/>
<text text-anchor="start" x="171.75" y="-18.5" font-family="Helvetica,sans-Serif" font-size="10.00">hri::RenderContext</text>
<text text-anchor="middle" x="212.25" y="-6.5" font-family="Helvetica,sans-Serif" font-size="10.00">::setVSyncMode</text>
</a>
</g>
</g>
<!-- Node1&#45;&gt;Node2 -->
<g id="edge1_Node000001_Node000002" class="edge">
<title>Node1&#45;&gt;Node2</title>
<g id="a_edge1_Node000001_Node000002"><a xlink:title=" ">
<path fill="none" stroke="#63b8ff" d="M128.23,-16C136.12,-16 144.16,-16 151.99,-16"/>
<polygon fill="#63b8ff" stroke="#63b8ff" points="151.74,-19.5 161.74,-16 151.74,-12.5 151.74,-19.5"/>
</a>
</g>
</g>
<!-- Node3 -->
<g id="Node000003" class="node">
<title>Node3</title>
<g id="a_Node000003"><a xlink:href="classhri_1_1_render_context.html#add095daf5c2e22f4250ac18c02fbbe50" target="_top" xlink:title="Recreate the swap chain, freeing old resources. NOTE: does not free any allocated swap images or view...">
<polygon fill="white" stroke="#666666" points="401.25,-32 296.75,-32 296.75,0 401.25,0 401.25,-32"/>
<text text-anchor="start" x="304.75" y="-18.5" font-family="Helvetica,sans-Serif" font-size="10.00">hri::RenderContext</text>
<text text-anchor="middle" x="349" y="-6.5" font-family="Helvetica,sans-Serif" font-size="10.00">::recreateSwapchain</text>
</a>
</g>
</g>
<!-- Node2&#45;&gt;Node3 -->
<g id="edge2_Node000002_Node000003" class="edge">
<title>Node2&#45;&gt;Node3</title>
<g id="a_edge2_Node000002_Node000003"><a xlink:title=" ">
<path fill="none" stroke="#63b8ff" d="M261.14,-16C268.95,-16 277.15,-16 285.26,-16"/>
<polygon fill="#63b8ff" stroke="#63b8ff" points="285.1,-19.5 295.1,-16 285.1,-12.5 285.1,-19.5"/>
</a>
</g>
</g>
</g>
</svg>
