<?xml version="1.0" encoding="UTF-8" standalone="no"?>
<!DOCTYPE svg PUBLIC "-//W3C//DTD SVG 1.1//EN"
 "http://www.w3.org/Graphics/SVG/1.1/DTD/svg11.dtd">
<!-- Generated by graphviz version 10.0.1 (20240210.2158)
 -->
<!-- Title: hri::DescriptorSetManager::descriptorSet Pages: 1 -->
<svg width="300pt" height="90pt"
 viewBox="0.00 0.00 300.25 90.00" xmlns="http://www.w3.org/2000/svg" xmlns:xlink="http://www.w3.org/1999/xlink">
<g id="graph0" class="graph" transform="scale(1 1) rotate(0) translate(4 86)">
<title>hri::DescriptorSetManager::descriptorSet</title>
<!-- Node1 -->
<g id="Node000001" class="node">
<title>Node1</title>
<g id="a_Node000001"><a xlink:title="Retrieve the internal set handle.">
<polygon fill="#999999" stroke="#666666" points="292.25,-57 163,-57 163,-25 292.25,-25 292.25,-57"/>
<text text-anchor="start" x="171" y="-43.5" font-family="Helvetica,sans-Serif" font-size="10.00">hri::DescriptorSetManager</text>
<text text-anchor="middle" x="227.62" y="-31.5" font-family="Helvetica,sans-Serif" font-size="10.00">::descriptorSet</text>
</a>
</g>
</g>
<!-- Node2 -->
<g id="Node000002" class="node">
<title>Node2</title>
<g id="a_Node000002"><a xlink:href="class_g_buffer_layout_subsystem.html#a99e8e6d2ea238397874b4139821fee4f" target="_top" xlink:title="Record this subsystem&#39;s render commands.">
<polygon fill="white" stroke="#666666" points="127,-82 0,-82 0,-50 127,-50 127,-82"/>
<text text-anchor="start" x="8" y="-68.5" font-family="Helvetica,sans-Serif" font-size="10.00">GBufferLayoutSubsystem</text>
<text text-anchor="middle" x="63.5" y="-56.5" font-family="Helvetica,sans-Serif" font-size="10.00">::record</text>
</a>
</g>
</g>
<!-- Node1&#45;&gt;Node2 -->
<g id="edge1_Node000001_Node000002" class="edge">
<title>Node1&#45;&gt;Node2</title>
<g id="a_edge1_Node000001_Node000002"><a xlink:title=" ">
<path fill="none" stroke="#63b8ff" d="M151.29,-52.62C143.27,-53.85 135.17,-55.1 127.32,-56.31"/>
<polygon fill="#63b8ff" stroke="#63b8ff" points="151.7,-56.09 161.05,-51.11 150.64,-49.18 151.7,-56.09"/>
</a>
</g>
</g>
<!-- Node3 -->
<g id="Node000003" class="node">
<title>Node3</title>
<g id="a_Node000003"><a xlink:href="class_presentation_subsystem.html#aa08e6b3f6b728dd7e36648f0ffc7d269" target="_top" xlink:title="Record this subsystem&#39;s render commands.">
<polygon fill="white" stroke="#666666" points="123.62,-32 3.38,-32 3.38,0 123.62,0 123.62,-32"/>
<text text-anchor="start" x="11.38" y="-18.5" font-family="Helvetica,sans-Serif" font-size="10.00">PresentationSubsystem</text>
<text text-anchor="middle" x="63.5" y="-6.5" font-family="Helvetica,sans-Serif" font-size="10.00">::record</text>
</a>
</g>
</g>
<!-- Node1&#45;&gt;Node3 -->
<g id="edge2_Node000001_Node000003" class="edge">
<title>Node1&#45;&gt;Node3</title>
<g id="a_edge2_Node000001_Node000003"><a xlink:title=" ">
<path fill="none" stroke="#63b8ff" d="M151.38,-29.4C142.16,-27.98 132.84,-26.54 123.89,-25.16"/>
<polygon fill="#63b8ff" stroke="#63b8ff" points="150.64,-32.82 161.05,-30.89 151.7,-25.91 150.64,-32.82"/>
</a>
</g>
</g>
</g>
</svg>
