<?xml version="1.0" encoding="UTF-8" standalone="no"?>
<!DOCTYPE svg PUBLIC "-//W3C//DTD SVG 1.1//EN"
 "http://www.w3.org/Graphics/SVG/1.1/DTD/svg11.dtd">
<!-- Generated by graphviz version 10.0.1 (20240210.2158)
 -->
<!-- Title: hri::Camera::updateMatrices Pages: 1 -->
<svg width="289pt" height="66pt"
 viewBox="0.00 0.00 289.00 66.00" xmlns="http://www.w3.org/2000/svg" xmlns:xlink="http://www.w3.org/1999/xlink">
<g id="graph0" class="graph" transform="scale(1 1) rotate(0) translate(4 62)">
<title>hri::Camera::updateMatrices</title>
<!-- Node1 -->
<g id="Node000001" class="node">
<title>Node1</title>
<g id="a_Node000001"><a xlink:title="Update view &amp; project matrices using basis vectors.">
<polygon fill="#999999" stroke="#666666" points="281,-39 142,-39 142,-19 281,-19 281,-39"/>
<text text-anchor="middle" x="211.5" y="-25.5" font-family="Helvetica,sans-Serif" font-size="10.00">hri::Camera::updateMatrices</text>
</a>
</g>
</g>
<!-- Node2 -->
<g id="Node000002" class="node">
<title>Node2</title>
<g id="a_Node000002"><a xlink:href="classhri_1_1_camera.html#a1d5d52436f4eb15ae2d4a2b0feb44fbd" target="_top" xlink:title="Instantiate a camera at the world origin, looking forward, with custom parameters.">
<polygon fill="white" stroke="#666666" points="106,-58 0,-58 0,-38 106,-38 106,-58"/>
<text text-anchor="middle" x="53" y="-44.5" font-family="Helvetica,sans-Serif" font-size="10.00">hri::Camera::Camera</text>
</a>
</g>
</g>
<!-- Node1&#45;&gt;Node2 -->
<g id="edge1_Node000001_Node000002" class="edge">
<title>Node1&#45;&gt;Node2</title>
<g id="a_edge1_Node000001_Node000002"><a xlink:title=" ">
<path fill="none" stroke="#63b8ff" d="M130.56,-38.71C122.26,-39.71 113.99,-40.72 106.12,-41.67"/>
<polygon fill="#63b8ff" stroke="#63b8ff" points="130.85,-42.2 140.35,-37.52 130.01,-35.25 130.85,-42.2"/>
</a>
</g>
</g>
<!-- Node3 -->
<g id="Node000003" class="node">
<title>Node3</title>
<g id="a_Node000003"><a xlink:href="classhri_1_1_camera.html#af28880b5e06eb181cf5f4afd82f5c7ae" target="_top" xlink:title="Instantiate a camera.">
<polygon fill="white" stroke="#666666" points="106,-20 0,-20 0,0 106,0 106,-20"/>
<text text-anchor="middle" x="53" y="-6.5" font-family="Helvetica,sans-Serif" font-size="10.00">hri::Camera::Camera</text>
</a>
</g>
</g>
<!-- Node1&#45;&gt;Node3 -->
<g id="edge2_Node000001_Node000003" class="edge">
<title>Node1&#45;&gt;Node3</title>
<g id="a_edge2_Node000001_Node000003"><a xlink:title=" ">
<path fill="none" stroke="#63b8ff" d="M130.56,-19.29C122.26,-18.29 113.99,-17.28 106.12,-16.33"/>
<polygon fill="#63b8ff" stroke="#63b8ff" points="130.01,-22.75 140.35,-20.48 130.85,-15.8 130.01,-22.75"/>
</a>
</g>
</g>
</g>
</svg>
