<?xml version="1.0" encoding="UTF-8" standalone="no"?>
<!DOCTYPE svg PUBLIC "-//W3C//DTD SVG 1.1//EN"
 "http://www.w3.org/Graphics/SVG/1.1/DTD/svg11.dtd">
<!-- Generated by graphviz version 10.0.1 (20240210.2158)
 -->
<!-- Title: GBufferLayoutSubsystem Pages: 1 -->
<svg width="209pt" height="536pt"
 viewBox="0.00 0.00 209.00 536.00" xmlns="http://www.w3.org/2000/svg" xmlns:xlink="http://www.w3.org/1999/xlink">
<g id="graph0" class="graph" transform="scale(1 1) rotate(0) translate(4 532)">
<title>GBufferLayoutSubsystem</title>
<!-- Node1 -->
<g id="Node000001" class="node">
<title>Node1</title>
<g id="a_Node000001"><a xlink:title="The GBuffer Layout Subsystem handles drawing a scene and storing the resulting geometry data (depth,...">
<polygon fill="#999999" stroke="none" points="201,-220 0,-220 0,0 201,0 201,-220"/>
<text text-anchor="start" x="45" y="-206.5" font-family="Helvetica,sans-Serif" font-size="10.00">GBufferLayoutSubsystem</text>
<text text-anchor="start" x="4.38" y="-190.5" font-family="Helvetica,sans-Serif" font-size="10.00">#</text>
<text text-anchor="start" x="14" y="-190.5" font-family="Helvetica,sans-Serif" font-size="10.00">GBufferLayoutFrameInfo</text>
<text text-anchor="start" x="14" y="-178.5" font-family="Helvetica,sans-Serif" font-size="10.00"> m_currentFrameInfo</text>
<text text-anchor="start" x="4" y="-162.5" font-family="Helvetica,sans-Serif" font-size="10.00">+</text>
<text text-anchor="start" x="14" y="-162.5" font-family="Helvetica,sans-Serif" font-size="10.00">GBufferLayoutSubsystem</text>
<text text-anchor="start" x="14" y="-150.5" font-family="Helvetica,sans-Serif" font-size="10.00">(hri::RenderContext &amp;ctx,</text>
<text text-anchor="start" x="14" y="-138.5" font-family="Helvetica,sans-Serif" font-size="10.00"> hri::ShaderDatabase &amp;shaderDB,</text>
<text text-anchor="start" x="14" y="-126.5" font-family="Helvetica,sans-Serif" font-size="10.00"> VkRenderPass renderPass, VkDescriptor</text>
<text text-anchor="start" x="14" y="-114.5" font-family="Helvetica,sans-Serif" font-size="10.00">SetLayout sceneDataSetLayout)</text>
<text text-anchor="start" x="4" y="-98.5" font-family="Helvetica,sans-Serif" font-size="10.00">+</text>
<text text-anchor="start" x="14" y="-98.5" font-family="Helvetica,sans-Serif" font-size="10.00">virtual ~GBufferLayoutSubsystem</text>
<text text-anchor="start" x="14" y="-86.5" font-family="Helvetica,sans-Serif" font-size="10.00">()=default</text>
<text text-anchor="start" x="4" y="-70.5" font-family="Helvetica,sans-Serif" font-size="10.00">+</text>
<text text-anchor="start" x="14" y="-70.5" font-family="Helvetica,sans-Serif" font-size="10.00">virtual void record</text>
<text text-anchor="start" x="14" y="-58.5" font-family="Helvetica,sans-Serif" font-size="10.00">(hri::ActiveFrame &amp;frame)</text>
<text text-anchor="start" x="14" y="-46.5" font-family="Helvetica,sans-Serif" font-size="10.00"> const override</text>
<text text-anchor="start" x="4" y="-30.5" font-family="Helvetica,sans-Serif" font-size="10.00">+</text>
<text text-anchor="start" x="14" y="-30.5" font-family="Helvetica,sans-Serif" font-size="10.00">void updateFrameInfo</text>
<text text-anchor="start" x="14" y="-18.5" font-family="Helvetica,sans-Serif" font-size="10.00">(const GBufferLayoutFrameInfo</text>
<text text-anchor="start" x="14" y="-6.5" font-family="Helvetica,sans-Serif" font-size="10.00"> &amp;frameInfo)</text>
<polygon fill="#666666" stroke="#666666" points="0,-202 0,-202 201,-202 201,-202 0,-202"/>
<polygon fill="#666666" stroke="#666666" points="0,-174 0,-174 12,-174 12,-174 0,-174"/>
<polygon fill="#666666" stroke="#666666" points="12,-174 12,-174 201,-174 201,-174 12,-174"/>
<polygon fill="none" stroke="#666666" points="0,0 0,-220 201,-220 201,0 0,0"/>
</a>
</g>
</g>
<!-- Node2 -->
<g id="Node000002" class="node">
<title>Node2</title>
<g id="a_Node000002"><a xlink:href="classhri_1_1_i_render_subsystem.html" target="_top" xlink:title="A Render Subsystem manages a render pipeline, layout, and subsystem descriptors. A Render Subsystem b...">
<polygon fill="white" stroke="none" points="187.5,-528 13.5,-528 13.5,-256 187.5,-256 187.5,-528"/>
<text text-anchor="start" x="51" y="-514.5" font-family="Helvetica,sans-Serif" font-size="10.00">hri::IRenderSubsystem</text>
<text text-anchor="start" x="17.88" y="-498.5" font-family="Helvetica,sans-Serif" font-size="10.00">#</text>
<text text-anchor="start" x="27.5" y="-498.5" font-family="Helvetica,sans-Serif" font-size="10.00">RenderContext &amp; m_ctx</text>
<text text-anchor="start" x="17.88" y="-482.5" font-family="Helvetica,sans-Serif" font-size="10.00">#</text>
<text text-anchor="start" x="27.5" y="-482.5" font-family="Helvetica,sans-Serif" font-size="10.00">hri_debug::DebugLabelHandler</text>
<text text-anchor="start" x="27.5" y="-470.5" font-family="Helvetica,sans-Serif" font-size="10.00"> m_debug</text>
<text text-anchor="start" x="17.88" y="-454.5" font-family="Helvetica,sans-Serif" font-size="10.00">#</text>
<text text-anchor="start" x="27.5" y="-454.5" font-family="Helvetica,sans-Serif" font-size="10.00">VkPipelineLayout m</text>
<text text-anchor="start" x="27.5" y="-442.5" font-family="Helvetica,sans-Serif" font-size="10.00">_layout</text>
<text text-anchor="start" x="17.88" y="-426.5" font-family="Helvetica,sans-Serif" font-size="10.00">#</text>
<text text-anchor="start" x="27.5" y="-426.5" font-family="Helvetica,sans-Serif" font-size="10.00">PipelineStateObject</text>
<text text-anchor="start" x="27.5" y="-414.5" font-family="Helvetica,sans-Serif" font-size="10.00"> * m_pPSO</text>
<text text-anchor="start" x="17.5" y="-398.5" font-family="Helvetica,sans-Serif" font-size="10.00">+</text>
<text text-anchor="start" x="27.5" y="-398.5" font-family="Helvetica,sans-Serif" font-size="10.00">IRenderSubsystem(Render</text>
<text text-anchor="start" x="27.5" y="-386.5" font-family="Helvetica,sans-Serif" font-size="10.00">Context &amp;ctx)</text>
<text text-anchor="start" x="17.5" y="-370.5" font-family="Helvetica,sans-Serif" font-size="10.00">+</text>
<text text-anchor="start" x="27.5" y="-370.5" font-family="Helvetica,sans-Serif" font-size="10.00">virtual ~IRenderSubsystem()</text>
<text text-anchor="start" x="17.5" y="-354.5" font-family="Helvetica,sans-Serif" font-size="10.00">+</text>
<text text-anchor="start" x="27.5" y="-354.5" font-family="Helvetica,sans-Serif" font-size="10.00">IRenderSubsystem(const</text>
<text text-anchor="start" x="27.5" y="-342.5" font-family="Helvetica,sans-Serif" font-size="10.00"> IRenderSubsystem &amp;)=delete</text>
<text text-anchor="start" x="17.5" y="-326.5" font-family="Helvetica,sans-Serif" font-size="10.00">+</text>
<text text-anchor="start" x="27.5" y="-326.5" font-family="Helvetica,sans-Serif" font-size="10.00">IRenderSubsystem &amp;</text>
<text text-anchor="start" x="27.5" y="-314.5" font-family="Helvetica,sans-Serif" font-size="10.00"> operator=(const IRenderSubsystem</text>
<text text-anchor="start" x="27.5" y="-302.5" font-family="Helvetica,sans-Serif" font-size="10.00"> &amp;)=delete</text>
<text text-anchor="start" x="17.5" y="-286.5" font-family="Helvetica,sans-Serif" font-size="10.00">+</text>
<text text-anchor="start" x="27.5" y="-286.5" font-family="Helvetica,sans-Serif" font-size="10.00">virtual void record</text>
<text text-anchor="start" x="27.5" y="-274.5" font-family="Helvetica,sans-Serif" font-size="10.00">(ActiveFrame &amp;frame)</text>
<text text-anchor="start" x="27.5" y="-262.5" font-family="Helvetica,sans-Serif" font-size="10.00"> const =0</text>
<polygon fill="#666666" stroke="#666666" points="13.5,-510 13.5,-510 187.5,-510 187.5,-510 13.5,-510"/>
<polygon fill="#666666" stroke="#666666" points="13.5,-410 13.5,-410 25.5,-410 25.5,-410 13.5,-410"/>
<polygon fill="#666666" stroke="#666666" points="25.5,-410 25.5,-410 187.5,-410 187.5,-410 25.5,-410"/>
<polygon fill="none" stroke="#666666" points="13.5,-256 13.5,-528 187.5,-528 187.5,-256 13.5,-256"/>
</a>
</g>
</g>
<!-- Node2&#45;&gt;Node1 -->
<g id="edge1_Node000001_Node000002" class="edge">
<title>Node2&#45;&gt;Node1</title>
<g id="a_edge1_Node000001_Node000002"><a xlink:title=" ">
<path fill="none" stroke="#63b8ff" d="M100.5,-244.9C100.5,-236.52 100.5,-228.17 100.5,-219.97"/>
<polygon fill="none" stroke="#63b8ff" points="97,-244.82 100.5,-254.82 104,-244.82 97,-244.82"/>
</a>
</g>
</g>
</g>
</svg>
