<?xml version="1.0" encoding="UTF-8" standalone="no"?>
<!DOCTYPE svg PUBLIC "-//W3C//DTD SVG 1.1//EN"
 "http://www.w3.org/Graphics/SVG/1.1/DTD/svg11.dtd">
<!-- Generated by graphviz version 10.0.1 (20240210.2158)
 -->
<!-- Title: SceneASManager::createTLAS Pages: 1 -->
<svg width="492pt" height="90pt"
 viewBox="0.00 0.00 491.75 90.00" xmlns="http://www.w3.org/2000/svg" xmlns:xlink="http://www.w3.org/1999/xlink">
<g id="graph0" class="graph" transform="scale(1 1) rotate(0) translate(4 86)">
<title>SceneASManager::createTLAS</title>
<!-- Node1 -->
<g id="Node000001" class="node">
<title>Node1</title>
<g id="a_Node000001"><a xlink:title=" ">
<polygon fill="#999999" stroke="#666666" points="151.75,-51 0,-51 0,-31 151.75,-31 151.75,-51"/>
<text text-anchor="middle" x="75.88" y="-37.5" font-family="Helvetica,sans-Serif" font-size="10.00">SceneASManager::createTLAS</text>
</a>
</g>
</g>
<!-- Node2 -->
<g id="Node000002" class="node">
<title>Node2</title>
<g id="a_Node000002"><a xlink:href="classraytracing_1_1_a_s_builder.html#a735324c0da6b17aa548c590af9b29208" target="_top" xlink:title="Generate build info from input.">
<polygon fill="white" stroke="#666666" points="301.25,-82 191.5,-82 191.5,-50 301.25,-50 301.25,-82"/>
<text text-anchor="start" x="199.5" y="-68.5" font-family="Helvetica,sans-Serif" font-size="10.00">raytracing::ASBuilder</text>
<text text-anchor="middle" x="246.38" y="-56.5" font-family="Helvetica,sans-Serif" font-size="10.00">::generateASBuildInfo</text>
</a>
</g>
</g>
<!-- Node1&#45;&gt;Node2 -->
<g id="edge1_Node000001_Node000002" class="edge">
<title>Node1&#45;&gt;Node2</title>
<g id="a_edge1_Node000001_Node000002"><a xlink:title=" ">
<path fill="none" stroke="#63b8ff" d="M147.36,-51.46C158.09,-53.05 169.12,-54.69 179.74,-56.26"/>
<polygon fill="#63b8ff" stroke="#63b8ff" points="179.17,-59.71 189.57,-57.72 180.19,-52.79 179.17,-59.71"/>
</a>
</g>
</g>
<!-- Node4 -->
<g id="Node000004" class="node">
<title>Node4</title>
<g id="a_Node000004"><a xlink:href="classraytracing_1_1_a_s_builder.html#a42350a22f3a56d2e6fa9ad06a032c723" target="_top" xlink:title="Convert an instance buffer to AS Input.">
<polygon fill="white" stroke="#666666" points="305,-32 187.75,-32 187.75,0 305,0 305,-32"/>
<text text-anchor="start" x="195.75" y="-18.5" font-family="Helvetica,sans-Serif" font-size="10.00">raytracing::ASBuilder</text>
<text text-anchor="middle" x="246.38" y="-6.5" font-family="Helvetica,sans-Serif" font-size="10.00">::instancesToGeometry</text>
</a>
</g>
</g>
<!-- Node1&#45;&gt;Node4 -->
<g id="edge3_Node000001_Node000004" class="edge">
<title>Node1&#45;&gt;Node4</title>
<g id="a_edge3_Node000001_Node000004"><a xlink:title=" ">
<path fill="none" stroke="#63b8ff" d="M147.36,-30.54C156.85,-29.13 166.58,-27.69 176.04,-26.29"/>
<polygon fill="#63b8ff" stroke="#63b8ff" points="176.56,-29.75 185.93,-24.82 175.53,-22.82 176.56,-29.75"/>
</a>
</g>
</g>
<!-- Node3 -->
<g id="Node000003" class="node">
<title>Node3</title>
<g id="a_Node000003"><a xlink:href="namespacehri.html#ad174e49d89763692b01496e2615c7d49" target="_top" xlink:title=" ">
<polygon fill="white" stroke="#666666" points="438,-76 386.75,-76 386.75,-56 438,-56 438,-76"/>
<text text-anchor="middle" x="412.38" y="-62.5" font-family="Helvetica,sans-Serif" font-size="10.00">hri::max</text>
</a>
</g>
</g>
<!-- Node2&#45;&gt;Node3 -->
<g id="edge2_Node000002_Node000003" class="edge">
<title>Node2&#45;&gt;Node3</title>
<g id="a_edge2_Node000002_Node000003"><a xlink:title=" ">
<path fill="none" stroke="#63b8ff" d="M301.53,-66C325.78,-66 353.71,-66 375.34,-66"/>
<polygon fill="#63b8ff" stroke="#63b8ff" points="375.13,-69.5 385.13,-66 375.13,-62.5 375.13,-69.5"/>
</a>
</g>
</g>
<!-- Node5 -->
<g id="Node000005" class="node">
<title>Node5</title>
<g id="a_Node000005"><a xlink:href="namespaceraytracing.html#a88f8e296ad709ea3326ae37c0be49ff5" target="_top" xlink:title="Get the device address from a buffer resource.">
<polygon fill="white" stroke="#666666" points="483.75,-26 341,-26 341,-6 483.75,-6 483.75,-26"/>
<text text-anchor="middle" x="412.38" y="-12.5" font-family="Helvetica,sans-Serif" font-size="10.00">raytracing::getDeviceAddress</text>
</a>
</g>
</g>
<!-- Node4&#45;&gt;Node5 -->
<g id="edge4_Node000004_Node000005" class="edge">
<title>Node4&#45;&gt;Node5</title>
<g id="a_edge4_Node000004_Node000005"><a xlink:title=" ">
<path fill="none" stroke="#63b8ff" d="M305.2,-16C312.97,-16 321.06,-16 329.15,-16"/>
<polygon fill="#63b8ff" stroke="#63b8ff" points="329.05,-19.5 339.05,-16 329.05,-12.5 329.05,-19.5"/>
</a>
</g>
</g>
</g>
</svg>
