<?xml version="1.0" encoding="UTF-8" standalone="no"?>
<!DOCTYPE svg PUBLIC "-//W3C//DTD SVG 1.1//EN"
 "http://www.w3.org/Graphics/SVG/1.1/DTD/svg11.dtd">
<!-- Generated by graphviz version 10.0.1 (20240210.2158)
 -->
<!-- Title: GBufferLayoutSubsystem Pages: 1 -->
<svg width="855pt" height="1936pt"
 viewBox="0.00 0.00 854.75 1936.00" xmlns="http://www.w3.org/2000/svg" xmlns:xlink="http://www.w3.org/1999/xlink">
<g id="graph0" class="graph" transform="scale(1 1) rotate(0) translate(4 1932)">
<title>GBufferLayoutSubsystem</title>
<!-- Node1 -->
<g id="Node000001" class="node">
<title>Node1</title>
<g id="a_Node000001"><a xlink:title="The GBuffer Layout Subsystem handles drawing a scene and storing the resulting geometry data (depth,...">
<polygon fill="#999999" stroke="none" points="508.5,-208 307.5,-208 307.5,0 508.5,0 508.5,-208"/>
<text text-anchor="start" x="352.5" y="-194.5" font-family="Helvetica,sans-Serif" font-size="10.00">GBufferLayoutSubsystem</text>
<text text-anchor="start" x="406.5" y="-178.5" font-family="Helvetica,sans-Serif" font-size="10.00"> </text>
<text text-anchor="start" x="311.5" y="-162.5" font-family="Helvetica,sans-Serif" font-size="10.00">+</text>
<text text-anchor="start" x="321.5" y="-162.5" font-family="Helvetica,sans-Serif" font-size="10.00">GBufferLayoutSubsystem</text>
<text text-anchor="start" x="321.5" y="-150.5" font-family="Helvetica,sans-Serif" font-size="10.00">(hri::RenderContext &amp;ctx,</text>
<text text-anchor="start" x="321.5" y="-138.5" font-family="Helvetica,sans-Serif" font-size="10.00"> hri::ShaderDatabase &amp;shaderDB,</text>
<text text-anchor="start" x="321.5" y="-126.5" font-family="Helvetica,sans-Serif" font-size="10.00"> VkRenderPass renderPass, VkDescriptor</text>
<text text-anchor="start" x="321.5" y="-114.5" font-family="Helvetica,sans-Serif" font-size="10.00">SetLayout sceneDataSetLayout)</text>
<text text-anchor="start" x="311.5" y="-98.5" font-family="Helvetica,sans-Serif" font-size="10.00">+</text>
<text text-anchor="start" x="321.5" y="-98.5" font-family="Helvetica,sans-Serif" font-size="10.00">virtual ~GBufferLayoutSubsystem</text>
<text text-anchor="start" x="321.5" y="-86.5" font-family="Helvetica,sans-Serif" font-size="10.00">()=default</text>
<text text-anchor="start" x="311.5" y="-70.5" font-family="Helvetica,sans-Serif" font-size="10.00">+</text>
<text text-anchor="start" x="321.5" y="-70.5" font-family="Helvetica,sans-Serif" font-size="10.00">virtual void record</text>
<text text-anchor="start" x="321.5" y="-58.5" font-family="Helvetica,sans-Serif" font-size="10.00">(hri::ActiveFrame &amp;frame)</text>
<text text-anchor="start" x="321.5" y="-46.5" font-family="Helvetica,sans-Serif" font-size="10.00"> const override</text>
<text text-anchor="start" x="311.5" y="-30.5" font-family="Helvetica,sans-Serif" font-size="10.00">+</text>
<text text-anchor="start" x="321.5" y="-30.5" font-family="Helvetica,sans-Serif" font-size="10.00">void updateFrameInfo</text>
<text text-anchor="start" x="321.5" y="-18.5" font-family="Helvetica,sans-Serif" font-size="10.00">(const GBufferLayoutFrameInfo</text>
<text text-anchor="start" x="321.5" y="-6.5" font-family="Helvetica,sans-Serif" font-size="10.00"> &amp;frameInfo)</text>
<polygon fill="#666666" stroke="#666666" points="307.5,-190 307.5,-190 508.5,-190 508.5,-190 307.5,-190"/>
<polygon fill="#666666" stroke="#666666" points="307.5,-174 307.5,-174 508.5,-174 508.5,-174 307.5,-174"/>
<polygon fill="none" stroke="#666666" points="307.5,0 307.5,-208 508.5,-208 508.5,0 307.5,0"/>
</a>
</g>
</g>
<!-- Node2 -->
<g id="Node000002" class="node">
<title>Node2</title>
<g id="a_Node000002"><a xlink:href="classhri_1_1_i_render_subsystem.html" target="_top" xlink:title="A Render Subsystem manages a render pipeline, layout, and subsystem descriptors. A Render Subsystem b...">
<polygon fill="white" stroke="none" points="409,-456 235,-456 235,-256 409,-256 409,-456"/>
<text text-anchor="start" x="272.5" y="-442.5" font-family="Helvetica,sans-Serif" font-size="10.00">hri::IRenderSubsystem</text>
<text text-anchor="start" x="239.38" y="-426.5" font-family="Helvetica,sans-Serif" font-size="10.00">#</text>
<text text-anchor="start" x="249" y="-426.5" font-family="Helvetica,sans-Serif" font-size="10.00">VkPipelineLayout m</text>
<text text-anchor="start" x="249" y="-414.5" font-family="Helvetica,sans-Serif" font-size="10.00">_layout</text>
<text text-anchor="start" x="239" y="-398.5" font-family="Helvetica,sans-Serif" font-size="10.00">+</text>
<text text-anchor="start" x="249" y="-398.5" font-family="Helvetica,sans-Serif" font-size="10.00">IRenderSubsystem(Render</text>
<text text-anchor="start" x="249" y="-386.5" font-family="Helvetica,sans-Serif" font-size="10.00">Context &amp;ctx)</text>
<text text-anchor="start" x="239" y="-370.5" font-family="Helvetica,sans-Serif" font-size="10.00">+</text>
<text text-anchor="start" x="249" y="-370.5" font-family="Helvetica,sans-Serif" font-size="10.00">virtual ~IRenderSubsystem()</text>
<text text-anchor="start" x="239" y="-354.5" font-family="Helvetica,sans-Serif" font-size="10.00">+</text>
<text text-anchor="start" x="249" y="-354.5" font-family="Helvetica,sans-Serif" font-size="10.00">IRenderSubsystem(const</text>
<text text-anchor="start" x="249" y="-342.5" font-family="Helvetica,sans-Serif" font-size="10.00"> IRenderSubsystem &amp;)=delete</text>
<text text-anchor="start" x="239" y="-326.5" font-family="Helvetica,sans-Serif" font-size="10.00">+</text>
<text text-anchor="start" x="249" y="-326.5" font-family="Helvetica,sans-Serif" font-size="10.00">IRenderSubsystem &amp;</text>
<text text-anchor="start" x="249" y="-314.5" font-family="Helvetica,sans-Serif" font-size="10.00"> operator=(const IRenderSubsystem</text>
<text text-anchor="start" x="249" y="-302.5" font-family="Helvetica,sans-Serif" font-size="10.00"> &amp;)=delete</text>
<text text-anchor="start" x="239" y="-286.5" font-family="Helvetica,sans-Serif" font-size="10.00">+</text>
<text text-anchor="start" x="249" y="-286.5" font-family="Helvetica,sans-Serif" font-size="10.00">virtual void record</text>
<text text-anchor="start" x="249" y="-274.5" font-family="Helvetica,sans-Serif" font-size="10.00">(ActiveFrame &amp;frame)</text>
<text text-anchor="start" x="249" y="-262.5" font-family="Helvetica,sans-Serif" font-size="10.00"> const =0</text>
<polygon fill="#666666" stroke="#666666" points="235,-438 235,-438 409,-438 409,-438 235,-438"/>
<polygon fill="#666666" stroke="#666666" points="235,-410 235,-410 247,-410 247,-410 235,-410"/>
<polygon fill="#666666" stroke="#666666" points="247,-410 247,-410 409,-410 409,-410 247,-410"/>
<polygon fill="none" stroke="#666666" points="235,-256 235,-456 409,-456 409,-256 235,-256"/>
</a>
</g>
</g>
<!-- Node2&#45;&gt;Node1 -->
<g id="edge1_Node000001_Node000002" class="edge">
<title>Node2&#45;&gt;Node1</title>
<g id="a_edge1_Node000001_Node000002"><a xlink:title=" ">
<path fill="none" stroke="#63b8ff" d="M359.62,-245.64C363.97,-233 368.39,-220.15 372.7,-207.6"/>
<polygon fill="none" stroke="#63b8ff" points="356.43,-244.17 356.48,-254.76 363.04,-246.44 356.43,-244.17"/>
</a>
</g>
</g>
<!-- Node3 -->
<g id="Node000003" class="node">
<title>Node3</title>
<g id="a_Node000003"><a xlink:href="classhri_1_1_render_context.html" target="_top" xlink:title="THe RenderContext manages the Vulkan instance, device, and swapchain state.">
<polygon fill="white" stroke="none" points="160,-928 0,-928 0,-504 160,-504 160,-928"/>
<text text-anchor="start" x="39.5" y="-914.5" font-family="Helvetica,sans-Serif" font-size="10.00">hri::RenderContext</text>
<text text-anchor="start" x="4" y="-898.5" font-family="Helvetica,sans-Serif" font-size="10.00">+</text>
<text text-anchor="start" x="14" y="-898.5" font-family="Helvetica,sans-Serif" font-size="10.00">vkb::Instance instance</text>
<text text-anchor="start" x="4" y="-882.5" font-family="Helvetica,sans-Serif" font-size="10.00">+</text>
<text text-anchor="start" x="14" y="-882.5" font-family="Helvetica,sans-Serif" font-size="10.00">VkSurfaceKHR surface</text>
<text text-anchor="start" x="4" y="-866.5" font-family="Helvetica,sans-Serif" font-size="10.00">+</text>
<text text-anchor="start" x="14" y="-866.5" font-family="Helvetica,sans-Serif" font-size="10.00">vkb::PhysicalDevice gpu</text>
<text text-anchor="start" x="4" y="-850.5" font-family="Helvetica,sans-Serif" font-size="10.00">+</text>
<text text-anchor="start" x="14" y="-850.5" font-family="Helvetica,sans-Serif" font-size="10.00">vkb::Device device</text>
<text text-anchor="start" x="4" y="-834.5" font-family="Helvetica,sans-Serif" font-size="10.00">+</text>
<text text-anchor="start" x="14" y="-834.5" font-family="Helvetica,sans-Serif" font-size="10.00">VmaAllocator allocator</text>
<text text-anchor="start" x="4" y="-818.5" font-family="Helvetica,sans-Serif" font-size="10.00">+</text>
<text text-anchor="start" x="14" y="-818.5" font-family="Helvetica,sans-Serif" font-size="10.00">vkb::Swapchain swapchain</text>
<text text-anchor="start" x="4" y="-802.5" font-family="Helvetica,sans-Serif" font-size="10.00">+</text>
<text text-anchor="start" x="14" y="-802.5" font-family="Helvetica,sans-Serif" font-size="10.00">RenderContext(RenderContext</text>
<text text-anchor="start" x="14" y="-790.5" font-family="Helvetica,sans-Serif" font-size="10.00">CreateInfo &amp;createInfo)</text>
<text text-anchor="start" x="4" y="-774.5" font-family="Helvetica,sans-Serif" font-size="10.00">+</text>
<text text-anchor="start" x="14" y="-774.5" font-family="Helvetica,sans-Serif" font-size="10.00">virtual ~RenderContext()</text>
<text text-anchor="start" x="4" y="-758.5" font-family="Helvetica,sans-Serif" font-size="10.00">+</text>
<text text-anchor="start" x="14" y="-758.5" font-family="Helvetica,sans-Serif" font-size="10.00">RenderContext(const</text>
<text text-anchor="start" x="14" y="-746.5" font-family="Helvetica,sans-Serif" font-size="10.00"> RenderContext &amp;)=delete</text>
<text text-anchor="start" x="4" y="-730.5" font-family="Helvetica,sans-Serif" font-size="10.00">+</text>
<text text-anchor="start" x="14" y="-730.5" font-family="Helvetica,sans-Serif" font-size="10.00">RenderContext &amp; operator</text>
<text text-anchor="start" x="14" y="-718.5" font-family="Helvetica,sans-Serif" font-size="10.00">=(const RenderContext &amp;)</text>
<text text-anchor="start" x="14" y="-706.5" font-family="Helvetica,sans-Serif" font-size="10.00">=delete</text>
<text text-anchor="start" x="4" y="-690.5" font-family="Helvetica,sans-Serif" font-size="10.00">+</text>
<text text-anchor="start" x="14" y="-690.5" font-family="Helvetica,sans-Serif" font-size="10.00">RenderContext(RenderContext</text>
<text text-anchor="start" x="14" y="-678.5" font-family="Helvetica,sans-Serif" font-size="10.00"> &amp;&amp;other) noexcept</text>
<text text-anchor="start" x="4" y="-662.5" font-family="Helvetica,sans-Serif" font-size="10.00">+</text>
<text text-anchor="start" x="14" y="-662.5" font-family="Helvetica,sans-Serif" font-size="10.00">RenderContext &amp; operator</text>
<text text-anchor="start" x="14" y="-650.5" font-family="Helvetica,sans-Serif" font-size="10.00">=(RenderContext &amp;&amp;other)</text>
<text text-anchor="start" x="14" y="-638.5" font-family="Helvetica,sans-Serif" font-size="10.00"> noexcept</text>
<text text-anchor="start" x="4" y="-622.5" font-family="Helvetica,sans-Serif" font-size="10.00">+</text>
<text text-anchor="start" x="14" y="-622.5" font-family="Helvetica,sans-Serif" font-size="10.00">void setVSyncMode(VSyncMode</text>
<text text-anchor="start" x="14" y="-610.5" font-family="Helvetica,sans-Serif" font-size="10.00"> vsyncMode)</text>
<text text-anchor="start" x="4" y="-594.5" font-family="Helvetica,sans-Serif" font-size="10.00">+</text>
<text text-anchor="start" x="14" y="-594.5" font-family="Helvetica,sans-Serif" font-size="10.00">void recreateSwapchain()</text>
<text text-anchor="start" x="4" y="-578.5" font-family="Helvetica,sans-Serif" font-size="10.00">+</text>
<text text-anchor="start" x="14" y="-578.5" font-family="Helvetica,sans-Serif" font-size="10.00">_PFn getInstanceFunction</text>
<text text-anchor="start" x="14" y="-566.5" font-family="Helvetica,sans-Serif" font-size="10.00">(const char *name) const</text>
<text text-anchor="start" x="4" y="-550.5" font-family="Helvetica,sans-Serif" font-size="10.00">+</text>
<text text-anchor="start" x="14" y="-550.5" font-family="Helvetica,sans-Serif" font-size="10.00">_PFn getDeviceFunction</text>
<text text-anchor="start" x="14" y="-538.5" font-family="Helvetica,sans-Serif" font-size="10.00">(const char *name) const</text>
<text text-anchor="start" x="4" y="-522.5" font-family="Helvetica,sans-Serif" font-size="10.00">+</text>
<text text-anchor="start" x="14" y="-522.5" font-family="Helvetica,sans-Serif" font-size="10.00">VkFormat swapFormat</text>
<text text-anchor="start" x="14" y="-510.5" font-family="Helvetica,sans-Serif" font-size="10.00">() const</text>
<polygon fill="#666666" stroke="#666666" points="0,-910 0,-910 160,-910 160,-910 0,-910"/>
<polygon fill="#666666" stroke="#666666" points="0,-814 0,-814 12,-814 12,-814 0,-814"/>
<polygon fill="#666666" stroke="#666666" points="12,-814 12,-814 160,-814 160,-814 12,-814"/>
<polygon fill="none" stroke="#666666" points="0,-504 0,-928 160,-928 160,-504 0,-504"/>
</a>
</g>
</g>
<!-- Node3&#45;&gt;Node2 -->
<g id="edge2_Node000002_Node000003" class="edge">
<title>Node3&#45;&gt;Node2</title>
<g id="a_edge2_Node000002_Node000003"><a xlink:title=" ">
<path fill="none" stroke="#63b8ff" d="M159.94,-517.86C162.88,-513.13 165.9,-508.5 169,-504 185.18,-480.47 205.59,-457.71 226.19,-437.41"/>
<polygon fill="none" stroke="#63b8ff" points="226.06,-437.53 227.59,-430.49 234.68,-429.19 233.15,-436.24 226.06,-437.53"/>
</a>
</g>
<text text-anchor="middle" x="207.62" y="-476.5" font-family="Helvetica,sans-Serif" font-size="10.00" fill="grey"> #m_ctx</text>
</g>
<!-- Node4 -->
<g id="Node000004" class="node">
<title>Node4</title>
<g id="a_Node000004"><a xlink:href="classhri_1_1_render_context_queue_state.html" target="_top" xlink:title="The context queue state creates and maintains the device queue setup.">
<polygon fill="white" stroke="none" points="151,-1276 9,-1276 9,-1184 151,-1184 151,-1276"/>
<text text-anchor="start" x="13.62" y="-1262.5" font-family="Helvetica,sans-Serif" font-size="10.00">hri::RenderContextQueueState</text>
<text text-anchor="start" x="78.5" y="-1246.5" font-family="Helvetica,sans-Serif" font-size="10.00"> </text>
<text text-anchor="start" x="15" y="-1230.5" font-family="Helvetica,sans-Serif" font-size="10.00">+</text>
<text text-anchor="start" x="27" y="-1230.5" font-family="Helvetica,sans-Serif" font-size="10.00">RenderContextQueueState</text>
<text text-anchor="start" x="27" y="-1218.5" font-family="Helvetica,sans-Serif" font-size="10.00">()=default</text>
<text text-anchor="start" x="15" y="-1202.5" font-family="Helvetica,sans-Serif" font-size="10.00">+</text>
<text text-anchor="start" x="27" y="-1202.5" font-family="Helvetica,sans-Serif" font-size="10.00">RenderContextQueueState</text>
<text text-anchor="start" x="27" y="-1190.5" font-family="Helvetica,sans-Serif" font-size="10.00">(vkb::Device device)</text>
<polygon fill="#666666" stroke="#666666" points="9,-1258 9,-1258 151,-1258 151,-1258 9,-1258"/>
<polygon fill="#666666" stroke="#666666" points="9,-1242 9,-1242 151,-1242 151,-1242 9,-1242"/>
<polygon fill="none" stroke="#666666" points="9,-1184 9,-1276 151,-1276 151,-1184 9,-1184"/>
</a>
</g>
</g>
<!-- Node4&#45;&gt;Node3 -->
<g id="edge3_Node000003_Node000004" class="edge">
<title>Node4&#45;&gt;Node3</title>
<g id="a_edge3_Node000003_Node000004"><a xlink:title=" ">
<path fill="none" stroke="#63b8ff" d="M80,-1184.01C80,-1129.07 80,-1032.13 80,-940.76"/>
<polygon fill="none" stroke="#63b8ff" points="80,-940.81 76,-934.81 80,-928.81 84,-934.81 80,-940.81"/>
</a>
</g>
<text text-anchor="middle" x="100.25" y="-948.5" font-family="Helvetica,sans-Serif" font-size="10.00" fill="grey"> +queues</text>
</g>
<!-- Node5 -->
<g id="Node000005" class="node">
<title>Node5</title>
<g id="a_Node000005"><a xlink:href="structhri_1_1_device_queue.html" target="_top" xlink:title="A Device Queue is a queue on the logical device to which operations can be submitted.">
<polygon fill="white" stroke="none" points="125,-1782 35,-1782 35,-1714 125,-1714 125,-1782"/>
<text text-anchor="start" x="43.25" y="-1768.5" font-family="Helvetica,sans-Serif" font-size="10.00">hri::DeviceQueue</text>
<text text-anchor="start" x="39" y="-1752.5" font-family="Helvetica,sans-Serif" font-size="10.00">+</text>
<text text-anchor="start" x="49" y="-1752.5" font-family="Helvetica,sans-Serif" font-size="10.00">uint32_t family</text>
<text text-anchor="start" x="39" y="-1736.5" font-family="Helvetica,sans-Serif" font-size="10.00">+</text>
<text text-anchor="start" x="49" y="-1736.5" font-family="Helvetica,sans-Serif" font-size="10.00">VkQueue handle</text>
<text text-anchor="start" x="78.5" y="-1720.5" font-family="Helvetica,sans-Serif" font-size="10.00"> </text>
<polygon fill="#666666" stroke="#666666" points="35,-1764 35,-1764 125,-1764 125,-1764 35,-1764"/>
<polygon fill="#666666" stroke="#666666" points="35,-1732 35,-1732 47,-1732 47,-1732 35,-1732"/>
<polygon fill="#666666" stroke="#666666" points="47,-1732 47,-1732 125,-1732 125,-1732 47,-1732"/>
<polygon fill="none" stroke="#666666" points="35,-1714 35,-1782 125,-1782 125,-1714 35,-1714"/>
</a>
</g>
</g>
<!-- Node5&#45;&gt;Node4 -->
<g id="edge4_Node000004_Node000005" class="edge">
<title>Node5&#45;&gt;Node4</title>
<g id="a_edge4_Node000004_Node000005"><a xlink:title=" ">
<path fill="none" stroke="#63b8ff" d="M80,-1714.33C80,-1628.73 80,-1397.07 80,-1288.55"/>
<polygon fill="none" stroke="#63b8ff" points="80,-1288.53 76,-1282.53 80,-1276.53 84,-1282.53 80,-1288.53"/>
</a>
</g>
<text text-anchor="middle" x="117.5" y="-1540.5" font-family="Helvetica,sans-Serif" font-size="10.00" fill="grey"> +computeQueue</text>
<text text-anchor="middle" x="117.5" y="-1528.5" font-family="Helvetica,sans-Serif" font-size="10.00" fill="grey">+graphicsQueue</text>
<text text-anchor="middle" x="117.5" y="-1516.5" font-family="Helvetica,sans-Serif" font-size="10.00" fill="grey">+presentQueue</text>
<text text-anchor="middle" x="117.5" y="-1504.5" font-family="Helvetica,sans-Serif" font-size="10.00" fill="grey">+transferQueue</text>
</g>
<!-- Node6 -->
<g id="Node000006" class="node">
<title>Node6</title>
<g id="a_Node000006"><a xlink:href="classhri__debug_1_1_debug_label_handler.html" target="_top" xlink:title="The debug label handler allows setting debug labels for Vulkan objects.">
<polygon fill="white" stroke="none" points="361.5,-816 178.5,-816 178.5,-616 361.5,-616 361.5,-816"/>
<text text-anchor="start" x="204" y="-802.5" font-family="Helvetica,sans-Serif" font-size="10.00">hri_debug::DebugLabelHandler</text>
<text text-anchor="start" x="182.88" y="-786.5" font-family="Helvetica,sans-Serif" font-size="10.00">#</text>
<text text-anchor="start" x="192.5" y="-786.5" font-family="Helvetica,sans-Serif" font-size="10.00">PFN_vkCmdBeginDebugUtils</text>
<text text-anchor="start" x="192.5" y="-774.5" font-family="Helvetica,sans-Serif" font-size="10.00">LabelEXT vkBeginDebugUtilsLabelEXT</text>
<text text-anchor="start" x="182.88" y="-758.5" font-family="Helvetica,sans-Serif" font-size="10.00">#</text>
<text text-anchor="start" x="192.5" y="-758.5" font-family="Helvetica,sans-Serif" font-size="10.00">PFN_vkCmdEndDebugUtilsLabel</text>
<text text-anchor="start" x="192.5" y="-746.5" font-family="Helvetica,sans-Serif" font-size="10.00">EXT vkEndDebugUtilsLabelEXT</text>
<text text-anchor="start" x="182.5" y="-730.5" font-family="Helvetica,sans-Serif" font-size="10.00">+</text>
<text text-anchor="start" x="192.5" y="-730.5" font-family="Helvetica,sans-Serif" font-size="10.00">DebugLabelHandler</text>
<text text-anchor="start" x="192.5" y="-718.5" font-family="Helvetica,sans-Serif" font-size="10.00">(RenderContext &amp;ctx)</text>
<text text-anchor="start" x="182.5" y="-702.5" font-family="Helvetica,sans-Serif" font-size="10.00">+</text>
<text text-anchor="start" x="192.5" y="-702.5" font-family="Helvetica,sans-Serif" font-size="10.00">virtual ~DebugLabelHandler</text>
<text text-anchor="start" x="192.5" y="-690.5" font-family="Helvetica,sans-Serif" font-size="10.00">()=default</text>
<text text-anchor="start" x="182.5" y="-674.5" font-family="Helvetica,sans-Serif" font-size="10.00">+</text>
<text text-anchor="start" x="192.5" y="-674.5" font-family="Helvetica,sans-Serif" font-size="10.00">void cmdBeginLabel</text>
<text text-anchor="start" x="192.5" y="-662.5" font-family="Helvetica,sans-Serif" font-size="10.00">(VkCommandBuffer commandBuffer,</text>
<text text-anchor="start" x="192.5" y="-650.5" font-family="Helvetica,sans-Serif" font-size="10.00"> const char *pName) const</text>
<text text-anchor="start" x="182.5" y="-634.5" font-family="Helvetica,sans-Serif" font-size="10.00">+</text>
<text text-anchor="start" x="192.5" y="-634.5" font-family="Helvetica,sans-Serif" font-size="10.00">void cmdEndLabel(VkCommand</text>
<text text-anchor="start" x="192.5" y="-622.5" font-family="Helvetica,sans-Serif" font-size="10.00">Buffer commandBuffer) const</text>
<polygon fill="#666666" stroke="#666666" points="178.5,-798 178.5,-798 361.5,-798 361.5,-798 178.5,-798"/>
<polygon fill="#666666" stroke="#666666" points="178.5,-742 178.5,-742 190.5,-742 190.5,-742 178.5,-742"/>
<polygon fill="#666666" stroke="#666666" points="190.5,-742 190.5,-742 361.5,-742 361.5,-742 190.5,-742"/>
<polygon fill="none" stroke="#666666" points="178.5,-616 178.5,-816 361.5,-816 361.5,-616 178.5,-616"/>
</a>
</g>
</g>
<!-- Node6&#45;&gt;Node2 -->
<g id="edge5_Node000002_Node000006" class="edge">
<title>Node6&#45;&gt;Node2</title>
<g id="a_edge5_Node000002_Node000006"><a xlink:title=" ">
<path fill="none" stroke="#63b8ff" d="M284.35,-616.23C291,-570.44 298.93,-515.83 305.8,-468.56"/>
<polygon fill="none" stroke="#63b8ff" points="305.8,-468.53 302.7,-462.02 307.53,-456.65 310.62,-463.17 305.8,-468.53"/>
</a>
</g>
<text text-anchor="middle" x="328" y="-476.5" font-family="Helvetica,sans-Serif" font-size="10.00" fill="grey"> #m_debug</text>
</g>
<!-- Node7 -->
<g id="Node000007" class="node">
<title>Node7</title>
<g id="a_Node000007"><a xlink:href="structhri_1_1_pipeline_state_object.html" target="_top" xlink:title="A pipeline state object (PSO) stores a pipeline and its bind point.">
<polygon fill="white" stroke="none" points="492,-756 380,-756 380,-676 492,-676 492,-756"/>
<text text-anchor="start" x="384.62" y="-742.5" font-family="Helvetica,sans-Serif" font-size="10.00">hri::PipelineStateObject</text>
<text text-anchor="start" x="385.5" y="-726.5" font-family="Helvetica,sans-Serif" font-size="10.00">+</text>
<text text-anchor="start" x="397" y="-726.5" font-family="Helvetica,sans-Serif" font-size="10.00">VkPipelineBindPoint</text>
<text text-anchor="start" x="397" y="-714.5" font-family="Helvetica,sans-Serif" font-size="10.00"> bindPoint</text>
<text text-anchor="start" x="385.5" y="-698.5" font-family="Helvetica,sans-Serif" font-size="10.00">+</text>
<text text-anchor="start" x="397" y="-698.5" font-family="Helvetica,sans-Serif" font-size="10.00">VkPipeline pipeline</text>
<text text-anchor="start" x="434.5" y="-682.5" font-family="Helvetica,sans-Serif" font-size="10.00"> </text>
<polygon fill="#666666" stroke="#666666" points="380,-738 380,-738 492,-738 492,-738 380,-738"/>
<polygon fill="#666666" stroke="#666666" points="380,-694 380,-694 395,-694 395,-694 380,-694"/>
<polygon fill="#666666" stroke="#666666" points="395,-694 395,-694 492,-694 492,-694 395,-694"/>
<polygon fill="none" stroke="#666666" points="380,-676 380,-756 492,-756 492,-676 380,-676"/>
</a>
</g>
</g>
<!-- Node7&#45;&gt;Node2 -->
<g id="edge6_Node000002_Node000007" class="edge">
<title>Node7&#45;&gt;Node2</title>
<g id="a_edge6_Node000002_Node000007"><a xlink:title=" ">
<path fill="none" stroke="#63b8ff" d="M423.98,-676.07C410.86,-633.69 389.17,-563.96 370,-504 366.26,-492.3 362.32,-480.09 358.38,-467.92"/>
<polygon fill="none" stroke="#63b8ff" points="358.43,-468.06 352.77,-463.59 354.72,-456.64 360.38,-461.12 358.43,-468.06"/>
</a>
</g>
<text text-anchor="middle" x="388" y="-476.5" font-family="Helvetica,sans-Serif" font-size="10.00" fill="grey"> #m_pPSO</text>
</g>
<!-- Node8 -->
<g id="Node000008" class="node">
<title>Node8</title>
<g id="a_Node000008"><a xlink:href="struct_g_buffer_layout_frame_info.html" target="_top" xlink:title=" ">
<polygon fill="white" stroke="none" points="591,-388 453,-388 453,-324 591,-324 591,-388"/>
<text text-anchor="start" x="469.88" y="-374.5" font-family="Helvetica,sans-Serif" font-size="10.00">GBufferLayoutFrameInfo</text>
<text text-anchor="start" x="457" y="-358.5" font-family="Helvetica,sans-Serif" font-size="10.00">+</text>
<text text-anchor="start" x="467" y="-358.5" font-family="Helvetica,sans-Serif" font-size="10.00">VkDescriptorSet sceneData</text>
<text text-anchor="start" x="467" y="-346.5" font-family="Helvetica,sans-Serif" font-size="10.00">SetHandle</text>
<text text-anchor="start" x="520.5" y="-330.5" font-family="Helvetica,sans-Serif" font-size="10.00"> </text>
<polygon fill="#666666" stroke="#666666" points="453,-370 453,-370 591,-370 591,-370 453,-370"/>
<polygon fill="#666666" stroke="#666666" points="453,-342 453,-342 465,-342 465,-342 453,-342"/>
<polygon fill="#666666" stroke="#666666" points="465,-342 465,-342 591,-342 591,-342 465,-342"/>
<polygon fill="none" stroke="#666666" points="453,-324 453,-388 591,-388 591,-324 453,-324"/>
</a>
</g>
</g>
<!-- Node8&#45;&gt;Node1 -->
<g id="edge7_Node000001_Node000008" class="edge">
<title>Node8&#45;&gt;Node1</title>
<g id="a_edge7_Node000001_Node000008"><a xlink:title=" ">
<path fill="none" stroke="#63b8ff" d="M507.91,-324.09C495.87,-297.69 477.77,-258 460.27,-219.62"/>
<polygon fill="none" stroke="#63b8ff" points="460.21,-219.5 454.09,-215.71 455.24,-208.59 461.36,-212.39 460.21,-219.5"/>
</a>
</g>
<text text-anchor="middle" x="516.25" y="-228.5" font-family="Helvetica,sans-Serif" font-size="10.00" fill="grey"> #m_currentFrameInfo</text>
</g>
<!-- Node9 -->
<g id="Node000009" class="node">
<title>Node9</title>
<g id="a_Node000009"><a xlink:href="class_scene_graph.html" target="_top" xlink:title=" ">
<polygon fill="white" stroke="none" points="673.5,-880 510.5,-880 510.5,-552 673.5,-552 673.5,-880"/>
<text text-anchor="start" x="565" y="-866.5" font-family="Helvetica,sans-Serif" font-size="10.00">SceneGraph</text>
<text text-anchor="start" x="514.5" y="-850.5" font-family="Helvetica,sans-Serif" font-size="10.00">+</text>
<text text-anchor="start" x="524.5" y="-850.5" font-family="Helvetica,sans-Serif" font-size="10.00">std::vector&lt; Material</text>
<text text-anchor="start" x="524.5" y="-838.5" font-family="Helvetica,sans-Serif" font-size="10.00"> &gt; materials</text>
<text text-anchor="start" x="514.5" y="-822.5" font-family="Helvetica,sans-Serif" font-size="10.00">+</text>
<text text-anchor="start" x="524.5" y="-822.5" font-family="Helvetica,sans-Serif" font-size="10.00">std::vector&lt; hri::Mesh</text>
<text text-anchor="start" x="524.5" y="-810.5" font-family="Helvetica,sans-Serif" font-size="10.00"> &gt; meshes</text>
<text text-anchor="start" x="514.5" y="-794.5" font-family="Helvetica,sans-Serif" font-size="10.00">+</text>
<text text-anchor="start" x="524.5" y="-794.5" font-family="Helvetica,sans-Serif" font-size="10.00">std::vector&lt; SceneNode</text>
<text text-anchor="start" x="524.5" y="-782.5" font-family="Helvetica,sans-Serif" font-size="10.00"> &gt; nodes</text>
<text text-anchor="start" x="514.5" y="-766.5" font-family="Helvetica,sans-Serif" font-size="10.00">+</text>
<text text-anchor="start" x="524.5" y="-766.5" font-family="Helvetica,sans-Serif" font-size="10.00">SceneGraph(raytracing</text>
<text text-anchor="start" x="524.5" y="-754.5" font-family="Helvetica,sans-Serif" font-size="10.00">::RayTracingContext &amp;ctx,</text>
<text text-anchor="start" x="524.5" y="-742.5" font-family="Helvetica,sans-Serif" font-size="10.00"> std::vector&lt; Material &gt;</text>
<text text-anchor="start" x="524.5" y="-730.5" font-family="Helvetica,sans-Serif" font-size="10.00"> &amp;&amp;materials, std::vector</text>
<text text-anchor="start" x="524.5" y="-718.5" font-family="Helvetica,sans-Serif" font-size="10.00">&lt; hri::Mesh &gt; &amp;&amp;meshes, std</text>
<text text-anchor="start" x="524.5" y="-706.5" font-family="Helvetica,sans-Serif" font-size="10.00">::vector&lt; SceneNode &gt; &amp;&amp;nodes)</text>
<text text-anchor="start" x="514.5" y="-690.5" font-family="Helvetica,sans-Serif" font-size="10.00">+</text>
<text text-anchor="start" x="524.5" y="-690.5" font-family="Helvetica,sans-Serif" font-size="10.00">virtual ~SceneGraph</text>
<text text-anchor="start" x="524.5" y="-678.5" font-family="Helvetica,sans-Serif" font-size="10.00">()=default</text>
<text text-anchor="start" x="514.5" y="-662.5" font-family="Helvetica,sans-Serif" font-size="10.00">+</text>
<text text-anchor="start" x="524.5" y="-662.5" font-family="Helvetica,sans-Serif" font-size="10.00">void update(float deltaTime)</text>
<text text-anchor="start" x="514.5" y="-646.5" font-family="Helvetica,sans-Serif" font-size="10.00">+</text>
<text text-anchor="start" x="524.5" y="-646.5" font-family="Helvetica,sans-Serif" font-size="10.00">const std::vector&lt;</text>
<text text-anchor="start" x="524.5" y="-634.5" font-family="Helvetica,sans-Serif" font-size="10.00"> RenderInstance &gt; &amp;</text>
<text text-anchor="start" x="524.5" y="-622.5" font-family="Helvetica,sans-Serif" font-size="10.00"> getRenderInstanceList</text>
<text text-anchor="start" x="524.5" y="-610.5" font-family="Helvetica,sans-Serif" font-size="10.00">() const</text>
<text text-anchor="start" x="514.5" y="-594.5" font-family="Helvetica,sans-Serif" font-size="10.00">+</text>
<text text-anchor="start" x="524.5" y="-594.5" font-family="Helvetica,sans-Serif" font-size="10.00">const std::vector&lt;</text>
<text text-anchor="start" x="524.5" y="-582.5" font-family="Helvetica,sans-Serif" font-size="10.00"> RenderInstance &gt; &amp;</text>
<text text-anchor="start" x="524.5" y="-570.5" font-family="Helvetica,sans-Serif" font-size="10.00"> generateRenderInstanceList</text>
<text text-anchor="start" x="524.5" y="-558.5" font-family="Helvetica,sans-Serif" font-size="10.00">(const hri::Camera &amp;camera)</text>
<polygon fill="#666666" stroke="#666666" points="510.5,-862 510.5,-862 673.5,-862 673.5,-862 510.5,-862"/>
<polygon fill="#666666" stroke="#666666" points="510.5,-778 510.5,-778 522.5,-778 522.5,-778 510.5,-778"/>
<polygon fill="#666666" stroke="#666666" points="522.5,-778 522.5,-778 673.5,-778 673.5,-778 522.5,-778"/>
<polygon fill="none" stroke="#666666" points="510.5,-552 510.5,-880 673.5,-880 673.5,-552 510.5,-552"/>
</a>
</g>
</g>
<!-- Node9&#45;&gt;Node8 -->
<g id="edge8_Node000008_Node000009" class="edge">
<title>Node9&#45;&gt;Node8</title>
<g id="a_edge8_Node000008_Node000009"><a xlink:title=" ">
<path fill="none" stroke="#63b8ff" d="M560.17,-552.24C549.26,-496.39 537.92,-438.42 530.47,-400.31"/>
<polygon fill="none" stroke="#63b8ff" points="530.48,-400.35 525.4,-395.23 528.17,-388.57 533.25,-393.69 530.48,-400.35"/>
</a>
</g>
<text text-anchor="middle" x="581.12" y="-476.5" font-family="Helvetica,sans-Serif" font-size="10.00" fill="grey"> +pSceneGraph</text>
</g>
<!-- Node10 -->
<g id="Node000010" class="node">
<title>Node10</title>
<g id="a_Node000010"><a xlink:href="struct_scene_parameters.html" target="_top" xlink:title="Scene parameters allow modifying LOD selection.">
<polygon fill="white" stroke="none" points="464,-1264 376,-1264 376,-1196 464,-1196 464,-1264"/>
<text text-anchor="start" x="381" y="-1250.5" font-family="Helvetica,sans-Serif" font-size="10.00">SceneParameters</text>
<text text-anchor="start" x="382" y="-1234.5" font-family="Helvetica,sans-Serif" font-size="10.00">+</text>
<text text-anchor="start" x="394" y="-1234.5" font-family="Helvetica,sans-Serif" font-size="10.00">float nearPoint</text>
<text text-anchor="start" x="382" y="-1218.5" font-family="Helvetica,sans-Serif" font-size="10.00">+</text>
<text text-anchor="start" x="394" y="-1218.5" font-family="Helvetica,sans-Serif" font-size="10.00">float farPoint</text>
<text text-anchor="start" x="418.5" y="-1202.5" font-family="Helvetica,sans-Serif" font-size="10.00"> </text>
<polygon fill="#666666" stroke="#666666" points="376,-1246 376,-1246 464,-1246 464,-1246 376,-1246"/>
<polygon fill="#666666" stroke="#666666" points="376,-1214 376,-1214 392,-1214 392,-1214 376,-1214"/>
<polygon fill="#666666" stroke="#666666" points="392,-1214 392,-1214 464,-1214 464,-1214 392,-1214"/>
<polygon fill="none" stroke="#666666" points="376,-1196 376,-1264 464,-1264 464,-1196 376,-1196"/>
</a>
</g>
</g>
<!-- Node10&#45;&gt;Node9 -->
<g id="edge9_Node000009_Node000010" class="edge">
<title>Node10&#45;&gt;Node9</title>
<g id="a_edge9_Node000009_Node000010"><a xlink:title=" ">
<path fill="none" stroke="#63b8ff" d="M423.47,-1196.1C429.42,-1146.89 443.83,-1051.81 473,-976 481.87,-952.95 489.87,-950.05 501,-928 506.99,-916.14 512.96,-903.79 518.82,-891.29"/>
<polygon fill="none" stroke="#63b8ff" points="518.73,-891.48 517.63,-884.35 523.78,-880.59 524.88,-887.72 518.73,-891.48"/>
</a>
</g>
<text text-anchor="middle" x="519.88" y="-948.5" font-family="Helvetica,sans-Serif" font-size="10.00" fill="grey"> +parameters</text>
</g>
<!-- Node11 -->
<g id="Node000011" class="node">
<title>Node11</title>
<g id="a_Node000011"><a xlink:href="class_scene_a_s_manager.html" target="_top" xlink:title=" ">
<polygon fill="white" stroke="none" points="701.5,-1484 482.5,-1484 482.5,-976 701.5,-976 701.5,-1484"/>
<text text-anchor="start" x="552.62" y="-1470.5" font-family="Helvetica,sans-Serif" font-size="10.00">SceneASManager</text>
<text text-anchor="start" x="590.5" y="-1454.5" font-family="Helvetica,sans-Serif" font-size="10.00"> </text>
<text text-anchor="start" x="486.5" y="-1438.5" font-family="Helvetica,sans-Serif" font-size="10.00">+</text>
<text text-anchor="start" x="496.5" y="-1438.5" font-family="Helvetica,sans-Serif" font-size="10.00">SceneASManager(raytracing</text>
<text text-anchor="start" x="496.5" y="-1426.5" font-family="Helvetica,sans-Serif" font-size="10.00">::RayTracingContext &amp;ctx,</text>
<text text-anchor="start" x="496.5" y="-1414.5" font-family="Helvetica,sans-Serif" font-size="10.00"> const std::vector&lt; hri::</text>
<text text-anchor="start" x="496.5" y="-1402.5" font-family="Helvetica,sans-Serif" font-size="10.00">Mesh &gt; &amp;meshes)</text>
<text text-anchor="start" x="486.5" y="-1386.5" font-family="Helvetica,sans-Serif" font-size="10.00">+</text>
<text text-anchor="start" x="496.5" y="-1386.5" font-family="Helvetica,sans-Serif" font-size="10.00">virtual ~SceneASManager</text>
<text text-anchor="start" x="496.5" y="-1374.5" font-family="Helvetica,sans-Serif" font-size="10.00">()=default</text>
<text text-anchor="start" x="486.5" y="-1358.5" font-family="Helvetica,sans-Serif" font-size="10.00">+</text>
<text text-anchor="start" x="496.5" y="-1358.5" font-family="Helvetica,sans-Serif" font-size="10.00">bool shouldReallocTLAS</text>
<text text-anchor="start" x="496.5" y="-1346.5" font-family="Helvetica,sans-Serif" font-size="10.00">(const raytracing::Acceleration</text>
<text text-anchor="start" x="496.5" y="-1334.5" font-family="Helvetica,sans-Serif" font-size="10.00">Structure &amp;tlas, const std</text>
<text text-anchor="start" x="496.5" y="-1322.5" font-family="Helvetica,sans-Serif" font-size="10.00">::vector&lt; RenderInstance &gt; &amp;instances,</text>
<text text-anchor="start" x="496.5" y="-1310.5" font-family="Helvetica,sans-Serif" font-size="10.00"> const std::vector&lt; raytracing::Acceleration</text>
<text text-anchor="start" x="496.5" y="-1298.5" font-family="Helvetica,sans-Serif" font-size="10.00">Structure &gt; &amp;blasList) const</text>
<text text-anchor="start" x="486.5" y="-1282.5" font-family="Helvetica,sans-Serif" font-size="10.00">+</text>
<text text-anchor="start" x="496.5" y="-1282.5" font-family="Helvetica,sans-Serif" font-size="10.00">raytracing::Acceleration</text>
<text text-anchor="start" x="496.5" y="-1270.5" font-family="Helvetica,sans-Serif" font-size="10.00">Structure createTLAS(const</text>
<text text-anchor="start" x="496.5" y="-1258.5" font-family="Helvetica,sans-Serif" font-size="10.00"> std::vector&lt; RenderInstance</text>
<text text-anchor="start" x="496.5" y="-1246.5" font-family="Helvetica,sans-Serif" font-size="10.00"> &gt; &amp;instances, const std::vector</text>
<text text-anchor="start" x="496.5" y="-1234.5" font-family="Helvetica,sans-Serif" font-size="10.00">&lt; raytracing::AccelerationStructure</text>
<text text-anchor="start" x="496.5" y="-1222.5" font-family="Helvetica,sans-Serif" font-size="10.00"> &gt; &amp;blasList)</text>
<text text-anchor="start" x="486.5" y="-1206.5" font-family="Helvetica,sans-Serif" font-size="10.00">+</text>
<text text-anchor="start" x="496.5" y="-1206.5" font-family="Helvetica,sans-Serif" font-size="10.00">std::vector&lt; raytracing</text>
<text text-anchor="start" x="496.5" y="-1194.5" font-family="Helvetica,sans-Serif" font-size="10.00">::AccelerationStructure</text>
<text text-anchor="start" x="496.5" y="-1182.5" font-family="Helvetica,sans-Serif" font-size="10.00"> &gt; createBLASList(const</text>
<text text-anchor="start" x="496.5" y="-1170.5" font-family="Helvetica,sans-Serif" font-size="10.00"> std::vector&lt; hri::Mesh &gt;</text>
<text text-anchor="start" x="496.5" y="-1158.5" font-family="Helvetica,sans-Serif" font-size="10.00"> &amp;meshes)</text>
<text text-anchor="start" x="486.5" y="-1142.5" font-family="Helvetica,sans-Serif" font-size="10.00">+</text>
<text text-anchor="start" x="496.5" y="-1142.5" font-family="Helvetica,sans-Serif" font-size="10.00">void cmdBuildTLAS(VkCommand</text>
<text text-anchor="start" x="496.5" y="-1130.5" font-family="Helvetica,sans-Serif" font-size="10.00">Buffer commandBuffer, const</text>
<text text-anchor="start" x="496.5" y="-1118.5" font-family="Helvetica,sans-Serif" font-size="10.00"> std::vector&lt; RenderInstance</text>
<text text-anchor="start" x="496.5" y="-1106.5" font-family="Helvetica,sans-Serif" font-size="10.00"> &gt; &amp;instances, const std::vector</text>
<text text-anchor="start" x="496.5" y="-1094.5" font-family="Helvetica,sans-Serif" font-size="10.00">&lt; raytracing::AccelerationStructure</text>
<text text-anchor="start" x="496.5" y="-1082.5" font-family="Helvetica,sans-Serif" font-size="10.00"> &gt; &amp;blasList, raytracing::AccelerationStructure</text>
<text text-anchor="start" x="496.5" y="-1070.5" font-family="Helvetica,sans-Serif" font-size="10.00"> &amp;tlas) const</text>
<text text-anchor="start" x="486.5" y="-1054.5" font-family="Helvetica,sans-Serif" font-size="10.00">+</text>
<text text-anchor="start" x="496.5" y="-1054.5" font-family="Helvetica,sans-Serif" font-size="10.00">void cmdBuildBLASses</text>
<text text-anchor="start" x="496.5" y="-1042.5" font-family="Helvetica,sans-Serif" font-size="10.00">(VkCommandBuffer commandBuffer,</text>
<text text-anchor="start" x="496.5" y="-1030.5" font-family="Helvetica,sans-Serif" font-size="10.00"> const std::vector&lt; RenderInstance</text>
<text text-anchor="start" x="496.5" y="-1018.5" font-family="Helvetica,sans-Serif" font-size="10.00"> &gt; &amp;instances, const std::vector</text>
<text text-anchor="start" x="496.5" y="-1006.5" font-family="Helvetica,sans-Serif" font-size="10.00">&lt; hri::Mesh &gt; &amp;meshes, const std</text>
<text text-anchor="start" x="496.5" y="-994.5" font-family="Helvetica,sans-Serif" font-size="10.00">::vector&lt; raytracing::AccelerationStructure</text>
<text text-anchor="start" x="496.5" y="-982.5" font-family="Helvetica,sans-Serif" font-size="10.00"> &gt; &amp;blasList) const</text>
<polygon fill="#666666" stroke="#666666" points="482.5,-1466 482.5,-1466 701.5,-1466 701.5,-1466 482.5,-1466"/>
<polygon fill="#666666" stroke="#666666" points="482.5,-1450 482.5,-1450 701.5,-1450 701.5,-1450 482.5,-1450"/>
<polygon fill="none" stroke="#666666" points="482.5,-976 482.5,-1484 701.5,-1484 701.5,-976 482.5,-976"/>
</a>
</g>
</g>
<!-- Node11&#45;&gt;Node9 -->
<g id="edge10_Node000009_Node000011" class="edge">
<title>Node11&#45;&gt;Node9</title>
<g id="a_edge10_Node000009_Node000011"><a xlink:title=" ">
<path fill="none" stroke="#63b8ff" d="M592,-976.37C592,-948.07 592,-919.72 592,-892.69"/>
<polygon fill="none" stroke="#63b8ff" points="592,-892.86 588,-886.86 592,-880.86 596,-886.86 592,-892.86"/>
</a>
</g>
<text text-anchor="middle" x="640" y="-948.5" font-family="Helvetica,sans-Serif" font-size="10.00" fill="grey"> +accelStructManager</text>
</g>
<!-- Node12 -->
<g id="Node000012" class="node">
<title>Node12</title>
<g id="a_Node000012"><a xlink:href="struct_scene_buffers.html" target="_top" xlink:title="Scene buffers store device local resources for a scene.">
<polygon fill="white" stroke="none" points="786.5,-1256 719.5,-1256 719.5,-1204 786.5,-1204 786.5,-1256"/>
<text text-anchor="start" x="724.12" y="-1242.5" font-family="Helvetica,sans-Serif" font-size="10.00">SceneBuffers</text>
<text text-anchor="start" x="751.5" y="-1226.5" font-family="Helvetica,sans-Serif" font-size="10.00"> </text>
<text text-anchor="start" x="751.5" y="-1210.5" font-family="Helvetica,sans-Serif" font-size="10.00"> </text>
<polygon fill="#666666" stroke="#666666" points="719.5,-1238 719.5,-1238 786.5,-1238 786.5,-1238 719.5,-1238"/>
<polygon fill="#666666" stroke="#666666" points="719.5,-1222 719.5,-1222 786.5,-1222 786.5,-1222 719.5,-1222"/>
<polygon fill="none" stroke="#666666" points="719.5,-1204 719.5,-1256 786.5,-1256 786.5,-1204 719.5,-1204"/>
</a>
</g>
</g>
<!-- Node12&#45;&gt;Node9 -->
<g id="edge11_Node000009_Node000012" class="edge">
<title>Node12&#45;&gt;Node9</title>
<g id="a_edge11_Node000009_Node000012"><a xlink:title=" ">
<path fill="none" stroke="#63b8ff" d="M750.92,-1204.08C746.62,-1158.14 734.98,-1057.35 710,-976 701.37,-947.89 690.38,-918.86 678.59,-890.85"/>
<polygon fill="none" stroke="#63b8ff" points="678.56,-890.78 672.52,-886.84 673.84,-879.75 679.88,-883.69 678.56,-890.78"/>
</a>
</g>
<text text-anchor="middle" x="721.75" y="-948.5" font-family="Helvetica,sans-Serif" font-size="10.00" fill="grey"> +buffers</text>
</g>
<!-- Node13 -->
<g id="Node000013" class="node">
<title>Node13</title>
<g id="a_Node000013"><a xlink:href="classhri_1_1_buffer_resource.html" target="_top" xlink:title="A Buffer Resource is a collection of a vk buffer and its allocation.">
<polygon fill="white" stroke="none" points="840.5,-1928 665.5,-1928 665.5,-1568 840.5,-1568 840.5,-1928"/>
<text text-anchor="start" x="711.75" y="-1914.5" font-family="Helvetica,sans-Serif" font-size="10.00">hri::BufferResource</text>
<text text-anchor="start" x="669.5" y="-1898.5" font-family="Helvetica,sans-Serif" font-size="10.00">+</text>
<text text-anchor="start" x="679.5" y="-1898.5" font-family="Helvetica,sans-Serif" font-size="10.00">size_t bufferSize</text>
<text text-anchor="start" x="669.5" y="-1882.5" font-family="Helvetica,sans-Serif" font-size="10.00">+</text>
<text text-anchor="start" x="679.5" y="-1882.5" font-family="Helvetica,sans-Serif" font-size="10.00">bool hostVisible</text>
<text text-anchor="start" x="669.5" y="-1866.5" font-family="Helvetica,sans-Serif" font-size="10.00">+</text>
<text text-anchor="start" x="679.5" y="-1866.5" font-family="Helvetica,sans-Serif" font-size="10.00">VkBuffer buffer</text>
<text text-anchor="start" x="669.5" y="-1850.5" font-family="Helvetica,sans-Serif" font-size="10.00">+</text>
<text text-anchor="start" x="679.5" y="-1850.5" font-family="Helvetica,sans-Serif" font-size="10.00">BufferResource(RenderContext</text>
<text text-anchor="start" x="679.5" y="-1838.5" font-family="Helvetica,sans-Serif" font-size="10.00"> &amp;ctx, size_t size, VkBufferUsage</text>
<text text-anchor="start" x="679.5" y="-1826.5" font-family="Helvetica,sans-Serif" font-size="10.00">Flags usage, bool hostVisible=false)</text>
<text text-anchor="start" x="669.5" y="-1810.5" font-family="Helvetica,sans-Serif" font-size="10.00">+</text>
<text text-anchor="start" x="679.5" y="-1810.5" font-family="Helvetica,sans-Serif" font-size="10.00">virtual ~BufferResource()</text>
<text text-anchor="start" x="669.5" y="-1794.5" font-family="Helvetica,sans-Serif" font-size="10.00">+</text>
<text text-anchor="start" x="679.5" y="-1794.5" font-family="Helvetica,sans-Serif" font-size="10.00">BufferResource(const</text>
<text text-anchor="start" x="679.5" y="-1782.5" font-family="Helvetica,sans-Serif" font-size="10.00"> BufferResource &amp;)=delete</text>
<text text-anchor="start" x="669.5" y="-1766.5" font-family="Helvetica,sans-Serif" font-size="10.00">+</text>
<text text-anchor="start" x="679.5" y="-1766.5" font-family="Helvetica,sans-Serif" font-size="10.00">BufferResource &amp; operator</text>
<text text-anchor="start" x="679.5" y="-1754.5" font-family="Helvetica,sans-Serif" font-size="10.00">=(const BufferResource</text>
<text text-anchor="start" x="679.5" y="-1742.5" font-family="Helvetica,sans-Serif" font-size="10.00"> &amp;)=delete</text>
<text text-anchor="start" x="669.5" y="-1726.5" font-family="Helvetica,sans-Serif" font-size="10.00">+</text>
<text text-anchor="start" x="679.5" y="-1726.5" font-family="Helvetica,sans-Serif" font-size="10.00">BufferResource(BufferResource</text>
<text text-anchor="start" x="679.5" y="-1714.5" font-family="Helvetica,sans-Serif" font-size="10.00"> &amp;&amp;other) noexcept</text>
<text text-anchor="start" x="669.5" y="-1698.5" font-family="Helvetica,sans-Serif" font-size="10.00">+</text>
<text text-anchor="start" x="679.5" y="-1698.5" font-family="Helvetica,sans-Serif" font-size="10.00">BufferResource &amp; operator</text>
<text text-anchor="start" x="679.5" y="-1686.5" font-family="Helvetica,sans-Serif" font-size="10.00">=(BufferResource &amp;&amp;other)</text>
<text text-anchor="start" x="679.5" y="-1674.5" font-family="Helvetica,sans-Serif" font-size="10.00"> noexcept</text>
<text text-anchor="start" x="669.5" y="-1658.5" font-family="Helvetica,sans-Serif" font-size="10.00">+</text>
<text text-anchor="start" x="679.5" y="-1658.5" font-family="Helvetica,sans-Serif" font-size="10.00">void copyToBuffer(const</text>
<text text-anchor="start" x="679.5" y="-1646.5" font-family="Helvetica,sans-Serif" font-size="10.00"> void *pData, size_t size,</text>
<text text-anchor="start" x="679.5" y="-1634.5" font-family="Helvetica,sans-Serif" font-size="10.00"> size_t offset=0)</text>
<text text-anchor="start" x="669.5" y="-1618.5" font-family="Helvetica,sans-Serif" font-size="10.00">+</text>
<text text-anchor="start" x="679.5" y="-1618.5" font-family="Helvetica,sans-Serif" font-size="10.00">void * map() const</text>
<text text-anchor="start" x="669.5" y="-1602.5" font-family="Helvetica,sans-Serif" font-size="10.00">+</text>
<text text-anchor="start" x="679.5" y="-1602.5" font-family="Helvetica,sans-Serif" font-size="10.00">void unmap() const</text>
<text text-anchor="start" x="669.5" y="-1586.5" font-family="Helvetica,sans-Serif" font-size="10.00">+</text>
<text text-anchor="start" x="679.5" y="-1586.5" font-family="Helvetica,sans-Serif" font-size="10.00">VkBufferDeviceAddressInfo</text>
<text text-anchor="start" x="679.5" y="-1574.5" font-family="Helvetica,sans-Serif" font-size="10.00"> deviceAddressInfo() const</text>
<polygon fill="#666666" stroke="#666666" points="665.5,-1910 665.5,-1910 840.5,-1910 840.5,-1910 665.5,-1910"/>
<polygon fill="#666666" stroke="#666666" points="665.5,-1862 665.5,-1862 677.5,-1862 677.5,-1862 665.5,-1862"/>
<polygon fill="#666666" stroke="#666666" points="677.5,-1862 677.5,-1862 840.5,-1862 840.5,-1862 677.5,-1862"/>
<polygon fill="none" stroke="#666666" points="665.5,-1568 665.5,-1928 840.5,-1928 840.5,-1568 665.5,-1568"/>
</a>
</g>
</g>
<!-- Node13&#45;&gt;Node12 -->
<g id="edge12_Node000012_Node000013" class="edge">
<title>Node13&#45;&gt;Node12</title>
<g id="a_edge12_Node000012_Node000013"><a xlink:title=" ">
<path fill="none" stroke="#63b8ff" d="M753,-1568.34C753,-1460.05 753,-1331.11 753,-1268.64"/>
<polygon fill="none" stroke="#63b8ff" points="753,-1268.54 749,-1262.54 753,-1256.54 757,-1262.54 753,-1268.54"/>
</a>
</g>
<text text-anchor="middle" x="799.88" y="-1528.5" font-family="Helvetica,sans-Serif" font-size="10.00" fill="grey"> +instanceDataSSBO</text>
<text text-anchor="middle" x="799.88" y="-1516.5" font-family="Helvetica,sans-Serif" font-size="10.00" fill="grey">+materialSSBO</text>
</g>
</g>
</svg>
