<?xml version="1.0" encoding="UTF-8" standalone="no"?>
<!DOCTYPE svg PUBLIC "-//W3C//DTD SVG 1.1//EN"
 "http://www.w3.org/Graphics/SVG/1.1/DTD/svg11.dtd">
<!-- Generated by graphviz version 10.0.1 (20240210.2158)
 -->
<!-- Title: GBufferLayoutSubsystem Pages: 1 -->
<!--zoomable 788 -->

<svg id="main" version="1.1" xmlns="http://www.w3.org/2000/svg" xmlns:xlink="http://www.w3.org/1999/xlink" xml:space="preserve" onload="init(evt)">
<style type="text/css"><![CDATA[
.node, .edge {opacity: 0.7;}
.node.selected, .edge.selected {opacity: 1;}
.edge:hover path { stroke: red; }
.edge:hover polygon { stroke: red; fill: red; }
]]></style>

<defs>
  <circle id="rim" cx="0" cy="0" r="7"/>
  <circle id="rim2" cx="0" cy="0" r="3.5"/>
  <g id="zoomPlus">
    <use xlink:href="#rim" fill="#404040"><set attributeName="fill" to="#808080" begin="zoomplus.mouseover" end="zoomplus.mouseout"/></use>
    <path d="M-4,0h8M0,-4v8" fill="none" stroke="white" stroke-width="1.5" pointer-events="none"/>
  </g>
  <g id="zoomMin">
    <use xlink:href="#rim" fill="#404040"><set attributeName="fill" to="#808080" begin="zoomminus.mouseover" end="zoomminus.mouseout"/></use>
    <path d="M-4,0h8" fill="none" stroke="white" stroke-width="1.5" pointer-events="none"/>
  </g>
  <g id="arrowUp" transform="translate(30 24)">
    <use xlink:href="#rim"/>
    <path pointer-events="none" fill="none" stroke="white" stroke-width="1.5" d="M0,-3.0v7 M-2.5,-0.5L0,-3.0L2.5,-0.5"/>
  </g>
  <g id="arrowRight" transform="rotate(90) translate(36 -43)">
    <use xlink:href="#rim"/>
    <path pointer-events="none" fill="none" stroke="white" stroke-width="1.5" d="M0,-3.0v7 M-2.5,-0.5L0,-3.0L2.5,-0.5"/>
  </g>
  <g id="arrowDown" transform="rotate(180) translate(-30 -48)">
    <use xlink:href="#rim"/>
    <path pointer-events="none" fill="none" stroke="white" stroke-width="1.5" d="M0,-3.0v7 M-2.5,-0.5L0,-3.0L2.5,-0.5"/>
  </g>
  <g id="arrowLeft" transform="rotate(270) translate(-36 17)">
    <use xlink:href="#rim"/>
    <path pointer-events="none" fill="none" stroke="white" stroke-width="1.5" d="M0,-3.0v7 M-2.5,-0.5L0,-3.0L2.5,-0.5"/>
  </g>
  <g id="resetDef">
    <use xlink:href="#rim2" fill="#404040"><set attributeName="fill" to="#808080" begin="reset.mouseover" end="reset.mouseout"/></use>
  </g>
</defs>
<script type="application/ecmascript">
var viewWidth = 450;
var viewHeight = 788;
var sectionId = 'dynsection-1';
</script>
<script type="application/ecmascript" xlink:href="svg.min.js"/>
<svg id="graph" class="graph">
<g id="viewport">
<title>GBufferLayoutSubsystem</title>
<!-- Node1 -->
<g id="Node000001" class="node">
<title>Node1</title>
<g id="a_Node000001"><a xlink:title=" ">
<polygon fill="#999999" stroke="none" points="342.5,-84 201.5,-84 201.5,0 342.5,0 342.5,-84"/>
<text text-anchor="start" x="216.5" y="-70.5" font-family="Helvetica,sans-Serif" font-size="10.00">GBufferLayoutSubsystem</text>
<text text-anchor="start" x="270.5" y="-54.5" font-family="Helvetica,sans-Serif" font-size="10.00"> </text>
<text text-anchor="start" x="205.5" y="-38.5" font-family="Helvetica,sans-Serif" font-size="10.00">+</text>
<text text-anchor="start" x="215.5" y="-38.5" font-family="Helvetica,sans-Serif" font-size="10.00">GBufferLayoutSubsystem()</text>
<text text-anchor="start" x="205.5" y="-22.5" font-family="Helvetica,sans-Serif" font-size="10.00">+</text>
<text text-anchor="start" x="215.5" y="-22.5" font-family="Helvetica,sans-Serif" font-size="10.00">~GBufferLayoutSubsystem()</text>
<text text-anchor="start" x="205.5" y="-6.5" font-family="Helvetica,sans-Serif" font-size="10.00">+</text>
<text text-anchor="start" x="215.5" y="-6.5" font-family="Helvetica,sans-Serif" font-size="10.00">record()</text>
<polygon fill="#666666" stroke="#666666" points="201.5,-66 201.5,-66 342.5,-66 342.5,-66 201.5,-66"/>
<polygon fill="#666666" stroke="#666666" points="201.5,-50 201.5,-50 342.5,-50 342.5,-50 201.5,-50"/>
<polygon fill="none" stroke="#666666" points="201.5,0 201.5,-84 342.5,-84 342.5,0 201.5,0"/>
</a>
</g>
</g>
<!-- Node2 -->
<g id="Node000002" class="node">
<title>Node2</title>
<g id="a_Node000002"><a xlink:href="classhri_1_1_i_render_subsystem.html" target="_top" xlink:title="A Render Subsystem manages a render pipeline, layout, and subsystem descriptors. A Render Subsystem b...">
<polygon fill="white" stroke="none" points="262,-260 150,-260 150,-144 262,-144 262,-260"/>
<text text-anchor="start" x="156.5" y="-246.5" font-family="Helvetica,sans-Serif" font-size="10.00">hri::IRenderSubsystem</text>
<text text-anchor="start" x="154.38" y="-230.5" font-family="Helvetica,sans-Serif" font-size="10.00">#</text>
<text text-anchor="start" x="164" y="-230.5" font-family="Helvetica,sans-Serif" font-size="10.00">m_layout</text>
<text text-anchor="start" x="154" y="-214.5" font-family="Helvetica,sans-Serif" font-size="10.00">+</text>
<text text-anchor="start" x="164" y="-214.5" font-family="Helvetica,sans-Serif" font-size="10.00">IRenderSubsystem()</text>
<text text-anchor="start" x="154" y="-198.5" font-family="Helvetica,sans-Serif" font-size="10.00">+</text>
<text text-anchor="start" x="164" y="-198.5" font-family="Helvetica,sans-Serif" font-size="10.00">~IRenderSubsystem()</text>
<text text-anchor="start" x="154" y="-182.5" font-family="Helvetica,sans-Serif" font-size="10.00">+</text>
<text text-anchor="start" x="164" y="-182.5" font-family="Helvetica,sans-Serif" font-size="10.00">IRenderSubsystem()</text>
<text text-anchor="start" x="154" y="-166.5" font-family="Helvetica,sans-Serif" font-size="10.00">+</text>
<text text-anchor="start" x="164" y="-166.5" font-family="Helvetica,sans-Serif" font-size="10.00">operator=()</text>
<text text-anchor="start" x="154" y="-150.5" font-family="Helvetica,sans-Serif" font-size="10.00">+</text>
<text text-anchor="start" x="164" y="-150.5" font-family="Helvetica,sans-Serif" font-size="10.00">record()</text>
<polygon fill="#666666" stroke="#666666" points="150,-242 150,-242 262,-242 262,-242 150,-242"/>
<polygon fill="#666666" stroke="#666666" points="150,-226 150,-226 162,-226 162,-226 150,-226"/>
<polygon fill="#666666" stroke="#666666" points="162,-226 162,-226 262,-226 262,-226 162,-226"/>
<polygon fill="none" stroke="#666666" points="150,-144 150,-260 262,-260 262,-144 150,-144"/>
</a>
</g>
</g>
<!-- Node2&#45;&gt;Node1 -->
<g id="edge1_Node000001_Node000002" class="edge">
<title>Node2&#45;&gt;Node1</title>
<g id="a_edge1_Node000001_Node000002"><a xlink:title=" ">
<path fill="none" stroke="#63b8ff" d="M234.02,-133.93C241.13,-116.9 248.56,-99.12 254.94,-83.84"/>
<polygon fill="none" stroke="#63b8ff" points="230.85,-132.43 230.22,-143.01 237.31,-135.13 230.85,-132.43"/>
</a>
</g>
</g>
<!-- Node3 -->
<g id="Node000003" class="node">
<title>Node3</title>
<g id="a_Node000003"><a xlink:href="classhri_1_1_render_context.html" target="_top" xlink:title="THe RenderContext manages the Vulkan instance, device, and swapchain state.">
<polygon fill="white" stroke="none" points="124,-536 18,-536 18,-308 124,-308 124,-536"/>
<text text-anchor="start" x="30.5" y="-522.5" font-family="Helvetica,sans-Serif" font-size="10.00">hri::RenderContext</text>
<text text-anchor="start" x="22" y="-506.5" font-family="Helvetica,sans-Serif" font-size="10.00">+</text>
<text text-anchor="start" x="32" y="-506.5" font-family="Helvetica,sans-Serif" font-size="10.00">instance</text>
<text text-anchor="start" x="22" y="-490.5" font-family="Helvetica,sans-Serif" font-size="10.00">+</text>
<text text-anchor="start" x="32" y="-490.5" font-family="Helvetica,sans-Serif" font-size="10.00">surface</text>
<text text-anchor="start" x="22" y="-474.5" font-family="Helvetica,sans-Serif" font-size="10.00">+</text>
<text text-anchor="start" x="32" y="-474.5" font-family="Helvetica,sans-Serif" font-size="10.00">gpu</text>
<text text-anchor="start" x="22" y="-458.5" font-family="Helvetica,sans-Serif" font-size="10.00">+</text>
<text text-anchor="start" x="32" y="-458.5" font-family="Helvetica,sans-Serif" font-size="10.00">device</text>
<text text-anchor="start" x="22" y="-442.5" font-family="Helvetica,sans-Serif" font-size="10.00">+</text>
<text text-anchor="start" x="32" y="-442.5" font-family="Helvetica,sans-Serif" font-size="10.00">allocator</text>
<text text-anchor="start" x="22" y="-426.5" font-family="Helvetica,sans-Serif" font-size="10.00">+</text>
<text text-anchor="start" x="32" y="-426.5" font-family="Helvetica,sans-Serif" font-size="10.00">swapchain</text>
<text text-anchor="start" x="22" y="-410.5" font-family="Helvetica,sans-Serif" font-size="10.00">+</text>
<text text-anchor="start" x="32" y="-410.5" font-family="Helvetica,sans-Serif" font-size="10.00">RenderContext()</text>
<text text-anchor="start" x="22" y="-394.5" font-family="Helvetica,sans-Serif" font-size="10.00">+</text>
<text text-anchor="start" x="32" y="-394.5" font-family="Helvetica,sans-Serif" font-size="10.00">~RenderContext()</text>
<text text-anchor="start" x="22" y="-378.5" font-family="Helvetica,sans-Serif" font-size="10.00">+</text>
<text text-anchor="start" x="32" y="-378.5" font-family="Helvetica,sans-Serif" font-size="10.00">RenderContext()</text>
<text text-anchor="start" x="22" y="-362.5" font-family="Helvetica,sans-Serif" font-size="10.00">+</text>
<text text-anchor="start" x="32" y="-362.5" font-family="Helvetica,sans-Serif" font-size="10.00">operator=()</text>
<text text-anchor="start" x="22" y="-346.5" font-family="Helvetica,sans-Serif" font-size="10.00">+</text>
<text text-anchor="start" x="32" y="-346.5" font-family="Helvetica,sans-Serif" font-size="10.00">setVSyncMode()</text>
<text text-anchor="start" x="22" y="-330.5" font-family="Helvetica,sans-Serif" font-size="10.00">+</text>
<text text-anchor="start" x="32" y="-330.5" font-family="Helvetica,sans-Serif" font-size="10.00">recreateSwapchain()</text>
<text text-anchor="start" x="22" y="-314.5" font-family="Helvetica,sans-Serif" font-size="10.00">+</text>
<text text-anchor="start" x="32" y="-314.5" font-family="Helvetica,sans-Serif" font-size="10.00">swapFormat()</text>
<polygon fill="#666666" stroke="#666666" points="18,-518 18,-518 124,-518 124,-518 18,-518"/>
<polygon fill="#666666" stroke="#666666" points="18,-422 18,-422 30,-422 30,-422 18,-422"/>
<polygon fill="#666666" stroke="#666666" points="30,-422 30,-422 124,-422 124,-422 30,-422"/>
<polygon fill="none" stroke="#666666" points="18,-308 18,-536 124,-536 124,-308 18,-308"/>
</a>
</g>
</g>
<!-- Node3&#45;&gt;Node2 -->
<g id="edge2_Node000002_Node000003" class="edge">
<title>Node3&#45;&gt;Node2</title>
<g id="a_edge2_Node000002_Node000003"><a xlink:title=" ">
<path fill="none" stroke="#63b8ff" d="M123.97,-322.94C126.97,-317.86 129.99,-312.85 133,-308 140.64,-295.67 149.14,-282.79 157.56,-270.44"/>
<polygon fill="none" stroke="#63b8ff" points="157.6,-270.39 157.7,-263.18 164.4,-260.5 164.29,-267.71 157.6,-270.39"/>
</a>
</g>
<text text-anchor="middle" x="174" y="-280.5" font-family="Helvetica,sans-Serif" font-size="10.00" fill="grey"> #m_pCtx</text>
</g>
<!-- Node4 -->
<g id="Node000004" class="node">
<title>Node4</title>
<g id="a_Node000004"><a xlink:href="classhri_1_1_render_context_queue_state.html" target="_top" xlink:title="The context queue state creates and maintains the device queue setup.">
<polygon fill="white" stroke="none" points="142,-652 0,-652 0,-584 142,-584 142,-652"/>
<text text-anchor="start" x="4.62" y="-638.5" font-family="Helvetica,sans-Serif" font-size="10.00">hri::RenderContextQueueState</text>
<text text-anchor="start" x="69.5" y="-622.5" font-family="Helvetica,sans-Serif" font-size="10.00"> </text>
<text text-anchor="start" x="4.5" y="-606.5" font-family="Helvetica,sans-Serif" font-size="10.00">+</text>
<text text-anchor="start" x="15" y="-606.5" font-family="Helvetica,sans-Serif" font-size="10.00">RenderContextQueueState()</text>
<text text-anchor="start" x="4.5" y="-590.5" font-family="Helvetica,sans-Serif" font-size="10.00">+</text>
<text text-anchor="start" x="15" y="-590.5" font-family="Helvetica,sans-Serif" font-size="10.00">RenderContextQueueState()</text>
<polygon fill="#666666" stroke="#666666" points="0,-634 0,-634 142,-634 142,-634 0,-634"/>
<polygon fill="#666666" stroke="#666666" points="0,-618 0,-618 142,-618 142,-618 0,-618"/>
<polygon fill="none" stroke="#666666" points="0,-584 0,-652 142,-652 142,-584 0,-584"/>
</a>
</g>
</g>
<!-- Node4&#45;&gt;Node3 -->
<g id="edge3_Node000003_Node000004" class="edge">
<title>Node4&#45;&gt;Node3</title>
<g id="a_edge3_Node000003_Node000004"><a xlink:title=" ">
<path fill="none" stroke="#63b8ff" d="M71,-584.09C71,-573.79 71,-561.75 71,-548.97"/>
<polygon fill="none" stroke="#63b8ff" points="71,-548.89 67,-542.89 71,-536.89 75,-542.89 71,-548.89"/>
</a>
</g>
<text text-anchor="middle" x="91.25" y="-556.5" font-family="Helvetica,sans-Serif" font-size="10.00" fill="grey"> +queues</text>
</g>
<!-- Node5 -->
<g id="Node000005" class="node">
<title>Node5</title>
<g id="a_Node000005"><a xlink:href="structhri_1_1_device_queue.html" target="_top" xlink:title="A Device Queue is a queue on the logical device to which operations can be submitted.">
<polygon fill="white" stroke="none" points="112.5,-780 29.5,-780 29.5,-712 112.5,-712 112.5,-780"/>
<text text-anchor="start" x="34.25" y="-766.5" font-family="Helvetica,sans-Serif" font-size="10.00">hri::DeviceQueue</text>
<text text-anchor="start" x="42.5" y="-750.5" font-family="Helvetica,sans-Serif" font-size="10.00">+</text>
<text text-anchor="start" x="61.5" y="-750.5" font-family="Helvetica,sans-Serif" font-size="10.00">family</text>
<text text-anchor="start" x="42.5" y="-734.5" font-family="Helvetica,sans-Serif" font-size="10.00">+</text>
<text text-anchor="start" x="61.5" y="-734.5" font-family="Helvetica,sans-Serif" font-size="10.00">handle</text>
<text text-anchor="start" x="69.5" y="-718.5" font-family="Helvetica,sans-Serif" font-size="10.00"> </text>
<polygon fill="#666666" stroke="#666666" points="29.5,-762 29.5,-762 112.5,-762 112.5,-762 29.5,-762"/>
<polygon fill="#666666" stroke="#666666" points="29.5,-730 29.5,-730 59.5,-730 59.5,-730 29.5,-730"/>
<polygon fill="#666666" stroke="#666666" points="59.5,-730 59.5,-730 112.5,-730 112.5,-730 59.5,-730"/>
<polygon fill="none" stroke="#666666" points="29.5,-712 29.5,-780 112.5,-780 112.5,-712 29.5,-712"/>
</a>
</g>
</g>
<!-- Node5&#45;&gt;Node4 -->
<g id="edge4_Node000004_Node000005" class="edge">
<title>Node5&#45;&gt;Node4</title>
<g id="a_edge4_Node000004_Node000005"><a xlink:title=" ">
<path fill="none" stroke="#63b8ff" d="M71,-712.22C71,-697.64 71,-680.23 71,-664.42"/>
<polygon fill="none" stroke="#63b8ff" points="71,-664.51 67,-658.51 71,-652.51 75,-658.51 71,-664.51"/>
</a>
</g>
<text text-anchor="middle" x="108.12" y="-684.5" font-family="Helvetica,sans-Serif" font-size="10.00" fill="grey"> +graphicsQueue</text>
<text text-anchor="middle" x="108.12" y="-672.5" font-family="Helvetica,sans-Serif" font-size="10.00" fill="grey">+presentQueue</text>
</g>
<!-- Node6 -->
<g id="Node000006" class="node">
<title>Node6</title>
<g id="a_Node000006"><a xlink:href="classhri_1_1_descriptor_set_allocator.html" target="_top" xlink:title="The Descriptor Set Allocator handles allocation of Descriptor Sets from descriptor pools.">
<polygon fill="white" stroke="none" points="269.5,-496 142.5,-496 142.5,-348 269.5,-348 269.5,-496"/>
<text text-anchor="start" x="149" y="-482.5" font-family="Helvetica,sans-Serif" font-size="10.00">hri::DescriptorSetAllocator</text>
<text text-anchor="start" x="204.5" y="-466.5" font-family="Helvetica,sans-Serif" font-size="10.00"> </text>
<text text-anchor="start" x="146.5" y="-450.5" font-family="Helvetica,sans-Serif" font-size="10.00">+</text>
<text text-anchor="start" x="156.5" y="-450.5" font-family="Helvetica,sans-Serif" font-size="10.00">DescriptorSetAllocator()</text>
<text text-anchor="start" x="146.5" y="-434.5" font-family="Helvetica,sans-Serif" font-size="10.00">+</text>
<text text-anchor="start" x="156.5" y="-434.5" font-family="Helvetica,sans-Serif" font-size="10.00">~DescriptorSetAllocator()</text>
<text text-anchor="start" x="146.5" y="-418.5" font-family="Helvetica,sans-Serif" font-size="10.00">+</text>
<text text-anchor="start" x="156.5" y="-418.5" font-family="Helvetica,sans-Serif" font-size="10.00">DescriptorSetAllocator()</text>
<text text-anchor="start" x="146.5" y="-402.5" font-family="Helvetica,sans-Serif" font-size="10.00">+</text>
<text text-anchor="start" x="156.5" y="-402.5" font-family="Helvetica,sans-Serif" font-size="10.00">operator=()</text>
<text text-anchor="start" x="146.5" y="-386.5" font-family="Helvetica,sans-Serif" font-size="10.00">+</text>
<text text-anchor="start" x="156.5" y="-386.5" font-family="Helvetica,sans-Serif" font-size="10.00">allocateDescriptorSet()</text>
<text text-anchor="start" x="146.5" y="-370.5" font-family="Helvetica,sans-Serif" font-size="10.00">+</text>
<text text-anchor="start" x="156.5" y="-370.5" font-family="Helvetica,sans-Serif" font-size="10.00">freeDescriptorSet()</text>
<text text-anchor="start" x="146.5" y="-354.5" font-family="Helvetica,sans-Serif" font-size="10.00">+</text>
<text text-anchor="start" x="156.5" y="-354.5" font-family="Helvetica,sans-Serif" font-size="10.00">reset()</text>
<polygon fill="#666666" stroke="#666666" points="142.5,-478 142.5,-478 269.5,-478 269.5,-478 142.5,-478"/>
<polygon fill="#666666" stroke="#666666" points="142.5,-462 142.5,-462 269.5,-462 269.5,-462 142.5,-462"/>
<polygon fill="none" stroke="#666666" points="142.5,-348 142.5,-496 269.5,-496 269.5,-348 142.5,-348"/>
</a>
</g>
</g>
<!-- Node6&#45;&gt;Node2 -->
<g id="edge5_Node000002_Node000006" class="edge">
<title>Node6&#45;&gt;Node2</title>
<g id="a_edge5_Node000002_Node000006"><a xlink:title=" ">
<path fill="none" stroke="#63b8ff" d="M206,-348.11C206,-323.88 206,-296.96 206,-272.96"/>
<polygon fill="none" stroke="#63b8ff" points="206,-272.86 202,-266.86 206,-260.86 210,-266.86 206,-272.86"/>
</a>
</g>
<text text-anchor="middle" x="268.25" y="-280.5" font-family="Helvetica,sans-Serif" font-size="10.00" fill="grey"> #m_pDescriptorSetAllocator</text>
</g>
<!-- Node7 -->
<g id="Node000007" class="node">
<title>Node7</title>
<g id="a_Node000007"><a xlink:href="structhri_1_1_pipeline_state_object.html" target="_top" xlink:title="A pipeline state object (PSO) stores a pipeline and its bind point.">
<polygon fill="white" stroke="none" points="410,-456 298,-456 298,-388 410,-388 410,-456"/>
<text text-anchor="start" x="302.62" y="-442.5" font-family="Helvetica,sans-Serif" font-size="10.00">hri::PipelineStateObject</text>
<text text-anchor="start" x="315.5" y="-426.5" font-family="Helvetica,sans-Serif" font-size="10.00">+</text>
<text text-anchor="start" x="339" y="-426.5" font-family="Helvetica,sans-Serif" font-size="10.00">bindPoint</text>
<text text-anchor="start" x="315.5" y="-410.5" font-family="Helvetica,sans-Serif" font-size="10.00">+</text>
<text text-anchor="start" x="339" y="-410.5" font-family="Helvetica,sans-Serif" font-size="10.00">pipeline</text>
<text text-anchor="start" x="352.5" y="-394.5" font-family="Helvetica,sans-Serif" font-size="10.00"> </text>
<polygon fill="#666666" stroke="#666666" points="298,-438 298,-438 410,-438 410,-438 298,-438"/>
<polygon fill="#666666" stroke="#666666" points="298,-406 298,-406 337,-406 337,-406 298,-406"/>
<polygon fill="#666666" stroke="#666666" points="337,-406 337,-406 410,-406 410,-406 337,-406"/>
<polygon fill="none" stroke="#666666" points="298,-388 298,-456 410,-456 410,-388 298,-388"/>
</a>
</g>
</g>
<!-- Node7&#45;&gt;Node2 -->
<g id="edge6_Node000002_Node000007" class="edge">
<title>Node7&#45;&gt;Node2</title>
<g id="a_edge6_Node000002_Node000007"><a xlink:title=" ">
<path fill="none" stroke="#63b8ff" d="M358.22,-388.22C360.42,-356.25 358.36,-308.17 332,-278 315.65,-259.29 300.05,-270.1 273.33,-259.87"/>
<polygon fill="none" stroke="#63b8ff" points="273.27,-259.84 266.14,-260.88 262.43,-254.7 269.57,-253.66 273.27,-259.84"/>
</a>
</g>
<text text-anchor="middle" x="362" y="-280.5" font-family="Helvetica,sans-Serif" font-size="10.00" fill="grey"> #m_pPSO</text>
</g>
<!-- Node8 -->
<g id="Node000008" class="node">
<title>Node8</title>
<g id="a_Node000008"><a xlink:href="structhri_1_1_descriptor_set_layout.html" target="_top" xlink:title="A Descriptor Set Layout is used to specify bind points for resource descriptors in shaders.">
<polygon fill="white" stroke="none" points="395.5,-244 280.5,-244 280.5,-160 395.5,-160 395.5,-244"/>
<text text-anchor="start" x="285.5" y="-230.5" font-family="Helvetica,sans-Serif" font-size="10.00">hri::DescriptorSetLayout</text>
<text text-anchor="start" x="298" y="-214.5" font-family="Helvetica,sans-Serif" font-size="10.00">+</text>
<text text-anchor="start" x="321.5" y="-214.5" font-family="Helvetica,sans-Serif" font-size="10.00">setLayout</text>
<text text-anchor="start" x="298" y="-198.5" font-family="Helvetica,sans-Serif" font-size="10.00">+</text>
<text text-anchor="start" x="321.5" y="-198.5" font-family="Helvetica,sans-Serif" font-size="10.00">bindings</text>
<text text-anchor="start" x="298" y="-182.5" font-family="Helvetica,sans-Serif" font-size="10.00">+</text>
<text text-anchor="start" x="321.5" y="-182.5" font-family="Helvetica,sans-Serif" font-size="10.00">init()</text>
<text text-anchor="start" x="298" y="-166.5" font-family="Helvetica,sans-Serif" font-size="10.00">+</text>
<text text-anchor="start" x="321.5" y="-166.5" font-family="Helvetica,sans-Serif" font-size="10.00">destroy()</text>
<polygon fill="#666666" stroke="#666666" points="280.5,-226 280.5,-226 395.5,-226 395.5,-226 280.5,-226"/>
<polygon fill="#666666" stroke="#666666" points="280.5,-194 280.5,-194 319.5,-194 319.5,-194 280.5,-194"/>
<polygon fill="#666666" stroke="#666666" points="319.5,-194 319.5,-194 395.5,-194 395.5,-194 319.5,-194"/>
<polygon fill="none" stroke="#666666" points="280.5,-160 280.5,-244 395.5,-244 395.5,-160 280.5,-160"/>
</a>
</g>
</g>
<!-- Node8&#45;&gt;Node1 -->
<g id="edge7_Node000001_Node000008" class="edge">
<title>Node8&#45;&gt;Node1</title>
<g id="a_edge7_Node000001_Node000008"><a xlink:title=" ">
<path fill="none" stroke="#63b8ff" d="M321,-160.31C312.8,-140.67 302.85,-116.85 294.07,-95.83"/>
<polygon fill="none" stroke="#63b8ff" points="294.03,-95.73 288.02,-91.74 289.4,-84.66 295.4,-88.65 294.03,-95.73"/>
</a>
</g>
<text text-anchor="middle" x="373.25" y="-116.5" font-family="Helvetica,sans-Serif" font-size="10.00" fill="grey"> #m_objectDescriptorSetLayout</text>
<text text-anchor="middle" x="373.25" y="-104.5" font-family="Helvetica,sans-Serif" font-size="10.00" fill="grey">#m_sceneDescriptorSetLayout</text>
</g>
</g>
</svg>

<g id="navigator" transform="translate(0 0)" fill="#404254">
  <rect fill="#f2f5e9" fill-opacity="0.5" stroke="#606060" stroke-width=".5" x="0" y="0" width="60" height="60"/>
  <use id="zoomplus" xlink:href="#zoomPlus" x="17" y="9" onmousedown="handleZoom(evt,'in')"/>
  <use id="zoomminus" xlink:href="#zoomMin" x="42" y="9" onmousedown="handleZoom(evt,'out')"/>
  <use id="reset" xlink:href="#resetDef" x="30" y="36" onmousedown="handleReset()"/>
   <use id="arrowup" xlink:href="#arrowUp" x="0" y="0" onmousedown="handlePan(0,-1)"/>
  <use id="arrowright" xlink:href="#arrowRight" x="0" y="0" onmousedown="handlePan(1,0)"/>
  <use id="arrowdown" xlink:href="#arrowDown" x="0" y="0" onmousedown="handlePan(0,1)"/>
  <use id="arrowleft" xlink:href="#arrowLeft" x="0" y="0" onmousedown="handlePan(-1,0)"/>
</g>
<svg viewBox="0 0 15 15" width="100%" height="30px" preserveAspectRatio="xMaxYMin meet">
 <g id="arrow_out" transform="scale(0.3 0.3)">
  <a xlink:href="class_g_buffer_layout_subsystem__coll__graph_org.svg" target="_base">
   <rect id="button" ry="5" rx="5" y="6" x="6" height="38" width="38"
        fill="#f2f5e9" fill-opacity="0.5" stroke="#606060" stroke-width="1.0"/>
   <path id="arrow"
     d="M 11.500037,31.436501 C 11.940474,20.09759 22.043105,11.32322 32.158766,21.979434 L 37.068811,17.246167 C 37.068811,17.246167 37.088388,32 37.088388,32 L 22.160133,31.978069 C 22.160133,31.978069 26.997745,27.140456 26.997745,27.140456 C 18.528582,18.264221 13.291696,25.230495 11.500037,31.436501 z"
     style="fill:#404040;"/>
  </a>
 </g>
</svg>

<style type='text/css'>
<![CDATA[
[data-mouse-over-selected='false'] { opacity: 0.7; }
[data-mouse-over-selected='true']  { opacity: 1.0; }
]]>
</style>
<script type="application/ecmascript"><![CDATA[
document.addEventListener('DOMContentLoaded', (event) => {
  highlightEdges();
  highlightAdjacentNodes();
});
]]></script>
</svg>
