<?xml version="1.0" encoding="UTF-8" standalone="no"?>
<!DOCTYPE svg PUBLIC "-//W3C//DTD SVG 1.1//EN"
 "http://www.w3.org/Graphics/SVG/1.1/DTD/svg11.dtd">
<!-- Generated by graphviz version 10.0.1 (20240210.2158)
 -->
<!-- Title: hri::RenderContextQueueState Pages: 1 -->
<svg width="153pt" height="204pt"
 viewBox="0.00 0.00 153.25 204.00" xmlns="http://www.w3.org/2000/svg" xmlns:xlink="http://www.w3.org/1999/xlink">

<svg id="main" version="1.1" xmlns="http://www.w3.org/2000/svg" xmlns:xlink="http://www.w3.org/1999/xlink" xml:space="preserve" onload="init(evt)">
<style type="text/css"><![CDATA[
.node, .edge {opacity: 0.7;}
.node.selected, .edge.selected {opacity: 1;}
.edge:hover path { stroke: red; }
.edge:hover polygon { stroke: red; fill: red; }
]]></style>
<script type="application/ecmascript" xlink:href="svg.min.js"/>
<svg id="graph" class="graph">
<g id="graph0" class="graph" transform="scale(1 1) rotate(0) translate(4 200)">
<title>hri::RenderContextQueueState</title>
<!-- Node1 -->
<g id="Node000001" class="node">
<title>Node1</title>
<g id="a_Node000001"><a xlink:title="The context queue state creates and maintains the device queue setup.">
<polygon fill="#999999" stroke="none" points="142,-68 0,-68 0,0 142,0 142,-68"/>
<text text-anchor="start" x="4.62" y="-54.5" font-family="Helvetica,sans-Serif" font-size="10.00">hri::RenderContextQueueState</text>
<text text-anchor="start" x="69.5" y="-38.5" font-family="Helvetica,sans-Serif" font-size="10.00"> </text>
<text text-anchor="start" x="4.5" y="-22.5" font-family="Helvetica,sans-Serif" font-size="10.00">+</text>
<text text-anchor="start" x="15" y="-22.5" font-family="Helvetica,sans-Serif" font-size="10.00">RenderContextQueueState()</text>
<text text-anchor="start" x="4.5" y="-6.5" font-family="Helvetica,sans-Serif" font-size="10.00">+</text>
<text text-anchor="start" x="15" y="-6.5" font-family="Helvetica,sans-Serif" font-size="10.00">RenderContextQueueState()</text>
<polygon fill="#666666" stroke="#666666" points="0,-50 0,-50 142,-50 142,-50 0,-50"/>
<polygon fill="#666666" stroke="#666666" points="0,-34 0,-34 142,-34 142,-34 0,-34"/>
<polygon fill="none" stroke="#666666" points="0,0 0,-68 142,-68 142,0 0,0"/>
</a>
</g>
</g>
<!-- Node2 -->
<g id="Node000002" class="node">
<title>Node2</title>
<g id="a_Node000002"><a xlink:href="structhri_1_1_device_queue.html" target="_top" xlink:title="A Device Queue is a queue on the logical device to which operations can be submitted.">
<polygon fill="white" stroke="none" points="112.5,-196 29.5,-196 29.5,-128 112.5,-128 112.5,-196"/>
<text text-anchor="start" x="34.25" y="-182.5" font-family="Helvetica,sans-Serif" font-size="10.00">hri::DeviceQueue</text>
<text text-anchor="start" x="42.5" y="-166.5" font-family="Helvetica,sans-Serif" font-size="10.00">+</text>
<text text-anchor="start" x="61.5" y="-166.5" font-family="Helvetica,sans-Serif" font-size="10.00">family</text>
<text text-anchor="start" x="42.5" y="-150.5" font-family="Helvetica,sans-Serif" font-size="10.00">+</text>
<text text-anchor="start" x="61.5" y="-150.5" font-family="Helvetica,sans-Serif" font-size="10.00">handle</text>
<text text-anchor="start" x="69.5" y="-134.5" font-family="Helvetica,sans-Serif" font-size="10.00"> </text>
<polygon fill="#666666" stroke="#666666" points="29.5,-178 29.5,-178 112.5,-178 112.5,-178 29.5,-178"/>
<polygon fill="#666666" stroke="#666666" points="29.5,-146 29.5,-146 59.5,-146 59.5,-146 29.5,-146"/>
<polygon fill="#666666" stroke="#666666" points="59.5,-146 59.5,-146 112.5,-146 112.5,-146 59.5,-146"/>
<polygon fill="none" stroke="#666666" points="29.5,-128 29.5,-196 112.5,-196 112.5,-128 29.5,-128"/>
</a>
</g>
</g>
<!-- Node2&#45;&gt;Node1 -->
<g id="edge1_Node000001_Node000002" class="edge">
<title>Node2&#45;&gt;Node1</title>
<g id="a_edge1_Node000001_Node000002"><a xlink:title=" ">
<path fill="none" stroke="#63b8ff" d="M71,-128.22C71,-113.64 71,-96.23 71,-80.42"/>
<polygon fill="none" stroke="#63b8ff" points="71,-80.51 67,-74.51 71,-68.51 75,-74.51 71,-80.51"/>
</a>
</g>
<text text-anchor="middle" x="108.12" y="-100.5" font-family="Helvetica,sans-Serif" font-size="10.00" fill="grey"> +graphicsQueue</text>
<text text-anchor="middle" x="108.12" y="-88.5" font-family="Helvetica,sans-Serif" font-size="10.00" fill="grey">+presentQueue</text>
</g>
</g>
</svg>
</svg>

<style type='text/css'>
<![CDATA[
[data-mouse-over-selected='false'] { opacity: 0.7; }
[data-mouse-over-selected='true']  { opacity: 1.0; }
]]>
</style>
<script type="application/ecmascript"><![CDATA[
document.addEventListener('DOMContentLoaded', (event) => {
  highlightEdges();
  highlightAdjacentNodes();
});
]]></script>
</svg>
