<?xml version="1.0" encoding="UTF-8" standalone="no"?>
<!DOCTYPE svg PUBLIC "-//W3C//DTD SVG 1.1//EN"
 "http://www.w3.org/Graphics/SVG/1.1/DTD/svg11.dtd">
<!-- Generated by graphviz version 10.0.1 (20240210.2158)
 -->
<!-- Title: hybrid&#45;renderer&#45;lib/include/config.h Pages: 1 -->
<svg width="1424pt" height="620pt"
 viewBox="0.00 0.00 1423.62 620.00" xmlns="http://www.w3.org/2000/svg" xmlns:xlink="http://www.w3.org/1999/xlink">
<g id="graph0" class="graph" transform="scale(1 1) rotate(0) translate(4 616)">
<title>hybrid&#45;renderer&#45;lib/include/config.h</title>
<!-- Node1 -->
<g id="Node000001" class="node">
<title>Node1</title>
<g id="a_Node000001"><a xlink:title=" ">
<polygon fill="#999999" stroke="#666666" points="1313.49,-612 1220.24,-612 1220.24,-580 1313.49,-580 1313.49,-612"/>
<text text-anchor="start" x="1228.24" y="-598.5" font-family="Helvetica,sans-Serif" font-size="10.00">hybrid&#45;renderer&#45;lib</text>
<text text-anchor="middle" x="1266.87" y="-586.5" font-family="Helvetica,sans-Serif" font-size="10.00">/include/config.h</text>
</a>
</g>
</g>
<!-- Node2 -->
<g id="Node000002" class="node">
<title>Node2</title>
<g id="a_Node000002"><a xlink:href="render__context_8h.html" target="_top" xlink:title=" ">
<polygon fill="white" stroke="#666666" points="831.24,-544 706.49,-544 706.49,-500 831.24,-500 831.24,-544"/>
<text text-anchor="start" x="714.49" y="-530.5" font-family="Helvetica,sans-Serif" font-size="10.00">hybrid&#45;renderer&#45;lib</text>
<text text-anchor="start" x="714.49" y="-518.5" font-family="Helvetica,sans-Serif" font-size="10.00">/include/renderer_internal</text>
<text text-anchor="middle" x="768.87" y="-506.5" font-family="Helvetica,sans-Serif" font-size="10.00">/render_context.h</text>
</a>
</g>
</g>
<!-- Node1&#45;&gt;Node2 -->
<g id="edge1_Node000001_Node000002" class="edge">
<title>Node1&#45;&gt;Node2</title>
<g id="a_edge1_Node000001_Node000002"><a xlink:title=" ">
<path fill="none" stroke="#63b8ff" d="M1208.69,-586.59C1114.29,-572.94 928.55,-546.09 831.41,-532.04"/>
<polygon fill="#63b8ff" stroke="#63b8ff" points="1208.12,-590.04 1218.52,-588.01 1209.12,-583.11 1208.12,-590.04"/>
</a>
</g>
</g>
<!-- Node23 -->
<g id="Node000023" class="node">
<title>Node23</title>
<g id="a_Node000023"><a xlink:href="render__core_8h.html" target="_top" xlink:title=" ">
<polygon fill="white" stroke="#666666" points="1198.24,-464 1073.49,-464 1073.49,-420 1198.24,-420 1198.24,-464"/>
<text text-anchor="start" x="1081.49" y="-450.5" font-family="Helvetica,sans-Serif" font-size="10.00">hybrid&#45;renderer&#45;lib</text>
<text text-anchor="start" x="1081.49" y="-438.5" font-family="Helvetica,sans-Serif" font-size="10.00">/include/renderer_internal</text>
<text text-anchor="middle" x="1135.87" y="-426.5" font-family="Helvetica,sans-Serif" font-size="10.00">/render_core.h</text>
</a>
</g>
</g>
<!-- Node1&#45;&gt;Node23 -->
<g id="edge56_Node000001_Node000023" class="edge">
<title>Node1&#45;&gt;Node23</title>
<g id="a_edge56_Node000001_Node000023"><a xlink:title=" ">
<path fill="none" stroke="#63b8ff" d="M1246.33,-571.17C1221.03,-541.81 1178.43,-492.39 1154.19,-464.27"/>
<polygon fill="#63b8ff" stroke="#63b8ff" points="1243.42,-573.15 1252.6,-578.44 1248.72,-568.58 1243.42,-573.15"/>
</a>
</g>
</g>
<!-- Node24 -->
<g id="Node000024" class="node">
<title>Node24</title>
<g id="a_Node000024"><a xlink:href="render__core_8cpp.html" target="_top" xlink:title=" ">
<polygon fill="white" stroke="#666666" points="1362.62,-384 1255.12,-384 1255.12,-340 1362.62,-340 1362.62,-384"/>
<text text-anchor="start" x="1263.12" y="-370.5" font-family="Helvetica,sans-Serif" font-size="10.00">hybrid&#45;renderer&#45;lib</text>
<text text-anchor="start" x="1263.12" y="-358.5" font-family="Helvetica,sans-Serif" font-size="10.00">/src/renderer_internal</text>
<text text-anchor="middle" x="1308.87" y="-346.5" font-family="Helvetica,sans-Serif" font-size="10.00">/render_core.cpp</text>
</a>
</g>
</g>
<!-- Node1&#45;&gt;Node24 -->
<g id="edge58_Node000001_Node000024" class="edge">
<title>Node1&#45;&gt;Node24</title>
<g id="a_edge58_Node000001_Node000024"><a xlink:title=" ">
<path fill="none" stroke="#63b8ff" d="M1303.63,-573.7C1338.13,-551.35 1387.52,-512.72 1408.87,-464 1416.71,-446.09 1418.69,-436.91 1408.87,-420 1398.68,-402.46 1380.85,-389.87 1363.04,-381.06"/>
<polygon fill="#63b8ff" stroke="#63b8ff" points="1302.2,-570.46 1295.61,-578.75 1305.93,-576.38 1302.2,-570.46"/>
</a>
</g>
</g>
<!-- Node27 -->
<g id="Node000027" class="node">
<title>Node27</title>
<g id="a_Node000027"><a xlink:href="render__context_8cpp.html" target="_top" xlink:title=" ">
<polygon fill="white" stroke="#666666" points="1399.62,-464 1292.12,-464 1292.12,-420 1399.62,-420 1399.62,-464"/>
<text text-anchor="start" x="1300.12" y="-450.5" font-family="Helvetica,sans-Serif" font-size="10.00">hybrid&#45;renderer&#45;lib</text>
<text text-anchor="start" x="1300.12" y="-438.5" font-family="Helvetica,sans-Serif" font-size="10.00">/src/renderer_internal</text>
<text text-anchor="middle" x="1345.87" y="-426.5" font-family="Helvetica,sans-Serif" font-size="10.00">/render_context.cpp</text>
</a>
</g>
</g>
<!-- Node1&#45;&gt;Node27 -->
<g id="edge57_Node000001_Node000027" class="edge">
<title>Node1&#45;&gt;Node27</title>
<g id="a_edge57_Node000001_Node000027"><a xlink:title=" ">
<path fill="none" stroke="#63b8ff" d="M1280.05,-569.63C1295.39,-540.12 1320.45,-491.91 1334.81,-464.27"/>
<polygon fill="#63b8ff" stroke="#63b8ff" points="1277.08,-567.76 1275.57,-578.25 1283.29,-570.99 1277.08,-567.76"/>
</a>
</g>
</g>
<!-- Node3 -->
<g id="Node000003" class="node">
<title>Node3</title>
<g id="a_Node000003"><a xlink:href="hybrid__renderer_8h.html" target="_top" xlink:title=" ">
<polygon fill="white" stroke="#666666" points="648.74,-218 520.99,-218 520.99,-186 648.74,-186 648.74,-218"/>
<text text-anchor="start" x="528.99" y="-204.5" font-family="Helvetica,sans-Serif" font-size="10.00">hybrid&#45;renderer&#45;lib</text>
<text text-anchor="middle" x="584.87" y="-192.5" font-family="Helvetica,sans-Serif" font-size="10.00">/include/hybrid_renderer.h</text>
</a>
</g>
</g>
<!-- Node2&#45;&gt;Node3 -->
<g id="edge2_Node000002_Node000003" class="edge">
<title>Node2&#45;&gt;Node3</title>
<g id="a_edge2_Node000002_Node000003"><a xlink:title=" ">
<path fill="none" stroke="#63b8ff" d="M694.7,-518.63C524.01,-512.66 113.84,-495.22 59.87,-464 22.52,-442.4 17.66,-425.21 4.87,-384 -26.38,-283.4 105.15,-287.43 206.87,-260 315,-230.84 444.82,-215.36 520.75,-208.19"/>
<polygon fill="#63b8ff" stroke="#63b8ff" points="694.45,-522.12 704.57,-518.97 694.69,-515.13 694.45,-522.12"/>
</a>
</g>
</g>
<!-- Node11 -->
<g id="Node000011" class="node">
<title>Node11</title>
<g id="a_Node000011"><a xlink:href="buffer_8h.html" target="_top" xlink:title=" ">
<polygon fill="white" stroke="#666666" points="216.24,-464 91.49,-464 91.49,-420 216.24,-420 216.24,-464"/>
<text text-anchor="start" x="99.49" y="-450.5" font-family="Helvetica,sans-Serif" font-size="10.00">hybrid&#45;renderer&#45;lib</text>
<text text-anchor="start" x="99.49" y="-438.5" font-family="Helvetica,sans-Serif" font-size="10.00">/include/renderer_internal</text>
<text text-anchor="middle" x="153.87" y="-426.5" font-family="Helvetica,sans-Serif" font-size="10.00">/buffer.h</text>
</a>
</g>
</g>
<!-- Node2&#45;&gt;Node11 -->
<g id="edge15_Node000002_Node000011" class="edge">
<title>Node2&#45;&gt;Node11</title>
<g id="a_edge15_Node000002_Node000011"><a xlink:title=" ">
<path fill="none" stroke="#63b8ff" d="M694.78,-517.03C590.36,-510.55 394.27,-495.19 229.87,-464 225.56,-463.18 221.15,-462.24 216.71,-461.22"/>
<polygon fill="#63b8ff" stroke="#63b8ff" points="694.43,-520.51 704.62,-517.62 694.85,-513.52 694.43,-520.51"/>
</a>
</g>
</g>
<!-- Node12 -->
<g id="Node000012" class="node">
<title>Node12</title>
<g id="a_Node000012"><a xlink:href="buffer_8cpp.html" target="_top" xlink:title=" ">
<polygon fill="white" stroke="#666666" points="121.62,-384 14.12,-384 14.12,-340 121.62,-340 121.62,-384"/>
<text text-anchor="start" x="22.12" y="-370.5" font-family="Helvetica,sans-Serif" font-size="10.00">hybrid&#45;renderer&#45;lib</text>
<text text-anchor="start" x="22.12" y="-358.5" font-family="Helvetica,sans-Serif" font-size="10.00">/src/renderer_internal</text>
<text text-anchor="middle" x="67.87" y="-346.5" font-family="Helvetica,sans-Serif" font-size="10.00">/buffer.cpp</text>
</a>
</g>
</g>
<!-- Node2&#45;&gt;Node12 -->
<g id="edge48_Node000002_Node000012" class="edge">
<title>Node2&#45;&gt;Node12</title>
<g id="a_edge48_Node000002_Node000012"><a xlink:title=" ">
<path fill="none" stroke="#63b8ff" d="M694.54,-519.94C526.15,-516.83 126.76,-505.15 82.87,-464 61.4,-443.87 61.46,-407.38 64.16,-384.21"/>
<polygon fill="#63b8ff" stroke="#63b8ff" points="694.44,-523.44 704.5,-520.12 694.56,-516.44 694.44,-523.44"/>
</a>
</g>
</g>
<!-- Node13 -->
<g id="Node000013" class="node">
<title>Node13</title>
<g id="a_Node000013"><a xlink:href="descriptor__management_8h.html" target="_top" xlink:title=" ">
<polygon fill="white" stroke="#666666" points="834.62,-464 703.12,-464 703.12,-420 834.62,-420 834.62,-464"/>
<text text-anchor="start" x="711.12" y="-450.5" font-family="Helvetica,sans-Serif" font-size="10.00">hybrid&#45;renderer&#45;lib</text>
<text text-anchor="start" x="711.12" y="-438.5" font-family="Helvetica,sans-Serif" font-size="10.00">/include/renderer_internal</text>
<text text-anchor="middle" x="768.87" y="-426.5" font-family="Helvetica,sans-Serif" font-size="10.00">/descriptor_management.h</text>
</a>
</g>
</g>
<!-- Node2&#45;&gt;Node13 -->
<g id="edge18_Node000002_Node000013" class="edge">
<title>Node2&#45;&gt;Node13</title>
<g id="a_edge18_Node000002_Node000013"><a xlink:title=" ">
<path fill="none" stroke="#63b8ff" d="M768.87,-488.25C768.87,-480.15 768.87,-471.68 768.87,-464.29"/>
<polygon fill="#63b8ff" stroke="#63b8ff" points="765.37,-488.17 768.87,-498.17 772.37,-488.17 765.37,-488.17"/>
</a>
</g>
</g>
<!-- Node14 -->
<g id="Node000014" class="node">
<title>Node14</title>
<g id="a_Node000014"><a xlink:href="render__system_8h.html" target="_top" xlink:title=" ">
<polygon fill="white" stroke="#666666" points="1161.24,-304 1036.49,-304 1036.49,-260 1161.24,-260 1161.24,-304"/>
<text text-anchor="start" x="1044.49" y="-290.5" font-family="Helvetica,sans-Serif" font-size="10.00">hybrid&#45;renderer&#45;lib</text>
<text text-anchor="start" x="1044.49" y="-278.5" font-family="Helvetica,sans-Serif" font-size="10.00">/include/renderer_internal</text>
<text text-anchor="middle" x="1098.87" y="-266.5" font-family="Helvetica,sans-Serif" font-size="10.00">/render_system.h</text>
</a>
</g>
</g>
<!-- Node2&#45;&gt;Node14 -->
<g id="edge43_Node000002_Node000014" class="edge">
<title>Node2&#45;&gt;Node14</title>
<g id="a_edge43_Node000002_Node000014"><a xlink:title=" ">
<path fill="none" stroke="#63b8ff" d="M842.24,-500.12C867.64,-491.12 895.56,-479.13 918.87,-464 989.13,-418.4 1053.75,-341.48 1082.77,-304.33"/>
<polygon fill="#63b8ff" stroke="#63b8ff" points="841.28,-496.75 832.96,-503.31 843.56,-503.37 841.28,-496.75"/>
</a>
</g>
</g>
<!-- Node15 -->
<g id="Node000015" class="node">
<title>Node15</title>
<g id="a_Node000015"><a xlink:href="render__system_8cpp.html" target="_top" xlink:title=" ">
<polygon fill="white" stroke="#666666" points="1197.62,-224 1090.12,-224 1090.12,-180 1197.62,-180 1197.62,-224"/>
<text text-anchor="start" x="1098.12" y="-210.5" font-family="Helvetica,sans-Serif" font-size="10.00">hybrid&#45;renderer&#45;lib</text>
<text text-anchor="start" x="1098.12" y="-198.5" font-family="Helvetica,sans-Serif" font-size="10.00">/src/renderer_internal</text>
<text text-anchor="middle" x="1143.87" y="-186.5" font-family="Helvetica,sans-Serif" font-size="10.00">/render_system.cpp</text>
</a>
</g>
</g>
<!-- Node2&#45;&gt;Node15 -->
<g id="edge53_Node000002_Node000015" class="edge">
<title>Node2&#45;&gt;Node15</title>
<g id="a_edge53_Node000002_Node000015"><a xlink:title=" ">
<path fill="none" stroke="#63b8ff" d="M842.54,-516.65C961.05,-508.88 1183.24,-490.9 1206.87,-464 1231.05,-436.46 1244.03,-404.47 1185.87,-260 1180.68,-247.12 1171.89,-234.5 1163.68,-224.43"/>
<polygon fill="#63b8ff" stroke="#63b8ff" points="842.66,-513.13 832.91,-517.27 843.11,-520.12 842.66,-513.13"/>
</a>
</g>
</g>
<!-- Node16 -->
<g id="Node000016" class="node">
<title>Node16</title>
<g id="a_Node000016"><a xlink:href="shader__database_8h.html" target="_top" xlink:title=" ">
<polygon fill="white" stroke="#666666" points="942.24,-384 817.49,-384 817.49,-340 942.24,-340 942.24,-384"/>
<text text-anchor="start" x="825.49" y="-370.5" font-family="Helvetica,sans-Serif" font-size="10.00">hybrid&#45;renderer&#45;lib</text>
<text text-anchor="start" x="825.49" y="-358.5" font-family="Helvetica,sans-Serif" font-size="10.00">/include/renderer_internal</text>
<text text-anchor="middle" x="879.87" y="-346.5" font-family="Helvetica,sans-Serif" font-size="10.00">/shader_database.h</text>
</a>
</g>
</g>
<!-- Node2&#45;&gt;Node16 -->
<g id="edge47_Node000002_Node000016" class="edge">
<title>Node2&#45;&gt;Node16</title>
<g id="a_edge47_Node000002_Node000016"><a xlink:title=" ">
<path fill="none" stroke="#63b8ff" d="M814.42,-493.04C825.2,-484.75 835.87,-474.93 843.87,-464 861.56,-439.81 871.24,-406.1 875.98,-384.41"/>
<polygon fill="#63b8ff" stroke="#63b8ff" points="812.63,-490.02 806.62,-498.74 816.76,-495.67 812.63,-490.02"/>
</a>
</g>
</g>
<!-- Node19 -->
<g id="Node000019" class="node">
<title>Node19</title>
<g id="a_Node000019"><a xlink:href="shader__database_8cpp.html" target="_top" xlink:title=" ">
<polygon fill="white" stroke="#666666" points="1018.87,-304 906.87,-304 906.87,-260 1018.87,-260 1018.87,-304"/>
<text text-anchor="start" x="914.87" y="-290.5" font-family="Helvetica,sans-Serif" font-size="10.00">hybrid&#45;renderer&#45;lib</text>
<text text-anchor="start" x="914.87" y="-278.5" font-family="Helvetica,sans-Serif" font-size="10.00">/src/renderer_internal</text>
<text text-anchor="middle" x="962.87" y="-266.5" font-family="Helvetica,sans-Serif" font-size="10.00">/shader_database.cpp</text>
</a>
</g>
</g>
<!-- Node2&#45;&gt;Node19 -->
<g id="edge55_Node000002_Node000019" class="edge">
<title>Node2&#45;&gt;Node19</title>
<g id="a_edge55_Node000002_Node000019"><a xlink:title=" ">
<path fill="none" stroke="#63b8ff" d="M828.88,-494.37C871.63,-471.78 925.77,-434.9 950.87,-384 963.36,-358.66 964.92,-325.54 964.34,-304.27"/>
<polygon fill="#63b8ff" stroke="#63b8ff" points="827.49,-491.15 820.19,-498.84 830.68,-497.38 827.49,-491.15"/>
</a>
</g>
</g>
<!-- Node20 -->
<g id="Node000020" class="node">
<title>Node20</title>
<g id="a_Node000020"><a xlink:href="descriptor__management_8cpp.html" target="_top" xlink:title=" ">
<polygon fill="white" stroke="#666666" points="685.87,-384 543.87,-384 543.87,-340 685.87,-340 685.87,-384"/>
<text text-anchor="start" x="551.87" y="-370.5" font-family="Helvetica,sans-Serif" font-size="10.00">hybrid&#45;renderer&#45;lib</text>
<text text-anchor="start" x="551.87" y="-358.5" font-family="Helvetica,sans-Serif" font-size="10.00">/src/renderer_internal</text>
<text text-anchor="middle" x="614.87" y="-346.5" font-family="Helvetica,sans-Serif" font-size="10.00">/descriptor_management.cpp</text>
</a>
</g>
</g>
<!-- Node2&#45;&gt;Node20 -->
<g id="edge49_Node000002_Node000020" class="edge">
<title>Node2&#45;&gt;Node20</title>
<g id="a_edge49_Node000002_Node000020"><a xlink:title=" ">
<path fill="none" stroke="#63b8ff" d="M728.05,-492.97C716.5,-484.26 704.25,-474.24 693.87,-464 668.51,-438.99 643.99,-405.79 629.16,-384.41"/>
<polygon fill="#63b8ff" stroke="#63b8ff" points="725.78,-495.65 735.9,-498.76 729.93,-490.01 725.78,-495.65"/>
</a>
</g>
</g>
<!-- Node21 -->
<g id="Node000021" class="node">
<title>Node21</title>
<g id="a_Node000021"><a xlink:href="image_8h.html" target="_top" xlink:title=" ">
<polygon fill="white" stroke="#666666" points="396.24,-464 271.49,-464 271.49,-420 396.24,-420 396.24,-464"/>
<text text-anchor="start" x="279.49" y="-450.5" font-family="Helvetica,sans-Serif" font-size="10.00">hybrid&#45;renderer&#45;lib</text>
<text text-anchor="start" x="279.49" y="-438.5" font-family="Helvetica,sans-Serif" font-size="10.00">/include/renderer_internal</text>
<text text-anchor="middle" x="333.87" y="-426.5" font-family="Helvetica,sans-Serif" font-size="10.00">/image.h</text>
</a>
</g>
</g>
<!-- Node2&#45;&gt;Node21 -->
<g id="edge33_Node000002_Node000021" class="edge">
<title>Node2&#45;&gt;Node21</title>
<g id="a_edge33_Node000002_Node000021"><a xlink:title=" ">
<path fill="none" stroke="#63b8ff" d="M695.09,-512.23C621.38,-502.81 505.06,-486.16 405.87,-464 402.82,-463.32 399.7,-462.58 396.57,-461.8"/>
<polygon fill="#63b8ff" stroke="#63b8ff" points="694.24,-515.65 704.6,-513.44 695.12,-508.71 694.24,-515.65"/>
</a>
</g>
</g>
<!-- Node22 -->
<g id="Node000022" class="node">
<title>Node22</title>
<g id="a_Node000022"><a xlink:href="image_8cpp.html" target="_top" xlink:title=" ">
<polygon fill="white" stroke="#666666" points="285.62,-384 178.12,-384 178.12,-340 285.62,-340 285.62,-384"/>
<text text-anchor="start" x="186.12" y="-370.5" font-family="Helvetica,sans-Serif" font-size="10.00">hybrid&#45;renderer&#45;lib</text>
<text text-anchor="start" x="186.12" y="-358.5" font-family="Helvetica,sans-Serif" font-size="10.00">/src/renderer_internal</text>
<text text-anchor="middle" x="231.87" y="-346.5" font-family="Helvetica,sans-Serif" font-size="10.00">/image.cpp</text>
</a>
</g>
</g>
<!-- Node2&#45;&gt;Node22 -->
<g id="edge50_Node000002_Node000022" class="edge">
<title>Node2&#45;&gt;Node22</title>
<g id="a_edge50_Node000002_Node000022"><a xlink:title=" ">
<path fill="none" stroke="#63b8ff" d="M695.23,-517.13C562.88,-509.55 295.47,-491.05 262.87,-464 239.43,-444.56 233.35,-407.86 231.98,-384.46"/>
<polygon fill="#63b8ff" stroke="#63b8ff" points="694.76,-520.61 704.94,-517.68 695.15,-513.62 694.76,-520.61"/>
</a>
</g>
</g>
<!-- Node2&#45;&gt;Node23 -->
<g id="edge37_Node000002_Node000023" class="edge">
<title>Node2&#45;&gt;Node23</title>
<g id="a_edge37_Node000002_Node000023"><a xlink:title=" ">
<path fill="none" stroke="#63b8ff" d="M842.68,-508.15C901.71,-497.48 986.43,-481.31 1059.87,-464 1064.26,-462.96 1068.79,-461.85 1073.34,-460.68"/>
<polygon fill="#63b8ff" stroke="#63b8ff" points="842.32,-504.66 833.09,-509.87 843.55,-511.55 842.32,-504.66"/>
</a>
</g>
</g>
<!-- Node2&#45;&gt;Node24 -->
<g id="edge52_Node000002_Node000024" class="edge">
<title>Node2&#45;&gt;Node24</title>
<g id="a_edge52_Node000002_Node000024"><a xlink:title=" ">
<path fill="none" stroke="#63b8ff" d="M842.72,-519.4C958.14,-515.69 1174.81,-503.53 1239.87,-464 1270.17,-445.59 1290.3,-408.22 1300.64,-384.46"/>
<polygon fill="#63b8ff" stroke="#63b8ff" points="842.94,-515.89 833.05,-519.69 843.15,-522.89 842.94,-515.89"/>
</a>
</g>
</g>
<!-- Node25 -->
<g id="Node000025" class="node">
<title>Node25</title>
<g id="a_Node000025"><a xlink:href="sampler_8h.html" target="_top" xlink:title=" ">
<polygon fill="white" stroke="#666666" points="539.24,-464 414.49,-464 414.49,-420 539.24,-420 539.24,-464"/>
<text text-anchor="start" x="422.49" y="-450.5" font-family="Helvetica,sans-Serif" font-size="10.00">hybrid&#45;renderer&#45;lib</text>
<text text-anchor="start" x="422.49" y="-438.5" font-family="Helvetica,sans-Serif" font-size="10.00">/include/renderer_internal</text>
<text text-anchor="middle" x="476.87" y="-426.5" font-family="Helvetica,sans-Serif" font-size="10.00">/sampler.h</text>
</a>
</g>
</g>
<!-- Node2&#45;&gt;Node25 -->
<g id="edge44_Node000002_Node000025" class="edge">
<title>Node2&#45;&gt;Node25</title>
<g id="a_edge44_Node000002_Node000025"><a xlink:title=" ">
<path fill="none" stroke="#63b8ff" d="M695.28,-501.34C647.29,-488.52 585.32,-471.97 539.65,-459.77"/>
<polygon fill="#63b8ff" stroke="#63b8ff" points="694.2,-504.68 704.76,-503.88 696,-497.91 694.2,-504.68"/>
</a>
</g>
</g>
<!-- Node26 -->
<g id="Node000026" class="node">
<title>Node26</title>
<g id="a_Node000026"><a xlink:href="sampler_8cpp.html" target="_top" xlink:title=" ">
<polygon fill="white" stroke="#666666" points="525.62,-384 418.12,-384 418.12,-340 525.62,-340 525.62,-384"/>
<text text-anchor="start" x="426.12" y="-370.5" font-family="Helvetica,sans-Serif" font-size="10.00">hybrid&#45;renderer&#45;lib</text>
<text text-anchor="start" x="426.12" y="-358.5" font-family="Helvetica,sans-Serif" font-size="10.00">/src/renderer_internal</text>
<text text-anchor="middle" x="471.87" y="-346.5" font-family="Helvetica,sans-Serif" font-size="10.00">/sampler.cpp</text>
</a>
</g>
</g>
<!-- Node2&#45;&gt;Node26 -->
<g id="edge54_Node000002_Node000026" class="edge">
<title>Node2&#45;&gt;Node26</title>
<g id="a_edge54_Node000002_Node000026"><a xlink:title=" ">
<path fill="none" stroke="#63b8ff" d="M713.79,-494.67C694.42,-485.21 672.58,-474.33 652.87,-464 602.51,-437.6 545.37,-405.32 508.99,-384.47"/>
<polygon fill="#63b8ff" stroke="#63b8ff" points="712.09,-497.73 722.61,-498.95 715.15,-491.43 712.09,-497.73"/>
</a>
</g>
</g>
<!-- Node2&#45;&gt;Node27 -->
<g id="edge51_Node000002_Node000027" class="edge">
<title>Node2&#45;&gt;Node27</title>
<g id="a_edge51_Node000002_Node000027"><a xlink:title=" ">
<path fill="none" stroke="#63b8ff" d="M842.8,-517.09C942.47,-510.83 1125.05,-495.86 1277.87,-464 1282.46,-463.04 1287.19,-461.91 1291.91,-460.66"/>
<polygon fill="#63b8ff" stroke="#63b8ff" points="842.64,-513.59 832.87,-517.7 843.07,-520.58 842.64,-513.59"/>
</a>
</g>
</g>
<!-- Node4 -->
<g id="Node000004" class="node">
<title>Node4</title>
<g id="a_Node000004"><a xlink:href="demo_8h.html" target="_top" xlink:title=" ">
<polygon fill="white" stroke="#666666" points="383.37,-76 274.37,-76 274.37,-56 383.37,-56 383.37,-76"/>
<text text-anchor="middle" x="328.87" y="-62.5" font-family="Helvetica,sans-Serif" font-size="10.00">demo/include/demo.h</text>
</a>
</g>
</g>
<!-- Node3&#45;&gt;Node4 -->
<g id="edge3_Node000003_Node000004" class="edge">
<title>Node3&#45;&gt;Node4</title>
<g id="a_edge3_Node000003_Node000004"><a xlink:title=" ">
<path fill="none" stroke="#63b8ff" d="M545.53,-180.41C489.19,-150.92 387.81,-97.86 346.81,-76.39"/>
<polygon fill="#63b8ff" stroke="#63b8ff" points="543.68,-183.39 554.16,-184.93 546.92,-177.19 543.68,-183.39"/>
</a>
</g>
</g>
<!-- Node6 -->
<g id="Node000006" class="node">
<title>Node6</title>
<g id="a_Node000006"><a xlink:href="renderer_8h.html" target="_top" xlink:title=" ">
<polygon fill="white" stroke="#666666" points="521.99,-76 401.74,-76 401.74,-56 521.99,-56 521.99,-76"/>
<text text-anchor="middle" x="461.87" y="-62.5" font-family="Helvetica,sans-Serif" font-size="10.00">demo/include/renderer.h</text>
</a>
</g>
</g>
<!-- Node3&#45;&gt;Node6 -->
<g id="edge5_Node000003_Node000006" class="edge">
<title>Node3&#45;&gt;Node6</title>
<g id="a_edge5_Node000003_Node000006"><a xlink:title=" ">
<path fill="none" stroke="#63b8ff" d="M558.2,-178.15C546.91,-168.07 533.86,-155.83 522.87,-144 501.51,-121.01 479.34,-91.29 468.56,-76.39"/>
<polygon fill="#63b8ff" stroke="#63b8ff" points="555.84,-180.75 565.66,-184.73 560.47,-175.49 555.84,-180.75"/>
</a>
</g>
</g>
<!-- Node7 -->
<g id="Node000007" class="node">
<title>Node7</title>
<g id="a_Node000007"><a xlink:href="renderer_8cpp.html" target="_top" xlink:title=" ">
<polygon fill="white" stroke="#666666" points="606.62,-20 493.12,-20 493.12,0 606.62,0 606.62,-20"/>
<text text-anchor="middle" x="549.87" y="-6.5" font-family="Helvetica,sans-Serif" font-size="10.00">demo/src/renderer.cpp</text>
</a>
</g>
</g>
<!-- Node3&#45;&gt;Node7 -->
<g id="edge12_Node000003_Node000007" class="edge">
<title>Node3&#45;&gt;Node7</title>
<g id="a_edge12_Node000003_Node000007"><a xlink:title=" ">
<path fill="none" stroke="#63b8ff" d="M569.27,-176.05C564.03,-166.4 558.78,-155.04 555.87,-144 543.96,-98.85 547.11,-42.15 548.96,-20.23"/>
<polygon fill="#63b8ff" stroke="#63b8ff" points="566.07,-177.51 574.09,-184.44 572.14,-174.03 566.07,-177.51"/>
</a>
</g>
</g>
<!-- Node8 -->
<g id="Node000008" class="node">
<title>Node8</title>
<g id="a_Node000008"><a xlink:href="subsystems_8h.html" target="_top" xlink:title=" ">
<polygon fill="white" stroke="#666666" points="702.99,-138 564.74,-138 564.74,-118 702.99,-118 702.99,-138"/>
<text text-anchor="middle" x="633.87" y="-124.5" font-family="Helvetica,sans-Serif" font-size="10.00">demo/include/subsystems.h</text>
</a>
</g>
</g>
<!-- Node3&#45;&gt;Node8 -->
<g id="edge8_Node000003_Node000008" class="edge">
<title>Node3&#45;&gt;Node8</title>
<g id="a_edge8_Node000003_Node000008"><a xlink:title=" ">
<path fill="none" stroke="#63b8ff" d="M601.69,-176.28C610.6,-163.19 621.02,-147.88 627.53,-138.31"/>
<polygon fill="#63b8ff" stroke="#63b8ff" points="598.84,-174.24 596.11,-184.48 604.63,-178.18 598.84,-174.24"/>
</a>
</g>
</g>
<!-- Node9 -->
<g id="Node000009" class="node">
<title>Node9</title>
<g id="a_Node000009"><a xlink:href="subsystems_8cpp.html" target="_top" xlink:title=" ">
<polygon fill="white" stroke="#666666" points="786.62,-76 655.12,-76 655.12,-56 786.62,-56 786.62,-76"/>
<text text-anchor="middle" x="720.87" y="-62.5" font-family="Helvetica,sans-Serif" font-size="10.00">demo/src/subsystems.cpp</text>
</a>
</g>
</g>
<!-- Node3&#45;&gt;Node9 -->
<g id="edge13_Node000003_Node000009" class="edge">
<title>Node3&#45;&gt;Node9</title>
<g id="a_edge13_Node000003_Node000009"><a xlink:title=" ">
<path fill="none" stroke="#63b8ff" d="M659.41,-182.38C679.37,-173.87 698.97,-161.59 711.87,-144 726.75,-123.7 724.69,-91.97 722.5,-76.34"/>
<polygon fill="#63b8ff" stroke="#63b8ff" points="658.4,-179.02 650.38,-185.95 660.97,-185.53 658.4,-179.02"/>
</a>
</g>
</g>
<!-- Node10 -->
<g id="Node000010" class="node">
<title>Node10</title>
<g id="a_Node000010"><a xlink:href="hybrid__renderer_8cpp.html" target="_top" xlink:title=" ">
<polygon fill="white" stroke="#666666" points="880.37,-144 759.37,-144 759.37,-112 880.37,-112 880.37,-144"/>
<text text-anchor="start" x="767.37" y="-130.5" font-family="Helvetica,sans-Serif" font-size="10.00">hybrid&#45;renderer&#45;lib</text>
<text text-anchor="middle" x="819.87" y="-118.5" font-family="Helvetica,sans-Serif" font-size="10.00">/src/hybrid_renderer.cpp</text>
</a>
</g>
</g>
<!-- Node3&#45;&gt;Node10 -->
<g id="edge14_Node000003_Node000010" class="edge">
<title>Node3&#45;&gt;Node10</title>
<g id="a_edge14_Node000003_Node000010"><a xlink:title=" ">
<path fill="none" stroke="#63b8ff" d="M645.82,-182.32C684.27,-170.55 733.31,-155.52 769.54,-144.42"/>
<polygon fill="#63b8ff" stroke="#63b8ff" points="645.26,-178.83 636.73,-185.11 647.31,-185.53 645.26,-178.83"/>
</a>
</g>
</g>
<!-- Node5 -->
<g id="Node000005" class="node">
<title>Node5</title>
<g id="a_Node000005"><a xlink:href="main_8cpp.html" target="_top" xlink:title=" ">
<polygon fill="white" stroke="#666666" points="427.49,-20 328.24,-20 328.24,0 427.49,0 427.49,-20"/>
<text text-anchor="middle" x="377.87" y="-6.5" font-family="Helvetica,sans-Serif" font-size="10.00">demo/src/main.cpp</text>
</a>
</g>
</g>
<!-- Node4&#45;&gt;Node5 -->
<g id="edge4_Node000004_Node000005" class="edge">
<title>Node4&#45;&gt;Node5</title>
<g id="a_edge4_Node000004_Node000005"><a xlink:title=" ">
<path fill="none" stroke="#63b8ff" d="M344.94,-47.29C353.11,-38.28 362.71,-27.7 369.43,-20.3"/>
<polygon fill="#63b8ff" stroke="#63b8ff" points="342.55,-44.72 338.42,-54.47 347.73,-49.42 342.55,-44.72"/>
</a>
</g>
</g>
<!-- Node6&#45;&gt;Node5 -->
<g id="edge6_Node000006_Node000005" class="edge">
<title>Node6&#45;&gt;Node5</title>
<g id="a_edge6_Node000006_Node000005"><a xlink:title=" ">
<path fill="none" stroke="#63b8ff" d="M437.82,-49.54C423.24,-40.17 405.1,-28.51 392.61,-20.48"/>
<polygon fill="#63b8ff" stroke="#63b8ff" points="435.66,-52.31 445.96,-54.78 439.44,-46.42 435.66,-52.31"/>
</a>
</g>
</g>
<!-- Node6&#45;&gt;Node7 -->
<g id="edge7_Node000006_Node000007" class="edge">
<title>Node6&#45;&gt;Node7</title>
<g id="a_edge7_Node000006_Node000007"><a xlink:title=" ">
<path fill="none" stroke="#63b8ff" d="M486.62,-49.81C501.97,-40.39 521.21,-28.58 534.42,-20.48"/>
<polygon fill="#63b8ff" stroke="#63b8ff" points="485.18,-46.59 478.48,-54.8 488.84,-52.56 485.18,-46.59"/>
</a>
</g>
</g>
<!-- Node8&#45;&gt;Node6 -->
<g id="edge9_Node000008_Node000006" class="edge">
<title>Node8&#45;&gt;Node6</title>
<g id="a_edge9_Node000008_Node000006"><a xlink:title=" ">
<path fill="none" stroke="#63b8ff" d="M596.13,-113.84C563.69,-102.52 517.69,-86.47 488.84,-76.41"/>
<polygon fill="#63b8ff" stroke="#63b8ff" points="594.97,-117.14 605.56,-117.13 597.27,-110.53 594.97,-117.14"/>
</a>
</g>
</g>
<!-- Node8&#45;&gt;Node7 -->
<g id="edge10_Node000008_Node000007" class="edge">
<title>Node8&#45;&gt;Node7</title>
<g id="a_edge10_Node000008_Node000007"><a xlink:title=" ">
<path fill="none" stroke="#63b8ff" d="M620.31,-108.28C602.09,-83.12 570.39,-39.35 556.6,-20.3"/>
<polygon fill="#63b8ff" stroke="#63b8ff" points="617.4,-110.23 626.1,-116.28 623.07,-106.13 617.4,-110.23"/>
</a>
</g>
</g>
<!-- Node8&#45;&gt;Node9 -->
<g id="edge11_Node000008_Node000009" class="edge">
<title>Node8&#45;&gt;Node9</title>
<g id="a_edge11_Node000008_Node000009"><a xlink:title=" ">
<path fill="none" stroke="#63b8ff" d="M656.74,-111.22C672.85,-100.11 693.87,-85.62 707.37,-76.31"/>
<polygon fill="#63b8ff" stroke="#63b8ff" points="654.95,-108.21 648.71,-116.77 658.92,-113.97 654.95,-108.21"/>
</a>
</g>
</g>
<!-- Node11&#45;&gt;Node3 -->
<g id="edge16_Node000011_Node000003" class="edge">
<title>Node11&#45;&gt;Node3</title>
<g id="a_edge16_Node000011_Node000003"><a xlink:title=" ">
<path fill="none" stroke="#63b8ff" d="M150.71,-408.33C150.38,-386.73 153.58,-358.99 168.87,-340 255.06,-232.95 426.92,-208.77 520.51,-203.8"/>
<polygon fill="#63b8ff" stroke="#63b8ff" points="147.2,-408.25 151.13,-418.1 154.19,-407.95 147.2,-408.25"/>
</a>
</g>
</g>
<!-- Node11&#45;&gt;Node12 -->
<g id="edge17_Node000011_Node000012" class="edge">
<title>Node11&#45;&gt;Node12</title>
<g id="a_edge17_Node000011_Node000012"><a xlink:title=" ">
<path fill="none" stroke="#63b8ff" d="M122.08,-412.17C111.9,-402.94 100.81,-392.88 91.34,-384.29"/>
<polygon fill="#63b8ff" stroke="#63b8ff" points="119.49,-414.54 129.24,-418.67 124.19,-409.36 119.49,-414.54"/>
</a>
</g>
</g>
<!-- Node13&#45;&gt;Node3 -->
<g id="edge19_Node000013_Node000003" class="edge">
<title>Node13&#45;&gt;Node3</title>
<g id="a_edge19_Node000013_Node000003"><a xlink:title=" ">
<path fill="none" stroke="#63b8ff" d="M752.22,-409.92C739.11,-387.92 719.04,-359.05 694.87,-340 662.32,-314.35 635.68,-335.59 608.87,-304 587.99,-279.41 584.57,-239.82 584.41,-218.24"/>
<polygon fill="#63b8ff" stroke="#63b8ff" points="749.13,-411.57 757.16,-418.48 755.19,-408.07 749.13,-411.57"/>
</a>
</g>
</g>
<!-- Node13&#45;&gt;Node14 -->
<g id="edge20_Node000013_Node000014" class="edge">
<title>Node13&#45;&gt;Node14</title>
<g id="a_edge20_Node000013_Node000014"><a xlink:title=" ">
<path fill="none" stroke="#63b8ff" d="M846.09,-422.27C879.21,-412.86 917.8,-400.02 950.87,-384 996.64,-361.82 1044.31,-326.78 1072.79,-304.34"/>
<polygon fill="#63b8ff" stroke="#63b8ff" points="845.24,-418.87 836.55,-424.92 847.12,-425.62 845.24,-418.87"/>
</a>
</g>
</g>
<!-- Node13&#45;&gt;Node16 -->
<g id="edge23_Node000013_Node000016" class="edge">
<title>Node13&#45;&gt;Node16</title>
<g id="a_edge23_Node000013_Node000016"><a xlink:title=" ">
<path fill="none" stroke="#63b8ff" d="M808.32,-413.28C821.89,-403.74 836.85,-393.23 849.57,-384.29"/>
<polygon fill="#63b8ff" stroke="#63b8ff" points="806.6,-410.2 800.44,-418.82 810.63,-415.93 806.6,-410.2"/>
</a>
</g>
</g>
<!-- Node13&#45;&gt;Node20 -->
<g id="edge32_Node000013_Node000020" class="edge">
<title>Node13&#45;&gt;Node20</title>
<g id="a_edge32_Node000013_Node000020"><a xlink:title=" ">
<path fill="none" stroke="#63b8ff" d="M716.6,-414.53C697.24,-404.72 675.53,-393.73 657.16,-384.42"/>
<polygon fill="#63b8ff" stroke="#63b8ff" points="714.93,-417.61 725.43,-419 718.09,-411.36 714.93,-417.61"/>
</a>
</g>
</g>
<!-- Node14&#45;&gt;Node3 -->
<g id="edge21_Node000014_Node000003" class="edge">
<title>Node14&#45;&gt;Node3</title>
<g id="a_edge21_Node000014_Node000003"><a xlink:title=" ">
<path fill="none" stroke="#63b8ff" d="M1025.1,-259.6C889.97,-232.77 851.66,-242.32 717.87,-224 695.4,-220.92 670.86,-217.16 649.05,-213.68"/>
<polygon fill="#63b8ff" stroke="#63b8ff" points="1024.31,-263.01 1034.81,-261.56 1025.7,-256.15 1024.31,-263.01"/>
</a>
</g>
</g>
<!-- Node14&#45;&gt;Node15 -->
<g id="edge22_Node000014_Node000015" class="edge">
<title>Node14&#45;&gt;Node15</title>
<g id="a_edge22_Node000014_Node000015"><a xlink:title=" ">
<path fill="none" stroke="#63b8ff" d="M1116.78,-249.94C1121.75,-241.34 1127.02,-232.2 1131.58,-224.29"/>
<polygon fill="#63b8ff" stroke="#63b8ff" points="1113.88,-247.96 1111.92,-258.38 1119.95,-251.46 1113.88,-247.96"/>
</a>
</g>
</g>
<!-- Node16&#45;&gt;Node3 -->
<g id="edge24_Node000016_Node000003" class="edge">
<title>Node16&#45;&gt;Node3</title>
<g id="a_edge24_Node000016_Node000003"><a xlink:title=" ">
<path fill="none" stroke="#63b8ff" d="M845.4,-331.98C835.8,-323.33 825.62,-313.6 816.87,-304 800.39,-285.94 804,-273.87 783.87,-260 743.76,-232.38 690.36,-218.03 648.97,-210.64"/>
<polygon fill="#63b8ff" stroke="#63b8ff" points="843.04,-334.57 852.85,-338.58 847.68,-329.33 843.04,-334.57"/>
</a>
</g>
</g>
<!-- Node16&#45;&gt;Node14 -->
<g id="edge28_Node000016_Node000014" class="edge">
<title>Node16&#45;&gt;Node14</title>
<g id="a_edge28_Node000016_Node000014"><a xlink:title=" ">
<path fill="none" stroke="#63b8ff" d="M950.69,-335.78C979.15,-325.64 1011.6,-314.08 1038.87,-304.37"/>
<polygon fill="#63b8ff" stroke="#63b8ff" points="949.67,-332.42 941.42,-339.08 952.02,-339.02 949.67,-332.42"/>
</a>
</g>
</g>
<!-- Node16&#45;&gt;Node15 -->
<g id="edge30_Node000016_Node000015" class="edge">
<title>Node16&#45;&gt;Node15</title>
<g id="a_edge30_Node000016_Node000015"><a xlink:title=" ">
<path fill="none" stroke="#63b8ff" d="M877.02,-328.65C876.93,-306.53 880.71,-278.06 897.87,-260 923.79,-232.7 1025.66,-216.38 1089.9,-208.59"/>
<polygon fill="#63b8ff" stroke="#63b8ff" points="873.52,-328.47 877.35,-338.35 880.51,-328.24 873.52,-328.47"/>
</a>
</g>
</g>
<!-- Node17 -->
<g id="Node000017" class="node">
<title>Node17</title>
<g id="a_Node000017"><a xlink:href="render__pass_8h.html" target="_top" xlink:title=" ">
<polygon fill="white" stroke="#666666" points="775.24,-304 650.49,-304 650.49,-260 775.24,-260 775.24,-304"/>
<text text-anchor="start" x="658.49" y="-290.5" font-family="Helvetica,sans-Serif" font-size="10.00">hybrid&#45;renderer&#45;lib</text>
<text text-anchor="start" x="658.49" y="-278.5" font-family="Helvetica,sans-Serif" font-size="10.00">/include/renderer_internal</text>
<text text-anchor="middle" x="712.87" y="-266.5" font-family="Helvetica,sans-Serif" font-size="10.00">/render_pass.h</text>
</a>
</g>
</g>
<!-- Node16&#45;&gt;Node17 -->
<g id="edge25_Node000016_Node000017" class="edge">
<title>Node16&#45;&gt;Node17</title>
<g id="a_edge25_Node000016_Node000017"><a xlink:title=" ">
<path fill="none" stroke="#63b8ff" d="M824.06,-334.93C802.84,-325.02 778.93,-313.86 758.73,-304.42"/>
<polygon fill="#63b8ff" stroke="#63b8ff" points="822.32,-337.98 832.86,-339.05 825.28,-331.64 822.32,-337.98"/>
</a>
</g>
</g>
<!-- Node18 -->
<g id="Node000018" class="node">
<title>Node18</title>
<g id="a_Node000018"><a xlink:href="render__pass_8cpp.html" target="_top" xlink:title=" ">
<polygon fill="white" stroke="#666666" points="834.62,-224 727.12,-224 727.12,-180 834.62,-180 834.62,-224"/>
<text text-anchor="start" x="735.12" y="-210.5" font-family="Helvetica,sans-Serif" font-size="10.00">hybrid&#45;renderer&#45;lib</text>
<text text-anchor="start" x="735.12" y="-198.5" font-family="Helvetica,sans-Serif" font-size="10.00">/src/renderer_internal</text>
<text text-anchor="middle" x="780.87" y="-186.5" font-family="Helvetica,sans-Serif" font-size="10.00">/render_pass.cpp</text>
</a>
</g>
</g>
<!-- Node16&#45;&gt;Node18 -->
<g id="edge29_Node000016_Node000018" class="edge">
<title>Node16&#45;&gt;Node18</title>
<g id="a_edge29_Node000016_Node000018"><a xlink:title=" ">
<path fill="none" stroke="#63b8ff" d="M860.7,-330.17C848.24,-310.15 831.62,-283.51 816.87,-260 809.46,-248.2 801.16,-235.06 794.4,-224.37"/>
<polygon fill="#63b8ff" stroke="#63b8ff" points="857.57,-331.77 865.83,-338.41 863.51,-328.07 857.57,-331.77"/>
</a>
</g>
</g>
<!-- Node16&#45;&gt;Node19 -->
<g id="edge31_Node000016_Node000019" class="edge">
<title>Node16&#45;&gt;Node19</title>
<g id="a_edge31_Node000016_Node000019"><a xlink:title=" ">
<path fill="none" stroke="#63b8ff" d="M910.84,-331.89C920.58,-322.74 931.16,-312.8 940.21,-304.29"/>
<polygon fill="#63b8ff" stroke="#63b8ff" points="908.54,-329.25 903.65,-338.65 913.33,-334.35 908.54,-329.25"/>
</a>
</g>
</g>
<!-- Node17&#45;&gt;Node3 -->
<g id="edge26_Node000017_Node000003" class="edge">
<title>Node17&#45;&gt;Node3</title>
<g id="a_edge26_Node000017_Node000003"><a xlink:title=" ">
<path fill="none" stroke="#63b8ff" d="M668.27,-253.83C648.78,-241.95 626.63,-228.45 610.06,-218.35"/>
<polygon fill="#63b8ff" stroke="#63b8ff" points="666.24,-256.68 676.6,-258.9 669.88,-250.71 666.24,-256.68"/>
</a>
</g>
</g>
<!-- Node17&#45;&gt;Node18 -->
<g id="edge27_Node000017_Node000018" class="edge">
<title>Node17&#45;&gt;Node18</title>
<g id="a_edge27_Node000017_Node000018"><a xlink:title=" ">
<path fill="none" stroke="#63b8ff" d="M738.97,-251.06C746.75,-242.13 755.11,-232.54 762.31,-224.29"/>
<polygon fill="#63b8ff" stroke="#63b8ff" points="736.37,-248.71 732.44,-258.55 741.65,-253.31 736.37,-248.71"/>
</a>
</g>
</g>
<!-- Node21&#45;&gt;Node3 -->
<g id="edge34_Node000021_Node000003" class="edge">
<title>Node21&#45;&gt;Node3</title>
<g id="a_edge34_Node000021_Node000003"><a xlink:title=" ">
<path fill="none" stroke="#63b8ff" d="M339.02,-408.55C343.19,-388.03 350.31,-361.42 361.87,-340 384.29,-298.42 392.99,-286.84 431.87,-260 459.16,-241.16 493.46,-227.63 522.67,-218.5"/>
<polygon fill="#63b8ff" stroke="#63b8ff" points="335.58,-407.89 337.17,-418.37 342.46,-409.18 335.58,-407.89"/>
</a>
</g>
</g>
<!-- Node21&#45;&gt;Node17 -->
<g id="edge35_Node000021_Node000017" class="edge">
<title>Node21&#45;&gt;Node17</title>
<g id="a_edge35_Node000021_Node000017"><a xlink:title=" ">
<path fill="none" stroke="#63b8ff" d="M348.84,-409.88C361.57,-386.89 382.05,-356.77 408.87,-340 448.25,-315.38 573.24,-298 650.14,-289.33"/>
<polygon fill="#63b8ff" stroke="#63b8ff" points="345.84,-408.06 344.25,-418.54 352.03,-411.34 345.84,-408.06"/>
</a>
</g>
</g>
<!-- Node21&#45;&gt;Node22 -->
<g id="edge36_Node000021_Node000022" class="edge">
<title>Node21&#45;&gt;Node22</title>
<g id="a_edge36_Node000021_Node000022"><a xlink:title=" ">
<path fill="none" stroke="#63b8ff" d="M296.89,-412.72C284.62,-403.34 271.17,-393.06 259.7,-384.29"/>
<polygon fill="#63b8ff" stroke="#63b8ff" points="294.72,-415.47 304.79,-418.77 298.97,-409.91 294.72,-415.47"/>
</a>
</g>
</g>
<!-- Node23&#45;&gt;Node3 -->
<g id="edge38_Node000023_Node000003" class="edge">
<title>Node23&#45;&gt;Node3</title>
<g id="a_edge38_Node000023_Node000003"><a xlink:title=" ">
<path fill="none" stroke="#63b8ff" d="M1061.84,-435.76C968.78,-428.13 815.22,-411.75 765.87,-384 743.59,-371.48 749.48,-355.09 728.87,-340 695.1,-315.28 673.2,-331.74 641.87,-304 627.77,-291.52 603.85,-243.38 591.98,-218.34"/>
<polygon fill="#63b8ff" stroke="#63b8ff" points="1061.4,-439.24 1071.65,-436.55 1061.96,-432.26 1061.4,-439.24"/>
</a>
</g>
</g>
<!-- Node23&#45;&gt;Node14 -->
<g id="edge40_Node000023_Node000014" class="edge">
<title>Node23&#45;&gt;Node14</title>
<g id="a_edge40_Node000023_Node000014"><a xlink:title=" ">
<path fill="none" stroke="#63b8ff" d="M1128.27,-408.57C1120.98,-377.43 1110.18,-331.3 1103.89,-304.48"/>
<polygon fill="#63b8ff" stroke="#63b8ff" points="1124.84,-409.28 1130.53,-418.22 1131.66,-407.68 1124.84,-409.28"/>
</a>
</g>
</g>
<!-- Node23&#45;&gt;Node15 -->
<g id="edge42_Node000023_Node000015" class="edge">
<title>Node23&#45;&gt;Node15</title>
<g id="a_edge42_Node000023_Node000015"><a xlink:title=" ">
<path fill="none" stroke="#63b8ff" d="M1149.51,-409.34C1163.33,-373.12 1181.19,-312.1 1169.87,-260 1167.19,-247.67 1161.6,-234.81 1156.28,-224.43"/>
<polygon fill="#63b8ff" stroke="#63b8ff" points="1146.37,-407.75 1145.94,-418.34 1152.88,-410.33 1146.37,-407.75"/>
</a>
</g>
</g>
<!-- Node23&#45;&gt;Node17 -->
<g id="edge39_Node000023_Node000017" class="edge">
<title>Node23&#45;&gt;Node17</title>
<g id="a_edge39_Node000023_Node000017"><a xlink:title=" ">
<path fill="none" stroke="#63b8ff" d="M1061.83,-441.15C992.61,-438.37 888.27,-426.52 808.87,-384 806.47,-382.72 759.98,-333.3 732.59,-304.08"/>
<polygon fill="#63b8ff" stroke="#63b8ff" points="1061.43,-444.63 1071.55,-441.48 1061.67,-437.64 1061.43,-444.63"/>
</a>
</g>
</g>
<!-- Node23&#45;&gt;Node24 -->
<g id="edge41_Node000023_Node000024" class="edge">
<title>Node23&#45;&gt;Node24</title>
<g id="a_edge41_Node000023_Node000024"><a xlink:title=" ">
<path fill="none" stroke="#63b8ff" d="M1193.38,-415.07C1215.43,-405.13 1240.33,-393.9 1261.35,-384.42"/>
<polygon fill="#63b8ff" stroke="#63b8ff" points="1192.2,-411.76 1184.52,-419.06 1195.07,-418.14 1192.2,-411.76"/>
</a>
</g>
</g>
<!-- Node25&#45;&gt;Node3 -->
<g id="edge45_Node000025_Node000003" class="edge">
<title>Node25&#45;&gt;Node3</title>
<g id="a_edge45_Node000025_Node000003"><a xlink:title=" ">
<path fill="none" stroke="#63b8ff" d="M431.35,-412.46C422.26,-404.45 413.95,-394.9 408.87,-384 400.6,-366.28 400.28,-357.57 408.87,-340 438.03,-280.34 507.11,-239.13 549.53,-218.43"/>
<polygon fill="#63b8ff" stroke="#63b8ff" points="429.08,-415.13 439.05,-418.71 433.49,-409.69 429.08,-415.13"/>
</a>
</g>
</g>
<!-- Node25&#45;&gt;Node26 -->
<g id="edge46_Node000025_Node000026" class="edge">
<title>Node25&#45;&gt;Node26</title>
<g id="a_edge46_Node000025_Node000026"><a xlink:title=" ">
<path fill="none" stroke="#63b8ff" d="M474.77,-408.25C474.25,-400.15 473.7,-391.68 473.23,-384.29"/>
<polygon fill="#63b8ff" stroke="#63b8ff" points="471.27,-408.42 475.4,-418.18 478.26,-407.97 471.27,-408.42"/>
</a>
</g>
</g>
</g>
</svg>
