<?xml version="1.0" encoding="UTF-8" standalone="no"?>
<!DOCTYPE svg PUBLIC "-//W3C//DTD SVG 1.1//EN"
 "http://www.w3.org/Graphics/SVG/1.1/DTD/svg11.dtd">
<!-- Generated by graphviz version 10.0.1 (20240210.2158)
 -->
<!-- Title: hybrid&#45;renderer&#45;lib/include/config.h Pages: 1 -->
<svg width="1203pt" height="564pt"
 viewBox="0.00 0.00 1203.25 564.00" xmlns="http://www.w3.org/2000/svg" xmlns:xlink="http://www.w3.org/1999/xlink">
<g id="graph0" class="graph" transform="scale(1 1) rotate(0) translate(4 560)">
<title>hybrid&#45;renderer&#45;lib/include/config.h</title>
<!-- Node1 -->
<g id="Node000001" class="node">
<title>Node1</title>
<g id="a_Node000001"><a xlink:title=" ">
<polygon fill="#999999" stroke="#666666" points="1093.11,-556 999.86,-556 999.86,-524 1093.11,-524 1093.11,-556"/>
<text text-anchor="start" x="1007.86" y="-542.5" font-family="Helvetica,sans-Serif" font-size="10.00">hybrid&#45;renderer&#45;lib</text>
<text text-anchor="middle" x="1046.48" y="-530.5" font-family="Helvetica,sans-Serif" font-size="10.00">/include/config.h</text>
</a>
</g>
</g>
<!-- Node2 -->
<g id="Node000002" class="node">
<title>Node2</title>
<g id="a_Node000002"><a xlink:href="render__context_8h.html" target="_top" xlink:title=" ">
<polygon fill="white" stroke="#666666" points="674.86,-488 550.11,-488 550.11,-444 674.86,-444 674.86,-488"/>
<text text-anchor="start" x="558.11" y="-474.5" font-family="Helvetica,sans-Serif" font-size="10.00">hybrid&#45;renderer&#45;lib</text>
<text text-anchor="start" x="558.11" y="-462.5" font-family="Helvetica,sans-Serif" font-size="10.00">/include/renderer_internal</text>
<text text-anchor="middle" x="612.48" y="-450.5" font-family="Helvetica,sans-Serif" font-size="10.00">/render_context.h</text>
</a>
</g>
</g>
<!-- Node1&#45;&gt;Node2 -->
<g id="edge1_Node000001_Node000002" class="edge">
<title>Node1&#45;&gt;Node2</title>
<g id="a_edge1_Node000001_Node000002"><a xlink:title=" ">
<path fill="none" stroke="#63b8ff" d="M988.58,-529.39C907.1,-515.88 759.19,-491.34 675.19,-477.4"/>
<polygon fill="#63b8ff" stroke="#63b8ff" points="987.69,-532.79 998.13,-530.98 988.84,-525.89 987.69,-532.79"/>
</a>
</g>
</g>
<!-- Node21 -->
<g id="Node000021" class="node">
<title>Node21</title>
<g id="a_Node000021"><a xlink:href="render__core_8h.html" target="_top" xlink:title=" ">
<polygon fill="white" stroke="#666666" points="977.86,-408 853.11,-408 853.11,-364 977.86,-364 977.86,-408"/>
<text text-anchor="start" x="861.11" y="-394.5" font-family="Helvetica,sans-Serif" font-size="10.00">hybrid&#45;renderer&#45;lib</text>
<text text-anchor="start" x="861.11" y="-382.5" font-family="Helvetica,sans-Serif" font-size="10.00">/include/renderer_internal</text>
<text text-anchor="middle" x="915.48" y="-370.5" font-family="Helvetica,sans-Serif" font-size="10.00">/render_core.h</text>
</a>
</g>
</g>
<!-- Node1&#45;&gt;Node21 -->
<g id="edge47_Node000001_Node000021" class="edge">
<title>Node1&#45;&gt;Node21</title>
<g id="a_edge47_Node000001_Node000021"><a xlink:title=" ">
<path fill="none" stroke="#63b8ff" d="M1025.94,-515.17C1000.64,-485.81 958.05,-436.39 933.81,-408.27"/>
<polygon fill="#63b8ff" stroke="#63b8ff" points="1023.03,-517.15 1032.21,-522.44 1028.33,-512.58 1023.03,-517.15"/>
</a>
</g>
</g>
<!-- Node22 -->
<g id="Node000022" class="node">
<title>Node22</title>
<g id="a_Node000022"><a xlink:href="render__core_8cpp.html" target="_top" xlink:title=" ">
<polygon fill="white" stroke="#666666" points="1141.23,-328 1033.73,-328 1033.73,-284 1141.23,-284 1141.23,-328"/>
<text text-anchor="start" x="1041.73" y="-314.5" font-family="Helvetica,sans-Serif" font-size="10.00">hybrid&#45;renderer&#45;lib</text>
<text text-anchor="start" x="1041.73" y="-302.5" font-family="Helvetica,sans-Serif" font-size="10.00">/src/renderer_internal</text>
<text text-anchor="middle" x="1087.48" y="-290.5" font-family="Helvetica,sans-Serif" font-size="10.00">/render_core.cpp</text>
</a>
</g>
</g>
<!-- Node1&#45;&gt;Node22 -->
<g id="edge49_Node000001_Node000022" class="edge">
<title>Node1&#45;&gt;Node22</title>
<g id="a_edge49_Node000001_Node000022"><a xlink:title=" ">
<path fill="none" stroke="#63b8ff" d="M1083.24,-517.7C1117.74,-495.35 1167.14,-456.72 1188.48,-408 1196.33,-390.09 1198.34,-380.89 1188.48,-364 1178.07,-346.18 1159.81,-333.49 1141.65,-324.68"/>
<polygon fill="#63b8ff" stroke="#63b8ff" points="1081.82,-514.46 1075.22,-522.75 1085.55,-520.38 1081.82,-514.46"/>
</a>
</g>
</g>
<!-- Node23 -->
<g id="Node000023" class="node">
<title>Node23</title>
<g id="a_Node000023"><a xlink:href="render__context_8cpp.html" target="_top" xlink:title=" ">
<polygon fill="white" stroke="#666666" points="1179.23,-408 1071.73,-408 1071.73,-364 1179.23,-364 1179.23,-408"/>
<text text-anchor="start" x="1079.73" y="-394.5" font-family="Helvetica,sans-Serif" font-size="10.00">hybrid&#45;renderer&#45;lib</text>
<text text-anchor="start" x="1079.73" y="-382.5" font-family="Helvetica,sans-Serif" font-size="10.00">/src/renderer_internal</text>
<text text-anchor="middle" x="1125.48" y="-370.5" font-family="Helvetica,sans-Serif" font-size="10.00">/render_context.cpp</text>
</a>
</g>
</g>
<!-- Node1&#45;&gt;Node23 -->
<g id="edge48_Node000001_Node000023" class="edge">
<title>Node1&#45;&gt;Node23</title>
<g id="a_edge48_Node000001_Node000023"><a xlink:title=" ">
<path fill="none" stroke="#63b8ff" d="M1059.67,-513.63C1075.01,-484.12 1100.06,-435.91 1114.43,-408.27"/>
<polygon fill="#63b8ff" stroke="#63b8ff" points="1056.7,-511.76 1055.19,-522.25 1062.91,-514.99 1056.7,-511.76"/>
</a>
</g>
</g>
<!-- Node3 -->
<g id="Node000003" class="node">
<title>Node3</title>
<g id="a_Node000003"><a xlink:href="hybrid__renderer_8h.html" target="_top" xlink:title=" ">
<polygon fill="white" stroke="#666666" points="715.36,-162 587.61,-162 587.61,-130 715.36,-130 715.36,-162"/>
<text text-anchor="start" x="595.61" y="-148.5" font-family="Helvetica,sans-Serif" font-size="10.00">hybrid&#45;renderer&#45;lib</text>
<text text-anchor="middle" x="651.48" y="-136.5" font-family="Helvetica,sans-Serif" font-size="10.00">/include/hybrid_renderer.h</text>
</a>
</g>
</g>
<!-- Node2&#45;&gt;Node3 -->
<g id="edge2_Node000002_Node000003" class="edge">
<title>Node2&#45;&gt;Node3</title>
<g id="a_edge2_Node000002_Node000003"><a xlink:title=" ">
<path fill="none" stroke="#63b8ff" d="M538.55,-465.79C405.96,-465.87 134.42,-459.51 57.48,-408 9.01,-375.55 -18.09,-332.39 14.48,-284 84.6,-179.84 443.79,-189.6 567.48,-168 576.22,-166.47 585.39,-164.54 594.33,-162.46"/>
<polygon fill="#63b8ff" stroke="#63b8ff" points="538.27,-469.3 548.26,-465.78 538.26,-462.3 538.27,-469.3"/>
</a>
</g>
</g>
<!-- Node9 -->
<g id="Node000009" class="node">
<title>Node9</title>
<g id="a_Node000009"><a xlink:href="buffer_8h.html" target="_top" xlink:title=" ">
<polygon fill="white" stroke="#666666" points="206.86,-408 82.11,-408 82.11,-364 206.86,-364 206.86,-408"/>
<text text-anchor="start" x="90.11" y="-394.5" font-family="Helvetica,sans-Serif" font-size="10.00">hybrid&#45;renderer&#45;lib</text>
<text text-anchor="start" x="90.11" y="-382.5" font-family="Helvetica,sans-Serif" font-size="10.00">/include/renderer_internal</text>
<text text-anchor="middle" x="144.48" y="-370.5" font-family="Helvetica,sans-Serif" font-size="10.00">/buffer.h</text>
</a>
</g>
</g>
<!-- Node2&#45;&gt;Node9 -->
<g id="edge10_Node000002_Node000009" class="edge">
<title>Node2&#45;&gt;Node9</title>
<g id="a_edge10_Node000002_Node000009"><a xlink:title=" ">
<path fill="none" stroke="#63b8ff" d="M538.5,-457.5C458.54,-448.67 327.61,-432.08 216.48,-408 213.43,-407.34 210.31,-406.62 207.18,-405.85"/>
<polygon fill="#63b8ff" stroke="#63b8ff" points="538.1,-460.98 548.42,-458.59 538.86,-454.02 538.1,-460.98"/>
</a>
</g>
</g>
<!-- Node10 -->
<g id="Node000010" class="node">
<title>Node10</title>
<g id="a_Node000010"><a xlink:href="buffer_8cpp.html" target="_top" xlink:title=" ">
<polygon fill="white" stroke="#666666" points="131.23,-328 23.73,-328 23.73,-284 131.23,-284 131.23,-328"/>
<text text-anchor="start" x="31.73" y="-314.5" font-family="Helvetica,sans-Serif" font-size="10.00">hybrid&#45;renderer&#45;lib</text>
<text text-anchor="start" x="31.73" y="-302.5" font-family="Helvetica,sans-Serif" font-size="10.00">/src/renderer_internal</text>
<text text-anchor="middle" x="77.48" y="-290.5" font-family="Helvetica,sans-Serif" font-size="10.00">/buffer.cpp</text>
</a>
</g>
</g>
<!-- Node2&#45;&gt;Node10 -->
<g id="edge40_Node000002_Node000010" class="edge">
<title>Node2&#45;&gt;Node10</title>
<g id="a_edge40_Node000002_Node000010"><a xlink:title=" ">
<path fill="none" stroke="#63b8ff" d="M538.15,-462.55C397.57,-457.15 104,-441.91 73.48,-408 54.23,-386.61 61.29,-351.17 68.84,-328.47"/>
<polygon fill="#63b8ff" stroke="#63b8ff" points="538,-466.05 548.13,-462.93 538.27,-459.05 538,-466.05"/>
</a>
</g>
</g>
<!-- Node11 -->
<g id="Node000011" class="node">
<title>Node11</title>
<g id="a_Node000011"><a xlink:href="descriptor__management_8h.html" target="_top" xlink:title=" ">
<polygon fill="white" stroke="#666666" points="772.23,-408 640.73,-408 640.73,-364 772.23,-364 772.23,-408"/>
<text text-anchor="start" x="648.73" y="-394.5" font-family="Helvetica,sans-Serif" font-size="10.00">hybrid&#45;renderer&#45;lib</text>
<text text-anchor="start" x="648.73" y="-382.5" font-family="Helvetica,sans-Serif" font-size="10.00">/include/renderer_internal</text>
<text text-anchor="middle" x="706.48" y="-370.5" font-family="Helvetica,sans-Serif" font-size="10.00">/descriptor_management.h</text>
</a>
</g>
</g>
<!-- Node2&#45;&gt;Node11 -->
<g id="edge13_Node000002_Node000011" class="edge">
<title>Node2&#45;&gt;Node11</title>
<g id="a_edge13_Node000002_Node000011"><a xlink:title=" ">
<path fill="none" stroke="#63b8ff" d="M646.89,-436.45C658.11,-427.14 670.36,-416.97 680.83,-408.29"/>
<polygon fill="#63b8ff" stroke="#63b8ff" points="644.79,-433.64 639.33,-442.72 649.26,-439.03 644.79,-433.64"/>
</a>
</g>
</g>
<!-- Node12 -->
<g id="Node000012" class="node">
<title>Node12</title>
<g id="a_Node000012"><a xlink:href="render__system_8h.html" target="_top" xlink:title=" ">
<polygon fill="white" stroke="#666666" points="901.86,-248 777.11,-248 777.11,-204 901.86,-204 901.86,-248"/>
<text text-anchor="start" x="785.11" y="-234.5" font-family="Helvetica,sans-Serif" font-size="10.00">hybrid&#45;renderer&#45;lib</text>
<text text-anchor="start" x="785.11" y="-222.5" font-family="Helvetica,sans-Serif" font-size="10.00">/include/renderer_internal</text>
<text text-anchor="middle" x="839.48" y="-210.5" font-family="Helvetica,sans-Serif" font-size="10.00">/render_system.h</text>
</a>
</g>
</g>
<!-- Node2&#45;&gt;Node12 -->
<g id="edge38_Node000002_Node000012" class="edge">
<title>Node2&#45;&gt;Node12</title>
<g id="a_edge38_Node000002_Node000012"><a xlink:title=" ">
<path fill="none" stroke="#63b8ff" d="M685.96,-453.6C718.34,-445.44 754.96,-431.56 781.48,-408 828.48,-366.25 837.65,-286.41 839.26,-248.28"/>
<polygon fill="#63b8ff" stroke="#63b8ff" points="685.57,-450.1 676.64,-455.8 687.18,-456.91 685.57,-450.1"/>
</a>
</g>
</g>
<!-- Node13 -->
<g id="Node000013" class="node">
<title>Node13</title>
<g id="a_Node000013"><a xlink:href="render__system_8cpp.html" target="_top" xlink:title=" ">
<polygon fill="white" stroke="#666666" points="957.23,-168 849.73,-168 849.73,-124 957.23,-124 957.23,-168"/>
<text text-anchor="start" x="857.73" y="-154.5" font-family="Helvetica,sans-Serif" font-size="10.00">hybrid&#45;renderer&#45;lib</text>
<text text-anchor="start" x="857.73" y="-142.5" font-family="Helvetica,sans-Serif" font-size="10.00">/src/renderer_internal</text>
<text text-anchor="middle" x="903.48" y="-130.5" font-family="Helvetica,sans-Serif" font-size="10.00">/render_system.cpp</text>
</a>
</g>
</g>
<!-- Node2&#45;&gt;Node13 -->
<g id="edge45_Node000002_Node000013" class="edge">
<title>Node2&#45;&gt;Node13</title>
<g id="a_edge45_Node000002_Node000013"><a xlink:title=" ">
<path fill="none" stroke="#63b8ff" d="M686.54,-464.66C784.33,-462.46 948.6,-452.09 986.48,-408 1013.84,-376.16 1030.54,-333.78 963.48,-204 956.36,-190.21 944.57,-177.92 933.31,-168.3"/>
<polygon fill="#63b8ff" stroke="#63b8ff" points="686.69,-461.16 676.76,-464.86 686.83,-468.16 686.69,-461.16"/>
</a>
</g>
</g>
<!-- Node14 -->
<g id="Node000014" class="node">
<title>Node14</title>
<g id="a_Node000014"><a xlink:href="shader__database_8h.html" target="_top" xlink:title=" ">
<polygon fill="white" stroke="#666666" points="711.86,-328 587.11,-328 587.11,-284 711.86,-284 711.86,-328"/>
<text text-anchor="start" x="595.11" y="-314.5" font-family="Helvetica,sans-Serif" font-size="10.00">hybrid&#45;renderer&#45;lib</text>
<text text-anchor="start" x="595.11" y="-302.5" font-family="Helvetica,sans-Serif" font-size="10.00">/include/renderer_internal</text>
<text text-anchor="middle" x="649.48" y="-290.5" font-family="Helvetica,sans-Serif" font-size="10.00">/shader_database.h</text>
</a>
</g>
</g>
<!-- Node2&#45;&gt;Node14 -->
<g id="edge39_Node000002_Node000014" class="edge">
<title>Node2&#45;&gt;Node14</title>
<g id="a_edge39_Node000002_Node000014"><a xlink:title=" ">
<path fill="none" stroke="#63b8ff" d="M617.61,-432.32C620.98,-412.44 625.81,-386.61 631.48,-364 634.46,-352.12 638.52,-339.08 642.03,-328.48"/>
<polygon fill="#63b8ff" stroke="#63b8ff" points="614.17,-431.63 616,-442.06 621.08,-432.77 614.17,-431.63"/>
</a>
</g>
</g>
<!-- Node17 -->
<g id="Node000017" class="node">
<title>Node17</title>
<g id="a_Node000017"><a xlink:href="shader__database_8cpp.html" target="_top" xlink:title=" ">
<polygon fill="white" stroke="#666666" points="460.48,-248 348.48,-248 348.48,-204 460.48,-204 460.48,-248"/>
<text text-anchor="start" x="356.48" y="-234.5" font-family="Helvetica,sans-Serif" font-size="10.00">hybrid&#45;renderer&#45;lib</text>
<text text-anchor="start" x="356.48" y="-222.5" font-family="Helvetica,sans-Serif" font-size="10.00">/src/renderer_internal</text>
<text text-anchor="middle" x="404.48" y="-210.5" font-family="Helvetica,sans-Serif" font-size="10.00">/shader_database.cpp</text>
</a>
</g>
</g>
<!-- Node2&#45;&gt;Node17 -->
<g id="edge46_Node000002_Node000017" class="edge">
<title>Node2&#45;&gt;Node17</title>
<g id="a_edge46_Node000002_Node000017"><a xlink:title=" ">
<path fill="none" stroke="#63b8ff" d="M551.55,-438.52C507.09,-415.86 449.41,-378.81 418.48,-328 403.66,-303.66 401.94,-269.98 402.71,-248.35"/>
<polygon fill="#63b8ff" stroke="#63b8ff" points="549.81,-441.57 560.32,-442.88 552.92,-435.3 549.81,-441.57"/>
</a>
</g>
</g>
<!-- Node18 -->
<g id="Node000018" class="node">
<title>Node18</title>
<g id="a_Node000018"><a xlink:href="descriptor__management_8cpp.html" target="_top" xlink:title=" ">
<polygon fill="white" stroke="#666666" points="569.48,-328 427.48,-328 427.48,-284 569.48,-284 569.48,-328"/>
<text text-anchor="start" x="435.48" y="-314.5" font-family="Helvetica,sans-Serif" font-size="10.00">hybrid&#45;renderer&#45;lib</text>
<text text-anchor="start" x="435.48" y="-302.5" font-family="Helvetica,sans-Serif" font-size="10.00">/src/renderer_internal</text>
<text text-anchor="middle" x="498.48" y="-290.5" font-family="Helvetica,sans-Serif" font-size="10.00">/descriptor_management.cpp</text>
</a>
</g>
</g>
<!-- Node2&#45;&gt;Node18 -->
<g id="edge41_Node000002_Node000018" class="edge">
<title>Node2&#45;&gt;Node18</title>
<g id="a_edge41_Node000002_Node000018"><a xlink:title=" ">
<path fill="none" stroke="#63b8ff" d="M590.55,-434.6C568.09,-403.47 533.75,-355.89 513.98,-328.48"/>
<polygon fill="#63b8ff" stroke="#63b8ff" points="587.53,-436.4 596.22,-442.46 593.21,-432.31 587.53,-436.4"/>
</a>
</g>
</g>
<!-- Node19 -->
<g id="Node000019" class="node">
<title>Node19</title>
<g id="a_Node000019"><a xlink:href="image_8h.html" target="_top" xlink:title=" ">
<polygon fill="white" stroke="#666666" points="349.86,-408 225.11,-408 225.11,-364 349.86,-364 349.86,-408"/>
<text text-anchor="start" x="233.11" y="-394.5" font-family="Helvetica,sans-Serif" font-size="10.00">hybrid&#45;renderer&#45;lib</text>
<text text-anchor="start" x="233.11" y="-382.5" font-family="Helvetica,sans-Serif" font-size="10.00">/include/renderer_internal</text>
<text text-anchor="middle" x="287.48" y="-370.5" font-family="Helvetica,sans-Serif" font-size="10.00">/image.h</text>
</a>
</g>
</g>
<!-- Node2&#45;&gt;Node19 -->
<g id="edge28_Node000002_Node000019" class="edge">
<title>Node2&#45;&gt;Node19</title>
<g id="a_edge28_Node000002_Node000019"><a xlink:title=" ">
<path fill="none" stroke="#63b8ff" d="M538.66,-449.01C489,-438.02 422.14,-422.81 363.48,-408 359.1,-406.89 354.59,-405.72 350.05,-404.53"/>
<polygon fill="#63b8ff" stroke="#63b8ff" points="537.62,-452.36 548.14,-451.1 539.13,-445.52 537.62,-452.36"/>
</a>
</g>
</g>
<!-- Node20 -->
<g id="Node000020" class="node">
<title>Node20</title>
<g id="a_Node000020"><a xlink:href="image_8cpp.html" target="_top" xlink:title=" ">
<polygon fill="white" stroke="#666666" points="371.23,-328 263.73,-328 263.73,-284 371.23,-284 371.23,-328"/>
<text text-anchor="start" x="271.73" y="-314.5" font-family="Helvetica,sans-Serif" font-size="10.00">hybrid&#45;renderer&#45;lib</text>
<text text-anchor="start" x="271.73" y="-302.5" font-family="Helvetica,sans-Serif" font-size="10.00">/src/renderer_internal</text>
<text text-anchor="middle" x="317.48" y="-290.5" font-family="Helvetica,sans-Serif" font-size="10.00">/image.cpp</text>
</a>
</g>
</g>
<!-- Node2&#45;&gt;Node20 -->
<g id="edge42_Node000002_Node000020" class="edge">
<title>Node2&#45;&gt;Node20</title>
<g id="a_edge42_Node000002_Node000020"><a xlink:title=" ">
<path fill="none" stroke="#63b8ff" d="M538.61,-456.35C495.91,-448.69 442.67,-434.43 401.48,-408 384.78,-397.29 351.98,-354.48 332.68,-328.15"/>
<polygon fill="#63b8ff" stroke="#63b8ff" points="537.85,-459.77 548.3,-457.99 539.02,-452.87 537.85,-459.77"/>
</a>
</g>
</g>
<!-- Node2&#45;&gt;Node21 -->
<g id="edge32_Node000002_Node000021" class="edge">
<title>Node2&#45;&gt;Node21</title>
<g id="a_edge32_Node000002_Node000021"><a xlink:title=" ">
<path fill="none" stroke="#63b8ff" d="M686.22,-446.95C730.68,-435.95 788.41,-421.47 839.48,-408 843.85,-406.85 848.35,-405.64 852.89,-404.42"/>
<polygon fill="#63b8ff" stroke="#63b8ff" points="685.55,-443.51 676.68,-449.31 687.23,-450.31 685.55,-443.51"/>
</a>
</g>
</g>
<!-- Node2&#45;&gt;Node22 -->
<g id="edge44_Node000002_Node000022" class="edge">
<title>Node2&#45;&gt;Node22</title>
<g id="a_edge44_Node000002_Node000022"><a xlink:title=" ">
<path fill="none" stroke="#63b8ff" d="M686.75,-461.78C788.68,-456.17 965.45,-441.78 1019.48,-408 1049.42,-389.29 1069.23,-352.01 1079.39,-328.35"/>
<polygon fill="#63b8ff" stroke="#63b8ff" points="686.62,-458.28 676.83,-462.31 687,-465.27 686.62,-458.28"/>
</a>
</g>
</g>
<!-- Node2&#45;&gt;Node23 -->
<g id="edge43_Node000002_Node000023" class="edge">
<title>Node2&#45;&gt;Node23</title>
<g id="a_edge43_Node000002_Node000023"><a xlink:title=" ">
<path fill="none" stroke="#63b8ff" d="M686.64,-459.43C775.52,-451.86 928.59,-435.94 1057.48,-408 1062.07,-407.01 1066.79,-405.84 1071.51,-404.59"/>
<polygon fill="#63b8ff" stroke="#63b8ff" points="686.52,-455.93 676.84,-460.25 687.1,-462.9 686.52,-455.93"/>
</a>
</g>
</g>
<!-- Node4 -->
<g id="Node000004" class="node">
<title>Node4</title>
<g id="a_Node000004"><a xlink:href="demo_8h.html" target="_top" xlink:title=" ">
<polygon fill="white" stroke="#666666" points="515.98,-82 406.98,-82 406.98,-62 515.98,-62 515.98,-82"/>
<text text-anchor="middle" x="461.48" y="-68.5" font-family="Helvetica,sans-Serif" font-size="10.00">demo/include/demo.h</text>
</a>
</g>
</g>
<!-- Node3&#45;&gt;Node4 -->
<g id="edge3_Node000003_Node000004" class="edge">
<title>Node3&#45;&gt;Node4</title>
<g id="a_edge3_Node000003_Node000004"><a xlink:title=" ">
<path fill="none" stroke="#63b8ff" d="M600.17,-125.55C563.32,-111.59 515.26,-93.38 486.47,-82.47"/>
<polygon fill="#63b8ff" stroke="#63b8ff" points="598.71,-128.75 609.31,-129.02 601.2,-122.2 598.71,-128.75"/>
</a>
</g>
</g>
<!-- Node6 -->
<g id="Node000006" class="node">
<title>Node6</title>
<g id="a_Node000006"><a xlink:href="subsystems_8h.html" target="_top" xlink:title=" ">
<polygon fill="white" stroke="#666666" points="672.61,-82 534.36,-82 534.36,-62 672.61,-62 672.61,-82"/>
<text text-anchor="middle" x="603.48" y="-68.5" font-family="Helvetica,sans-Serif" font-size="10.00">demo/include/subsystems.h</text>
</a>
</g>
</g>
<!-- Node3&#45;&gt;Node6 -->
<g id="edge5_Node000003_Node000006" class="edge">
<title>Node3&#45;&gt;Node6</title>
<g id="a_edge5_Node000003_Node000006"><a xlink:title=" ">
<path fill="none" stroke="#63b8ff" d="M635,-120.28C626.27,-107.19 616.07,-91.88 609.69,-82.31"/>
<polygon fill="#63b8ff" stroke="#63b8ff" points="632,-122.09 640.46,-128.47 637.83,-118.21 632,-122.09"/>
</a>
</g>
</g>
<!-- Node7 -->
<g id="Node000007" class="node">
<title>Node7</title>
<g id="a_Node000007"><a xlink:href="subsystems_8cpp.html" target="_top" xlink:title=" ">
<polygon fill="white" stroke="#666666" points="717.23,-20 585.73,-20 585.73,0 717.23,0 717.23,-20"/>
<text text-anchor="middle" x="651.48" y="-6.5" font-family="Helvetica,sans-Serif" font-size="10.00">demo/src/subsystems.cpp</text>
</a>
</g>
</g>
<!-- Node3&#45;&gt;Node7 -->
<g id="edge8_Node000003_Node000007" class="edge">
<title>Node3&#45;&gt;Node7</title>
<g id="a_edge8_Node000003_Node000007"><a xlink:title=" ">
<path fill="none" stroke="#63b8ff" d="M668.54,-120.05C678.56,-102.28 688.08,-77.79 681.48,-56 677.35,-42.34 667.54,-29.04 660.26,-20.48"/>
<polygon fill="#63b8ff" stroke="#63b8ff" points="665.69,-118 663.48,-128.36 671.67,-121.64 665.69,-118"/>
</a>
</g>
</g>
<!-- Node8 -->
<g id="Node000008" class="node">
<title>Node8</title>
<g id="a_Node000008"><a xlink:href="hybrid__renderer_8cpp.html" target="_top" xlink:title=" ">
<polygon fill="white" stroke="#666666" points="849.98,-88 728.98,-88 728.98,-56 849.98,-56 849.98,-88"/>
<text text-anchor="start" x="736.98" y="-74.5" font-family="Helvetica,sans-Serif" font-size="10.00">hybrid&#45;renderer&#45;lib</text>
<text text-anchor="middle" x="789.48" y="-62.5" font-family="Helvetica,sans-Serif" font-size="10.00">/src/hybrid_renderer.cpp</text>
</a>
</g>
</g>
<!-- Node3&#45;&gt;Node8 -->
<g id="edge9_Node000003_Node000008" class="edge">
<title>Node3&#45;&gt;Node8</title>
<g id="a_edge9_Node000003_Node000008"><a xlink:title=" ">
<path fill="none" stroke="#63b8ff" d="M691.09,-124.33C713.03,-112.89 739.84,-98.9 759.93,-88.42"/>
<polygon fill="#63b8ff" stroke="#63b8ff" points="689.67,-121.13 682.43,-128.85 692.91,-127.33 689.67,-121.13"/>
</a>
</g>
</g>
<!-- Node5 -->
<g id="Node000005" class="node">
<title>Node5</title>
<g id="a_Node000005"><a xlink:href="main_8cpp.html" target="_top" xlink:title=" ">
<polygon fill="white" stroke="#666666" points="564.11,-20 464.86,-20 464.86,0 564.11,0 564.11,-20"/>
<text text-anchor="middle" x="514.48" y="-6.5" font-family="Helvetica,sans-Serif" font-size="10.00">demo/src/main.cpp</text>
</a>
</g>
</g>
<!-- Node4&#45;&gt;Node5 -->
<g id="edge4_Node000004_Node000005" class="edge">
<title>Node4&#45;&gt;Node5</title>
<g id="a_edge4_Node000004_Node000005"><a xlink:title=" ">
<path fill="none" stroke="#63b8ff" d="M477.16,-53.25C486.78,-42.36 498.69,-28.88 506.43,-20.11"/>
<polygon fill="#63b8ff" stroke="#63b8ff" points="474.76,-50.68 470.76,-60.49 480.01,-55.31 474.76,-50.68"/>
</a>
</g>
</g>
<!-- Node6&#45;&gt;Node5 -->
<g id="edge6_Node000006_Node000005" class="edge">
<title>Node6&#45;&gt;Node5</title>
<g id="a_edge6_Node000006_Node000005"><a xlink:title=" ">
<path fill="none" stroke="#63b8ff" d="M580.08,-55.22C563.6,-44.11 542.1,-29.62 528.29,-20.31"/>
<polygon fill="#63b8ff" stroke="#63b8ff" points="578.07,-58.09 588.32,-60.78 581.98,-52.29 578.07,-58.09"/>
</a>
</g>
</g>
<!-- Node6&#45;&gt;Node7 -->
<g id="edge7_Node000006_Node000007" class="edge">
<title>Node6&#45;&gt;Node7</title>
<g id="a_edge7_Node000006_Node000007"><a xlink:title=" ">
<path fill="none" stroke="#63b8ff" d="M617.94,-52.92C626.61,-42.1 637.25,-28.79 644.19,-20.11"/>
<polygon fill="#63b8ff" stroke="#63b8ff" points="615.44,-50.45 611.93,-60.44 620.91,-54.82 615.44,-50.45"/>
</a>
</g>
</g>
<!-- Node9&#45;&gt;Node3 -->
<g id="edge11_Node000009_Node000003" class="edge">
<title>Node9&#45;&gt;Node3</title>
<g id="a_edge11_Node000009_Node000003"><a xlink:title=" ">
<path fill="none" stroke="#63b8ff" d="M155.4,-352.8C171.47,-310.83 205.77,-238.7 261.48,-204 319.6,-167.8 500.13,-180.33 567.48,-168 576.06,-166.43 585.06,-164.49 593.85,-162.44"/>
<polygon fill="#63b8ff" stroke="#63b8ff" points="152.14,-351.52 151.96,-362.11 158.71,-353.95 152.14,-351.52"/>
</a>
</g>
</g>
<!-- Node9&#45;&gt;Node10 -->
<g id="edge12_Node000009_Node000010" class="edge">
<title>Node9&#45;&gt;Node10</title>
<g id="a_edge12_Node000009_Node000010"><a xlink:title=" ">
<path fill="none" stroke="#63b8ff" d="M118.76,-355.06C111.1,-346.13 102.86,-336.54 95.77,-328.29"/>
<polygon fill="#63b8ff" stroke="#63b8ff" points="116.02,-357.23 125.19,-362.54 121.33,-352.67 116.02,-357.23"/>
</a>
</g>
</g>
<!-- Node11&#45;&gt;Node3 -->
<g id="edge14_Node000011_Node000003" class="edge">
<title>Node11&#45;&gt;Node3</title>
<g id="a_edge14_Node000011_Node000003"><a xlink:title=" ">
<path fill="none" stroke="#63b8ff" d="M717.04,-352.52C722.04,-332.58 725.85,-306.6 720.48,-284 709.15,-236.33 678.46,-186.41 662.1,-162.1"/>
<polygon fill="#63b8ff" stroke="#63b8ff" points="713.7,-351.47 714.43,-362.04 720.45,-353.33 713.7,-351.47"/>
</a>
</g>
</g>
<!-- Node11&#45;&gt;Node12 -->
<g id="edge15_Node000011_Node000012" class="edge">
<title>Node11&#45;&gt;Node12</title>
<g id="a_edge15_Node000011_Node000012"><a xlink:title=" ">
<path fill="none" stroke="#63b8ff" d="M756.97,-357.59C769.33,-349.24 781.77,-339.26 791.48,-328 812.03,-304.19 825.79,-270.07 833.13,-248.22"/>
<polygon fill="#63b8ff" stroke="#63b8ff" points="755.37,-354.46 748.86,-362.82 759.16,-360.34 755.37,-354.46"/>
</a>
</g>
</g>
<!-- Node11&#45;&gt;Node14 -->
<g id="edge18_Node000011_Node000014" class="edge">
<title>Node11&#45;&gt;Node14</title>
<g id="a_edge18_Node000011_Node000014"><a xlink:title=" ">
<path fill="none" stroke="#63b8ff" d="M684.19,-354.5C677.79,-345.74 670.94,-336.37 665.04,-328.29"/>
<polygon fill="#63b8ff" stroke="#63b8ff" points="681.29,-356.46 690.01,-362.46 686.94,-352.33 681.29,-356.46"/>
</a>
</g>
</g>
<!-- Node11&#45;&gt;Node18 -->
<g id="edge27_Node000011_Node000018" class="edge">
<title>Node11&#45;&gt;Node18</title>
<g id="a_edge27_Node000011_Node000018"><a xlink:title=" ">
<path fill="none" stroke="#63b8ff" d="M638.86,-359.64C611.92,-349.54 581.25,-338.04 555.47,-328.37"/>
<polygon fill="#63b8ff" stroke="#63b8ff" points="637.36,-362.82 647.95,-363.05 639.82,-356.26 637.36,-362.82"/>
</a>
</g>
</g>
<!-- Node12&#45;&gt;Node3 -->
<g id="edge16_Node000012_Node000003" class="edge">
<title>Node12&#45;&gt;Node3</title>
<g id="a_edge16_Node000012_Node000003"><a xlink:title=" ">
<path fill="none" stroke="#63b8ff" d="M777.54,-199.3C748.19,-187.12 714.1,-172.98 688.78,-162.47"/>
<polygon fill="#63b8ff" stroke="#63b8ff" points="776.13,-202.51 786.71,-203.11 778.82,-196.04 776.13,-202.51"/>
</a>
</g>
</g>
<!-- Node12&#45;&gt;Node13 -->
<g id="edge17_Node000012_Node000013" class="edge">
<title>Node12&#45;&gt;Node13</title>
<g id="a_edge17_Node000012_Node000013"><a xlink:title=" ">
<path fill="none" stroke="#63b8ff" d="M864.05,-195.06C871.37,-186.13 879.24,-176.54 886.01,-168.29"/>
<polygon fill="#63b8ff" stroke="#63b8ff" points="861.57,-192.57 857.93,-202.52 866.98,-197.01 861.57,-192.57"/>
</a>
</g>
</g>
<!-- Node14&#45;&gt;Node3 -->
<g id="edge19_Node000014_Node000003" class="edge">
<title>Node14&#45;&gt;Node3</title>
<g id="a_edge19_Node000014_Node000003"><a xlink:title=" ">
<path fill="none" stroke="#63b8ff" d="M652.85,-272.19C653.53,-264.27 654.14,-255.84 654.48,-248 655.81,-217.68 653.97,-182.22 652.64,-162.4"/>
<polygon fill="#63b8ff" stroke="#63b8ff" points="649.37,-271.86 651.94,-282.14 656.34,-272.5 649.37,-271.86"/>
</a>
</g>
</g>
<!-- Node14&#45;&gt;Node12 -->
<g id="edge23_Node000014_Node000012" class="edge">
<title>Node14&#45;&gt;Node12</title>
<g id="a_edge23_Node000014_Node000012"><a xlink:title=" ">
<path fill="none" stroke="#63b8ff" d="M712.23,-279.24C736.61,-269.23 764.19,-257.91 787.43,-248.37"/>
<polygon fill="#63b8ff" stroke="#63b8ff" points="710.97,-275.97 703.05,-283.01 713.63,-282.45 710.97,-275.97"/>
</a>
</g>
</g>
<!-- Node14&#45;&gt;Node13 -->
<g id="edge25_Node000014_Node000013" class="edge">
<title>Node14&#45;&gt;Node13</title>
<g id="a_edge25_Node000014_Node000013"><a xlink:title=" ">
<path fill="none" stroke="#63b8ff" d="M678.54,-275.91C701.5,-254.07 735.13,-224.53 768.48,-204 793.72,-188.47 823.95,-175.27 849.4,-165.49"/>
<polygon fill="#63b8ff" stroke="#63b8ff" points="676.15,-273.35 671.38,-282.81 681.01,-278.39 676.15,-273.35"/>
</a>
</g>
</g>
<!-- Node15 -->
<g id="Node000015" class="node">
<title>Node15</title>
<g id="a_Node000015"><a xlink:href="render__pass_8h.html" target="_top" xlink:title=" ">
<polygon fill="white" stroke="#666666" points="645.86,-248 521.11,-248 521.11,-204 645.86,-204 645.86,-248"/>
<text text-anchor="start" x="529.11" y="-234.5" font-family="Helvetica,sans-Serif" font-size="10.00">hybrid&#45;renderer&#45;lib</text>
<text text-anchor="start" x="529.11" y="-222.5" font-family="Helvetica,sans-Serif" font-size="10.00">/include/renderer_internal</text>
<text text-anchor="middle" x="583.48" y="-210.5" font-family="Helvetica,sans-Serif" font-size="10.00">/render_pass.h</text>
</a>
</g>
</g>
<!-- Node14&#45;&gt;Node15 -->
<g id="edge20_Node000014_Node000015" class="edge">
<title>Node14&#45;&gt;Node15</title>
<g id="a_edge20_Node000014_Node000015"><a xlink:title=" ">
<path fill="none" stroke="#63b8ff" d="M624.15,-275.06C616.6,-266.13 608.48,-256.54 601.49,-248.29"/>
<polygon fill="#63b8ff" stroke="#63b8ff" points="621.34,-277.16 630.47,-282.53 626.68,-272.64 621.34,-277.16"/>
</a>
</g>
</g>
<!-- Node16 -->
<g id="Node000016" class="node">
<title>Node16</title>
<g id="a_Node000016"><a xlink:href="render__pass_8cpp.html" target="_top" xlink:title=" ">
<polygon fill="white" stroke="#666666" points="558.23,-168 450.73,-168 450.73,-124 558.23,-124 558.23,-168"/>
<text text-anchor="start" x="458.73" y="-154.5" font-family="Helvetica,sans-Serif" font-size="10.00">hybrid&#45;renderer&#45;lib</text>
<text text-anchor="start" x="458.73" y="-142.5" font-family="Helvetica,sans-Serif" font-size="10.00">/src/renderer_internal</text>
<text text-anchor="middle" x="504.48" y="-130.5" font-family="Helvetica,sans-Serif" font-size="10.00">/render_pass.cpp</text>
</a>
</g>
</g>
<!-- Node14&#45;&gt;Node16 -->
<g id="edge24_Node000014_Node000016" class="edge">
<title>Node14&#45;&gt;Node16</title>
<g id="a_edge24_Node000014_Node000016"><a xlink:title=" ">
<path fill="none" stroke="#63b8ff" d="M576.04,-282.19C548.1,-271.98 520.93,-259.65 512.48,-248 495.64,-224.8 497,-190.19 500.21,-168.12"/>
<polygon fill="#63b8ff" stroke="#63b8ff" points="574.73,-285.44 585.32,-285.49 577.07,-278.84 574.73,-285.44"/>
</a>
</g>
</g>
<!-- Node14&#45;&gt;Node17 -->
<g id="edge26_Node000014_Node000017" class="edge">
<title>Node14&#45;&gt;Node17</title>
<g id="a_edge26_Node000014_Node000017"><a xlink:title=" ">
<path fill="none" stroke="#63b8ff" d="M575.99,-281.6C539.07,-269.85 495.03,-255.83 460.82,-244.94"/>
<polygon fill="#63b8ff" stroke="#63b8ff" points="574.67,-284.86 585.26,-284.56 576.8,-278.19 574.67,-284.86"/>
</a>
</g>
</g>
<!-- Node15&#45;&gt;Node3 -->
<g id="edge21_Node000015_Node000003" class="edge">
<title>Node15&#45;&gt;Node3</title>
<g id="a_edge21_Node000015_Node000003"><a xlink:title=" ">
<path fill="none" stroke="#63b8ff" d="M609.37,-195.31C619.25,-183.97 630.1,-171.53 638.31,-162.11"/>
<polygon fill="#63b8ff" stroke="#63b8ff" points="606.99,-192.71 603.06,-202.55 612.27,-197.31 606.99,-192.71"/>
</a>
</g>
</g>
<!-- Node15&#45;&gt;Node16 -->
<g id="edge22_Node000015_Node000016" class="edge">
<title>Node15&#45;&gt;Node16</title>
<g id="a_edge22_Node000015_Node000016"><a xlink:title=" ">
<path fill="none" stroke="#63b8ff" d="M553.72,-195.62C544.52,-186.53 534.57,-176.71 526.04,-168.29"/>
<polygon fill="#63b8ff" stroke="#63b8ff" points="551.24,-198.09 560.82,-202.62 556.16,-193.11 551.24,-198.09"/>
</a>
</g>
</g>
<!-- Node19&#45;&gt;Node3 -->
<g id="edge29_Node000019_Node000003" class="edge">
<title>Node19&#45;&gt;Node3</title>
<g id="a_edge29_Node000019_Node000003"><a xlink:title=" ">
<path fill="none" stroke="#63b8ff" d="M257.76,-354.93C251.52,-346.82 245.82,-337.61 242.48,-328 236.07,-309.53 234.14,-301.69 242.48,-284 266.31,-233.45 288.53,-226.95 339.48,-204 433.02,-161.88 466.95,-188.46 567.48,-168 575.58,-166.35 584.08,-164.44 592.43,-162.46"/>
<polygon fill="#63b8ff" stroke="#63b8ff" points="254.9,-356.96 263.98,-362.42 260.28,-352.49 254.9,-356.96"/>
</a>
</g>
</g>
<!-- Node19&#45;&gt;Node15 -->
<g id="edge30_Node000019_Node000015" class="edge">
<title>Node19&#45;&gt;Node15</title>
<g id="a_edge30_Node000019_Node000015"><a xlink:title=" ">
<path fill="none" stroke="#63b8ff" d="M263.42,-354.35C249.45,-332.62 237.63,-303.9 254.48,-284 285.78,-247.03 421.77,-256.39 469.48,-248 486.13,-245.07 504.13,-241.81 520.8,-238.74"/>
<polygon fill="#63b8ff" stroke="#63b8ff" points="260.49,-356.27 269.03,-362.53 266.26,-352.31 260.49,-356.27"/>
</a>
</g>
</g>
<!-- Node19&#45;&gt;Node20 -->
<g id="edge31_Node000019_Node000020" class="edge">
<title>Node19&#45;&gt;Node20</title>
<g id="a_edge31_Node000019_Node000020"><a xlink:title=" ">
<path fill="none" stroke="#63b8ff" d="M299.75,-353.1C302.96,-344.74 306.35,-335.94 309.29,-328.29"/>
<polygon fill="#63b8ff" stroke="#63b8ff" points="296.55,-351.68 296.22,-362.27 303.08,-354.2 296.55,-351.68"/>
</a>
</g>
</g>
<!-- Node21&#45;&gt;Node3 -->
<g id="edge33_Node000021_Node000003" class="edge">
<title>Node21&#45;&gt;Node3</title>
<g id="a_edge33_Node000021_Node000003"><a xlink:title=" ">
<path fill="none" stroke="#63b8ff" d="M925.34,-352.8C935.35,-313.07 944.94,-245.67 910.48,-204 886.09,-174.5 784.15,-159.28 715.67,-152.23"/>
<polygon fill="#63b8ff" stroke="#63b8ff" points="922.02,-351.68 922.81,-362.24 928.78,-353.49 922.02,-351.68"/>
</a>
</g>
</g>
<!-- Node21&#45;&gt;Node12 -->
<g id="edge35_Node000021_Node000012" class="edge">
<title>Node21&#45;&gt;Node12</title>
<g id="a_edge35_Node000021_Node000012"><a xlink:title=" ">
<path fill="none" stroke="#63b8ff" d="M900.55,-353.32C891.13,-333.39 878.67,-307.16 867.48,-284 861.77,-272.19 855.32,-259.04 850.05,-248.35"/>
<polygon fill="#63b8ff" stroke="#63b8ff" points="897.37,-354.77 904.8,-362.31 903.7,-351.78 897.37,-354.77"/>
</a>
</g>
</g>
<!-- Node21&#45;&gt;Node13 -->
<g id="edge37_Node000021_Node000013" class="edge">
<title>Node21&#45;&gt;Node13</title>
<g id="a_edge37_Node000021_Node000013"><a xlink:title=" ">
<path fill="none" stroke="#63b8ff" d="M934.06,-353.6C937.94,-345.52 941.47,-336.66 943.48,-328 955.95,-274.32 960.08,-256.55 943.48,-204 939.37,-190.97 931.09,-178.34 923.13,-168.29"/>
<polygon fill="#63b8ff" stroke="#63b8ff" points="931.03,-351.85 929.54,-362.34 937.25,-355.06 931.03,-351.85"/>
</a>
</g>
</g>
<!-- Node21&#45;&gt;Node15 -->
<g id="edge34_Node000021_Node000015" class="edge">
<title>Node21&#45;&gt;Node15</title>
<g id="a_edge34_Node000021_Node000015"><a xlink:title=" ">
<path fill="none" stroke="#63b8ff" d="M866.32,-358.09C827.23,-337.04 770.92,-307.51 720.48,-284 693.63,-271.49 663.25,-258.71 637.94,-248.44"/>
<polygon fill="#63b8ff" stroke="#63b8ff" points="864.58,-361.12 875.04,-362.8 867.91,-354.96 864.58,-361.12"/>
</a>
</g>
</g>
<!-- Node21&#45;&gt;Node22 -->
<g id="edge36_Node000021_Node000022" class="edge">
<title>Node21&#45;&gt;Node22</title>
<g id="a_edge36_Node000021_Node000022"><a xlink:title=" ">
<path fill="none" stroke="#63b8ff" d="M972.96,-358.93C994.81,-349.02 1019.44,-337.86 1040.24,-328.42"/>
<polygon fill="#63b8ff" stroke="#63b8ff" points="971.52,-355.74 963.86,-363.06 974.41,-362.12 971.52,-355.74"/>
</a>
</g>
</g>
</g>
</svg>
