<?xml version="1.0" encoding="UTF-8" standalone="no"?>
<!DOCTYPE svg PUBLIC "-//W3C//DTD SVG 1.1//EN"
 "http://www.w3.org/Graphics/SVG/1.1/DTD/svg11.dtd">
<!-- Generated by graphviz version 10.0.1 (20240210.2158)
 -->
<!-- Title: demo/include/demo.h Pages: 1 -->
<svg width="696pt" height="320pt"
 viewBox="0.00 0.00 695.62 320.00" xmlns="http://www.w3.org/2000/svg" xmlns:xlink="http://www.w3.org/1999/xlink">
<g id="graph0" class="graph" transform="scale(1 1) rotate(0) translate(4 316)">
<title>demo/include/demo.h</title>
<!-- Node1 -->
<g id="Node000001" class="node">
<title>Node1</title>
<g id="a_Node000001"><a xlink:title=" ">
<polygon fill="#999999" stroke="#666666" points="253.5,-312 144.5,-312 144.5,-292 253.5,-292 253.5,-312"/>
<text text-anchor="middle" x="199" y="-298.5" font-family="Helvetica,sans-Serif" font-size="10.00">demo/include/demo.h</text>
</a>
</g>
</g>
<!-- Node2 -->
<g id="Node000002" class="node">
<title>Node2</title>
<g id="a_Node000002"><a xlink:href="raytracing_8h.html" target="_top" xlink:title=" ">
<polygon fill="white" stroke="#666666" points="333,-256 233,-256 233,-224 333,-224 333,-256"/>
<text text-anchor="start" x="241" y="-242.5" font-family="Helvetica,sans-Serif" font-size="10.00">demo/include/detail</text>
<text text-anchor="middle" x="283" y="-230.5" font-family="Helvetica,sans-Serif" font-size="10.00">/raytracing.h</text>
</a>
</g>
</g>
<!-- Node1&#45;&gt;Node2 -->
<g id="edge1_Node000001_Node000002" class="edge">
<title>Node1&#45;&gt;Node2</title>
<g id="a_edge1_Node000001_Node000002"><a xlink:title=" ">
<path fill="none" stroke="#63b8ff" d="M221.34,-285.04C233.78,-276.16 249.18,-265.16 261.48,-256.37"/>
<polygon fill="#63b8ff" stroke="#63b8ff" points="219.46,-282.08 213.36,-290.75 223.53,-287.78 219.46,-282.08"/>
</a>
</g>
</g>
<!-- Node4 -->
<g id="Node000004" class="node">
<title>Node4</title>
<g id="a_Node000004"><a xlink:href="main_8cpp.html" target="_top" xlink:title=" ">
<polygon fill="white" stroke="#666666" points="142.62,-20 43.38,-20 43.38,0 142.62,0 142.62,-20"/>
<text text-anchor="middle" x="93" y="-6.5" font-family="Helvetica,sans-Serif" font-size="10.00">demo/src/main.cpp</text>
</a>
</g>
</g>
<!-- Node1&#45;&gt;Node4 -->
<g id="edge18_Node000001_Node000004" class="edge">
<title>Node1&#45;&gt;Node4</title>
<g id="a_edge18_Node000001_Node000004"><a xlink:title=" ">
<path fill="none" stroke="#63b8ff" d="M133.13,-289.02C75.19,-274.24 0,-242.77 0,-179 0,-179 0,-179 0,-121 0,-74.24 49.62,-37.1 76.37,-20.47"/>
<polygon fill="#63b8ff" stroke="#63b8ff" points="132.08,-292.37 142.62,-291.32 133.73,-285.57 132.08,-292.37"/>
</a>
</g>
</g>
<!-- Node9 -->
<g id="Node000009" class="node">
<title>Node9</title>
<g id="a_Node000009"><a xlink:href="scene_8cpp.html" target="_top" xlink:title=" ">
<polygon fill="white" stroke="#666666" points="170.25,-132 65.75,-132 65.75,-112 170.25,-112 170.25,-132"/>
<text text-anchor="middle" x="118" y="-118.5" font-family="Helvetica,sans-Serif" font-size="10.00">demo/src/scene.cpp</text>
</a>
</g>
</g>
<!-- Node1&#45;&gt;Node9 -->
<g id="edge19_Node000001_Node000009" class="edge">
<title>Node1&#45;&gt;Node9</title>
<g id="a_edge19_Node000001_Node000009"><a xlink:title=" ">
<path fill="none" stroke="#63b8ff" d="M186.15,-282.47C171.61,-260.74 148.13,-223.2 134,-188 126.29,-168.8 121.57,-144.88 119.4,-132.08"/>
<polygon fill="#63b8ff" stroke="#63b8ff" points="183.12,-284.23 191.64,-290.53 188.91,-280.3 183.12,-284.23"/>
</a>
</g>
</g>
<!-- Node10 -->
<g id="Node000010" class="node">
<title>Node10</title>
<g id="a_Node000010"><a xlink:href="raytracing_8cpp.html" target="_top" xlink:title=" ">
<polygon fill="white" stroke="#666666" points="687.62,-188 540.38,-188 540.38,-168 687.62,-168 687.62,-188"/>
<text text-anchor="middle" x="614" y="-174.5" font-family="Helvetica,sans-Serif" font-size="10.00">demo/src/detail/raytracing.cpp</text>
</a>
</g>
</g>
<!-- Node1&#45;&gt;Node10 -->
<g id="edge17_Node000001_Node000010" class="edge">
<title>Node1&#45;&gt;Node10</title>
<g id="a_edge17_Node000001_Node000010"><a xlink:title=" ">
<path fill="none" stroke="#63b8ff" d="M242.09,-288.33C325.61,-263.78 507.81,-210.22 581.8,-188.47"/>
<polygon fill="#63b8ff" stroke="#63b8ff" points="241.28,-284.92 232.67,-291.1 243.25,-291.64 241.28,-284.92"/>
</a>
</g>
</g>
<!-- Node3 -->
<g id="Node000003" class="node">
<title>Node3</title>
<g id="a_Node000003"><a xlink:href="renderer_8h.html" target="_top" xlink:title=" ">
<polygon fill="white" stroke="#666666" points="296.12,-76 175.88,-76 175.88,-56 296.12,-56 296.12,-76"/>
<text text-anchor="middle" x="236" y="-62.5" font-family="Helvetica,sans-Serif" font-size="10.00">demo/include/renderer.h</text>
</a>
</g>
</g>
<!-- Node2&#45;&gt;Node3 -->
<g id="edge2_Node000002_Node000003" class="edge">
<title>Node2&#45;&gt;Node3</title>
<g id="a_edge2_Node000002_Node000003"><a xlink:title=" ">
<path fill="none" stroke="#63b8ff" d="M276.08,-212.9C272.5,-199.48 268.05,-182.85 264,-168 254.82,-134.29 243.66,-94.33 238.65,-76.46"/>
<polygon fill="#63b8ff" stroke="#63b8ff" points="272.62,-213.53 278.57,-222.29 279.39,-211.73 272.62,-213.53"/>
</a>
</g>
</g>
<!-- Node2&#45;&gt;Node4 -->
<g id="edge15_Node000002_Node000004" class="edge">
<title>Node2&#45;&gt;Node4</title>
<g id="a_edge15_Node000002_Node000004"><a xlink:title=" ">
<path fill="none" stroke="#63b8ff" d="M221.56,-230.61C165.86,-219.2 87.92,-192.71 57,-132 37.11,-92.94 70.27,-41.06 85.73,-20.23"/>
<polygon fill="#63b8ff" stroke="#63b8ff" points="220.76,-234.02 231.24,-232.47 222.08,-227.14 220.76,-234.02"/>
</a>
</g>
</g>
<!-- Node5 -->
<g id="Node000005" class="node">
<title>Node5</title>
<g id="a_Node000005"><a xlink:href="renderer_8cpp.html" target="_top" xlink:title=" ">
<polygon fill="white" stroke="#666666" points="530.75,-20 417.25,-20 417.25,0 530.75,0 530.75,-20"/>
<text text-anchor="middle" x="474" y="-6.5" font-family="Helvetica,sans-Serif" font-size="10.00">demo/src/renderer.cpp</text>
</a>
</g>
</g>
<!-- Node2&#45;&gt;Node5 -->
<g id="edge16_Node000002_Node000005" class="edge">
<title>Node2&#45;&gt;Node5</title>
<g id="a_edge16_Node000002_Node000005"><a xlink:title=" ">
<path fill="none" stroke="#63b8ff" d="M335.76,-219.18C374.95,-201.86 426.8,-173.03 458,-132 483.91,-97.93 478.89,-42.29 475.62,-20.33"/>
<polygon fill="#63b8ff" stroke="#63b8ff" points="334.53,-215.9 326.72,-223.06 337.29,-222.33 334.53,-215.9"/>
</a>
</g>
</g>
<!-- Node6 -->
<g id="Node000006" class="node">
<title>Node6</title>
<g id="a_Node000006"><a xlink:href="scene_8h.html" target="_top" xlink:title=" ">
<polygon fill="white" stroke="#666666" points="254.62,-188 143.38,-188 143.38,-168 254.62,-168 254.62,-188"/>
<text text-anchor="middle" x="199" y="-174.5" font-family="Helvetica,sans-Serif" font-size="10.00">demo/include/scene.h</text>
</a>
</g>
</g>
<!-- Node2&#45;&gt;Node6 -->
<g id="edge5_Node000002_Node000006" class="edge">
<title>Node2&#45;&gt;Node6</title>
<g id="a_edge5_Node000002_Node000006"><a xlink:title=" ">
<path fill="none" stroke="#63b8ff" d="M252.18,-216.99C238.39,-207.14 222.87,-196.05 212.17,-188.41"/>
<polygon fill="#63b8ff" stroke="#63b8ff" points="249.96,-219.7 260.14,-222.67 254.03,-214.01 249.96,-219.7"/>
</a>
</g>
</g>
<!-- Node7 -->
<g id="Node000007" class="node">
<title>Node7</title>
<g id="a_Node000007"><a xlink:href="subsystems_8h.html" target="_top" xlink:title=" ">
<polygon fill="white" stroke="#666666" points="449.12,-132 310.88,-132 310.88,-112 449.12,-112 449.12,-132"/>
<text text-anchor="middle" x="380" y="-118.5" font-family="Helvetica,sans-Serif" font-size="10.00">demo/include/subsystems.h</text>
</a>
</g>
</g>
<!-- Node2&#45;&gt;Node7 -->
<g id="edge13_Node000002_Node000007" class="edge">
<title>Node2&#45;&gt;Node7</title>
<g id="a_edge13_Node000002_Node000007"><a xlink:title=" ">
<path fill="none" stroke="#63b8ff" d="M302.98,-215.11C324.35,-189.55 357.17,-150.3 372.11,-132.44"/>
<polygon fill="#63b8ff" stroke="#63b8ff" points="300.38,-212.76 296.65,-222.67 305.75,-217.25 300.38,-212.76"/>
</a>
</g>
</g>
<!-- Node2&#45;&gt;Node10 -->
<g id="edge14_Node000002_Node000010" class="edge">
<title>Node2&#45;&gt;Node10</title>
<g id="a_edge14_Node000002_Node000010"><a xlink:title=" ">
<path fill="none" stroke="#63b8ff" d="M344.53,-227.85C406.99,-216.52 502.66,-199.18 561.61,-188.5"/>
<polygon fill="#63b8ff" stroke="#63b8ff" points="343.98,-224.39 334.76,-229.62 345.22,-231.28 343.98,-224.39"/>
</a>
</g>
</g>
<!-- Node3&#45;&gt;Node4 -->
<g id="edge3_Node000003_Node000004" class="edge">
<title>Node3&#45;&gt;Node4</title>
<g id="a_edge3_Node000003_Node000004"><a xlink:title=" ">
<path fill="none" stroke="#63b8ff" d="M200.34,-51.53C174.74,-41.87 140.89,-29.08 118.1,-20.48"/>
<polygon fill="#63b8ff" stroke="#63b8ff" points="199.08,-54.8 209.68,-55.06 201.56,-48.25 199.08,-54.8"/>
</a>
</g>
</g>
<!-- Node3&#45;&gt;Node5 -->
<g id="edge4_Node000003_Node000005" class="edge">
<title>Node3&#45;&gt;Node5</title>
<g id="a_edge4_Node000003_Node000005"><a xlink:title=" ">
<path fill="none" stroke="#63b8ff" d="M288.89,-53C332.13,-43.19 392.44,-29.51 432.32,-20.46"/>
<polygon fill="#63b8ff" stroke="#63b8ff" points="288.18,-49.57 279.2,-55.2 289.73,-56.4 288.18,-49.57"/>
</a>
</g>
</g>
<!-- Node6&#45;&gt;Node3 -->
<g id="edge6_Node000006_Node000003" class="edge">
<title>Node6&#45;&gt;Node3</title>
<g id="a_edge6_Node000006_Node000003"><a xlink:title=" ">
<path fill="none" stroke="#63b8ff" d="M205.74,-156.97C213.78,-133.07 226.88,-94.11 232.85,-76.35"/>
<polygon fill="#63b8ff" stroke="#63b8ff" points="202.51,-155.59 202.64,-166.19 209.14,-157.82 202.51,-155.59"/>
</a>
</g>
</g>
<!-- Node6&#45;&gt;Node4 -->
<g id="edge11_Node000006_Node000004" class="edge">
<title>Node6&#45;&gt;Node4</title>
<g id="a_edge11_Node000006_Node000004"><a xlink:title=" ">
<path fill="none" stroke="#63b8ff" d="M194.95,-156.5C191.8,-143.26 186.66,-125.96 179,-112 158.06,-73.84 121.16,-36.98 103.29,-20.29"/>
<polygon fill="#63b8ff" stroke="#63b8ff" points="191.52,-157.19 197.06,-166.23 198.36,-155.71 191.52,-157.19"/>
</a>
</g>
</g>
<!-- Node6&#45;&gt;Node7 -->
<g id="edge7_Node000006_Node000007" class="edge">
<title>Node6&#45;&gt;Node7</title>
<g id="a_edge7_Node000006_Node000007"><a xlink:title=" ">
<path fill="none" stroke="#63b8ff" d="M241.55,-164.31C274.22,-154.56 318.61,-141.32 348.23,-132.48"/>
<polygon fill="#63b8ff" stroke="#63b8ff" points="240.56,-160.95 231.98,-167.16 242.56,-167.66 240.56,-160.95"/>
</a>
</g>
</g>
<!-- Node6&#45;&gt;Node9 -->
<g id="edge12_Node000006_Node000009" class="edge">
<title>Node6&#45;&gt;Node9</title>
<g id="a_edge12_Node000006_Node000009"><a xlink:title=" ">
<path fill="none" stroke="#63b8ff" d="M175.41,-161.27C161.41,-151.94 144.14,-140.43 132.22,-132.48"/>
<polygon fill="#63b8ff" stroke="#63b8ff" points="173.37,-164.12 183.63,-166.75 177.25,-158.3 173.37,-164.12"/>
</a>
</g>
</g>
<!-- Node7&#45;&gt;Node3 -->
<g id="edge8_Node000007_Node000003" class="edge">
<title>Node7&#45;&gt;Node3</title>
<g id="a_edge8_Node000007_Node000003"><a xlink:title=" ">
<path fill="none" stroke="#63b8ff" d="M344.43,-107.66C318.62,-97.98 284.33,-85.12 261.28,-76.48"/>
<polygon fill="#63b8ff" stroke="#63b8ff" points="342.91,-110.83 353.5,-111.06 345.37,-104.27 342.91,-110.83"/>
</a>
</g>
</g>
<!-- Node7&#45;&gt;Node5 -->
<g id="edge9_Node000007_Node000005" class="edge">
<title>Node7&#45;&gt;Node5</title>
<g id="a_edge9_Node000007_Node000005"><a xlink:title=" ">
<path fill="none" stroke="#63b8ff" d="M415.31,-106.74C429.44,-99.43 444.77,-89.25 455,-76 467.93,-59.25 472.07,-33.92 473.39,-20.36"/>
<polygon fill="#63b8ff" stroke="#63b8ff" points="414.17,-103.4 406.68,-110.89 417.2,-109.71 414.17,-103.4"/>
</a>
</g>
</g>
<!-- Node8 -->
<g id="Node000008" class="node">
<title>Node8</title>
<g id="a_Node000008"><a xlink:href="subsystems_8cpp.html" target="_top" xlink:title=" ">
<polygon fill="white" stroke="#666666" points="445.75,-76 314.25,-76 314.25,-56 445.75,-56 445.75,-76"/>
<text text-anchor="middle" x="380" y="-62.5" font-family="Helvetica,sans-Serif" font-size="10.00">demo/src/subsystems.cpp</text>
</a>
</g>
</g>
<!-- Node7&#45;&gt;Node8 -->
<g id="edge10_Node000007_Node000008" class="edge">
<title>Node7&#45;&gt;Node8</title>
<g id="a_edge10_Node000007_Node000008"><a xlink:title=" ">
<path fill="none" stroke="#63b8ff" d="M380,-100.13C380,-91.9 380,-82.85 380,-76.3"/>
<polygon fill="#63b8ff" stroke="#63b8ff" points="376.5,-100.08 380,-110.08 383.5,-100.08 376.5,-100.08"/>
</a>
</g>
</g>
</g>
</svg>
