<?xml version="1.0" encoding="UTF-8" standalone="no"?>
<!DOCTYPE svg PUBLIC "-//W3C//DTD SVG 1.1//EN"
 "http://www.w3.org/Graphics/SVG/1.1/DTD/svg11.dtd">
<!-- Generated by graphviz version 10.0.1 (20240210.2158)
 -->
<!-- Title: demo/include/demo.h Pages: 1 -->
<svg width="1382pt" height="412pt"
 viewBox="0.00 0.00 1382.45 412.00" xmlns="http://www.w3.org/2000/svg" xmlns:xlink="http://www.w3.org/1999/xlink">
<g id="graph0" class="graph" transform="scale(1 1) rotate(0) translate(4 408)">
<title>demo/include/demo.h</title>
<!-- Node1 -->
<g id="Node000001" class="node">
<title>Node1</title>
<g id="a_Node000001"><a xlink:title=" ">
<polygon fill="#999999" stroke="#666666" points="163.62,-404 54.62,-404 54.62,-384 163.62,-384 163.62,-404"/>
<text text-anchor="middle" x="109.12" y="-390.5" font-family="Helvetica,sans-Serif" font-size="10.00">demo/include/demo.h</text>
</a>
</g>
</g>
<!-- Node2 -->
<g id="Node000002" class="node">
<title>Node2</title>
<g id="a_Node000002"><a xlink:title=" ">
<polygon fill="#e0e0e0" stroke="#999999" points="48.25,-348 0,-348 0,-328 48.25,-328 48.25,-348"/>
<text text-anchor="middle" x="24.12" y="-334.5" font-family="Helvetica,sans-Serif" font-size="10.00">cassert</text>
</a>
</g>
</g>
<!-- Node1&#45;&gt;Node2 -->
<g id="edge1_Node000001_Node000002" class="edge">
<title>Node1&#45;&gt;Node2</title>
<g id="a_edge1_Node000001_Node000002"><a xlink:title=" ">
<path fill="none" stroke="#63b8ff" d="M94.32,-383.59C81.72,-375.59 63.37,-363.93 48.59,-354.54"/>
<polygon fill="#63b8ff" stroke="#63b8ff" points="50.64,-351.7 40.32,-349.29 46.89,-357.61 50.64,-351.7"/>
</a>
</g>
</g>
<!-- Node3 -->
<g id="Node000003" class="node">
<title>Node3</title>
<g id="a_Node000003"><a xlink:title=" ">
<polygon fill="#e0e0e0" stroke="#999999" points="136.75,-150 91.5,-150 91.5,-130 136.75,-130 136.75,-150"/>
<text text-anchor="middle" x="114.12" y="-136.5" font-family="Helvetica,sans-Serif" font-size="10.00">cstdint</text>
</a>
</g>
</g>
<!-- Node1&#45;&gt;Node3 -->
<g id="edge2_Node000001_Node000003" class="edge">
<title>Node1&#45;&gt;Node3</title>
<g id="a_edge2_Node000001_Node000003"><a xlink:title=" ">
<path fill="none" stroke="#63b8ff" d="M105.26,-383.54C101.82,-374.57 97.04,-360.62 95.12,-348 84.75,-279.72 100.5,-197.85 109.12,-160.86"/>
<polygon fill="#63b8ff" stroke="#63b8ff" points="112.41,-162.14 111.36,-151.6 105.61,-160.49 112.41,-162.14"/>
</a>
</g>
</g>
<!-- Node4 -->
<g id="Node000004" class="node">
<title>Node4</title>
<g id="a_Node000004"><a xlink:title=" ">
<polygon fill="#e0e0e0" stroke="#999999" points="181.88,-348 104.38,-348 104.38,-328 181.88,-328 181.88,-348"/>
<text text-anchor="middle" x="143.12" y="-334.5" font-family="Helvetica,sans-Serif" font-size="10.00">GLFW/glfw3.h</text>
</a>
</g>
</g>
<!-- Node1&#45;&gt;Node4 -->
<g id="edge3_Node000001_Node000004" class="edge">
<title>Node1&#45;&gt;Node4</title>
<g id="a_edge3_Node000001_Node000004"><a xlink:title=" ">
<path fill="none" stroke="#63b8ff" d="M115.05,-383.59C119.48,-376.55 125.7,-366.67 131.16,-358"/>
<polygon fill="#63b8ff" stroke="#63b8ff" points="134.1,-359.91 136.46,-349.58 128.17,-356.18 134.1,-359.91"/>
</a>
</g>
</g>
<!-- Node5 -->
<g id="Node000005" class="node">
<title>Node5</title>
<g id="a_Node000005"><a xlink:href="hybrid__renderer_8h.html" target="_top" xlink:title=" ">
<polygon fill="white" stroke="#666666" points="538.62,-348 447.62,-348 447.62,-328 538.62,-328 538.62,-348"/>
<text text-anchor="middle" x="493.12" y="-334.5" font-family="Helvetica,sans-Serif" font-size="10.00">hybrid_renderer.h</text>
</a>
</g>
</g>
<!-- Node1&#45;&gt;Node5 -->
<g id="edge4_Node000001_Node000005" class="edge">
<title>Node1&#45;&gt;Node5</title>
<g id="a_edge4_Node000001_Node000005"><a xlink:title=" ">
<path fill="none" stroke="#63b8ff" d="M163.74,-385.32C235.97,-375.16 362.68,-357.34 436.1,-347.02"/>
<polygon fill="#63b8ff" stroke="#63b8ff" points="436.49,-350.5 445.91,-345.64 435.52,-343.57 436.49,-350.5"/>
</a>
</g>
</g>
<!-- Node6 -->
<g id="Node000006" class="node">
<title>Node6</title>
<g id="a_Node000006"><a xlink:href="platform_8h.html" target="_top" xlink:title=" ">
<polygon fill="white" stroke="#666666" points="385.5,-20 326.75,-20 326.75,0 385.5,0 385.5,-20"/>
<text text-anchor="middle" x="356.12" y="-6.5" font-family="Helvetica,sans-Serif" font-size="10.00">platform.h</text>
</a>
</g>
</g>
<!-- Node5&#45;&gt;Node6 -->
<g id="edge5_Node000005_Node000006" class="edge">
<title>Node5&#45;&gt;Node6</title>
<g id="a_edge5_Node000005_Node000006"><a xlink:title=" ">
<path fill="none" stroke="#63b8ff" d="M447.16,-334.89C381.81,-330.92 266.65,-320.05 237.12,-292 209.69,-265.93 218.12,-246.84 218.12,-209 218.12,-209 218.12,-209 218.12,-139 218.12,-101.06 213.06,-84.49 238.12,-56 257.65,-33.8 289.35,-22.5 314.98,-16.78"/>
<polygon fill="#63b8ff" stroke="#63b8ff" points="315.65,-20.21 324.77,-14.82 314.28,-13.35 315.65,-20.21"/>
</a>
</g>
</g>
<!-- Node7 -->
<g id="Node000007" class="node">
<title>Node7</title>
<g id="a_Node000007"><a xlink:href="camera_8h.html" target="_top" xlink:title=" ">
<polygon fill="white" stroke="#666666" points="302.38,-286 245.88,-286 245.88,-266 302.38,-266 302.38,-286"/>
<text text-anchor="middle" x="274.12" y="-272.5" font-family="Helvetica,sans-Serif" font-size="10.00">camera.h</text>
</a>
</g>
</g>
<!-- Node5&#45;&gt;Node7 -->
<g id="edge6_Node000005_Node000007" class="edge">
<title>Node5&#45;&gt;Node7</title>
<g id="a_edge6_Node000005_Node000007"><a xlink:title=" ">
<path fill="none" stroke="#63b8ff" d="M451.33,-327.55C415.27,-319.11 361.92,-305.97 316.12,-292 314.16,-291.4 312.14,-290.76 310.11,-290.1"/>
<polygon fill="#63b8ff" stroke="#63b8ff" points="311.34,-286.82 300.75,-286.92 309.09,-293.45 311.34,-286.82"/>
</a>
</g>
</g>
<!-- Node8 -->
<g id="Node000008" class="node">
<title>Node8</title>
<g id="a_Node000008"><a xlink:href="hri__math_8h.html" target="_top" xlink:title=" ">
<polygon fill="white" stroke="#666666" points="326,-150 264.25,-150 264.25,-130 326,-130 326,-150"/>
<text text-anchor="middle" x="295.12" y="-136.5" font-family="Helvetica,sans-Serif" font-size="10.00">hri_math.h</text>
</a>
</g>
</g>
<!-- Node5&#45;&gt;Node8 -->
<g id="edge10_Node000005_Node000008" class="edge">
<title>Node5&#45;&gt;Node8</title>
<g id="a_edge10_Node000005_Node000008"><a xlink:title=" ">
<path fill="none" stroke="#63b8ff" d="M447.2,-329.04C419.85,-322.56 385.62,-311.23 360.12,-292 330.79,-269.88 327.74,-257.71 313.12,-224 304.34,-203.74 299.67,-178.79 297.31,-161.56"/>
<polygon fill="#63b8ff" stroke="#63b8ff" points="300.81,-161.33 296.13,-151.83 293.86,-162.18 300.81,-161.33"/>
</a>
</g>
</g>
<!-- Node10 -->
<g id="Node000010" class="node">
<title>Node10</title>
<g id="a_Node000010"><a xlink:href="material_8h.html" target="_top" xlink:title=" ">
<polygon fill="white" stroke="#666666" points="447.5,-218 388.75,-218 388.75,-198 447.5,-198 447.5,-218"/>
<text text-anchor="middle" x="418.12" y="-204.5" font-family="Helvetica,sans-Serif" font-size="10.00">material.h</text>
</a>
</g>
</g>
<!-- Node5&#45;&gt;Node10 -->
<g id="edge11_Node000005_Node000010" class="edge">
<title>Node5&#45;&gt;Node10</title>
<g id="a_edge11_Node000005_Node000010"><a xlink:title=" ">
<path fill="none" stroke="#63b8ff" d="M489.16,-327.73C482.73,-312.99 469.3,-283.48 455.12,-260 448.33,-248.74 439.75,-236.81 432.57,-227.32"/>
<polygon fill="#63b8ff" stroke="#63b8ff" points="435.53,-225.42 426.65,-219.64 429.99,-229.7 435.53,-225.42"/>
</a>
</g>
</g>
<!-- Node11 -->
<g id="Node000011" class="node">
<title>Node11</title>
<g id="a_Node000011"><a xlink:href="mesh_8h.html" target="_top" xlink:title=" ">
<polygon fill="white" stroke="#666666" points="370.25,-218 322,-218 322,-198 370.25,-198 370.25,-218"/>
<text text-anchor="middle" x="346.12" y="-204.5" font-family="Helvetica,sans-Serif" font-size="10.00">mesh.h</text>
</a>
</g>
</g>
<!-- Node5&#45;&gt;Node11 -->
<g id="edge14_Node000005_Node000011" class="edge">
<title>Node5&#45;&gt;Node11</title>
<g id="a_edge14_Node000005_Node000011"><a xlink:title=" ">
<path fill="none" stroke="#63b8ff" d="M453.57,-327.52C431.82,-320.64 405.59,-309.43 387.12,-292 368.9,-274.79 357.67,-247.75 351.67,-229.24"/>
<polygon fill="#63b8ff" stroke="#63b8ff" points="355.04,-228.29 348.83,-219.71 348.33,-230.29 355.04,-228.29"/>
</a>
</g>
</g>
<!-- Node13 -->
<g id="Node000013" class="node">
<title>Node13</title>
<g id="a_Node000013"><a xlink:href="scene_8h.html" target="_top" xlink:title=" ">
<polygon fill="white" stroke="#666666" points="446.38,-286 395.88,-286 395.88,-266 446.38,-266 446.38,-286"/>
<text text-anchor="middle" x="421.12" y="-272.5" font-family="Helvetica,sans-Serif" font-size="10.00">scene.h</text>
</a>
</g>
</g>
<!-- Node5&#45;&gt;Node13 -->
<g id="edge18_Node000005_Node000013" class="edge">
<title>Node5&#45;&gt;Node13</title>
<g id="a_edge18_Node000005_Node000013"><a xlink:title=" ">
<path fill="none" stroke="#63b8ff" d="M481.88,-327.62C470.93,-318.5 454.06,-304.45 440.87,-293.46"/>
<polygon fill="#63b8ff" stroke="#63b8ff" points="443.15,-290.79 433.22,-287.08 438.66,-296.17 443.15,-290.79"/>
</a>
</g>
</g>
<!-- Node14 -->
<g id="Node000014" class="node">
<title>Node14</title>
<g id="a_Node000014"><a xlink:href="texture_8h.html" target="_top" xlink:title=" ">
<polygon fill="white" stroke="#666666" points="190.25,-286 136,-286 136,-266 190.25,-266 190.25,-286"/>
<text text-anchor="middle" x="163.12" y="-272.5" font-family="Helvetica,sans-Serif" font-size="10.00">texture.h</text>
</a>
</g>
</g>
<!-- Node5&#45;&gt;Node14 -->
<g id="edge22_Node000005_Node000014" class="edge">
<title>Node5&#45;&gt;Node14</title>
<g id="a_edge22_Node000005_Node000014"><a xlink:title=" ">
<path fill="none" stroke="#63b8ff" d="M447.26,-332.67C389.79,-326.6 288.57,-313.8 204.12,-292 201.83,-291.41 199.49,-290.74 197.14,-290.02"/>
<polygon fill="#63b8ff" stroke="#63b8ff" points="198.32,-286.72 187.73,-286.85 196.09,-293.36 198.32,-286.72"/>
</a>
</g>
</g>
<!-- Node16 -->
<g id="Node000016" class="node">
<title>Node16</title>
<g id="a_Node000016"><a xlink:href="buffer_8h.html" target="_top" xlink:title=" ">
<polygon fill="white" stroke="#666666" points="998.38,-150 875.88,-150 875.88,-130 998.38,-130 998.38,-150"/>
<text text-anchor="middle" x="937.12" y="-136.5" font-family="Helvetica,sans-Serif" font-size="10.00">renderer_internal/buffer.h</text>
</a>
</g>
</g>
<!-- Node5&#45;&gt;Node16 -->
<g id="edge25_Node000005_Node000016" class="edge">
<title>Node5&#45;&gt;Node16</title>
<g id="a_edge25_Node000005_Node000016"><a xlink:title=" ">
<path fill="none" stroke="#63b8ff" d="M538.99,-333.76C611.73,-328.03 749.77,-314.51 793.12,-292 854.04,-260.36 903.68,-192.83 925.35,-159.87"/>
<polygon fill="#63b8ff" stroke="#63b8ff" points="928.11,-162.06 930.57,-151.75 922.22,-158.27 928.11,-162.06"/>
</a>
</g>
</g>
<!-- Node19 -->
<g id="Node000019" class="node">
<title>Node19</title>
<g id="a_Node000019"><a xlink:href="render__context_8h.html" target="_top" xlink:title=" ">
<polygon fill="white" stroke="#666666" points="774.12,-88 656.12,-88 656.12,-56 774.12,-56 774.12,-88"/>
<text text-anchor="start" x="664.12" y="-74.5" font-family="Helvetica,sans-Serif" font-size="10.00">renderer_internal/render</text>
<text text-anchor="middle" x="715.12" y="-62.5" font-family="Helvetica,sans-Serif" font-size="10.00">_context.h</text>
</a>
</g>
</g>
<!-- Node5&#45;&gt;Node19 -->
<g id="edge43_Node000005_Node000019" class="edge">
<title>Node5&#45;&gt;Node19</title>
<g id="a_edge43_Node000005_Node000019"><a xlink:title=" ">
<path fill="none" stroke="#63b8ff" d="M501.03,-327.6C532.27,-290.45 647.77,-153.1 694.9,-97.05"/>
<polygon fill="#63b8ff" stroke="#63b8ff" points="697.38,-99.54 701.13,-89.64 692.02,-95.04 697.38,-99.54"/>
</a>
</g>
</g>
<!-- Node23 -->
<g id="Node000023" class="node">
<title>Node23</title>
<g id="a_Node000023"><a xlink:href="descriptor__management_8h.html" target="_top" xlink:title=" ">
<polygon fill="white" stroke="#666666" points="1360,-156 1226.25,-156 1226.25,-124 1360,-124 1360,-156"/>
<text text-anchor="start" x="1234.25" y="-142.5" font-family="Helvetica,sans-Serif" font-size="10.00">renderer_internal/descriptor</text>
<text text-anchor="middle" x="1293.12" y="-130.5" font-family="Helvetica,sans-Serif" font-size="10.00">_management.h</text>
</a>
</g>
</g>
<!-- Node5&#45;&gt;Node23 -->
<g id="edge35_Node000005_Node000023" class="edge">
<title>Node5&#45;&gt;Node23</title>
<g id="a_edge35_Node000005_Node000023"><a xlink:title=" ">
<path fill="none" stroke="#63b8ff" d="M539.04,-336.54C687.11,-334.71 1145.66,-326.3 1202.12,-292 1248.42,-263.87 1274.2,-202.46 1285.7,-167.23"/>
<polygon fill="#63b8ff" stroke="#63b8ff" points="1289,-168.41 1288.62,-157.82 1282.31,-166.34 1289,-168.41"/>
</a>
</g>
</g>
<!-- Node25 -->
<g id="Node000025" class="node">
<title>Node25</title>
<g id="a_Node000025"><a xlink:href="image_8h.html" target="_top" xlink:title=" ">
<polygon fill="white" stroke="#666666" points="857.88,-150 732.38,-150 732.38,-130 857.88,-130 857.88,-150"/>
<text text-anchor="middle" x="795.12" y="-136.5" font-family="Helvetica,sans-Serif" font-size="10.00">renderer_internal/image.h</text>
</a>
</g>
</g>
<!-- Node5&#45;&gt;Node25 -->
<g id="edge39_Node000005_Node000025" class="edge">
<title>Node5&#45;&gt;Node25</title>
<g id="a_edge39_Node000005_Node000025"><a xlink:title=" ">
<path fill="none" stroke="#63b8ff" d="M539.1,-335.77C609.05,-332.91 737.44,-323.4 769.12,-292 803.98,-257.45 802.1,-194.26 798.33,-161.67"/>
<polygon fill="#63b8ff" stroke="#63b8ff" points="801.82,-161.38 797.01,-151.94 794.89,-162.32 801.82,-161.38"/>
</a>
</g>
</g>
<!-- Node26 -->
<g id="Node000026" class="node">
<title>Node26</title>
<g id="a_Node000026"><a xlink:href="render__core_8h.html" target="_top" xlink:title=" ">
<polygon fill="white" stroke="#666666" points="562.12,-156 444.12,-156 444.12,-124 562.12,-124 562.12,-156"/>
<text text-anchor="start" x="452.12" y="-142.5" font-family="Helvetica,sans-Serif" font-size="10.00">renderer_internal/render</text>
<text text-anchor="middle" x="503.12" y="-130.5" font-family="Helvetica,sans-Serif" font-size="10.00">_core.h</text>
</a>
</g>
</g>
<!-- Node5&#45;&gt;Node26 -->
<g id="edge44_Node000005_Node000026" class="edge">
<title>Node5&#45;&gt;Node26</title>
<g id="a_edge44_Node000005_Node000026"><a xlink:title=" ">
<path fill="none" stroke="#63b8ff" d="M493.61,-327.55C495.07,-298.82 499.51,-211.81 501.77,-167.52"/>
<polygon fill="#63b8ff" stroke="#63b8ff" points="505.26,-167.92 502.27,-157.76 498.26,-167.56 505.26,-167.92"/>
</a>
</g>
</g>
<!-- Node27 -->
<g id="Node000027" class="node">
<title>Node27</title>
<g id="a_Node000027"><a xlink:href="render__pass_8h.html" target="_top" xlink:title=" ">
<polygon fill="white" stroke="#666666" points="760.12,-292 642.12,-292 642.12,-260 760.12,-260 760.12,-292"/>
<text text-anchor="start" x="650.12" y="-278.5" font-family="Helvetica,sans-Serif" font-size="10.00">renderer_internal/render</text>
<text text-anchor="middle" x="701.12" y="-266.5" font-family="Helvetica,sans-Serif" font-size="10.00">_pass.h</text>
</a>
</g>
</g>
<!-- Node5&#45;&gt;Node27 -->
<g id="edge49_Node000005_Node000027" class="edge">
<title>Node5&#45;&gt;Node27</title>
<g id="a_edge49_Node000005_Node000027"><a xlink:title=" ">
<path fill="none" stroke="#63b8ff" d="M525.62,-327.62C555.26,-319.08 599.92,-306.19 636.76,-295.57"/>
<polygon fill="#63b8ff" stroke="#63b8ff" points="637.33,-299.04 645.97,-292.91 635.39,-292.32 637.33,-299.04"/>
</a>
</g>
</g>
<!-- Node29 -->
<g id="Node000029" class="node">
<title>Node29</title>
<g id="a_Node000029"><a xlink:href="shader__database_8h.html" target="_top" xlink:title=" ">
<polygon fill="white" stroke="#666666" points="1122.25,-224 1002,-224 1002,-192 1122.25,-192 1122.25,-224"/>
<text text-anchor="start" x="1010" y="-210.5" font-family="Helvetica,sans-Serif" font-size="10.00">renderer_internal/shader</text>
<text text-anchor="middle" x="1062.12" y="-198.5" font-family="Helvetica,sans-Serif" font-size="10.00">_database.h</text>
</a>
</g>
</g>
<!-- Node5&#45;&gt;Node29 -->
<g id="edge71_Node000005_Node000029" class="edge">
<title>Node5&#45;&gt;Node29</title>
<g id="a_edge71_Node000005_Node000029"><a xlink:title=" ">
<path fill="none" stroke="#63b8ff" d="M538.88,-336.52C643.7,-334.83 898.07,-327.1 975.12,-292 1003.53,-279.06 1028.44,-252.92 1044.24,-233.41"/>
<polygon fill="#63b8ff" stroke="#63b8ff" points="1046.9,-235.68 1050.31,-225.65 1041.39,-231.37 1046.9,-235.68"/>
</a>
</g>
</g>
<!-- Node31 -->
<g id="Node000031" class="node">
<title>Node31</title>
<g id="a_Node000031"><a xlink:href="render__system_8h.html" target="_top" xlink:title=" ">
<polygon fill="white" stroke="#666666" points="1193.12,-292 1075.12,-292 1075.12,-260 1193.12,-260 1193.12,-292"/>
<text text-anchor="start" x="1083.12" y="-278.5" font-family="Helvetica,sans-Serif" font-size="10.00">renderer_internal/render</text>
<text text-anchor="middle" x="1134.12" y="-266.5" font-family="Helvetica,sans-Serif" font-size="10.00">_system.h</text>
</a>
</g>
</g>
<!-- Node5&#45;&gt;Node31 -->
<g id="edge63_Node000005_Node000031" class="edge">
<title>Node5&#45;&gt;Node31</title>
<g id="a_edge63_Node000005_Node000031"><a xlink:title=" ">
<path fill="none" stroke="#63b8ff" d="M539.06,-334.59C633.89,-329.32 858.12,-315.34 1045.12,-292 1051.15,-291.25 1057.39,-290.38 1063.64,-289.45"/>
<polygon fill="#63b8ff" stroke="#63b8ff" points="1064.02,-292.93 1073.37,-287.95 1062.95,-286.01 1064.02,-292.93"/>
</a>
</g>
</g>
<!-- Node7&#45;&gt;Node8 -->
<g id="edge7_Node000007_Node000008" class="edge">
<title>Node7&#45;&gt;Node8</title>
<g id="a_edge7_Node000007_Node000008"><a xlink:title=" ">
<path fill="none" stroke="#63b8ff" d="M274.15,-265.71C274.34,-250.28 275.34,-218.44 280.12,-192 282,-181.64 285.18,-170.4 288.13,-161.1"/>
<polygon fill="#63b8ff" stroke="#63b8ff" points="291.43,-162.28 291.27,-151.69 284.79,-160.07 291.43,-162.28"/>
</a>
</g>
</g>
<!-- Node8&#45;&gt;Node6 -->
<g id="edge9_Node000008_Node000006" class="edge">
<title>Node8&#45;&gt;Node6</title>
<g id="a_edge9_Node000008_Node000006"><a xlink:title=" ">
<path fill="none" stroke="#63b8ff" d="M299.51,-129.79C309.36,-109.14 333.39,-58.71 346.76,-30.65"/>
<polygon fill="#63b8ff" stroke="#63b8ff" points="349.82,-32.37 350.96,-21.83 343.5,-29.36 349.82,-32.37"/>
</a>
</g>
</g>
<!-- Node9 -->
<g id="Node000009" class="node">
<title>Node9</title>
<g id="a_Node000009"><a xlink:title=" ">
<polygon fill="#e0e0e0" stroke="#999999" points="289.62,-82 246.62,-82 246.62,-62 289.62,-62 289.62,-82"/>
<text text-anchor="middle" x="268.12" y="-68.5" font-family="Helvetica,sans-Serif" font-size="10.00">cmath</text>
</a>
</g>
</g>
<!-- Node8&#45;&gt;Node9 -->
<g id="edge8_Node000008_Node000009" class="edge">
<title>Node8&#45;&gt;Node9</title>
<g id="a_edge8_Node000008_Node000009"><a xlink:title=" ">
<path fill="none" stroke="#63b8ff" d="M291.26,-129.54C287.37,-120.04 281.25,-105.09 276.29,-92.95"/>
<polygon fill="#63b8ff" stroke="#63b8ff" points="279.59,-91.77 272.56,-83.84 273.11,-94.42 279.59,-91.77"/>
</a>
</g>
</g>
<!-- Node10&#45;&gt;Node6 -->
<g id="edge12_Node000010_Node000006" class="edge">
<title>Node10&#45;&gt;Node6</title>
<g id="a_edge12_Node000010_Node000006"><a xlink:title=" ">
<path fill="none" stroke="#63b8ff" d="M407.29,-197.66C397.16,-188.25 382.51,-172.74 375.12,-156 356.91,-114.7 354.83,-60.84 355.26,-31.78"/>
<polygon fill="#63b8ff" stroke="#63b8ff" points="358.76,-31.91 355.54,-21.81 351.76,-31.71 358.76,-31.91"/>
</a>
</g>
</g>
<!-- Node10&#45;&gt;Node8 -->
<g id="edge13_Node000010_Node000008" class="edge">
<title>Node10&#45;&gt;Node8</title>
<g id="a_edge13_Node000010_Node000008"><a xlink:title=" ">
<path fill="none" stroke="#63b8ff" d="M400.5,-197.54C380.13,-186.61 346.37,-168.5 322.56,-155.72"/>
<polygon fill="#63b8ff" stroke="#63b8ff" points="324.52,-152.8 314.05,-151.15 321.21,-158.97 324.52,-152.8"/>
</a>
</g>
</g>
<!-- Node11&#45;&gt;Node3 -->
<g id="edge15_Node000011_Node000003" class="edge">
<title>Node11&#45;&gt;Node3</title>
<g id="a_edge15_Node000011_Node000003"><a xlink:title=" ">
<path fill="none" stroke="#63b8ff" d="M321.74,-200.06C280.14,-188.23 195.41,-164.12 148.06,-150.65"/>
<polygon fill="#63b8ff" stroke="#63b8ff" points="149.19,-147.34 138.61,-147.97 147.27,-154.07 149.19,-147.34"/>
</a>
</g>
</g>
<!-- Node11&#45;&gt;Node8 -->
<g id="edge17_Node000011_Node000008" class="edge">
<title>Node11&#45;&gt;Node8</title>
<g id="a_edge17_Node000011_Node000008"><a xlink:title=" ">
<path fill="none" stroke="#63b8ff" d="M338.82,-197.54C331.17,-187.64 318.96,-171.84 309.39,-159.46"/>
<polygon fill="#63b8ff" stroke="#63b8ff" points="312.23,-157.41 303.34,-151.64 306.69,-161.69 312.23,-157.41"/>
</a>
</g>
</g>
<!-- Node12 -->
<g id="Node000012" class="node">
<title>Node12</title>
<g id="a_Node000012"><a xlink:title=" ">
<polygon fill="#e0e0e0" stroke="#999999" points="425.88,-150 384.38,-150 384.38,-130 425.88,-130 425.88,-150"/>
<text text-anchor="middle" x="405.12" y="-136.5" font-family="Helvetica,sans-Serif" font-size="10.00">vector</text>
</a>
</g>
</g>
<!-- Node11&#45;&gt;Node12 -->
<g id="edge16_Node000011_Node000012" class="edge">
<title>Node11&#45;&gt;Node12</title>
<g id="a_edge16_Node000011_Node000012"><a xlink:title=" ">
<path fill="none" stroke="#63b8ff" d="M354.58,-197.54C363.6,-187.45 378.11,-171.22 389.28,-158.73"/>
<polygon fill="#63b8ff" stroke="#63b8ff" points="391.62,-161.36 395.68,-151.57 386.4,-156.69 391.62,-161.36"/>
</a>
</g>
</g>
<!-- Node13&#45;&gt;Node10 -->
<g id="edge20_Node000013_Node000010" class="edge">
<title>Node13&#45;&gt;Node10</title>
<g id="a_edge20_Node000013_Node000010"><a xlink:title=" ">
<path fill="none" stroke="#63b8ff" d="M420.7,-265.54C420.27,-256.23 419.61,-241.7 419.07,-229.7"/>
<polygon fill="#63b8ff" stroke="#63b8ff" points="422.57,-229.78 418.62,-219.95 415.58,-230.1 422.57,-229.78"/>
</a>
</g>
</g>
<!-- Node13&#45;&gt;Node11 -->
<g id="edge21_Node000013_Node000011" class="edge">
<title>Node13&#45;&gt;Node11</title>
<g id="a_edge21_Node000013_Node000011"><a xlink:title=" ">
<path fill="none" stroke="#63b8ff" d="M410.38,-265.54C398.68,-255.25 379.74,-238.58 365.45,-226.01"/>
<polygon fill="#63b8ff" stroke="#63b8ff" points="367.81,-223.42 357.99,-219.44 363.18,-228.67 367.81,-223.42"/>
</a>
</g>
</g>
<!-- Node13&#45;&gt;Node12 -->
<g id="edge19_Node000013_Node000012" class="edge">
<title>Node13&#45;&gt;Node12</title>
<g id="a_edge19_Node000013_Node000012"><a xlink:title=" ">
<path fill="none" stroke="#63b8ff" d="M430.05,-265.79C438.64,-256.23 451.04,-240.41 456.12,-224 460.34,-210.42 461.57,-205.14 456.12,-192 450.42,-178.22 438.98,-166.22 428.38,-157.33"/>
<polygon fill="#63b8ff" stroke="#63b8ff" points="430.68,-154.68 420.64,-151.28 426.37,-160.2 430.68,-154.68"/>
</a>
</g>
</g>
<!-- Node14&#45;&gt;Node3 -->
<g id="edge24_Node000014_Node000003" class="edge">
<title>Node14&#45;&gt;Node3</title>
<g id="a_edge24_Node000014_Node000003"><a xlink:title=" ">
<path fill="none" stroke="#63b8ff" d="M156.45,-265.68C149.65,-255.78 139.27,-239.46 133.12,-224 124.99,-203.54 119.89,-178.79 117.05,-161.67"/>
<polygon fill="#63b8ff" stroke="#63b8ff" points="120.54,-161.34 115.56,-151.99 113.62,-162.4 120.54,-161.34"/>
</a>
</g>
</g>
<!-- Node15 -->
<g id="Node000015" class="node">
<title>Node15</title>
<g id="a_Node000015"><a xlink:title=" ">
<polygon fill="#e0e0e0" stroke="#999999" points="189.88,-218 142.38,-218 142.38,-198 189.88,-198 189.88,-218"/>
<text text-anchor="middle" x="166.12" y="-204.5" font-family="Helvetica,sans-Serif" font-size="10.00">cstddef</text>
</a>
</g>
</g>
<!-- Node14&#45;&gt;Node15 -->
<g id="edge23_Node000014_Node000015" class="edge">
<title>Node14&#45;&gt;Node15</title>
<g id="a_edge23_Node000014_Node000015"><a xlink:title=" ">
<path fill="none" stroke="#63b8ff" d="M163.55,-265.54C163.98,-256.23 164.64,-241.7 165.18,-229.7"/>
<polygon fill="#63b8ff" stroke="#63b8ff" points="168.67,-230.1 165.63,-219.95 161.68,-229.78 168.67,-230.1"/>
</a>
</g>
</g>
<!-- Node17 -->
<g id="Node000017" class="node">
<title>Node17</title>
<g id="a_Node000017"><a xlink:title=" ">
<polygon fill="#e0e0e0" stroke="#999999" points="845,-20 759.25,-20 759.25,0 845,0 845,-20"/>
<text text-anchor="middle" x="802.12" y="-6.5" font-family="Helvetica,sans-Serif" font-size="10.00">vk_mem_alloc.h</text>
</a>
</g>
</g>
<!-- Node16&#45;&gt;Node17 -->
<g id="edge26_Node000016_Node000017" class="edge">
<title>Node16&#45;&gt;Node17</title>
<g id="a_edge26_Node000016_Node000017"><a xlink:title=" ">
<path fill="none" stroke="#63b8ff" d="M927.42,-129.79C904.95,-108.5 849.11,-55.55 820.16,-28.1"/>
<polygon fill="#63b8ff" stroke="#63b8ff" points="822.87,-25.85 813.21,-21.51 818.06,-30.93 822.87,-25.85"/>
</a>
</g>
</g>
<!-- Node18 -->
<g id="Node000018" class="node">
<title>Node18</title>
<g id="a_Node000018"><a xlink:title=" ">
<polygon fill="#e0e0e0" stroke="#999999" points="1066.75,-20 985.5,-20 985.5,0 1066.75,0 1066.75,-20"/>
<text text-anchor="middle" x="1026.12" y="-6.5" font-family="Helvetica,sans-Serif" font-size="10.00">vulkan/vulkan.h</text>
</a>
</g>
</g>
<!-- Node16&#45;&gt;Node18 -->
<g id="edge27_Node000016_Node000018" class="edge">
<title>Node16&#45;&gt;Node18</title>
<g id="a_edge27_Node000016_Node000018"><a xlink:title=" ">
<path fill="none" stroke="#63b8ff" d="M943.53,-129.79C958.02,-108.95 993.57,-57.81 1012.98,-29.91"/>
<polygon fill="#63b8ff" stroke="#63b8ff" points="1015.84,-31.92 1018.68,-21.71 1010.1,-27.92 1015.84,-31.92"/>
</a>
</g>
</g>
<!-- Node16&#45;&gt;Node19 -->
<g id="edge28_Node000016_Node000019" class="edge">
<title>Node16&#45;&gt;Node19</title>
<g id="a_edge28_Node000016_Node000019"><a xlink:title=" ">
<path fill="none" stroke="#63b8ff" d="M905.32,-129.54C872.19,-119.7 819.43,-104.01 777.87,-91.65"/>
<polygon fill="#63b8ff" stroke="#63b8ff" points="779.05,-88.35 768.47,-88.86 777.06,-95.06 779.05,-88.35"/>
</a>
</g>
</g>
<!-- Node19&#45;&gt;Node6 -->
<g id="edge30_Node000019_Node000006" class="edge">
<title>Node19&#45;&gt;Node6</title>
<g id="a_edge30_Node000019_Node000006"><a xlink:title=" ">
<path fill="none" stroke="#63b8ff" d="M655.84,-61.09C582.72,-48.87 460.35,-28.42 396.96,-17.83"/>
<polygon fill="#63b8ff" stroke="#63b8ff" points="397.77,-14.41 387.33,-16.22 396.62,-21.32 397.77,-14.41"/>
</a>
</g>
</g>
<!-- Node19&#45;&gt;Node17 -->
<g id="edge33_Node000019_Node000017" class="edge">
<title>Node19&#45;&gt;Node17</title>
<g id="a_edge33_Node000019_Node000017"><a xlink:title=" ">
<path fill="none" stroke="#63b8ff" d="M737.53,-55.55C750.37,-46.69 766.44,-35.61 779.34,-26.71"/>
<polygon fill="#63b8ff" stroke="#63b8ff" points="780.99,-29.83 787.24,-21.27 777.02,-24.06 780.99,-29.83"/>
</a>
</g>
</g>
<!-- Node19&#45;&gt;Node18 -->
<g id="edge34_Node000019_Node000018" class="edge">
<title>Node19&#45;&gt;Node18</title>
<g id="a_edge34_Node000019_Node000018"><a xlink:title=" ">
<path fill="none" stroke="#63b8ff" d="M774.35,-59.57C832.11,-48.43 919.07,-31.65 974.19,-21.02"/>
<polygon fill="#63b8ff" stroke="#63b8ff" points="974.8,-24.47 983.96,-19.13 973.48,-17.59 974.8,-24.47"/>
</a>
</g>
</g>
<!-- Node20 -->
<g id="Node000020" class="node">
<title>Node20</title>
<g id="a_Node000020"><a xlink:href="config_8h.html" target="_top" xlink:title=" ">
<polygon fill="white" stroke="#666666" points="543,-20 493.25,-20 493.25,0 543,0 543,-20"/>
<text text-anchor="middle" x="518.12" y="-6.5" font-family="Helvetica,sans-Serif" font-size="10.00">config.h</text>
</a>
</g>
</g>
<!-- Node19&#45;&gt;Node20 -->
<g id="edge29_Node000019_Node000020" class="edge">
<title>Node19&#45;&gt;Node20</title>
<g id="a_edge29_Node000019_Node000020"><a xlink:title=" ">
<path fill="none" stroke="#63b8ff" d="M664.39,-55.55C629.87,-45.03 585.02,-31.37 554.13,-21.97"/>
<polygon fill="#63b8ff" stroke="#63b8ff" points="555.47,-18.71 544.88,-19.15 553.43,-25.41 555.47,-18.71"/>
</a>
</g>
</g>
<!-- Node21 -->
<g id="Node000021" class="node">
<title>Node21</title>
<g id="a_Node000021"><a xlink:title=" ">
<polygon fill="#e0e0e0" stroke="#999999" points="624.75,-20 567.5,-20 567.5,0 624.75,0 624.75,-20"/>
<text text-anchor="middle" x="596.12" y="-6.5" font-family="Helvetica,sans-Serif" font-size="10.00">functional</text>
</a>
</g>
</g>
<!-- Node19&#45;&gt;Node21 -->
<g id="edge31_Node000019_Node000021" class="edge">
<title>Node19&#45;&gt;Node21</title>
<g id="a_edge31_Node000019_Node000021"><a xlink:title=" ">
<path fill="none" stroke="#63b8ff" d="M684.48,-55.55C666.14,-46.3 642.99,-34.63 624.98,-25.55"/>
<polygon fill="#63b8ff" stroke="#63b8ff" points="626.64,-22.47 616.14,-21.09 623.49,-28.72 626.64,-22.47"/>
</a>
</g>
</g>
<!-- Node22 -->
<g id="Node000022" class="node">
<title>Node22</title>
<g id="a_Node000022"><a xlink:title=" ">
<polygon fill="#e0e0e0" stroke="#999999" points="741.25,-20 663,-20 663,0 741.25,0 741.25,-20"/>
<text text-anchor="middle" x="702.12" y="-6.5" font-family="Helvetica,sans-Serif" font-size="10.00">VkBootstrap.h</text>
</a>
</g>
</g>
<!-- Node19&#45;&gt;Node22 -->
<g id="edge32_Node000019_Node000022" class="edge">
<title>Node19&#45;&gt;Node22</title>
<g id="a_edge32_Node000019_Node000022"><a xlink:title=" ">
<path fill="none" stroke="#63b8ff" d="M711.78,-55.55C710.2,-48.26 708.29,-39.45 706.59,-31.6"/>
<polygon fill="#63b8ff" stroke="#63b8ff" points="710.02,-30.92 704.48,-21.89 703.18,-32.4 710.02,-30.92"/>
</a>
</g>
</g>
<!-- Node23&#45;&gt;Node18 -->
<g id="edge37_Node000023_Node000018" class="edge">
<title>Node23&#45;&gt;Node18</title>
<g id="a_edge37_Node000023_Node000018"><a xlink:title=" ">
<path fill="none" stroke="#63b8ff" d="M1282.41,-123.59C1268.44,-104.71 1242.22,-73.13 1212.12,-56 1170.69,-32.42 1117.27,-21.13 1078.31,-15.77"/>
<polygon fill="#63b8ff" stroke="#63b8ff" points="1078.84,-12.31 1068.47,-14.51 1077.95,-19.25 1078.84,-12.31"/>
</a>
</g>
</g>
<!-- Node23&#45;&gt;Node19 -->
<g id="edge38_Node000023_Node000019" class="edge">
<title>Node23&#45;&gt;Node19</title>
<g id="a_edge38_Node000023_Node000019"><a xlink:title=" ">
<path fill="none" stroke="#63b8ff" d="M1225.94,-129.92C1210.57,-127.91 1194.29,-125.83 1179.12,-124 1039.86,-107.19 876.79,-89.79 785.78,-80.29"/>
<polygon fill="#63b8ff" stroke="#63b8ff" points="786.31,-76.83 776.01,-79.27 785.59,-83.79 786.31,-76.83"/>
</a>
</g>
</g>
<!-- Node24 -->
<g id="Node000024" class="node">
<title>Node24</title>
<g id="a_Node000024"><a xlink:title=" ">
<polygon fill="#e0e0e0" stroke="#999999" points="1310.5,-82 1275.75,-82 1275.75,-62 1310.5,-62 1310.5,-82"/>
<text text-anchor="middle" x="1293.12" y="-68.5" font-family="Helvetica,sans-Serif" font-size="10.00">map</text>
</a>
</g>
</g>
<!-- Node23&#45;&gt;Node24 -->
<g id="edge36_Node000023_Node000024" class="edge">
<title>Node23&#45;&gt;Node24</title>
<g id="a_edge36_Node000023_Node000024"><a xlink:title=" ">
<path fill="none" stroke="#63b8ff" d="M1293.12,-123.69C1293.12,-114.8 1293.12,-103.46 1293.12,-93.77"/>
<polygon fill="#63b8ff" stroke="#63b8ff" points="1296.63,-93.83 1293.13,-83.83 1289.63,-93.83 1296.63,-93.83"/>
</a>
</g>
</g>
<!-- Node25&#45;&gt;Node17 -->
<g id="edge40_Node000025_Node000017" class="edge">
<title>Node25&#45;&gt;Node17</title>
<g id="a_edge40_Node000025_Node000017"><a xlink:title=" ">
<path fill="none" stroke="#63b8ff" d="M795.63,-129.79C796.74,-109.41 799.44,-60.05 800.99,-31.79"/>
<polygon fill="#63b8ff" stroke="#63b8ff" points="804.47,-32.15 801.52,-21.98 797.48,-31.77 804.47,-32.15"/>
</a>
</g>
</g>
<!-- Node25&#45;&gt;Node18 -->
<g id="edge41_Node000025_Node000018" class="edge">
<title>Node25&#45;&gt;Node18</title>
<g id="a_edge41_Node000025_Node000018"><a xlink:title=" ">
<path fill="none" stroke="#63b8ff" d="M812.11,-129.59C851.83,-107.58 951.02,-52.61 999.12,-25.96"/>
<polygon fill="#63b8ff" stroke="#63b8ff" points="1000.74,-29.07 1007.79,-21.16 997.35,-22.94 1000.74,-29.07"/>
</a>
</g>
</g>
<!-- Node25&#45;&gt;Node19 -->
<g id="edge42_Node000025_Node000019" class="edge">
<title>Node25&#45;&gt;Node19</title>
<g id="a_edge42_Node000025_Node000019"><a xlink:title=" ">
<path fill="none" stroke="#63b8ff" d="M783.66,-129.54C772.96,-120.71 756.57,-107.19 742.5,-95.58"/>
<polygon fill="#63b8ff" stroke="#63b8ff" points="744.78,-92.93 734.84,-89.26 740.33,-98.33 744.78,-92.93"/>
</a>
</g>
</g>
<!-- Node26&#45;&gt;Node6 -->
<g id="edge47_Node000026_Node000006" class="edge">
<title>Node26&#45;&gt;Node6</title>
<g id="a_edge47_Node000026_Node000006"><a xlink:title=" ">
<path fill="none" stroke="#63b8ff" d="M485.39,-123.56C457.56,-99.32 403.83,-52.54 375.19,-27.6"/>
<polygon fill="#63b8ff" stroke="#63b8ff" points="377.82,-25.25 367.98,-21.32 373.22,-30.53 377.82,-25.25"/>
</a>
</g>
</g>
<!-- Node26&#45;&gt;Node19 -->
<g id="edge48_Node000026_Node000019" class="edge">
<title>Node26&#45;&gt;Node19</title>
<g id="a_edge48_Node000026_Node000019"><a xlink:title=" ">
<path fill="none" stroke="#63b8ff" d="M552.83,-123.53C583.29,-114.04 622.48,-101.84 654.72,-91.81"/>
<polygon fill="#63b8ff" stroke="#63b8ff" points="655.41,-95.26 663.92,-88.94 653.33,-88.57 655.41,-95.26"/>
</a>
</g>
</g>
<!-- Node26&#45;&gt;Node20 -->
<g id="edge46_Node000026_Node000020" class="edge">
<title>Node26&#45;&gt;Node20</title>
<g id="a_edge46_Node000026_Node000020"><a xlink:title=" ">
<path fill="none" stroke="#63b8ff" d="M504.93,-123.56C507.63,-100.58 512.7,-57.34 515.7,-31.66"/>
<polygon fill="#63b8ff" stroke="#63b8ff" points="519.17,-32.17 516.86,-21.83 512.22,-31.35 519.17,-32.17"/>
</a>
</g>
</g>
<!-- Node26&#45;&gt;Node21 -->
<g id="edge45_Node000026_Node000021" class="edge">
<title>Node26&#45;&gt;Node21</title>
<g id="a_edge45_Node000026_Node000021"><a xlink:title=" ">
<path fill="none" stroke="#63b8ff" d="M514.34,-123.56C531.5,-99.95 564.19,-54.95 582.62,-29.59"/>
<polygon fill="#63b8ff" stroke="#63b8ff" points="585.41,-31.7 588.46,-21.55 579.75,-27.58 585.41,-31.7"/>
</a>
</g>
</g>
<!-- Node27&#45;&gt;Node12 -->
<g id="edge51_Node000027_Node000012" class="edge">
<title>Node27&#45;&gt;Node12</title>
<g id="a_edge51_Node000027_Node000012"><a xlink:title=" ">
<path fill="none" stroke="#63b8ff" d="M660.49,-259.55C635.4,-249.8 602.67,-236.7 574.12,-224 511.28,-196.06 496.77,-186.49 435.12,-156 434.78,-155.83 434.44,-155.66 434.09,-155.49"/>
<polygon fill="#63b8ff" stroke="#63b8ff" points="435.7,-152.38 425.19,-151.06 432.59,-158.65 435.7,-152.38"/>
</a>
</g>
</g>
<!-- Node27&#45;&gt;Node17 -->
<g id="edge52_Node000027_Node000017" class="edge">
<title>Node27&#45;&gt;Node17</title>
<g id="a_edge52_Node000027_Node000017"><a xlink:title=" ">
<path fill="none" stroke="#63b8ff" d="M707.46,-259.74C713.55,-242.89 720.92,-215.09 714.12,-192 706.37,-165.63 654.88,-114.37 647.12,-88 643.11,-74.36 638.58,-67.37 647.12,-56 653.52,-47.49 706.91,-33.23 749.27,-23.05"/>
<polygon fill="#63b8ff" stroke="#63b8ff" points="749.93,-26.49 758.85,-20.77 748.31,-19.68 749.93,-26.49"/>
</a>
</g>
</g>
<!-- Node27&#45;&gt;Node18 -->
<g id="edge53_Node000027_Node000018" class="edge">
<title>Node27&#45;&gt;Node18</title>
<g id="a_edge53_Node000027_Node000018"><a xlink:title=" ">
<path fill="none" stroke="#63b8ff" d="M760.34,-269.68C830.99,-259.95 947.06,-232.58 1007.12,-156 1035.5,-119.82 1033.24,-62.25 1029.48,-31.67"/>
<polygon fill="#63b8ff" stroke="#63b8ff" points="1032.96,-31.26 1028.08,-21.86 1026.03,-32.25 1032.96,-31.26"/>
</a>
</g>
</g>
<!-- Node27&#45;&gt;Node25 -->
<g id="edge54_Node000027_Node000025" class="edge">
<title>Node27&#45;&gt;Node25</title>
<g id="a_edge54_Node000027_Node000025"><a xlink:title=" ">
<path fill="none" stroke="#63b8ff" d="M716.53,-259.65C725.92,-249.89 737.86,-236.73 747.12,-224 762.15,-203.35 776.4,-177.65 785.42,-160.36"/>
<polygon fill="#63b8ff" stroke="#63b8ff" points="788.41,-162.2 789.85,-151.7 782.18,-159.01 788.41,-162.2"/>
</a>
</g>
</g>
<!-- Node27&#45;&gt;Node26 -->
<g id="edge55_Node000027_Node000026" class="edge">
<title>Node27&#45;&gt;Node26</title>
<g id="a_edge55_Node000027_Node000026"><a xlink:title=" ">
<path fill="none" stroke="#63b8ff" d="M678.41,-259.63C643.22,-235.81 575.4,-189.91 535.22,-162.72"/>
<polygon fill="#63b8ff" stroke="#63b8ff" points="537.37,-159.95 527.13,-157.25 533.45,-165.75 537.37,-159.95"/>
</a>
</g>
</g>
<!-- Node28 -->
<g id="Node000028" class="node">
<title>Node28</title>
<g id="a_Node000028"><a xlink:title=" ">
<polygon fill="#e0e0e0" stroke="#999999" points="705,-218 655.25,-218 655.25,-198 705,-198 705,-218"/>
<text text-anchor="middle" x="680.12" y="-204.5" font-family="Helvetica,sans-Serif" font-size="10.00">optional</text>
</a>
</g>
</g>
<!-- Node27&#45;&gt;Node28 -->
<g id="edge50_Node000027_Node000028" class="edge">
<title>Node27&#45;&gt;Node28</title>
<g id="a_edge50_Node000027_Node000028"><a xlink:title=" ">
<path fill="none" stroke="#63b8ff" d="M696.25,-259.69C693.36,-250.6 689.66,-238.95 686.53,-229.12"/>
<polygon fill="#63b8ff" stroke="#63b8ff" points="689.92,-228.23 683.55,-219.76 683.25,-230.35 689.92,-228.23"/>
</a>
</g>
</g>
<!-- Node27&#45;&gt;Node29 -->
<g id="edge56_Node000027_Node000029" class="edge">
<title>Node27&#45;&gt;Node29</title>
<g id="a_edge56_Node000027_Node000029"><a xlink:title=" ">
<path fill="none" stroke="#63b8ff" d="M760.33,-264.18C823.43,-252.64 923.33,-234.38 990.74,-222.05"/>
<polygon fill="#63b8ff" stroke="#63b8ff" points="990.98,-225.56 1000.19,-220.32 989.72,-218.68 990.98,-225.56"/>
</a>
</g>
</g>
<!-- Node29&#45;&gt;Node12 -->
<g id="edge59_Node000029_Node000012" class="edge">
<title>Node29&#45;&gt;Node12</title>
<g id="a_edge59_Node000029_Node000012"><a xlink:title=" ">
<path fill="none" stroke="#63b8ff" d="M1001.62,-205.01C865.86,-200.07 540.64,-185.48 435.12,-156 433.95,-155.67 432.76,-155.3 431.58,-154.88"/>
<polygon fill="#63b8ff" stroke="#63b8ff" points="433.14,-151.74 422.57,-151.03 430.38,-158.18 433.14,-151.74"/>
</a>
</g>
</g>
<!-- Node29&#45;&gt;Node18 -->
<g id="edge60_Node000029_Node000018" class="edge">
<title>Node29&#45;&gt;Node18</title>
<g id="a_edge60_Node000029_Node000018"><a xlink:title=" ">
<path fill="none" stroke="#63b8ff" d="M1060.71,-191.85C1057.99,-164.49 1051.26,-105.09 1040.12,-56 1038.25,-47.73 1035.59,-38.77 1033.1,-31.05"/>
<polygon fill="#63b8ff" stroke="#63b8ff" points="1036.44,-29.99 1029.93,-21.63 1029.8,-32.22 1036.44,-29.99"/>
</a>
</g>
</g>
<!-- Node29&#45;&gt;Node19 -->
<g id="edge61_Node000029_Node000019" class="edge">
<title>Node29&#45;&gt;Node19</title>
<g id="a_edge61_Node000029_Node000019"><a xlink:title=" ">
<path fill="none" stroke="#63b8ff" d="M1001.7,-199.85C906.82,-188.35 732.63,-166.03 723.12,-156 709.22,-141.33 708.1,-117.98 709.96,-99.78"/>
<polygon fill="#63b8ff" stroke="#63b8ff" points="713.42,-100.32 711.34,-89.93 706.48,-99.35 713.42,-100.32"/>
</a>
</g>
</g>
<!-- Node29&#45;&gt;Node23 -->
<g id="edge62_Node000029_Node000023" class="edge">
<title>Node29&#45;&gt;Node23</title>
<g id="a_edge62_Node000029_Node000023"><a xlink:title=" ">
<path fill="none" stroke="#63b8ff" d="M1116.28,-191.53C1149.76,-181.96 1192.92,-169.63 1228.22,-159.54"/>
<polygon fill="#63b8ff" stroke="#63b8ff" points="1228.8,-163.02 1237.45,-156.91 1226.87,-156.29 1228.8,-163.02"/>
</a>
</g>
</g>
<!-- Node29&#45;&gt;Node24 -->
<g id="edge58_Node000029_Node000024" class="edge">
<title>Node29&#45;&gt;Node24</title>
<g id="a_edge58_Node000029_Node000024"><a xlink:title=" ">
<path fill="none" stroke="#63b8ff" d="M1069.02,-191.77C1078.26,-173.07 1096.39,-141.68 1121.12,-124 1164.84,-92.76 1227.73,-80.46 1264.12,-75.77"/>
<polygon fill="#63b8ff" stroke="#63b8ff" points="1264.34,-79.26 1273.87,-74.62 1263.53,-72.31 1264.34,-79.26"/>
</a>
</g>
</g>
<!-- Node30 -->
<g id="Node000030" class="node">
<title>Node30</title>
<g id="a_Node000030"><a xlink:title=" ">
<polygon fill="#e0e0e0" stroke="#999999" points="1170.12,-150 1130.12,-150 1130.12,-130 1170.12,-130 1170.12,-150"/>
<text text-anchor="middle" x="1150.12" y="-136.5" font-family="Helvetica,sans-Serif" font-size="10.00">string</text>
</a>
</g>
</g>
<!-- Node29&#45;&gt;Node30 -->
<g id="edge57_Node000029_Node000030" class="edge">
<title>Node29&#45;&gt;Node30</title>
<g id="a_edge57_Node000029_Node000030"><a xlink:title=" ">
<path fill="none" stroke="#63b8ff" d="M1082.54,-191.69C1096.4,-181.3 1114.69,-167.57 1128.75,-157.03"/>
<polygon fill="#63b8ff" stroke="#63b8ff" points="1130.59,-160.02 1136.49,-151.22 1126.39,-154.42 1130.59,-160.02"/>
</a>
</g>
</g>
<!-- Node31&#45;&gt;Node18 -->
<g id="edge66_Node000031_Node000018" class="edge">
<title>Node31&#45;&gt;Node18</title>
<g id="a_edge66_Node000031_Node000018"><a xlink:title=" ">
<path fill="none" stroke="#63b8ff" d="M1145.91,-259.76C1166.03,-231.74 1202.66,-170.65 1179.12,-124 1154.48,-75.17 1097.67,-42.22 1060.64,-25.04"/>
<polygon fill="#63b8ff" stroke="#63b8ff" points="1062.24,-21.92 1051.68,-21.04 1059.38,-28.31 1062.24,-21.92"/>
</a>
</g>
</g>
<!-- Node31&#45;&gt;Node19 -->
<g id="edge68_Node000031_Node000019" class="edge">
<title>Node31&#45;&gt;Node19</title>
<g id="a_edge68_Node000031_Node000019"><a xlink:title=" ">
<path fill="none" stroke="#63b8ff" d="M1078.15,-259.59C962.08,-227.62 705.85,-156.95 705.12,-156 692.89,-139.91 696.93,-116.75 703.16,-98.99"/>
<polygon fill="#63b8ff" stroke="#63b8ff" points="706.33,-100.47 706.75,-89.89 699.82,-97.9 706.33,-100.47"/>
</a>
</g>
</g>
<!-- Node31&#45;&gt;Node23 -->
<g id="edge67_Node000031_Node000023" class="edge">
<title>Node31&#45;&gt;Node23</title>
<g id="a_edge67_Node000031_Node000023"><a xlink:title=" ">
<path fill="none" stroke="#63b8ff" d="M1160.77,-259.59C1176.33,-250.11 1196.01,-237.26 1212.12,-224 1234.24,-205.81 1256.78,-182.22 1272.45,-164.84"/>
<polygon fill="#63b8ff" stroke="#63b8ff" points="1274.94,-167.3 1278.97,-157.51 1269.71,-162.65 1274.94,-167.3"/>
</a>
</g>
</g>
<!-- Node31&#45;&gt;Node24 -->
<g id="edge65_Node000031_Node000024" class="edge">
<title>Node31&#45;&gt;Node24</title>
<g id="a_edge65_Node000031_Node000024"><a xlink:title=" ">
<path fill="none" stroke="#63b8ff" d="M1193.42,-263.63C1249.9,-249.28 1331.71,-218.48 1369.12,-156 1376.43,-143.8 1375.82,-136.55 1369.12,-124 1358.97,-104.96 1338.2,-91.77 1320.94,-83.58"/>
<polygon fill="#63b8ff" stroke="#63b8ff" points="1322.72,-80.54 1312.15,-79.72 1319.9,-86.95 1322.72,-80.54"/>
</a>
</g>
</g>
<!-- Node31&#45;&gt;Node26 -->
<g id="edge69_Node000031_Node000026" class="edge">
<title>Node31&#45;&gt;Node26</title>
<g id="a_edge69_Node000031_Node000026"><a xlink:title=" ">
<path fill="none" stroke="#63b8ff" d="M1074.76,-262.39C957.87,-237.57 698.41,-182.47 573.28,-155.9"/>
<polygon fill="#63b8ff" stroke="#63b8ff" points="574.32,-152.54 563.81,-153.89 572.86,-159.39 574.32,-152.54"/>
</a>
</g>
</g>
<!-- Node31&#45;&gt;Node29 -->
<g id="edge70_Node000031_Node000029" class="edge">
<title>Node31&#45;&gt;Node29</title>
<g id="a_edge70_Node000031_Node000029"><a xlink:title=" ">
<path fill="none" stroke="#63b8ff" d="M1117.43,-259.69C1108.43,-251.45 1097.15,-241.11 1087.13,-231.92"/>
<polygon fill="#63b8ff" stroke="#63b8ff" points="1089.59,-229.42 1079.85,-225.25 1084.86,-234.58 1089.59,-229.42"/>
</a>
</g>
</g>
<!-- Node31&#45;&gt;Node30 -->
<g id="edge64_Node000031_Node000030" class="edge">
<title>Node31&#45;&gt;Node30</title>
<g id="a_edge64_Node000031_Node000030"><a xlink:title=" ">
<path fill="none" stroke="#63b8ff" d="M1135.96,-259.63C1138.85,-235.42 1144.47,-188.38 1147.69,-161.37"/>
<polygon fill="#63b8ff" stroke="#63b8ff" points="1151.13,-162.07 1148.84,-151.73 1144.18,-161.24 1151.13,-162.07"/>
</a>
</g>
</g>
</g>
</svg>
