<?xml version="1.0" encoding="UTF-8" standalone="no"?>
<!DOCTYPE svg PUBLIC "-//W3C//DTD SVG 1.1//EN"
 "http://www.w3.org/Graphics/SVG/1.1/DTD/svg11.dtd">
<!-- Generated by graphviz version 10.0.1 (20240210.2158)
 -->
<!-- Title: demo/include/demo.h Pages: 1 -->
<svg width="1610pt" height="412pt"
 viewBox="0.00 0.00 1610.00 412.00" xmlns="http://www.w3.org/2000/svg" xmlns:xlink="http://www.w3.org/1999/xlink">
<g id="graph0" class="graph" transform="scale(1 1) rotate(0) translate(4 408)">
<title>demo/include/demo.h</title>
<!-- Node1 -->
<g id="Node000001" class="node">
<title>Node1</title>
<g id="a_Node000001"><a xlink:title=" ">
<polygon fill="#999999" stroke="#666666" points="163.62,-404 54.62,-404 54.62,-384 163.62,-384 163.62,-404"/>
<text text-anchor="middle" x="109.12" y="-390.5" font-family="Helvetica,sans-Serif" font-size="10.00">demo/include/demo.h</text>
</a>
</g>
</g>
<!-- Node2 -->
<g id="Node000002" class="node">
<title>Node2</title>
<g id="a_Node000002"><a xlink:title=" ">
<polygon fill="#e0e0e0" stroke="#999999" points="48.25,-348 0,-348 0,-328 48.25,-328 48.25,-348"/>
<text text-anchor="middle" x="24.12" y="-334.5" font-family="Helvetica,sans-Serif" font-size="10.00">cassert</text>
</a>
</g>
</g>
<!-- Node1&#45;&gt;Node2 -->
<g id="edge1_Node000001_Node000002" class="edge">
<title>Node1&#45;&gt;Node2</title>
<g id="a_edge1_Node000001_Node000002"><a xlink:title=" ">
<path fill="none" stroke="#63b8ff" d="M94.32,-383.59C81.72,-375.59 63.37,-363.93 48.59,-354.54"/>
<polygon fill="#63b8ff" stroke="#63b8ff" points="50.64,-351.7 40.32,-349.29 46.89,-357.61 50.64,-351.7"/>
</a>
</g>
</g>
<!-- Node3 -->
<g id="Node000003" class="node">
<title>Node3</title>
<g id="a_Node000003"><a xlink:title=" ">
<polygon fill="#e0e0e0" stroke="#999999" points="136.75,-150 91.5,-150 91.5,-130 136.75,-130 136.75,-150"/>
<text text-anchor="middle" x="114.12" y="-136.5" font-family="Helvetica,sans-Serif" font-size="10.00">cstdint</text>
</a>
</g>
</g>
<!-- Node1&#45;&gt;Node3 -->
<g id="edge2_Node000001_Node000003" class="edge">
<title>Node1&#45;&gt;Node3</title>
<g id="a_edge2_Node000001_Node000003"><a xlink:title=" ">
<path fill="none" stroke="#63b8ff" d="M105.26,-383.54C101.82,-374.57 97.04,-360.62 95.12,-348 84.75,-279.72 100.5,-197.85 109.12,-160.86"/>
<polygon fill="#63b8ff" stroke="#63b8ff" points="112.41,-162.14 111.36,-151.6 105.61,-160.49 112.41,-162.14"/>
</a>
</g>
</g>
<!-- Node4 -->
<g id="Node000004" class="node">
<title>Node4</title>
<g id="a_Node000004"><a xlink:title=" ">
<polygon fill="#e0e0e0" stroke="#999999" points="181.88,-348 104.38,-348 104.38,-328 181.88,-328 181.88,-348"/>
<text text-anchor="middle" x="143.12" y="-334.5" font-family="Helvetica,sans-Serif" font-size="10.00">GLFW/glfw3.h</text>
</a>
</g>
</g>
<!-- Node1&#45;&gt;Node4 -->
<g id="edge3_Node000001_Node000004" class="edge">
<title>Node1&#45;&gt;Node4</title>
<g id="a_edge3_Node000001_Node000004"><a xlink:title=" ">
<path fill="none" stroke="#63b8ff" d="M115.05,-383.59C119.48,-376.55 125.7,-366.67 131.16,-358"/>
<polygon fill="#63b8ff" stroke="#63b8ff" points="134.1,-359.91 136.46,-349.58 128.17,-356.18 134.1,-359.91"/>
</a>
</g>
</g>
<!-- Node5 -->
<g id="Node000005" class="node">
<title>Node5</title>
<g id="a_Node000005"><a xlink:href="hybrid__renderer_8h.html" target="_top" xlink:title=" ">
<polygon fill="white" stroke="#666666" points="558.62,-348 467.62,-348 467.62,-328 558.62,-328 558.62,-348"/>
<text text-anchor="middle" x="513.12" y="-334.5" font-family="Helvetica,sans-Serif" font-size="10.00">hybrid_renderer.h</text>
</a>
</g>
</g>
<!-- Node1&#45;&gt;Node5 -->
<g id="edge4_Node000001_Node000005" class="edge">
<title>Node1&#45;&gt;Node5</title>
<g id="a_edge4_Node000001_Node000005"><a xlink:title=" ">
<path fill="none" stroke="#63b8ff" d="M164.03,-385.66C240.63,-375.42 378.86,-356.95 456.41,-346.58"/>
<polygon fill="#63b8ff" stroke="#63b8ff" points="456.45,-350.11 465.9,-345.31 455.52,-343.17 456.45,-350.11"/>
</a>
</g>
</g>
<!-- Node6 -->
<g id="Node000006" class="node">
<title>Node6</title>
<g id="a_Node000006"><a xlink:href="platform_8h.html" target="_top" xlink:title=" ">
<polygon fill="white" stroke="#666666" points="497.5,-20 438.75,-20 438.75,0 497.5,0 497.5,-20"/>
<text text-anchor="middle" x="468.12" y="-6.5" font-family="Helvetica,sans-Serif" font-size="10.00">platform.h</text>
</a>
</g>
</g>
<!-- Node5&#45;&gt;Node6 -->
<g id="edge5_Node000005_Node000006" class="edge">
<title>Node5&#45;&gt;Node6</title>
<g id="a_edge5_Node000005_Node000006"><a xlink:title=" ">
<path fill="none" stroke="#63b8ff" d="M511.73,-327.58C507.77,-300.78 496.15,-221.73 487.12,-156 481.01,-111.5 474.28,-59.26 470.7,-31.23"/>
<polygon fill="#63b8ff" stroke="#63b8ff" points="474.21,-31.15 469.48,-21.67 467.27,-32.03 474.21,-31.15"/>
</a>
</g>
</g>
<!-- Node7 -->
<g id="Node000007" class="node">
<title>Node7</title>
<g id="a_Node000007"><a xlink:href="camera_8h.html" target="_top" xlink:title=" ">
<polygon fill="white" stroke="#666666" points="303.38,-286 246.88,-286 246.88,-266 303.38,-266 303.38,-286"/>
<text text-anchor="middle" x="275.12" y="-272.5" font-family="Helvetica,sans-Serif" font-size="10.00">camera.h</text>
</a>
</g>
</g>
<!-- Node5&#45;&gt;Node7 -->
<g id="edge6_Node000005_Node000007" class="edge">
<title>Node5&#45;&gt;Node7</title>
<g id="a_edge6_Node000005_Node000007"><a xlink:title=" ">
<path fill="none" stroke="#63b8ff" d="M467.19,-328.04C427.22,-319.87 367.89,-306.84 317.12,-292 315.01,-291.38 312.84,-290.71 310.66,-290.02"/>
<polygon fill="#63b8ff" stroke="#63b8ff" points="311.87,-286.73 301.28,-286.85 309.63,-293.36 311.87,-286.73"/>
</a>
</g>
</g>
<!-- Node8 -->
<g id="Node000008" class="node">
<title>Node8</title>
<g id="a_Node000008"><a xlink:href="hri__math_8h.html" target="_top" xlink:title=" ">
<polygon fill="white" stroke="#666666" points="326,-150 264.25,-150 264.25,-130 326,-130 326,-150"/>
<text text-anchor="middle" x="295.12" y="-136.5" font-family="Helvetica,sans-Serif" font-size="10.00">hri_math.h</text>
</a>
</g>
</g>
<!-- Node5&#45;&gt;Node8 -->
<g id="edge10_Node000005_Node000008" class="edge">
<title>Node5&#45;&gt;Node8</title>
<g id="a_edge10_Node000005_Node000008"><a xlink:title=" ">
<path fill="none" stroke="#63b8ff" d="M467.23,-336.38C396.75,-334.35 266.98,-325.96 238.12,-292 203.92,-251.75 250.99,-188.9 278.19,-158.56"/>
<polygon fill="#63b8ff" stroke="#63b8ff" points="280.63,-161.08 284.86,-151.36 275.5,-156.32 280.63,-161.08"/>
</a>
</g>
</g>
<!-- Node10 -->
<g id="Node000010" class="node">
<title>Node10</title>
<g id="a_Node000010"><a xlink:href="material_8h.html" target="_top" xlink:title=" ">
<polygon fill="white" stroke="#666666" points="409.5,-218 350.75,-218 350.75,-198 409.5,-198 409.5,-218"/>
<text text-anchor="middle" x="380.12" y="-204.5" font-family="Helvetica,sans-Serif" font-size="10.00">material.h</text>
</a>
</g>
</g>
<!-- Node5&#45;&gt;Node10 -->
<g id="edge11_Node000005_Node000010" class="edge">
<title>Node5&#45;&gt;Node10</title>
<g id="a_edge11_Node000005_Node000010"><a xlink:title=" ">
<path fill="none" stroke="#63b8ff" d="M467.32,-332.59C439.95,-327.42 406.95,-316.22 388.12,-292 374.41,-274.35 374.33,-247.81 376.42,-229.51"/>
<polygon fill="#63b8ff" stroke="#63b8ff" points="379.85,-230.28 377.86,-219.87 372.92,-229.25 379.85,-230.28"/>
</a>
</g>
</g>
<!-- Node11 -->
<g id="Node000011" class="node">
<title>Node11</title>
<g id="a_Node000011"><a xlink:href="mesh_8h.html" target="_top" xlink:title=" ">
<polygon fill="white" stroke="#666666" points="332.25,-218 284,-218 284,-198 332.25,-198 332.25,-218"/>
<text text-anchor="middle" x="308.12" y="-204.5" font-family="Helvetica,sans-Serif" font-size="10.00">mesh.h</text>
</a>
</g>
</g>
<!-- Node5&#45;&gt;Node11 -->
<g id="edge14_Node000005_Node000011" class="edge">
<title>Node5&#45;&gt;Node11</title>
<g id="a_edge14_Node000005_Node000011"><a xlink:title=" ">
<path fill="none" stroke="#63b8ff" d="M467.44,-329.69C438.19,-323.34 400.53,-311.91 372.12,-292 348.34,-275.32 329.33,-247.16 318.39,-228.33"/>
<polygon fill="#63b8ff" stroke="#63b8ff" points="321.56,-226.84 313.64,-219.8 315.44,-230.24 321.56,-226.84"/>
</a>
</g>
</g>
<!-- Node13 -->
<g id="Node000013" class="node">
<title>Node13</title>
<g id="a_Node000013"><a xlink:href="scene_8h.html" target="_top" xlink:title=" ">
<polygon fill="white" stroke="#666666" points="447.38,-286 396.88,-286 396.88,-266 447.38,-266 447.38,-286"/>
<text text-anchor="middle" x="422.12" y="-272.5" font-family="Helvetica,sans-Serif" font-size="10.00">scene.h</text>
</a>
</g>
</g>
<!-- Node5&#45;&gt;Node13 -->
<g id="edge18_Node000005_Node000013" class="edge">
<title>Node5&#45;&gt;Node13</title>
<g id="a_edge18_Node000005_Node000013"><a xlink:title=" ">
<path fill="none" stroke="#63b8ff" d="M498.91,-327.62C484.62,-318.2 462.34,-303.52 445.46,-292.39"/>
<polygon fill="#63b8ff" stroke="#63b8ff" points="447.78,-289.72 437.51,-287.14 443.93,-295.57 447.78,-289.72"/>
</a>
</g>
</g>
<!-- Node14 -->
<g id="Node000014" class="node">
<title>Node14</title>
<g id="a_Node000014"><a xlink:href="texture_8h.html" target="_top" xlink:title=" ">
<polygon fill="white" stroke="#666666" points="190.25,-286 136,-286 136,-266 190.25,-266 190.25,-286"/>
<text text-anchor="middle" x="163.12" y="-272.5" font-family="Helvetica,sans-Serif" font-size="10.00">texture.h</text>
</a>
</g>
</g>
<!-- Node5&#45;&gt;Node14 -->
<g id="edge22_Node000005_Node000014" class="edge">
<title>Node5&#45;&gt;Node14</title>
<g id="a_edge22_Node000005_Node000014"><a xlink:title=" ">
<path fill="none" stroke="#63b8ff" d="M467.26,-333.3C406.41,-327.71 295.97,-315.22 204.12,-292 201.83,-291.42 199.48,-290.76 197.13,-290.04"/>
<polygon fill="#63b8ff" stroke="#63b8ff" points="198.31,-286.74 187.72,-286.89 196.09,-293.38 198.31,-286.74"/>
</a>
</g>
</g>
<!-- Node16 -->
<g id="Node000016" class="node">
<title>Node16</title>
<g id="a_Node000016"><a xlink:href="buffer_8h.html" target="_top" xlink:title=" ">
<polygon fill="white" stroke="#666666" points="1050.38,-150 927.88,-150 927.88,-130 1050.38,-130 1050.38,-150"/>
<text text-anchor="middle" x="989.12" y="-136.5" font-family="Helvetica,sans-Serif" font-size="10.00">renderer_internal/buffer.h</text>
</a>
</g>
</g>
<!-- Node5&#45;&gt;Node16 -->
<g id="edge25_Node000005_Node000016" class="edge">
<title>Node5&#45;&gt;Node16</title>
<g id="a_edge25_Node000005_Node000016"><a xlink:title=" ">
<path fill="none" stroke="#63b8ff" d="M558.64,-336.29C615.11,-333.93 713.33,-324.93 790.12,-292 866.64,-259.19 940.29,-190.69 972.36,-158.46"/>
<polygon fill="#63b8ff" stroke="#63b8ff" points="974.7,-161.07 979.21,-151.48 969.71,-156.17 974.7,-161.07"/>
</a>
</g>
</g>
<!-- Node19 -->
<g id="Node000019" class="node">
<title>Node19</title>
<g id="a_Node000019"><a xlink:href="render__context_8h.html" target="_top" xlink:title=" ">
<polygon fill="white" stroke="#666666" points="919.12,-88 801.12,-88 801.12,-56 919.12,-56 919.12,-88"/>
<text text-anchor="start" x="809.12" y="-74.5" font-family="Helvetica,sans-Serif" font-size="10.00">renderer_internal/render</text>
<text text-anchor="middle" x="860.12" y="-62.5" font-family="Helvetica,sans-Serif" font-size="10.00">_context.h</text>
</a>
</g>
</g>
<!-- Node5&#45;&gt;Node19 -->
<g id="edge43_Node000005_Node000019" class="edge">
<title>Node5&#45;&gt;Node19</title>
<g id="a_edge43_Node000005_Node000019"><a xlink:title=" ">
<path fill="none" stroke="#63b8ff" d="M518.56,-327.74C538.33,-294.83 610.01,-182.37 699.12,-124 726.31,-106.19 760.14,-94.25 789.76,-86.42"/>
<polygon fill="#63b8ff" stroke="#63b8ff" points="790.57,-89.83 799.41,-83.99 788.86,-83.04 790.57,-89.83"/>
</a>
</g>
</g>
<!-- Node23 -->
<g id="Node000023" class="node">
<title>Node23</title>
<g id="a_Node000023"><a xlink:href="descriptor__management_8h.html" target="_top" xlink:title=" ">
<polygon fill="white" stroke="#666666" points="1602,-156 1468.25,-156 1468.25,-124 1602,-124 1602,-156"/>
<text text-anchor="start" x="1476.25" y="-142.5" font-family="Helvetica,sans-Serif" font-size="10.00">renderer_internal/descriptor</text>
<text text-anchor="middle" x="1535.12" y="-130.5" font-family="Helvetica,sans-Serif" font-size="10.00">_management.h</text>
</a>
</g>
</g>
<!-- Node5&#45;&gt;Node23 -->
<g id="edge35_Node000005_Node000023" class="edge">
<title>Node5&#45;&gt;Node23</title>
<g id="a_edge35_Node000005_Node000023"><a xlink:title=" ">
<path fill="none" stroke="#63b8ff" d="M559.01,-337.18C713.63,-337.36 1214.53,-334.59 1369.12,-292 1431.61,-274.79 1453.83,-271.31 1498.12,-224 1513,-208.11 1522.59,-185.24 1528.27,-167.53"/>
<polygon fill="#63b8ff" stroke="#63b8ff" points="1531.62,-168.53 1531.1,-157.95 1524.91,-166.55 1531.62,-168.53"/>
</a>
</g>
</g>
<!-- Node25 -->
<g id="Node000025" class="node">
<title>Node25</title>
<g id="a_Node000025"><a xlink:href="image_8h.html" target="_top" xlink:title=" ">
<polygon fill="white" stroke="#666666" points="833.88,-150 708.38,-150 708.38,-130 833.88,-130 833.88,-150"/>
<text text-anchor="middle" x="771.12" y="-136.5" font-family="Helvetica,sans-Serif" font-size="10.00">renderer_internal/image.h</text>
</a>
</g>
</g>
<!-- Node5&#45;&gt;Node25 -->
<g id="edge39_Node000005_Node000025" class="edge">
<title>Node5&#45;&gt;Node25</title>
<g id="a_edge39_Node000005_Node000025"><a xlink:title=" ">
<path fill="none" stroke="#63b8ff" d="M559.08,-335.7C625.32,-332.75 742.62,-323.15 769.12,-292 800.47,-255.16 787.67,-192.98 778.08,-161.13"/>
<polygon fill="#63b8ff" stroke="#63b8ff" points="781.41,-160.06 775,-151.62 774.75,-162.21 781.41,-160.06"/>
</a>
</g>
</g>
<!-- Node26 -->
<g id="Node000026" class="node">
<title>Node26</title>
<g id="a_Node000026"><a xlink:href="render__core_8h.html" target="_top" xlink:title=" ">
<polygon fill="white" stroke="#666666" points="614.12,-156 496.12,-156 496.12,-124 614.12,-124 614.12,-156"/>
<text text-anchor="start" x="504.12" y="-142.5" font-family="Helvetica,sans-Serif" font-size="10.00">renderer_internal/render</text>
<text text-anchor="middle" x="555.12" y="-130.5" font-family="Helvetica,sans-Serif" font-size="10.00">_core.h</text>
</a>
</g>
</g>
<!-- Node5&#45;&gt;Node26 -->
<g id="edge44_Node000005_Node000026" class="edge">
<title>Node5&#45;&gt;Node26</title>
<g id="a_edge44_Node000005_Node000026"><a xlink:title=" ">
<path fill="none" stroke="#63b8ff" d="M514.09,-327.72C516.62,-304.56 524.16,-242.41 537.12,-192 539.23,-183.81 542.08,-175.08 544.89,-167.19"/>
<polygon fill="#63b8ff" stroke="#63b8ff" points="548.17,-168.42 548.37,-157.82 541.61,-165.98 548.17,-168.42"/>
</a>
</g>
</g>
<!-- Node27 -->
<g id="Node000027" class="node">
<title>Node27</title>
<g id="a_Node000027"><a xlink:href="render__pass_8h.html" target="_top" xlink:title=" ">
<polygon fill="white" stroke="#666666" points="760.12,-292 642.12,-292 642.12,-260 760.12,-260 760.12,-292"/>
<text text-anchor="start" x="650.12" y="-278.5" font-family="Helvetica,sans-Serif" font-size="10.00">renderer_internal/render</text>
<text text-anchor="middle" x="701.12" y="-266.5" font-family="Helvetica,sans-Serif" font-size="10.00">_pass.h</text>
</a>
</g>
</g>
<!-- Node5&#45;&gt;Node27 -->
<g id="edge49_Node000005_Node000027" class="edge">
<title>Node5&#45;&gt;Node27</title>
<g id="a_edge49_Node000005_Node000027"><a xlink:title=" ">
<path fill="none" stroke="#63b8ff" d="M542.5,-327.62C568.94,-319.19 608.61,-306.53 641.66,-295.98"/>
<polygon fill="#63b8ff" stroke="#63b8ff" points="642.68,-299.33 651.15,-292.95 640.56,-292.66 642.68,-299.33"/>
</a>
</g>
</g>
<!-- Node29 -->
<g id="Node000029" class="node">
<title>Node29</title>
<g id="a_Node000029"><a xlink:href="shader__database_8h.html" target="_top" xlink:title=" ">
<polygon fill="white" stroke="#666666" points="1442.25,-224 1322,-224 1322,-192 1442.25,-192 1442.25,-224"/>
<text text-anchor="start" x="1330" y="-210.5" font-family="Helvetica,sans-Serif" font-size="10.00">renderer_internal/shader</text>
<text text-anchor="middle" x="1382.12" y="-198.5" font-family="Helvetica,sans-Serif" font-size="10.00">_database.h</text>
</a>
</g>
</g>
<!-- Node5&#45;&gt;Node29 -->
<g id="edge74_Node000005_Node000029" class="edge">
<title>Node5&#45;&gt;Node29</title>
<g id="a_edge74_Node000005_Node000029"><a xlink:title=" ">
<path fill="none" stroke="#63b8ff" d="M559.1,-337.23C723.79,-337.67 1278.01,-335.87 1343.12,-292 1362.15,-279.18 1372.12,-254.5 1377.19,-235.37"/>
<polygon fill="#63b8ff" stroke="#63b8ff" points="1380.56,-236.33 1379.41,-225.8 1373.74,-234.75 1380.56,-236.33"/>
</a>
</g>
</g>
<!-- Node31 -->
<g id="Node000031" class="node">
<title>Node31</title>
<g id="a_Node000031"><a xlink:href="render__system_8h.html" target="_top" xlink:title=" ">
<polygon fill="white" stroke="#666666" points="1334.12,-292 1216.12,-292 1216.12,-260 1334.12,-260 1334.12,-292"/>
<text text-anchor="start" x="1224.12" y="-278.5" font-family="Helvetica,sans-Serif" font-size="10.00">renderer_internal/render</text>
<text text-anchor="middle" x="1275.12" y="-266.5" font-family="Helvetica,sans-Serif" font-size="10.00">_system.h</text>
</a>
</g>
</g>
<!-- Node5&#45;&gt;Node31 -->
<g id="edge63_Node000005_Node000031" class="edge">
<title>Node5&#45;&gt;Node31</title>
<g id="a_edge63_Node000005_Node000031"><a xlink:title=" ">
<path fill="none" stroke="#63b8ff" d="M558.98,-334.17C661.69,-327.72 918.01,-311.01 1132.12,-292 1155.63,-289.91 1181.27,-287.32 1204.27,-284.88"/>
<polygon fill="#63b8ff" stroke="#63b8ff" points="1204.6,-288.37 1214.17,-283.83 1203.86,-281.41 1204.6,-288.37"/>
</a>
</g>
</g>
<!-- Node32 -->
<g id="Node000032" class="node">
<title>Node32</title>
<g id="a_Node000032"><a xlink:href="sampler_8h.html" target="_top" xlink:title=" ">
<polygon fill="white" stroke="#666666" points="1202,-150 1068.25,-150 1068.25,-130 1202,-130 1202,-150"/>
<text text-anchor="middle" x="1135.12" y="-136.5" font-family="Helvetica,sans-Serif" font-size="10.00">renderer_internal/sampler.h</text>
</a>
</g>
</g>
<!-- Node5&#45;&gt;Node32 -->
<g id="edge71_Node000005_Node000032" class="edge">
<title>Node5&#45;&gt;Node32</title>
<g id="a_edge71_Node000005_Node000032"><a xlink:title=" ">
<path fill="none" stroke="#63b8ff" d="M558.89,-335.11C621.59,-331.5 737.13,-321.16 831.12,-292 941.47,-257.77 1061.1,-187.41 1111.08,-156.33"/>
<polygon fill="#63b8ff" stroke="#63b8ff" points="1112.76,-159.41 1119.37,-151.13 1109.04,-153.48 1112.76,-159.41"/>
</a>
</g>
</g>
<!-- Node7&#45;&gt;Node8 -->
<g id="edge7_Node000007_Node000008" class="edge">
<title>Node7&#45;&gt;Node8</title>
<g id="a_edge7_Node000007_Node000008"><a xlink:title=" ">
<path fill="none" stroke="#63b8ff" d="M274.01,-265.68C272.4,-250.22 270.15,-218.34 275.12,-192 277.14,-181.36 281.32,-170.09 285.34,-160.86"/>
<polygon fill="#63b8ff" stroke="#63b8ff" points="288.5,-162.37 289.54,-151.83 282.15,-159.42 288.5,-162.37"/>
</a>
</g>
</g>
<!-- Node8&#45;&gt;Node6 -->
<g id="edge9_Node000008_Node000006" class="edge">
<title>Node8&#45;&gt;Node6</title>
<g id="a_edge9_Node000008_Node000006"><a xlink:title=" ">
<path fill="none" stroke="#63b8ff" d="M299.71,-129.71C308.46,-112.83 329.13,-76.93 356.12,-56 377.23,-39.63 405.09,-28.41 427.74,-21.26"/>
<polygon fill="#63b8ff" stroke="#63b8ff" points="428.68,-24.63 437.26,-18.42 426.68,-17.93 428.68,-24.63"/>
</a>
</g>
</g>
<!-- Node9 -->
<g id="Node000009" class="node">
<title>Node9</title>
<g id="a_Node000009"><a xlink:title=" ">
<polygon fill="#e0e0e0" stroke="#999999" points="303.62,-82 260.62,-82 260.62,-62 303.62,-62 303.62,-82"/>
<text text-anchor="middle" x="282.12" y="-68.5" font-family="Helvetica,sans-Serif" font-size="10.00">cmath</text>
</a>
</g>
</g>
<!-- Node8&#45;&gt;Node9 -->
<g id="edge8_Node000008_Node000009" class="edge">
<title>Node8&#45;&gt;Node9</title>
<g id="a_edge8_Node000008_Node000009"><a xlink:title=" ">
<path fill="none" stroke="#63b8ff" d="M293.26,-129.54C291.43,-120.23 288.57,-105.7 286.2,-93.7"/>
<polygon fill="#63b8ff" stroke="#63b8ff" points="289.64,-93.06 284.28,-83.92 282.78,-94.41 289.64,-93.06"/>
</a>
</g>
</g>
<!-- Node10&#45;&gt;Node6 -->
<g id="edge12_Node000010_Node000006" class="edge">
<title>Node10&#45;&gt;Node6</title>
<g id="a_edge12_Node000010_Node000006"><a xlink:title=" ">
<path fill="none" stroke="#63b8ff" d="M379.66,-197.69C379.19,-181.97 379.6,-149.38 389.12,-124 403.2,-86.49 432.64,-49.73 451.34,-28.77"/>
<polygon fill="#63b8ff" stroke="#63b8ff" points="453.89,-31.16 458.05,-21.42 448.72,-26.44 453.89,-31.16"/>
</a>
</g>
</g>
<!-- Node10&#45;&gt;Node8 -->
<g id="edge13_Node000010_Node000008" class="edge">
<title>Node10&#45;&gt;Node8</title>
<g id="a_edge13_Node000010_Node000008"><a xlink:title=" ">
<path fill="none" stroke="#63b8ff" d="M367.95,-197.54C354.44,-187.06 332.41,-169.95 316.11,-157.29"/>
<polygon fill="#63b8ff" stroke="#63b8ff" points="318.52,-154.74 308.48,-151.37 314.23,-160.26 318.52,-154.74"/>
</a>
</g>
</g>
<!-- Node11&#45;&gt;Node3 -->
<g id="edge15_Node000011_Node000003" class="edge">
<title>Node11&#45;&gt;Node3</title>
<g id="a_edge15_Node000011_Node000003"><a xlink:title=" ">
<path fill="none" stroke="#63b8ff" d="M283.55,-198.64C249.13,-186.93 186.42,-165.59 147.7,-152.42"/>
<polygon fill="#63b8ff" stroke="#63b8ff" points="149.02,-149.17 138.42,-149.27 146.76,-155.8 149.02,-149.17"/>
</a>
</g>
</g>
<!-- Node11&#45;&gt;Node8 -->
<g id="edge17_Node000011_Node000008" class="edge">
<title>Node11&#45;&gt;Node8</title>
<g id="a_edge17_Node000011_Node000008"><a xlink:title=" ">
<path fill="none" stroke="#63b8ff" d="M306.26,-197.54C304.43,-188.23 301.57,-173.7 299.2,-161.7"/>
<polygon fill="#63b8ff" stroke="#63b8ff" points="302.64,-161.06 297.28,-151.92 295.78,-162.41 302.64,-161.06"/>
</a>
</g>
</g>
<!-- Node12 -->
<g id="Node000012" class="node">
<title>Node12</title>
<g id="a_Node000012"><a xlink:title=" ">
<polygon fill="#e0e0e0" stroke="#999999" points="439.88,-150 398.38,-150 398.38,-130 439.88,-130 439.88,-150"/>
<text text-anchor="middle" x="419.12" y="-136.5" font-family="Helvetica,sans-Serif" font-size="10.00">vector</text>
</a>
</g>
</g>
<!-- Node11&#45;&gt;Node12 -->
<g id="edge16_Node000011_Node000012" class="edge">
<title>Node11&#45;&gt;Node12</title>
<g id="a_edge16_Node000011_Node000012"><a xlink:title=" ">
<path fill="none" stroke="#63b8ff" d="M324.03,-197.54C342.16,-186.76 372.06,-168.98 393.5,-156.24"/>
<polygon fill="#63b8ff" stroke="#63b8ff" points="395.14,-159.33 401.95,-151.21 391.57,-153.31 395.14,-159.33"/>
</a>
</g>
</g>
<!-- Node13&#45;&gt;Node10 -->
<g id="edge20_Node000013_Node000010" class="edge">
<title>Node13&#45;&gt;Node10</title>
<g id="a_edge20_Node000013_Node000010"><a xlink:title=" ">
<path fill="none" stroke="#63b8ff" d="M416.11,-265.54C409.87,-255.74 399.95,-240.16 392.11,-227.83"/>
<polygon fill="#63b8ff" stroke="#63b8ff" points="395.27,-226.27 386.94,-219.72 389.36,-230.03 395.27,-226.27"/>
</a>
</g>
</g>
<!-- Node13&#45;&gt;Node11 -->
<g id="edge21_Node000013_Node000011" class="edge">
<title>Node13&#45;&gt;Node11</title>
<g id="a_edge21_Node000013_Node000011"><a xlink:title=" ">
<path fill="none" stroke="#63b8ff" d="M405.79,-265.54C387.08,-254.71 356.18,-236.82 334.15,-224.06"/>
<polygon fill="#63b8ff" stroke="#63b8ff" points="336.15,-221.18 325.74,-219.2 332.64,-227.24 336.15,-221.18"/>
</a>
</g>
</g>
<!-- Node13&#45;&gt;Node12 -->
<g id="edge19_Node000013_Node000012" class="edge">
<title>Node13&#45;&gt;Node12</title>
<g id="a_edge19_Node000013_Node000012"><a xlink:title=" ">
<path fill="none" stroke="#63b8ff" d="M421.92,-265.79C421.44,-244.47 420.25,-191.27 419.59,-161.68"/>
<polygon fill="#63b8ff" stroke="#63b8ff" points="423.09,-161.71 419.37,-151.79 416.09,-161.86 423.09,-161.71"/>
</a>
</g>
</g>
<!-- Node14&#45;&gt;Node3 -->
<g id="edge24_Node000014_Node000003" class="edge">
<title>Node14&#45;&gt;Node3</title>
<g id="a_edge24_Node000014_Node000003"><a xlink:title=" ">
<path fill="none" stroke="#63b8ff" d="M156.45,-265.68C149.65,-255.78 139.27,-239.46 133.12,-224 124.99,-203.54 119.89,-178.79 117.05,-161.67"/>
<polygon fill="#63b8ff" stroke="#63b8ff" points="120.54,-161.34 115.56,-151.99 113.62,-162.4 120.54,-161.34"/>
</a>
</g>
</g>
<!-- Node15 -->
<g id="Node000015" class="node">
<title>Node15</title>
<g id="a_Node000015"><a xlink:title=" ">
<polygon fill="#e0e0e0" stroke="#999999" points="189.88,-218 142.38,-218 142.38,-198 189.88,-198 189.88,-218"/>
<text text-anchor="middle" x="166.12" y="-204.5" font-family="Helvetica,sans-Serif" font-size="10.00">cstddef</text>
</a>
</g>
</g>
<!-- Node14&#45;&gt;Node15 -->
<g id="edge23_Node000014_Node000015" class="edge">
<title>Node14&#45;&gt;Node15</title>
<g id="a_edge23_Node000014_Node000015"><a xlink:title=" ">
<path fill="none" stroke="#63b8ff" d="M163.55,-265.54C163.98,-256.23 164.64,-241.7 165.18,-229.7"/>
<polygon fill="#63b8ff" stroke="#63b8ff" points="168.67,-230.1 165.63,-219.95 161.68,-229.78 168.67,-230.1"/>
</a>
</g>
</g>
<!-- Node17 -->
<g id="Node000017" class="node">
<title>Node17</title>
<g id="a_Node000017"><a xlink:title=" ">
<polygon fill="#e0e0e0" stroke="#999999" points="814,-20 728.25,-20 728.25,0 814,0 814,-20"/>
<text text-anchor="middle" x="771.12" y="-6.5" font-family="Helvetica,sans-Serif" font-size="10.00">vk_mem_alloc.h</text>
</a>
</g>
</g>
<!-- Node16&#45;&gt;Node17 -->
<g id="edge26_Node000016_Node000017" class="edge">
<title>Node16&#45;&gt;Node17</title>
<g id="a_edge26_Node000016_Node000017"><a xlink:title=" ">
<path fill="none" stroke="#63b8ff" d="M984.88,-129.71C976.53,-112.5 956.31,-75.62 928.12,-56 911.39,-44.35 863.92,-31.59 825.52,-22.64"/>
<polygon fill="#63b8ff" stroke="#63b8ff" points="826.45,-19.27 815.93,-20.45 824.89,-26.09 826.45,-19.27"/>
</a>
</g>
</g>
<!-- Node18 -->
<g id="Node000018" class="node">
<title>Node18</title>
<g id="a_Node000018"><a xlink:title=" ">
<polygon fill="#e0e0e0" stroke="#999999" points="1236.75,-20 1155.5,-20 1155.5,0 1236.75,0 1236.75,-20"/>
<text text-anchor="middle" x="1196.12" y="-6.5" font-family="Helvetica,sans-Serif" font-size="10.00">vulkan/vulkan.h</text>
</a>
</g>
</g>
<!-- Node16&#45;&gt;Node18 -->
<g id="edge27_Node000016_Node000018" class="edge">
<title>Node16&#45;&gt;Node18</title>
<g id="a_edge27_Node000016_Node000018"><a xlink:title=" ">
<path fill="none" stroke="#63b8ff" d="M1004.35,-129.59C1039.71,-107.72 1127.71,-53.31 1171.11,-26.47"/>
<polygon fill="#63b8ff" stroke="#63b8ff" points="1172.93,-29.46 1179.59,-21.22 1169.25,-23.5 1172.93,-29.46"/>
</a>
</g>
</g>
<!-- Node16&#45;&gt;Node19 -->
<g id="edge28_Node000016_Node000019" class="edge">
<title>Node16&#45;&gt;Node19</title>
<g id="a_edge28_Node000016_Node000019"><a xlink:title=" ">
<path fill="none" stroke="#63b8ff" d="M970.64,-129.54C952.32,-120.17 923.64,-105.5 900.1,-93.45"/>
<polygon fill="#63b8ff" stroke="#63b8ff" points="901.88,-90.43 891.38,-88.99 898.69,-96.66 901.88,-90.43"/>
</a>
</g>
</g>
<!-- Node19&#45;&gt;Node6 -->
<g id="edge30_Node000019_Node000006" class="edge">
<title>Node19&#45;&gt;Node6</title>
<g id="a_edge30_Node000019_Node000006"><a xlink:title=" ">
<path fill="none" stroke="#63b8ff" d="M801.01,-61.95C720.54,-49.64 578.58,-27.91 508.96,-17.25"/>
<polygon fill="#63b8ff" stroke="#63b8ff" points="509.54,-13.8 499.12,-15.74 508.48,-20.72 509.54,-13.8"/>
</a>
</g>
</g>
<!-- Node19&#45;&gt;Node17 -->
<g id="edge33_Node000019_Node000017" class="edge">
<title>Node19&#45;&gt;Node17</title>
<g id="a_edge33_Node000019_Node000017"><a xlink:title=" ">
<path fill="none" stroke="#63b8ff" d="M837.21,-55.55C824.07,-46.69 807.63,-35.61 794.43,-26.71"/>
<polygon fill="#63b8ff" stroke="#63b8ff" points="796.58,-23.94 786.34,-21.25 792.67,-29.75 796.58,-23.94"/>
</a>
</g>
</g>
<!-- Node19&#45;&gt;Node18 -->
<g id="edge34_Node000019_Node000018" class="edge">
<title>Node19&#45;&gt;Node18</title>
<g id="a_edge34_Node000019_Node000018"><a xlink:title=" ">
<path fill="none" stroke="#63b8ff" d="M919.42,-60.41C983.14,-49.03 1083.41,-31.13 1144.15,-20.28"/>
<polygon fill="#63b8ff" stroke="#63b8ff" points="1144.66,-23.75 1153.89,-18.54 1143.43,-16.86 1144.66,-23.75"/>
</a>
</g>
</g>
<!-- Node20 -->
<g id="Node000020" class="node">
<title>Node20</title>
<g id="a_Node000020"><a xlink:href="config_8h.html" target="_top" xlink:title=" ">
<polygon fill="white" stroke="#666666" points="594,-20 544.25,-20 544.25,0 594,0 594,-20"/>
<text text-anchor="middle" x="569.12" y="-6.5" font-family="Helvetica,sans-Serif" font-size="10.00">config.h</text>
</a>
</g>
</g>
<!-- Node19&#45;&gt;Node20 -->
<g id="edge29_Node000019_Node000020" class="edge">
<title>Node19&#45;&gt;Node20</title>
<g id="a_edge29_Node000019_Node000020"><a xlink:title=" ">
<path fill="none" stroke="#63b8ff" d="M800.89,-58.79C742.27,-46.7 654.42,-28.59 605.44,-18.49"/>
<polygon fill="#63b8ff" stroke="#63b8ff" points="606.43,-15.12 595.93,-16.53 605.01,-21.97 606.43,-15.12"/>
</a>
</g>
</g>
<!-- Node21 -->
<g id="Node000021" class="node">
<title>Node21</title>
<g id="a_Node000021"><a xlink:title=" ">
<polygon fill="#e0e0e0" stroke="#999999" points="696.75,-20 639.5,-20 639.5,0 696.75,0 696.75,-20"/>
<text text-anchor="middle" x="668.12" y="-6.5" font-family="Helvetica,sans-Serif" font-size="10.00">functional</text>
</a>
</g>
</g>
<!-- Node19&#45;&gt;Node21 -->
<g id="edge31_Node000019_Node000021" class="edge">
<title>Node19&#45;&gt;Node21</title>
<g id="a_edge31_Node000019_Node000021"><a xlink:title=" ">
<path fill="none" stroke="#63b8ff" d="M810.68,-55.55C778.76,-45.57 737.78,-32.77 707.95,-23.45"/>
<polygon fill="#63b8ff" stroke="#63b8ff" points="709.14,-20.15 698.55,-20.51 707.06,-26.83 709.14,-20.15"/>
</a>
</g>
</g>
<!-- Node22 -->
<g id="Node000022" class="node">
<title>Node22</title>
<g id="a_Node000022"><a xlink:title=" ">
<polygon fill="#e0e0e0" stroke="#999999" points="910.25,-20 832,-20 832,0 910.25,0 910.25,-20"/>
<text text-anchor="middle" x="871.12" y="-6.5" font-family="Helvetica,sans-Serif" font-size="10.00">VkBootstrap.h</text>
</a>
</g>
</g>
<!-- Node19&#45;&gt;Node22 -->
<g id="edge32_Node000019_Node000022" class="edge">
<title>Node19&#45;&gt;Node22</title>
<g id="a_edge32_Node000019_Node000022"><a xlink:title=" ">
<path fill="none" stroke="#63b8ff" d="M862.96,-55.55C864.29,-48.26 865.91,-39.45 867.35,-31.6"/>
<polygon fill="#63b8ff" stroke="#63b8ff" points="870.77,-32.36 869.13,-21.9 863.88,-31.1 870.77,-32.36"/>
</a>
</g>
</g>
<!-- Node23&#45;&gt;Node18 -->
<g id="edge37_Node000023_Node000018" class="edge">
<title>Node23&#45;&gt;Node18</title>
<g id="a_edge37_Node000023_Node000018"><a xlink:title=" ">
<path fill="none" stroke="#63b8ff" d="M1514.09,-123.52C1487.79,-104.87 1440.76,-73.82 1396.12,-56 1347.78,-36.7 1289.4,-24.77 1248.23,-18.08"/>
<polygon fill="#63b8ff" stroke="#63b8ff" points="1249.01,-14.66 1238.59,-16.57 1247.93,-21.58 1249.01,-14.66"/>
</a>
</g>
</g>
<!-- Node23&#45;&gt;Node19 -->
<g id="edge38_Node000023_Node000019" class="edge">
<title>Node23&#45;&gt;Node19</title>
<g id="a_edge38_Node000023_Node000019"><a xlink:title=" ">
<path fill="none" stroke="#63b8ff" d="M1468.06,-125.35C1465.04,-124.87 1462.05,-124.41 1459.12,-124 1269.03,-97.23 1042.88,-82.6 930.61,-76.49"/>
<polygon fill="#63b8ff" stroke="#63b8ff" points="931.14,-73.01 920.97,-75.97 930.77,-80 931.14,-73.01"/>
</a>
</g>
</g>
<!-- Node24 -->
<g id="Node000024" class="node">
<title>Node24</title>
<g id="a_Node000024"><a xlink:title=" ">
<polygon fill="#e0e0e0" stroke="#999999" points="1354.5,-82 1319.75,-82 1319.75,-62 1354.5,-62 1354.5,-82"/>
<text text-anchor="middle" x="1337.12" y="-68.5" font-family="Helvetica,sans-Serif" font-size="10.00">map</text>
</a>
</g>
</g>
<!-- Node23&#45;&gt;Node24 -->
<g id="edge36_Node000023_Node000024" class="edge">
<title>Node23&#45;&gt;Node24</title>
<g id="a_edge36_Node000023_Node000024"><a xlink:title=" ">
<path fill="none" stroke="#63b8ff" d="M1488.7,-123.53C1450.63,-110.83 1397.94,-93.27 1365.77,-82.55"/>
<polygon fill="#63b8ff" stroke="#63b8ff" points="1366.94,-79.25 1356.34,-79.41 1364.72,-85.89 1366.94,-79.25"/>
</a>
</g>
</g>
<!-- Node25&#45;&gt;Node17 -->
<g id="edge40_Node000025_Node000017" class="edge">
<title>Node25&#45;&gt;Node17</title>
<g id="a_edge40_Node000025_Node000017"><a xlink:title=" ">
<path fill="none" stroke="#63b8ff" d="M771.12,-129.79C771.12,-109.41 771.12,-60.05 771.12,-31.79"/>
<polygon fill="#63b8ff" stroke="#63b8ff" points="774.63,-31.98 771.13,-21.98 767.63,-31.98 774.63,-31.98"/>
</a>
</g>
</g>
<!-- Node25&#45;&gt;Node18 -->
<g id="edge41_Node000025_Node000018" class="edge">
<title>Node25&#45;&gt;Node18</title>
<g id="a_edge41_Node000025_Node000018"><a xlink:title=" ">
<path fill="none" stroke="#63b8ff" d="M802.38,-129.59C877.59,-106.93 1068.78,-49.35 1154.01,-23.68"/>
<polygon fill="#63b8ff" stroke="#63b8ff" points="1154.81,-27.1 1163.38,-20.86 1152.79,-20.39 1154.81,-27.1"/>
</a>
</g>
</g>
<!-- Node25&#45;&gt;Node19 -->
<g id="edge42_Node000025_Node000019" class="edge">
<title>Node25&#45;&gt;Node19</title>
<g id="a_edge42_Node000025_Node000019"><a xlink:title=" ">
<path fill="none" stroke="#63b8ff" d="M783.88,-129.54C796.01,-120.55 814.72,-106.67 830.56,-94.92"/>
<polygon fill="#63b8ff" stroke="#63b8ff" points="832.33,-97.97 838.28,-89.2 828.16,-92.35 832.33,-97.97"/>
</a>
</g>
</g>
<!-- Node26&#45;&gt;Node6 -->
<g id="edge47_Node000026_Node000006" class="edge">
<title>Node26&#45;&gt;Node6</title>
<g id="a_edge47_Node000026_Node000006"><a xlink:title=" ">
<path fill="none" stroke="#63b8ff" d="M544.63,-123.56C528.58,-99.95 498,-54.95 480.76,-29.59"/>
<polygon fill="#63b8ff" stroke="#63b8ff" points="483.83,-27.88 475.31,-21.58 478.04,-31.82 483.83,-27.88"/>
</a>
</g>
</g>
<!-- Node26&#45;&gt;Node19 -->
<g id="edge48_Node000026_Node000019" class="edge">
<title>Node26&#45;&gt;Node19</title>
<g id="a_edge48_Node000026_Node000019"><a xlink:title=" ">
<path fill="none" stroke="#63b8ff" d="M614.29,-126.2C664.51,-115.33 736.67,-99.72 789.82,-88.21"/>
<polygon fill="#63b8ff" stroke="#63b8ff" points="790.35,-91.68 799.38,-86.14 788.87,-84.84 790.35,-91.68"/>
</a>
</g>
</g>
<!-- Node26&#45;&gt;Node20 -->
<g id="edge46_Node000026_Node000020" class="edge">
<title>Node26&#45;&gt;Node20</title>
<g id="a_edge46_Node000026_Node000020"><a xlink:title=" ">
<path fill="none" stroke="#63b8ff" d="M556.81,-123.56C559.33,-100.58 564.06,-57.34 566.87,-31.66"/>
<polygon fill="#63b8ff" stroke="#63b8ff" points="570.33,-32.15 567.94,-21.83 563.37,-31.39 570.33,-32.15"/>
</a>
</g>
</g>
<!-- Node26&#45;&gt;Node21 -->
<g id="edge45_Node000026_Node000021" class="edge">
<title>Node26&#45;&gt;Node21</title>
<g id="a_edge45_Node000026_Node000021"><a xlink:title=" ">
<path fill="none" stroke="#63b8ff" d="M568.56,-123.68C583.18,-107.01 607.28,-79.58 628.12,-56 636.07,-47.01 644.94,-37.03 652.3,-28.76"/>
<polygon fill="#63b8ff" stroke="#63b8ff" points="654.79,-31.22 658.83,-21.43 649.57,-26.57 654.79,-31.22"/>
</a>
</g>
</g>
<!-- Node27&#45;&gt;Node12 -->
<g id="edge51_Node000027_Node000012" class="edge">
<title>Node27&#45;&gt;Node12</title>
<g id="a_edge51_Node000027_Node000012"><a xlink:title=" ">
<path fill="none" stroke="#63b8ff" d="M668.78,-259.63C613.69,-233.45 502.46,-180.6 449.06,-155.23"/>
<polygon fill="#63b8ff" stroke="#63b8ff" points="450.79,-152.17 440.26,-151.04 447.79,-158.49 450.79,-152.17"/>
</a>
</g>
</g>
<!-- Node27&#45;&gt;Node17 -->
<g id="edge52_Node000027_Node000017" class="edge">
<title>Node27&#45;&gt;Node17</title>
<g id="a_edge52_Node000027_Node000017"><a xlink:title=" ">
<path fill="none" stroke="#63b8ff" d="M706.13,-259.57C709.11,-249.55 712.6,-236.15 714.12,-224 715.9,-209.89 716.91,-205.95 714.12,-192 710.73,-175 702.52,-173 699.12,-156 696.34,-142.05 695.14,-137.65 699.12,-124 710.02,-86.62 737.44,-49.82 755.13,-28.82"/>
<polygon fill="#63b8ff" stroke="#63b8ff" points="757.58,-31.33 761.48,-21.48 752.29,-26.75 757.58,-31.33"/>
</a>
</g>
</g>
<!-- Node27&#45;&gt;Node18 -->
<g id="edge53_Node000027_Node000018" class="edge">
<title>Node27&#45;&gt;Node18</title>
<g id="a_edge53_Node000027_Node000018"><a xlink:title=" ">
<path fill="none" stroke="#63b8ff" d="M760.57,-270.17C882.76,-258.89 1155.39,-226.24 1211.12,-156 1240,-119.61 1219.76,-60.86 1205.99,-30.52"/>
<polygon fill="#63b8ff" stroke="#63b8ff" points="1209.27,-29.27 1201.8,-21.76 1202.95,-32.29 1209.27,-29.27"/>
</a>
</g>
</g>
<!-- Node27&#45;&gt;Node25 -->
<g id="edge54_Node000027_Node000025" class="edge">
<title>Node27&#45;&gt;Node25</title>
<g id="a_edge54_Node000027_Node000025"><a xlink:title=" ">
<path fill="none" stroke="#63b8ff" d="M718.56,-259.5C728.21,-250.09 739.71,-237.34 747.12,-224 758.1,-204.28 764.46,-179.06 767.85,-161.63"/>
<polygon fill="#63b8ff" stroke="#63b8ff" points="771.26,-162.44 769.54,-151.99 764.36,-161.23 771.26,-162.44"/>
</a>
</g>
</g>
<!-- Node27&#45;&gt;Node26 -->
<g id="edge55_Node000027_Node000026" class="edge">
<title>Node27&#45;&gt;Node26</title>
<g id="a_edge55_Node000027_Node000026"><a xlink:title=" ">
<path fill="none" stroke="#63b8ff" d="M684.38,-259.63C658.74,-236.1 609.63,-191.03 579.88,-163.72"/>
<polygon fill="#63b8ff" stroke="#63b8ff" points="582.53,-161.4 572.79,-157.22 577.79,-166.56 582.53,-161.4"/>
</a>
</g>
</g>
<!-- Node28 -->
<g id="Node000028" class="node">
<title>Node28</title>
<g id="a_Node000028"><a xlink:title=" ">
<polygon fill="#e0e0e0" stroke="#999999" points="705,-218 655.25,-218 655.25,-198 705,-198 705,-218"/>
<text text-anchor="middle" x="680.12" y="-204.5" font-family="Helvetica,sans-Serif" font-size="10.00">optional</text>
</a>
</g>
</g>
<!-- Node27&#45;&gt;Node28 -->
<g id="edge50_Node000027_Node000028" class="edge">
<title>Node27&#45;&gt;Node28</title>
<g id="a_edge50_Node000027_Node000028"><a xlink:title=" ">
<path fill="none" stroke="#63b8ff" d="M696.25,-259.69C693.36,-250.6 689.66,-238.95 686.53,-229.12"/>
<polygon fill="#63b8ff" stroke="#63b8ff" points="689.92,-228.23 683.55,-219.76 683.25,-230.35 689.92,-228.23"/>
</a>
</g>
</g>
<!-- Node27&#45;&gt;Node29 -->
<g id="edge56_Node000027_Node000029" class="edge">
<title>Node27&#45;&gt;Node29</title>
<g id="a_edge56_Node000027_Node000029"><a xlink:title=" ">
<path fill="none" stroke="#63b8ff" d="M760.37,-269.26C885.2,-257.16 1174.87,-229.09 1310.13,-215.98"/>
<polygon fill="#63b8ff" stroke="#63b8ff" points="1310.44,-219.46 1320.05,-215.02 1309.76,-212.5 1310.44,-219.46"/>
</a>
</g>
</g>
<!-- Node29&#45;&gt;Node12 -->
<g id="edge59_Node000029_Node000012" class="edge">
<title>Node29&#45;&gt;Node12</title>
<g id="a_edge59_Node000029_Node000012"><a xlink:title=" ">
<path fill="none" stroke="#63b8ff" d="M1321.57,-206.89C1176.69,-205.89 798.94,-198.99 487.12,-156 475.3,-154.37 462.49,-151.77 451.2,-149.18"/>
<polygon fill="#63b8ff" stroke="#63b8ff" points="452.11,-145.8 441.58,-146.89 450.49,-152.61 452.11,-145.8"/>
</a>
</g>
</g>
<!-- Node29&#45;&gt;Node18 -->
<g id="edge60_Node000029_Node000018" class="edge">
<title>Node29&#45;&gt;Node18</title>
<g id="a_edge60_Node000029_Node000018"><a xlink:title=" ">
<path fill="none" stroke="#63b8ff" d="M1385.24,-191.52C1390.34,-161.44 1396.78,-94.66 1363.12,-56 1348.06,-38.69 1291.45,-26.01 1248.28,-18.6"/>
<polygon fill="#63b8ff" stroke="#63b8ff" points="1249,-15.17 1238.56,-16.99 1247.85,-22.08 1249,-15.17"/>
</a>
</g>
</g>
<!-- Node29&#45;&gt;Node19 -->
<g id="edge61_Node000029_Node000019" class="edge">
<title>Node29&#45;&gt;Node19</title>
<g id="a_edge61_Node000029_Node000019"><a xlink:title=" ">
<path fill="none" stroke="#63b8ff" d="M1321.9,-206.4C1212.44,-204.33 985.97,-195.28 919.12,-156 896.85,-142.91 880.78,-117.72 871.09,-98.51"/>
<polygon fill="#63b8ff" stroke="#63b8ff" points="874.34,-97.2 866.89,-89.66 868.02,-100.2 874.34,-97.2"/>
</a>
</g>
</g>
<!-- Node29&#45;&gt;Node23 -->
<g id="edge62_Node000029_Node000023" class="edge">
<title>Node29&#45;&gt;Node23</title>
<g id="a_edge62_Node000029_Node000023"><a xlink:title=" ">
<path fill="none" stroke="#63b8ff" d="M1418,-191.53C1439.12,-182.41 1466.06,-170.79 1488.78,-160.99"/>
<polygon fill="#63b8ff" stroke="#63b8ff" points="1490.03,-164.27 1497.82,-157.09 1487.26,-157.84 1490.03,-164.27"/>
</a>
</g>
</g>
<!-- Node29&#45;&gt;Node24 -->
<g id="edge58_Node000029_Node000024" class="edge">
<title>Node29&#45;&gt;Node24</title>
<g id="a_edge58_Node000029_Node000024"><a xlink:title=" ">
<path fill="none" stroke="#63b8ff" d="M1376.96,-191.63C1368.79,-167.31 1352.89,-119.95 1343.84,-93.01"/>
<polygon fill="#63b8ff" stroke="#63b8ff" points="1347.21,-92.02 1340.7,-83.66 1340.57,-94.25 1347.21,-92.02"/>
</a>
</g>
</g>
<!-- Node30 -->
<g id="Node000030" class="node">
<title>Node30</title>
<g id="a_Node000030"><a xlink:title=" ">
<polygon fill="#e0e0e0" stroke="#999999" points="1450.12,-150 1410.12,-150 1410.12,-130 1450.12,-130 1450.12,-150"/>
<text text-anchor="middle" x="1430.12" y="-136.5" font-family="Helvetica,sans-Serif" font-size="10.00">string</text>
</a>
</g>
</g>
<!-- Node29&#45;&gt;Node30 -->
<g id="edge57_Node000029_Node000030" class="edge">
<title>Node29&#45;&gt;Node30</title>
<g id="a_edge57_Node000029_Node000030"><a xlink:title=" ">
<path fill="none" stroke="#63b8ff" d="M1393.26,-191.69C1400.24,-182.1 1409.28,-169.67 1416.66,-159.52"/>
<polygon fill="#63b8ff" stroke="#63b8ff" points="1419.41,-161.69 1422.46,-151.54 1413.75,-157.57 1419.41,-161.69"/>
</a>
</g>
</g>
<!-- Node31&#45;&gt;Node18 -->
<g id="edge66_Node000031_Node000018" class="edge">
<title>Node31&#45;&gt;Node18</title>
<g id="a_edge66_Node000031_Node000018"><a xlink:title=" ">
<path fill="none" stroke="#63b8ff" d="M1276.31,-259.62C1278.5,-222.35 1280.06,-125.17 1244.12,-56 1238.28,-44.75 1228.48,-34.79 1219.25,-27.13"/>
<polygon fill="#63b8ff" stroke="#63b8ff" points="1221.63,-24.54 1211.58,-21.19 1217.34,-30.08 1221.63,-24.54"/>
</a>
</g>
</g>
<!-- Node31&#45;&gt;Node19 -->
<g id="edge68_Node000031_Node000019" class="edge">
<title>Node31&#45;&gt;Node19</title>
<g id="a_edge68_Node000031_Node000019"><a xlink:title=" ">
<path fill="none" stroke="#63b8ff" d="M1215.95,-264.25C1118.33,-245.37 929.69,-203.72 883.12,-156 868.55,-141.06 863.03,-117.73 861.02,-99.61"/>
<polygon fill="#63b8ff" stroke="#63b8ff" points="864.53,-99.53 860.26,-89.83 857.55,-100.07 864.53,-99.53"/>
</a>
</g>
</g>
<!-- Node31&#45;&gt;Node23 -->
<g id="edge67_Node000031_Node000023" class="edge">
<title>Node31&#45;&gt;Node23</title>
<g id="a_edge67_Node000031_Node000023"><a xlink:title=" ">
<path fill="none" stroke="#63b8ff" d="M1334.32,-269.13C1374.66,-262.89 1427.84,-250.1 1468.12,-224 1490.68,-209.38 1509.19,-184.67 1521,-166"/>
<polygon fill="#63b8ff" stroke="#63b8ff" points="1523.87,-168.01 1526.07,-157.64 1517.89,-164.38 1523.87,-168.01"/>
</a>
</g>
</g>
<!-- Node31&#45;&gt;Node24 -->
<g id="edge65_Node000031_Node000024" class="edge">
<title>Node31&#45;&gt;Node24</title>
<g id="a_edge65_Node000031_Node000024"><a xlink:title=" ">
<path fill="none" stroke="#63b8ff" d="M1279.79,-259.82C1290.81,-223.9 1318.5,-133.68 1330.92,-93.2"/>
<polygon fill="#63b8ff" stroke="#63b8ff" points="1334.22,-94.39 1333.81,-83.8 1327.53,-92.33 1334.22,-94.39"/>
</a>
</g>
</g>
<!-- Node31&#45;&gt;Node26 -->
<g id="edge69_Node000031_Node000026" class="edge">
<title>Node31&#45;&gt;Node26</title>
<g id="a_edge69_Node000031_Node000026"><a xlink:title=" ">
<path fill="none" stroke="#63b8ff" d="M1215.9,-263.98C1084.15,-239.46 767.33,-180.49 625.66,-154.13"/>
<polygon fill="#63b8ff" stroke="#63b8ff" points="626.5,-150.72 616.03,-152.33 625.22,-157.61 626.5,-150.72"/>
</a>
</g>
</g>
<!-- Node31&#45;&gt;Node29 -->
<g id="edge70_Node000031_Node000029" class="edge">
<title>Node31&#45;&gt;Node29</title>
<g id="a_edge70_Node000031_Node000029"><a xlink:title=" ">
<path fill="none" stroke="#63b8ff" d="M1300.21,-259.53C1314.3,-250.84 1332.09,-239.86 1347.48,-230.37"/>
<polygon fill="#63b8ff" stroke="#63b8ff" points="1349.23,-233.4 1355.91,-225.17 1345.56,-227.44 1349.23,-233.4"/>
</a>
</g>
</g>
<!-- Node31&#45;&gt;Node30 -->
<g id="edge64_Node000031_Node000030" class="edge">
<title>Node31&#45;&gt;Node30</title>
<g id="a_edge64_Node000031_Node000030"><a xlink:title=" ">
<path fill="none" stroke="#63b8ff" d="M1334.2,-265.65C1379.6,-257.12 1436.89,-242.95 1451.12,-224 1465.23,-205.23 1453.93,-178.01 1443.2,-159.93"/>
<polygon fill="#63b8ff" stroke="#63b8ff" points="1446.31,-158.28 1437.97,-151.74 1440.41,-162.05 1446.31,-158.28"/>
</a>
</g>
</g>
<!-- Node32&#45;&gt;Node18 -->
<g id="edge72_Node000032_Node000018" class="edge">
<title>Node32&#45;&gt;Node18</title>
<g id="a_edge72_Node000032_Node000018"><a xlink:title=" ">
<path fill="none" stroke="#63b8ff" d="M1139.51,-129.79C1149.36,-109.14 1173.39,-58.71 1186.76,-30.65"/>
<polygon fill="#63b8ff" stroke="#63b8ff" points="1189.82,-32.37 1190.96,-21.83 1183.5,-29.36 1189.82,-32.37"/>
</a>
</g>
</g>
<!-- Node32&#45;&gt;Node19 -->
<g id="edge73_Node000032_Node000019" class="edge">
<title>Node32&#45;&gt;Node19</title>
<g id="a_edge73_Node000032_Node000019"><a xlink:title=" ">
<path fill="none" stroke="#63b8ff" d="M1095.72,-129.54C1052.67,-119.21 982.85,-102.45 930.37,-89.86"/>
<polygon fill="#63b8ff" stroke="#63b8ff" points="931.46,-86.52 920.92,-87.59 929.83,-93.33 931.46,-86.52"/>
</a>
</g>
</g>
</g>
</svg>
