<?xml version="1.0" encoding="UTF-8" standalone="no"?>
<!DOCTYPE svg PUBLIC "-//W3C//DTD SVG 1.1//EN"
 "http://www.w3.org/Graphics/SVG/1.1/DTD/svg11.dtd">
<!-- Generated by graphviz version 10.0.1 (20240210.2158)
 -->
<!-- Title: hybrid&#45;renderer&#45;lib/include/renderer_internal/descriptor_management.h Pages: 1 -->
<svg width="903pt" height="652pt"
 viewBox="0.00 0.00 902.50 652.00" xmlns="http://www.w3.org/2000/svg" xmlns:xlink="http://www.w3.org/1999/xlink">
<g id="graph0" class="graph" transform="scale(1 1) rotate(0) translate(4 648)">
<title>hybrid&#45;renderer&#45;lib/include/renderer_internal/descriptor_management.h</title>
<!-- Node1 -->
<g id="Node000001" class="node">
<title>Node1</title>
<g id="a_Node000001"><a xlink:title=" ">
<polygon fill="#999999" stroke="#666666" points="617.75,-644 486.25,-644 486.25,-600 617.75,-600 617.75,-644"/>
<text text-anchor="start" x="494.25" y="-630.5" font-family="Helvetica,sans-Serif" font-size="10.00">hybrid&#45;renderer&#45;lib</text>
<text text-anchor="start" x="494.25" y="-618.5" font-family="Helvetica,sans-Serif" font-size="10.00">/include/renderer_internal</text>
<text text-anchor="middle" x="552" y="-606.5" font-family="Helvetica,sans-Serif" font-size="10.00">/descriptor_management.h</text>
</a>
</g>
</g>
<!-- Node2 -->
<g id="Node000002" class="node">
<title>Node2</title>
<g id="a_Node000002"><a xlink:href="hybrid__renderer_8h.html" target="_top" xlink:title=" ">
<polygon fill="white" stroke="#666666" points="577.88,-398 450.12,-398 450.12,-366 577.88,-366 577.88,-398"/>
<text text-anchor="start" x="458.12" y="-384.5" font-family="Helvetica,sans-Serif" font-size="10.00">hybrid&#45;renderer&#45;lib</text>
<text text-anchor="middle" x="514" y="-372.5" font-family="Helvetica,sans-Serif" font-size="10.00">/include/hybrid_renderer.h</text>
</a>
</g>
</g>
<!-- Node1&#45;&gt;Node2 -->
<g id="edge1_Node000001_Node000002" class="edge">
<title>Node1&#45;&gt;Node2</title>
<g id="a_edge1_Node000001_Node000002"><a xlink:title=" ">
<path fill="none" stroke="#63b8ff" d="M546.84,-588.66C538.54,-536.69 522.55,-436.53 516.45,-398.32"/>
<polygon fill="#63b8ff" stroke="#63b8ff" points="543.36,-589.06 548.39,-598.38 550.27,-587.96 543.36,-589.06"/>
</a>
</g>
</g>
<!-- Node16 -->
<g id="Node000016" class="node">
<title>Node16</title>
<g id="a_Node000016"><a xlink:href="render__system_8h.html" target="_top" xlink:title=" ">
<polygon fill="white" stroke="#666666" points="685.38,-484 560.62,-484 560.62,-440 685.38,-440 685.38,-484"/>
<text text-anchor="start" x="568.62" y="-470.5" font-family="Helvetica,sans-Serif" font-size="10.00">hybrid&#45;renderer&#45;lib</text>
<text text-anchor="start" x="568.62" y="-458.5" font-family="Helvetica,sans-Serif" font-size="10.00">/include/renderer_internal</text>
<text text-anchor="middle" x="623" y="-446.5" font-family="Helvetica,sans-Serif" font-size="10.00">/render_system.h</text>
</a>
</g>
</g>
<!-- Node1&#45;&gt;Node16 -->
<g id="edge37_Node000001_Node000016" class="edge">
<title>Node1&#45;&gt;Node16</title>
<g id="a_edge37_Node000001_Node000016"><a xlink:title=" ">
<path fill="none" stroke="#63b8ff" d="M562.55,-588.91C569.54,-568.78 579.36,-542.47 590,-520 595.73,-507.91 603.11,-494.96 609.44,-484.47"/>
<polygon fill="#63b8ff" stroke="#63b8ff" points="559.28,-587.66 559.36,-598.26 565.9,-589.92 559.28,-587.66"/>
</a>
</g>
</g>
<!-- Node18 -->
<g id="Node000018" class="node">
<title>Node18</title>
<g id="a_Node000018"><a xlink:href="shader__database_8h.html" target="_top" xlink:title=" ">
<polygon fill="white" stroke="#666666" points="505.38,-564 380.62,-564 380.62,-520 505.38,-520 505.38,-564"/>
<text text-anchor="start" x="388.62" y="-550.5" font-family="Helvetica,sans-Serif" font-size="10.00">hybrid&#45;renderer&#45;lib</text>
<text text-anchor="start" x="388.62" y="-538.5" font-family="Helvetica,sans-Serif" font-size="10.00">/include/renderer_internal</text>
<text text-anchor="middle" x="443" y="-526.5" font-family="Helvetica,sans-Serif" font-size="10.00">/shader_database.h</text>
</a>
</g>
</g>
<!-- Node1&#45;&gt;Node18 -->
<g id="edge40_Node000001_Node000018" class="edge">
<title>Node1&#45;&gt;Node18</title>
<g id="a_edge40_Node000001_Node000018"><a xlink:title=" ">
<path fill="none" stroke="#63b8ff" d="M512.87,-593C499.65,-583.54 485.12,-573.14 472.75,-564.29"/>
<polygon fill="#63b8ff" stroke="#63b8ff" points="510.82,-595.83 520.98,-598.81 514.89,-590.14 510.82,-595.83"/>
</a>
</g>
</g>
<!-- Node22 -->
<g id="Node000022" class="node">
<title>Node22</title>
<g id="a_Node000022"><a xlink:href="descriptor__management_8cpp.html" target="_top" xlink:title=" ">
<polygon fill="white" stroke="#666666" points="741,-564 599,-564 599,-520 741,-520 741,-564"/>
<text text-anchor="start" x="607" y="-550.5" font-family="Helvetica,sans-Serif" font-size="10.00">hybrid&#45;renderer&#45;lib</text>
<text text-anchor="start" x="607" y="-538.5" font-family="Helvetica,sans-Serif" font-size="10.00">/src/renderer_internal</text>
<text text-anchor="middle" x="670" y="-526.5" font-family="Helvetica,sans-Serif" font-size="10.00">/descriptor_management.cpp</text>
</a>
</g>
</g>
<!-- Node1&#45;&gt;Node22 -->
<g id="edge49_Node000001_Node000022" class="edge">
<title>Node1&#45;&gt;Node22</title>
<g id="a_edge49_Node000001_Node000022"><a xlink:title=" ">
<path fill="none" stroke="#63b8ff" d="M593.53,-593.55C608.06,-583.95 624.14,-573.31 637.79,-564.29"/>
<polygon fill="#63b8ff" stroke="#63b8ff" points="591.92,-590.42 585.51,-598.85 595.78,-596.26 591.92,-590.42"/>
</a>
</g>
</g>
<!-- Node3 -->
<g id="Node000003" class="node">
<title>Node3</title>
<g id="a_Node000003"><a xlink:href="demo_8h.html" target="_top" xlink:title=" ">
<polygon fill="white" stroke="#666666" points="446.5,-318 337.5,-318 337.5,-298 446.5,-298 446.5,-318"/>
<text text-anchor="middle" x="392" y="-304.5" font-family="Helvetica,sans-Serif" font-size="10.00">demo/include/demo.h</text>
</a>
</g>
</g>
<!-- Node2&#45;&gt;Node3 -->
<g id="edge2_Node000002_Node000003" class="edge">
<title>Node2&#45;&gt;Node3</title>
<g id="a_edge2_Node000002_Node000003"><a xlink:title=" ">
<path fill="none" stroke="#63b8ff" d="M477.97,-359.73C454.76,-346.04 425.74,-328.91 408.05,-318.47"/>
<polygon fill="#63b8ff" stroke="#63b8ff" points="476.13,-362.72 486.52,-364.78 479.69,-356.69 476.13,-362.72"/>
</a>
</g>
</g>
<!-- Node4 -->
<g id="Node000004" class="node">
<title>Node4</title>
<g id="a_Node000004"><a xlink:href="raytracing_8h.html" target="_top" xlink:title=" ">
<polygon fill="white" stroke="#666666" points="477,-256 377,-256 377,-224 477,-224 477,-256"/>
<text text-anchor="start" x="385" y="-242.5" font-family="Helvetica,sans-Serif" font-size="10.00">demo/include/detail</text>
<text text-anchor="middle" x="427" y="-230.5" font-family="Helvetica,sans-Serif" font-size="10.00">/raytracing.h</text>
</a>
</g>
</g>
<!-- Node2&#45;&gt;Node4 -->
<g id="edge25_Node000002_Node000004" class="edge">
<title>Node2&#45;&gt;Node4</title>
<g id="a_edge25_Node000002_Node000004"><a xlink:title=" ">
<path fill="none" stroke="#63b8ff" d="M498.67,-356.34C480.69,-327.4 451.43,-280.31 436.46,-256.23"/>
<polygon fill="#63b8ff" stroke="#63b8ff" points="495.47,-357.82 503.72,-364.47 501.42,-354.12 495.47,-357.82"/>
</a>
</g>
</g>
<!-- Node5 -->
<g id="Node000005" class="node">
<title>Node5</title>
<g id="a_Node000005"><a xlink:href="renderer_8h.html" target="_top" xlink:title=" ">
<polygon fill="white" stroke="#666666" points="416.12,-76 295.88,-76 295.88,-56 416.12,-56 416.12,-76"/>
<text text-anchor="middle" x="356" y="-62.5" font-family="Helvetica,sans-Serif" font-size="10.00">demo/include/renderer.h</text>
</a>
</g>
</g>
<!-- Node2&#45;&gt;Node5 -->
<g id="edge29_Node000002_Node000005" class="edge">
<title>Node2&#45;&gt;Node5</title>
<g id="a_edge29_Node000002_Node000005"><a xlink:title=" ">
<path fill="none" stroke="#63b8ff" d="M438.7,-378.35C398.99,-372.63 353.37,-358.31 328,-324 269.43,-244.79 331.88,-112.47 350.88,-76.35"/>
<polygon fill="#63b8ff" stroke="#63b8ff" points="438.13,-381.8 448.49,-379.58 439.01,-374.86 438.13,-381.8"/>
</a>
</g>
</g>
<!-- Node7 -->
<g id="Node000007" class="node">
<title>Node7</title>
<g id="a_Node000007"><a xlink:href="renderer_8cpp.html" target="_top" xlink:title=" ">
<polygon fill="white" stroke="#666666" points="529.75,-20 416.25,-20 416.25,0 529.75,0 529.75,-20"/>
<text text-anchor="middle" x="473" y="-6.5" font-family="Helvetica,sans-Serif" font-size="10.00">demo/src/renderer.cpp</text>
</a>
</g>
</g>
<!-- Node2&#45;&gt;Node7 -->
<g id="edge33_Node000002_Node000007" class="edge">
<title>Node2&#45;&gt;Node7</title>
<g id="a_edge33_Node000002_Node000007"><a xlink:title=" ">
<path fill="none" stroke="#63b8ff" d="M589.39,-367.79C656.79,-351.14 745,-315.18 745,-241 745,-241 745,-241 745,-121 745,-85.61 728.69,-75.27 699,-56 648.16,-23 578.34,-13.3 529.82,-10.88"/>
<polygon fill="#63b8ff" stroke="#63b8ff" points="588.75,-364.35 579.82,-370.05 590.36,-371.16 588.75,-364.35"/>
</a>
</g>
</g>
<!-- Node8 -->
<g id="Node000008" class="node">
<title>Node8</title>
<g id="a_Node000008"><a xlink:href="scene_8h.html" target="_top" xlink:title=" ">
<polygon fill="white" stroke="#666666" points="284.62,-188 173.38,-188 173.38,-168 284.62,-168 284.62,-188"/>
<text text-anchor="middle" x="229" y="-174.5" font-family="Helvetica,sans-Serif" font-size="10.00">demo/include/scene.h</text>
</a>
</g>
</g>
<!-- Node2&#45;&gt;Node8 -->
<g id="edge30_Node000002_Node000008" class="edge">
<title>Node2&#45;&gt;Node8</title>
<g id="a_edge30_Node000002_Node000008"><a xlink:title=" ">
<path fill="none" stroke="#63b8ff" d="M438.88,-377.81C392.63,-372.21 334.78,-358.17 295,-324 258.3,-292.48 272.58,-267.79 252,-224 246.1,-211.45 238.72,-197.25 233.94,-188.22"/>
<polygon fill="#63b8ff" stroke="#63b8ff" points="438.24,-381.26 448.56,-378.87 439,-374.3 438.24,-381.26"/>
</a>
</g>
</g>
<!-- Node9 -->
<g id="Node000009" class="node">
<title>Node9</title>
<g id="a_Node000009"><a xlink:href="subsystems_8h.html" target="_top" xlink:title=" ">
<polygon fill="white" stroke="#666666" points="593.12,-132 454.88,-132 454.88,-112 593.12,-112 593.12,-132"/>
<text text-anchor="middle" x="524" y="-118.5" font-family="Helvetica,sans-Serif" font-size="10.00">demo/include/subsystems.h</text>
</a>
</g>
</g>
<!-- Node2&#45;&gt;Node9 -->
<g id="edge31_Node000002_Node000009" class="edge">
<title>Node2&#45;&gt;Node9</title>
<g id="a_edge31_Node000002_Node000009"><a xlink:title=" ">
<path fill="none" stroke="#63b8ff" d="M581.63,-360.96C599.95,-352.39 618.01,-340.45 630,-324 666,-274.64 645.54,-248.93 650,-188 650.65,-179.13 655.12,-175.27 650,-168 636.82,-149.3 615.13,-138.33 593.43,-131.9"/>
<polygon fill="#63b8ff" stroke="#63b8ff" points="580.33,-357.71 572.56,-364.91 583.12,-364.13 580.33,-357.71"/>
</a>
</g>
</g>
<!-- Node10 -->
<g id="Node000010" class="node">
<title>Node10</title>
<g id="a_Node000010"><a xlink:href="subsystems_8cpp.html" target="_top" xlink:title=" ">
<polygon fill="white" stroke="#666666" points="689.75,-76 558.25,-76 558.25,-56 689.75,-56 689.75,-76"/>
<text text-anchor="middle" x="624" y="-62.5" font-family="Helvetica,sans-Serif" font-size="10.00">demo/src/subsystems.cpp</text>
</a>
</g>
</g>
<!-- Node2&#45;&gt;Node10 -->
<g id="edge35_Node000002_Node000010" class="edge">
<title>Node2&#45;&gt;Node10</title>
<g id="a_edge35_Node000002_Node000010"><a xlink:title=" ">
<path fill="none" stroke="#63b8ff" d="M582.96,-361.87C638.37,-341.8 707,-304.19 707,-241 707,-241 707,-241 707,-177 707,-131.78 661.76,-93.38 638.08,-76.37"/>
<polygon fill="#63b8ff" stroke="#63b8ff" points="582.15,-358.44 573.86,-365.04 584.45,-365.06 582.15,-358.44"/>
</a>
</g>
</g>
<!-- Node11 -->
<g id="Node000011" class="node">
<title>Node11</title>
<g id="a_Node000011"><a xlink:href="scene_8cpp.html" target="_top" xlink:title=" ">
<polygon fill="white" stroke="#666666" points="132.25,-132 27.75,-132 27.75,-112 132.25,-112 132.25,-132"/>
<text text-anchor="middle" x="80" y="-118.5" font-family="Helvetica,sans-Serif" font-size="10.00">demo/src/scene.cpp</text>
</a>
</g>
</g>
<!-- Node2&#45;&gt;Node11 -->
<g id="edge34_Node000002_Node000011" class="edge">
<title>Node2&#45;&gt;Node11</title>
<g id="a_edge34_Node000002_Node000011"><a xlink:title=" ">
<path fill="none" stroke="#63b8ff" d="M438.59,-372.91C377.55,-364.86 290.03,-349.88 217,-324 156.65,-302.61 128.29,-307.31 90,-256 61.61,-217.96 72.28,-155.56 77.65,-132.2"/>
<polygon fill="#63b8ff" stroke="#63b8ff" points="437.8,-376.34 448.17,-374.14 438.7,-369.4 437.8,-376.34"/>
</a>
</g>
</g>
<!-- Node12 -->
<g id="Node000012" class="node">
<title>Node12</title>
<g id="a_Node000012"><a xlink:href="raytracing_8cpp.html" target="_top" xlink:title=" ">
<polygon fill="white" stroke="#666666" points="640.62,-188 493.38,-188 493.38,-168 640.62,-168 640.62,-188"/>
<text text-anchor="middle" x="567" y="-174.5" font-family="Helvetica,sans-Serif" font-size="10.00">demo/src/detail/raytracing.cpp</text>
</a>
</g>
</g>
<!-- Node2&#45;&gt;Node12 -->
<g id="edge32_Node000002_Node000012" class="edge">
<title>Node2&#45;&gt;Node12</title>
<g id="a_edge32_Node000002_Node000012"><a xlink:title=" ">
<path fill="none" stroke="#63b8ff" d="M571.2,-360.56C587.25,-351.88 602.82,-339.97 612,-324 638.94,-277.16 593.88,-212.36 574.85,-188.39"/>
<polygon fill="#63b8ff" stroke="#63b8ff" points="569.93,-357.28 562.55,-364.88 573.06,-363.55 569.93,-357.28"/>
</a>
</g>
</g>
<!-- Node13 -->
<g id="Node000013" class="node">
<title>Node13</title>
<g id="a_Node000013"><a xlink:href="dispatch_8h.html" target="_top" xlink:title=" ">
<polygon fill="white" stroke="#666666" points="603,-324 503,-324 503,-292 603,-292 603,-324"/>
<text text-anchor="start" x="511" y="-310.5" font-family="Helvetica,sans-Serif" font-size="10.00">demo/include/detail</text>
<text text-anchor="middle" x="553" y="-298.5" font-family="Helvetica,sans-Serif" font-size="10.00">/dispatch.h</text>
</a>
</g>
</g>
<!-- Node2&#45;&gt;Node13 -->
<g id="edge22_Node000002_Node000013" class="edge">
<title>Node2&#45;&gt;Node13</title>
<g id="a_edge22_Node000002_Node000013"><a xlink:title=" ">
<path fill="none" stroke="#63b8ff" d="M527.64,-355.81C533.34,-345.29 539.78,-333.41 544.74,-324.25"/>
<polygon fill="#63b8ff" stroke="#63b8ff" points="524.68,-353.94 522.99,-364.4 530.83,-357.27 524.68,-353.94"/>
</a>
</g>
</g>
<!-- Node14 -->
<g id="Node000014" class="node">
<title>Node14</title>
<g id="a_Node000014"><a xlink:href="material_8h.html" target="_top" xlink:title=" ">
<polygon fill="white" stroke="#666666" points="242.75,-250 123.25,-250 123.25,-230 242.75,-230 242.75,-250"/>
<text text-anchor="middle" x="183" y="-236.5" font-family="Helvetica,sans-Serif" font-size="10.00">demo/include/material.h</text>
</a>
</g>
</g>
<!-- Node2&#45;&gt;Node14 -->
<g id="edge26_Node000002_Node000014" class="edge">
<title>Node2&#45;&gt;Node14</title>
<g id="a_edge26_Node000002_Node000014"><a xlink:title=" ">
<path fill="none" stroke="#63b8ff" d="M438.63,-376.56C384.87,-370.58 312.57,-356.6 257,-324 225.03,-305.25 199.39,-267.94 188.57,-250.45"/>
<polygon fill="#63b8ff" stroke="#63b8ff" points="437.99,-380.01 448.3,-377.56 438.71,-373.05 437.99,-380.01"/>
</a>
</g>
</g>
<!-- Node15 -->
<g id="Node000015" class="node">
<title>Node15</title>
<g id="a_Node000015"><a xlink:href="hybrid__renderer_8cpp.html" target="_top" xlink:title=" ">
<polygon fill="white" stroke="#666666" points="894.5,-324 773.5,-324 773.5,-292 894.5,-292 894.5,-324"/>
<text text-anchor="start" x="781.5" y="-310.5" font-family="Helvetica,sans-Serif" font-size="10.00">hybrid&#45;renderer&#45;lib</text>
<text text-anchor="middle" x="834" y="-298.5" font-family="Helvetica,sans-Serif" font-size="10.00">/src/hybrid_renderer.cpp</text>
</a>
</g>
</g>
<!-- Node2&#45;&gt;Node15 -->
<g id="edge36_Node000002_Node000015" class="edge">
<title>Node2&#45;&gt;Node15</title>
<g id="a_edge36_Node000002_Node000015"><a xlink:title=" ">
<path fill="none" stroke="#63b8ff" d="M589.32,-364.05C645.41,-351.43 721,-334.42 773.25,-322.67"/>
<polygon fill="#63b8ff" stroke="#63b8ff" points="588.84,-360.57 579.85,-366.18 590.37,-367.4 588.84,-360.57"/>
</a>
</g>
</g>
<!-- Node3&#45;&gt;Node4 -->
<g id="edge3_Node000003_Node000004" class="edge">
<title>Node3&#45;&gt;Node4</title>
<g id="a_edge3_Node000003_Node000004"><a xlink:title=" ">
<path fill="none" stroke="#63b8ff" d="M402.4,-287.39C407.67,-277.45 413.98,-265.56 418.89,-256.3"/>
<polygon fill="#63b8ff" stroke="#63b8ff" points="399.32,-285.73 397.72,-296.21 405.5,-289.01 399.32,-285.73"/>
</a>
</g>
</g>
<!-- Node6 -->
<g id="Node000006" class="node">
<title>Node6</title>
<g id="a_Node000006"><a xlink:href="main_8cpp.html" target="_top" xlink:title=" ">
<polygon fill="white" stroke="#666666" points="278.62,-20 179.38,-20 179.38,0 278.62,0 278.62,-20"/>
<text text-anchor="middle" x="229" y="-6.5" font-family="Helvetica,sans-Serif" font-size="10.00">demo/src/main.cpp</text>
</a>
</g>
</g>
<!-- Node3&#45;&gt;Node6 -->
<g id="edge20_Node000003_Node000006" class="edge">
<title>Node3&#45;&gt;Node6</title>
<g id="a_edge20_Node000003_Node000006"><a xlink:title=" ">
<path fill="none" stroke="#63b8ff" d="M325.62,-305.9C262.34,-302.57 165.72,-291.42 90,-256 42.32,-233.7 0,-231.64 0,-179 0,-179 0,-179 0,-121 0,-42.16 111.65,-19.79 179.03,-13.47"/>
<polygon fill="#63b8ff" stroke="#63b8ff" points="325.38,-309.39 335.53,-306.36 325.7,-302.4 325.38,-309.39"/>
</a>
</g>
</g>
<!-- Node3&#45;&gt;Node11 -->
<g id="edge21_Node000003_Node000011" class="edge">
<title>Node3&#45;&gt;Node11</title>
<g id="a_edge21_Node000003_Node000011"><a xlink:title=" ">
<path fill="none" stroke="#63b8ff" d="M325.81,-302.96C253.52,-297.19 144.01,-284.01 114,-256 78.11,-222.5 77.96,-156.79 79.28,-132.4"/>
<polygon fill="#63b8ff" stroke="#63b8ff" points="325.33,-306.44 335.57,-303.71 325.86,-299.46 325.33,-306.44"/>
</a>
</g>
</g>
<!-- Node3&#45;&gt;Node12 -->
<g id="edge19_Node000003_Node000012" class="edge">
<title>Node3&#45;&gt;Node12</title>
<g id="a_edge19_Node000003_Node000012"><a xlink:title=" ">
<path fill="none" stroke="#63b8ff" d="M423.27,-292.63C442.17,-283.32 466.32,-270.3 486,-256 515.19,-234.78 544.72,-203.75 558.69,-188.36"/>
<polygon fill="#63b8ff" stroke="#63b8ff" points="421.95,-289.38 414.46,-296.87 424.99,-295.68 421.95,-289.38"/>
</a>
</g>
</g>
<!-- Node4&#45;&gt;Node5 -->
<g id="edge4_Node000004_Node000005" class="edge">
<title>Node4&#45;&gt;Node5</title>
<g id="a_edge4_Node000004_Node000005"><a xlink:title=" ">
<path fill="none" stroke="#63b8ff" d="M416.36,-213.21C400.22,-174.13 370.34,-101.74 359.8,-76.21"/>
<polygon fill="#63b8ff" stroke="#63b8ff" points="413.07,-214.43 420.12,-222.34 419.54,-211.76 413.07,-214.43"/>
</a>
</g>
</g>
<!-- Node4&#45;&gt;Node6 -->
<g id="edge17_Node000004_Node000006" class="edge">
<title>Node4&#45;&gt;Node6</title>
<g id="a_edge17_Node000004_Node000006"><a xlink:title=" ">
<path fill="none" stroke="#63b8ff" d="M406.33,-215.2C363.31,-165.66 265.77,-53.34 237.08,-20.3"/>
<polygon fill="#63b8ff" stroke="#63b8ff" points="403.51,-217.29 412.71,-222.54 408.79,-212.7 403.51,-217.29"/>
</a>
</g>
</g>
<!-- Node4&#45;&gt;Node7 -->
<g id="edge18_Node000004_Node000007" class="edge">
<title>Node4&#45;&gt;Node7</title>
<g id="a_edge18_Node000004_Node000007"><a xlink:title=" ">
<path fill="none" stroke="#63b8ff" d="M430.07,-212.57C433.28,-186.77 438.84,-146.48 446,-112 453.09,-77.88 464.73,-38.13 470.11,-20.38"/>
<polygon fill="#63b8ff" stroke="#63b8ff" points="426.64,-211.8 428.91,-222.15 433.59,-212.64 426.64,-211.8"/>
</a>
</g>
</g>
<!-- Node4&#45;&gt;Node8 -->
<g id="edge7_Node000004_Node000008" class="edge">
<title>Node4&#45;&gt;Node8</title>
<g id="a_edge7_Node000004_Node000008"><a xlink:title=" ">
<path fill="none" stroke="#63b8ff" d="M365.93,-220.49C330.93,-209.89 288.48,-197.02 260.21,-188.46"/>
<polygon fill="#63b8ff" stroke="#63b8ff" points="364.49,-223.71 375.08,-223.27 366.52,-217.02 364.49,-223.71"/>
</a>
</g>
</g>
<!-- Node4&#45;&gt;Node9 -->
<g id="edge15_Node000004_Node000009" class="edge">
<title>Node4&#45;&gt;Node9</title>
<g id="a_edge15_Node000004_Node000009"><a xlink:title=" ">
<path fill="none" stroke="#63b8ff" d="M446.03,-214.68C456.97,-200.86 471.07,-183.3 484,-168 494.66,-155.38 507.4,-141.2 515.59,-132.19"/>
<polygon fill="#63b8ff" stroke="#63b8ff" points="443.39,-212.38 439.95,-222.4 448.89,-216.71 443.39,-212.38"/>
</a>
</g>
</g>
<!-- Node4&#45;&gt;Node12 -->
<g id="edge16_Node000004_Node000012" class="edge">
<title>Node4&#45;&gt;Node12</title>
<g id="a_edge16_Node000004_Node000012"><a xlink:title=" ">
<path fill="none" stroke="#63b8ff" d="M473.44,-219.1C497.57,-208.75 525.93,-196.6 545.05,-188.41"/>
<polygon fill="#63b8ff" stroke="#63b8ff" points="472.26,-215.8 464.44,-222.95 475.01,-222.23 472.26,-215.8"/>
</a>
</g>
</g>
<!-- Node5&#45;&gt;Node6 -->
<g id="edge5_Node000005_Node000006" class="edge">
<title>Node5&#45;&gt;Node6</title>
<g id="a_edge5_Node000005_Node000006"><a xlink:title=" ">
<path fill="none" stroke="#63b8ff" d="M323.4,-51.14C300.79,-41.52 271.26,-28.97 251.29,-20.48"/>
<polygon fill="#63b8ff" stroke="#63b8ff" points="321.91,-54.31 332.49,-55 324.65,-47.87 321.91,-54.31"/>
</a>
</g>
</g>
<!-- Node5&#45;&gt;Node7 -->
<g id="edge6_Node000005_Node000007" class="edge">
<title>Node5&#45;&gt;Node7</title>
<g id="a_edge6_Node000005_Node000007"><a xlink:title=" ">
<path fill="none" stroke="#63b8ff" d="M386.6,-50.88C407.36,-41.3 434.24,-28.89 452.46,-20.48"/>
<polygon fill="#63b8ff" stroke="#63b8ff" points="385.37,-47.59 377.75,-54.96 388.3,-53.95 385.37,-47.59"/>
</a>
</g>
</g>
<!-- Node8&#45;&gt;Node5 -->
<g id="edge8_Node000008_Node000005" class="edge">
<title>Node8&#45;&gt;Node5</title>
<g id="a_edge8_Node000008_Node000005"><a xlink:title=" ">
<path fill="none" stroke="#63b8ff" d="M248.46,-160.15C275.56,-136.67 323.76,-94.93 345.2,-76.35"/>
<polygon fill="#63b8ff" stroke="#63b8ff" points="246.24,-157.44 240.97,-166.63 250.82,-162.73 246.24,-157.44"/>
</a>
</g>
</g>
<!-- Node8&#45;&gt;Node6 -->
<g id="edge13_Node000008_Node000006" class="edge">
<title>Node8&#45;&gt;Node6</title>
<g id="a_edge13_Node000008_Node000006"><a xlink:title=" ">
<path fill="none" stroke="#63b8ff" d="M229,-156.5C229,-120.27 229,-46.31 229,-20.3"/>
<polygon fill="#63b8ff" stroke="#63b8ff" points="225.5,-156.09 229,-166.09 232.5,-156.09 225.5,-156.09"/>
</a>
</g>
</g>
<!-- Node8&#45;&gt;Node9 -->
<g id="edge9_Node000008_Node000009" class="edge">
<title>Node8&#45;&gt;Node9</title>
<g id="a_edge9_Node000008_Node000009"><a xlink:title=" ">
<path fill="none" stroke="#63b8ff" d="M291.83,-165.5C345.6,-155.66 422.07,-141.66 472.34,-132.46"/>
<polygon fill="#63b8ff" stroke="#63b8ff" points="291.42,-162.02 282.21,-167.26 292.68,-168.9 291.42,-162.02"/>
</a>
</g>
</g>
<!-- Node8&#45;&gt;Node11 -->
<g id="edge14_Node000008_Node000011" class="edge">
<title>Node8&#45;&gt;Node11</title>
<g id="a_edge14_Node000008_Node000011"><a xlink:title=" ">
<path fill="none" stroke="#63b8ff" d="M192.55,-163.79C165.81,-154.1 130.11,-141.16 106.16,-132.48"/>
<polygon fill="#63b8ff" stroke="#63b8ff" points="191.03,-166.96 201.62,-167.08 193.41,-160.38 191.03,-166.96"/>
</a>
</g>
</g>
<!-- Node9&#45;&gt;Node5 -->
<g id="edge10_Node000009_Node000005" class="edge">
<title>Node9&#45;&gt;Node5</title>
<g id="a_edge10_Node000009_Node000005"><a xlink:title=" ">
<path fill="none" stroke="#63b8ff" d="M484.11,-108.18C453.82,-98.44 412.86,-85.28 385.49,-76.48"/>
<polygon fill="#63b8ff" stroke="#63b8ff" points="482.7,-111.4 493.3,-111.13 484.85,-104.74 482.7,-111.4"/>
</a>
</g>
</g>
<!-- Node9&#45;&gt;Node7 -->
<g id="edge11_Node000009_Node000007" class="edge">
<title>Node9&#45;&gt;Node7</title>
<g id="a_edge11_Node000009_Node000007"><a xlink:title=" ">
<path fill="none" stroke="#63b8ff" d="M514.87,-101.3C503.8,-77.43 485.61,-38.2 477.34,-20.35"/>
<polygon fill="#63b8ff" stroke="#63b8ff" points="511.63,-102.65 519.02,-110.25 517.98,-99.7 511.63,-102.65"/>
</a>
</g>
</g>
<!-- Node9&#45;&gt;Node10 -->
<g id="edge12_Node000009_Node000010" class="edge">
<title>Node9&#45;&gt;Node10</title>
<g id="a_edge12_Node000009_Node000010"><a xlink:title=" ">
<path fill="none" stroke="#63b8ff" d="M551.13,-106.35C568.74,-96.84 591.15,-84.74 606.45,-76.48"/>
<polygon fill="#63b8ff" stroke="#63b8ff" points="549.89,-103.04 542.75,-110.87 553.21,-109.2 549.89,-103.04"/>
</a>
</g>
</g>
<!-- Node13&#45;&gt;Node4 -->
<g id="edge23_Node000013_Node000004" class="edge">
<title>Node13&#45;&gt;Node4</title>
<g id="a_edge23_Node000013_Node000004"><a xlink:title=" ">
<path fill="none" stroke="#63b8ff" d="M513.3,-286.2C494.85,-276.54 473.31,-265.26 456.36,-256.38"/>
<polygon fill="#63b8ff" stroke="#63b8ff" points="511.64,-289.28 522.12,-290.82 514.88,-283.08 511.64,-289.28"/>
</a>
</g>
</g>
<!-- Node13&#45;&gt;Node12 -->
<g id="edge24_Node000013_Node000012" class="edge">
<title>Node13&#45;&gt;Node12</title>
<g id="a_edge24_Node000013_Node000012"><a xlink:title=" ">
<path fill="none" stroke="#63b8ff" d="M555.92,-280.31C559.06,-251.57 563.89,-207.42 565.98,-188.33"/>
<polygon fill="#63b8ff" stroke="#63b8ff" points="552.46,-279.73 554.85,-290.06 559.42,-280.5 552.46,-279.73"/>
</a>
</g>
</g>
<!-- Node14&#45;&gt;Node6 -->
<g id="edge28_Node000014_Node000006" class="edge">
<title>Node14&#45;&gt;Node6</title>
<g id="a_edge28_Node000014_Node000006"><a xlink:title=" ">
<path fill="none" stroke="#63b8ff" d="M172.95,-219.88C166.7,-205.68 160.47,-185.78 164,-168 175.74,-108.97 210.04,-44.32 223.5,-20.5"/>
<polygon fill="#63b8ff" stroke="#63b8ff" points="169.63,-221.05 177.13,-228.54 175.94,-218.01 169.63,-221.05"/>
</a>
</g>
</g>
<!-- Node14&#45;&gt;Node8 -->
<g id="edge27_Node000014_Node000008" class="edge">
<title>Node14&#45;&gt;Node8</title>
<g id="a_edge27_Node000014_Node000008"><a xlink:title=" ">
<path fill="none" stroke="#63b8ff" d="M197.11,-220.6C205.37,-209.83 215.43,-196.7 222.01,-188.11"/>
<polygon fill="#63b8ff" stroke="#63b8ff" points="194.42,-218.36 191.11,-228.42 199.97,-222.62 194.42,-218.36"/>
</a>
</g>
</g>
<!-- Node16&#45;&gt;Node2 -->
<g id="edge38_Node000016_Node000002" class="edge">
<title>Node16&#45;&gt;Node2</title>
<g id="a_edge38_Node000016_Node000002"><a xlink:title=" ">
<path fill="none" stroke="#63b8ff" d="M583.89,-433.01C567.57,-421.33 549.24,-408.22 535.45,-398.35"/>
<polygon fill="#63b8ff" stroke="#63b8ff" points="581.82,-435.83 591.98,-438.81 585.89,-430.14 581.82,-435.83"/>
</a>
</g>
</g>
<!-- Node17 -->
<g id="Node000017" class="node">
<title>Node17</title>
<g id="a_Node000017"><a xlink:href="render__system_8cpp.html" target="_top" xlink:title=" ">
<polygon fill="white" stroke="#666666" points="744.75,-404 637.25,-404 637.25,-360 744.75,-360 744.75,-404"/>
<text text-anchor="start" x="645.25" y="-390.5" font-family="Helvetica,sans-Serif" font-size="10.00">hybrid&#45;renderer&#45;lib</text>
<text text-anchor="start" x="645.25" y="-378.5" font-family="Helvetica,sans-Serif" font-size="10.00">/src/renderer_internal</text>
<text text-anchor="middle" x="691" y="-366.5" font-family="Helvetica,sans-Serif" font-size="10.00">/render_system.cpp</text>
</a>
</g>
</g>
<!-- Node16&#45;&gt;Node17 -->
<g id="edge39_Node000016_Node000017" class="edge">
<title>Node16&#45;&gt;Node17</title>
<g id="a_edge39_Node000016_Node000017"><a xlink:title=" ">
<path fill="none" stroke="#63b8ff" d="M649.1,-431.06C656.88,-422.13 665.25,-412.54 672.44,-404.29"/>
<polygon fill="#63b8ff" stroke="#63b8ff" points="646.51,-428.71 642.58,-438.55 651.79,-433.31 646.51,-428.71"/>
</a>
</g>
</g>
<!-- Node18&#45;&gt;Node2 -->
<g id="edge41_Node000018_Node000002" class="edge">
<title>Node18&#45;&gt;Node2</title>
<g id="a_edge41_Node000018_Node000002"><a xlink:title=" ">
<path fill="none" stroke="#63b8ff" d="M462.4,-509.62C467.13,-501.43 471.97,-492.5 476,-484 489.95,-454.54 502.49,-418.47 509.1,-398.38"/>
<polygon fill="#63b8ff" stroke="#63b8ff" points="459.39,-507.83 457.33,-518.23 465.42,-511.39 459.39,-507.83"/>
</a>
</g>
</g>
<!-- Node18&#45;&gt;Node16 -->
<g id="edge45_Node000018_Node000016" class="edge">
<title>Node18&#45;&gt;Node16</title>
<g id="a_edge45_Node000018_Node000016"><a xlink:title=" ">
<path fill="none" stroke="#63b8ff" d="M502.53,-515.2C525.55,-505.23 551.6,-493.94 573.56,-484.42"/>
<polygon fill="#63b8ff" stroke="#63b8ff" points="501.36,-511.9 493.57,-519.08 504.14,-518.32 501.36,-511.9"/>
</a>
</g>
</g>
<!-- Node18&#45;&gt;Node17 -->
<g id="edge47_Node000018_Node000017" class="edge">
<title>Node18&#45;&gt;Node17</title>
<g id="a_edge47_Node000018_Node000017"><a xlink:title=" ">
<path fill="none" stroke="#63b8ff" d="M516.86,-529.01C586.81,-516.9 682.8,-498.03 694,-484 711.84,-461.65 705.75,-426.82 698.96,-404.46"/>
<polygon fill="#63b8ff" stroke="#63b8ff" points="516.63,-525.49 507.36,-530.63 517.81,-532.39 516.63,-525.49"/>
</a>
</g>
</g>
<!-- Node19 -->
<g id="Node000019" class="node">
<title>Node19</title>
<g id="a_Node000019"><a xlink:href="render__pass_8h.html" target="_top" xlink:title=" ">
<polygon fill="white" stroke="#666666" points="337.38,-484 212.62,-484 212.62,-440 337.38,-440 337.38,-484"/>
<text text-anchor="start" x="220.62" y="-470.5" font-family="Helvetica,sans-Serif" font-size="10.00">hybrid&#45;renderer&#45;lib</text>
<text text-anchor="start" x="220.62" y="-458.5" font-family="Helvetica,sans-Serif" font-size="10.00">/include/renderer_internal</text>
<text text-anchor="middle" x="275" y="-446.5" font-family="Helvetica,sans-Serif" font-size="10.00">/render_pass.h</text>
</a>
</g>
</g>
<!-- Node18&#45;&gt;Node19 -->
<g id="edge42_Node000018_Node000019" class="edge">
<title>Node18&#45;&gt;Node19</title>
<g id="a_edge42_Node000018_Node000019"><a xlink:title=" ">
<path fill="none" stroke="#63b8ff" d="M386.86,-514.93C365.51,-505.02 341.46,-493.86 321.14,-484.42"/>
<polygon fill="#63b8ff" stroke="#63b8ff" points="385.18,-518.01 395.72,-519.05 388.12,-511.66 385.18,-518.01"/>
</a>
</g>
</g>
<!-- Node20 -->
<g id="Node000020" class="node">
<title>Node20</title>
<g id="a_Node000020"><a xlink:href="render__pass_8cpp.html" target="_top" xlink:title=" ">
<polygon fill="white" stroke="#666666" points="283.75,-404 176.25,-404 176.25,-360 283.75,-360 283.75,-404"/>
<text text-anchor="start" x="184.25" y="-390.5" font-family="Helvetica,sans-Serif" font-size="10.00">hybrid&#45;renderer&#45;lib</text>
<text text-anchor="start" x="184.25" y="-378.5" font-family="Helvetica,sans-Serif" font-size="10.00">/src/renderer_internal</text>
<text text-anchor="middle" x="230" y="-366.5" font-family="Helvetica,sans-Serif" font-size="10.00">/render_pass.cpp</text>
</a>
</g>
</g>
<!-- Node18&#45;&gt;Node20 -->
<g id="edge46_Node000018_Node000020" class="edge">
<title>Node18&#45;&gt;Node20</title>
<g id="a_edge46_Node000018_Node000020"><a xlink:title=" ">
<path fill="none" stroke="#63b8ff" d="M369.01,-533.33C306.62,-525.15 224.34,-509.77 204,-484 185.71,-460.84 201.25,-426.22 214.96,-404.13"/>
<polygon fill="#63b8ff" stroke="#63b8ff" points="368.54,-536.8 378.9,-534.58 369.42,-529.85 368.54,-536.8"/>
</a>
</g>
</g>
<!-- Node21 -->
<g id="Node000021" class="node">
<title>Node21</title>
<g id="a_Node000021"><a xlink:href="shader__database_8cpp.html" target="_top" xlink:title=" ">
<polygon fill="white" stroke="#666666" points="467,-484 355,-484 355,-440 467,-440 467,-484"/>
<text text-anchor="start" x="363" y="-470.5" font-family="Helvetica,sans-Serif" font-size="10.00">hybrid&#45;renderer&#45;lib</text>
<text text-anchor="start" x="363" y="-458.5" font-family="Helvetica,sans-Serif" font-size="10.00">/src/renderer_internal</text>
<text text-anchor="middle" x="411" y="-446.5" font-family="Helvetica,sans-Serif" font-size="10.00">/shader_database.cpp</text>
</a>
</g>
</g>
<!-- Node18&#45;&gt;Node21 -->
<g id="edge48_Node000018_Node000021" class="edge">
<title>Node18&#45;&gt;Node21</title>
<g id="a_edge48_Node000018_Node000021"><a xlink:title=" ">
<path fill="none" stroke="#63b8ff" d="M429.91,-509.1C426.48,-500.74 422.87,-491.94 419.73,-484.29"/>
<polygon fill="#63b8ff" stroke="#63b8ff" points="426.65,-510.36 433.68,-518.29 433.12,-507.71 426.65,-510.36"/>
</a>
</g>
</g>
<!-- Node19&#45;&gt;Node2 -->
<g id="edge43_Node000019_Node000002" class="edge">
<title>Node19&#45;&gt;Node2</title>
<g id="a_edge43_Node000019_Node000002"><a xlink:title=" ">
<path fill="none" stroke="#63b8ff" d="M348.44,-437.03C386.94,-424.47 432.98,-409.44 466.73,-398.43"/>
<polygon fill="#63b8ff" stroke="#63b8ff" points="347.65,-433.61 339.23,-440.04 349.83,-440.26 347.65,-433.61"/>
</a>
</g>
</g>
<!-- Node19&#45;&gt;Node20 -->
<g id="edge44_Node000019_Node000020" class="edge">
<title>Node19&#45;&gt;Node20</title>
<g id="a_edge44_Node000019_Node000020"><a xlink:title=" ">
<path fill="none" stroke="#63b8ff" d="M257.08,-429.94C252.12,-421.34 246.84,-412.2 242.28,-404.29"/>
<polygon fill="#63b8ff" stroke="#63b8ff" points="253.92,-431.46 261.95,-438.38 259.98,-427.96 253.92,-431.46"/>
</a>
</g>
</g>
</g>
</svg>
