<?xml version="1.0" encoding="UTF-8" standalone="no"?>
<!DOCTYPE svg PUBLIC "-//W3C//DTD SVG 1.1//EN"
 "http://www.w3.org/Graphics/SVG/1.1/DTD/svg11.dtd">
<!-- Generated by graphviz version 10.0.1 (20240210.2158)
 -->
<!-- Title: hybrid&#45;renderer&#45;lib/include/renderer_internal/descriptor_management.h Pages: 1 -->
<svg width="510pt" height="176pt"
 viewBox="0.00 0.00 509.50 176.00" xmlns="http://www.w3.org/2000/svg" xmlns:xlink="http://www.w3.org/1999/xlink">
<g id="graph0" class="graph" transform="scale(1 1) rotate(0) translate(4 172)">
<title>hybrid&#45;renderer&#45;lib/include/renderer_internal/descriptor_management.h</title>
<!-- Node1 -->
<g id="Node000001" class="node">
<title>Node1</title>
<g id="a_Node000001"><a xlink:title=" ">
<polygon fill="#999999" stroke="#666666" points="140.38,-168 8.88,-168 8.88,-124 140.38,-124 140.38,-168"/>
<text text-anchor="start" x="16.88" y="-154.5" font-family="Helvetica,sans-Serif" font-size="10.00">hybrid&#45;renderer&#45;lib</text>
<text text-anchor="start" x="16.88" y="-142.5" font-family="Helvetica,sans-Serif" font-size="10.00">/include/renderer_internal</text>
<text text-anchor="middle" x="74.62" y="-130.5" font-family="Helvetica,sans-Serif" font-size="10.00">/descriptor_management.h</text>
</a>
</g>
</g>
<!-- Node2 -->
<g id="Node000002" class="node">
<title>Node2</title>
<g id="a_Node000002"><a xlink:title=" ">
<polygon fill="#e0e0e0" stroke="#999999" points="47,-82 12.25,-82 12.25,-62 47,-62 47,-82"/>
<text text-anchor="middle" x="29.62" y="-68.5" font-family="Helvetica,sans-Serif" font-size="10.00">map</text>
</a>
</g>
</g>
<!-- Node1&#45;&gt;Node2 -->
<g id="edge1_Node000001_Node000002" class="edge">
<title>Node1&#45;&gt;Node2</title>
<g id="a_edge1_Node000001_Node000002"><a xlink:title=" ">
<path fill="none" stroke="#63b8ff" d="M61.37,-123.79C55.05,-113.67 47.55,-101.68 41.43,-91.88"/>
<polygon fill="#63b8ff" stroke="#63b8ff" points="44.51,-90.22 36.25,-83.59 38.58,-93.93 44.51,-90.22"/>
</a>
</g>
</g>
<!-- Node3 -->
<g id="Node000003" class="node">
<title>Node3</title>
<g id="a_Node000003"><a xlink:title=" ">
<polygon fill="#e0e0e0" stroke="#999999" points="81.25,-20 0,-20 0,0 81.25,0 81.25,-20"/>
<text text-anchor="middle" x="40.62" y="-6.5" font-family="Helvetica,sans-Serif" font-size="10.00">vulkan/vulkan.h</text>
</a>
</g>
</g>
<!-- Node1&#45;&gt;Node3 -->
<g id="edge2_Node000001_Node000003" class="edge">
<title>Node1&#45;&gt;Node3</title>
<g id="a_edge2_Node000001_Node000003"><a xlink:title=" ">
<path fill="none" stroke="#63b8ff" d="M70.75,-123.62C67.31,-105.49 61.86,-78.87 55.62,-56 53.35,-47.66 50.42,-38.6 47.76,-30.81"/>
<polygon fill="#63b8ff" stroke="#63b8ff" points="51.15,-29.92 44.53,-21.64 44.55,-32.24 51.15,-29.92"/>
</a>
</g>
</g>
<!-- Node4 -->
<g id="Node000004" class="node">
<title>Node4</title>
<g id="a_Node000004"><a xlink:href="render__context_8h.html" target="_top" xlink:title=" ">
<polygon fill="white" stroke="#666666" points="255.62,-88 137.62,-88 137.62,-56 255.62,-56 255.62,-88"/>
<text text-anchor="start" x="145.62" y="-74.5" font-family="Helvetica,sans-Serif" font-size="10.00">renderer_internal/render</text>
<text text-anchor="middle" x="196.62" y="-62.5" font-family="Helvetica,sans-Serif" font-size="10.00">_context.h</text>
</a>
</g>
</g>
<!-- Node1&#45;&gt;Node4 -->
<g id="edge3_Node000001_Node000004" class="edge">
<title>Node1&#45;&gt;Node4</title>
<g id="a_edge3_Node000001_Node000004"><a xlink:title=" ">
<path fill="none" stroke="#63b8ff" d="M110.9,-123.59C126.57,-114.34 144.86,-103.55 160.52,-94.31"/>
<polygon fill="#63b8ff" stroke="#63b8ff" points="162.23,-97.36 169.07,-89.26 158.67,-91.33 162.23,-97.36"/>
</a>
</g>
</g>
<!-- Node4&#45;&gt;Node3 -->
<g id="edge9_Node000004_Node000003" class="edge">
<title>Node4&#45;&gt;Node3</title>
<g id="a_edge9_Node000004_Node000003"><a xlink:title=" ">
<path fill="none" stroke="#63b8ff" d="M156.45,-55.55C131.51,-45.96 99.77,-33.75 75.82,-24.54"/>
<polygon fill="#63b8ff" stroke="#63b8ff" points="77.09,-21.27 66.5,-20.95 74.58,-27.81 77.09,-21.27"/>
</a>
</g>
</g>
<!-- Node5 -->
<g id="Node000005" class="node">
<title>Node5</title>
<g id="a_Node000005"><a xlink:href="config_8h.html" target="_top" xlink:title=" ">
<polygon fill="white" stroke="#666666" points="149.5,-20 99.75,-20 99.75,0 149.5,0 149.5,-20"/>
<text text-anchor="middle" x="124.62" y="-6.5" font-family="Helvetica,sans-Serif" font-size="10.00">config.h</text>
</a>
</g>
</g>
<!-- Node4&#45;&gt;Node5 -->
<g id="edge4_Node000004_Node000005" class="edge">
<title>Node4&#45;&gt;Node5</title>
<g id="a_edge4_Node000004_Node000005"><a xlink:title=" ">
<path fill="none" stroke="#63b8ff" d="M178.08,-55.55C167.87,-47.04 155.2,-36.48 144.75,-27.77"/>
<polygon fill="#63b8ff" stroke="#63b8ff" points="147,-25.09 137.08,-21.38 142.52,-30.47 147,-25.09"/>
</a>
</g>
</g>
<!-- Node6 -->
<g id="Node000006" class="node">
<title>Node6</title>
<g id="a_Node000006"><a xlink:href="platform_8h.html" target="_top" xlink:title=" ">
<polygon fill="white" stroke="#666666" points="226,-20 167.25,-20 167.25,0 226,0 226,-20"/>
<text text-anchor="middle" x="196.62" y="-6.5" font-family="Helvetica,sans-Serif" font-size="10.00">platform.h</text>
</a>
</g>
</g>
<!-- Node4&#45;&gt;Node6 -->
<g id="edge5_Node000004_Node000006" class="edge">
<title>Node4&#45;&gt;Node6</title>
<g id="a_edge5_Node000004_Node000006"><a xlink:title=" ">
<path fill="none" stroke="#63b8ff" d="M196.62,-55.55C196.62,-48.34 196.62,-39.66 196.62,-31.88"/>
<polygon fill="#63b8ff" stroke="#63b8ff" points="200.13,-31.92 196.63,-21.92 193.13,-31.92 200.13,-31.92"/>
</a>
</g>
</g>
<!-- Node7 -->
<g id="Node000007" class="node">
<title>Node7</title>
<g id="a_Node000007"><a xlink:title=" ">
<polygon fill="#e0e0e0" stroke="#999999" points="301.25,-20 244,-20 244,0 301.25,0 301.25,-20"/>
<text text-anchor="middle" x="272.62" y="-6.5" font-family="Helvetica,sans-Serif" font-size="10.00">functional</text>
</a>
</g>
</g>
<!-- Node4&#45;&gt;Node7 -->
<g id="edge6_Node000004_Node000007" class="edge">
<title>Node4&#45;&gt;Node7</title>
<g id="a_edge6_Node000004_Node000007"><a xlink:title=" ">
<path fill="none" stroke="#63b8ff" d="M216.2,-55.55C227.08,-46.95 240.63,-36.26 251.72,-27.5"/>
<polygon fill="#63b8ff" stroke="#63b8ff" points="253.84,-30.29 259.52,-21.35 249.5,-24.8 253.84,-30.29"/>
</a>
</g>
</g>
<!-- Node8 -->
<g id="Node000008" class="node">
<title>Node8</title>
<g id="a_Node000008"><a xlink:title=" ">
<polygon fill="#e0e0e0" stroke="#999999" points="397.75,-20 319.5,-20 319.5,0 397.75,0 397.75,-20"/>
<text text-anchor="middle" x="358.62" y="-6.5" font-family="Helvetica,sans-Serif" font-size="10.00">VkBootstrap.h</text>
</a>
</g>
</g>
<!-- Node4&#45;&gt;Node8 -->
<g id="edge7_Node000004_Node000008" class="edge">
<title>Node4&#45;&gt;Node8</title>
<g id="a_edge7_Node000004_Node000008"><a xlink:title=" ">
<path fill="none" stroke="#63b8ff" d="M238.34,-55.55C264.48,-45.87 297.81,-33.53 322.75,-24.29"/>
<polygon fill="#63b8ff" stroke="#63b8ff" points="323.64,-27.69 331.8,-20.93 321.21,-21.12 323.64,-27.69"/>
</a>
</g>
</g>
<!-- Node9 -->
<g id="Node000009" class="node">
<title>Node9</title>
<g id="a_Node000009"><a xlink:title=" ">
<polygon fill="#e0e0e0" stroke="#999999" points="501.5,-20 415.75,-20 415.75,0 501.5,0 501.5,-20"/>
<text text-anchor="middle" x="458.62" y="-6.5" font-family="Helvetica,sans-Serif" font-size="10.00">vk_mem_alloc.h</text>
</a>
</g>
</g>
<!-- Node4&#45;&gt;Node9 -->
<g id="edge8_Node000004_Node000009" class="edge">
<title>Node4&#45;&gt;Node9</title>
<g id="a_edge8_Node000004_Node000009"><a xlink:title=" ">
<path fill="none" stroke="#63b8ff" d="M256.08,-57.39C301.26,-47.04 362.82,-32.94 406.18,-23.01"/>
<polygon fill="#63b8ff" stroke="#63b8ff" points="406.9,-26.44 415.87,-20.79 405.34,-19.61 406.9,-26.44"/>
</a>
</g>
</g>
</g>
</svg>
