<?xml version="1.0" encoding="UTF-8" standalone="no"?>
<!DOCTYPE svg PUBLIC "-//W3C//DTD SVG 1.1//EN"
 "http://www.w3.org/Graphics/SVG/1.1/DTD/svg11.dtd">
<!-- Generated by graphviz version 10.0.1 (20240210.2158)
 -->
<!-- Title: hybrid&#45;renderer&#45;lib/include/renderer_internal/descriptor_management.h Pages: 1 -->
<svg width="664pt" height="472pt"
 viewBox="0.00 0.00 663.50 472.00" xmlns="http://www.w3.org/2000/svg" xmlns:xlink="http://www.w3.org/1999/xlink">
<g id="graph0" class="graph" transform="scale(1 1) rotate(0) translate(4 468)">
<title>hybrid&#45;renderer&#45;lib/include/renderer_internal/descriptor_management.h</title>
<!-- Node1 -->
<g id="Node000001" class="node">
<title>Node1</title>
<g id="a_Node000001"><a xlink:title=" ">
<polygon fill="#999999" stroke="#666666" points="370.25,-464 238.75,-464 238.75,-420 370.25,-420 370.25,-464"/>
<text text-anchor="start" x="246.75" y="-450.5" font-family="Helvetica,sans-Serif" font-size="10.00">hybrid&#45;renderer&#45;lib</text>
<text text-anchor="start" x="246.75" y="-438.5" font-family="Helvetica,sans-Serif" font-size="10.00">/include/renderer_internal</text>
<text text-anchor="middle" x="304.5" y="-426.5" font-family="Helvetica,sans-Serif" font-size="10.00">/descriptor_management.h</text>
</a>
</g>
</g>
<!-- Node2 -->
<g id="Node000002" class="node">
<title>Node2</title>
<g id="a_Node000002"><a xlink:href="hybrid__renderer_8h.html" target="_top" xlink:title=" ">
<polygon fill="white" stroke="#666666" points="391.38,-218 263.62,-218 263.62,-186 391.38,-186 391.38,-218"/>
<text text-anchor="start" x="271.62" y="-204.5" font-family="Helvetica,sans-Serif" font-size="10.00">hybrid&#45;renderer&#45;lib</text>
<text text-anchor="middle" x="327.5" y="-192.5" font-family="Helvetica,sans-Serif" font-size="10.00">/include/hybrid_renderer.h</text>
</a>
</g>
</g>
<!-- Node1&#45;&gt;Node2 -->
<g id="edge1_Node000001_Node000002" class="edge">
<title>Node1&#45;&gt;Node2</title>
<g id="a_edge1_Node000001_Node000002"><a xlink:title=" ">
<path fill="none" stroke="#63b8ff" d="M287.12,-409.2C283.56,-401.2 280.34,-392.48 278.5,-384 274.35,-364.89 275.16,-359.27 278.5,-340 286.49,-293.96 308.52,-242.91 320.13,-218.14"/>
<polygon fill="#63b8ff" stroke="#63b8ff" points="283.95,-410.69 291.43,-418.2 290.26,-407.67 283.95,-410.69"/>
</a>
</g>
</g>
<!-- Node10 -->
<g id="Node000010" class="node">
<title>Node10</title>
<g id="a_Node000010"><a xlink:href="render__system_8h.html" target="_top" xlink:title=" ">
<polygon fill="white" stroke="#666666" points="231.88,-304 107.12,-304 107.12,-260 231.88,-260 231.88,-304"/>
<text text-anchor="start" x="115.12" y="-290.5" font-family="Helvetica,sans-Serif" font-size="10.00">hybrid&#45;renderer&#45;lib</text>
<text text-anchor="start" x="115.12" y="-278.5" font-family="Helvetica,sans-Serif" font-size="10.00">/include/renderer_internal</text>
<text text-anchor="middle" x="169.5" y="-266.5" font-family="Helvetica,sans-Serif" font-size="10.00">/render_system.h</text>
</a>
</g>
</g>
<!-- Node1&#45;&gt;Node10 -->
<g id="edge14_Node000001_Node000010" class="edge">
<title>Node1&#45;&gt;Node10</title>
<g id="a_edge14_Node000001_Node000010"><a xlink:title=" ">
<path fill="none" stroke="#63b8ff" d="M272.59,-411.95C263.54,-403.24 253.88,-393.48 245.5,-384 222.39,-357.86 198.67,-325.23 184.01,-304.25"/>
<polygon fill="#63b8ff" stroke="#63b8ff" points="269.92,-414.23 279.58,-418.57 274.73,-409.15 269.92,-414.23"/>
</a>
</g>
</g>
<!-- Node12 -->
<g id="Node000012" class="node">
<title>Node12</title>
<g id="a_Node000012"><a xlink:href="shader__database_8h.html" target="_top" xlink:title=" ">
<polygon fill="white" stroke="#666666" points="411.88,-384 287.12,-384 287.12,-340 411.88,-340 411.88,-384"/>
<text text-anchor="start" x="295.12" y="-370.5" font-family="Helvetica,sans-Serif" font-size="10.00">hybrid&#45;renderer&#45;lib</text>
<text text-anchor="start" x="295.12" y="-358.5" font-family="Helvetica,sans-Serif" font-size="10.00">/include/renderer_internal</text>
<text text-anchor="middle" x="349.5" y="-346.5" font-family="Helvetica,sans-Serif" font-size="10.00">/shader_database.h</text>
</a>
</g>
</g>
<!-- Node1&#45;&gt;Node12 -->
<g id="edge17_Node000001_Node000012" class="edge">
<title>Node1&#45;&gt;Node12</title>
<g id="a_edge17_Node000001_Node000012"><a xlink:title=" ">
<path fill="none" stroke="#63b8ff" d="M322.42,-409.94C327.38,-401.34 332.66,-392.2 337.22,-384.29"/>
<polygon fill="#63b8ff" stroke="#63b8ff" points="319.52,-407.96 317.55,-418.38 325.58,-411.46 319.52,-407.96"/>
</a>
</g>
</g>
<!-- Node16 -->
<g id="Node000016" class="node">
<title>Node16</title>
<g id="a_Node000016"><a xlink:href="descriptor__management_8cpp.html" target="_top" xlink:title=" ">
<polygon fill="white" stroke="#666666" points="571.5,-384 429.5,-384 429.5,-340 571.5,-340 571.5,-384"/>
<text text-anchor="start" x="437.5" y="-370.5" font-family="Helvetica,sans-Serif" font-size="10.00">hybrid&#45;renderer&#45;lib</text>
<text text-anchor="start" x="437.5" y="-358.5" font-family="Helvetica,sans-Serif" font-size="10.00">/src/renderer_internal</text>
<text text-anchor="middle" x="500.5" y="-346.5" font-family="Helvetica,sans-Serif" font-size="10.00">/descriptor_management.cpp</text>
</a>
</g>
</g>
<!-- Node1&#45;&gt;Node16 -->
<g id="edge26_Node000001_Node000016" class="edge">
<title>Node1&#45;&gt;Node16</title>
<g id="a_edge26_Node000001_Node000016"><a xlink:title=" ">
<path fill="none" stroke="#63b8ff" d="M368.9,-415.37C394.12,-405.33 422.72,-393.95 446.8,-384.37"/>
<polygon fill="#63b8ff" stroke="#63b8ff" points="367.72,-412.07 359.72,-419.02 370.31,-418.58 367.72,-412.07"/>
</a>
</g>
</g>
<!-- Node3 -->
<g id="Node000003" class="node">
<title>Node3</title>
<g id="a_Node000003"><a xlink:href="demo_8h.html" target="_top" xlink:title=" ">
<polygon fill="white" stroke="#666666" points="109,-76 0,-76 0,-56 109,-56 109,-76"/>
<text text-anchor="middle" x="54.5" y="-62.5" font-family="Helvetica,sans-Serif" font-size="10.00">demo/include/demo.h</text>
</a>
</g>
</g>
<!-- Node2&#45;&gt;Node3 -->
<g id="edge2_Node000002_Node000003" class="edge">
<title>Node2&#45;&gt;Node3</title>
<g id="a_edge2_Node000002_Node000003"><a xlink:title=" ">
<path fill="none" stroke="#63b8ff" d="M273.46,-181.5C246.6,-171.25 213.9,-157.95 185.5,-144 141.46,-122.37 92.26,-91.52 68.65,-76.27"/>
<polygon fill="#63b8ff" stroke="#63b8ff" points="272.2,-184.76 282.79,-185.02 274.67,-178.21 272.2,-184.76"/>
</a>
</g>
</g>
<!-- Node5 -->
<g id="Node000005" class="node">
<title>Node5</title>
<g id="a_Node000005"><a xlink:href="renderer_8h.html" target="_top" xlink:title=" ">
<polygon fill="white" stroke="#666666" points="247.62,-76 127.38,-76 127.38,-56 247.62,-56 247.62,-76"/>
<text text-anchor="middle" x="187.5" y="-62.5" font-family="Helvetica,sans-Serif" font-size="10.00">demo/include/renderer.h</text>
</a>
</g>
</g>
<!-- Node2&#45;&gt;Node5 -->
<g id="edge4_Node000002_Node000005" class="edge">
<title>Node2&#45;&gt;Node5</title>
<g id="a_edge4_Node000002_Node000005"><a xlink:title=" ">
<path fill="none" stroke="#63b8ff" d="M253.11,-181.26C233.7,-172.75 214.59,-160.76 201.5,-144 185.86,-123.97 185.6,-92.12 186.6,-76.4"/>
<polygon fill="#63b8ff" stroke="#63b8ff" points="251.58,-184.42 262.17,-184.95 254.22,-177.93 251.58,-184.42"/>
</a>
</g>
</g>
<!-- Node6 -->
<g id="Node000006" class="node">
<title>Node6</title>
<g id="a_Node000006"><a xlink:href="renderer_8cpp.html" target="_top" xlink:title=" ">
<polygon fill="white" stroke="#666666" points="332.25,-20 218.75,-20 218.75,0 332.25,0 332.25,-20"/>
<text text-anchor="middle" x="275.5" y="-6.5" font-family="Helvetica,sans-Serif" font-size="10.00">demo/src/renderer.cpp</text>
</a>
</g>
</g>
<!-- Node2&#45;&gt;Node6 -->
<g id="edge11_Node000002_Node000006" class="edge">
<title>Node2&#45;&gt;Node6</title>
<g id="a_edge11_Node000002_Node000006"><a xlink:title=" ">
<path fill="none" stroke="#63b8ff" d="M366.21,-179.74C412.26,-151.7 478.84,-100.68 444.5,-56 430.76,-38.13 376.1,-25.85 332.61,-18.69"/>
<polygon fill="#63b8ff" stroke="#63b8ff" points="364.57,-176.64 357.75,-184.76 368.14,-182.66 364.57,-176.64"/>
</a>
</g>
</g>
<!-- Node7 -->
<g id="Node000007" class="node">
<title>Node7</title>
<g id="a_Node000007"><a xlink:href="subsystems_8h.html" target="_top" xlink:title=" ">
<polygon fill="white" stroke="#666666" points="348.62,-138 210.38,-138 210.38,-118 348.62,-118 348.62,-138"/>
<text text-anchor="middle" x="279.5" y="-124.5" font-family="Helvetica,sans-Serif" font-size="10.00">demo/include/subsystems.h</text>
</a>
</g>
</g>
<!-- Node2&#45;&gt;Node7 -->
<g id="edge7_Node000002_Node000007" class="edge">
<title>Node2&#45;&gt;Node7</title>
<g id="a_edge7_Node000002_Node000007"><a xlink:title=" ">
<path fill="none" stroke="#63b8ff" d="M311.02,-176.28C302.29,-163.19 292.09,-147.88 285.71,-138.31"/>
<polygon fill="#63b8ff" stroke="#63b8ff" points="308.02,-178.09 316.48,-184.47 313.85,-174.21 308.02,-178.09"/>
</a>
</g>
</g>
<!-- Node8 -->
<g id="Node000008" class="node">
<title>Node8</title>
<g id="a_Node000008"><a xlink:href="subsystems_8cpp.html" target="_top" xlink:title=" ">
<polygon fill="white" stroke="#666666" points="435.25,-76 303.75,-76 303.75,-56 435.25,-56 435.25,-76"/>
<text text-anchor="middle" x="369.5" y="-62.5" font-family="Helvetica,sans-Serif" font-size="10.00">demo/src/subsystems.cpp</text>
</a>
</g>
</g>
<!-- Node2&#45;&gt;Node8 -->
<g id="edge12_Node000002_Node000008" class="edge">
<title>Node2&#45;&gt;Node8</title>
<g id="a_edge12_Node000002_Node000008"><a xlink:title=" ">
<path fill="none" stroke="#63b8ff" d="M342.99,-175.92C348.34,-166.26 353.89,-154.92 357.5,-144 365.32,-120.37 368.1,-90.93 369.04,-76.24"/>
<polygon fill="#63b8ff" stroke="#63b8ff" points="340.1,-173.93 338.12,-184.34 346.16,-177.43 340.1,-173.93"/>
</a>
</g>
</g>
<!-- Node9 -->
<g id="Node000009" class="node">
<title>Node9</title>
<g id="a_Node000009"><a xlink:href="hybrid__renderer_8cpp.html" target="_top" xlink:title=" ">
<polygon fill="white" stroke="#666666" points="613,-144 492,-144 492,-112 613,-112 613,-144"/>
<text text-anchor="start" x="500" y="-130.5" font-family="Helvetica,sans-Serif" font-size="10.00">hybrid&#45;renderer&#45;lib</text>
<text text-anchor="middle" x="552.5" y="-118.5" font-family="Helvetica,sans-Serif" font-size="10.00">/src/hybrid_renderer.cpp</text>
</a>
</g>
</g>
<!-- Node2&#45;&gt;Node9 -->
<g id="edge13_Node000002_Node000009" class="edge">
<title>Node2&#45;&gt;Node9</title>
<g id="a_edge13_Node000002_Node000009"><a xlink:title=" ">
<path fill="none" stroke="#63b8ff" d="M386.33,-182.17C423.07,-170.42 469.78,-155.47 504.31,-144.42"/>
<polygon fill="#63b8ff" stroke="#63b8ff" points="385.67,-178.71 377.21,-185.09 387.8,-185.38 385.67,-178.71"/>
</a>
</g>
</g>
<!-- Node4 -->
<g id="Node000004" class="node">
<title>Node4</title>
<g id="a_Node000004"><a xlink:href="main_8cpp.html" target="_top" xlink:title=" ">
<polygon fill="white" stroke="#666666" points="153.12,-20 53.88,-20 53.88,0 153.12,0 153.12,-20"/>
<text text-anchor="middle" x="103.5" y="-6.5" font-family="Helvetica,sans-Serif" font-size="10.00">demo/src/main.cpp</text>
</a>
</g>
</g>
<!-- Node3&#45;&gt;Node4 -->
<g id="edge3_Node000003_Node000004" class="edge">
<title>Node3&#45;&gt;Node4</title>
<g id="a_edge3_Node000003_Node000004"><a xlink:title=" ">
<path fill="none" stroke="#63b8ff" d="M70.57,-47.29C78.75,-38.28 88.35,-27.7 95.06,-20.3"/>
<polygon fill="#63b8ff" stroke="#63b8ff" points="68.18,-44.72 64.05,-54.47 73.36,-49.42 68.18,-44.72"/>
</a>
</g>
</g>
<!-- Node5&#45;&gt;Node4 -->
<g id="edge5_Node000005_Node000004" class="edge">
<title>Node5&#45;&gt;Node4</title>
<g id="a_edge5_Node000005_Node000004"><a xlink:title=" ">
<path fill="none" stroke="#63b8ff" d="M163.45,-49.54C148.87,-40.17 130.73,-28.51 118.25,-20.48"/>
<polygon fill="#63b8ff" stroke="#63b8ff" points="161.29,-52.31 171.6,-54.78 165.08,-46.42 161.29,-52.31"/>
</a>
</g>
</g>
<!-- Node5&#45;&gt;Node6 -->
<g id="edge6_Node000005_Node000006" class="edge">
<title>Node5&#45;&gt;Node6</title>
<g id="a_edge6_Node000005_Node000006"><a xlink:title=" ">
<path fill="none" stroke="#63b8ff" d="M212.25,-49.81C227.6,-40.39 246.85,-28.58 260.05,-20.48"/>
<polygon fill="#63b8ff" stroke="#63b8ff" points="210.81,-46.59 204.12,-54.8 214.47,-52.56 210.81,-46.59"/>
</a>
</g>
</g>
<!-- Node7&#45;&gt;Node5 -->
<g id="edge8_Node000007_Node000005" class="edge">
<title>Node7&#45;&gt;Node5</title>
<g id="a_edge8_Node000007_Node000005"><a xlink:title=" ">
<path fill="none" stroke="#63b8ff" d="M255.79,-111.54C238.69,-100.39 216.18,-85.71 201.77,-76.31"/>
<polygon fill="#63b8ff" stroke="#63b8ff" points="253.57,-114.27 263.86,-116.8 257.39,-108.4 253.57,-114.27"/>
</a>
</g>
</g>
<!-- Node7&#45;&gt;Node6 -->
<g id="edge9_Node000007_Node000006" class="edge">
<title>Node7&#45;&gt;Node6</title>
<g id="a_edge9_Node000007_Node000006"><a xlink:title=" ">
<path fill="none" stroke="#63b8ff" d="M278.78,-106.23C277.91,-80.8 276.46,-38.84 275.82,-20.3"/>
<polygon fill="#63b8ff" stroke="#63b8ff" points="275.28,-106.12 279.12,-115.99 282.27,-105.88 275.28,-106.12"/>
</a>
</g>
</g>
<!-- Node7&#45;&gt;Node8 -->
<g id="edge10_Node000007_Node000008" class="edge">
<title>Node7&#45;&gt;Node8</title>
<g id="a_edge10_Node000007_Node000008"><a xlink:title=" ">
<path fill="none" stroke="#63b8ff" d="M302.7,-111.54C319.42,-100.39 341.44,-85.71 355.54,-76.31"/>
<polygon fill="#63b8ff" stroke="#63b8ff" points="301.2,-108.33 294.82,-116.79 305.08,-114.15 301.2,-108.33"/>
</a>
</g>
</g>
<!-- Node10&#45;&gt;Node2 -->
<g id="edge15_Node000010_Node000002" class="edge">
<title>Node10&#45;&gt;Node2</title>
<g id="a_edge15_Node000010_Node000002"><a xlink:title=" ">
<path fill="none" stroke="#63b8ff" d="M222.9,-254.64C247.35,-242.57 275.48,-228.68 296.4,-218.35"/>
<polygon fill="#63b8ff" stroke="#63b8ff" points="221.45,-251.45 214.03,-259.02 224.55,-257.73 221.45,-251.45"/>
</a>
</g>
</g>
<!-- Node11 -->
<g id="Node000011" class="node">
<title>Node11</title>
<g id="a_Node000011"><a xlink:href="render__system_8cpp.html" target="_top" xlink:title=" ">
<polygon fill="white" stroke="#666666" points="238.25,-224 130.75,-224 130.75,-180 238.25,-180 238.25,-224"/>
<text text-anchor="start" x="138.75" y="-210.5" font-family="Helvetica,sans-Serif" font-size="10.00">hybrid&#45;renderer&#45;lib</text>
<text text-anchor="start" x="138.75" y="-198.5" font-family="Helvetica,sans-Serif" font-size="10.00">/src/renderer_internal</text>
<text text-anchor="middle" x="184.5" y="-186.5" font-family="Helvetica,sans-Serif" font-size="10.00">/render_system.cpp</text>
</a>
</g>
</g>
<!-- Node10&#45;&gt;Node11 -->
<g id="edge16_Node000010_Node000011" class="edge">
<title>Node10&#45;&gt;Node11</title>
<g id="a_edge16_Node000010_Node000011"><a xlink:title=" ">
<path fill="none" stroke="#63b8ff" d="M175.74,-248.53C177.32,-240.35 178.97,-231.77 180.41,-224.29"/>
<polygon fill="#63b8ff" stroke="#63b8ff" points="172.34,-247.72 173.88,-258.2 179.21,-249.04 172.34,-247.72"/>
</a>
</g>
</g>
<!-- Node12&#45;&gt;Node2 -->
<g id="edge18_Node000012_Node000002" class="edge">
<title>Node12&#45;&gt;Node2</title>
<g id="a_edge18_Node000012_Node000002"><a xlink:title=" ">
<path fill="none" stroke="#63b8ff" d="M344.99,-328.58C340.3,-294.9 333.16,-243.64 329.63,-218.29"/>
<polygon fill="#63b8ff" stroke="#63b8ff" points="341.48,-328.77 346.32,-338.19 348.41,-327.81 341.48,-328.77"/>
</a>
</g>
</g>
<!-- Node12&#45;&gt;Node10 -->
<g id="edge22_Node000012_Node000010" class="edge">
<title>Node12&#45;&gt;Node10</title>
<g id="a_edge22_Node000012_Node000010"><a xlink:title=" ">
<path fill="none" stroke="#63b8ff" d="M289.97,-335.2C266.95,-325.23 240.9,-313.94 218.94,-304.42"/>
<polygon fill="#63b8ff" stroke="#63b8ff" points="288.36,-338.32 298.93,-339.08 291.14,-331.9 288.36,-338.32"/>
</a>
</g>
</g>
<!-- Node12&#45;&gt;Node11 -->
<g id="edge24_Node000012_Node000011" class="edge">
<title>Node12&#45;&gt;Node11</title>
<g id="a_edge24_Node000012_Node000011"><a xlink:title=" ">
<path fill="none" stroke="#63b8ff" d="M319.01,-331.8C286.54,-300.71 235.92,-252.24 206.93,-224.48"/>
<polygon fill="#63b8ff" stroke="#63b8ff" points="316.51,-334.26 326.15,-338.64 321.35,-329.2 316.51,-334.26"/>
</a>
</g>
</g>
<!-- Node13 -->
<g id="Node000013" class="node">
<title>Node13</title>
<g id="a_Node000013"><a xlink:href="render__pass_8h.html" target="_top" xlink:title=" ">
<polygon fill="white" stroke="#666666" points="487.88,-304 363.12,-304 363.12,-260 487.88,-260 487.88,-304"/>
<text text-anchor="start" x="371.12" y="-290.5" font-family="Helvetica,sans-Serif" font-size="10.00">hybrid&#45;renderer&#45;lib</text>
<text text-anchor="start" x="371.12" y="-278.5" font-family="Helvetica,sans-Serif" font-size="10.00">/include/renderer_internal</text>
<text text-anchor="middle" x="425.5" y="-266.5" font-family="Helvetica,sans-Serif" font-size="10.00">/render_pass.h</text>
</a>
</g>
</g>
<!-- Node12&#45;&gt;Node13 -->
<g id="edge19_Node000012_Node000013" class="edge">
<title>Node12&#45;&gt;Node13</title>
<g id="a_edge19_Node000012_Node000013"><a xlink:title=" ">
<path fill="none" stroke="#63b8ff" d="M378.13,-331.62C386.98,-322.53 396.55,-312.71 404.76,-304.29"/>
<polygon fill="#63b8ff" stroke="#63b8ff" points="375.8,-329 371.32,-338.6 380.81,-333.88 375.8,-329"/>
</a>
</g>
</g>
<!-- Node14 -->
<g id="Node000014" class="node">
<title>Node14</title>
<g id="a_Node000014"><a xlink:href="render__pass_8cpp.html" target="_top" xlink:title=" ">
<polygon fill="white" stroke="#666666" points="543.25,-224 435.75,-224 435.75,-180 543.25,-180 543.25,-224"/>
<text text-anchor="start" x="443.75" y="-210.5" font-family="Helvetica,sans-Serif" font-size="10.00">hybrid&#45;renderer&#45;lib</text>
<text text-anchor="start" x="443.75" y="-198.5" font-family="Helvetica,sans-Serif" font-size="10.00">/src/renderer_internal</text>
<text text-anchor="middle" x="489.5" y="-186.5" font-family="Helvetica,sans-Serif" font-size="10.00">/render_pass.cpp</text>
</a>
</g>
</g>
<!-- Node12&#45;&gt;Node14 -->
<g id="edge23_Node000012_Node000014" class="edge">
<title>Node12&#45;&gt;Node14</title>
<g id="a_edge23_Node000012_Node000014"><a xlink:title=" ">
<path fill="none" stroke="#63b8ff" d="M422.87,-336.66C457.23,-324.53 491.72,-310.98 496.5,-304 512.59,-280.51 505.51,-246.3 498.15,-224.35"/>
<polygon fill="#63b8ff" stroke="#63b8ff" points="421.96,-333.27 413.67,-339.87 424.26,-339.88 421.96,-333.27"/>
</a>
</g>
</g>
<!-- Node15 -->
<g id="Node000015" class="node">
<title>Node15</title>
<g id="a_Node000015"><a xlink:href="shader__database_8cpp.html" target="_top" xlink:title=" ">
<polygon fill="white" stroke="#666666" points="655.5,-304 543.5,-304 543.5,-260 655.5,-260 655.5,-304"/>
<text text-anchor="start" x="551.5" y="-290.5" font-family="Helvetica,sans-Serif" font-size="10.00">hybrid&#45;renderer&#45;lib</text>
<text text-anchor="start" x="551.5" y="-278.5" font-family="Helvetica,sans-Serif" font-size="10.00">/src/renderer_internal</text>
<text text-anchor="middle" x="599.5" y="-266.5" font-family="Helvetica,sans-Serif" font-size="10.00">/shader_database.cpp</text>
</a>
</g>
</g>
<!-- Node12&#45;&gt;Node15 -->
<g id="edge25_Node000012_Node000015" class="edge">
<title>Node12&#45;&gt;Node15</title>
<g id="a_edge25_Node000012_Node000015"><a xlink:title=" ">
<path fill="none" stroke="#63b8ff" d="M422.87,-338.11C461.27,-326.13 507.56,-311.69 543.12,-300.59"/>
<polygon fill="#63b8ff" stroke="#63b8ff" points="422.21,-334.65 413.71,-340.97 424.3,-341.33 422.21,-334.65"/>
</a>
</g>
</g>
<!-- Node13&#45;&gt;Node2 -->
<g id="edge20_Node000013_Node000002" class="edge">
<title>Node13&#45;&gt;Node2</title>
<g id="a_edge20_Node000013_Node000002"><a xlink:title=" ">
<path fill="none" stroke="#63b8ff" d="M389.92,-252.68C375.35,-241.09 359.07,-228.13 346.79,-218.35"/>
<polygon fill="#63b8ff" stroke="#63b8ff" points="387.53,-255.25 397.54,-258.74 391.89,-249.78 387.53,-255.25"/>
</a>
</g>
</g>
<!-- Node13&#45;&gt;Node14 -->
<g id="edge21_Node000013_Node000014" class="edge">
<title>Node13&#45;&gt;Node14</title>
<g id="a_edge21_Node000013_Node000014"><a xlink:title=" ">
<path fill="none" stroke="#63b8ff" d="M450.07,-251.06C457.39,-242.13 465.26,-232.54 472.03,-224.29"/>
<polygon fill="#63b8ff" stroke="#63b8ff" points="447.59,-248.57 443.95,-258.52 453,-253.01 447.59,-248.57"/>
</a>
</g>
</g>
</g>
</svg>
