<?xml version="1.0" encoding="UTF-8" standalone="no"?>
<!DOCTYPE svg PUBLIC "-//W3C//DTD SVG 1.1//EN"
 "http://www.w3.org/Graphics/SVG/1.1/DTD/svg11.dtd">
<!-- Generated by graphviz version 10.0.1 (20240210.2158)
 -->
<!-- Title: hybrid&#45;renderer&#45;lib/src/renderer_internal/descriptor_management.cpp Pages: 1 -->
<svg width="510pt" height="244pt"
 viewBox="0.00 0.00 509.50 244.00" xmlns="http://www.w3.org/2000/svg" xmlns:xlink="http://www.w3.org/1999/xlink">
<g id="graph0" class="graph" transform="scale(1 1) rotate(0) translate(4 240)">
<title>hybrid&#45;renderer&#45;lib/src/renderer_internal/descriptor_management.cpp</title>
<!-- Node1 -->
<g id="Node000001" class="node">
<title>Node1</title>
<g id="a_Node000001"><a xlink:title=" ">
<polygon fill="#999999" stroke="#666666" points="190.62,-236 48.62,-236 48.62,-192 190.62,-192 190.62,-236"/>
<text text-anchor="start" x="56.62" y="-222.5" font-family="Helvetica,sans-Serif" font-size="10.00">hybrid&#45;renderer&#45;lib</text>
<text text-anchor="start" x="56.62" y="-210.5" font-family="Helvetica,sans-Serif" font-size="10.00">/src/renderer_internal</text>
<text text-anchor="middle" x="119.62" y="-198.5" font-family="Helvetica,sans-Serif" font-size="10.00">/descriptor_management.cpp</text>
</a>
</g>
</g>
<!-- Node2 -->
<g id="Node000002" class="node">
<title>Node2</title>
<g id="a_Node000002"><a xlink:href="descriptor__management_8h.html" target="_top" xlink:title=" ">
<polygon fill="white" stroke="#666666" points="234.5,-156 100.75,-156 100.75,-124 234.5,-124 234.5,-156"/>
<text text-anchor="start" x="108.75" y="-142.5" font-family="Helvetica,sans-Serif" font-size="10.00">renderer_internal/descriptor</text>
<text text-anchor="middle" x="167.62" y="-130.5" font-family="Helvetica,sans-Serif" font-size="10.00">_management.h</text>
</a>
</g>
</g>
<!-- Node1&#45;&gt;Node2 -->
<g id="edge1_Node000001_Node000002" class="edge">
<title>Node1&#45;&gt;Node2</title>
<g id="a_edge1_Node000001_Node000002"><a xlink:title=" ">
<path fill="none" stroke="#63b8ff" d="M133.77,-191.79C139.25,-183.56 145.57,-174.08 151.25,-165.56"/>
<polygon fill="#63b8ff" stroke="#63b8ff" points="154.07,-167.65 156.7,-157.39 148.24,-163.76 154.07,-167.65"/>
</a>
</g>
</g>
<!-- Node3 -->
<g id="Node000003" class="node">
<title>Node3</title>
<g id="a_Node000003"><a xlink:title=" ">
<polygon fill="#e0e0e0" stroke="#999999" points="118,-82 83.25,-82 83.25,-62 118,-62 118,-82"/>
<text text-anchor="middle" x="100.62" y="-68.5" font-family="Helvetica,sans-Serif" font-size="10.00">map</text>
</a>
</g>
</g>
<!-- Node1&#45;&gt;Node3 -->
<g id="edge11_Node000001_Node000003" class="edge">
<title>Node1&#45;&gt;Node3</title>
<g id="a_edge11_Node000001_Node000003"><a xlink:title=" ">
<path fill="none" stroke="#63b8ff" d="M106.26,-191.68C100.54,-181.33 94.52,-168.46 91.62,-156 86.72,-134.87 90.62,-110.08 94.72,-93.13"/>
<polygon fill="#63b8ff" stroke="#63b8ff" points="98.01,-94.36 97.21,-83.8 91.25,-92.55 98.01,-94.36"/>
</a>
</g>
</g>
<!-- Node4 -->
<g id="Node000004" class="node">
<title>Node4</title>
<g id="a_Node000004"><a xlink:title=" ">
<polygon fill="#e0e0e0" stroke="#999999" points="81.25,-20 0,-20 0,0 81.25,0 81.25,-20"/>
<text text-anchor="middle" x="40.62" y="-6.5" font-family="Helvetica,sans-Serif" font-size="10.00">vulkan/vulkan.h</text>
</a>
</g>
</g>
<!-- Node1&#45;&gt;Node4 -->
<g id="edge12_Node000001_Node000004" class="edge">
<title>Node1&#45;&gt;Node4</title>
<g id="a_edge12_Node000001_Node000004"><a xlink:title=" ">
<path fill="none" stroke="#63b8ff" d="M105.29,-191.73C98.69,-181.28 91.11,-168.31 85.62,-156 66.55,-113.22 52.28,-59.96 45.33,-31.39"/>
<polygon fill="#63b8ff" stroke="#63b8ff" points="48.79,-30.83 43.08,-21.91 41.98,-32.45 48.79,-30.83"/>
</a>
</g>
</g>
<!-- Node5 -->
<g id="Node000005" class="node">
<title>Node5</title>
<g id="a_Node000005"><a xlink:href="render__context_8h.html" target="_top" xlink:title=" ">
<polygon fill="white" stroke="#666666" points="311.62,-88 193.62,-88 193.62,-56 311.62,-56 311.62,-88"/>
<text text-anchor="start" x="201.62" y="-74.5" font-family="Helvetica,sans-Serif" font-size="10.00">renderer_internal/render</text>
<text text-anchor="middle" x="252.62" y="-62.5" font-family="Helvetica,sans-Serif" font-size="10.00">_context.h</text>
</a>
</g>
</g>
<!-- Node1&#45;&gt;Node5 -->
<g id="edge13_Node000001_Node000005" class="edge">
<title>Node1&#45;&gt;Node5</title>
<g id="a_edge13_Node000001_Node000005"><a xlink:title=" ">
<path fill="none" stroke="#63b8ff" d="M191.09,-194.71C211.08,-186.16 230.82,-173.79 243.62,-156 255.2,-139.93 256.98,-117.36 256.13,-99.82"/>
<polygon fill="#63b8ff" stroke="#63b8ff" points="259.61,-99.54 255.3,-89.86 252.64,-100.12 259.61,-99.54"/>
</a>
</g>
</g>
<!-- Node2&#45;&gt;Node3 -->
<g id="edge2_Node000002_Node000003" class="edge">
<title>Node2&#45;&gt;Node3</title>
<g id="a_edge2_Node000002_Node000003"><a xlink:title=" ">
<path fill="none" stroke="#63b8ff" d="M152.09,-123.69C141.94,-113.7 128.67,-100.63 118.15,-90.26"/>
<polygon fill="#63b8ff" stroke="#63b8ff" points="120.74,-87.9 111.16,-83.38 115.83,-92.89 120.74,-87.9"/>
</a>
</g>
</g>
<!-- Node2&#45;&gt;Node4 -->
<g id="edge3_Node000002_Node000004" class="edge">
<title>Node2&#45;&gt;Node4</title>
<g id="a_edge3_Node000002_Node000004"><a xlink:title=" ">
<path fill="none" stroke="#63b8ff" d="M163.32,-123.81C157.53,-105.73 145.72,-75.54 126.62,-56 113.39,-42.45 95.2,-32.13 78.96,-24.81"/>
<polygon fill="#63b8ff" stroke="#63b8ff" points="80.6,-21.7 70.03,-21.02 77.87,-28.15 80.6,-21.7"/>
</a>
</g>
</g>
<!-- Node2&#45;&gt;Node5 -->
<g id="edge4_Node000002_Node000005" class="edge">
<title>Node2&#45;&gt;Node5</title>
<g id="a_edge4_Node000002_Node000005"><a xlink:title=" ">
<path fill="none" stroke="#63b8ff" d="M187.34,-123.69C198.2,-115.26 211.89,-104.63 223.92,-95.29"/>
<polygon fill="#63b8ff" stroke="#63b8ff" points="225.78,-98.28 231.53,-89.38 221.48,-92.75 225.78,-98.28"/>
</a>
</g>
</g>
<!-- Node5&#45;&gt;Node4 -->
<g id="edge10_Node000005_Node000004" class="edge">
<title>Node5&#45;&gt;Node4</title>
<g id="a_edge10_Node000005_Node000004"><a xlink:title=" ">
<path fill="none" stroke="#63b8ff" d="M198.03,-55.55C162.87,-45.6 117.75,-32.83 84.84,-23.51"/>
<polygon fill="#63b8ff" stroke="#63b8ff" points="86.21,-20.26 75.63,-20.91 84.3,-27 86.21,-20.26"/>
</a>
</g>
</g>
<!-- Node6 -->
<g id="Node000006" class="node">
<title>Node6</title>
<g id="a_Node000006"><a xlink:href="config_8h.html" target="_top" xlink:title=" ">
<polygon fill="white" stroke="#666666" points="501.5,-20 451.75,-20 451.75,0 501.5,0 501.5,-20"/>
<text text-anchor="middle" x="476.62" y="-6.5" font-family="Helvetica,sans-Serif" font-size="10.00">config.h</text>
</a>
</g>
</g>
<!-- Node5&#45;&gt;Node6 -->
<g id="edge5_Node000005_Node000006" class="edge">
<title>Node5&#45;&gt;Node6</title>
<g id="a_edge5_Node000005_Node000006"><a xlink:title=" ">
<path fill="none" stroke="#63b8ff" d="M310.31,-55.55C351.48,-44.52 405.58,-30.03 440.72,-20.62"/>
<polygon fill="#63b8ff" stroke="#63b8ff" points="441.2,-24.11 449.96,-18.14 439.39,-17.35 441.2,-24.11"/>
</a>
</g>
</g>
<!-- Node7 -->
<g id="Node000007" class="node">
<title>Node7</title>
<g id="a_Node000007"><a xlink:href="platform_8h.html" target="_top" xlink:title=" ">
<polygon fill="white" stroke="#666666" points="158,-20 99.25,-20 99.25,0 158,0 158,-20"/>
<text text-anchor="middle" x="128.62" y="-6.5" font-family="Helvetica,sans-Serif" font-size="10.00">platform.h</text>
</a>
</g>
</g>
<!-- Node5&#45;&gt;Node7 -->
<g id="edge6_Node000005_Node000007" class="edge">
<title>Node5&#45;&gt;Node7</title>
<g id="a_edge6_Node000005_Node000007"><a xlink:title=" ">
<path fill="none" stroke="#63b8ff" d="M220.69,-55.55C201.5,-46.26 177.23,-34.52 158.43,-25.42"/>
<polygon fill="#63b8ff" stroke="#63b8ff" points="159.96,-22.27 149.43,-21.07 156.91,-28.57 159.96,-22.27"/>
</a>
</g>
</g>
<!-- Node8 -->
<g id="Node000008" class="node">
<title>Node8</title>
<g id="a_Node000008"><a xlink:title=" ">
<polygon fill="#e0e0e0" stroke="#999999" points="233.25,-20 176,-20 176,0 233.25,0 233.25,-20"/>
<text text-anchor="middle" x="204.62" y="-6.5" font-family="Helvetica,sans-Serif" font-size="10.00">functional</text>
</a>
</g>
</g>
<!-- Node5&#45;&gt;Node8 -->
<g id="edge7_Node000005_Node000008" class="edge">
<title>Node5&#45;&gt;Node8</title>
<g id="a_edge7_Node000005_Node000008"><a xlink:title=" ">
<path fill="none" stroke="#63b8ff" d="M240.26,-55.55C233.87,-47.56 226.03,-37.76 219.34,-29.39"/>
<polygon fill="#63b8ff" stroke="#63b8ff" points="222.08,-27.21 213.1,-21.59 216.61,-31.59 222.08,-27.21"/>
</a>
</g>
</g>
<!-- Node9 -->
<g id="Node000009" class="node">
<title>Node9</title>
<g id="a_Node000009"><a xlink:title=" ">
<polygon fill="#e0e0e0" stroke="#999999" points="329.75,-20 251.5,-20 251.5,0 329.75,0 329.75,-20"/>
<text text-anchor="middle" x="290.62" y="-6.5" font-family="Helvetica,sans-Serif" font-size="10.00">VkBootstrap.h</text>
</a>
</g>
</g>
<!-- Node5&#45;&gt;Node9 -->
<g id="edge8_Node000005_Node000009" class="edge">
<title>Node5&#45;&gt;Node9</title>
<g id="a_edge8_Node000005_Node000009"><a xlink:title=" ">
<path fill="none" stroke="#63b8ff" d="M262.41,-55.55C267.36,-47.74 273.41,-38.19 278.63,-29.94"/>
<polygon fill="#63b8ff" stroke="#63b8ff" points="281.46,-32.01 283.86,-21.69 275.55,-28.26 281.46,-32.01"/>
</a>
</g>
</g>
<!-- Node10 -->
<g id="Node000010" class="node">
<title>Node10</title>
<g id="a_Node000010"><a xlink:title=" ">
<polygon fill="#e0e0e0" stroke="#999999" points="433.5,-20 347.75,-20 347.75,0 433.5,0 433.5,-20"/>
<text text-anchor="middle" x="390.62" y="-6.5" font-family="Helvetica,sans-Serif" font-size="10.00">vk_mem_alloc.h</text>
</a>
</g>
</g>
<!-- Node5&#45;&gt;Node10 -->
<g id="edge9_Node000005_Node000010" class="edge">
<title>Node5&#45;&gt;Node10</title>
<g id="a_edge9_Node000005_Node000010"><a xlink:title=" ">
<path fill="none" stroke="#63b8ff" d="M288.16,-55.55C309.93,-46.09 337.55,-34.08 358.63,-24.91"/>
<polygon fill="#63b8ff" stroke="#63b8ff" points="359.82,-28.21 367.6,-21.01 357.03,-21.79 359.82,-28.21"/>
</a>
</g>
</g>
</g>
</svg>
