<?xml version="1.0" encoding="UTF-8" standalone="no"?>
<!DOCTYPE svg PUBLIC "-//W3C//DTD SVG 1.1//EN"
 "http://www.w3.org/Graphics/SVG/1.1/DTD/svg11.dtd">
<!-- Generated by graphviz version 10.0.1 (20240210.2158)
 -->
<!-- Title: demo/include/detail/dispatch.h Pages: 1 -->
<!--zoomable 332 -->

<svg id="main" version="1.1" xmlns="http://www.w3.org/2000/svg" xmlns:xlink="http://www.w3.org/1999/xlink" xml:space="preserve" onload="init(evt)">
<style type="text/css"><![CDATA[
.node, .edge {opacity: 0.7;}
.node.selected, .edge.selected {opacity: 1;}
.edge:hover path { stroke: red; }
.edge:hover polygon { stroke: red; fill: red; }
]]></style>

<defs>
  <circle id="rim" cx="0" cy="0" r="7"/>
  <circle id="rim2" cx="0" cy="0" r="3.5"/>
  <g id="zoomPlus">
    <use xlink:href="#rim" fill="#404040"><set attributeName="fill" to="#808080" begin="zoomplus.mouseover" end="zoomplus.mouseout"/></use>
    <path d="M-4,0h8M0,-4v8" fill="none" stroke="white" stroke-width="1.5" pointer-events="none"/>
  </g>
  <g id="zoomMin">
    <use xlink:href="#rim" fill="#404040"><set attributeName="fill" to="#808080" begin="zoomminus.mouseover" end="zoomminus.mouseout"/></use>
    <path d="M-4,0h8" fill="none" stroke="white" stroke-width="1.5" pointer-events="none"/>
  </g>
  <g id="arrowUp" transform="translate(30 24)">
    <use xlink:href="#rim"/>
    <path pointer-events="none" fill="none" stroke="white" stroke-width="1.5" d="M0,-3.0v7 M-2.5,-0.5L0,-3.0L2.5,-0.5"/>
  </g>
  <g id="arrowRight" transform="rotate(90) translate(36 -43)">
    <use xlink:href="#rim"/>
    <path pointer-events="none" fill="none" stroke="white" stroke-width="1.5" d="M0,-3.0v7 M-2.5,-0.5L0,-3.0L2.5,-0.5"/>
  </g>
  <g id="arrowDown" transform="rotate(180) translate(-30 -48)">
    <use xlink:href="#rim"/>
    <path pointer-events="none" fill="none" stroke="white" stroke-width="1.5" d="M0,-3.0v7 M-2.5,-0.5L0,-3.0L2.5,-0.5"/>
  </g>
  <g id="arrowLeft" transform="rotate(270) translate(-36 17)">
    <use xlink:href="#rim"/>
    <path pointer-events="none" fill="none" stroke="white" stroke-width="1.5" d="M0,-3.0v7 M-2.5,-0.5L0,-3.0L2.5,-0.5"/>
  </g>
  <g id="resetDef">
    <use xlink:href="#rim2" fill="#404040"><set attributeName="fill" to="#808080" begin="reset.mouseover" end="reset.mouseout"/></use>
  </g>
</defs>
<script type="application/ecmascript">
var viewWidth = 617;
var viewHeight = 332;
var sectionId = 'dynsection-1';
</script>
<script type="application/ecmascript" xlink:href="svg.min.js"/>
<svg id="graph" class="graph">
<g id="viewport">
<title>demo/include/detail/dispatch.h</title>
<!-- Node1 -->
<g id="Node000001" class="node">
<title>Node1</title>
<g id="a_Node000001"><a xlink:title=" ">
<polygon fill="#999999" stroke="#666666" points="484.35,-324 384.35,-324 384.35,-292 484.35,-292 484.35,-324"/>
<text text-anchor="start" x="392.35" y="-310.5" font-family="Helvetica,sans-Serif" font-size="10.00">demo/include/detail</text>
<text text-anchor="middle" x="434.35" y="-298.5" font-family="Helvetica,sans-Serif" font-size="10.00">/dispatch.h</text>
</a>
</g>
</g>
<!-- Node2 -->
<g id="Node000002" class="node">
<title>Node2</title>
<g id="a_Node000002"><a xlink:href="raytracing_8h.html" target="_top" xlink:title=" ">
<polygon fill="white" stroke="#666666" points="445.35,-256 345.35,-256 345.35,-224 445.35,-224 445.35,-256"/>
<text text-anchor="start" x="353.35" y="-242.5" font-family="Helvetica,sans-Serif" font-size="10.00">demo/include/detail</text>
<text text-anchor="middle" x="395.35" y="-230.5" font-family="Helvetica,sans-Serif" font-size="10.00">/raytracing.h</text>
</a>
</g>
</g>
<!-- Node1&#45;&gt;Node2 -->
<g id="edge1_Node000001_Node000002" class="edge">
<title>Node1&#45;&gt;Node2</title>
<g id="a_edge1_Node000001_Node000002"><a xlink:title=" ">
<path fill="none" stroke="#63b8ff" d="M419.59,-282.02C414.46,-273.34 408.87,-263.88 404.35,-256.22"/>
<polygon fill="#63b8ff" stroke="#63b8ff" points="416.43,-283.56 424.54,-290.39 422.46,-280 416.43,-283.56"/>
</a>
</g>
</g>
<!-- Node10 -->
<g id="Node000010" class="node">
<title>Node10</title>
<g id="a_Node000010"><a xlink:href="raytracing_8cpp.html" target="_top" xlink:title=" ">
<polygon fill="white" stroke="#666666" points="608.98,-188 461.73,-188 461.73,-168 608.98,-168 608.98,-188"/>
<text text-anchor="middle" x="535.35" y="-174.5" font-family="Helvetica,sans-Serif" font-size="10.00">demo/src/detail/raytracing.cpp</text>
</a>
</g>
</g>
<!-- Node1&#45;&gt;Node10 -->
<g id="edge17_Node000001_Node000010" class="edge">
<title>Node1&#45;&gt;Node10</title>
<g id="a_edge17_Node000001_Node000010"><a xlink:title=" ">
<path fill="none" stroke="#63b8ff" d="M453.62,-282.58C476.21,-253.95 512.52,-207.93 527.99,-188.33"/>
<polygon fill="#63b8ff" stroke="#63b8ff" points="450.92,-280.35 447.47,-290.37 456.41,-284.69 450.92,-280.35"/>
</a>
</g>
</g>
<!-- Node3 -->
<g id="Node000003" class="node">
<title>Node3</title>
<g id="a_Node000003"><a xlink:href="renderer_8h.html" target="_top" xlink:title=" ">
<polygon fill="white" stroke="#666666" points="329.48,-76 209.23,-76 209.23,-56 329.48,-56 329.48,-76"/>
<text text-anchor="middle" x="269.35" y="-62.5" font-family="Helvetica,sans-Serif" font-size="10.00">demo/include/renderer.h</text>
</a>
</g>
</g>
<!-- Node2&#45;&gt;Node3 -->
<g id="edge2_Node000002_Node000003" class="edge">
<title>Node2&#45;&gt;Node3</title>
<g id="a_edge2_Node000002_Node000003"><a xlink:title=" ">
<path fill="none" stroke="#63b8ff" d="M391.79,-212.34C389.07,-198.4 384.37,-181.49 376.35,-168 352.07,-127.16 306.59,-92.35 283.53,-76.36"/>
<polygon fill="#63b8ff" stroke="#63b8ff" points="388.33,-212.89 393.45,-222.16 395.23,-211.72 388.33,-212.89"/>
</a>
</g>
</g>
<!-- Node4 -->
<g id="Node000004" class="node">
<title>Node4</title>
<g id="a_Node000004"><a xlink:href="main_8cpp.html" target="_top" xlink:title=" ">
<polygon fill="white" stroke="#666666" points="406.98,-20 307.73,-20 307.73,0 406.98,0 406.98,-20"/>
<text text-anchor="middle" x="357.35" y="-6.5" font-family="Helvetica,sans-Serif" font-size="10.00">demo/src/main.cpp</text>
</a>
</g>
</g>
<!-- Node2&#45;&gt;Node4 -->
<g id="edge15_Node000002_Node000004" class="edge">
<title>Node2&#45;&gt;Node4</title>
<g id="a_edge15_Node000002_Node000004"><a xlink:title=" ">
<path fill="none" stroke="#63b8ff" d="M396.84,-212.42C397.21,-199.05 397.09,-182.62 395.35,-168 388.54,-110.91 368.27,-44.58 360.46,-20.41"/>
<polygon fill="#63b8ff" stroke="#63b8ff" points="393.35,-212.06 396.45,-222.19 400.35,-212.34 393.35,-212.06"/>
</a>
</g>
</g>
<!-- Node5 -->
<g id="Node000005" class="node">
<title>Node5</title>
<g id="a_Node000005"><a xlink:href="renderer_8cpp.html" target="_top" xlink:title=" ">
<polygon fill="white" stroke="#666666" points="238.1,-20 124.6,-20 124.6,0 238.1,0 238.1,-20"/>
<text text-anchor="middle" x="181.35" y="-6.5" font-family="Helvetica,sans-Serif" font-size="10.00">demo/src/renderer.cpp</text>
</a>
</g>
</g>
<!-- Node2&#45;&gt;Node5 -->
<g id="edge16_Node000002_Node000005" class="edge">
<title>Node2&#45;&gt;Node5</title>
<g id="a_edge16_Node000002_Node000005"><a xlink:title=" ">
<path fill="none" stroke="#63b8ff" d="M333.9,-229.56C238.98,-213.68 63.32,-178.73 22.35,-132 -0.11,-106.38 -8.41,-83.01 12.35,-56 26.09,-38.13 80.76,-25.85 124.24,-18.69"/>
<polygon fill="#63b8ff" stroke="#63b8ff" points="333.13,-232.98 343.57,-231.15 334.27,-226.07 333.13,-232.98"/>
</a>
</g>
</g>
<!-- Node6 -->
<g id="Node000006" class="node">
<title>Node6</title>
<g id="a_Node000006"><a xlink:href="scene_8h.html" target="_top" xlink:title=" ">
<polygon fill="white" stroke="#666666" points="366.98,-188 255.73,-188 255.73,-168 366.98,-168 366.98,-188"/>
<text text-anchor="middle" x="311.35" y="-174.5" font-family="Helvetica,sans-Serif" font-size="10.00">demo/include/scene.h</text>
</a>
</g>
</g>
<!-- Node2&#45;&gt;Node6 -->
<g id="edge5_Node000002_Node000006" class="edge">
<title>Node2&#45;&gt;Node6</title>
<g id="a_edge5_Node000002_Node000006"><a xlink:title=" ">
<path fill="none" stroke="#63b8ff" d="M364.53,-216.99C350.74,-207.14 335.22,-196.05 324.52,-188.41"/>
<polygon fill="#63b8ff" stroke="#63b8ff" points="362.32,-219.7 372.49,-222.67 366.38,-214.01 362.32,-219.7"/>
</a>
</g>
</g>
<!-- Node7 -->
<g id="Node000007" class="node">
<title>Node7</title>
<g id="a_Node000007"><a xlink:href="subsystems_8h.html" target="_top" xlink:title=" ">
<polygon fill="white" stroke="#666666" points="169.48,-132 31.23,-132 31.23,-112 169.48,-112 169.48,-132"/>
<text text-anchor="middle" x="100.35" y="-118.5" font-family="Helvetica,sans-Serif" font-size="10.00">demo/include/subsystems.h</text>
</a>
</g>
</g>
<!-- Node2&#45;&gt;Node7 -->
<g id="edge13_Node000002_Node000007" class="edge">
<title>Node2&#45;&gt;Node7</title>
<g id="a_edge13_Node000002_Node000007"><a xlink:title=" ">
<path fill="none" stroke="#63b8ff" d="M336.01,-220.04C308.52,-210.91 275.56,-199.47 246.35,-188 200.38,-169.94 147.75,-145.57 119.95,-132.4"/>
<polygon fill="#63b8ff" stroke="#63b8ff" points="334.61,-223.26 345.2,-223.07 336.8,-216.61 334.61,-223.26"/>
</a>
</g>
</g>
<!-- Node2&#45;&gt;Node10 -->
<g id="edge14_Node000002_Node000010" class="edge">
<title>Node2&#45;&gt;Node10</title>
<g id="a_edge14_Node000002_Node000010"><a xlink:title=" ">
<path fill="none" stroke="#63b8ff" d="M441.8,-219.1C465.92,-208.75 494.28,-196.6 513.4,-188.41"/>
<polygon fill="#63b8ff" stroke="#63b8ff" points="440.61,-215.8 432.8,-222.95 443.37,-222.23 440.61,-215.8"/>
</a>
</g>
</g>
<!-- Node3&#45;&gt;Node4 -->
<g id="edge3_Node000003_Node000004" class="edge">
<title>Node3&#45;&gt;Node4</title>
<g id="a_edge3_Node000003_Node000004"><a xlink:title=" ">
<path fill="none" stroke="#63b8ff" d="M294.1,-49.81C309.45,-40.39 328.7,-28.58 341.9,-20.48"/>
<polygon fill="#63b8ff" stroke="#63b8ff" points="292.66,-46.59 285.97,-54.8 296.32,-52.56 292.66,-46.59"/>
</a>
</g>
</g>
<!-- Node3&#45;&gt;Node5 -->
<g id="edge4_Node000003_Node000005" class="edge">
<title>Node3&#45;&gt;Node5</title>
<g id="a_edge4_Node000003_Node000005"><a xlink:title=" ">
<path fill="none" stroke="#63b8ff" d="M244.6,-49.81C229.25,-40.39 210,-28.58 196.8,-20.48"/>
<polygon fill="#63b8ff" stroke="#63b8ff" points="242.38,-52.56 252.73,-54.8 246.04,-46.59 242.38,-52.56"/>
</a>
</g>
</g>
<!-- Node6&#45;&gt;Node3 -->
<g id="edge6_Node000006_Node000003" class="edge">
<title>Node6&#45;&gt;Node3</title>
<g id="a_edge6_Node000006_Node000003"><a xlink:title=" ">
<path fill="none" stroke="#63b8ff" d="M310.19,-156.73C308.9,-143.58 306.16,-126.31 300.35,-112 294.86,-98.46 284.76,-84.93 277.58,-76.29"/>
<polygon fill="#63b8ff" stroke="#63b8ff" points="306.67,-156.62 310.93,-166.32 313.65,-156.08 306.67,-156.62"/>
</a>
</g>
</g>
<!-- Node6&#45;&gt;Node4 -->
<g id="edge11_Node000006_Node000004" class="edge">
<title>Node6&#45;&gt;Node4</title>
<g id="a_edge11_Node000006_Node000004"><a xlink:title=" ">
<path fill="none" stroke="#63b8ff" d="M316.9,-156.97C326.89,-120.92 347.54,-46.42 354.77,-20.3"/>
<polygon fill="#63b8ff" stroke="#63b8ff" points="313.66,-155.57 314.36,-166.14 320.4,-157.44 313.66,-155.57"/>
</a>
</g>
</g>
<!-- Node6&#45;&gt;Node7 -->
<g id="edge7_Node000006_Node000007" class="edge">
<title>Node6&#45;&gt;Node7</title>
<g id="a_edge7_Node000006_Node000007"><a xlink:title=" ">
<path fill="none" stroke="#63b8ff" d="M263.73,-164.81C225.48,-155.02 172.52,-141.47 137.39,-132.48"/>
<polygon fill="#63b8ff" stroke="#63b8ff" points="262.58,-168.13 273.13,-167.22 264.31,-161.35 262.58,-168.13"/>
</a>
</g>
</g>
<!-- Node9 -->
<g id="Node000009" class="node">
<title>Node9</title>
<g id="a_Node000009"><a xlink:href="scene_8cpp.html" target="_top" xlink:title=" ">
<polygon fill="white" stroke="#666666" points="291.6,-132 187.1,-132 187.1,-112 291.6,-112 291.6,-132"/>
<text text-anchor="middle" x="239.35" y="-118.5" font-family="Helvetica,sans-Serif" font-size="10.00">demo/src/scene.cpp</text>
</a>
</g>
</g>
<!-- Node6&#45;&gt;Node9 -->
<g id="edge12_Node000006_Node000009" class="edge">
<title>Node6&#45;&gt;Node9</title>
<g id="a_edge12_Node000006_Node000009"><a xlink:title=" ">
<path fill="none" stroke="#63b8ff" d="M289.96,-160.95C277.5,-151.61 262.24,-140.16 251.75,-132.3"/>
<polygon fill="#63b8ff" stroke="#63b8ff" points="287.5,-163.49 297.6,-166.69 291.7,-157.89 287.5,-163.49"/>
</a>
</g>
</g>
<!-- Node7&#45;&gt;Node3 -->
<g id="edge8_Node000007_Node000003" class="edge">
<title>Node7&#45;&gt;Node3</title>
<g id="a_edge8_Node000007_Node000003"><a xlink:title=" ">
<path fill="none" stroke="#63b8ff" d="M140.48,-108.18C170.94,-98.44 212.15,-85.28 239.68,-76.48"/>
<polygon fill="#63b8ff" stroke="#63b8ff" points="139.69,-104.76 131.23,-111.13 141.82,-111.42 139.69,-104.76"/>
</a>
</g>
</g>
<!-- Node7&#45;&gt;Node5 -->
<g id="edge9_Node000007_Node000005" class="edge">
<title>Node7&#45;&gt;Node5</title>
<g id="a_edge9_Node000007_Node000005"><a xlink:title=" ">
<path fill="none" stroke="#63b8ff" d="M129.08,-105.81C140.9,-98.26 153.79,-88.15 162.35,-76 174.54,-58.7 178.98,-33.59 180.54,-20.21"/>
<polygon fill="#63b8ff" stroke="#63b8ff" points="127.61,-102.61 120.82,-110.75 131.2,-108.62 127.61,-102.61"/>
</a>
</g>
</g>
<!-- Node8 -->
<g id="Node000008" class="node">
<title>Node8</title>
<g id="a_Node000008"><a xlink:href="subsystems_8cpp.html" target="_top" xlink:title=" ">
<polygon fill="white" stroke="#666666" points="153.1,-76 21.6,-76 21.6,-56 153.1,-56 153.1,-76"/>
<text text-anchor="middle" x="87.35" y="-62.5" font-family="Helvetica,sans-Serif" font-size="10.00">demo/src/subsystems.cpp</text>
</a>
</g>
</g>
<!-- Node7&#45;&gt;Node8 -->
<g id="edge10_Node000007_Node000008" class="edge">
<title>Node7&#45;&gt;Node8</title>
<g id="a_edge10_Node000007_Node000008"><a xlink:title=" ">
<path fill="none" stroke="#63b8ff" d="M95.4,-100.43C93.4,-92.11 91.19,-82.93 89.59,-76.3"/>
<polygon fill="#63b8ff" stroke="#63b8ff" points="91.99,-101.22 97.73,-110.12 98.79,-99.58 91.99,-101.22"/>
</a>
</g>
</g>
</g>
</svg>

<g id="navigator" transform="translate(0 0)" fill="#404254">
  <rect fill="#f2f5e9" fill-opacity="0.5" stroke="#606060" stroke-width=".5" x="0" y="0" width="60" height="60"/>
  <use id="zoomplus" xlink:href="#zoomPlus" x="17" y="9" onmousedown="handleZoom(evt,'in')"/>
  <use id="zoomminus" xlink:href="#zoomMin" x="42" y="9" onmousedown="handleZoom(evt,'out')"/>
  <use id="reset" xlink:href="#resetDef" x="30" y="36" onmousedown="handleReset()"/>
   <use id="arrowup" xlink:href="#arrowUp" x="0" y="0" onmousedown="handlePan(0,-1)"/>
  <use id="arrowright" xlink:href="#arrowRight" x="0" y="0" onmousedown="handlePan(1,0)"/>
  <use id="arrowdown" xlink:href="#arrowDown" x="0" y="0" onmousedown="handlePan(0,1)"/>
  <use id="arrowleft" xlink:href="#arrowLeft" x="0" y="0" onmousedown="handlePan(-1,0)"/>
</g>
<svg viewBox="0 0 15 15" width="100%" height="30px" preserveAspectRatio="xMaxYMin meet">
 <g id="arrow_out" transform="scale(0.3 0.3)">
  <a xlink:href="dispatch_8h__dep__incl_org.svg" target="_base">
   <rect id="button" ry="5" rx="5" y="6" x="6" height="38" width="38"
        fill="#f2f5e9" fill-opacity="0.5" stroke="#606060" stroke-width="1.0"/>
   <path id="arrow"
     d="M 11.500037,31.436501 C 11.940474,20.09759 22.043105,11.32322 32.158766,21.979434 L 37.068811,17.246167 C 37.068811,17.246167 37.088388,32 37.088388,32 L 22.160133,31.978069 C 22.160133,31.978069 26.997745,27.140456 26.997745,27.140456 C 18.528582,18.264221 13.291696,25.230495 11.500037,31.436501 z"
     style="fill:#404040;"/>
  </a>
 </g>
</svg>

<style type='text/css'>
<![CDATA[
[data-mouse-over-selected='false'] { opacity: 0.7; }
[data-mouse-over-selected='true']  { opacity: 1.0; }
]]>
</style>
<script type="application/ecmascript"><![CDATA[
document.addEventListener('DOMContentLoaded', (event) => {
  highlightEdges();
  highlightAdjacentNodes();
});
]]></script>
</svg>
