<?xml version="1.0" encoding="UTF-8" standalone="no"?>
<!DOCTYPE svg PUBLIC "-//W3C//DTD SVG 1.1//EN"
 "http://www.w3.org/Graphics/SVG/1.1/DTD/svg11.dtd">
<!-- Generated by graphviz version 10.0.1 (20240210.2158)
 -->
<!-- Title: hybrid&#45;renderer&#45;lib/include/hri_math.h Pages: 1 -->
<!--zoomable 424 -->

<svg id="main" version="1.1" xmlns="http://www.w3.org/2000/svg" xmlns:xlink="http://www.w3.org/1999/xlink" xml:space="preserve" onload="init(evt)">
<style type="text/css"><![CDATA[
.node, .edge {opacity: 0.7;}
.node.selected, .edge.selected {opacity: 1;}
.edge:hover path { stroke: red; }
.edge:hover polygon { stroke: red; fill: red; }
]]></style>

<defs>
  <circle id="rim" cx="0" cy="0" r="7"/>
  <circle id="rim2" cx="0" cy="0" r="3.5"/>
  <g id="zoomPlus">
    <use xlink:href="#rim" fill="#404040"><set attributeName="fill" to="#808080" begin="zoomplus.mouseover" end="zoomplus.mouseout"/></use>
    <path d="M-4,0h8M0,-4v8" fill="none" stroke="white" stroke-width="1.5" pointer-events="none"/>
  </g>
  <g id="zoomMin">
    <use xlink:href="#rim" fill="#404040"><set attributeName="fill" to="#808080" begin="zoomminus.mouseover" end="zoomminus.mouseout"/></use>
    <path d="M-4,0h8" fill="none" stroke="white" stroke-width="1.5" pointer-events="none"/>
  </g>
  <g id="arrowUp" transform="translate(30 24)">
    <use xlink:href="#rim"/>
    <path pointer-events="none" fill="none" stroke="white" stroke-width="1.5" d="M0,-3.0v7 M-2.5,-0.5L0,-3.0L2.5,-0.5"/>
  </g>
  <g id="arrowRight" transform="rotate(90) translate(36 -43)">
    <use xlink:href="#rim"/>
    <path pointer-events="none" fill="none" stroke="white" stroke-width="1.5" d="M0,-3.0v7 M-2.5,-0.5L0,-3.0L2.5,-0.5"/>
  </g>
  <g id="arrowDown" transform="rotate(180) translate(-30 -48)">
    <use xlink:href="#rim"/>
    <path pointer-events="none" fill="none" stroke="white" stroke-width="1.5" d="M0,-3.0v7 M-2.5,-0.5L0,-3.0L2.5,-0.5"/>
  </g>
  <g id="arrowLeft" transform="rotate(270) translate(-36 17)">
    <use xlink:href="#rim"/>
    <path pointer-events="none" fill="none" stroke="white" stroke-width="1.5" d="M0,-3.0v7 M-2.5,-0.5L0,-3.0L2.5,-0.5"/>
  </g>
  <g id="resetDef">
    <use xlink:href="#rim2" fill="#404040"><set attributeName="fill" to="#808080" begin="reset.mouseover" end="reset.mouseout"/></use>
  </g>
</defs>
<script type="application/ecmascript">
var viewWidth = 622;
var viewHeight = 424;
var sectionId = 'dynsection-1';
</script>
<script type="application/ecmascript" xlink:href="svg.min.js"/>
<svg id="graph" class="graph">
<g id="viewport">
<title>hybrid&#45;renderer&#45;lib/include/hri_math.h</title>
<!-- Node1 -->
<g id="Node000001" class="node">
<title>Node1</title>
<g id="a_Node000001"><a xlink:title=" ">
<polygon fill="#999999" stroke="#666666" points="338.75,-416 240.25,-416 240.25,-384 338.75,-384 338.75,-416"/>
<text text-anchor="start" x="248.25" y="-402.5" font-family="Helvetica,sans-Serif" font-size="10.00">hybrid&#45;renderer&#45;lib</text>
<text text-anchor="middle" x="289.5" y="-390.5" font-family="Helvetica,sans-Serif" font-size="10.00">/include/hri_math.h</text>
</a>
</g>
</g>
<!-- Node2 -->
<g id="Node000002" class="node">
<title>Node2</title>
<g id="a_Node000002"><a xlink:href="camera_8h.html" target="_top" xlink:title=" ">
<polygon fill="white" stroke="#666666" points="261.12,-348 167.88,-348 167.88,-316 261.12,-316 261.12,-348"/>
<text text-anchor="start" x="175.88" y="-334.5" font-family="Helvetica,sans-Serif" font-size="10.00">hybrid&#45;renderer&#45;lib</text>
<text text-anchor="middle" x="214.5" y="-322.5" font-family="Helvetica,sans-Serif" font-size="10.00">/include/camera.h</text>
</a>
</g>
</g>
<!-- Node1&#45;&gt;Node2 -->
<g id="edge1_Node000001_Node000002" class="edge">
<title>Node1&#45;&gt;Node2</title>
<g id="a_edge1_Node000001_Node000002"><a xlink:title=" ">
<path fill="none" stroke="#63b8ff" d="M263.73,-376.32C253.28,-367.13 241.49,-356.75 232.06,-348.45"/>
<polygon fill="#63b8ff" stroke="#63b8ff" points="261.15,-378.71 270.97,-382.69 265.77,-373.46 261.15,-378.71"/>
</a>
</g>
</g>
<!-- Node3 -->
<g id="Node000003" class="node">
<title>Node3</title>
<g id="a_Node000003"><a xlink:href="hybrid__renderer_8h.html" target="_top" xlink:title=" ">
<polygon fill="white" stroke="#666666" points="391.38,-212 263.62,-212 263.62,-180 391.38,-180 391.38,-212"/>
<text text-anchor="start" x="271.62" y="-198.5" font-family="Helvetica,sans-Serif" font-size="10.00">hybrid&#45;renderer&#45;lib</text>
<text text-anchor="middle" x="327.5" y="-186.5" font-family="Helvetica,sans-Serif" font-size="10.00">/include/hybrid_renderer.h</text>
</a>
</g>
</g>
<!-- Node1&#45;&gt;Node3 -->
<g id="edge16_Node000001_Node000003" class="edge">
<title>Node1&#45;&gt;Node3</title>
<g id="a_edge16_Node000001_Node000003"><a xlink:title=" ">
<path fill="none" stroke="#63b8ff" d="M294.46,-372.66C302.5,-329.89 318.16,-246.67 324.61,-212.36"/>
<polygon fill="#63b8ff" stroke="#63b8ff" points="291.05,-371.86 292.64,-382.33 297.92,-373.15 291.05,-371.86"/>
</a>
</g>
</g>
<!-- Node11 -->
<g id="Node000011" class="node">
<title>Node11</title>
<g id="a_Node000011"><a xlink:href="camera_8cpp.html" target="_top" xlink:title=" ">
<polygon fill="white" stroke="#666666" points="196.12,-280 102.88,-280 102.88,-248 196.12,-248 196.12,-280"/>
<text text-anchor="start" x="110.88" y="-266.5" font-family="Helvetica,sans-Serif" font-size="10.00">hybrid&#45;renderer&#45;lib</text>
<text text-anchor="middle" x="149.5" y="-254.5" font-family="Helvetica,sans-Serif" font-size="10.00">/src/camera.cpp</text>
</a>
</g>
</g>
<!-- Node1&#45;&gt;Node11 -->
<g id="edge27_Node000001_Node000011" class="edge">
<title>Node1&#45;&gt;Node11</title>
<g id="a_edge27_Node000001_Node000011"><a xlink:title=" ">
<path fill="none" stroke="#63b8ff" d="M229.04,-389.75C203.34,-382.66 175.45,-370.12 158.5,-348 143.51,-328.44 144.46,-298.26 146.79,-280.19"/>
<polygon fill="#63b8ff" stroke="#63b8ff" points="227.87,-393.07 238.42,-392.11 229.57,-386.28 227.87,-393.07"/>
</a>
</g>
</g>
<!-- Node12 -->
<g id="Node000012" class="node">
<title>Node12</title>
<g id="a_Node000012"><a xlink:href="material_8h.html" target="_top" xlink:title=" ">
<polygon fill="white" stroke="#666666" points="413.25,-348 317.75,-348 317.75,-316 413.25,-316 413.25,-348"/>
<text text-anchor="start" x="325.75" y="-334.5" font-family="Helvetica,sans-Serif" font-size="10.00">hybrid&#45;renderer&#45;lib</text>
<text text-anchor="middle" x="365.5" y="-322.5" font-family="Helvetica,sans-Serif" font-size="10.00">/include/material.h</text>
</a>
</g>
</g>
<!-- Node1&#45;&gt;Node12 -->
<g id="edge17_Node000001_Node000012" class="edge">
<title>Node1&#45;&gt;Node12</title>
<g id="a_edge17_Node000001_Node000012"><a xlink:title=" ">
<path fill="none" stroke="#63b8ff" d="M315.61,-376.32C326.2,-367.13 338.15,-356.75 347.71,-348.45"/>
<polygon fill="#63b8ff" stroke="#63b8ff" points="313.53,-373.5 308.27,-382.7 318.11,-378.79 313.53,-373.5"/>
</a>
</g>
</g>
<!-- Node15 -->
<g id="Node000015" class="node">
<title>Node15</title>
<g id="a_Node000015"><a xlink:href="mesh_8h.html" target="_top" xlink:title=" ">
<polygon fill="white" stroke="#666666" points="524.12,-348 430.88,-348 430.88,-316 524.12,-316 524.12,-348"/>
<text text-anchor="start" x="438.88" y="-334.5" font-family="Helvetica,sans-Serif" font-size="10.00">hybrid&#45;renderer&#45;lib</text>
<text text-anchor="middle" x="477.5" y="-322.5" font-family="Helvetica,sans-Serif" font-size="10.00">/include/mesh.h</text>
</a>
</g>
</g>
<!-- Node1&#45;&gt;Node15 -->
<g id="edge22_Node000001_Node000015" class="edge">
<title>Node1&#45;&gt;Node15</title>
<g id="a_edge22_Node000001_Node000015"><a xlink:title=" ">
<path fill="none" stroke="#63b8ff" d="M344.14,-379.82C372.5,-369.86 406.71,-357.85 433.37,-348.49"/>
<polygon fill="#63b8ff" stroke="#63b8ff" points="343.28,-376.41 335.01,-383.02 345.6,-383.01 343.28,-376.41"/>
</a>
</g>
</g>
<!-- Node2&#45;&gt;Node3 -->
<g id="edge2_Node000002_Node000003" class="edge">
<title>Node2&#45;&gt;Node3</title>
<g id="a_edge2_Node000002_Node000003"><a xlink:title=" ">
<path fill="none" stroke="#63b8ff" d="M230.93,-306.52C242.69,-289.56 259.24,-266.75 275.5,-248 286.44,-235.39 299.92,-222.23 310.42,-212.43"/>
<polygon fill="#63b8ff" stroke="#63b8ff" points="228.22,-304.28 225.46,-314.5 234,-308.23 228.22,-304.28"/>
</a>
</g>
</g>
<!-- Node2&#45;&gt;Node11 -->
<g id="edge15_Node000002_Node000011" class="edge">
<title>Node2&#45;&gt;Node11</title>
<g id="a_edge15_Node000002_Node000011"><a xlink:title=" ">
<path fill="none" stroke="#63b8ff" d="M191.56,-307.71C182.58,-298.59 172.52,-288.37 164.49,-280.22"/>
<polygon fill="#63b8ff" stroke="#63b8ff" points="188.85,-309.95 198.36,-314.61 193.84,-305.03 188.85,-309.95"/>
</a>
</g>
</g>
<!-- Node4 -->
<g id="Node000004" class="node">
<title>Node4</title>
<g id="a_Node000004"><a xlink:href="demo_8h.html" target="_top" xlink:title=" ">
<polygon fill="white" stroke="#666666" points="109,-76 0,-76 0,-56 109,-56 109,-76"/>
<text text-anchor="middle" x="54.5" y="-62.5" font-family="Helvetica,sans-Serif" font-size="10.00">demo/include/demo.h</text>
</a>
</g>
</g>
<!-- Node3&#45;&gt;Node4 -->
<g id="edge3_Node000003_Node000004" class="edge">
<title>Node3&#45;&gt;Node4</title>
<g id="a_edge3_Node000003_Node000004"><a xlink:title=" ">
<path fill="none" stroke="#63b8ff" d="M266.19,-176.02C240.5,-167.34 210.6,-156.24 184.5,-144 140.33,-123.28 91.72,-92.02 68.44,-76.47"/>
<polygon fill="#63b8ff" stroke="#63b8ff" points="264.89,-179.28 275.48,-179.12 267.1,-172.64 264.89,-179.28"/>
</a>
</g>
</g>
<!-- Node6 -->
<g id="Node000006" class="node">
<title>Node6</title>
<g id="a_Node000006"><a xlink:href="renderer_8h.html" target="_top" xlink:title=" ">
<polygon fill="white" stroke="#666666" points="247.62,-76 127.38,-76 127.38,-56 247.62,-56 247.62,-76"/>
<text text-anchor="middle" x="187.5" y="-62.5" font-family="Helvetica,sans-Serif" font-size="10.00">demo/include/renderer.h</text>
</a>
</g>
</g>
<!-- Node3&#45;&gt;Node6 -->
<g id="edge5_Node000003_Node000006" class="edge">
<title>Node3&#45;&gt;Node6</title>
<g id="a_edge5_Node000003_Node000006"><a xlink:title=" ">
<path fill="none" stroke="#63b8ff" d="M252.7,-178.68C233.48,-171.11 214.57,-160.06 201.5,-144 185.46,-124.29 185.39,-92.29 186.51,-76.47"/>
<polygon fill="#63b8ff" stroke="#63b8ff" points="251.35,-181.92 261.95,-182.03 253.74,-175.34 251.35,-181.92"/>
</a>
</g>
</g>
<!-- Node7 -->
<g id="Node000007" class="node">
<title>Node7</title>
<g id="a_Node000007"><a xlink:href="renderer_8cpp.html" target="_top" xlink:title=" ">
<polygon fill="white" stroke="#666666" points="332.25,-20 218.75,-20 218.75,0 332.25,0 332.25,-20"/>
<text text-anchor="middle" x="275.5" y="-6.5" font-family="Helvetica,sans-Serif" font-size="10.00">demo/src/renderer.cpp</text>
</a>
</g>
</g>
<!-- Node3&#45;&gt;Node7 -->
<g id="edge12_Node000003_Node000007" class="edge">
<title>Node3&#45;&gt;Node7</title>
<g id="a_edge12_Node000003_Node000007"><a xlink:title=" ">
<path fill="none" stroke="#63b8ff" d="M367.42,-173.98C413.12,-147.17 477.63,-99.1 444.5,-56 430.76,-38.13 376.1,-25.85 332.61,-18.69"/>
<polygon fill="#63b8ff" stroke="#63b8ff" points="365.97,-170.78 359.03,-178.78 369.45,-176.86 365.97,-170.78"/>
</a>
</g>
</g>
<!-- Node8 -->
<g id="Node000008" class="node">
<title>Node8</title>
<g id="a_Node000008"><a xlink:href="subsystems_8h.html" target="_top" xlink:title=" ">
<polygon fill="white" stroke="#666666" points="348.62,-138 210.38,-138 210.38,-118 348.62,-118 348.62,-138"/>
<text text-anchor="middle" x="279.5" y="-124.5" font-family="Helvetica,sans-Serif" font-size="10.00">demo/include/subsystems.h</text>
</a>
</g>
</g>
<!-- Node3&#45;&gt;Node8 -->
<g id="edge8_Node000003_Node000008" class="edge">
<title>Node3&#45;&gt;Node8</title>
<g id="a_edge8_Node000003_Node000008"><a xlink:title=" ">
<path fill="none" stroke="#63b8ff" d="M309.83,-170.7C301.63,-159.43 292.38,-146.71 286.28,-138.32"/>
<polygon fill="#63b8ff" stroke="#63b8ff" points="306.76,-172.44 315.48,-178.47 312.43,-168.32 306.76,-172.44"/>
</a>
</g>
</g>
<!-- Node9 -->
<g id="Node000009" class="node">
<title>Node9</title>
<g id="a_Node000009"><a xlink:href="subsystems_8cpp.html" target="_top" xlink:title=" ">
<polygon fill="white" stroke="#666666" points="435.25,-76 303.75,-76 303.75,-56 435.25,-56 435.25,-76"/>
<text text-anchor="middle" x="369.5" y="-62.5" font-family="Helvetica,sans-Serif" font-size="10.00">demo/src/subsystems.cpp</text>
</a>
</g>
</g>
<!-- Node3&#45;&gt;Node9 -->
<g id="edge13_Node000003_Node000009" class="edge">
<title>Node3&#45;&gt;Node9</title>
<g id="a_edge13_Node000003_Node000009"><a xlink:title=" ">
<path fill="none" stroke="#63b8ff" d="M344.62,-170.19C349.47,-162.15 354.29,-152.98 357.5,-144 365.88,-120.56 368.41,-91.04 369.17,-76.28"/>
<polygon fill="#63b8ff" stroke="#63b8ff" points="341.81,-168.09 339.4,-178.41 347.72,-171.84 341.81,-168.09"/>
</a>
</g>
</g>
<!-- Node10 -->
<g id="Node000010" class="node">
<title>Node10</title>
<g id="a_Node000010"><a xlink:href="hybrid__renderer_8cpp.html" target="_top" xlink:title=" ">
<polygon fill="white" stroke="#666666" points="613,-144 492,-144 492,-112 613,-112 613,-144"/>
<text text-anchor="start" x="500" y="-130.5" font-family="Helvetica,sans-Serif" font-size="10.00">hybrid&#45;renderer&#45;lib</text>
<text text-anchor="middle" x="552.5" y="-118.5" font-family="Helvetica,sans-Serif" font-size="10.00">/src/hybrid_renderer.cpp</text>
</a>
</g>
</g>
<!-- Node3&#45;&gt;Node10 -->
<g id="edge14_Node000003_Node000010" class="edge">
<title>Node3&#45;&gt;Node10</title>
<g id="a_edge14_Node000003_Node000010"><a xlink:title=" ">
<path fill="none" stroke="#63b8ff" d="M391.1,-176.34C425.39,-166.28 467.21,-154.02 499.69,-144.49"/>
<polygon fill="#63b8ff" stroke="#63b8ff" points="390.32,-172.93 381.7,-179.1 392.29,-179.64 390.32,-172.93"/>
</a>
</g>
</g>
<!-- Node5 -->
<g id="Node000005" class="node">
<title>Node5</title>
<g id="a_Node000005"><a xlink:href="main_8cpp.html" target="_top" xlink:title=" ">
<polygon fill="white" stroke="#666666" points="153.12,-20 53.88,-20 53.88,0 153.12,0 153.12,-20"/>
<text text-anchor="middle" x="103.5" y="-6.5" font-family="Helvetica,sans-Serif" font-size="10.00">demo/src/main.cpp</text>
</a>
</g>
</g>
<!-- Node4&#45;&gt;Node5 -->
<g id="edge4_Node000004_Node000005" class="edge">
<title>Node4&#45;&gt;Node5</title>
<g id="a_edge4_Node000004_Node000005"><a xlink:title=" ">
<path fill="none" stroke="#63b8ff" d="M70.57,-47.29C78.75,-38.28 88.35,-27.7 95.06,-20.3"/>
<polygon fill="#63b8ff" stroke="#63b8ff" points="68.18,-44.72 64.05,-54.47 73.36,-49.42 68.18,-44.72"/>
</a>
</g>
</g>
<!-- Node6&#45;&gt;Node5 -->
<g id="edge6_Node000006_Node000005" class="edge">
<title>Node6&#45;&gt;Node5</title>
<g id="a_edge6_Node000006_Node000005"><a xlink:title=" ">
<path fill="none" stroke="#63b8ff" d="M163.45,-49.54C148.87,-40.17 130.73,-28.51 118.25,-20.48"/>
<polygon fill="#63b8ff" stroke="#63b8ff" points="161.29,-52.31 171.6,-54.78 165.08,-46.42 161.29,-52.31"/>
</a>
</g>
</g>
<!-- Node6&#45;&gt;Node7 -->
<g id="edge7_Node000006_Node000007" class="edge">
<title>Node6&#45;&gt;Node7</title>
<g id="a_edge7_Node000006_Node000007"><a xlink:title=" ">
<path fill="none" stroke="#63b8ff" d="M212.25,-49.81C227.6,-40.39 246.85,-28.58 260.05,-20.48"/>
<polygon fill="#63b8ff" stroke="#63b8ff" points="210.81,-46.59 204.12,-54.8 214.47,-52.56 210.81,-46.59"/>
</a>
</g>
</g>
<!-- Node8&#45;&gt;Node6 -->
<g id="edge9_Node000008_Node000006" class="edge">
<title>Node8&#45;&gt;Node6</title>
<g id="a_edge9_Node000008_Node000006"><a xlink:title=" ">
<path fill="none" stroke="#63b8ff" d="M255.79,-111.54C238.69,-100.39 216.18,-85.71 201.77,-76.31"/>
<polygon fill="#63b8ff" stroke="#63b8ff" points="253.57,-114.27 263.86,-116.8 257.39,-108.4 253.57,-114.27"/>
</a>
</g>
</g>
<!-- Node8&#45;&gt;Node7 -->
<g id="edge10_Node000008_Node000007" class="edge">
<title>Node8&#45;&gt;Node7</title>
<g id="a_edge10_Node000008_Node000007"><a xlink:title=" ">
<path fill="none" stroke="#63b8ff" d="M278.78,-106.23C277.91,-80.8 276.46,-38.84 275.82,-20.3"/>
<polygon fill="#63b8ff" stroke="#63b8ff" points="275.28,-106.12 279.12,-115.99 282.27,-105.88 275.28,-106.12"/>
</a>
</g>
</g>
<!-- Node8&#45;&gt;Node9 -->
<g id="edge11_Node000008_Node000009" class="edge">
<title>Node8&#45;&gt;Node9</title>
<g id="a_edge11_Node000008_Node000009"><a xlink:title=" ">
<path fill="none" stroke="#63b8ff" d="M302.7,-111.54C319.42,-100.39 341.44,-85.71 355.54,-76.31"/>
<polygon fill="#63b8ff" stroke="#63b8ff" points="301.2,-108.33 294.82,-116.79 305.08,-114.15 301.2,-108.33"/>
</a>
</g>
</g>
<!-- Node12&#45;&gt;Node3 -->
<g id="edge18_Node000012_Node000003" class="edge">
<title>Node12&#45;&gt;Node3</title>
<g id="a_edge18_Node000012_Node000003"><a xlink:title=" ">
<path fill="none" stroke="#63b8ff" d="M355.08,-305.04C352.08,-297.08 348.97,-288.24 346.5,-280 339.55,-256.77 333.71,-229.24 330.4,-212.46"/>
<polygon fill="#63b8ff" stroke="#63b8ff" points="351.73,-306.08 358.6,-314.14 358.26,-303.55 351.73,-306.08"/>
</a>
</g>
</g>
<!-- Node13 -->
<g id="Node000013" class="node">
<title>Node13</title>
<g id="a_Node000013"><a xlink:href="scene_8h.html" target="_top" xlink:title=" ">
<polygon fill="white" stroke="#666666" points="449.12,-280 355.88,-280 355.88,-248 449.12,-248 449.12,-280"/>
<text text-anchor="start" x="363.88" y="-266.5" font-family="Helvetica,sans-Serif" font-size="10.00">hybrid&#45;renderer&#45;lib</text>
<text text-anchor="middle" x="402.5" y="-254.5" font-family="Helvetica,sans-Serif" font-size="10.00">/include/scene.h</text>
</a>
</g>
</g>
<!-- Node12&#45;&gt;Node13 -->
<g id="edge19_Node000012_Node000013" class="edge">
<title>Node12&#45;&gt;Node13</title>
<g id="a_edge19_Node000012_Node000013"><a xlink:title=" ">
<path fill="none" stroke="#63b8ff" d="M379.66,-305.74C384.48,-297.14 389.72,-287.79 393.96,-280.22"/>
<polygon fill="#63b8ff" stroke="#63b8ff" points="376.66,-303.94 374.82,-314.37 382.76,-307.36 376.66,-303.94"/>
</a>
</g>
</g>
<!-- Node13&#45;&gt;Node3 -->
<g id="edge20_Node000013_Node000003" class="edge">
<title>Node13&#45;&gt;Node3</title>
<g id="a_edge20_Node000013_Node000003"><a xlink:title=" ">
<path fill="none" stroke="#63b8ff" d="M376.73,-240.32C366.28,-231.13 354.49,-220.75 345.06,-212.45"/>
<polygon fill="#63b8ff" stroke="#63b8ff" points="374.15,-242.71 383.97,-246.69 378.77,-237.46 374.15,-242.71"/>
</a>
</g>
</g>
<!-- Node14 -->
<g id="Node000014" class="node">
<title>Node14</title>
<g id="a_Node000014"><a xlink:href="scene_8cpp.html" target="_top" xlink:title=" ">
<polygon fill="white" stroke="#666666" points="588.12,-212 494.88,-212 494.88,-180 588.12,-180 588.12,-212"/>
<text text-anchor="start" x="502.88" y="-198.5" font-family="Helvetica,sans-Serif" font-size="10.00">hybrid&#45;renderer&#45;lib</text>
<text text-anchor="middle" x="541.5" y="-186.5" font-family="Helvetica,sans-Serif" font-size="10.00">/src/scene.cpp</text>
</a>
</g>
</g>
<!-- Node13&#45;&gt;Node14 -->
<g id="edge21_Node000013_Node000014" class="edge">
<title>Node13&#45;&gt;Node14</title>
<g id="a_edge21_Node000013_Node000014"><a xlink:title=" ">
<path fill="none" stroke="#63b8ff" d="M445.45,-242.61C465.98,-232.86 490.16,-221.38 509.11,-212.38"/>
<polygon fill="#63b8ff" stroke="#63b8ff" points="443.99,-239.43 436.46,-246.88 446.99,-245.75 443.99,-239.43"/>
</a>
</g>
</g>
<!-- Node15&#45;&gt;Node3 -->
<g id="edge23_Node000015_Node000003" class="edge">
<title>Node15&#45;&gt;Node3</title>
<g id="a_edge23_Node000015_Node000003"><a xlink:title=" ">
<path fill="none" stroke="#63b8ff" d="M477.61,-304.24C476.32,-286.39 471.84,-263.45 458.5,-248 441.43,-228.23 415.75,-216.08 391.63,-208.63"/>
<polygon fill="#63b8ff" stroke="#63b8ff" points="474.11,-304.27 478.01,-314.12 481.11,-303.99 474.11,-304.27"/>
</a>
</g>
</g>
<!-- Node15&#45;&gt;Node13 -->
<g id="edge24_Node000015_Node000013" class="edge">
<title>Node15&#45;&gt;Node13</title>
<g id="a_edge24_Node000015_Node000013"><a xlink:title=" ">
<path fill="none" stroke="#63b8ff" d="M451.73,-308.32C441.28,-299.13 429.49,-288.75 420.06,-280.45"/>
<polygon fill="#63b8ff" stroke="#63b8ff" points="449.15,-310.71 458.97,-314.69 453.77,-305.46 449.15,-310.71"/>
</a>
</g>
</g>
<!-- Node15&#45;&gt;Node14 -->
<g id="edge26_Node000015_Node000014" class="edge">
<title>Node15&#45;&gt;Node14</title>
<g id="a_edge26_Node000015_Node000014"><a xlink:title=" ">
<path fill="none" stroke="#63b8ff" d="M535.45,-323.5C562.38,-316.79 592.03,-304.08 608.5,-280 616.53,-268.26 614.82,-260.74 608.5,-248 600.97,-232.81 586.51,-220.91 572.94,-212.44"/>
<polygon fill="#63b8ff" stroke="#63b8ff" points="534.99,-320.02 525.99,-325.62 536.52,-326.85 534.99,-320.02"/>
</a>
</g>
</g>
<!-- Node16 -->
<g id="Node000016" class="node">
<title>Node16</title>
<g id="a_Node000016"><a xlink:href="mesh_8cpp.html" target="_top" xlink:title=" ">
<polygon fill="white" stroke="#666666" points="599.12,-280 505.88,-280 505.88,-248 599.12,-248 599.12,-280"/>
<text text-anchor="start" x="513.88" y="-266.5" font-family="Helvetica,sans-Serif" font-size="10.00">hybrid&#45;renderer&#45;lib</text>
<text text-anchor="middle" x="552.5" y="-254.5" font-family="Helvetica,sans-Serif" font-size="10.00">/src/mesh.cpp</text>
</a>
</g>
</g>
<!-- Node15&#45;&gt;Node16 -->
<g id="edge25_Node000015_Node000016" class="edge">
<title>Node15&#45;&gt;Node16</title>
<g id="a_edge25_Node000015_Node000016"><a xlink:title=" ">
<path fill="none" stroke="#63b8ff" d="M503.27,-308.32C513.72,-299.13 525.51,-288.75 534.94,-280.45"/>
<polygon fill="#63b8ff" stroke="#63b8ff" points="501.23,-305.46 496.03,-314.69 505.85,-310.71 501.23,-305.46"/>
</a>
</g>
</g>
</g>
</svg>

<g id="navigator" transform="translate(0 0)" fill="#404254">
  <rect fill="#f2f5e9" fill-opacity="0.5" stroke="#606060" stroke-width=".5" x="0" y="0" width="60" height="60"/>
  <use id="zoomplus" xlink:href="#zoomPlus" x="17" y="9" onmousedown="handleZoom(evt,'in')"/>
  <use id="zoomminus" xlink:href="#zoomMin" x="42" y="9" onmousedown="handleZoom(evt,'out')"/>
  <use id="reset" xlink:href="#resetDef" x="30" y="36" onmousedown="handleReset()"/>
   <use id="arrowup" xlink:href="#arrowUp" x="0" y="0" onmousedown="handlePan(0,-1)"/>
  <use id="arrowright" xlink:href="#arrowRight" x="0" y="0" onmousedown="handlePan(1,0)"/>
  <use id="arrowdown" xlink:href="#arrowDown" x="0" y="0" onmousedown="handlePan(0,1)"/>
  <use id="arrowleft" xlink:href="#arrowLeft" x="0" y="0" onmousedown="handlePan(-1,0)"/>
</g>
<svg viewBox="0 0 15 15" width="100%" height="30px" preserveAspectRatio="xMaxYMin meet">
 <g id="arrow_out" transform="scale(0.3 0.3)">
  <a xlink:href="hri__math_8h__dep__incl_org.svg" target="_base">
   <rect id="button" ry="5" rx="5" y="6" x="6" height="38" width="38"
        fill="#f2f5e9" fill-opacity="0.5" stroke="#606060" stroke-width="1.0"/>
   <path id="arrow"
     d="M 11.500037,31.436501 C 11.940474,20.09759 22.043105,11.32322 32.158766,21.979434 L 37.068811,17.246167 C 37.068811,17.246167 37.088388,32 37.088388,32 L 22.160133,31.978069 C 22.160133,31.978069 26.997745,27.140456 26.997745,27.140456 C 18.528582,18.264221 13.291696,25.230495 11.500037,31.436501 z"
     style="fill:#404040;"/>
  </a>
 </g>
</svg>

<style type='text/css'>
<![CDATA[
[data-mouse-over-selected='false'] { opacity: 0.7; }
[data-mouse-over-selected='true']  { opacity: 1.0; }
]]>
</style>
<script type="application/ecmascript"><![CDATA[
document.addEventListener('DOMContentLoaded', (event) => {
  highlightEdges();
  highlightAdjacentNodes();
});
]]></script>
</svg>
