<?xml version="1.0" encoding="UTF-8" standalone="no"?>
<!DOCTYPE svg PUBLIC "-//W3C//DTD SVG 1.1//EN"
 "http://www.w3.org/Graphics/SVG/1.1/DTD/svg11.dtd">
<!-- Generated by graphviz version 10.0.1 (20240210.2158)
 -->
<!-- Title: hybrid&#45;renderer&#45;lib/include/hri_math.h Pages: 1 -->
<svg width="903pt" height="536pt"
 viewBox="0.00 0.00 902.50 536.00" xmlns="http://www.w3.org/2000/svg" xmlns:xlink="http://www.w3.org/1999/xlink">
<g id="graph0" class="graph" transform="scale(1 1) rotate(0) translate(4 532)">
<title>hybrid&#45;renderer&#45;lib/include/hri_math.h</title>
<!-- Node1 -->
<g id="Node000001" class="node">
<title>Node1</title>
<g id="a_Node000001"><a xlink:title=" ">
<polygon fill="#999999" stroke="#666666" points="727.25,-528 628.75,-528 628.75,-496 727.25,-496 727.25,-528"/>
<text text-anchor="start" x="636.75" y="-514.5" font-family="Helvetica,sans-Serif" font-size="10.00">hybrid&#45;renderer&#45;lib</text>
<text text-anchor="middle" x="678" y="-502.5" font-family="Helvetica,sans-Serif" font-size="10.00">/include/hri_math.h</text>
</a>
</g>
</g>
<!-- Node2 -->
<g id="Node000002" class="node">
<title>Node2</title>
<g id="a_Node000002"><a xlink:href="camera_8h.html" target="_top" xlink:title=" ">
<polygon fill="white" stroke="#666666" points="687.62,-460 594.38,-460 594.38,-428 687.62,-428 687.62,-460"/>
<text text-anchor="start" x="602.38" y="-446.5" font-family="Helvetica,sans-Serif" font-size="10.00">hybrid&#45;renderer&#45;lib</text>
<text text-anchor="middle" x="641" y="-434.5" font-family="Helvetica,sans-Serif" font-size="10.00">/include/camera.h</text>
</a>
</g>
</g>
<!-- Node1&#45;&gt;Node2 -->
<g id="edge1_Node000001_Node000002" class="edge">
<title>Node1&#45;&gt;Node2</title>
<g id="a_edge1_Node000001_Node000002"><a xlink:title=" ">
<path fill="none" stroke="#63b8ff" d="M663.84,-485.74C659.02,-477.14 653.78,-467.79 649.54,-460.22"/>
<polygon fill="#63b8ff" stroke="#63b8ff" points="660.74,-487.36 668.68,-494.37 666.84,-483.94 660.74,-487.36"/>
</a>
</g>
</g>
<!-- Node3 -->
<g id="Node000003" class="node">
<title>Node3</title>
<g id="a_Node000003"><a xlink:href="hybrid__renderer_8h.html" target="_top" xlink:title=" ">
<polygon fill="white" stroke="#666666" points="577.88,-392 450.12,-392 450.12,-360 577.88,-360 577.88,-392"/>
<text text-anchor="start" x="458.12" y="-378.5" font-family="Helvetica,sans-Serif" font-size="10.00">hybrid&#45;renderer&#45;lib</text>
<text text-anchor="middle" x="514" y="-366.5" font-family="Helvetica,sans-Serif" font-size="10.00">/include/hybrid_renderer.h</text>
</a>
</g>
</g>
<!-- Node1&#45;&gt;Node3 -->
<g id="edge39_Node000001_Node000003" class="edge">
<title>Node1&#45;&gt;Node3</title>
<g id="a_edge39_Node000001_Node000003"><a xlink:title=" ">
<path fill="none" stroke="#63b8ff" d="M617.34,-504.06C563.79,-496.54 491.57,-482.5 474,-460 457.56,-438.94 479.59,-410.04 496.9,-392.49"/>
<polygon fill="#63b8ff" stroke="#63b8ff" points="616.58,-507.49 626.96,-505.37 617.52,-500.55 616.58,-507.49"/>
</a>
</g>
</g>
<!-- Node17 -->
<g id="Node000017" class="node">
<title>Node17</title>
<g id="a_Node000017"><a xlink:href="camera_8cpp.html" target="_top" xlink:title=" ">
<polygon fill="white" stroke="#666666" points="800.62,-392 707.38,-392 707.38,-360 800.62,-360 800.62,-392"/>
<text text-anchor="start" x="715.38" y="-378.5" font-family="Helvetica,sans-Serif" font-size="10.00">hybrid&#45;renderer&#45;lib</text>
<text text-anchor="middle" x="754" y="-366.5" font-family="Helvetica,sans-Serif" font-size="10.00">/src/camera.cpp</text>
</a>
</g>
</g>
<!-- Node1&#45;&gt;Node17 -->
<g id="edge43_Node000001_Node000017" class="edge">
<title>Node1&#45;&gt;Node17</title>
<g id="a_edge43_Node000001_Node000017"><a xlink:title=" ">
<path fill="none" stroke="#63b8ff" d="M695.34,-486.29C700.88,-478.06 706.89,-468.76 712,-460 725.43,-436.99 739,-409.16 746.94,-392.28"/>
<polygon fill="#63b8ff" stroke="#63b8ff" points="692.52,-484.2 689.76,-494.43 698.3,-488.16 692.52,-484.2"/>
</a>
</g>
</g>
<!-- Node18 -->
<g id="Node000018" class="node">
<title>Node18</title>
<g id="a_Node000018"><a xlink:href="mesh_8h.html" target="_top" xlink:title=" ">
<polygon fill="white" stroke="#666666" points="576.62,-460 483.38,-460 483.38,-428 576.62,-428 576.62,-460"/>
<text text-anchor="start" x="491.38" y="-446.5" font-family="Helvetica,sans-Serif" font-size="10.00">hybrid&#45;renderer&#45;lib</text>
<text text-anchor="middle" x="530" y="-434.5" font-family="Helvetica,sans-Serif" font-size="10.00">/include/mesh.h</text>
</a>
</g>
</g>
<!-- Node1&#45;&gt;Node18 -->
<g id="edge40_Node000001_Node000018" class="edge">
<title>Node1&#45;&gt;Node18</title>
<g id="a_edge40_Node000001_Node000018"><a xlink:title=" ">
<path fill="none" stroke="#63b8ff" d="M632.91,-490.89C611,-481.12 585.08,-469.56 564.74,-460.49"/>
<polygon fill="#63b8ff" stroke="#63b8ff" points="631.36,-494.03 641.92,-494.91 634.21,-487.64 631.36,-494.03"/>
</a>
</g>
</g>
<!-- Node19 -->
<g id="Node000019" class="node">
<title>Node19</title>
<g id="a_Node000019"><a xlink:href="mesh_8cpp.html" target="_top" xlink:title=" ">
<polygon fill="white" stroke="#666666" points="689.62,-392 596.38,-392 596.38,-360 689.62,-360 689.62,-392"/>
<text text-anchor="start" x="604.38" y="-378.5" font-family="Helvetica,sans-Serif" font-size="10.00">hybrid&#45;renderer&#45;lib</text>
<text text-anchor="middle" x="643" y="-366.5" font-family="Helvetica,sans-Serif" font-size="10.00">/src/mesh.cpp</text>
</a>
</g>
</g>
<!-- Node1&#45;&gt;Node19 -->
<g id="edge45_Node000001_Node000019" class="edge">
<title>Node1&#45;&gt;Node19</title>
<g id="a_edge45_Node000001_Node000019"><a xlink:title=" ">
<path fill="none" stroke="#63b8ff" d="M691.83,-485.62C699.08,-468.79 704.97,-446.49 697,-428 690.77,-413.55 678.22,-401.29 666.78,-392.42"/>
<polygon fill="#63b8ff" stroke="#63b8ff" points="688.77,-483.89 687.64,-494.43 695.1,-486.9 688.77,-483.89"/>
</a>
</g>
</g>
<!-- Node20 -->
<g id="Node000020" class="node">
<title>Node20</title>
<g id="a_Node000020"><a xlink:href="hri__math_8cpp.html" target="_top" xlink:title=" ">
<polygon fill="white" stroke="#666666" points="875.62,-460 782.38,-460 782.38,-428 875.62,-428 875.62,-460"/>
<text text-anchor="start" x="790.38" y="-446.5" font-family="Helvetica,sans-Serif" font-size="10.00">hybrid&#45;renderer&#45;lib</text>
<text text-anchor="middle" x="829" y="-434.5" font-family="Helvetica,sans-Serif" font-size="10.00">/src/hri_math.cpp</text>
</a>
</g>
</g>
<!-- Node1&#45;&gt;Node20 -->
<g id="edge44_Node000001_Node000020" class="edge">
<title>Node1&#45;&gt;Node20</title>
<g id="a_edge44_Node000001_Node000020"><a xlink:title=" ">
<path fill="none" stroke="#63b8ff" d="M723.7,-491.03C746.12,-481.23 772.71,-469.61 793.56,-460.49"/>
<polygon fill="#63b8ff" stroke="#63b8ff" points="722.55,-487.71 714.79,-494.92 725.35,-494.12 722.55,-487.71"/>
</a>
</g>
</g>
<!-- Node2&#45;&gt;Node3 -->
<g id="edge2_Node000002_Node000003" class="edge">
<title>Node2&#45;&gt;Node3</title>
<g id="a_edge2_Node000002_Node000003"><a xlink:title=" ">
<path fill="none" stroke="#63b8ff" d="M601.24,-422.34C582.59,-412.65 560.75,-401.3 543.59,-392.38"/>
<polygon fill="#63b8ff" stroke="#63b8ff" points="599.39,-425.32 609.88,-426.83 602.62,-419.11 599.39,-425.32"/>
</a>
</g>
</g>
<!-- Node2&#45;&gt;Node17 -->
<g id="edge38_Node000002_Node000017" class="edge">
<title>Node2&#45;&gt;Node17</title>
<g id="a_edge38_Node000002_Node000017"><a xlink:title=" ">
<path fill="none" stroke="#63b8ff" d="M677.3,-421.8C693.69,-412.23 712.68,-401.13 727.67,-392.38"/>
<polygon fill="#63b8ff" stroke="#63b8ff" points="675.67,-418.7 668.8,-426.76 679.2,-424.74 675.67,-418.7"/>
</a>
</g>
</g>
<!-- Node4 -->
<g id="Node000004" class="node">
<title>Node4</title>
<g id="a_Node000004"><a xlink:href="demo_8h.html" target="_top" xlink:title=" ">
<polygon fill="white" stroke="#666666" points="446.5,-318 337.5,-318 337.5,-298 446.5,-298 446.5,-318"/>
<text text-anchor="middle" x="392" y="-304.5" font-family="Helvetica,sans-Serif" font-size="10.00">demo/include/demo.h</text>
</a>
</g>
</g>
<!-- Node3&#45;&gt;Node4 -->
<g id="edge3_Node000003_Node000004" class="edge">
<title>Node3&#45;&gt;Node4</title>
<g id="a_edge3_Node000003_Node000004"><a xlink:title=" ">
<path fill="none" stroke="#63b8ff" d="M475.3,-354.06C453.2,-342.11 426.59,-327.71 409.49,-318.46"/>
<polygon fill="#63b8ff" stroke="#63b8ff" points="473.6,-357.13 484.07,-358.81 476.94,-350.97 473.6,-357.13"/>
</a>
</g>
</g>
<!-- Node5 -->
<g id="Node000005" class="node">
<title>Node5</title>
<g id="a_Node000005"><a xlink:href="raytracing_8h.html" target="_top" xlink:title=" ">
<polygon fill="white" stroke="#666666" points="477,-256 377,-256 377,-224 477,-224 477,-256"/>
<text text-anchor="start" x="385" y="-242.5" font-family="Helvetica,sans-Serif" font-size="10.00">demo/include/detail</text>
<text text-anchor="middle" x="427" y="-230.5" font-family="Helvetica,sans-Serif" font-size="10.00">/raytracing.h</text>
</a>
</g>
</g>
<!-- Node3&#45;&gt;Node5 -->
<g id="edge26_Node000003_Node000005" class="edge">
<title>Node3&#45;&gt;Node5</title>
<g id="a_edge26_Node000003_Node000005"><a xlink:title=" ">
<path fill="none" stroke="#63b8ff" d="M497.95,-350.28C480.08,-322.75 451.74,-279.11 436.86,-256.19"/>
<polygon fill="#63b8ff" stroke="#63b8ff" points="494.81,-351.88 503.2,-358.36 500.69,-348.07 494.81,-351.88"/>
</a>
</g>
</g>
<!-- Node6 -->
<g id="Node000006" class="node">
<title>Node6</title>
<g id="a_Node000006"><a xlink:href="renderer_8h.html" target="_top" xlink:title=" ">
<polygon fill="white" stroke="#666666" points="416.12,-76 295.88,-76 295.88,-56 416.12,-56 416.12,-76"/>
<text text-anchor="middle" x="356" y="-62.5" font-family="Helvetica,sans-Serif" font-size="10.00">demo/include/renderer.h</text>
</a>
</g>
</g>
<!-- Node3&#45;&gt;Node6 -->
<g id="edge30_Node000003_Node000006" class="edge">
<title>Node3&#45;&gt;Node6</title>
<g id="a_edge30_Node000003_Node000006"><a xlink:title=" ">
<path fill="none" stroke="#63b8ff" d="M438.61,-363.78C393.29,-355.33 341.79,-342.08 328,-324 268.25,-245.67 331.55,-112.72 350.81,-76.41"/>
<polygon fill="#63b8ff" stroke="#63b8ff" points="437.72,-367.18 448.18,-365.51 438.96,-360.29 437.72,-367.18"/>
</a>
</g>
</g>
<!-- Node8 -->
<g id="Node000008" class="node">
<title>Node8</title>
<g id="a_Node000008"><a xlink:href="renderer_8cpp.html" target="_top" xlink:title=" ">
<polygon fill="white" stroke="#666666" points="529.75,-20 416.25,-20 416.25,0 529.75,0 529.75,-20"/>
<text text-anchor="middle" x="473" y="-6.5" font-family="Helvetica,sans-Serif" font-size="10.00">demo/src/renderer.cpp</text>
</a>
</g>
</g>
<!-- Node3&#45;&gt;Node8 -->
<g id="edge34_Node000003_Node000008" class="edge">
<title>Node3&#45;&gt;Node8</title>
<g id="a_edge34_Node000003_Node000008"><a xlink:title=" ">
<path fill="none" stroke="#63b8ff" d="M588.65,-357.78C627.02,-347.95 669.01,-335.35 685,-324 722.12,-297.65 745,-286.52 745,-241 745,-241 745,-241 745,-121 745,-85.61 728.69,-75.27 699,-56 648.16,-23 578.34,-13.3 529.82,-10.88"/>
<polygon fill="#63b8ff" stroke="#63b8ff" points="588.26,-354.27 579.41,-360.11 589.97,-361.06 588.26,-354.27"/>
</a>
</g>
</g>
<!-- Node9 -->
<g id="Node000009" class="node">
<title>Node9</title>
<g id="a_Node000009"><a xlink:href="scene_8h.html" target="_top" xlink:title=" ">
<polygon fill="white" stroke="#666666" points="284.62,-188 173.38,-188 173.38,-168 284.62,-168 284.62,-188"/>
<text text-anchor="middle" x="229" y="-174.5" font-family="Helvetica,sans-Serif" font-size="10.00">demo/include/scene.h</text>
</a>
</g>
</g>
<!-- Node3&#45;&gt;Node9 -->
<g id="edge31_Node000003_Node000009" class="edge">
<title>Node3&#45;&gt;Node9</title>
<g id="a_edge31_Node000003_Node000009"><a xlink:title=" ">
<path fill="none" stroke="#63b8ff" d="M438.36,-364.78C384.03,-356.1 316.7,-342.16 295,-324 257.9,-292.95 272.58,-267.79 252,-224 246.1,-211.45 238.72,-197.25 233.94,-188.22"/>
<polygon fill="#63b8ff" stroke="#63b8ff" points="437.82,-368.24 448.24,-366.32 438.9,-361.33 437.82,-368.24"/>
</a>
</g>
</g>
<!-- Node10 -->
<g id="Node000010" class="node">
<title>Node10</title>
<g id="a_Node000010"><a xlink:href="subsystems_8h.html" target="_top" xlink:title=" ">
<polygon fill="white" stroke="#666666" points="593.12,-132 454.88,-132 454.88,-112 593.12,-112 593.12,-132"/>
<text text-anchor="middle" x="524" y="-118.5" font-family="Helvetica,sans-Serif" font-size="10.00">demo/include/subsystems.h</text>
</a>
</g>
</g>
<!-- Node3&#45;&gt;Node10 -->
<g id="edge32_Node000003_Node000010" class="edge">
<title>Node3&#45;&gt;Node10</title>
<g id="a_edge32_Node000003_Node000010"><a xlink:title=" ">
<path fill="none" stroke="#63b8ff" d="M588.47,-355.94C604.71,-348.48 620.24,-338.18 631,-324 667.9,-275.39 645.77,-248.88 650,-188 650.62,-179.13 655.12,-175.27 650,-168 636.82,-149.3 615.13,-138.33 593.43,-131.9"/>
<polygon fill="#63b8ff" stroke="#63b8ff" points="587.55,-352.53 579.69,-359.64 590.27,-358.98 587.55,-352.53"/>
</a>
</g>
</g>
<!-- Node11 -->
<g id="Node000011" class="node">
<title>Node11</title>
<g id="a_Node000011"><a xlink:href="subsystems_8cpp.html" target="_top" xlink:title=" ">
<polygon fill="white" stroke="#666666" points="689.75,-76 558.25,-76 558.25,-56 689.75,-56 689.75,-76"/>
<text text-anchor="middle" x="624" y="-62.5" font-family="Helvetica,sans-Serif" font-size="10.00">demo/src/subsystems.cpp</text>
</a>
</g>
</g>
<!-- Node3&#45;&gt;Node11 -->
<g id="edge36_Node000003_Node000011" class="edge">
<title>Node3&#45;&gt;Node11</title>
<g id="a_edge36_Node000003_Node000011"><a xlink:title=" ">
<path fill="none" stroke="#63b8ff" d="M587.67,-355.95C642.18,-336.9 707,-301.52 707,-241 707,-241 707,-241 707,-177 707,-131.78 661.76,-93.38 638.08,-76.37"/>
<polygon fill="#63b8ff" stroke="#63b8ff" points="586.74,-352.57 578.36,-359.06 588.96,-359.21 586.74,-352.57"/>
</a>
</g>
</g>
<!-- Node12 -->
<g id="Node000012" class="node">
<title>Node12</title>
<g id="a_Node000012"><a xlink:href="scene_8cpp.html" target="_top" xlink:title=" ">
<polygon fill="white" stroke="#666666" points="132.25,-132 27.75,-132 27.75,-112 132.25,-112 132.25,-132"/>
<text text-anchor="middle" x="80" y="-118.5" font-family="Helvetica,sans-Serif" font-size="10.00">demo/src/scene.cpp</text>
</a>
</g>
</g>
<!-- Node3&#45;&gt;Node12 -->
<g id="edge35_Node000003_Node000012" class="edge">
<title>Node3&#45;&gt;Node12</title>
<g id="a_edge35_Node000003_Node000012"><a xlink:title=" ">
<path fill="none" stroke="#63b8ff" d="M438.58,-368.8C377.54,-362.19 290.02,-349.08 217,-324 156.45,-303.2 128.29,-307.31 90,-256 61.61,-217.96 72.28,-155.56 77.65,-132.2"/>
<polygon fill="#63b8ff" stroke="#63b8ff" points="437.85,-372.24 448.16,-369.8 438.58,-365.28 437.85,-372.24"/>
</a>
</g>
</g>
<!-- Node13 -->
<g id="Node000013" class="node">
<title>Node13</title>
<g id="a_Node000013"><a xlink:href="raytracing_8cpp.html" target="_top" xlink:title=" ">
<polygon fill="white" stroke="#666666" points="640.62,-188 493.38,-188 493.38,-168 640.62,-168 640.62,-188"/>
<text text-anchor="middle" x="567" y="-174.5" font-family="Helvetica,sans-Serif" font-size="10.00">demo/src/detail/raytracing.cpp</text>
</a>
</g>
</g>
<!-- Node3&#45;&gt;Node13 -->
<g id="edge33_Node000003_Node000013" class="edge">
<title>Node3&#45;&gt;Node13</title>
<g id="a_edge33_Node000003_Node000013"><a xlink:title=" ">
<path fill="none" stroke="#63b8ff" d="M577.74,-354.56C591.34,-347.13 603.99,-337.19 612,-324 640.03,-277.81 594.31,-212.61 574.98,-188.47"/>
<polygon fill="#63b8ff" stroke="#63b8ff" points="576.49,-351.27 569.09,-358.86 579.6,-357.54 576.49,-351.27"/>
</a>
</g>
</g>
<!-- Node14 -->
<g id="Node000014" class="node">
<title>Node14</title>
<g id="a_Node000014"><a xlink:href="dispatch_8h.html" target="_top" xlink:title=" ">
<polygon fill="white" stroke="#666666" points="603,-324 503,-324 503,-292 603,-292 603,-324"/>
<text text-anchor="start" x="511" y="-310.5" font-family="Helvetica,sans-Serif" font-size="10.00">demo/include/detail</text>
<text text-anchor="middle" x="553" y="-298.5" font-family="Helvetica,sans-Serif" font-size="10.00">/dispatch.h</text>
</a>
</g>
</g>
<!-- Node3&#45;&gt;Node14 -->
<g id="edge23_Node000003_Node000014" class="edge">
<title>Node3&#45;&gt;Node14</title>
<g id="a_edge23_Node000003_Node000014"><a xlink:title=" ">
<path fill="none" stroke="#63b8ff" d="M528.76,-350.02C533.89,-341.34 539.48,-331.88 544,-324.22"/>
<polygon fill="#63b8ff" stroke="#63b8ff" points="525.89,-348 523.82,-358.39 531.92,-351.56 525.89,-348"/>
</a>
</g>
</g>
<!-- Node15 -->
<g id="Node000015" class="node">
<title>Node15</title>
<g id="a_Node000015"><a xlink:href="material_8h.html" target="_top" xlink:title=" ">
<polygon fill="white" stroke="#666666" points="242.75,-250 123.25,-250 123.25,-230 242.75,-230 242.75,-250"/>
<text text-anchor="middle" x="183" y="-236.5" font-family="Helvetica,sans-Serif" font-size="10.00">demo/include/material.h</text>
</a>
</g>
</g>
<!-- Node3&#45;&gt;Node15 -->
<g id="edge27_Node000003_Node000015" class="edge">
<title>Node3&#45;&gt;Node15</title>
<g id="a_edge27_Node000003_Node000015"><a xlink:title=" ">
<path fill="none" stroke="#63b8ff" d="M438.69,-372.64C384.96,-368.06 312.67,-355.82 257,-324 224.65,-305.51 199.02,-267.72 188.36,-250.25"/>
<polygon fill="#63b8ff" stroke="#63b8ff" points="438.11,-376.1 448.35,-373.39 438.65,-369.12 438.11,-376.1"/>
</a>
</g>
</g>
<!-- Node16 -->
<g id="Node000016" class="node">
<title>Node16</title>
<g id="a_Node000016"><a xlink:href="hybrid__renderer_8cpp.html" target="_top" xlink:title=" ">
<polygon fill="white" stroke="#666666" points="894.5,-324 773.5,-324 773.5,-292 894.5,-292 894.5,-324"/>
<text text-anchor="start" x="781.5" y="-310.5" font-family="Helvetica,sans-Serif" font-size="10.00">hybrid&#45;renderer&#45;lib</text>
<text text-anchor="middle" x="834" y="-298.5" font-family="Helvetica,sans-Serif" font-size="10.00">/src/hybrid_renderer.cpp</text>
</a>
</g>
</g>
<!-- Node3&#45;&gt;Node16 -->
<g id="edge37_Node000003_Node000016" class="edge">
<title>Node3&#45;&gt;Node16</title>
<g id="a_edge37_Node000003_Node000016"><a xlink:title=" ">
<path fill="none" stroke="#63b8ff" d="M589.32,-359.47C645.41,-347.9 721,-332.31 773.25,-321.53"/>
<polygon fill="#63b8ff" stroke="#63b8ff" points="588.94,-355.97 579.85,-361.42 590.36,-362.83 588.94,-355.97"/>
</a>
</g>
</g>
<!-- Node4&#45;&gt;Node5 -->
<g id="edge4_Node000004_Node000005" class="edge">
<title>Node4&#45;&gt;Node5</title>
<g id="a_edge4_Node000004_Node000005"><a xlink:title=" ">
<path fill="none" stroke="#63b8ff" d="M402.4,-287.39C407.67,-277.45 413.98,-265.56 418.89,-256.3"/>
<polygon fill="#63b8ff" stroke="#63b8ff" points="399.32,-285.73 397.72,-296.21 405.5,-289.01 399.32,-285.73"/>
</a>
</g>
</g>
<!-- Node7 -->
<g id="Node000007" class="node">
<title>Node7</title>
<g id="a_Node000007"><a xlink:href="main_8cpp.html" target="_top" xlink:title=" ">
<polygon fill="white" stroke="#666666" points="278.62,-20 179.38,-20 179.38,0 278.62,0 278.62,-20"/>
<text text-anchor="middle" x="229" y="-6.5" font-family="Helvetica,sans-Serif" font-size="10.00">demo/src/main.cpp</text>
</a>
</g>
</g>
<!-- Node4&#45;&gt;Node7 -->
<g id="edge21_Node000004_Node000007" class="edge">
<title>Node4&#45;&gt;Node7</title>
<g id="a_edge21_Node000004_Node000007"><a xlink:title=" ">
<path fill="none" stroke="#63b8ff" d="M325.62,-305.9C262.34,-302.57 165.72,-291.42 90,-256 42.32,-233.7 0,-231.64 0,-179 0,-179 0,-179 0,-121 0,-42.16 111.65,-19.79 179.03,-13.47"/>
<polygon fill="#63b8ff" stroke="#63b8ff" points="325.38,-309.39 335.53,-306.36 325.7,-302.4 325.38,-309.39"/>
</a>
</g>
</g>
<!-- Node4&#45;&gt;Node12 -->
<g id="edge22_Node000004_Node000012" class="edge">
<title>Node4&#45;&gt;Node12</title>
<g id="a_edge22_Node000004_Node000012"><a xlink:title=" ">
<path fill="none" stroke="#63b8ff" d="M325.81,-302.96C253.52,-297.19 144.01,-284.01 114,-256 78.11,-222.5 77.96,-156.79 79.28,-132.4"/>
<polygon fill="#63b8ff" stroke="#63b8ff" points="325.33,-306.44 335.57,-303.71 325.86,-299.46 325.33,-306.44"/>
</a>
</g>
</g>
<!-- Node4&#45;&gt;Node13 -->
<g id="edge20_Node000004_Node000013" class="edge">
<title>Node4&#45;&gt;Node13</title>
<g id="a_edge20_Node000004_Node000013"><a xlink:title=" ">
<path fill="none" stroke="#63b8ff" d="M423.27,-292.63C442.17,-283.32 466.32,-270.3 486,-256 515.19,-234.78 544.72,-203.75 558.69,-188.36"/>
<polygon fill="#63b8ff" stroke="#63b8ff" points="421.95,-289.38 414.46,-296.87 424.99,-295.68 421.95,-289.38"/>
</a>
</g>
</g>
<!-- Node5&#45;&gt;Node6 -->
<g id="edge5_Node000005_Node000006" class="edge">
<title>Node5&#45;&gt;Node6</title>
<g id="a_edge5_Node000005_Node000006"><a xlink:title=" ">
<path fill="none" stroke="#63b8ff" d="M416.36,-213.21C400.22,-174.13 370.34,-101.74 359.8,-76.21"/>
<polygon fill="#63b8ff" stroke="#63b8ff" points="413.07,-214.43 420.12,-222.34 419.54,-211.76 413.07,-214.43"/>
</a>
</g>
</g>
<!-- Node5&#45;&gt;Node7 -->
<g id="edge18_Node000005_Node000007" class="edge">
<title>Node5&#45;&gt;Node7</title>
<g id="a_edge18_Node000005_Node000007"><a xlink:title=" ">
<path fill="none" stroke="#63b8ff" d="M406.33,-215.2C363.31,-165.66 265.77,-53.34 237.08,-20.3"/>
<polygon fill="#63b8ff" stroke="#63b8ff" points="403.51,-217.29 412.71,-222.54 408.79,-212.7 403.51,-217.29"/>
</a>
</g>
</g>
<!-- Node5&#45;&gt;Node8 -->
<g id="edge19_Node000005_Node000008" class="edge">
<title>Node5&#45;&gt;Node8</title>
<g id="a_edge19_Node000005_Node000008"><a xlink:title=" ">
<path fill="none" stroke="#63b8ff" d="M430.07,-212.57C433.28,-186.77 438.84,-146.48 446,-112 453.09,-77.88 464.73,-38.13 470.11,-20.38"/>
<polygon fill="#63b8ff" stroke="#63b8ff" points="426.64,-211.8 428.91,-222.15 433.59,-212.64 426.64,-211.8"/>
</a>
</g>
</g>
<!-- Node5&#45;&gt;Node9 -->
<g id="edge8_Node000005_Node000009" class="edge">
<title>Node5&#45;&gt;Node9</title>
<g id="a_edge8_Node000005_Node000009"><a xlink:title=" ">
<path fill="none" stroke="#63b8ff" d="M365.93,-220.49C330.93,-209.89 288.48,-197.02 260.21,-188.46"/>
<polygon fill="#63b8ff" stroke="#63b8ff" points="364.49,-223.71 375.08,-223.27 366.52,-217.02 364.49,-223.71"/>
</a>
</g>
</g>
<!-- Node5&#45;&gt;Node10 -->
<g id="edge16_Node000005_Node000010" class="edge">
<title>Node5&#45;&gt;Node10</title>
<g id="a_edge16_Node000005_Node000010"><a xlink:title=" ">
<path fill="none" stroke="#63b8ff" d="M446.03,-214.68C456.97,-200.86 471.07,-183.3 484,-168 494.66,-155.38 507.4,-141.2 515.59,-132.19"/>
<polygon fill="#63b8ff" stroke="#63b8ff" points="443.39,-212.38 439.95,-222.4 448.89,-216.71 443.39,-212.38"/>
</a>
</g>
</g>
<!-- Node5&#45;&gt;Node13 -->
<g id="edge17_Node000005_Node000013" class="edge">
<title>Node5&#45;&gt;Node13</title>
<g id="a_edge17_Node000005_Node000013"><a xlink:title=" ">
<path fill="none" stroke="#63b8ff" d="M473.44,-219.1C497.57,-208.75 525.93,-196.6 545.05,-188.41"/>
<polygon fill="#63b8ff" stroke="#63b8ff" points="472.26,-215.8 464.44,-222.95 475.01,-222.23 472.26,-215.8"/>
</a>
</g>
</g>
<!-- Node6&#45;&gt;Node7 -->
<g id="edge6_Node000006_Node000007" class="edge">
<title>Node6&#45;&gt;Node7</title>
<g id="a_edge6_Node000006_Node000007"><a xlink:title=" ">
<path fill="none" stroke="#63b8ff" d="M323.4,-51.14C300.79,-41.52 271.26,-28.97 251.29,-20.48"/>
<polygon fill="#63b8ff" stroke="#63b8ff" points="321.91,-54.31 332.49,-55 324.65,-47.87 321.91,-54.31"/>
</a>
</g>
</g>
<!-- Node6&#45;&gt;Node8 -->
<g id="edge7_Node000006_Node000008" class="edge">
<title>Node6&#45;&gt;Node8</title>
<g id="a_edge7_Node000006_Node000008"><a xlink:title=" ">
<path fill="none" stroke="#63b8ff" d="M386.6,-50.88C407.36,-41.3 434.24,-28.89 452.46,-20.48"/>
<polygon fill="#63b8ff" stroke="#63b8ff" points="385.37,-47.59 377.75,-54.96 388.3,-53.95 385.37,-47.59"/>
</a>
</g>
</g>
<!-- Node9&#45;&gt;Node6 -->
<g id="edge9_Node000009_Node000006" class="edge">
<title>Node9&#45;&gt;Node6</title>
<g id="a_edge9_Node000009_Node000006"><a xlink:title=" ">
<path fill="none" stroke="#63b8ff" d="M248.46,-160.15C275.56,-136.67 323.76,-94.93 345.2,-76.35"/>
<polygon fill="#63b8ff" stroke="#63b8ff" points="246.24,-157.44 240.97,-166.63 250.82,-162.73 246.24,-157.44"/>
</a>
</g>
</g>
<!-- Node9&#45;&gt;Node7 -->
<g id="edge14_Node000009_Node000007" class="edge">
<title>Node9&#45;&gt;Node7</title>
<g id="a_edge14_Node000009_Node000007"><a xlink:title=" ">
<path fill="none" stroke="#63b8ff" d="M229,-156.5C229,-120.27 229,-46.31 229,-20.3"/>
<polygon fill="#63b8ff" stroke="#63b8ff" points="225.5,-156.09 229,-166.09 232.5,-156.09 225.5,-156.09"/>
</a>
</g>
</g>
<!-- Node9&#45;&gt;Node10 -->
<g id="edge10_Node000009_Node000010" class="edge">
<title>Node9&#45;&gt;Node10</title>
<g id="a_edge10_Node000009_Node000010"><a xlink:title=" ">
<path fill="none" stroke="#63b8ff" d="M291.83,-165.5C345.6,-155.66 422.07,-141.66 472.34,-132.46"/>
<polygon fill="#63b8ff" stroke="#63b8ff" points="291.42,-162.02 282.21,-167.26 292.68,-168.9 291.42,-162.02"/>
</a>
</g>
</g>
<!-- Node9&#45;&gt;Node12 -->
<g id="edge15_Node000009_Node000012" class="edge">
<title>Node9&#45;&gt;Node12</title>
<g id="a_edge15_Node000009_Node000012"><a xlink:title=" ">
<path fill="none" stroke="#63b8ff" d="M192.55,-163.79C165.81,-154.1 130.11,-141.16 106.16,-132.48"/>
<polygon fill="#63b8ff" stroke="#63b8ff" points="191.03,-166.96 201.62,-167.08 193.41,-160.38 191.03,-166.96"/>
</a>
</g>
</g>
<!-- Node10&#45;&gt;Node6 -->
<g id="edge11_Node000010_Node000006" class="edge">
<title>Node10&#45;&gt;Node6</title>
<g id="a_edge11_Node000010_Node000006"><a xlink:title=" ">
<path fill="none" stroke="#63b8ff" d="M484.11,-108.18C453.82,-98.44 412.86,-85.28 385.49,-76.48"/>
<polygon fill="#63b8ff" stroke="#63b8ff" points="482.7,-111.4 493.3,-111.13 484.85,-104.74 482.7,-111.4"/>
</a>
</g>
</g>
<!-- Node10&#45;&gt;Node8 -->
<g id="edge12_Node000010_Node000008" class="edge">
<title>Node10&#45;&gt;Node8</title>
<g id="a_edge12_Node000010_Node000008"><a xlink:title=" ">
<path fill="none" stroke="#63b8ff" d="M514.87,-101.3C503.8,-77.43 485.61,-38.2 477.34,-20.35"/>
<polygon fill="#63b8ff" stroke="#63b8ff" points="511.63,-102.65 519.02,-110.25 517.98,-99.7 511.63,-102.65"/>
</a>
</g>
</g>
<!-- Node10&#45;&gt;Node11 -->
<g id="edge13_Node000010_Node000011" class="edge">
<title>Node10&#45;&gt;Node11</title>
<g id="a_edge13_Node000010_Node000011"><a xlink:title=" ">
<path fill="none" stroke="#63b8ff" d="M551.13,-106.35C568.74,-96.84 591.15,-84.74 606.45,-76.48"/>
<polygon fill="#63b8ff" stroke="#63b8ff" points="549.89,-103.04 542.75,-110.87 553.21,-109.2 549.89,-103.04"/>
</a>
</g>
</g>
<!-- Node14&#45;&gt;Node5 -->
<g id="edge24_Node000014_Node000005" class="edge">
<title>Node14&#45;&gt;Node5</title>
<g id="a_edge24_Node000014_Node000005"><a xlink:title=" ">
<path fill="none" stroke="#63b8ff" d="M513.3,-286.2C494.85,-276.54 473.31,-265.26 456.36,-256.38"/>
<polygon fill="#63b8ff" stroke="#63b8ff" points="511.64,-289.28 522.12,-290.82 514.88,-283.08 511.64,-289.28"/>
</a>
</g>
</g>
<!-- Node14&#45;&gt;Node13 -->
<g id="edge25_Node000014_Node000013" class="edge">
<title>Node14&#45;&gt;Node13</title>
<g id="a_edge25_Node000014_Node000013"><a xlink:title=" ">
<path fill="none" stroke="#63b8ff" d="M555.92,-280.31C559.06,-251.57 563.89,-207.42 565.98,-188.33"/>
<polygon fill="#63b8ff" stroke="#63b8ff" points="552.46,-279.73 554.85,-290.06 559.42,-280.5 552.46,-279.73"/>
</a>
</g>
</g>
<!-- Node15&#45;&gt;Node7 -->
<g id="edge29_Node000015_Node000007" class="edge">
<title>Node15&#45;&gt;Node7</title>
<g id="a_edge29_Node000015_Node000007"><a xlink:title=" ">
<path fill="none" stroke="#63b8ff" d="M172.95,-219.88C166.7,-205.68 160.47,-185.78 164,-168 175.74,-108.97 210.04,-44.32 223.5,-20.5"/>
<polygon fill="#63b8ff" stroke="#63b8ff" points="169.63,-221.05 177.13,-228.54 175.94,-218.01 169.63,-221.05"/>
</a>
</g>
</g>
<!-- Node15&#45;&gt;Node9 -->
<g id="edge28_Node000015_Node000009" class="edge">
<title>Node15&#45;&gt;Node9</title>
<g id="a_edge28_Node000015_Node000009"><a xlink:title=" ">
<path fill="none" stroke="#63b8ff" d="M197.11,-220.6C205.37,-209.83 215.43,-196.7 222.01,-188.11"/>
<polygon fill="#63b8ff" stroke="#63b8ff" points="194.42,-218.36 191.11,-228.42 199.97,-222.62 194.42,-218.36"/>
</a>
</g>
</g>
<!-- Node18&#45;&gt;Node3 -->
<g id="edge41_Node000018_Node000003" class="edge">
<title>Node18&#45;&gt;Node3</title>
<g id="a_edge41_Node000018_Node000003"><a xlink:title=" ">
<path fill="none" stroke="#63b8ff" d="M523.6,-416.6C521.59,-408.32 519.44,-399.46 517.69,-392.22"/>
<polygon fill="#63b8ff" stroke="#63b8ff" points="520.17,-417.33 525.93,-426.22 526.98,-415.68 520.17,-417.33"/>
</a>
</g>
</g>
<!-- Node18&#45;&gt;Node19 -->
<g id="edge42_Node000018_Node000019" class="edge">
<title>Node18&#45;&gt;Node19</title>
<g id="a_edge42_Node000018_Node000019"><a xlink:title=" ">
<path fill="none" stroke="#63b8ff" d="M566.3,-421.8C582.69,-412.23 601.68,-401.13 616.67,-392.38"/>
<polygon fill="#63b8ff" stroke="#63b8ff" points="564.67,-418.7 557.8,-426.76 568.2,-424.74 564.67,-418.7"/>
</a>
</g>
</g>
</g>
</svg>
