<?xml version="1.0" encoding="UTF-8" standalone="no"?>
<!DOCTYPE svg PUBLIC "-//W3C//DTD SVG 1.1//EN"
 "http://www.w3.org/Graphics/SVG/1.1/DTD/svg11.dtd">
<!-- Generated by graphviz version 10.0.1 (20240210.2158)
 -->
<!-- Title: hybrid&#45;renderer&#45;lib/include/hybrid_renderer.h Pages: 1 -->
<svg width="1247pt" height="368pt"
 viewBox="0.00 0.00 1247.43 368.00" xmlns="http://www.w3.org/2000/svg" xmlns:xlink="http://www.w3.org/1999/xlink">
<g id="graph0" class="graph" transform="scale(1 1) rotate(0) translate(4 364)">
<title>hybrid&#45;renderer&#45;lib/include/hybrid_renderer.h</title>
<!-- Node1 -->
<g id="Node000001" class="node">
<title>Node1</title>
<g id="a_Node000001"><a xlink:title=" ">
<polygon fill="#999999" stroke="#666666" points="462.88,-360 335.12,-360 335.12,-328 462.88,-328 462.88,-360"/>
<text text-anchor="start" x="343.12" y="-346.5" font-family="Helvetica,sans-Serif" font-size="10.00">hybrid&#45;renderer&#45;lib</text>
<text text-anchor="middle" x="399" y="-334.5" font-family="Helvetica,sans-Serif" font-size="10.00">/include/hybrid_renderer.h</text>
</a>
</g>
</g>
<!-- Node2 -->
<g id="Node000002" class="node">
<title>Node2</title>
<g id="a_Node000002"><a xlink:href="platform_8h.html" target="_top" xlink:title=" ">
<polygon fill="white" stroke="#666666" points="178.38,-20 119.62,-20 119.62,0 178.38,0 178.38,-20"/>
<text text-anchor="middle" x="149" y="-6.5" font-family="Helvetica,sans-Serif" font-size="10.00">platform.h</text>
</a>
</g>
</g>
<!-- Node1&#45;&gt;Node2 -->
<g id="edge1_Node000001_Node000002" class="edge">
<title>Node1&#45;&gt;Node2</title>
<g id="a_edge1_Node000001_Node000002"><a xlink:title=" ">
<path fill="none" stroke="#63b8ff" d="M334.87,-340.75C245.33,-336.47 88.69,-324.45 43,-292 9.13,-267.94 0,-250.55 0,-209 0,-209 0,-209 0,-139 0,-99.78 2.47,-83.94 30,-56 50.84,-34.85 82.6,-23.51 108.07,-17.5"/>
<polygon fill="#63b8ff" stroke="#63b8ff" points="108.74,-20.93 117.79,-15.42 107.28,-14.09 108.74,-20.93"/>
</a>
</g>
</g>
<!-- Node3 -->
<g id="Node000003" class="node">
<title>Node3</title>
<g id="a_Node000003"><a xlink:href="camera_8h.html" target="_top" xlink:title=" ">
<polygon fill="white" stroke="#666666" points="125.25,-286 68.75,-286 68.75,-266 125.25,-266 125.25,-286"/>
<text text-anchor="middle" x="97" y="-272.5" font-family="Helvetica,sans-Serif" font-size="10.00">camera.h</text>
</a>
</g>
</g>
<!-- Node1&#45;&gt;Node3 -->
<g id="edge2_Node000001_Node000003" class="edge">
<title>Node1&#45;&gt;Node3</title>
<g id="a_edge2_Node000001_Node000003"><a xlink:title=" ">
<path fill="none" stroke="#63b8ff" d="M334.86,-330.45C285.54,-320.59 215.79,-306.21 155,-292 148.99,-290.59 142.64,-289.03 136.44,-287.47"/>
<polygon fill="#63b8ff" stroke="#63b8ff" points="137.57,-284.14 127.02,-285.04 135.83,-290.92 137.57,-284.14"/>
</a>
</g>
</g>
<!-- Node4 -->
<g id="Node000004" class="node">
<title>Node4</title>
<g id="a_Node000004"><a xlink:href="hri__math_8h.html" target="_top" xlink:title=" ">
<polygon fill="white" stroke="#666666" points="119.88,-150 58.12,-150 58.12,-130 119.88,-130 119.88,-150"/>
<text text-anchor="middle" x="89" y="-136.5" font-family="Helvetica,sans-Serif" font-size="10.00">hri_math.h</text>
</a>
</g>
</g>
<!-- Node1&#45;&gt;Node4 -->
<g id="edge6_Node000001_Node000004" class="edge">
<title>Node1&#45;&gt;Node4</title>
<g id="a_edge6_Node000001_Node000004"><a xlink:title=" ">
<path fill="none" stroke="#63b8ff" d="M334.87,-342.89C246.64,-341.22 94.75,-332.37 60,-292 27.6,-254.36 57.61,-191.67 76.43,-160.22"/>
<polygon fill="#63b8ff" stroke="#63b8ff" points="79.38,-162.12 81.7,-151.78 73.44,-158.41 79.38,-162.12"/>
</a>
</g>
</g>
<!-- Node6 -->
<g id="Node000006" class="node">
<title>Node6</title>
<g id="a_Node000006"><a xlink:href="material_8h.html" target="_top" xlink:title=" ">
<polygon fill="white" stroke="#666666" points="162.38,-218 103.62,-218 103.62,-198 162.38,-198 162.38,-218"/>
<text text-anchor="middle" x="133" y="-204.5" font-family="Helvetica,sans-Serif" font-size="10.00">material.h</text>
</a>
</g>
</g>
<!-- Node1&#45;&gt;Node6 -->
<g id="edge7_Node000001_Node000006" class="edge">
<title>Node1&#45;&gt;Node6</title>
<g id="a_edge7_Node000001_Node000006"><a xlink:title=" ">
<path fill="none" stroke="#63b8ff" d="M334.65,-337.91C292.35,-332.03 237.39,-319.34 196,-292 171.77,-275.99 153.16,-247.43 142.65,-228.35"/>
<polygon fill="#63b8ff" stroke="#63b8ff" points="145.86,-226.95 138.11,-219.72 139.66,-230.2 145.86,-226.95"/>
</a>
</g>
</g>
<!-- Node7 -->
<g id="Node000007" class="node">
<title>Node7</title>
<g id="a_Node000007"><a xlink:href="mesh_8h.html" target="_top" xlink:title=" ">
<polygon fill="white" stroke="#666666" points="229.12,-218 180.88,-218 180.88,-198 229.12,-198 229.12,-218"/>
<text text-anchor="middle" x="205" y="-204.5" font-family="Helvetica,sans-Serif" font-size="10.00">mesh.h</text>
</a>
</g>
</g>
<!-- Node1&#45;&gt;Node7 -->
<g id="edge10_Node000001_Node000007" class="edge">
<title>Node1&#45;&gt;Node7</title>
<g id="a_edge10_Node000001_Node000007"><a xlink:title=" ">
<path fill="none" stroke="#63b8ff" d="M368.74,-327.68C350.67,-318.13 327.5,-305.19 308,-292 277.12,-271.12 244,-243.36 223.89,-225.83"/>
<polygon fill="#63b8ff" stroke="#63b8ff" points="226.33,-223.31 216.51,-219.34 221.7,-228.57 226.33,-223.31"/>
</a>
</g>
</g>
<!-- Node10 -->
<g id="Node000010" class="node">
<title>Node10</title>
<g id="a_Node000010"><a xlink:href="scene_8h.html" target="_top" xlink:title=" ">
<polygon fill="white" stroke="#666666" points="255.25,-286 204.75,-286 204.75,-266 255.25,-266 255.25,-286"/>
<text text-anchor="middle" x="230" y="-272.5" font-family="Helvetica,sans-Serif" font-size="10.00">scene.h</text>
</a>
</g>
</g>
<!-- Node1&#45;&gt;Node10 -->
<g id="edge14_Node000001_Node000010" class="edge">
<title>Node1&#45;&gt;Node10</title>
<g id="a_edge14_Node000001_Node000010"><a xlink:title=" ">
<path fill="none" stroke="#63b8ff" d="M359.38,-327.53C330.74,-316.34 292.41,-301.37 264.92,-290.64"/>
<polygon fill="#63b8ff" stroke="#63b8ff" points="266.22,-287.39 255.63,-287.01 263.67,-293.91 266.22,-287.39"/>
</a>
</g>
</g>
<!-- Node11 -->
<g id="Node000011" class="node">
<title>Node11</title>
<g id="a_Node000011"><a xlink:href="texture_8h.html" target="_top" xlink:title=" ">
<polygon fill="white" stroke="#666666" points="371.12,-286 316.88,-286 316.88,-266 371.12,-266 371.12,-286"/>
<text text-anchor="middle" x="344" y="-272.5" font-family="Helvetica,sans-Serif" font-size="10.00">texture.h</text>
</a>
</g>
</g>
<!-- Node1&#45;&gt;Node11 -->
<g id="edge18_Node000001_Node000011" class="edge">
<title>Node1&#45;&gt;Node11</title>
<g id="a_edge18_Node000001_Node000011"><a xlink:title=" ">
<path fill="none" stroke="#63b8ff" d="M386.24,-327.69C378.08,-317.9 367.46,-305.15 358.9,-294.89"/>
<polygon fill="#63b8ff" stroke="#63b8ff" points="361.82,-292.92 352.73,-287.48 356.45,-297.4 361.82,-292.92"/>
</a>
</g>
</g>
<!-- Node13 -->
<g id="Node000013" class="node">
<title>Node13</title>
<g id="a_Node000013"><a xlink:href="buffer_8h.html" target="_top" xlink:title=" ">
<polygon fill="white" stroke="#666666" points="883.25,-150 760.75,-150 760.75,-130 883.25,-130 883.25,-150"/>
<text text-anchor="middle" x="822" y="-136.5" font-family="Helvetica,sans-Serif" font-size="10.00">renderer_internal/buffer.h</text>
</a>
</g>
</g>
<!-- Node1&#45;&gt;Node13 -->
<g id="edge21_Node000001_Node000013" class="edge">
<title>Node1&#45;&gt;Node13</title>
<g id="a_edge21_Node000001_Node000013"><a xlink:title=" ">
<path fill="none" stroke="#63b8ff" d="M463.37,-342.39C522.44,-339.34 610.73,-328.31 678,-292 738.41,-259.39 788.28,-192.33 810.12,-159.68"/>
<polygon fill="#63b8ff" stroke="#63b8ff" points="812.84,-161.93 815.38,-151.64 806.98,-158.09 812.84,-161.93"/>
</a>
</g>
</g>
<!-- Node16 -->
<g id="Node000016" class="node">
<title>Node16</title>
<g id="a_Node000016"><a xlink:href="render__context_8h.html" target="_top" xlink:title=" ">
<polygon fill="white" stroke="#666666" points="659,-88 541,-88 541,-56 659,-56 659,-88"/>
<text text-anchor="start" x="549" y="-74.5" font-family="Helvetica,sans-Serif" font-size="10.00">renderer_internal/render</text>
<text text-anchor="middle" x="600" y="-62.5" font-family="Helvetica,sans-Serif" font-size="10.00">_context.h</text>
</a>
</g>
</g>
<!-- Node1&#45;&gt;Node16 -->
<g id="edge39_Node000001_Node000016" class="edge">
<title>Node1&#45;&gt;Node16</title>
<g id="a_edge39_Node000001_Node000016"><a xlink:title=" ">
<path fill="none" stroke="#63b8ff" d="M410.38,-327.71C443.68,-282.98 541.1,-152.12 581.8,-97.45"/>
<polygon fill="#63b8ff" stroke="#63b8ff" points="584.43,-99.78 587.59,-89.67 578.81,-95.6 584.43,-99.78"/>
</a>
</g>
</g>
<!-- Node20 -->
<g id="Node000020" class="node">
<title>Node20</title>
<g id="a_Node000020"><a xlink:href="descriptor__management_8h.html" target="_top" xlink:title=" ">
<polygon fill="white" stroke="#666666" points="1206.88,-156 1073.12,-156 1073.12,-124 1206.88,-124 1206.88,-156"/>
<text text-anchor="start" x="1081.12" y="-142.5" font-family="Helvetica,sans-Serif" font-size="10.00">renderer_internal/descriptor</text>
<text text-anchor="middle" x="1140" y="-130.5" font-family="Helvetica,sans-Serif" font-size="10.00">_management.h</text>
</a>
</g>
</g>
<!-- Node1&#45;&gt;Node20 -->
<g id="edge31_Node000001_Node000020" class="edge">
<title>Node1&#45;&gt;Node20</title>
<g id="a_edge31_Node000001_Node000020"><a xlink:title=" ">
<path fill="none" stroke="#63b8ff" d="M463.22,-342.44C626.58,-340.44 1048.5,-331.48 1097,-292 1134.07,-261.83 1140.53,-202.16 1140.92,-167.55"/>
<polygon fill="#63b8ff" stroke="#63b8ff" points="1144.43,-167.93 1140.86,-157.95 1137.43,-167.97 1144.43,-167.93"/>
</a>
</g>
</g>
<!-- Node22 -->
<g id="Node000022" class="node">
<title>Node22</title>
<g id="a_Node000022"><a xlink:href="image_8h.html" target="_top" xlink:title=" ">
<polygon fill="white" stroke="#666666" points="742.75,-150 617.25,-150 617.25,-130 742.75,-130 742.75,-150"/>
<text text-anchor="middle" x="680" y="-136.5" font-family="Helvetica,sans-Serif" font-size="10.00">renderer_internal/image.h</text>
</a>
</g>
</g>
<!-- Node1&#45;&gt;Node22 -->
<g id="edge35_Node000001_Node000022" class="edge">
<title>Node1&#45;&gt;Node22</title>
<g id="a_edge35_Node000001_Node000022"><a xlink:title=" ">
<path fill="none" stroke="#63b8ff" d="M463.19,-338.43C530.17,-332.28 629,-318.86 655,-292 689.1,-256.77 687.03,-193.89 683.22,-161.51"/>
<polygon fill="#63b8ff" stroke="#63b8ff" points="686.72,-161.3 681.89,-151.86 679.79,-162.25 686.72,-161.3"/>
</a>
</g>
</g>
<!-- Node23 -->
<g id="Node000023" class="node">
<title>Node23</title>
<g id="a_Node000023"><a xlink:href="render__core_8h.html" target="_top" xlink:title=" ">
<polygon fill="white" stroke="#666666" points="447,-156 329,-156 329,-124 447,-124 447,-156"/>
<text text-anchor="start" x="337" y="-142.5" font-family="Helvetica,sans-Serif" font-size="10.00">renderer_internal/render</text>
<text text-anchor="middle" x="388" y="-130.5" font-family="Helvetica,sans-Serif" font-size="10.00">_core.h</text>
</a>
</g>
</g>
<!-- Node1&#45;&gt;Node23 -->
<g id="edge40_Node000001_Node000023" class="edge">
<title>Node1&#45;&gt;Node23</title>
<g id="a_edge40_Node000001_Node000023"><a xlink:title=" ">
<path fill="none" stroke="#63b8ff" d="M398.17,-327.82C396.32,-293.75 391.8,-210.82 389.46,-167.84"/>
<polygon fill="#63b8ff" stroke="#63b8ff" points="392.96,-167.67 388.92,-157.87 385.97,-168.05 392.96,-167.67"/>
</a>
</g>
</g>
<!-- Node24 -->
<g id="Node000024" class="node">
<title>Node24</title>
<g id="a_Node000024"><a xlink:href="render__pass_8h.html" target="_top" xlink:title=" ">
<polygon fill="white" stroke="#666666" points="646,-292 528,-292 528,-260 646,-260 646,-292"/>
<text text-anchor="start" x="536" y="-278.5" font-family="Helvetica,sans-Serif" font-size="10.00">renderer_internal/render</text>
<text text-anchor="middle" x="587" y="-266.5" font-family="Helvetica,sans-Serif" font-size="10.00">_pass.h</text>
</a>
</g>
</g>
<!-- Node1&#45;&gt;Node24 -->
<g id="edge45_Node000001_Node000024" class="edge">
<title>Node1&#45;&gt;Node24</title>
<g id="a_edge45_Node000001_Node000024"><a xlink:title=" ">
<path fill="none" stroke="#63b8ff" d="M443.08,-327.53C469.73,-318.17 503.94,-306.16 532.31,-296.2"/>
<polygon fill="#63b8ff" stroke="#63b8ff" points="533.17,-299.61 541.45,-292.99 530.85,-293 533.17,-299.61"/>
</a>
</g>
</g>
<!-- Node26 -->
<g id="Node000026" class="node">
<title>Node26</title>
<g id="a_Node000026"><a xlink:href="shader__database_8h.html" target="_top" xlink:title=" ">
<polygon fill="white" stroke="#666666" points="1007.12,-224 886.88,-224 886.88,-192 1007.12,-192 1007.12,-224"/>
<text text-anchor="start" x="894.88" y="-210.5" font-family="Helvetica,sans-Serif" font-size="10.00">renderer_internal/shader</text>
<text text-anchor="middle" x="947" y="-198.5" font-family="Helvetica,sans-Serif" font-size="10.00">_database.h</text>
</a>
</g>
</g>
<!-- Node1&#45;&gt;Node26 -->
<g id="edge67_Node000001_Node000026" class="edge">
<title>Node1&#45;&gt;Node26</title>
<g id="a_edge67_Node000001_Node000026"><a xlink:title=" ">
<path fill="none" stroke="#63b8ff" d="M463.19,-341.01C573.05,-336.76 791.97,-324.4 861,-292 889.09,-278.82 913.7,-252.72 929.32,-233.29"/>
<polygon fill="#63b8ff" stroke="#63b8ff" points="931.95,-235.61 935.31,-225.57 926.42,-231.32 931.95,-235.61"/>
</a>
</g>
</g>
<!-- Node28 -->
<g id="Node000028" class="node">
<title>Node28</title>
<g id="a_Node000028"><a xlink:href="render__system_8h.html" target="_top" xlink:title=" ">
<polygon fill="white" stroke="#666666" points="1088,-292 970,-292 970,-260 1088,-260 1088,-292"/>
<text text-anchor="start" x="978" y="-278.5" font-family="Helvetica,sans-Serif" font-size="10.00">renderer_internal/render</text>
<text text-anchor="middle" x="1029" y="-266.5" font-family="Helvetica,sans-Serif" font-size="10.00">_system.h</text>
</a>
</g>
</g>
<!-- Node1&#45;&gt;Node28 -->
<g id="edge59_Node000001_Node000028" class="edge">
<title>Node1&#45;&gt;Node28</title>
<g id="a_edge59_Node000001_Node000028"><a xlink:title=" ">
<path fill="none" stroke="#63b8ff" d="M463.29,-337.97C563.28,-329.88 762.03,-312.78 930,-292 939.24,-290.86 948.94,-289.54 958.51,-288.16"/>
<polygon fill="#63b8ff" stroke="#63b8ff" points="958.77,-291.66 968.16,-286.75 957.76,-284.74 958.77,-291.66"/>
</a>
</g>
</g>
<!-- Node3&#45;&gt;Node4 -->
<g id="edge3_Node000003_Node000004" class="edge">
<title>Node3&#45;&gt;Node4</title>
<g id="a_edge3_Node000003_Node000004"><a xlink:title=" ">
<path fill="none" stroke="#63b8ff" d="M96.45,-265.79C95.18,-244.47 92,-191.27 90.23,-161.68"/>
<polygon fill="#63b8ff" stroke="#63b8ff" points="93.73,-161.56 89.64,-151.79 86.75,-161.98 93.73,-161.56"/>
</a>
</g>
</g>
<!-- Node4&#45;&gt;Node2 -->
<g id="edge5_Node000004_Node000002" class="edge">
<title>Node4&#45;&gt;Node2</title>
<g id="a_edge5_Node000004_Node000002"><a xlink:title=" ">
<path fill="none" stroke="#63b8ff" d="M93.32,-129.79C103,-109.14 126.63,-58.71 139.79,-30.65"/>
<polygon fill="#63b8ff" stroke="#63b8ff" points="142.84,-32.38 143.92,-21.84 136.51,-29.41 142.84,-32.38"/>
</a>
</g>
</g>
<!-- Node5 -->
<g id="Node000005" class="node">
<title>Node5</title>
<g id="a_Node000005"><a xlink:title=" ">
<polygon fill="#e0e0e0" stroke="#999999" points="82.5,-82 39.5,-82 39.5,-62 82.5,-62 82.5,-82"/>
<text text-anchor="middle" x="61" y="-68.5" font-family="Helvetica,sans-Serif" font-size="10.00">cmath</text>
</a>
</g>
</g>
<!-- Node4&#45;&gt;Node5 -->
<g id="edge4_Node000004_Node000005" class="edge">
<title>Node4&#45;&gt;Node5</title>
<g id="a_edge4_Node000004_Node000005"><a xlink:title=" ">
<path fill="none" stroke="#63b8ff" d="M84.99,-129.54C80.95,-120.04 74.61,-105.09 69.46,-92.95"/>
<polygon fill="#63b8ff" stroke="#63b8ff" points="72.72,-91.67 65.6,-83.83 66.28,-94.4 72.72,-91.67"/>
</a>
</g>
</g>
<!-- Node6&#45;&gt;Node2 -->
<g id="edge8_Node000006_Node000002" class="edge">
<title>Node6&#45;&gt;Node2</title>
<g id="a_edge8_Node000006_Node000002"><a xlink:title=" ">
<path fill="none" stroke="#63b8ff" d="M133.77,-197.55C136.23,-167.47 143.9,-73.52 147.32,-31.58"/>
<polygon fill="#63b8ff" stroke="#63b8ff" points="150.79,-32.12 148.11,-21.87 143.81,-31.55 150.79,-32.12"/>
</a>
</g>
</g>
<!-- Node6&#45;&gt;Node4 -->
<g id="edge9_Node000006_Node000004" class="edge">
<title>Node6&#45;&gt;Node4</title>
<g id="a_edge9_Node000006_Node000004"><a xlink:title=" ">
<path fill="none" stroke="#63b8ff" d="M126.7,-197.54C120.16,-187.74 109.77,-172.16 101.55,-159.83"/>
<polygon fill="#63b8ff" stroke="#63b8ff" points="104.59,-158.08 96.13,-151.7 98.77,-161.96 104.59,-158.08"/>
</a>
</g>
</g>
<!-- Node7&#45;&gt;Node4 -->
<g id="edge13_Node000007_Node000004" class="edge">
<title>Node7&#45;&gt;Node4</title>
<g id="a_edge13_Node000007_Node000004"><a xlink:title=" ">
<path fill="none" stroke="#63b8ff" d="M188.38,-197.54C169.34,-186.71 137.9,-168.82 115.48,-156.06"/>
<polygon fill="#63b8ff" stroke="#63b8ff" points="117.33,-153.09 106.9,-151.19 113.87,-159.17 117.33,-153.09"/>
</a>
</g>
</g>
<!-- Node8 -->
<g id="Node000008" class="node">
<title>Node8</title>
<g id="a_Node000008"><a xlink:title=" ">
<polygon fill="#e0e0e0" stroke="#999999" points="233.62,-150 188.38,-150 188.38,-130 233.62,-130 233.62,-150"/>
<text text-anchor="middle" x="211" y="-136.5" font-family="Helvetica,sans-Serif" font-size="10.00">cstdint</text>
</a>
</g>
</g>
<!-- Node7&#45;&gt;Node8 -->
<g id="edge11_Node000007_Node000008" class="edge">
<title>Node7&#45;&gt;Node8</title>
<g id="a_edge11_Node000007_Node000008"><a xlink:title=" ">
<path fill="none" stroke="#63b8ff" d="M205.86,-197.54C206.71,-188.23 208.03,-173.7 209.12,-161.7"/>
<polygon fill="#63b8ff" stroke="#63b8ff" points="212.59,-162.22 210,-151.95 205.61,-161.59 212.59,-162.22"/>
</a>
</g>
</g>
<!-- Node9 -->
<g id="Node000009" class="node">
<title>Node9</title>
<g id="a_Node000009"><a xlink:title=" ">
<polygon fill="#e0e0e0" stroke="#999999" points="304.75,-150 263.25,-150 263.25,-130 304.75,-130 304.75,-150"/>
<text text-anchor="middle" x="284" y="-136.5" font-family="Helvetica,sans-Serif" font-size="10.00">vector</text>
</a>
</g>
</g>
<!-- Node7&#45;&gt;Node9 -->
<g id="edge12_Node000007_Node000009" class="edge">
<title>Node7&#45;&gt;Node9</title>
<g id="a_edge12_Node000007_Node000009"><a xlink:title=" ">
<path fill="none" stroke="#63b8ff" d="M216.32,-197.54C228.76,-187.15 248.97,-170.27 264.07,-157.65"/>
<polygon fill="#63b8ff" stroke="#63b8ff" points="266.11,-160.51 271.54,-151.41 261.62,-155.13 266.11,-160.51"/>
</a>
</g>
</g>
<!-- Node10&#45;&gt;Node6 -->
<g id="edge16_Node000010_Node000006" class="edge">
<title>Node10&#45;&gt;Node6</title>
<g id="a_edge16_Node000010_Node000006"><a xlink:title=" ">
<path fill="none" stroke="#63b8ff" d="M216.1,-265.54C200.47,-254.91 174.84,-237.47 156.17,-224.76"/>
<polygon fill="#63b8ff" stroke="#63b8ff" points="158.36,-222.02 148.12,-219.29 154.42,-227.81 158.36,-222.02"/>
</a>
</g>
</g>
<!-- Node10&#45;&gt;Node7 -->
<g id="edge17_Node000010_Node000007" class="edge">
<title>Node10&#45;&gt;Node7</title>
<g id="a_edge17_Node000010_Node000007"><a xlink:title=" ">
<path fill="none" stroke="#63b8ff" d="M226.42,-265.54C222.82,-256.04 217.15,-241.09 212.56,-228.95"/>
<polygon fill="#63b8ff" stroke="#63b8ff" points="215.93,-227.97 209.11,-219.85 209.38,-230.45 215.93,-227.97"/>
</a>
</g>
</g>
<!-- Node10&#45;&gt;Node9 -->
<g id="edge15_Node000010_Node000009" class="edge">
<title>Node10&#45;&gt;Node9</title>
<g id="a_edge15_Node000010_Node000009"><a xlink:title=" ">
<path fill="none" stroke="#63b8ff" d="M233.71,-265.79C242.38,-244.27 264.13,-190.31 275.98,-160.89"/>
<polygon fill="#63b8ff" stroke="#63b8ff" points="279.21,-162.26 279.7,-151.68 272.71,-159.65 279.21,-162.26"/>
</a>
</g>
</g>
<!-- Node11&#45;&gt;Node8 -->
<g id="edge20_Node000011_Node000008" class="edge">
<title>Node11&#45;&gt;Node8</title>
<g id="a_edge20_Node000011_Node000008"><a xlink:title=" ">
<path fill="none" stroke="#63b8ff" d="M334.86,-265.79C312.84,-243.6 256.58,-186.92 228.09,-158.22"/>
<polygon fill="#63b8ff" stroke="#63b8ff" points="230.8,-155.98 221.27,-151.35 225.83,-160.91 230.8,-155.98"/>
</a>
</g>
</g>
<!-- Node12 -->
<g id="Node000012" class="node">
<title>Node12</title>
<g id="a_Node000012"><a xlink:title=" ">
<polygon fill="#e0e0e0" stroke="#999999" points="370.75,-218 323.25,-218 323.25,-198 370.75,-198 370.75,-218"/>
<text text-anchor="middle" x="347" y="-204.5" font-family="Helvetica,sans-Serif" font-size="10.00">cstddef</text>
</a>
</g>
</g>
<!-- Node11&#45;&gt;Node12 -->
<g id="edge19_Node000011_Node000012" class="edge">
<title>Node11&#45;&gt;Node12</title>
<g id="a_edge19_Node000011_Node000012"><a xlink:title=" ">
<path fill="none" stroke="#63b8ff" d="M344.43,-265.54C344.85,-256.23 345.51,-241.7 346.06,-229.7"/>
<polygon fill="#63b8ff" stroke="#63b8ff" points="349.54,-230.1 346.5,-219.95 342.55,-229.78 349.54,-230.1"/>
</a>
</g>
</g>
<!-- Node14 -->
<g id="Node000014" class="node">
<title>Node14</title>
<g id="a_Node000014"><a xlink:title=" ">
<polygon fill="#e0e0e0" stroke="#999999" points="729.88,-20 644.12,-20 644.12,0 729.88,0 729.88,-20"/>
<text text-anchor="middle" x="687" y="-6.5" font-family="Helvetica,sans-Serif" font-size="10.00">vk_mem_alloc.h</text>
</a>
</g>
</g>
<!-- Node13&#45;&gt;Node14 -->
<g id="edge22_Node000013_Node000014" class="edge">
<title>Node13&#45;&gt;Node14</title>
<g id="a_edge22_Node000013_Node000014"><a xlink:title=" ">
<path fill="none" stroke="#63b8ff" d="M812.29,-129.79C789.83,-108.5 733.98,-55.55 705.04,-28.1"/>
<polygon fill="#63b8ff" stroke="#63b8ff" points="707.75,-25.85 698.08,-21.51 702.93,-30.93 707.75,-25.85"/>
</a>
</g>
</g>
<!-- Node15 -->
<g id="Node000015" class="node">
<title>Node15</title>
<g id="a_Node000015"><a xlink:title=" ">
<polygon fill="#e0e0e0" stroke="#999999" points="951.62,-20 870.38,-20 870.38,0 951.62,0 951.62,-20"/>
<text text-anchor="middle" x="911" y="-6.5" font-family="Helvetica,sans-Serif" font-size="10.00">vulkan/vulkan.h</text>
</a>
</g>
</g>
<!-- Node13&#45;&gt;Node15 -->
<g id="edge23_Node000013_Node000015" class="edge">
<title>Node13&#45;&gt;Node15</title>
<g id="a_edge23_Node000013_Node000015"><a xlink:title=" ">
<path fill="none" stroke="#63b8ff" d="M828.4,-129.79C842.89,-108.95 878.45,-57.81 897.85,-29.91"/>
<polygon fill="#63b8ff" stroke="#63b8ff" points="900.72,-31.92 903.55,-21.71 894.97,-27.92 900.72,-31.92"/>
</a>
</g>
</g>
<!-- Node13&#45;&gt;Node16 -->
<g id="edge24_Node000013_Node000016" class="edge">
<title>Node13&#45;&gt;Node16</title>
<g id="a_edge24_Node000013_Node000016"><a xlink:title=" ">
<path fill="none" stroke="#63b8ff" d="M790.19,-129.54C757.07,-119.7 704.3,-104.01 662.74,-91.65"/>
<polygon fill="#63b8ff" stroke="#63b8ff" points="663.93,-88.35 653.34,-88.86 661.93,-95.06 663.93,-88.35"/>
</a>
</g>
</g>
<!-- Node16&#45;&gt;Node2 -->
<g id="edge26_Node000016_Node000002" class="edge">
<title>Node16&#45;&gt;Node2</title>
<g id="a_edge26_Node000016_Node000002"><a xlink:title=" ">
<path fill="none" stroke="#63b8ff" d="M540.58,-63.09C447.56,-50.72 269.95,-27.09 189.91,-16.44"/>
<polygon fill="#63b8ff" stroke="#63b8ff" points="190.7,-13.02 180.33,-15.17 189.78,-19.96 190.7,-13.02"/>
</a>
</g>
</g>
<!-- Node16&#45;&gt;Node14 -->
<g id="edge29_Node000016_Node000014" class="edge">
<title>Node16&#45;&gt;Node14</title>
<g id="a_edge29_Node000016_Node000014"><a xlink:title=" ">
<path fill="none" stroke="#63b8ff" d="M622.4,-55.55C635.24,-46.69 651.32,-35.61 664.22,-26.71"/>
<polygon fill="#63b8ff" stroke="#63b8ff" points="665.87,-29.83 672.11,-21.27 661.89,-24.06 665.87,-29.83"/>
</a>
</g>
</g>
<!-- Node16&#45;&gt;Node15 -->
<g id="edge30_Node000016_Node000015" class="edge">
<title>Node16&#45;&gt;Node15</title>
<g id="a_edge30_Node000016_Node000015"><a xlink:title=" ">
<path fill="none" stroke="#63b8ff" d="M659.23,-59.57C716.98,-48.43 803.94,-31.65 859.06,-21.02"/>
<polygon fill="#63b8ff" stroke="#63b8ff" points="859.68,-24.47 868.83,-19.13 858.35,-17.59 859.68,-24.47"/>
</a>
</g>
</g>
<!-- Node17 -->
<g id="Node000017" class="node">
<title>Node17</title>
<g id="a_Node000017"><a xlink:href="config_8h.html" target="_top" xlink:title=" ">
<polygon fill="white" stroke="#666666" points="507.88,-20 458.12,-20 458.12,0 507.88,0 507.88,-20"/>
<text text-anchor="middle" x="483" y="-6.5" font-family="Helvetica,sans-Serif" font-size="10.00">config.h</text>
</a>
</g>
</g>
<!-- Node16&#45;&gt;Node17 -->
<g id="edge25_Node000016_Node000017" class="edge">
<title>Node16&#45;&gt;Node17</title>
<g id="a_edge25_Node000016_Node000017"><a xlink:title=" ">
<path fill="none" stroke="#63b8ff" d="M569.87,-55.55C551.76,-46.26 528.86,-34.52 511.12,-25.42"/>
<polygon fill="#63b8ff" stroke="#63b8ff" points="513.19,-22.55 502.69,-21.1 509.99,-28.78 513.19,-22.55"/>
</a>
</g>
</g>
<!-- Node18 -->
<g id="Node000018" class="node">
<title>Node18</title>
<g id="a_Node000018"><a xlink:title=" ">
<polygon fill="#e0e0e0" stroke="#999999" points="433.62,-20 376.38,-20 376.38,0 433.62,0 433.62,-20"/>
<text text-anchor="middle" x="405" y="-6.5" font-family="Helvetica,sans-Serif" font-size="10.00">functional</text>
</a>
</g>
</g>
<!-- Node16&#45;&gt;Node18 -->
<g id="edge27_Node000016_Node000018" class="edge">
<title>Node16&#45;&gt;Node18</title>
<g id="a_edge27_Node000016_Node000018"><a xlink:title=" ">
<path fill="none" stroke="#63b8ff" d="M549.78,-55.55C517.02,-45.47 474.86,-32.49 444.49,-23.15"/>
<polygon fill="#63b8ff" stroke="#63b8ff" points="445.91,-19.93 435.32,-20.33 443.85,-26.62 445.91,-19.93"/>
</a>
</g>
</g>
<!-- Node19 -->
<g id="Node000019" class="node">
<title>Node19</title>
<g id="a_Node000019"><a xlink:title=" ">
<polygon fill="#e0e0e0" stroke="#999999" points="626.12,-20 547.88,-20 547.88,0 626.12,0 626.12,-20"/>
<text text-anchor="middle" x="587" y="-6.5" font-family="Helvetica,sans-Serif" font-size="10.00">VkBootstrap.h</text>
</a>
</g>
</g>
<!-- Node16&#45;&gt;Node19 -->
<g id="edge28_Node000016_Node000019" class="edge">
<title>Node16&#45;&gt;Node19</title>
<g id="a_edge28_Node000016_Node000019"><a xlink:title=" ">
<path fill="none" stroke="#63b8ff" d="M596.65,-55.55C595.07,-48.26 593.16,-39.45 591.46,-31.6"/>
<polygon fill="#63b8ff" stroke="#63b8ff" points="594.9,-30.92 589.36,-21.89 588.06,-32.4 594.9,-30.92"/>
</a>
</g>
</g>
<!-- Node20&#45;&gt;Node15 -->
<g id="edge33_Node000020_Node000015" class="edge">
<title>Node20&#45;&gt;Node15</title>
<g id="a_edge33_Node000020_Node000015"><a xlink:title=" ">
<path fill="none" stroke="#63b8ff" d="M1141.05,-123.82C1141.46,-105.18 1139.1,-73.85 1121,-56 1099.06,-34.37 1017.95,-21.91 963.19,-15.8"/>
<polygon fill="#63b8ff" stroke="#63b8ff" points="963.76,-12.34 953.44,-14.75 963.01,-19.3 963.76,-12.34"/>
</a>
</g>
</g>
<!-- Node20&#45;&gt;Node16 -->
<g id="edge34_Node000020_Node000016" class="edge">
<title>Node20&#45;&gt;Node16</title>
<g id="a_edge34_Node000020_Node000016"><a xlink:title=" ">
<path fill="none" stroke="#63b8ff" d="M1072.92,-125.44C1069.91,-124.93 1066.92,-124.45 1064,-124 925.15,-102.71 761.6,-86.87 670.46,-78.86"/>
<polygon fill="#63b8ff" stroke="#63b8ff" points="670.95,-75.39 660.68,-78.01 670.34,-82.36 670.95,-75.39"/>
</a>
</g>
</g>
<!-- Node21 -->
<g id="Node000021" class="node">
<title>Node21</title>
<g id="a_Node000021"><a xlink:title=" ">
<polygon fill="#e0e0e0" stroke="#999999" points="1112.38,-82 1077.62,-82 1077.62,-62 1112.38,-62 1112.38,-82"/>
<text text-anchor="middle" x="1095" y="-68.5" font-family="Helvetica,sans-Serif" font-size="10.00">map</text>
</a>
</g>
</g>
<!-- Node20&#45;&gt;Node21 -->
<g id="edge32_Node000020_Node000021" class="edge">
<title>Node20&#45;&gt;Node21</title>
<g id="a_edge32_Node000020_Node000021"><a xlink:title=" ">
<path fill="none" stroke="#63b8ff" d="M1129.56,-123.69C1123.02,-114.1 1114.55,-101.67 1107.62,-91.52"/>
<polygon fill="#63b8ff" stroke="#63b8ff" points="1110.73,-89.86 1102.2,-83.57 1104.95,-93.8 1110.73,-89.86"/>
</a>
</g>
</g>
<!-- Node22&#45;&gt;Node14 -->
<g id="edge36_Node000022_Node000014" class="edge">
<title>Node22&#45;&gt;Node14</title>
<g id="a_edge36_Node000022_Node000014"><a xlink:title=" ">
<path fill="none" stroke="#63b8ff" d="M680.5,-129.79C681.62,-109.41 684.32,-60.05 685.86,-31.79"/>
<polygon fill="#63b8ff" stroke="#63b8ff" points="689.35,-32.15 686.4,-21.98 682.36,-31.77 689.35,-32.15"/>
</a>
</g>
</g>
<!-- Node22&#45;&gt;Node15 -->
<g id="edge37_Node000022_Node000015" class="edge">
<title>Node22&#45;&gt;Node15</title>
<g id="a_edge37_Node000022_Node000015"><a xlink:title=" ">
<path fill="none" stroke="#63b8ff" d="M696.99,-129.59C736.7,-107.58 835.9,-52.61 884,-25.96"/>
<polygon fill="#63b8ff" stroke="#63b8ff" points="885.61,-29.07 892.67,-21.16 882.22,-22.94 885.61,-29.07"/>
</a>
</g>
</g>
<!-- Node22&#45;&gt;Node16 -->
<g id="edge38_Node000022_Node000016" class="edge">
<title>Node22&#45;&gt;Node16</title>
<g id="a_edge38_Node000022_Node000016"><a xlink:title=" ">
<path fill="none" stroke="#63b8ff" d="M668.54,-129.54C657.83,-120.71 641.44,-107.19 627.37,-95.58"/>
<polygon fill="#63b8ff" stroke="#63b8ff" points="629.66,-92.93 619.71,-89.26 625.2,-98.33 629.66,-92.93"/>
</a>
</g>
</g>
<!-- Node23&#45;&gt;Node2 -->
<g id="edge43_Node000023_Node000002" class="edge">
<title>Node23&#45;&gt;Node2</title>
<g id="a_edge43_Node000023_Node000002"><a xlink:title=" ">
<path fill="none" stroke="#63b8ff" d="M359.17,-123.56C312.85,-98.75 222.44,-50.33 176.79,-25.88"/>
<polygon fill="#63b8ff" stroke="#63b8ff" points="178.52,-22.84 168.05,-21.2 175.21,-29.01 178.52,-22.84"/>
</a>
</g>
</g>
<!-- Node23&#45;&gt;Node16 -->
<g id="edge44_Node000023_Node000016" class="edge">
<title>Node23&#45;&gt;Node16</title>
<g id="a_edge44_Node000023_Node000016"><a xlink:title=" ">
<path fill="none" stroke="#63b8ff" d="M437.7,-123.53C468.16,-114.04 507.36,-101.84 539.6,-91.81"/>
<polygon fill="#63b8ff" stroke="#63b8ff" points="540.29,-95.26 548.79,-88.94 538.21,-88.57 540.29,-95.26"/>
</a>
</g>
</g>
<!-- Node23&#45;&gt;Node17 -->
<g id="edge42_Node000023_Node000017" class="edge">
<title>Node23&#45;&gt;Node17</title>
<g id="a_edge42_Node000023_Node000017"><a xlink:title=" ">
<path fill="none" stroke="#63b8ff" d="M399.46,-123.56C417.06,-99.85 450.68,-54.55 469.46,-29.25"/>
<polygon fill="#63b8ff" stroke="#63b8ff" points="472.03,-31.66 475.18,-21.54 466.41,-27.49 472.03,-31.66"/>
</a>
</g>
</g>
<!-- Node23&#45;&gt;Node18 -->
<g id="edge41_Node000023_Node000018" class="edge">
<title>Node23&#45;&gt;Node18</title>
<g id="a_edge41_Node000023_Node000018"><a xlink:title=" ">
<path fill="none" stroke="#63b8ff" d="M390.05,-123.56C393.1,-100.58 398.85,-57.34 402.26,-31.66"/>
<polygon fill="#63b8ff" stroke="#63b8ff" points="405.71,-32.2 403.56,-21.83 398.78,-31.28 405.71,-32.2"/>
</a>
</g>
</g>
<!-- Node24&#45;&gt;Node9 -->
<g id="edge47_Node000024_Node000009" class="edge">
<title>Node24&#45;&gt;Node9</title>
<g id="a_edge47_Node000024_Node000009"><a xlink:title=" ">
<path fill="none" stroke="#63b8ff" d="M546.71,-259.52C521.62,-249.71 488.75,-236.54 460,-224 407.66,-201.17 347.72,-172.31 313.02,-155.33"/>
<polygon fill="#63b8ff" stroke="#63b8ff" points="314.98,-152.39 304.46,-151.13 311.9,-158.68 314.98,-152.39"/>
</a>
</g>
</g>
<!-- Node24&#45;&gt;Node14 -->
<g id="edge48_Node000024_Node000014" class="edge">
<title>Node24&#45;&gt;Node14</title>
<g id="a_edge48_Node000024_Node000014"><a xlink:title=" ">
<path fill="none" stroke="#63b8ff" d="M593.36,-259.74C599.48,-242.88 606.87,-215.06 600,-192 592.12,-165.54 539.88,-114.46 532,-88 527.94,-74.37 523.46,-67.37 532,-56 538.39,-47.49 591.79,-33.23 634.14,-23.05"/>
<polygon fill="#63b8ff" stroke="#63b8ff" points="634.8,-26.49 643.72,-20.77 633.18,-19.68 634.8,-26.49"/>
</a>
</g>
</g>
<!-- Node24&#45;&gt;Node15 -->
<g id="edge49_Node000024_Node000015" class="edge">
<title>Node24&#45;&gt;Node15</title>
<g id="a_edge49_Node000024_Node000015"><a xlink:title=" ">
<path fill="none" stroke="#63b8ff" d="M646.34,-269.57C716.79,-259.74 832.24,-232.29 892,-156 920.36,-119.8 918.1,-62.24 914.35,-31.67"/>
<polygon fill="#63b8ff" stroke="#63b8ff" points="917.83,-31.26 912.95,-21.85 910.9,-32.25 917.83,-31.26"/>
</a>
</g>
</g>
<!-- Node24&#45;&gt;Node22 -->
<g id="edge50_Node000024_Node000022" class="edge">
<title>Node24&#45;&gt;Node22</title>
<g id="a_edge50_Node000024_Node000022"><a xlink:title=" ">
<path fill="none" stroke="#63b8ff" d="M602.44,-259.68C611.85,-249.93 623.8,-236.77 633,-224 647.85,-203.39 661.78,-177.68 670.56,-160.38"/>
<polygon fill="#63b8ff" stroke="#63b8ff" points="673.55,-162.23 674.87,-151.72 667.28,-159.11 673.55,-162.23"/>
</a>
</g>
</g>
<!-- Node24&#45;&gt;Node23 -->
<g id="edge51_Node000024_Node000023" class="edge">
<title>Node24&#45;&gt;Node23</title>
<g id="a_edge51_Node000024_Node000023"><a xlink:title=" ">
<path fill="none" stroke="#63b8ff" d="M564.17,-259.63C528.8,-235.81 460.64,-189.91 420.26,-162.72"/>
<polygon fill="#63b8ff" stroke="#63b8ff" points="422.37,-159.93 412.12,-157.24 418.46,-165.73 422.37,-159.93"/>
</a>
</g>
</g>
<!-- Node25 -->
<g id="Node000025" class="node">
<title>Node25</title>
<g id="a_Node000025"><a xlink:title=" ">
<polygon fill="#e0e0e0" stroke="#999999" points="590.88,-218 541.12,-218 541.12,-198 590.88,-198 590.88,-218"/>
<text text-anchor="middle" x="566" y="-204.5" font-family="Helvetica,sans-Serif" font-size="10.00">optional</text>
</a>
</g>
</g>
<!-- Node24&#45;&gt;Node25 -->
<g id="edge46_Node000024_Node000025" class="edge">
<title>Node24&#45;&gt;Node25</title>
<g id="a_edge46_Node000024_Node000025"><a xlink:title=" ">
<path fill="none" stroke="#63b8ff" d="M582.13,-259.69C579.24,-250.6 575.53,-238.95 572.4,-229.12"/>
<polygon fill="#63b8ff" stroke="#63b8ff" points="575.79,-228.23 569.42,-219.76 569.12,-230.35 575.79,-228.23"/>
</a>
</g>
</g>
<!-- Node24&#45;&gt;Node26 -->
<g id="edge52_Node000024_Node000026" class="edge">
<title>Node24&#45;&gt;Node26</title>
<g id="a_edge52_Node000024_Node000026"><a xlink:title=" ">
<path fill="none" stroke="#63b8ff" d="M646.45,-264.1C709.22,-252.59 808.19,-234.45 875.26,-222.15"/>
<polygon fill="#63b8ff" stroke="#63b8ff" points="875.87,-225.6 885.07,-220.35 874.61,-218.71 875.87,-225.6"/>
</a>
</g>
</g>
<!-- Node26&#45;&gt;Node9 -->
<g id="edge55_Node000026_Node000009" class="edge">
<title>Node26&#45;&gt;Node9</title>
<g id="a_edge55_Node000026_Node000009"><a xlink:title=" ">
<path fill="none" stroke="#63b8ff" d="M886.63,-204.5C751.15,-198.5 426.47,-181.83 320,-156 318.01,-155.52 316,-154.94 313.98,-154.3"/>
<polygon fill="#63b8ff" stroke="#63b8ff" points="315.44,-151.11 304.85,-150.92 313.02,-157.67 315.44,-151.11"/>
</a>
</g>
</g>
<!-- Node26&#45;&gt;Node15 -->
<g id="edge56_Node000026_Node000015" class="edge">
<title>Node26&#45;&gt;Node15</title>
<g id="a_edge56_Node000026_Node000015"><a xlink:title=" ">
<path fill="none" stroke="#63b8ff" d="M945.59,-191.85C942.86,-164.49 936.14,-105.09 925,-56 923.12,-47.73 920.47,-38.77 917.98,-31.05"/>
<polygon fill="#63b8ff" stroke="#63b8ff" points="921.31,-29.99 914.81,-21.63 914.68,-32.22 921.31,-29.99"/>
</a>
</g>
</g>
<!-- Node26&#45;&gt;Node16 -->
<g id="edge57_Node000026_Node000016" class="edge">
<title>Node26&#45;&gt;Node16</title>
<g id="a_edge57_Node000026_Node000016"><a xlink:title=" ">
<path fill="none" stroke="#63b8ff" d="M886.58,-199.85C791.69,-188.35 617.51,-166.03 608,-156 594.09,-141.33 592.98,-117.98 594.83,-99.78"/>
<polygon fill="#63b8ff" stroke="#63b8ff" points="598.29,-100.32 596.22,-89.93 591.36,-99.35 598.29,-100.32"/>
</a>
</g>
</g>
<!-- Node26&#45;&gt;Node20 -->
<g id="edge58_Node000026_Node000020" class="edge">
<title>Node26&#45;&gt;Node20</title>
<g id="a_edge58_Node000026_Node000020"><a xlink:title=" ">
<path fill="none" stroke="#63b8ff" d="M992.25,-191.53C1019.62,-182.17 1054.73,-170.16 1083.86,-160.2"/>
<polygon fill="#63b8ff" stroke="#63b8ff" points="1084.94,-163.53 1093.27,-156.98 1082.67,-156.91 1084.94,-163.53"/>
</a>
</g>
</g>
<!-- Node26&#45;&gt;Node21 -->
<g id="edge54_Node000026_Node000021" class="edge">
<title>Node26&#45;&gt;Node21</title>
<g id="a_edge54_Node000026_Node000021"><a xlink:title=" ">
<path fill="none" stroke="#63b8ff" d="M955.14,-191.71C965.24,-173.81 983.87,-144.07 1006,-124 1024.09,-107.6 1048.32,-94.14 1066.94,-85.17"/>
<polygon fill="#63b8ff" stroke="#63b8ff" points="1068.19,-88.45 1075.79,-81.06 1065.24,-82.1 1068.19,-88.45"/>
</a>
</g>
</g>
<!-- Node27 -->
<g id="Node000027" class="node">
<title>Node27</title>
<g id="a_Node000027"><a xlink:title=" ">
<polygon fill="#e0e0e0" stroke="#999999" points="1055,-150 1015,-150 1015,-130 1055,-130 1055,-150"/>
<text text-anchor="middle" x="1035" y="-136.5" font-family="Helvetica,sans-Serif" font-size="10.00">string</text>
</a>
</g>
</g>
<!-- Node26&#45;&gt;Node27 -->
<g id="edge53_Node000026_Node000027" class="edge">
<title>Node26&#45;&gt;Node27</title>
<g id="a_edge53_Node000026_Node000027"><a xlink:title=" ">
<path fill="none" stroke="#63b8ff" d="M967.41,-191.69C981.27,-181.3 999.57,-167.57 1013.63,-157.03"/>
<polygon fill="#63b8ff" stroke="#63b8ff" points="1015.47,-160.02 1021.37,-151.22 1011.27,-154.42 1015.47,-160.02"/>
</a>
</g>
</g>
<!-- Node28&#45;&gt;Node15 -->
<g id="edge62_Node000028_Node000015" class="edge">
<title>Node28&#45;&gt;Node15</title>
<g id="a_edge62_Node000028_Node000015"><a xlink:title=" ">
<path fill="none" stroke="#63b8ff" d="M1088.27,-264.51C1118.73,-256.97 1155.19,-244.41 1183,-224 1222.9,-194.72 1253.94,-168.37 1232,-124 1209.94,-79.38 1188.41,-76.39 1143,-56 1084.91,-29.92 1011.98,-18.92 963.56,-14.3"/>
<polygon fill="#63b8ff" stroke="#63b8ff" points="963.88,-10.82 953.61,-13.42 963.26,-17.79 963.88,-10.82"/>
</a>
</g>
</g>
<!-- Node28&#45;&gt;Node16 -->
<g id="edge64_Node000028_Node000016" class="edge">
<title>Node28&#45;&gt;Node16</title>
<g id="a_edge64_Node000028_Node000016"><a xlink:title=" ">
<path fill="none" stroke="#63b8ff" d="M971.8,-259.52C853.18,-227.41 591.37,-156.48 591,-156 578.66,-139.87 582.53,-116.53 588.55,-98.71"/>
<polygon fill="#63b8ff" stroke="#63b8ff" points="591.74,-100.19 592.03,-89.59 585.2,-97.69 591.74,-100.19"/>
</a>
</g>
</g>
<!-- Node28&#45;&gt;Node20 -->
<g id="edge63_Node000028_Node000020" class="edge">
<title>Node28&#45;&gt;Node20</title>
<g id="a_edge63_Node000028_Node000020"><a xlink:title=" ">
<path fill="none" stroke="#63b8ff" d="M1041.73,-259.63C1060.97,-236.41 1097.6,-192.19 1120.3,-164.79"/>
<polygon fill="#63b8ff" stroke="#63b8ff" points="1122.77,-167.29 1126.45,-157.36 1117.38,-162.83 1122.77,-167.29"/>
</a>
</g>
</g>
<!-- Node28&#45;&gt;Node21 -->
<g id="edge61_Node000028_Node000021" class="edge">
<title>Node28&#45;&gt;Node21</title>
<g id="a_edge61_Node000028_Node000021"><a xlink:title=" ">
<path fill="none" stroke="#63b8ff" d="M1076.94,-259.63C1121.96,-242.34 1186.65,-209.47 1216,-156 1222.84,-143.53 1223.86,-135.85 1216,-124 1195.61,-93.28 1152.7,-81.02 1123.85,-76.16"/>
<polygon fill="#63b8ff" stroke="#63b8ff" points="1124.73,-72.75 1114.32,-74.76 1123.71,-79.67 1124.73,-72.75"/>
</a>
</g>
</g>
<!-- Node28&#45;&gt;Node23 -->
<g id="edge65_Node000028_Node000023" class="edge">
<title>Node28&#45;&gt;Node23</title>
<g id="a_edge65_Node000028_Node000023"><a xlink:title=" ">
<path fill="none" stroke="#63b8ff" d="M969.56,-262.57C851.01,-237.79 585.66,-182.32 458.54,-155.75"/>
<polygon fill="#63b8ff" stroke="#63b8ff" points="459.4,-152.35 448.89,-153.73 457.96,-159.2 459.4,-152.35"/>
</a>
</g>
</g>
<!-- Node28&#45;&gt;Node26 -->
<g id="edge66_Node000028_Node000026" class="edge">
<title>Node28&#45;&gt;Node26</title>
<g id="a_edge66_Node000028_Node000026"><a xlink:title=" ">
<path fill="none" stroke="#63b8ff" d="M1009.98,-259.69C999.6,-251.34 986.56,-240.84 975.03,-231.56"/>
<polygon fill="#63b8ff" stroke="#63b8ff" points="977.36,-228.95 967.38,-225.4 972.97,-234.4 977.36,-228.95"/>
</a>
</g>
</g>
<!-- Node28&#45;&gt;Node27 -->
<g id="edge60_Node000028_Node000027" class="edge">
<title>Node28&#45;&gt;Node27</title>
<g id="a_edge60_Node000028_Node000027"><a xlink:title=" ">
<path fill="none" stroke="#63b8ff" d="M1029.69,-259.63C1030.77,-235.42 1032.88,-188.38 1034.09,-161.37"/>
<polygon fill="#63b8ff" stroke="#63b8ff" points="1037.57,-161.88 1034.52,-151.74 1030.58,-161.57 1037.57,-161.88"/>
</a>
</g>
</g>
</g>
</svg>
