<?xml version="1.0" encoding="UTF-8" standalone="no"?>
<!DOCTYPE svg PUBLIC "-//W3C//DTD SVG 1.1//EN"
 "http://www.w3.org/Graphics/SVG/1.1/DTD/svg11.dtd">
<!-- Generated by graphviz version 10.0.1 (20240210.2158)
 -->
<!-- Title: hybrid&#45;renderer&#45;lib/include/hybrid_renderer.h Pages: 1 -->
<svg width="1878pt" height="368pt"
 viewBox="0.00 0.00 1878.06 368.00" xmlns="http://www.w3.org/2000/svg" xmlns:xlink="http://www.w3.org/1999/xlink">
<g id="graph0" class="graph" transform="scale(1 1) rotate(0) translate(4 364)">
<title>hybrid&#45;renderer&#45;lib/include/hybrid_renderer.h</title>
<!-- Node1 -->
<g id="Node000001" class="node">
<title>Node1</title>
<g id="a_Node000001"><a xlink:title=" ">
<polygon fill="#999999" stroke="#666666" points="797.13,-360 669.38,-360 669.38,-328 797.13,-328 797.13,-360"/>
<text text-anchor="start" x="677.38" y="-346.5" font-family="Helvetica,sans-Serif" font-size="10.00">hybrid&#45;renderer&#45;lib</text>
<text text-anchor="middle" x="733.25" y="-334.5" font-family="Helvetica,sans-Serif" font-size="10.00">/include/hybrid_renderer.h</text>
</a>
</g>
</g>
<!-- Node2 -->
<g id="Node000002" class="node">
<title>Node2</title>
<g id="a_Node000002"><a xlink:href="platform_8h.html" target="_top" xlink:title=" ">
<polygon fill="white" stroke="#666666" points="398.63,-20 339.88,-20 339.88,0 398.63,0 398.63,-20"/>
<text text-anchor="middle" x="369.25" y="-6.5" font-family="Helvetica,sans-Serif" font-size="10.00">platform.h</text>
</a>
</g>
</g>
<!-- Node1&#45;&gt;Node2 -->
<g id="edge1_Node000001_Node000002" class="edge">
<title>Node1&#45;&gt;Node2</title>
<g id="a_edge1_Node000001_Node000002"><a xlink:title=" ">
<path fill="none" stroke="#63b8ff" d="M668.96,-343.42C566.6,-342.65 361.05,-335.21 193.25,-292 103.62,-268.92 2.25,-301.56 2.25,-209 2.25,-209 2.25,-209 2.25,-139 2.25,-101.16 -6.76,-81.44 21.25,-56 65.43,-15.9 245.72,-10.82 327.98,-10.64"/>
<polygon fill="#63b8ff" stroke="#63b8ff" points="327.87,-14.14 337.87,-10.65 327.87,-7.14 327.87,-14.14"/>
</a>
</g>
</g>
<!-- Node3 -->
<g id="Node000003" class="node">
<title>Node3</title>
<g id="a_Node000003"><a xlink:href="camera_8h.html" target="_top" xlink:title=" ">
<polygon fill="white" stroke="#666666" points="258.5,-286 202,-286 202,-266 258.5,-266 258.5,-286"/>
<text text-anchor="middle" x="230.25" y="-272.5" font-family="Helvetica,sans-Serif" font-size="10.00">camera.h</text>
</a>
</g>
</g>
<!-- Node1&#45;&gt;Node3 -->
<g id="edge2_Node000001_Node000003" class="edge">
<title>Node1&#45;&gt;Node3</title>
<g id="a_edge2_Node000001_Node000003"><a xlink:title=" ">
<path fill="none" stroke="#63b8ff" d="M668.97,-339.68C580.27,-334.21 415.74,-320.91 278.25,-292 275.05,-291.33 271.76,-290.53 268.46,-289.66"/>
<polygon fill="#63b8ff" stroke="#63b8ff" points="269.46,-286.3 258.88,-286.9 267.53,-293.03 269.46,-286.3"/>
</a>
</g>
</g>
<!-- Node4 -->
<g id="Node000004" class="node">
<title>Node4</title>
<g id="a_Node000004"><a xlink:href="hri__math_8h.html" target="_top" xlink:title=" ">
<polygon fill="white" stroke="#666666" points="244.13,-150 182.38,-150 182.38,-130 244.13,-130 244.13,-150"/>
<text text-anchor="middle" x="213.25" y="-136.5" font-family="Helvetica,sans-Serif" font-size="10.00">hri_math.h</text>
</a>
</g>
</g>
<!-- Node1&#45;&gt;Node4 -->
<g id="edge8_Node000001_Node000004" class="edge">
<title>Node1&#45;&gt;Node4</title>
<g id="a_edge8_Node000001_Node000004"><a xlink:title=" ">
<path fill="none" stroke="#63b8ff" d="M669.12,-341.06C602.9,-337.17 497.63,-325.7 413.25,-292 335.33,-260.88 261.3,-190.94 229.53,-158.34"/>
<polygon fill="#63b8ff" stroke="#63b8ff" points="232.21,-156.09 222.77,-151.29 227.16,-160.93 232.21,-156.09"/>
</a>
</g>
</g>
<!-- Node8 -->
<g id="Node000008" class="node">
<title>Node8</title>
<g id="a_Node000008"><a xlink:href="mesh_8h.html" target="_top" xlink:title=" ">
<polygon fill="white" stroke="#666666" points="564.38,-218 516.13,-218 516.13,-198 564.38,-198 564.38,-218"/>
<text text-anchor="middle" x="540.25" y="-204.5" font-family="Helvetica,sans-Serif" font-size="10.00">mesh.h</text>
</a>
</g>
</g>
<!-- Node1&#45;&gt;Node8 -->
<g id="edge9_Node000001_Node000008" class="edge">
<title>Node1&#45;&gt;Node8</title>
<g id="a_edge9_Node000001_Node000008"><a xlink:title=" ">
<path fill="none" stroke="#63b8ff" d="M711.11,-327.63C674.03,-301.88 599.77,-250.32 562.57,-224.49"/>
<polygon fill="#63b8ff" stroke="#63b8ff" points="564.99,-221.91 554.78,-219.09 561,-227.66 564.99,-221.91"/>
</a>
</g>
</g>
<!-- Node11 -->
<g id="Node000011" class="node">
<title>Node11</title>
<g id="a_Node000011"><a xlink:href="render__context_8h.html" target="_top" xlink:title=" ">
<polygon fill="white" stroke="#666666" points="929.25,-88 811.25,-88 811.25,-56 929.25,-56 929.25,-88"/>
<text text-anchor="start" x="819.25" y="-74.5" font-family="Helvetica,sans-Serif" font-size="10.00">renderer_internal/render</text>
<text text-anchor="middle" x="870.25" y="-62.5" font-family="Helvetica,sans-Serif" font-size="10.00">_context.h</text>
</a>
</g>
</g>
<!-- Node1&#45;&gt;Node11 -->
<g id="edge39_Node000001_Node000011" class="edge">
<title>Node1&#45;&gt;Node11</title>
<g id="a_edge39_Node000001_Node000011"><a xlink:title=" ">
<path fill="none" stroke="#63b8ff" d="M797.47,-335.61C828.99,-328.93 865.43,-316.21 890.25,-292 945.85,-237.79 972.98,-193.46 938.25,-124 932.33,-112.16 922.21,-102.35 911.56,-94.61"/>
<polygon fill="#63b8ff" stroke="#63b8ff" points="913.67,-91.81 903.41,-89.18 909.79,-97.64 913.67,-91.81"/>
</a>
</g>
</g>
<!-- Node17 -->
<g id="Node000017" class="node">
<title>Node17</title>
<g id="a_Node000017"><a xlink:href="buffer_8h.html" target="_top" xlink:title=" ">
<polygon fill="white" stroke="#666666" points="687.5,-150 565,-150 565,-130 687.5,-130 687.5,-150"/>
<text text-anchor="middle" x="626.25" y="-136.5" font-family="Helvetica,sans-Serif" font-size="10.00">renderer_internal/buffer.h</text>
</a>
</g>
</g>
<!-- Node1&#45;&gt;Node17 -->
<g id="edge27_Node000001_Node000017" class="edge">
<title>Node1&#45;&gt;Node17</title>
<g id="a_edge27_Node000001_Node000017"><a xlink:title=" ">
<path fill="none" stroke="#63b8ff" d="M725.21,-327.82C706.06,-291.66 657.78,-200.51 636.54,-160.42"/>
<polygon fill="#63b8ff" stroke="#63b8ff" points="639.69,-158.89 631.92,-151.69 633.51,-162.17 639.69,-158.89"/>
</a>
</g>
</g>
<!-- Node18 -->
<g id="Node000018" class="node">
<title>Node18</title>
<g id="a_Node000018"><a xlink:href="texture_8h.html" target="_top" xlink:title=" ">
<polygon fill="white" stroke="#666666" points="377.38,-218 323.13,-218 323.13,-198 377.38,-198 377.38,-218"/>
<text text-anchor="middle" x="350.25" y="-204.5" font-family="Helvetica,sans-Serif" font-size="10.00">texture.h</text>
</a>
</g>
</g>
<!-- Node1&#45;&gt;Node18 -->
<g id="edge24_Node000001_Node000018" class="edge">
<title>Node1&#45;&gt;Node18</title>
<g id="a_edge24_Node000001_Node000018"><a xlink:title=" ">
<path fill="none" stroke="#63b8ff" d="M668.95,-337.46C615.26,-331.18 537.57,-318.18 474.25,-292 433.86,-275.29 392.84,-244.55 369.57,-225.53"/>
<polygon fill="#63b8ff" stroke="#63b8ff" points="372.1,-223.08 362.17,-219.37 367.62,-228.46 372.1,-223.08"/>
</a>
</g>
</g>
<!-- Node20 -->
<g id="Node000020" class="node">
<title>Node20</title>
<g id="a_Node000020"><a xlink:href="command__submission_8h.html" target="_top" xlink:title=" ">
<polygon fill="white" stroke="#666666" points="1853.13,-156 1719.38,-156 1719.38,-124 1853.13,-124 1853.13,-156"/>
<text text-anchor="start" x="1727.38" y="-142.5" font-family="Helvetica,sans-Serif" font-size="10.00">renderer_internal/command</text>
<text text-anchor="middle" x="1786.25" y="-130.5" font-family="Helvetica,sans-Serif" font-size="10.00">_submission.h</text>
</a>
</g>
</g>
<!-- Node1&#45;&gt;Node20 -->
<g id="edge28_Node000001_Node000020" class="edge">
<title>Node1&#45;&gt;Node20</title>
<g id="a_edge28_Node000001_Node000020"><a xlink:title=" ">
<path fill="none" stroke="#63b8ff" d="M797.3,-343.37C912.36,-342.81 1161.08,-336.04 1365.25,-292 1507.41,-261.34 1666.9,-194.72 1742.27,-161.17"/>
<polygon fill="#63b8ff" stroke="#63b8ff" points="1743.69,-164.37 1751.39,-157.08 1740.83,-157.98 1743.69,-164.37"/>
</a>
</g>
</g>
<!-- Node21 -->
<g id="Node000021" class="node">
<title>Node21</title>
<g id="a_Node000021"><a xlink:href="descriptor__management_8h.html" target="_top" xlink:title=" ">
<polygon fill="white" stroke="#666666" points="1473.13,-156 1339.38,-156 1339.38,-124 1473.13,-124 1473.13,-156"/>
<text text-anchor="start" x="1347.38" y="-142.5" font-family="Helvetica,sans-Serif" font-size="10.00">renderer_internal/descriptor</text>
<text text-anchor="middle" x="1406.25" y="-130.5" font-family="Helvetica,sans-Serif" font-size="10.00">_management.h</text>
</a>
</g>
</g>
<!-- Node1&#45;&gt;Node21 -->
<g id="edge31_Node000001_Node000021" class="edge">
<title>Node1&#45;&gt;Node21</title>
<g id="a_edge31_Node000001_Node000021"><a xlink:title=" ">
<path fill="none" stroke="#63b8ff" d="M797.21,-342.95C922.49,-341.89 1195.16,-334.6 1277.25,-292 1331.89,-263.65 1373.06,-201.4 1392.98,-166.33"/>
<polygon fill="#63b8ff" stroke="#63b8ff" points="1395.97,-168.15 1397.73,-157.7 1389.84,-164.77 1395.97,-168.15"/>
</a>
</g>
</g>
<!-- Node23 -->
<g id="Node000023" class="node">
<title>Node23</title>
<g id="a_Node000023"><a xlink:href="image_8h.html" target="_top" xlink:title=" ">
<polygon fill="white" stroke="#666666" points="869,-150 743.5,-150 743.5,-130 869,-130 869,-150"/>
<text text-anchor="middle" x="806.25" y="-136.5" font-family="Helvetica,sans-Serif" font-size="10.00">renderer_internal/image.h</text>
</a>
</g>
</g>
<!-- Node1&#45;&gt;Node23 -->
<g id="edge35_Node000001_Node000023" class="edge">
<title>Node1&#45;&gt;Node23</title>
<g id="a_edge35_Node000001_Node000023"><a xlink:title=" ">
<path fill="none" stroke="#63b8ff" d="M736.32,-327.79C739.88,-310.98 746.31,-283.2 754.25,-260 766.56,-224.05 785.2,-183.86 796.5,-160.6"/>
<polygon fill="#63b8ff" stroke="#63b8ff" points="799.6,-162.23 800.87,-151.71 793.32,-159.14 799.6,-162.23"/>
</a>
</g>
</g>
<!-- Node24 -->
<g id="Node000024" class="node">
<title>Node24</title>
<g id="a_Node000024"><a xlink:href="render__core_8h.html" target="_top" xlink:title=" ">
<polygon fill="white" stroke="#666666" points="547.25,-156 429.25,-156 429.25,-124 547.25,-124 547.25,-156"/>
<text text-anchor="start" x="437.25" y="-142.5" font-family="Helvetica,sans-Serif" font-size="10.00">renderer_internal/render</text>
<text text-anchor="middle" x="488.25" y="-130.5" font-family="Helvetica,sans-Serif" font-size="10.00">_core.h</text>
</a>
</g>
</g>
<!-- Node1&#45;&gt;Node24 -->
<g id="edge40_Node000001_Node000024" class="edge">
<title>Node1&#45;&gt;Node24</title>
<g id="a_edge40_Node000001_Node000024"><a xlink:title=" ">
<path fill="none" stroke="#63b8ff" d="M670.93,-327.55C618.37,-311.06 545.72,-279.48 507.25,-224 495.81,-207.5 491.16,-185.14 489.32,-167.78"/>
<polygon fill="#63b8ff" stroke="#63b8ff" points="492.82,-167.65 488.55,-157.95 485.84,-168.2 492.82,-167.65"/>
</a>
</g>
</g>
<!-- Node25 -->
<g id="Node000025" class="node">
<title>Node25</title>
<g id="a_Node000025"><a xlink:href="render__pass_8h.html" target="_top" xlink:title=" ">
<polygon fill="white" stroke="#666666" points="881.25,-292 763.25,-292 763.25,-260 881.25,-260 881.25,-292"/>
<text text-anchor="start" x="771.25" y="-278.5" font-family="Helvetica,sans-Serif" font-size="10.00">renderer_internal/render</text>
<text text-anchor="middle" x="822.25" y="-266.5" font-family="Helvetica,sans-Serif" font-size="10.00">_pass.h</text>
</a>
</g>
</g>
<!-- Node1&#45;&gt;Node25 -->
<g id="edge45_Node000001_Node000025" class="edge">
<title>Node1&#45;&gt;Node25</title>
<g id="a_edge45_Node000001_Node000025"><a xlink:title=" ">
<path fill="none" stroke="#63b8ff" d="M753.9,-327.69C765.27,-319.26 779.6,-308.63 792.2,-299.29"/>
<polygon fill="#63b8ff" stroke="#63b8ff" points="794.25,-302.12 800.2,-293.35 790.08,-296.5 794.25,-302.12"/>
</a>
</g>
</g>
<!-- Node27 -->
<g id="Node000027" class="node">
<title>Node27</title>
<g id="a_Node000027"><a xlink:href="shader__database_8h.html" target="_top" xlink:title=" ">
<polygon fill="white" stroke="#666666" points="1181.38,-224 1061.13,-224 1061.13,-192 1181.38,-192 1181.38,-224"/>
<text text-anchor="start" x="1069.13" y="-210.5" font-family="Helvetica,sans-Serif" font-size="10.00">renderer_internal/shader</text>
<text text-anchor="middle" x="1121.25" y="-198.5" font-family="Helvetica,sans-Serif" font-size="10.00">_database.h</text>
</a>
</g>
</g>
<!-- Node1&#45;&gt;Node27 -->
<g id="edge73_Node000001_Node000027" class="edge">
<title>Node1&#45;&gt;Node27</title>
<g id="a_edge73_Node000001_Node000027"><a xlink:title=" ">
<path fill="none" stroke="#63b8ff" d="M797.36,-338.86C853.96,-333.39 937.75,-320.8 1005.25,-292 1039.89,-277.23 1074.3,-250.72 1096.54,-231.63"/>
<polygon fill="#63b8ff" stroke="#63b8ff" points="1098.65,-234.44 1103.87,-225.21 1094.04,-229.17 1098.65,-234.44"/>
</a>
</g>
</g>
<!-- Node29 -->
<g id="Node000029" class="node">
<title>Node29</title>
<g id="a_Node000029"><a xlink:href="render__system_8h.html" target="_top" xlink:title=" ">
<polygon fill="white" stroke="#666666" points="1268.25,-292 1150.25,-292 1150.25,-260 1268.25,-260 1268.25,-292"/>
<text text-anchor="start" x="1158.25" y="-278.5" font-family="Helvetica,sans-Serif" font-size="10.00">renderer_internal/render</text>
<text text-anchor="middle" x="1209.25" y="-266.5" font-family="Helvetica,sans-Serif" font-size="10.00">_system.h</text>
</a>
</g>
</g>
<!-- Node1&#45;&gt;Node29 -->
<g id="edge59_Node000001_Node000029" class="edge">
<title>Node1&#45;&gt;Node29</title>
<g id="a_edge59_Node000001_Node000029"><a xlink:title=" ">
<path fill="none" stroke="#63b8ff" d="M797.45,-334.1C886.37,-321.77 1046.44,-299.57 1138.64,-286.79"/>
<polygon fill="#63b8ff" stroke="#63b8ff" points="1138.89,-290.29 1148.32,-285.45 1137.93,-283.36 1138.89,-290.29"/>
</a>
</g>
</g>
<!-- Node31 -->
<g id="Node000031" class="node">
<title>Node31</title>
<g id="a_Node000031"><a xlink:href="sampler_8h.html" target="_top" xlink:title=" ">
<polygon fill="white" stroke="#666666" points="1701.13,-150 1567.38,-150 1567.38,-130 1701.13,-130 1701.13,-150"/>
<text text-anchor="middle" x="1634.25" y="-136.5" font-family="Helvetica,sans-Serif" font-size="10.00">renderer_internal/sampler.h</text>
</a>
</g>
</g>
<!-- Node1&#45;&gt;Node31 -->
<g id="edge70_Node000001_Node000031" class="edge">
<title>Node1&#45;&gt;Node31</title>
<g id="a_edge70_Node000001_Node000031"><a xlink:title=" ">
<path fill="none" stroke="#63b8ff" d="M797.51,-340.09C927.3,-333.76 1216.51,-317.26 1312.25,-292 1382.64,-273.43 1395.33,-254.86 1461.25,-224 1511.76,-200.36 1570.18,-172.15 1604.57,-155.45"/>
<polygon fill="#63b8ff" stroke="#63b8ff" points="1606.03,-158.64 1613.49,-151.12 1602.97,-152.34 1606.03,-158.64"/>
</a>
</g>
</g>
<!-- Node3&#45;&gt;Node4 -->
<g id="edge3_Node000003_Node000004" class="edge">
<title>Node3&#45;&gt;Node4</title>
<g id="a_edge3_Node000003_Node000004"><a xlink:title=" ">
<path fill="none" stroke="#63b8ff" d="M229.09,-265.79C226.38,-244.47 219.63,-191.27 215.88,-161.68"/>
<polygon fill="#63b8ff" stroke="#63b8ff" points="219.35,-161.26 214.62,-151.78 212.41,-162.14 219.35,-161.26"/>
</a>
</g>
</g>
<!-- Node4&#45;&gt;Node2 -->
<g id="edge7_Node000004_Node000002" class="edge">
<title>Node4&#45;&gt;Node2</title>
<g id="a_edge7_Node000004_Node000002"><a xlink:title=" ">
<path fill="none" stroke="#63b8ff" d="M237.22,-129.57C269.32,-116.78 323.08,-94.77 330.25,-88 346.9,-72.29 357.57,-47.91 363.46,-30.81"/>
<polygon fill="#63b8ff" stroke="#63b8ff" points="366.64,-32.35 366.34,-21.76 359.97,-30.23 366.64,-32.35"/>
</a>
</g>
</g>
<!-- Node5 -->
<g id="Node000005" class="node">
<title>Node5</title>
<g id="a_Node000005"><a xlink:title=" ">
<polygon fill="#e0e0e0" stroke="#999999" points="321.75,-82 278.75,-82 278.75,-62 321.75,-62 321.75,-82"/>
<text text-anchor="middle" x="300.25" y="-68.5" font-family="Helvetica,sans-Serif" font-size="10.00">cmath</text>
</a>
</g>
</g>
<!-- Node4&#45;&gt;Node5 -->
<g id="edge4_Node000004_Node000005" class="edge">
<title>Node4&#45;&gt;Node5</title>
<g id="a_edge4_Node000004_Node000005"><a xlink:title=" ">
<path fill="none" stroke="#63b8ff" d="M225.72,-129.54C239.54,-119.06 262.1,-101.95 278.78,-89.29"/>
<polygon fill="#63b8ff" stroke="#63b8ff" points="280.76,-92.19 286.61,-83.35 276.52,-86.61 280.76,-92.19"/>
</a>
</g>
</g>
<!-- Node6 -->
<g id="Node000006" class="node">
<title>Node6</title>
<g id="a_Node000006"><a xlink:title=" ">
<polygon fill="#e0e0e0" stroke="#999999" points="99.88,-82 30.63,-82 30.63,-62 99.88,-62 99.88,-82"/>
<text text-anchor="middle" x="65.25" y="-68.5" font-family="Helvetica,sans-Serif" font-size="10.00">glm/glm.hpp</text>
</a>
</g>
</g>
<!-- Node4&#45;&gt;Node6 -->
<g id="edge5_Node000004_Node000006" class="edge">
<title>Node4&#45;&gt;Node6</title>
<g id="a_edge5_Node000004_Node000006"><a xlink:title=" ">
<path fill="none" stroke="#63b8ff" d="M192.05,-129.54C167.1,-118.42 125.45,-99.84 96.73,-87.04"/>
<polygon fill="#63b8ff" stroke="#63b8ff" points="98.36,-83.93 87.8,-83.06 95.51,-90.32 98.36,-83.93"/>
</a>
</g>
</g>
<!-- Node7 -->
<g id="Node000007" class="node">
<title>Node7</title>
<g id="a_Node000007"><a xlink:title=" ">
<polygon fill="#e0e0e0" stroke="#999999" points="260.63,-82 117.88,-82 117.88,-62 260.63,-62 260.63,-82"/>
<text text-anchor="middle" x="189.25" y="-68.5" font-family="Helvetica,sans-Serif" font-size="10.00">glm/gtc/matrix_transform.hpp</text>
</a>
</g>
</g>
<!-- Node4&#45;&gt;Node7 -->
<g id="edge6_Node000004_Node000007" class="edge">
<title>Node4&#45;&gt;Node7</title>
<g id="a_edge6_Node000004_Node000007"><a xlink:title=" ">
<path fill="none" stroke="#63b8ff" d="M209.82,-129.54C206.36,-120.04 200.92,-105.09 196.51,-92.95"/>
<polygon fill="#63b8ff" stroke="#63b8ff" points="199.91,-92.06 193.2,-83.86 193.33,-94.46 199.91,-92.06"/>
</a>
</g>
</g>
<!-- Node8&#45;&gt;Node4 -->
<g id="edge12_Node000008_Node000004" class="edge">
<title>Node8&#45;&gt;Node4</title>
<g id="a_edge12_Node000008_Node000004"><a xlink:title=" ">
<path fill="none" stroke="#63b8ff" d="M515.73,-204.18C465.73,-198.1 348.68,-182.13 253.25,-156 251.25,-155.45 249.2,-154.84 247.15,-154.19"/>
<polygon fill="#63b8ff" stroke="#63b8ff" points="248.31,-150.89 237.72,-150.95 246.03,-157.51 248.31,-150.89"/>
</a>
</g>
</g>
<!-- Node9 -->
<g id="Node000009" class="node">
<title>Node9</title>
<g id="a_Node000009"><a xlink:title=" ">
<polygon fill="#e0e0e0" stroke="#999999" points="372.88,-150 327.63,-150 327.63,-130 372.88,-130 372.88,-150"/>
<text text-anchor="middle" x="350.25" y="-136.5" font-family="Helvetica,sans-Serif" font-size="10.00">cstdint</text>
</a>
</g>
</g>
<!-- Node8&#45;&gt;Node9 -->
<g id="edge10_Node000008_Node000009" class="edge">
<title>Node8&#45;&gt;Node9</title>
<g id="a_edge10_Node000008_Node000009"><a xlink:title=" ">
<path fill="none" stroke="#63b8ff" d="M515.71,-199.35C485.35,-189.76 432.17,-172.57 387.25,-156 385.94,-155.51 384.6,-155.01 383.25,-154.5"/>
<polygon fill="#63b8ff" stroke="#63b8ff" points="384.86,-151.37 374.27,-150.98 382.31,-157.89 384.86,-151.37"/>
</a>
</g>
</g>
<!-- Node10 -->
<g id="Node000010" class="node">
<title>Node10</title>
<g id="a_Node000010"><a xlink:title=" ">
<polygon fill="#e0e0e0" stroke="#999999" points="929,-150 887.5,-150 887.5,-130 929,-130 929,-150"/>
<text text-anchor="middle" x="908.25" y="-136.5" font-family="Helvetica,sans-Serif" font-size="10.00">vector</text>
</a>
</g>
</g>
<!-- Node8&#45;&gt;Node10 -->
<g id="edge11_Node000008_Node000010" class="edge">
<title>Node8&#45;&gt;Node10</title>
<g id="a_edge11_Node000008_Node000010"><a xlink:title=" ">
<path fill="none" stroke="#63b8ff" d="M564.61,-205.94C621.02,-202.91 764.54,-192.01 878.25,-156 879.39,-155.64 880.54,-155.24 881.69,-154.81"/>
<polygon fill="#63b8ff" stroke="#63b8ff" points="882.68,-158.2 890.44,-150.98 879.88,-151.79 882.68,-158.2"/>
</a>
</g>
</g>
<!-- Node8&#45;&gt;Node11 -->
<g id="edge13_Node000008_Node000011" class="edge">
<title>Node8&#45;&gt;Node11</title>
<g id="a_edge13_Node000008_Node000011"><a xlink:title=" ">
<path fill="none" stroke="#63b8ff" d="M564.68,-202.08C596.43,-195.01 652.93,-180.11 696.25,-156 715.55,-145.26 715.2,-135.15 734.25,-124 756.33,-111.08 782.27,-100.4 805.53,-92.2"/>
<polygon fill="#63b8ff" stroke="#63b8ff" points="806.6,-95.53 814.93,-88.98 804.34,-88.91 806.6,-95.53"/>
</a>
</g>
</g>
<!-- Node8&#45;&gt;Node17 -->
<g id="edge20_Node000008_Node000017" class="edge">
<title>Node8&#45;&gt;Node17</title>
<g id="a_edge20_Node000008_Node000017"><a xlink:title=" ">
<path fill="none" stroke="#63b8ff" d="M552.58,-197.54C566.24,-187.06 588.54,-169.95 605.03,-157.29"/>
<polygon fill="#63b8ff" stroke="#63b8ff" points="606.95,-160.22 612.75,-151.36 602.69,-154.67 606.95,-160.22"/>
</a>
</g>
</g>
<!-- Node11&#45;&gt;Node2 -->
<g id="edge15_Node000011_Node000002" class="edge">
<title>Node11&#45;&gt;Node2</title>
<g id="a_edge15_Node000011_Node000002"><a xlink:title=" ">
<path fill="none" stroke="#63b8ff" d="M810.82,-63.88C707.85,-51.55 498.86,-26.52 410.34,-15.92"/>
<polygon fill="#63b8ff" stroke="#63b8ff" points="410.77,-12.45 400.42,-14.73 409.94,-19.4 410.77,-12.45"/>
</a>
</g>
</g>
<!-- Node12 -->
<g id="Node000012" class="node">
<title>Node12</title>
<g id="a_Node000012"><a xlink:href="config_8h.html" target="_top" xlink:title=" ">
<polygon fill="white" stroke="#666666" points="737.13,-20 687.38,-20 687.38,0 737.13,0 737.13,-20"/>
<text text-anchor="middle" x="712.25" y="-6.5" font-family="Helvetica,sans-Serif" font-size="10.00">config.h</text>
</a>
</g>
</g>
<!-- Node11&#45;&gt;Node12 -->
<g id="edge14_Node000011_Node000012" class="edge">
<title>Node11&#45;&gt;Node12</title>
<g id="a_edge14_Node000011_Node000012"><a xlink:title=" ">
<path fill="none" stroke="#63b8ff" d="M829.57,-55.55C804.19,-45.91 771.86,-33.64 747.57,-24.41"/>
<polygon fill="#63b8ff" stroke="#63b8ff" points="749.03,-21.22 738.44,-20.95 746.55,-27.77 749.03,-21.22"/>
</a>
</g>
</g>
<!-- Node13 -->
<g id="Node000013" class="node">
<title>Node13</title>
<g id="a_Node000013"><a xlink:title=" ">
<polygon fill="#e0e0e0" stroke="#999999" points="812.88,-20 755.63,-20 755.63,0 812.88,0 812.88,-20"/>
<text text-anchor="middle" x="784.25" y="-6.5" font-family="Helvetica,sans-Serif" font-size="10.00">functional</text>
</a>
</g>
</g>
<!-- Node11&#45;&gt;Node13 -->
<g id="edge16_Node000011_Node000013" class="edge">
<title>Node11&#45;&gt;Node13</title>
<g id="a_edge16_Node000011_Node000013"><a xlink:title=" ">
<path fill="none" stroke="#63b8ff" d="M848.11,-55.55C835.54,-46.78 819.84,-35.83 807.15,-26.97"/>
<polygon fill="#63b8ff" stroke="#63b8ff" points="809.18,-24.13 798.98,-21.27 805.18,-29.87 809.18,-24.13"/>
</a>
</g>
</g>
<!-- Node14 -->
<g id="Node000014" class="node">
<title>Node14</title>
<g id="a_Node000014"><a xlink:title=" ">
<polygon fill="#e0e0e0" stroke="#999999" points="909.38,-20 831.13,-20 831.13,0 909.38,0 909.38,-20"/>
<text text-anchor="middle" x="870.25" y="-6.5" font-family="Helvetica,sans-Serif" font-size="10.00">VkBootstrap.h</text>
</a>
</g>
</g>
<!-- Node11&#45;&gt;Node14 -->
<g id="edge17_Node000011_Node000014" class="edge">
<title>Node11&#45;&gt;Node14</title>
<g id="a_edge17_Node000011_Node000014"><a xlink:title=" ">
<path fill="none" stroke="#63b8ff" d="M870.25,-55.55C870.25,-48.34 870.25,-39.66 870.25,-31.88"/>
<polygon fill="#63b8ff" stroke="#63b8ff" points="873.75,-31.92 870.25,-21.92 866.75,-31.92 873.75,-31.92"/>
</a>
</g>
</g>
<!-- Node15 -->
<g id="Node000015" class="node">
<title>Node15</title>
<g id="a_Node000015"><a xlink:title=" ">
<polygon fill="#e0e0e0" stroke="#999999" points="669.13,-20 583.38,-20 583.38,0 669.13,0 669.13,-20"/>
<text text-anchor="middle" x="626.25" y="-6.5" font-family="Helvetica,sans-Serif" font-size="10.00">vk_mem_alloc.h</text>
</a>
</g>
</g>
<!-- Node11&#45;&gt;Node15 -->
<g id="edge18_Node000011_Node000015" class="edge">
<title>Node11&#45;&gt;Node15</title>
<g id="a_edge18_Node000011_Node000015"><a xlink:title=" ">
<path fill="none" stroke="#63b8ff" d="M810.88,-56.4C769.41,-46.2 714.69,-32.75 675.62,-23.14"/>
<polygon fill="#63b8ff" stroke="#63b8ff" points="676.54,-19.76 666,-20.77 674.87,-26.56 676.54,-19.76"/>
</a>
</g>
</g>
<!-- Node16 -->
<g id="Node000016" class="node">
<title>Node16</title>
<g id="a_Node000016"><a xlink:title=" ">
<polygon fill="#e0e0e0" stroke="#999999" points="1196.88,-20 1115.63,-20 1115.63,0 1196.88,0 1196.88,-20"/>
<text text-anchor="middle" x="1156.25" y="-6.5" font-family="Helvetica,sans-Serif" font-size="10.00">vulkan/vulkan.h</text>
</a>
</g>
</g>
<!-- Node11&#45;&gt;Node16 -->
<g id="edge19_Node000011_Node000016" class="edge">
<title>Node11&#45;&gt;Node16</title>
<g id="a_edge19_Node000011_Node000016"><a xlink:title=" ">
<path fill="none" stroke="#63b8ff" d="M929.51,-58.57C981.12,-47.74 1055.2,-32.2 1104.47,-21.86"/>
<polygon fill="#63b8ff" stroke="#63b8ff" points="1104.97,-25.34 1114.03,-19.86 1103.53,-18.49 1104.97,-25.34"/>
</a>
</g>
</g>
<!-- Node17&#45;&gt;Node11 -->
<g id="edge23_Node000017_Node000011" class="edge">
<title>Node17&#45;&gt;Node11</title>
<g id="a_edge23_Node000017_Node000011"><a xlink:title=" ">
<path fill="none" stroke="#63b8ff" d="M661.21,-129.54C697.86,-119.63 756.36,-103.81 802.17,-91.42"/>
<polygon fill="#63b8ff" stroke="#63b8ff" points="803.02,-94.81 811.76,-88.82 801.19,-88.06 803.02,-94.81"/>
</a>
</g>
</g>
<!-- Node17&#45;&gt;Node15 -->
<g id="edge21_Node000017_Node000015" class="edge">
<title>Node17&#45;&gt;Node15</title>
<g id="a_edge21_Node000017_Node000015"><a xlink:title=" ">
<path fill="none" stroke="#63b8ff" d="M626.25,-129.79C626.25,-109.41 626.25,-60.05 626.25,-31.79"/>
<polygon fill="#63b8ff" stroke="#63b8ff" points="629.75,-31.98 626.25,-21.98 622.75,-31.98 629.75,-31.98"/>
</a>
</g>
</g>
<!-- Node17&#45;&gt;Node16 -->
<g id="edge22_Node000017_Node000016" class="edge">
<title>Node17&#45;&gt;Node16</title>
<g id="a_edge22_Node000017_Node000016"><a xlink:title=" ">
<path fill="none" stroke="#63b8ff" d="M641.61,-129.71C671.41,-112.15 739.66,-74.24 802.25,-56 906.63,-25.58 1034.25,-15.72 1104.2,-12.53"/>
<polygon fill="#63b8ff" stroke="#63b8ff" points="1103.98,-16.04 1113.82,-12.12 1103.68,-9.05 1103.98,-16.04"/>
</a>
</g>
</g>
<!-- Node18&#45;&gt;Node9 -->
<g id="edge26_Node000018_Node000009" class="edge">
<title>Node18&#45;&gt;Node9</title>
<g id="a_edge26_Node000018_Node000009"><a xlink:title=" ">
<path fill="none" stroke="#63b8ff" d="M350.25,-197.54C350.25,-188.23 350.25,-173.7 350.25,-161.7"/>
<polygon fill="#63b8ff" stroke="#63b8ff" points="353.75,-161.95 350.25,-151.95 346.75,-161.95 353.75,-161.95"/>
</a>
</g>
</g>
<!-- Node19 -->
<g id="Node000019" class="node">
<title>Node19</title>
<g id="a_Node000019"><a xlink:title=" ">
<polygon fill="#e0e0e0" stroke="#999999" points="310,-150 262.5,-150 262.5,-130 310,-130 310,-150"/>
<text text-anchor="middle" x="286.25" y="-136.5" font-family="Helvetica,sans-Serif" font-size="10.00">cstddef</text>
</a>
</g>
</g>
<!-- Node18&#45;&gt;Node19 -->
<g id="edge25_Node000018_Node000019" class="edge">
<title>Node18&#45;&gt;Node19</title>
<g id="a_edge25_Node000018_Node000019"><a xlink:title=" ">
<path fill="none" stroke="#63b8ff" d="M341.08,-197.54C331.2,-187.35 315.25,-170.9 303.09,-158.37"/>
<polygon fill="#63b8ff" stroke="#63b8ff" points="305.93,-156.27 296.46,-151.53 300.91,-161.14 305.93,-156.27"/>
</a>
</g>
</g>
<!-- Node20&#45;&gt;Node11 -->
<g id="edge30_Node000020_Node000011" class="edge">
<title>Node20&#45;&gt;Node11</title>
<g id="a_edge30_Node000020_Node000011"><a xlink:title=" ">
<path fill="none" stroke="#63b8ff" d="M1719.2,-125.26C1716.18,-124.8 1713.19,-124.38 1710.25,-124 1426.66,-87.57 1085.77,-77.04 940.91,-74.09"/>
<polygon fill="#63b8ff" stroke="#63b8ff" points="941.16,-70.6 931.09,-73.9 941.02,-77.6 941.16,-70.6"/>
</a>
</g>
</g>
<!-- Node20&#45;&gt;Node16 -->
<g id="edge29_Node000020_Node000016" class="edge">
<title>Node20&#45;&gt;Node16</title>
<g id="a_edge29_Node000020_Node000016"><a xlink:title=" ">
<path fill="none" stroke="#63b8ff" d="M1753.16,-123.5C1710.82,-104.38 1634.74,-72.4 1566.25,-56 1439.98,-25.76 1286.88,-15.78 1208.32,-12.53"/>
<polygon fill="#63b8ff" stroke="#63b8ff" points="1208.92,-9.06 1198.79,-12.16 1208.65,-16.05 1208.92,-9.06"/>
</a>
</g>
</g>
<!-- Node21&#45;&gt;Node11 -->
<g id="edge34_Node000021_Node000011" class="edge">
<title>Node21&#45;&gt;Node11</title>
<g id="a_edge34_Node000021_Node000011"><a xlink:title=" ">
<path fill="none" stroke="#63b8ff" d="M1339.17,-125.44C1336.16,-124.93 1333.18,-124.45 1330.25,-124 1192.98,-102.88 1031.36,-87.03 940.86,-78.96"/>
<polygon fill="#63b8ff" stroke="#63b8ff" points="941.42,-75.5 931.15,-78.1 940.81,-82.47 941.42,-75.5"/>
</a>
</g>
</g>
<!-- Node21&#45;&gt;Node16 -->
<g id="edge33_Node000021_Node000016" class="edge">
<title>Node21&#45;&gt;Node16</title>
<g id="a_edge33_Node000021_Node000016"><a xlink:title=" ">
<path fill="none" stroke="#63b8ff" d="M1376.1,-123.56C1327.54,-98.7 1232.67,-50.13 1185.02,-25.73"/>
<polygon fill="#63b8ff" stroke="#63b8ff" points="1186.63,-22.62 1176.13,-21.18 1183.44,-28.85 1186.63,-22.62"/>
</a>
</g>
</g>
<!-- Node22 -->
<g id="Node000022" class="node">
<title>Node22</title>
<g id="a_Node000022"><a xlink:title=" ">
<polygon fill="#e0e0e0" stroke="#999999" points="1518.63,-82 1483.88,-82 1483.88,-62 1518.63,-62 1518.63,-82"/>
<text text-anchor="middle" x="1501.25" y="-68.5" font-family="Helvetica,sans-Serif" font-size="10.00">map</text>
</a>
</g>
</g>
<!-- Node21&#45;&gt;Node22 -->
<g id="edge32_Node000021_Node000022" class="edge">
<title>Node21&#45;&gt;Node22</title>
<g id="a_edge32_Node000021_Node000022"><a xlink:title=" ">
<path fill="none" stroke="#63b8ff" d="M1428.29,-123.69C1443.4,-113.2 1463.38,-99.31 1478.62,-88.73"/>
<polygon fill="#63b8ff" stroke="#63b8ff" points="1480.39,-91.76 1486.6,-83.18 1476.39,-86.01 1480.39,-91.76"/>
</a>
</g>
</g>
<!-- Node23&#45;&gt;Node11 -->
<g id="edge38_Node000023_Node000011" class="edge">
<title>Node23&#45;&gt;Node11</title>
<g id="a_edge38_Node000023_Node000011"><a xlink:title=" ">
<path fill="none" stroke="#63b8ff" d="M815.42,-129.54C823.82,-120.88 836.6,-107.7 847.71,-96.25"/>
<polygon fill="#63b8ff" stroke="#63b8ff" points="849.91,-99 854.36,-89.39 844.89,-94.13 849.91,-99"/>
</a>
</g>
</g>
<!-- Node23&#45;&gt;Node15 -->
<g id="edge36_Node000023_Node000015" class="edge">
<title>Node23&#45;&gt;Node15</title>
<g id="a_edge36_Node000023_Node000015"><a xlink:title=" ">
<path fill="none" stroke="#63b8ff" d="M793.02,-129.59C762.46,-107.86 686.72,-54 648.73,-26.98"/>
<polygon fill="#63b8ff" stroke="#63b8ff" points="650.92,-24.25 640.74,-21.3 646.86,-29.95 650.92,-24.25"/>
</a>
</g>
</g>
<!-- Node23&#45;&gt;Node16 -->
<g id="edge37_Node000023_Node000016" class="edge">
<title>Node23&#45;&gt;Node16</title>
<g id="a_edge37_Node000023_Node000016"><a xlink:title=" ">
<path fill="none" stroke="#63b8ff" d="M837.72,-129.52C865.15,-120.64 905.56,-106.04 938.25,-88 959.11,-76.49 959.76,-66.27 981.25,-56 1020.46,-37.27 1068.47,-25.63 1104.28,-18.9"/>
<polygon fill="#63b8ff" stroke="#63b8ff" points="1104.74,-22.37 1113.96,-17.15 1103.5,-15.48 1104.74,-22.37"/>
</a>
</g>
</g>
<!-- Node24&#45;&gt;Node2 -->
<g id="edge43_Node000024_Node000002" class="edge">
<title>Node24&#45;&gt;Node2</title>
<g id="a_edge43_Node000024_Node000002"><a xlink:title=" ">
<path fill="none" stroke="#63b8ff" d="M473.9,-123.56C451.66,-99.64 409,-53.75 385.6,-28.58"/>
<polygon fill="#63b8ff" stroke="#63b8ff" points="388.33,-26.38 378.96,-21.43 383.2,-31.14 388.33,-26.38"/>
</a>
</g>
</g>
<!-- Node24&#45;&gt;Node11 -->
<g id="edge44_Node000024_Node000011" class="edge">
<title>Node24&#45;&gt;Node11</title>
<g id="a_edge44_Node000024_Node000011"><a xlink:title=" ">
<path fill="none" stroke="#63b8ff" d="M547.55,-125.71C550.49,-125.12 553.4,-124.55 556.25,-124 639.54,-108.06 735.86,-92.9 799.63,-83.31"/>
<polygon fill="#63b8ff" stroke="#63b8ff" points="799.89,-86.81 809.26,-81.87 798.85,-79.89 799.89,-86.81"/>
</a>
</g>
</g>
<!-- Node24&#45;&gt;Node12 -->
<g id="edge42_Node000024_Node000012" class="edge">
<title>Node24&#45;&gt;Node12</title>
<g id="a_edge42_Node000024_Node000012"><a xlink:title=" ">
<path fill="none" stroke="#63b8ff" d="M515.27,-123.56C558.5,-98.86 642.71,-50.74 685.67,-26.19"/>
<polygon fill="#63b8ff" stroke="#63b8ff" points="687.39,-29.24 694.33,-21.24 683.92,-23.16 687.39,-29.24"/>
</a>
</g>
</g>
<!-- Node24&#45;&gt;Node13 -->
<g id="edge41_Node000024_Node000013" class="edge">
<title>Node24&#45;&gt;Node13</title>
<g id="a_edge41_Node000024_Node000013"><a xlink:title=" ">
<path fill="none" stroke="#63b8ff" d="M530.81,-123.61C557.07,-113.88 591.35,-100.78 621.25,-88 668.83,-67.67 722.93,-41.49 755.29,-25.49"/>
<polygon fill="#63b8ff" stroke="#63b8ff" points="756.64,-28.73 764.04,-21.15 753.52,-22.46 756.64,-28.73"/>
</a>
</g>
</g>
<!-- Node25&#45;&gt;Node10 -->
<g id="edge47_Node000025_Node000010" class="edge">
<title>Node25&#45;&gt;Node10</title>
<g id="a_edge47_Node000025_Node000010"><a xlink:title=" ">
<path fill="none" stroke="#63b8ff" d="M833.58,-259.58C840.82,-249.56 850.31,-236.16 858.25,-224 872.29,-202.51 887.35,-177.15 897.24,-160.17"/>
<polygon fill="#63b8ff" stroke="#63b8ff" points="900.18,-162.07 902.16,-151.66 894.13,-158.56 900.18,-162.07"/>
</a>
</g>
</g>
<!-- Node25&#45;&gt;Node15 -->
<g id="edge48_Node000025_Node000015" class="edge">
<title>Node25&#45;&gt;Node15</title>
<g id="a_edge48_Node000025_Node000015"><a xlink:title=" ">
<path fill="none" stroke="#63b8ff" d="M762.77,-267.81C719.33,-260.87 659.93,-247.78 612.25,-224 592.19,-213.99 593.35,-201.94 573.25,-192 510.63,-161.04 463.63,-210.76 420.25,-156 369.85,-92.36 500.84,-44.78 576.68,-23.42"/>
<polygon fill="#63b8ff" stroke="#63b8ff" points="577.27,-26.89 585.98,-20.86 575.41,-20.14 577.27,-26.89"/>
</a>
</g>
</g>
<!-- Node25&#45;&gt;Node16 -->
<g id="edge49_Node000025_Node000016" class="edge">
<title>Node25&#45;&gt;Node16</title>
<g id="a_edge49_Node000025_Node000016"><a xlink:title=" ">
<path fill="none" stroke="#63b8ff" d="M841.66,-259.67C900.21,-213.38 1074.85,-75.34 1135.35,-27.52"/>
<polygon fill="#63b8ff" stroke="#63b8ff" points="1137.49,-30.29 1143.16,-21.35 1133.15,-24.8 1137.49,-30.29"/>
</a>
</g>
</g>
<!-- Node25&#45;&gt;Node23 -->
<g id="edge50_Node000025_Node000023" class="edge">
<title>Node25&#45;&gt;Node23</title>
<g id="a_edge50_Node000025_Node000023"><a xlink:title=" ">
<path fill="none" stroke="#63b8ff" d="M809.36,-259.59C802.21,-250.01 794.01,-237.06 790.25,-224 784.12,-202.69 790.81,-177.61 797.31,-160.65"/>
<polygon fill="#63b8ff" stroke="#63b8ff" points="800.41,-162.31 801.04,-151.74 793.95,-159.61 800.41,-162.31"/>
</a>
</g>
</g>
<!-- Node25&#45;&gt;Node24 -->
<g id="edge51_Node000025_Node000024" class="edge">
<title>Node25&#45;&gt;Node24</title>
<g id="a_edge51_Node000025_Node000024"><a xlink:title=" ">
<path fill="none" stroke="#63b8ff" d="M783.94,-259.63C722.95,-235.16 603.84,-187.37 536.91,-160.52"/>
<polygon fill="#63b8ff" stroke="#63b8ff" points="538.62,-157.44 528.04,-156.96 536.02,-163.93 538.62,-157.44"/>
</a>
</g>
</g>
<!-- Node26 -->
<g id="Node000026" class="node">
<title>Node26</title>
<g id="a_Node000026"><a xlink:title=" ">
<polygon fill="#e0e0e0" stroke="#999999" points="849.13,-218 799.38,-218 799.38,-198 849.13,-198 849.13,-218"/>
<text text-anchor="middle" x="824.25" y="-204.5" font-family="Helvetica,sans-Serif" font-size="10.00">optional</text>
</a>
</g>
</g>
<!-- Node25&#45;&gt;Node26 -->
<g id="edge46_Node000025_Node000026" class="edge">
<title>Node25&#45;&gt;Node26</title>
<g id="a_edge46_Node000025_Node000026"><a xlink:title=" ">
<path fill="none" stroke="#63b8ff" d="M822.72,-259.69C822.99,-250.8 823.33,-239.46 823.63,-229.77"/>
<polygon fill="#63b8ff" stroke="#63b8ff" points="827.12,-229.93 823.93,-219.83 820.12,-229.72 827.12,-229.93"/>
</a>
</g>
</g>
<!-- Node25&#45;&gt;Node27 -->
<g id="edge52_Node000025_Node000027" class="edge">
<title>Node25&#45;&gt;Node27</title>
<g id="a_edge52_Node000025_Node000027"><a xlink:title=" ">
<path fill="none" stroke="#63b8ff" d="M881.68,-261.88C930,-251.22 998.32,-236.14 1049.65,-224.81"/>
<polygon fill="#63b8ff" stroke="#63b8ff" points="1050.17,-228.28 1059.18,-222.7 1048.66,-221.44 1050.17,-228.28"/>
</a>
</g>
</g>
<!-- Node27&#45;&gt;Node10 -->
<g id="edge55_Node000027_Node000010" class="edge">
<title>Node27&#45;&gt;Node10</title>
<g id="a_edge55_Node000027_Node000010"><a xlink:title=" ">
<path fill="none" stroke="#63b8ff" d="M1071.32,-191.53C1030.88,-179 975.13,-161.72 940.41,-150.96"/>
<polygon fill="#63b8ff" stroke="#63b8ff" points="941.53,-147.65 930.94,-148.03 939.45,-154.33 941.53,-147.65"/>
</a>
</g>
</g>
<!-- Node27&#45;&gt;Node11 -->
<g id="edge57_Node000027_Node000011" class="edge">
<title>Node27&#45;&gt;Node11</title>
<g id="a_edge57_Node000027_Node000011"><a xlink:title=" ">
<path fill="none" stroke="#63b8ff" d="M1111.66,-191.77C1099.1,-173.07 1075.36,-141.68 1047.25,-124 1015.01,-103.72 974.46,-91.27 940.3,-83.75"/>
<polygon fill="#63b8ff" stroke="#63b8ff" points="941.45,-80.42 930.94,-81.79 940.01,-87.27 941.45,-80.42"/>
</a>
</g>
</g>
<!-- Node27&#45;&gt;Node16 -->
<g id="edge56_Node000027_Node000016" class="edge">
<title>Node27&#45;&gt;Node16</title>
<g id="a_edge56_Node000027_Node000016"><a xlink:title=" ">
<path fill="none" stroke="#63b8ff" d="M1121.82,-191.61C1122.61,-174.88 1124.39,-147.4 1128.25,-124 1133.7,-91.02 1143.79,-53.49 1150.26,-31.06"/>
<polygon fill="#63b8ff" stroke="#63b8ff" points="1153.54,-32.3 1153,-21.72 1146.82,-30.33 1153.54,-32.3"/>
</a>
</g>
</g>
<!-- Node27&#45;&gt;Node21 -->
<g id="edge58_Node000027_Node000021" class="edge">
<title>Node27&#45;&gt;Node21</title>
<g id="a_edge58_Node000027_Node000021"><a xlink:title=" ">
<path fill="none" stroke="#63b8ff" d="M1181.7,-193C1224.41,-183.11 1282.06,-169.76 1328.25,-159.06"/>
<polygon fill="#63b8ff" stroke="#63b8ff" points="1329,-162.48 1337.95,-156.82 1327.42,-155.66 1329,-162.48"/>
</a>
</g>
</g>
<!-- Node27&#45;&gt;Node22 -->
<g id="edge54_Node000027_Node000022" class="edge">
<title>Node27&#45;&gt;Node22</title>
<g id="a_edge54_Node000027_Node000022"><a xlink:title=" ">
<path fill="none" stroke="#63b8ff" d="M1181.8,-206.49C1273.01,-204.43 1439.55,-195.24 1482.25,-156 1499.32,-140.32 1502.61,-112.73 1502.6,-93.68"/>
<polygon fill="#63b8ff" stroke="#63b8ff" points="1506.1,-93.75 1502.26,-83.88 1499.1,-94 1506.1,-93.75"/>
</a>
</g>
</g>
<!-- Node28 -->
<g id="Node000028" class="node">
<title>Node28</title>
<g id="a_Node000028"><a xlink:title=" ">
<polygon fill="#e0e0e0" stroke="#999999" points="1177.25,-150 1137.25,-150 1137.25,-130 1177.25,-130 1177.25,-150"/>
<text text-anchor="middle" x="1157.25" y="-136.5" font-family="Helvetica,sans-Serif" font-size="10.00">string</text>
</a>
</g>
</g>
<!-- Node27&#45;&gt;Node28 -->
<g id="edge53_Node000027_Node000028" class="edge">
<title>Node27&#45;&gt;Node28</title>
<g id="a_edge53_Node000027_Node000028"><a xlink:title=" ">
<path fill="none" stroke="#63b8ff" d="M1129.6,-191.69C1134.73,-182.3 1141.34,-170.18 1146.81,-160.15"/>
<polygon fill="#63b8ff" stroke="#63b8ff" points="1149.73,-162.1 1151.45,-151.64 1143.59,-158.75 1149.73,-162.1"/>
</a>
</g>
</g>
<!-- Node29&#45;&gt;Node11 -->
<g id="edge67_Node000029_Node000011" class="edge">
<title>Node29&#45;&gt;Node11</title>
<g id="a_edge67_Node000029_Node000011"><a xlink:title=" ">
<path fill="none" stroke="#63b8ff" d="M1150.06,-264.26C1118.99,-256.62 1081.43,-244.04 1052.25,-224 1005.12,-191.61 1015.77,-159.91 971.25,-124 956.06,-111.74 937.44,-101.32 920.35,-93.15"/>
<polygon fill="#63b8ff" stroke="#63b8ff" points="921.87,-89.99 911.32,-88.99 918.94,-96.35 921.87,-89.99"/>
</a>
</g>
</g>
<!-- Node29&#45;&gt;Node16 -->
<g id="edge62_Node000029_Node000016" class="edge">
<title>Node29&#45;&gt;Node16</title>
<g id="a_edge62_Node000029_Node000016"><a xlink:title=" ">
<path fill="none" stroke="#63b8ff" d="M1268.59,-271.8C1442.79,-261.25 1936.03,-222.39 1862.25,-124 1783.96,-19.59 1357.98,-10.46 1208.29,-10.53"/>
<polygon fill="#63b8ff" stroke="#63b8ff" points="1208.67,-7.03 1198.68,-10.55 1208.69,-14.03 1208.67,-7.03"/>
</a>
</g>
</g>
<!-- Node29&#45;&gt;Node21 -->
<g id="edge63_Node000029_Node000021" class="edge">
<title>Node29&#45;&gt;Node21</title>
<g id="a_edge63_Node000029_Node000021"><a xlink:title=" ">
<path fill="none" stroke="#63b8ff" d="M1231.85,-259.63C1266.87,-235.81 1334.34,-189.91 1374.32,-162.72"/>
<polygon fill="#63b8ff" stroke="#63b8ff" points="1376.07,-165.77 1382.37,-157.25 1372.13,-159.98 1376.07,-165.77"/>
</a>
</g>
</g>
<!-- Node29&#45;&gt;Node22 -->
<g id="edge61_Node000029_Node000022" class="edge">
<title>Node29&#45;&gt;Node22</title>
<g id="a_edge61_Node000029_Node000022"><a xlink:title=" ">
<path fill="none" stroke="#63b8ff" d="M1268.67,-270.12C1338.55,-260.84 1451.66,-233.93 1504.25,-156 1516.64,-137.65 1513.09,-111.45 1508.26,-93.42"/>
<polygon fill="#63b8ff" stroke="#63b8ff" points="1511.62,-92.42 1505.34,-83.89 1504.92,-94.47 1511.62,-92.42"/>
</a>
</g>
</g>
<!-- Node29&#45;&gt;Node24 -->
<g id="edge68_Node000029_Node000024" class="edge">
<title>Node29&#45;&gt;Node24</title>
<g id="a_edge68_Node000029_Node000024"><a xlink:title=" ">
<path fill="none" stroke="#63b8ff" d="M1152.82,-259.56C1083.82,-241.17 963.23,-210.61 858.25,-192 728.67,-169.03 691.47,-178.07 558.54,-156.27"/>
<polygon fill="#63b8ff" stroke="#63b8ff" points="559.46,-152.88 549.02,-154.68 558.3,-159.78 559.46,-152.88"/>
</a>
</g>
</g>
<!-- Node29&#45;&gt;Node27 -->
<g id="edge69_Node000029_Node000027" class="edge">
<title>Node29&#45;&gt;Node27</title>
<g id="a_edge69_Node000029_Node000027"><a xlink:title=" ">
<path fill="none" stroke="#63b8ff" d="M1188.84,-259.69C1177.6,-251.26 1163.43,-240.63 1150.97,-231.29"/>
<polygon fill="#63b8ff" stroke="#63b8ff" points="1153.17,-228.56 1143.07,-225.36 1148.97,-234.16 1153.17,-228.56"/>
</a>
</g>
</g>
<!-- Node29&#45;&gt;Node28 -->
<g id="edge60_Node000029_Node000028" class="edge">
<title>Node29&#45;&gt;Node28</title>
<g id="a_edge60_Node000029_Node000028"><a xlink:title=" ">
<path fill="none" stroke="#63b8ff" d="M1207.36,-259.51C1204.89,-242.45 1199.75,-214.47 1190.25,-192 1185.37,-180.44 1177.9,-168.61 1171.3,-159.26"/>
<polygon fill="#63b8ff" stroke="#63b8ff" points="1174.29,-157.41 1165.54,-151.43 1168.65,-161.56 1174.29,-157.41"/>
</a>
</g>
</g>
<!-- Node30 -->
<g id="Node000030" class="node">
<title>Node30</title>
<g id="a_Node000030"><a xlink:href="debug_8h.html" target="_top" xlink:title=" ">
<polygon fill="white" stroke="#666666" points="1321,-150 1195.5,-150 1195.5,-130 1321,-130 1321,-150"/>
<text text-anchor="middle" x="1258.25" y="-136.5" font-family="Helvetica,sans-Serif" font-size="10.00">renderer_internal/debug.h</text>
</a>
</g>
</g>
<!-- Node29&#45;&gt;Node30 -->
<g id="edge64_Node000029_Node000030" class="edge">
<title>Node29&#45;&gt;Node30</title>
<g id="a_edge64_Node000029_Node000030"><a xlink:title=" ">
<path fill="none" stroke="#63b8ff" d="M1214.88,-259.63C1223.77,-235.31 1241.09,-187.95 1250.94,-161.01"/>
<polygon fill="#63b8ff" stroke="#63b8ff" points="1254.21,-162.24 1254.36,-151.65 1247.64,-159.83 1254.21,-162.24"/>
</a>
</g>
</g>
<!-- Node30&#45;&gt;Node11 -->
<g id="edge66_Node000030_Node000011" class="edge">
<title>Node30&#45;&gt;Node11</title>
<g id="a_edge66_Node000030_Node000011"><a xlink:title=" ">
<path fill="none" stroke="#63b8ff" d="M1214.53,-129.56C1205.21,-127.64 1195.42,-125.69 1186.25,-124 1102.1,-108.45 1004.84,-93.15 940.69,-83.43"/>
<polygon fill="#63b8ff" stroke="#63b8ff" points="941.41,-80 931,-81.97 940.37,-86.92 941.41,-80"/>
</a>
</g>
</g>
<!-- Node30&#45;&gt;Node16 -->
<g id="edge65_Node000030_Node000016" class="edge">
<title>Node30&#45;&gt;Node16</title>
<g id="a_edge65_Node000030_Node000016"><a xlink:title=" ">
<path fill="none" stroke="#63b8ff" d="M1250.92,-129.79C1234.17,-108.77 1192.84,-56.91 1170.74,-29.18"/>
<polygon fill="#63b8ff" stroke="#63b8ff" points="1173.71,-27.29 1164.74,-21.65 1168.24,-31.65 1173.71,-27.29"/>
</a>
</g>
</g>
<!-- Node31&#45;&gt;Node11 -->
<g id="edge72_Node000031_Node000011" class="edge">
<title>Node31&#45;&gt;Node11</title>
<g id="a_edge72_Node000031_Node000011"><a xlink:title=" ">
<path fill="none" stroke="#63b8ff" d="M1566.93,-132.13C1540.54,-129.5 1509.98,-126.52 1482.25,-124 1286.19,-106.16 1054.55,-87.52 940.67,-78.52"/>
<polygon fill="#63b8ff" stroke="#63b8ff" points="941.11,-75.04 930.87,-77.74 940.56,-82.02 941.11,-75.04"/>
</a>
</g>
</g>
<!-- Node31&#45;&gt;Node16 -->
<g id="edge71_Node000031_Node000016" class="edge">
<title>Node31&#45;&gt;Node16</title>
<g id="a_edge71_Node000031_Node000016"><a xlink:title=" ">
<path fill="none" stroke="#63b8ff" d="M1625.63,-129.53C1608.72,-111.67 1569.22,-73.26 1527.25,-56 1470.76,-32.76 1296.66,-19.36 1208.52,-13.9"/>
<polygon fill="#63b8ff" stroke="#63b8ff" points="1208.89,-10.42 1198.7,-13.31 1208.47,-17.41 1208.89,-10.42"/>
</a>
</g>
</g>
</g>
</svg>
