<?xml version="1.0" encoding="UTF-8" standalone="no"?>
<!DOCTYPE svg PUBLIC "-//W3C//DTD SVG 1.1//EN"
 "http://www.w3.org/Graphics/SVG/1.1/DTD/svg11.dtd">
<!-- Generated by graphviz version 10.0.1 (20240210.2158)
 -->
<!-- Title: Graphical Class Hierarchy Pages: 1 -->
<svg width="464pt" height="142pt"
 viewBox="0.00 0.00 464.00 142.00" xmlns="http://www.w3.org/2000/svg" xmlns:xlink="http://www.w3.org/1999/xlink">
<g id="graph0" class="graph" transform="scale(1 1) rotate(0) translate(4 138)">
<title>Graphical Class Hierarchy</title>
<!-- Node0 -->
<g id="Node000000" class="node">
<title>Node0</title>
<g id="a_Node000000"><a xlink:href="classhri_1_1_i_render_subsystem.html" target="_top" xlink:title="A Render Subsystem manages a render pipeline, layout, and subsystem descriptors. A Render Subsystem b...">
<polygon fill="white" stroke="#666666" points="115,-77 0,-77 0,-57 115,-57 115,-77"/>
<text text-anchor="middle" x="57.5" y="-63.5" font-family="Helvetica,sans-Serif" font-size="10.00">hri::IRenderSubsystem</text>
</a>
</g>
</g>
<!-- Node1 -->
<g id="Node000001" class="node">
<title>Node1</title>
<g id="a_Node000001"><a xlink:href="class_g_buffer_layout_subsystem.html" target="_top" xlink:title="The GBuffer Layout Subsystem handles drawing a scene and storing the resulting geometry data (depth,...">
<polygon fill="white" stroke="#666666" points="278,-134 151,-134 151,-114 278,-114 278,-134"/>
<text text-anchor="middle" x="214.5" y="-120.5" font-family="Helvetica,sans-Serif" font-size="10.00">GBufferLayoutSubsystem</text>
</a>
</g>
</g>
<!-- Node0&#45;&gt;Node1 -->
<g id="edge3_Node000000_Node000001" class="edge">
<title>Node0&#45;&gt;Node1</title>
<g id="a_edge3_Node000000_Node000001"><a xlink:title=" ">
<path fill="none" stroke="#63b8ff" d="M92.43,-81.84C109.8,-89.21 131.36,-98 151,-105 159.33,-107.97 168.39,-110.89 176.96,-113.53"/>
<polygon fill="#63b8ff" stroke="#63b8ff" points="94.18,-78.78 83.61,-78.06 91.42,-85.22 94.18,-78.78"/>
</a>
</g>
</g>
<!-- Node2 -->
<g id="Node000002" class="node">
<title>Node2</title>
<g id="a_Node000002"><a xlink:href="class_i_ray_tracing_sub_system.html" target="_top" xlink:title=" ">
<polygon fill="white" stroke="#666666" points="273.5,-96 155.5,-96 155.5,-76 273.5,-76 273.5,-96"/>
<text text-anchor="middle" x="214.5" y="-82.5" font-family="Helvetica,sans-Serif" font-size="10.00">IRayTracingSubSystem</text>
</a>
</g>
</g>
<!-- Node0&#45;&gt;Node2 -->
<g id="edge4_Node000000_Node000002" class="edge">
<title>Node0&#45;&gt;Node2</title>
<g id="a_edge4_Node000000_Node000002"><a xlink:title=" ">
<path fill="none" stroke="#63b8ff" d="M126.74,-75.37C136.21,-76.53 145.85,-77.71 155.11,-78.84"/>
<polygon fill="#63b8ff" stroke="#63b8ff" points="127.19,-71.89 116.84,-74.15 126.34,-78.84 127.19,-71.89"/>
</a>
</g>
</g>
<!-- Node4 -->
<g id="Node000004" class="node">
<title>Node4</title>
<g id="a_Node000004"><a xlink:href="class_presentation_subsystem.html" target="_top" xlink:title="The Presentation Subsystem handles drawing offscreen render results to a swap image.">
<polygon fill="white" stroke="#666666" points="274.62,-58 154.38,-58 154.38,-38 274.62,-38 274.62,-58"/>
<text text-anchor="middle" x="214.5" y="-44.5" font-family="Helvetica,sans-Serif" font-size="10.00">PresentationSubsystem</text>
</a>
</g>
</g>
<!-- Node0&#45;&gt;Node4 -->
<g id="edge6_Node000000_Node000004" class="edge">
<title>Node0&#45;&gt;Node4</title>
<g id="a_edge6_Node000000_Node000004"><a xlink:title=" ">
<path fill="none" stroke="#63b8ff" d="M126.74,-58.64C135.85,-57.52 145.13,-56.38 154.07,-55.29"/>
<polygon fill="#63b8ff" stroke="#63b8ff" points="126.34,-55.16 116.84,-59.85 127.19,-62.11 126.34,-55.16"/>
</a>
</g>
</g>
<!-- Node5 -->
<g id="Node000005" class="node">
<title>Node5</title>
<g id="a_Node000005"><a xlink:href="class_u_i_subsystem.html" target="_top" xlink:title="The UI Subsystem handles drawing an UI overlay to the swap render pass.">
<polygon fill="white" stroke="#666666" points="251.75,-20 177.25,-20 177.25,0 251.75,0 251.75,-20"/>
<text text-anchor="middle" x="214.5" y="-6.5" font-family="Helvetica,sans-Serif" font-size="10.00">UISubsystem</text>
</a>
</g>
</g>
<!-- Node0&#45;&gt;Node5 -->
<g id="edge7_Node000000_Node000005" class="edge">
<title>Node0&#45;&gt;Node5</title>
<g id="a_edge7_Node000000_Node000005"><a xlink:title=" ">
<path fill="none" stroke="#63b8ff" d="M92.43,-52.16C109.8,-44.79 131.36,-36 151,-29 159.33,-26.03 168.39,-23.11 176.96,-20.47"/>
<polygon fill="#63b8ff" stroke="#63b8ff" points="91.42,-48.78 83.61,-55.94 94.18,-55.22 91.42,-48.78"/>
</a>
</g>
</g>
<!-- Node3 -->
<g id="Node000003" class="node">
<title>Node3</title>
<g id="a_Node000003"><a xlink:href="class_hybrid_ray_tracing_subsystem.html" target="_top" xlink:title=" ">
<polygon fill="white" stroke="#666666" points="456,-96 314,-96 314,-76 456,-76 456,-96"/>
<text text-anchor="middle" x="385" y="-82.5" font-family="Helvetica,sans-Serif" font-size="10.00">HybridRayTracingSubsystem</text>
</a>
</g>
</g>
<!-- Node2&#45;&gt;Node3 -->
<g id="edge5_Node000002_Node000003" class="edge">
<title>Node2&#45;&gt;Node3</title>
<g id="a_edge5_Node000002_Node000003"><a xlink:title=" ">
<path fill="none" stroke="#63b8ff" d="M285.28,-86C294.68,-86 304.34,-86 313.75,-86"/>
<polygon fill="#63b8ff" stroke="#63b8ff" points="285.47,-82.5 275.47,-86 285.47,-89.5 285.47,-82.5"/>
</a>
</g>
</g>
</g>
</svg>
