<?xml version="1.0" encoding="UTF-8" standalone="no"?>
<!DOCTYPE svg PUBLIC "-//W3C//DTD SVG 1.1//EN"
 "http://www.w3.org/Graphics/SVG/1.1/DTD/svg11.dtd">
<!-- Generated by graphviz version 10.0.1 (20240210.2158)
 -->
<!-- Title: Graphical Class Hierarchy Pages: 1 -->
<svg width="286pt" height="66pt"
 viewBox="0.00 0.00 286.00 66.00" xmlns="http://www.w3.org/2000/svg" xmlns:xlink="http://www.w3.org/1999/xlink">
<g id="graph0" class="graph" transform="scale(1 1) rotate(0) translate(4 62)">
<title>Graphical Class Hierarchy</title>
<!-- Node0 -->
<g id="Node000000" class="node">
<title>Node0</title>
<g id="a_Node000000"><a xlink:href="classhri_1_1_i_render_subsystem.html" target="_top" xlink:title="A Render Subsystem manages a render pipeline, layout, and subsystem descriptors. A Render Subsystem b...">
<polygon fill="white" stroke="#666666" points="115,-39 0,-39 0,-19 115,-19 115,-39"/>
<text text-anchor="middle" x="57.5" y="-25.5" font-family="Helvetica,sans-Serif" font-size="10.00">hri::IRenderSubsystem</text>
</a>
</g>
</g>
<!-- Node1 -->
<g id="Node000001" class="node">
<title>Node1</title>
<g id="a_Node000001"><a xlink:href="class_g_buffer_layout_subsystem.html" target="_top" xlink:title=" ">
<polygon fill="white" stroke="#666666" points="278,-58 151,-58 151,-38 278,-38 278,-58"/>
<text text-anchor="middle" x="214.5" y="-44.5" font-family="Helvetica,sans-Serif" font-size="10.00">GBufferLayoutSubsystem</text>
</a>
</g>
</g>
<!-- Node0&#45;&gt;Node1 -->
<g id="edge3_Node000000_Node000001" class="edge">
<title>Node0&#45;&gt;Node1</title>
<g id="a_edge3_Node000000_Node000001"><a xlink:title=" ">
<path fill="none" stroke="#63b8ff" d="M126.54,-37.34C134.56,-38.32 142.71,-39.32 150.66,-40.3"/>
<polygon fill="#63b8ff" stroke="#63b8ff" points="127.19,-33.89 116.84,-36.15 126.34,-40.84 127.19,-33.89"/>
</a>
</g>
</g>
<!-- Node2 -->
<g id="Node000002" class="node">
<title>Node2</title>
<g id="a_Node000002"><a xlink:href="class_presentation_subsystem.html" target="_top" xlink:title=" ">
<polygon fill="white" stroke="#666666" points="274.62,-20 154.38,-20 154.38,0 274.62,0 274.62,-20"/>
<text text-anchor="middle" x="214.5" y="-6.5" font-family="Helvetica,sans-Serif" font-size="10.00">PresentationSubsystem</text>
</a>
</g>
</g>
<!-- Node0&#45;&gt;Node2 -->
<g id="edge4_Node000000_Node000002" class="edge">
<title>Node0&#45;&gt;Node2</title>
<g id="a_edge4_Node000000_Node000002"><a xlink:title=" ">
<path fill="none" stroke="#63b8ff" d="M126.74,-20.64C135.85,-19.52 145.13,-18.38 154.07,-17.29"/>
<polygon fill="#63b8ff" stroke="#63b8ff" points="126.34,-17.16 116.84,-21.85 127.19,-24.11 126.34,-17.16"/>
</a>
</g>
</g>
</g>
</svg>
