<?xml version="1.0" encoding="UTF-8" standalone="no"?>
<!DOCTYPE svg PUBLIC "-//W3C//DTD SVG 1.1//EN"
 "http://www.w3.org/Graphics/SVG/1.1/DTD/svg11.dtd">
<!-- Generated by graphviz version 10.0.1 (20240210.2158)
 -->
<!-- Title: Graphical Class Hierarchy Pages: 1 -->
<svg width="286pt" height="104pt"
 viewBox="0.00 0.00 286.00 104.00" xmlns="http://www.w3.org/2000/svg" xmlns:xlink="http://www.w3.org/1999/xlink">
<g id="graph0" class="graph" transform="scale(1 1) rotate(0) translate(4 100)">
<title>Graphical Class Hierarchy</title>
<!-- Node0 -->
<g id="Node000000" class="node">
<title>Node0</title>
<g id="a_Node000000"><a xlink:href="classhri_1_1_i_render_subsystem.html" target="_top" xlink:title="A Render Subsystem manages a render pipeline, layout, and subsystem descriptors. A Render Subsystem b...">
<polygon fill="white" stroke="#666666" points="115,-58 0,-58 0,-38 115,-38 115,-58"/>
<text text-anchor="middle" x="57.5" y="-44.5" font-family="Helvetica,sans-Serif" font-size="10.00">hri::IRenderSubsystem</text>
</a>
</g>
</g>
<!-- Node1 -->
<g id="Node000001" class="node">
<title>Node1</title>
<g id="a_Node000001"><a xlink:href="class_g_buffer_layout_subsystem.html" target="_top" xlink:title=" ">
<polygon fill="white" stroke="#666666" points="278,-96 151,-96 151,-76 278,-76 278,-96"/>
<text text-anchor="middle" x="214.5" y="-82.5" font-family="Helvetica,sans-Serif" font-size="10.00">GBufferLayoutSubsystem</text>
</a>
</g>
</g>
<!-- Node0&#45;&gt;Node1 -->
<g id="edge3_Node000000_Node000001" class="edge">
<title>Node0&#45;&gt;Node1</title>
<g id="a_edge3_Node000000_Node000001"><a xlink:title=" ">
<path fill="none" stroke="#63b8ff" d="M112.27,-61.18C131.44,-65.88 152.76,-71.11 170.87,-75.55"/>
<polygon fill="#63b8ff" stroke="#63b8ff" points="113.28,-57.83 102.73,-58.84 111.61,-64.63 113.28,-57.83"/>
</a>
</g>
</g>
<!-- Node2 -->
<g id="Node000002" class="node">
<title>Node2</title>
<g id="a_Node000002"><a xlink:href="class_presentation_subsystem.html" target="_top" xlink:title=" ">
<polygon fill="white" stroke="#666666" points="274.62,-58 154.38,-58 154.38,-38 274.62,-38 274.62,-58"/>
<text text-anchor="middle" x="214.5" y="-44.5" font-family="Helvetica,sans-Serif" font-size="10.00">PresentationSubsystem</text>
</a>
</g>
</g>
<!-- Node0&#45;&gt;Node2 -->
<g id="edge4_Node000000_Node000002" class="edge">
<title>Node0&#45;&gt;Node2</title>
<g id="a_edge4_Node000000_Node000002"><a xlink:title=" ">
<path fill="none" stroke="#63b8ff" d="M126.74,-48C135.85,-48 145.13,-48 154.07,-48"/>
<polygon fill="#63b8ff" stroke="#63b8ff" points="126.85,-44.5 116.85,-48 126.85,-51.5 126.85,-44.5"/>
</a>
</g>
</g>
<!-- Node3 -->
<g id="Node000003" class="node">
<title>Node3</title>
<g id="a_Node000003"><a xlink:href="class_u_i_subsystem.html" target="_top" xlink:title=" ">
<polygon fill="white" stroke="#666666" points="251.75,-20 177.25,-20 177.25,0 251.75,0 251.75,-20"/>
<text text-anchor="middle" x="214.5" y="-6.5" font-family="Helvetica,sans-Serif" font-size="10.00">UISubsystem</text>
</a>
</g>
</g>
<!-- Node0&#45;&gt;Node3 -->
<g id="edge5_Node000000_Node000003" class="edge">
<title>Node0&#45;&gt;Node3</title>
<g id="a_edge5_Node000000_Node000003"><a xlink:title=" ">
<path fill="none" stroke="#63b8ff" d="M112.16,-34.84C133.54,-29.6 157.61,-23.7 176.92,-18.97"/>
<polygon fill="#63b8ff" stroke="#63b8ff" points="111.61,-31.37 102.73,-37.16 113.28,-38.17 111.61,-31.37"/>
</a>
</g>
</g>
</g>
</svg>
