<?xml version="1.0" encoding="UTF-8" standalone="no"?>
<!DOCTYPE svg PUBLIC "-//W3C//DTD SVG 1.1//EN"
 "http://www.w3.org/Graphics/SVG/1.1/DTD/svg11.dtd">
<!-- Generated by graphviz version 10.0.1 (20240210.2158)
 -->
<!-- Title: main Pages: 1 -->
<svg width="495pt" height="230pt"
 viewBox="0.00 0.00 495.00 230.00" xmlns="http://www.w3.org/2000/svg" xmlns:xlink="http://www.w3.org/1999/xlink">

<svg id="main" version="1.1" xmlns="http://www.w3.org/2000/svg" xmlns:xlink="http://www.w3.org/1999/xlink" xml:space="preserve" onload="init(evt)">
<style type="text/css"><![CDATA[
.node, .edge {opacity: 0.7;}
.node.selected, .edge.selected {opacity: 1;}
.edge:hover path { stroke: red; }
.edge:hover polygon { stroke: red; fill: red; }
]]></style>
<script type="application/ecmascript" xlink:href="svg.min.js"/>
<svg id="graph" class="graph">
<g id="graph0" class="graph" transform="scale(1 1) rotate(0) translate(4 226)">
<title>main</title>
<!-- Node1 -->
<g id="Node000001" class="node">
<title>Node1</title>
<g id="a_Node000001"><a xlink:title=" ">
<polygon fill="#999999" stroke="#666666" points="37,-115 0,-115 0,-95 37,-95 37,-115"/>
<text text-anchor="middle" x="18.5" y="-101.5" font-family="Helvetica,sans-Serif" font-size="10.00">main</text>
</a>
</g>
</g>
<!-- Node2 -->
<g id="Node000002" class="node">
<title>Node2</title>
<g id="a_Node000002"><a xlink:href="class_window_manager.html#a2f1e418183951bcd11d15577d802c226" target="_top" xlink:title="Create a Vulkan render surface.">
<polygon fill="white" stroke="#666666" points="224,-222 73,-222 73,-190 224,-190 224,-222"/>
<text text-anchor="start" x="81" y="-208.5" font-family="Helvetica,sans-Serif" font-size="10.00">WindowManager::createVulkan</text>
<text text-anchor="middle" x="148.5" y="-196.5" font-family="Helvetica,sans-Serif" font-size="10.00">Surface</text>
</a>
</g>
</g>
<!-- Node1&#45;&gt;Node2 -->
<g id="edge1_Node000001_Node000002" class="edge">
<title>Node1&#45;&gt;Node2</title>
<g id="a_edge1_Node000001_Node000002"><a xlink:title=" ">
<path fill="none" stroke="#63b8ff" d="M24.17,-115.44C31.97,-131.76 49.2,-163.26 73,-181 74.37,-182.02 75.78,-183 77.23,-183.94"/>
<polygon fill="#63b8ff" stroke="#63b8ff" points="75.49,-186.98 85.92,-188.86 78.94,-180.89 75.49,-186.98"/>
</a>
</g>
</g>
<!-- Node3 -->
<g id="Node000003" class="node">
<title>Node3</title>
<g id="a_Node000003"><a xlink:href="main_8cpp.html#a6ed8c43e9a995f8654e3c141c59a433f" target="_top" xlink:title=" ">
<polygon fill="white" stroke="#666666" points="197.38,-172 99.62,-172 99.62,-152 197.38,-152 197.38,-172"/>
<text text-anchor="middle" x="148.5" y="-158.5" font-family="Helvetica,sans-Serif" font-size="10.00">drawConfigWindow</text>
</a>
</g>
</g>
<!-- Node1&#45;&gt;Node3 -->
<g id="edge2_Node000001_Node000003" class="edge">
<title>Node1&#45;&gt;Node3</title>
<g id="a_edge2_Node000001_Node000003"><a xlink:title=" ">
<path fill="none" stroke="#63b8ff" d="M31.45,-115.46C41.79,-124.01 57.49,-135.82 73,-143 77.89,-145.26 83.09,-147.29 88.38,-149.09"/>
<polygon fill="#63b8ff" stroke="#63b8ff" points="87.27,-152.41 97.86,-152.03 89.35,-145.72 87.27,-152.41"/>
</a>
</g>
</g>
<!-- Node5 -->
<g id="Node000005" class="node">
<title>Node5</title>
<g id="a_Node000005"><a xlink:href="main_8cpp.html#a35afe9a22644f1030e0558cfe105d18b" target="_top" xlink:title=" ">
<polygon fill="white" stroke="#666666" points="198.12,-134 98.88,-134 98.88,-114 198.12,-114 198.12,-134"/>
<text text-anchor="middle" x="148.5" y="-120.5" font-family="Helvetica,sans-Serif" font-size="10.00">handleCameraInput</text>
</a>
</g>
</g>
<!-- Node1&#45;&gt;Node5 -->
<g id="edge4_Node000001_Node000005" class="edge">
<title>Node1&#45;&gt;Node5</title>
<g id="a_edge4_Node000001_Node000005"><a xlink:title=" ">
<path fill="none" stroke="#63b8ff" d="M37.3,-107.64C50.38,-109.58 68.98,-112.34 87.18,-115.05"/>
<polygon fill="#63b8ff" stroke="#63b8ff" points="86.51,-118.48 96.92,-116.49 87.54,-111.56 86.51,-118.48"/>
</a>
</g>
</g>
<!-- Node10 -->
<g id="Node000010" class="node">
<title>Node10</title>
<g id="a_Node000010"><a xlink:href="class_scene_loader.html#a84879154bf09270a6a9cb77dc602a006" target="_top" xlink:title="Load a new Scene File.">
<polygon fill="white" stroke="#666666" points="197,-96 100,-96 100,-76 197,-76 197,-96"/>
<text text-anchor="middle" x="148.5" y="-82.5" font-family="Helvetica,sans-Serif" font-size="10.00">SceneLoader::load</text>
</a>
</g>
</g>
<!-- Node1&#45;&gt;Node10 -->
<g id="edge9_Node000001_Node000010" class="edge">
<title>Node1&#45;&gt;Node10</title>
<g id="a_edge9_Node000001_Node000010"><a xlink:title=" ">
<path fill="none" stroke="#63b8ff" d="M37.3,-102.36C50.67,-100.37 69.81,-97.53 88.39,-94.77"/>
<polygon fill="#63b8ff" stroke="#63b8ff" points="88.66,-98.27 98.03,-93.34 87.63,-91.35 88.66,-98.27"/>
</a>
</g>
</g>
<!-- Node11 -->
<g id="Node000011" class="node">
<title>Node11</title>
<g id="a_Node000011"><a xlink:href="struct_timer.html#a6f4dc6b9e9f333fa4c60ddf2ff33c801" target="_top" xlink:title="Tick the timer, updating the frame delta.">
<polygon fill="white" stroke="#666666" points="179.38,-58 117.62,-58 117.62,-38 179.38,-38 179.38,-58"/>
<text text-anchor="middle" x="148.5" y="-44.5" font-family="Helvetica,sans-Serif" font-size="10.00">Timer::tick</text>
</a>
</g>
</g>
<!-- Node1&#45;&gt;Node11 -->
<g id="edge10_Node000001_Node000011" class="edge">
<title>Node1&#45;&gt;Node11</title>
<g id="a_edge10_Node000001_Node000011"><a xlink:title=" ">
<path fill="none" stroke="#63b8ff" d="M31.45,-94.54C41.79,-85.99 57.49,-74.18 73,-67 83.34,-62.21 95.06,-58.51 106.1,-55.69"/>
<polygon fill="#63b8ff" stroke="#63b8ff" points="106.86,-59.11 115.8,-53.42 105.26,-52.29 106.86,-59.11"/>
</a>
</g>
</g>
<!-- Node12 -->
<g id="Node000012" class="node">
<title>Node12</title>
<g id="a_Node000012"><a xlink:href="main_8cpp.html#a956b7aa129d341d6a686c5adff9d2106" target="_top" xlink:title=" ">
<polygon fill="white" stroke="#666666" points="206,-20 91,-20 91,0 206,0 206,-20"/>
<text text-anchor="middle" x="148.5" y="-6.5" font-family="Helvetica,sans-Serif" font-size="10.00">windowResizeCallback</text>
</a>
</g>
</g>
<!-- Node1&#45;&gt;Node12 -->
<g id="edge11_Node000001_Node000012" class="edge">
<title>Node1&#45;&gt;Node12</title>
<g id="a_edge11_Node000001_Node000012"><a xlink:title=" ">
<path fill="none" stroke="#63b8ff" d="M23.89,-94.61C31.43,-78.09 48.42,-45.94 73,-29 75.36,-27.38 77.84,-25.89 80.41,-24.53"/>
<polygon fill="#63b8ff" stroke="#63b8ff" points="81.65,-27.82 89.33,-20.52 78.77,-21.43 81.65,-27.82"/>
</a>
</g>
</g>
<!-- Node4 -->
<g id="Node000004" class="node">
<title>Node4</title>
<g id="a_Node000004"><a xlink:href="main_8cpp.html#afbfc00676f641e246c52c5d4e16ca9c0" target="_top" xlink:title=" ">
<polygon fill="white" stroke="#666666" points="396.75,-172 260,-172 260,-152 396.75,-152 396.75,-172"/>
<text text-anchor="middle" x="328.38" y="-158.5" font-family="Helvetica,sans-Serif" font-size="10.00">drawSceneGraphNodeMenu</text>
</a>
</g>
</g>
<!-- Node3&#45;&gt;Node4 -->
<g id="edge3_Node000003_Node000004" class="edge">
<title>Node3&#45;&gt;Node4</title>
<g id="a_edge3_Node000003_Node000004"><a xlink:title=" ">
<path fill="none" stroke="#63b8ff" d="M197.64,-162C213.25,-162 231.01,-162 248.26,-162"/>
<polygon fill="#63b8ff" stroke="#63b8ff" points="247.99,-165.5 257.99,-162 247.99,-158.5 247.99,-165.5"/>
</a>
</g>
</g>
<!-- Node6 -->
<g id="Node000006" class="node">
<title>Node6</title>
<g id="a_Node000006"><a xlink:href="namespacehri.html#ab81e99a2bbe92d4d1002b786d897d624" target="_top" xlink:title=" ">
<polygon fill="white" stroke="#666666" points="356.62,-134 300.12,-134 300.12,-114 356.62,-114 356.62,-134"/>
<text text-anchor="middle" x="328.38" y="-120.5" font-family="Helvetica,sans-Serif" font-size="10.00">hri::cross</text>
</a>
</g>
</g>
<!-- Node5&#45;&gt;Node6 -->
<g id="edge5_Node000005_Node000006" class="edge">
<title>Node5&#45;&gt;Node6</title>
<g id="a_edge5_Node000005_Node000006"><a xlink:title=" ">
<path fill="none" stroke="#63b8ff" d="M198.58,-124C226.84,-124 261.89,-124 288.28,-124"/>
<polygon fill="#63b8ff" stroke="#63b8ff" points="288.23,-127.5 298.23,-124 288.23,-120.5 288.23,-127.5"/>
</a>
</g>
</g>
<!-- Node7 -->
<g id="Node000007" class="node">
<title>Node7</title>
<g id="a_Node000007"><a xlink:href="namespacehri.html#ac37aa10e96e3d4f0775c3a659f16d490" target="_top" xlink:title=" ">
<polygon fill="white" stroke="#666666" points="365.62,-96 291.12,-96 291.12,-76 365.62,-76 365.62,-96"/>
<text text-anchor="middle" x="328.38" y="-82.5" font-family="Helvetica,sans-Serif" font-size="10.00">hri::normalize</text>
</a>
</g>
</g>
<!-- Node5&#45;&gt;Node7 -->
<g id="edge6_Node000005_Node000007" class="edge">
<title>Node5&#45;&gt;Node7</title>
<g id="a_edge6_Node000005_Node000007"><a xlink:title=" ">
<path fill="none" stroke="#63b8ff" d="M198.58,-113.52C223.9,-108.11 254.66,-101.53 279.77,-96.17"/>
<polygon fill="#63b8ff" stroke="#63b8ff" points="280.34,-99.63 289.39,-94.11 278.88,-92.78 280.34,-99.63"/>
</a>
</g>
</g>
<!-- Node8 -->
<g id="Node000008" class="node">
<title>Node8</title>
<g id="a_Node000008"><a xlink:href="namespacehri.html#a3f539220562b091be4c7e5409dd4c80e" target="_top" xlink:title=" ">
<polygon fill="white" stroke="#666666" points="482.88,-115 436.88,-115 436.88,-95 482.88,-95 482.88,-115"/>
<text text-anchor="middle" x="459.88" y="-101.5" font-family="Helvetica,sans-Serif" font-size="10.00">hri::dot</text>
</a>
</g>
</g>
<!-- Node7&#45;&gt;Node8 -->
<g id="edge7_Node000007_Node000008" class="edge">
<title>Node7&#45;&gt;Node8</title>
<g id="a_edge7_Node000007_Node000008"><a xlink:title=" ">
<path fill="none" stroke="#63b8ff" d="M365.79,-91.34C384.45,-94.08 407.01,-97.39 425.25,-100.07"/>
<polygon fill="#63b8ff" stroke="#63b8ff" points="424.63,-103.51 435.03,-101.5 425.65,-96.59 424.63,-103.51"/>
</a>
</g>
</g>
<!-- Node9 -->
<g id="Node000009" class="node">
<title>Node9</title>
<g id="a_Node000009"><a xlink:href="namespacehri.html#a80da0ea8cafbed379ba92a21796fe33c" target="_top" xlink:title="Simple inverse square root function.">
<polygon fill="white" stroke="#666666" points="487,-77 432.75,-77 432.75,-57 487,-57 487,-77"/>
<text text-anchor="middle" x="459.88" y="-63.5" font-family="Helvetica,sans-Serif" font-size="10.00">hri::rsqrtf</text>
</a>
</g>
</g>
<!-- Node7&#45;&gt;Node9 -->
<g id="edge8_Node000007_Node000009" class="edge">
<title>Node7&#45;&gt;Node9</title>
<g id="a_edge8_Node000007_Node000009"><a xlink:title=" ">
<path fill="none" stroke="#63b8ff" d="M365.79,-80.66C383.14,-78.11 403.86,-75.07 421.35,-72.51"/>
<polygon fill="#63b8ff" stroke="#63b8ff" points="421.7,-75.99 431.08,-71.08 420.68,-69.07 421.7,-75.99"/>
</a>
</g>
</g>
</g>
</svg>
</svg>

<style type='text/css'>
<![CDATA[
[data-mouse-over-selected='false'] { opacity: 0.7; }
[data-mouse-over-selected='true']  { opacity: 1.0; }
]]>
</style>
<script type="application/ecmascript"><![CDATA[
document.addEventListener('DOMContentLoaded', (event) => {
  highlightEdges();
  highlightAdjacentNodes();
});
]]></script>
</svg>
