<?xml version="1.0" encoding="UTF-8" standalone="no"?>
<!DOCTYPE svg PUBLIC "-//W3C//DTD SVG 1.1//EN"
 "http://www.w3.org/Graphics/SVG/1.1/DTD/svg11.dtd">
<!-- Generated by graphviz version 10.0.1 (20240210.2158)
 -->
<!-- Title: main Pages: 1 -->
<svg width="232pt" height="154pt"
 viewBox="0.00 0.00 232.00 154.00" xmlns="http://www.w3.org/2000/svg" xmlns:xlink="http://www.w3.org/1999/xlink">

<svg id="main" version="1.1" xmlns="http://www.w3.org/2000/svg" xmlns:xlink="http://www.w3.org/1999/xlink" xml:space="preserve" onload="init(evt)">
<style type="text/css"><![CDATA[
.node, .edge {opacity: 0.7;}
.node.selected, .edge.selected {opacity: 1;}
.edge:hover path { stroke: red; }
.edge:hover polygon { stroke: red; fill: red; }
]]></style>
<script type="application/ecmascript" xlink:href="svg.min.js"/>
<svg id="graph" class="graph">
<g id="graph0" class="graph" transform="scale(1 1) rotate(0) translate(4 150)">
<title>main</title>
<!-- Node1 -->
<g id="Node000001" class="node">
<title>Node1</title>
<g id="a_Node000001"><a xlink:title=" ">
<polygon fill="#999999" stroke="#666666" points="37,-77 0,-77 0,-57 37,-57 37,-77"/>
<text text-anchor="middle" x="18.5" y="-63.5" font-family="Helvetica,sans-Serif" font-size="10.00">main</text>
</a>
</g>
</g>
<!-- Node2 -->
<g id="Node000002" class="node">
<title>Node2</title>
<g id="a_Node000002"><a xlink:href="class_window_manager.html#a2f1e418183951bcd11d15577d802c226" target="_top" xlink:title="Create a Vulkan render surface.">
<polygon fill="white" stroke="#666666" points="224,-146 73,-146 73,-114 224,-114 224,-146"/>
<text text-anchor="start" x="81" y="-132.5" font-family="Helvetica,sans-Serif" font-size="10.00">WindowManager::createVulkan</text>
<text text-anchor="middle" x="148.5" y="-120.5" font-family="Helvetica,sans-Serif" font-size="10.00">Surface</text>
</a>
</g>
</g>
<!-- Node1&#45;&gt;Node2 -->
<g id="edge1_Node000001_Node000002" class="edge">
<title>Node1&#45;&gt;Node2</title>
<g id="a_edge1_Node000001_Node000002"><a xlink:title=" ">
<path fill="none" stroke="#63b8ff" d="M31.59,-77.16C42.02,-85.54 57.77,-97.25 73,-105 75.91,-106.48 78.92,-107.9 82,-109.26"/>
<polygon fill="#63b8ff" stroke="#63b8ff" points="80.64,-112.49 91.22,-113.07 83.32,-106.02 80.64,-112.49"/>
</a>
</g>
</g>
<!-- Node3 -->
<g id="Node000003" class="node">
<title>Node3</title>
<g id="a_Node000003"><a xlink:href="main_8cpp.html#a35e8d6288acc82b4b239080f7ec483a0" target="_top" xlink:title=" ">
<polygon fill="white" stroke="#666666" points="198.12,-96 98.88,-96 98.88,-76 198.12,-76 198.12,-96"/>
<text text-anchor="middle" x="148.5" y="-82.5" font-family="Helvetica,sans-Serif" font-size="10.00">drawStatusWindow</text>
</a>
</g>
</g>
<!-- Node1&#45;&gt;Node3 -->
<g id="edge2_Node000001_Node000003" class="edge">
<title>Node1&#45;&gt;Node3</title>
<g id="a_edge2_Node000001_Node000003"><a xlink:title=" ">
<path fill="none" stroke="#63b8ff" d="M37.3,-69.64C50.38,-71.58 68.98,-74.34 87.18,-77.05"/>
<polygon fill="#63b8ff" stroke="#63b8ff" points="86.51,-80.48 96.92,-78.49 87.54,-73.56 86.51,-80.48"/>
</a>
</g>
</g>
<!-- Node4 -->
<g id="Node000004" class="node">
<title>Node4</title>
<g id="a_Node000004"><a xlink:href="main_8cpp.html#a6145e48ac398693e05869a42ebe37db9" target="_top" xlink:title=" ">
<polygon fill="white" stroke="#666666" points="179.38,-58 117.62,-58 117.62,-38 179.38,-38 179.38,-58"/>
<text text-anchor="middle" x="148.5" y="-44.5" font-family="Helvetica,sans-Serif" font-size="10.00">loadScene</text>
</a>
</g>
</g>
<!-- Node1&#45;&gt;Node4 -->
<g id="edge3_Node000001_Node000004" class="edge">
<title>Node1&#45;&gt;Node4</title>
<g id="a_edge3_Node000001_Node000004"><a xlink:title=" ">
<path fill="none" stroke="#63b8ff" d="M37.3,-64.36C55.04,-61.72 82.94,-57.58 106.22,-54.13"/>
<polygon fill="#63b8ff" stroke="#63b8ff" points="106.69,-57.6 116.06,-52.67 105.66,-50.67 106.69,-57.6"/>
</a>
</g>
</g>
<!-- Node5 -->
<g id="Node000005" class="node">
<title>Node5</title>
<g id="a_Node000005"><a xlink:href="struct_timer.html#a6f4dc6b9e9f333fa4c60ddf2ff33c801" target="_top" xlink:title="Tick the timer, updating the frame delta.">
<polygon fill="white" stroke="#666666" points="179.38,-20 117.62,-20 117.62,0 179.38,0 179.38,-20"/>
<text text-anchor="middle" x="148.5" y="-6.5" font-family="Helvetica,sans-Serif" font-size="10.00">Timer::tick</text>
</a>
</g>
</g>
<!-- Node1&#45;&gt;Node5 -->
<g id="edge4_Node000001_Node000005" class="edge">
<title>Node1&#45;&gt;Node5</title>
<g id="a_edge4_Node000001_Node000005"><a xlink:title=" ">
<path fill="none" stroke="#63b8ff" d="M31.45,-56.54C41.79,-47.99 57.49,-36.18 73,-29 83.34,-24.21 95.06,-20.51 106.1,-17.69"/>
<polygon fill="#63b8ff" stroke="#63b8ff" points="106.86,-21.11 115.8,-15.42 105.26,-14.29 106.86,-21.11"/>
</a>
</g>
</g>
</g>
</svg>
</svg>

<style type='text/css'>
<![CDATA[
[data-mouse-over-selected='false'] { opacity: 0.7; }
[data-mouse-over-selected='true']  { opacity: 1.0; }
]]>
</style>
<script type="application/ecmascript"><![CDATA[
document.addEventListener('DOMContentLoaded', (event) => {
  highlightEdges();
  highlightAdjacentNodes();
});
]]></script>
</svg>
