<?xml version="1.0" encoding="UTF-8" standalone="no"?>
<!DOCTYPE svg PUBLIC "-//W3C//DTD SVG 1.1//EN"
 "http://www.w3.org/Graphics/SVG/1.1/DTD/svg11.dtd">
<!-- Generated by graphviz version 10.0.1 (20240210.2158)
 -->
<!-- Title: main Pages: 1 -->
<svg width="232pt" height="116pt"
 viewBox="0.00 0.00 232.00 116.00" xmlns="http://www.w3.org/2000/svg" xmlns:xlink="http://www.w3.org/1999/xlink">
<g id="graph0" class="graph" transform="scale(1 1) rotate(0) translate(4 112)">
<title>main</title>
<!-- Node1 -->
<g id="Node000001" class="node">
<title>Node1</title>
<g id="a_Node000001"><a xlink:title=" ">
<polygon fill="#999999" stroke="#666666" points="37,-58 0,-58 0,-38 37,-38 37,-58"/>
<text text-anchor="middle" x="18.5" y="-44.5" font-family="Helvetica,sans-Serif" font-size="10.00">main</text>
</a>
</g>
</g>
<!-- Node2 -->
<g id="Node000002" class="node">
<title>Node2</title>
<g id="a_Node000002"><a xlink:href="class_window_manager.html#a2f1e418183951bcd11d15577d802c226" target="_top" xlink:title="Create a Vulkan render surface.">
<polygon fill="white" stroke="#666666" points="224,-108 73,-108 73,-76 224,-76 224,-108"/>
<text text-anchor="start" x="81" y="-94.5" font-family="Helvetica,sans-Serif" font-size="10.00">WindowManager::createVulkan</text>
<text text-anchor="middle" x="148.5" y="-82.5" font-family="Helvetica,sans-Serif" font-size="10.00">Surface</text>
</a>
</g>
</g>
<!-- Node1&#45;&gt;Node2 -->
<g id="edge1_Node000001_Node000002" class="edge">
<title>Node1&#45;&gt;Node2</title>
<g id="a_edge1_Node000001_Node000002"><a xlink:title=" ">
<path fill="none" stroke="#63b8ff" d="M37.31,-54.41C47.7,-58.13 61.07,-62.88 73,-67 77.7,-68.62 82.57,-70.29 87.46,-71.95"/>
<polygon fill="#63b8ff" stroke="#63b8ff" points="86.14,-75.2 96.73,-75.1 88.39,-68.57 86.14,-75.2"/>
</a>
</g>
</g>
<!-- Node3 -->
<g id="Node000003" class="node">
<title>Node3</title>
<g id="a_Node000003"><a xlink:href="main_8cpp.html#a6145e48ac398693e05869a42ebe37db9" target="_top" xlink:title=" ">
<polygon fill="white" stroke="#666666" points="179.38,-58 117.62,-58 117.62,-38 179.38,-38 179.38,-58"/>
<text text-anchor="middle" x="148.5" y="-44.5" font-family="Helvetica,sans-Serif" font-size="10.00">loadScene</text>
</a>
</g>
</g>
<!-- Node1&#45;&gt;Node3 -->
<g id="edge2_Node000001_Node000003" class="edge">
<title>Node1&#45;&gt;Node3</title>
<g id="a_edge2_Node000001_Node000003"><a xlink:title=" ">
<path fill="none" stroke="#63b8ff" d="M37.3,-48C55.04,-48 82.94,-48 106.22,-48"/>
<polygon fill="#63b8ff" stroke="#63b8ff" points="106.05,-51.5 116.05,-48 106.05,-44.5 106.05,-51.5"/>
</a>
</g>
</g>
<!-- Node4 -->
<g id="Node000004" class="node">
<title>Node4</title>
<g id="a_Node000004"><a xlink:href="struct_timer.html#a6f4dc6b9e9f333fa4c60ddf2ff33c801" target="_top" xlink:title="Tick the timer, updating the frame delta.">
<polygon fill="white" stroke="#666666" points="179.38,-20 117.62,-20 117.62,0 179.38,0 179.38,-20"/>
<text text-anchor="middle" x="148.5" y="-6.5" font-family="Helvetica,sans-Serif" font-size="10.00">Timer::tick</text>
</a>
</g>
</g>
<!-- Node1&#45;&gt;Node4 -->
<g id="edge3_Node000001_Node000004" class="edge">
<title>Node1&#45;&gt;Node4</title>
<g id="a_edge3_Node000001_Node000004"><a xlink:title=" ">
<path fill="none" stroke="#63b8ff" d="M37.2,-41.26C47.56,-37.42 60.93,-32.67 73,-29 83.71,-25.74 95.4,-22.58 106.27,-19.8"/>
<polygon fill="#63b8ff" stroke="#63b8ff" points="106.92,-23.24 115.77,-17.42 105.22,-16.45 106.92,-23.24"/>
</a>
</g>
</g>
</g>
</svg>
