<?xml version="1.0" encoding="UTF-8" standalone="no"?>
<!DOCTYPE svg PUBLIC "-//W3C//DTD SVG 1.1//EN"
 "http://www.w3.org/Graphics/SVG/1.1/DTD/svg11.dtd">
<!-- Generated by graphviz version 10.0.1 (20240210.2158)
 -->
<!-- Title: main Pages: 1 -->
<svg width="364pt" height="292pt"
 viewBox="0.00 0.00 364.25 292.00" xmlns="http://www.w3.org/2000/svg" xmlns:xlink="http://www.w3.org/1999/xlink">
<g id="graph0" class="graph" transform="scale(1 1) rotate(0) translate(4 288)">
<title>main</title>
<!-- Node1 -->
<g id="Node000001" class="node">
<title>Node1</title>
<g id="a_Node000001"><a xlink:title=" ">
<polygon fill="#999999" stroke="#666666" points="37,-146 0,-146 0,-126 37,-126 37,-146"/>
<text text-anchor="middle" x="18.5" y="-132.5" font-family="Helvetica,sans-Serif" font-size="10.00">main</text>
</a>
</g>
</g>
<!-- Node2 -->
<g id="Node000002" class="node">
<title>Node2</title>
<g id="a_Node000002"><a xlink:href="classhri_1_1_render_pass_builder.html#a7ba503946915febe44ab3ceb5f341eb7" target="_top" xlink:title="Add a new attachment to the render pass.">
<polygon fill="white" stroke="#666666" points="213.5,-284 97.75,-284 97.75,-252 213.5,-252 213.5,-284"/>
<text text-anchor="start" x="105.75" y="-270.5" font-family="Helvetica,sans-Serif" font-size="10.00">hri::RenderPassBuilder</text>
<text text-anchor="middle" x="155.62" y="-258.5" font-family="Helvetica,sans-Serif" font-size="10.00">::addAttachment</text>
</a>
</g>
</g>
<!-- Node1&#45;&gt;Node2 -->
<g id="edge1_Node000001_Node000002" class="edge">
<title>Node1&#45;&gt;Node2</title>
<g id="a_edge1_Node000001_Node000002"><a xlink:title=" ">
<path fill="none" stroke="#63b8ff" d="M21.74,-146.22C26.92,-167.46 41.76,-216.57 73,-243 77.34,-246.67 82.22,-249.81 87.37,-252.48"/>
<polygon fill="#63b8ff" stroke="#63b8ff" points="85.62,-255.53 96.17,-256.46 88.5,-249.15 85.62,-255.53"/>
</a>
</g>
</g>
<!-- Node3 -->
<g id="Node000003" class="node">
<title>Node3</title>
<g id="a_Node000003"><a xlink:href="structhri_1_1_active_frame.html#a4a3c093f72eb04c992358080664336fa" target="_top" xlink:title=" ">
<polygon fill="white" stroke="#666666" points="238.25,-234 73,-234 73,-214 238.25,-214 238.25,-234"/>
<text text-anchor="middle" x="155.62" y="-220.5" font-family="Helvetica,sans-Serif" font-size="10.00">hri::ActiveFrame::beginCommands</text>
</a>
</g>
</g>
<!-- Node1&#45;&gt;Node3 -->
<g id="edge2_Node000001_Node000003" class="edge">
<title>Node1&#45;&gt;Node3</title>
<g id="a_edge2_Node000001_Node000003"><a xlink:title=" ">
<path fill="none" stroke="#63b8ff" d="M24.64,-146.48C32.72,-161.83 49.9,-190.19 73,-205 75.27,-206.46 77.65,-207.8 80.09,-209.05"/>
<polygon fill="#63b8ff" stroke="#63b8ff" points="78.54,-212.19 89.11,-212.99 81.35,-205.78 78.54,-212.19"/>
</a>
</g>
</g>
<!-- Node4 -->
<g id="Node000004" class="node">
<title>Node4</title>
<g id="a_Node000004"><a xlink:href="class_window_manager.html#a2f1e418183951bcd11d15577d802c226" target="_top" xlink:title="Create a Vulkan render surface.">
<polygon fill="white" stroke="#666666" points="231.12,-196 80.12,-196 80.12,-164 231.12,-164 231.12,-196"/>
<text text-anchor="start" x="88.12" y="-182.5" font-family="Helvetica,sans-Serif" font-size="10.00">WindowManager::createVulkan</text>
<text text-anchor="middle" x="155.62" y="-170.5" font-family="Helvetica,sans-Serif" font-size="10.00">Surface</text>
</a>
</g>
</g>
<!-- Node1&#45;&gt;Node4 -->
<g id="edge3_Node000001_Node000004" class="edge">
<title>Node1&#45;&gt;Node4</title>
<g id="a_edge3_Node000001_Node000004"><a xlink:title=" ">
<path fill="none" stroke="#63b8ff" d="M37.27,-142.53C47.65,-146.29 61.02,-151.04 73,-155 78.1,-156.68 83.39,-158.39 88.71,-160.08"/>
<polygon fill="#63b8ff" stroke="#63b8ff" points="87.6,-163.41 98.19,-163.07 89.7,-156.73 87.6,-163.41"/>
</a>
</g>
</g>
<!-- Node5 -->
<g id="Node000005" class="node">
<title>Node5</title>
<g id="a_Node000005"><a xlink:href="structhri_1_1_shader.html#a89c874bc046793b66b37dbd35af99a9f" target="_top" xlink:title="Load a SPIR&#45;V shader file from the filesystem.">
<polygon fill="white" stroke="#666666" points="207.12,-146 104.12,-146 104.12,-126 207.12,-126 207.12,-146"/>
<text text-anchor="middle" x="155.62" y="-132.5" font-family="Helvetica,sans-Serif" font-size="10.00">hri::Shader::loadFile</text>
</a>
</g>
</g>
<!-- Node1&#45;&gt;Node5 -->
<g id="edge4_Node000001_Node000005" class="edge">
<title>Node1&#45;&gt;Node5</title>
<g id="a_edge4_Node000001_Node000005"><a xlink:title=" ">
<path fill="none" stroke="#63b8ff" d="M37.44,-136C51.61,-136 72.27,-136 92.31,-136"/>
<polygon fill="#63b8ff" stroke="#63b8ff" points="92.14,-139.5 102.14,-136 92.14,-132.5 92.14,-139.5"/>
</a>
</g>
</g>
<!-- Node7 -->
<g id="Node000007" class="node">
<title>Node7</title>
<g id="a_Node000007"><a xlink:href="main_8cpp.html#a6145e48ac398693e05869a42ebe37db9" target="_top" xlink:title=" ">
<polygon fill="white" stroke="#666666" points="186.5,-108 124.75,-108 124.75,-88 186.5,-88 186.5,-108"/>
<text text-anchor="middle" x="155.62" y="-94.5" font-family="Helvetica,sans-Serif" font-size="10.00">loadScene</text>
</a>
</g>
</g>
<!-- Node1&#45;&gt;Node7 -->
<g id="edge6_Node000001_Node000007" class="edge">
<title>Node1&#45;&gt;Node7</title>
<g id="a_edge6_Node000001_Node000007"><a xlink:title=" ">
<path fill="none" stroke="#63b8ff" d="M37.17,-129.16C47.52,-125.3 60.89,-120.55 73,-117 86.07,-113.17 100.49,-109.6 113.53,-106.62"/>
<polygon fill="#63b8ff" stroke="#63b8ff" points="114.09,-110.08 123.09,-104.48 112.56,-103.25 114.09,-110.08"/>
</a>
</g>
</g>
<!-- Node8 -->
<g id="Node000008" class="node">
<title>Node8</title>
<g id="a_Node000008"><a xlink:href="classhri_1_1_render_pass_builder.html#ab5fa6e7f2769f5dadc819c076b3cbda6" target="_top" xlink:title="Add an attachment reference to the current subpass.">
<polygon fill="white" stroke="#666666" points="220.25,-70 91,-70 91,-38 220.25,-38 220.25,-70"/>
<text text-anchor="start" x="99" y="-56.5" font-family="Helvetica,sans-Serif" font-size="10.00">hri::RenderPassBuilder</text>
<text text-anchor="middle" x="155.62" y="-44.5" font-family="Helvetica,sans-Serif" font-size="10.00">::setAttachmentReference</text>
</a>
</g>
</g>
<!-- Node1&#45;&gt;Node8 -->
<g id="edge7_Node000001_Node000008" class="edge">
<title>Node1&#45;&gt;Node8</title>
<g id="a_edge7_Node000001_Node000008"><a xlink:title=" ">
<path fill="none" stroke="#63b8ff" d="M26.6,-125.6C35.85,-112.83 53.19,-91.34 73,-79 75.42,-77.49 77.94,-76.07 80.53,-74.73"/>
<polygon fill="#63b8ff" stroke="#63b8ff" points="81.83,-77.98 89.42,-70.58 78.88,-71.63 81.83,-77.98"/>
</a>
</g>
</g>
<!-- Node9 -->
<g id="Node000009" class="node">
<title>Node9</title>
<g id="a_Node000009"><a xlink:href="struct_timer.html#a6f4dc6b9e9f333fa4c60ddf2ff33c801" target="_top" xlink:title="Tick the timer, updating the frame delta.">
<polygon fill="white" stroke="#666666" points="186.5,-20 124.75,-20 124.75,0 186.5,0 186.5,-20"/>
<text text-anchor="middle" x="155.62" y="-6.5" font-family="Helvetica,sans-Serif" font-size="10.00">Timer::tick</text>
</a>
</g>
</g>
<!-- Node1&#45;&gt;Node9 -->
<g id="edge8_Node000001_Node000009" class="edge">
<title>Node1&#45;&gt;Node9</title>
<g id="a_edge8_Node000001_Node000009"><a xlink:title=" ">
<path fill="none" stroke="#63b8ff" d="M21.6,-125.61C26.51,-104.04 40.88,-54.34 73,-29 84.33,-20.06 99.14,-15.19 113.03,-12.59"/>
<polygon fill="#63b8ff" stroke="#63b8ff" points="113.52,-16.06 122.89,-11.12 112.48,-9.13 113.52,-16.06"/>
</a>
</g>
</g>
<!-- Node6 -->
<g id="Node000006" class="node">
<title>Node6</title>
<g id="a_Node000006"><a xlink:href="structhri_1_1_shader.html#a512a93a39b336dd98b6fcf044394357b" target="_top" xlink:title="Create a new Shader.">
<polygon fill="white" stroke="#666666" points="356.25,-146 274.25,-146 274.25,-126 356.25,-126 356.25,-146"/>
<text text-anchor="middle" x="315.25" y="-132.5" font-family="Helvetica,sans-Serif" font-size="10.00">hri::Shader::init</text>
</a>
</g>
</g>
<!-- Node5&#45;&gt;Node6 -->
<g id="edge5_Node000005_Node000006" class="edge">
<title>Node5&#45;&gt;Node6</title>
<g id="a_edge5_Node000005_Node000006"><a xlink:title=" ">
<path fill="none" stroke="#63b8ff" d="M207.37,-136C225.01,-136 244.81,-136 262.54,-136"/>
<polygon fill="#63b8ff" stroke="#63b8ff" points="262.32,-139.5 272.32,-136 262.32,-132.5 262.32,-139.5"/>
</a>
</g>
</g>
</g>
</svg>
