<?xml version="1.0" encoding="UTF-8" standalone="no"?>
<!DOCTYPE svg PUBLIC "-//W3C//DTD SVG 1.1//EN"
 "http://www.w3.org/Graphics/SVG/1.1/DTD/svg11.dtd">
<!-- Generated by graphviz version 10.0.1 (20240210.2158)
 -->
<!-- Title: handleCameraInput Pages: 1 -->
<svg width="308pt" height="85pt"
 viewBox="0.00 0.00 308.00 85.00" xmlns="http://www.w3.org/2000/svg" xmlns:xlink="http://www.w3.org/1999/xlink">
<g id="graph0" class="graph" transform="scale(1 1) rotate(0) translate(4 81)">
<title>handleCameraInput</title>
<!-- Node1 -->
<g id="Node000001" class="node">
<title>Node1</title>
<g id="a_Node000001"><a xlink:title=" ">
<polygon fill="#999999" stroke="#666666" points="99.25,-58 0,-58 0,-38 99.25,-38 99.25,-58"/>
<text text-anchor="middle" x="49.62" y="-44.5" font-family="Helvetica,sans-Serif" font-size="10.00">handleCameraInput</text>
</a>
</g>
</g>
<!-- Node2 -->
<g id="Node000002" class="node">
<title>Node2</title>
<g id="a_Node000002"><a xlink:href="namespacehri.html#ab81e99a2bbe92d4d1002b786d897d624" target="_top" xlink:title=" ">
<polygon fill="white" stroke="#666666" points="200.75,-77 144.25,-77 144.25,-57 200.75,-57 200.75,-77"/>
<text text-anchor="middle" x="172.5" y="-63.5" font-family="Helvetica,sans-Serif" font-size="10.00">hri::cross</text>
</a>
</g>
</g>
<!-- Node1&#45;&gt;Node2 -->
<g id="edge1_Node000001_Node000002" class="edge">
<title>Node1&#45;&gt;Node2</title>
<g id="a_edge1_Node000001_Node000002"><a xlink:title=" ">
<path fill="none" stroke="#63b8ff" d="M99.44,-55.67C110.6,-57.43 122.32,-59.27 132.98,-60.94"/>
<polygon fill="#63b8ff" stroke="#63b8ff" points="132.14,-64.36 142.56,-62.45 133.23,-57.44 132.14,-64.36"/>
</a>
</g>
</g>
<!-- Node3 -->
<g id="Node000003" class="node">
<title>Node3</title>
<g id="a_Node000003"><a xlink:href="namespacehri.html#ac37aa10e96e3d4f0775c3a659f16d490" target="_top" xlink:title=" ">
<polygon fill="white" stroke="#666666" points="209.75,-39 135.25,-39 135.25,-19 209.75,-19 209.75,-39"/>
<text text-anchor="middle" x="172.5" y="-25.5" font-family="Helvetica,sans-Serif" font-size="10.00">hri::normalize</text>
</a>
</g>
</g>
<!-- Node1&#45;&gt;Node3 -->
<g id="edge2_Node000001_Node000003" class="edge">
<title>Node1&#45;&gt;Node3</title>
<g id="a_edge2_Node000001_Node000003"><a xlink:title=" ">
<path fill="none" stroke="#63b8ff" d="M99.44,-40.33C107.37,-39.08 115.57,-37.79 123.47,-36.55"/>
<polygon fill="#63b8ff" stroke="#63b8ff" points="123.94,-40.02 133.28,-35.01 122.86,-33.1 123.94,-40.02"/>
</a>
</g>
</g>
<!-- Node4 -->
<g id="Node000004" class="node">
<title>Node4</title>
<g id="a_Node000004"><a xlink:href="namespacehri.html#a3f539220562b091be4c7e5409dd4c80e" target="_top" xlink:title=" ">
<polygon fill="white" stroke="#666666" points="295.88,-58 249.88,-58 249.88,-38 295.88,-38 295.88,-58"/>
<text text-anchor="middle" x="272.88" y="-44.5" font-family="Helvetica,sans-Serif" font-size="10.00">hri::dot</text>
</a>
</g>
</g>
<!-- Node3&#45;&gt;Node4 -->
<g id="edge3_Node000003_Node000004" class="edge">
<title>Node3&#45;&gt;Node4</title>
<g id="a_edge3_Node000003_Node000004"><a xlink:title=" ">
<path fill="none" stroke="#63b8ff" d="M210.13,-36.07C219.43,-37.87 229.36,-39.79 238.49,-41.55"/>
<polygon fill="#63b8ff" stroke="#63b8ff" points="237.53,-44.93 248.02,-43.39 238.86,-38.06 237.53,-44.93"/>
</a>
</g>
</g>
<!-- Node5 -->
<g id="Node000005" class="node">
<title>Node5</title>
<g id="a_Node000005"><a xlink:href="namespacehri.html#a80da0ea8cafbed379ba92a21796fe33c" target="_top" xlink:title="Simple inverse square root function.">
<polygon fill="white" stroke="#666666" points="300,-20 245.75,-20 245.75,0 300,0 300,-20"/>
<text text-anchor="middle" x="272.88" y="-6.5" font-family="Helvetica,sans-Serif" font-size="10.00">hri::rsqrtf</text>
</a>
</g>
</g>
<!-- Node3&#45;&gt;Node5 -->
<g id="edge4_Node000003_Node000005" class="edge">
<title>Node3&#45;&gt;Node5</title>
<g id="a_edge4_Node000003_Node000005"><a xlink:title=" ">
<path fill="none" stroke="#63b8ff" d="M210.13,-21.93C217.99,-20.41 226.3,-18.8 234.19,-17.28"/>
<polygon fill="#63b8ff" stroke="#63b8ff" points="234.71,-20.74 243.87,-15.41 233.39,-13.87 234.71,-20.74"/>
</a>
</g>
</g>
</g>
</svg>
