<?xml version="1.0" encoding="UTF-8" standalone="no"?>
<!DOCTYPE svg PUBLIC "-//W3C//DTD SVG 1.1//EN"
 "http://www.w3.org/Graphics/SVG/1.1/DTD/svg11.dtd">
<!-- Generated by graphviz version 10.0.1 (20240210.2158)
 -->
<!-- Title: demo/include/material.h Pages: 1 -->
<svg width="393pt" height="252pt"
 viewBox="0.00 0.00 393.40 252.00" xmlns="http://www.w3.org/2000/svg" xmlns:xlink="http://www.w3.org/1999/xlink">

<svg id="main" version="1.1" xmlns="http://www.w3.org/2000/svg" xmlns:xlink="http://www.w3.org/1999/xlink" xml:space="preserve" onload="init(evt)">
<style type="text/css"><![CDATA[
.node, .edge {opacity: 0.7;}
.node.selected, .edge.selected {opacity: 1;}
.edge:hover path { stroke: red; }
.edge:hover polygon { stroke: red; fill: red; }
]]></style>
<script type="application/ecmascript" xlink:href="svg.min.js"/>
<svg id="graph" class="graph">
<g id="graph0" class="graph" transform="scale(1 1) rotate(0) translate(4 248)">
<title>demo/include/material.h</title>
<!-- Node1 -->
<g id="Node000001" class="node">
<title>Node1</title>
<g id="a_Node000001"><a xlink:title=" ">
<polygon fill="#999999" stroke="#666666" points="374.53,-244 255.03,-244 255.03,-224 374.53,-224 374.53,-244"/>
<text text-anchor="middle" x="314.78" y="-230.5" font-family="Helvetica,sans-Serif" font-size="10.00">demo/include/material.h</text>
</a>
</g>
</g>
<!-- Node2 -->
<g id="Node000002" class="node">
<title>Node2</title>
<g id="a_Node000002"><a xlink:href="scene_8h.html" target="_top" xlink:title=" ">
<polygon fill="white" stroke="#666666" points="311.4,-188 200.15,-188 200.15,-168 311.4,-168 311.4,-188"/>
<text text-anchor="middle" x="255.78" y="-174.5" font-family="Helvetica,sans-Serif" font-size="10.00">demo/include/scene.h</text>
</a>
</g>
</g>
<!-- Node1&#45;&gt;Node2 -->
<g id="edge1_Node000001_Node000002" class="edge">
<title>Node1&#45;&gt;Node2</title>
<g id="a_edge1_Node000001_Node000002"><a xlink:title=" ">
<path fill="none" stroke="#63b8ff" d="M296.03,-215.85C286.06,-206.72 274.19,-195.86 265.94,-188.3"/>
<polygon fill="#63b8ff" stroke="#63b8ff" points="293.64,-218.4 303.38,-222.57 298.37,-213.24 293.64,-218.4"/>
</a>
</g>
</g>
<!-- Node4 -->
<g id="Node000004" class="node">
<title>Node4</title>
<g id="a_Node000004"><a xlink:href="main_8cpp.html" target="_top" xlink:title=" ">
<polygon fill="white" stroke="#666666" points="385.4,-20 286.15,-20 286.15,0 385.4,0 385.4,-20"/>
<text text-anchor="middle" x="335.78" y="-6.5" font-family="Helvetica,sans-Serif" font-size="10.00">demo/src/main.cpp</text>
</a>
</g>
</g>
<!-- Node1&#45;&gt;Node4 -->
<g id="edge11_Node000001_Node000004" class="edge">
<title>Node1&#45;&gt;Node4</title>
<g id="a_edge11_Node000001_Node000004"><a xlink:title=" ">
<path fill="none" stroke="#63b8ff" d="M323.13,-213.53C336.05,-181.04 358.54,-113.65 349.78,-56 347.86,-43.38 343.08,-29.43 339.64,-20.46"/>
<polygon fill="#63b8ff" stroke="#63b8ff" points="320.03,-211.86 319.45,-222.44 326.5,-214.53 320.03,-211.86"/>
</a>
</g>
</g>
<!-- Node3 -->
<g id="Node000003" class="node">
<title>Node3</title>
<g id="a_Node000003"><a xlink:href="renderer_8h.html" target="_top" xlink:title=" ">
<polygon fill="white" stroke="#666666" points="282.9,-76 162.65,-76 162.65,-56 282.9,-56 282.9,-76"/>
<text text-anchor="middle" x="222.78" y="-62.5" font-family="Helvetica,sans-Serif" font-size="10.00">demo/include/renderer.h</text>
</a>
</g>
</g>
<!-- Node2&#45;&gt;Node3 -->
<g id="edge2_Node000002_Node000003" class="edge">
<title>Node2&#45;&gt;Node3</title>
<g id="a_edge2_Node000002_Node000003"><a xlink:title=" ">
<path fill="none" stroke="#63b8ff" d="M224.45,-161.89C212.93,-154.59 201.15,-144.63 194.78,-132 185.03,-112.7 201.92,-89.21 213.43,-76.42"/>
<polygon fill="#63b8ff" stroke="#63b8ff" points="222.65,-164.89 233.06,-166.87 226.15,-158.83 222.65,-164.89"/>
</a>
</g>
</g>
<!-- Node2&#45;&gt;Node4 -->
<g id="edge9_Node000002_Node000004" class="edge">
<title>Node2&#45;&gt;Node4</title>
<g id="a_edge9_Node000002_Node000004"><a xlink:title=" ">
<path fill="none" stroke="#63b8ff" d="M285.64,-161.67C297.16,-154.25 309.33,-144.27 316.78,-132 338.95,-95.46 338.02,-41.71 336.59,-20.3"/>
<polygon fill="#63b8ff" stroke="#63b8ff" points="283.92,-158.62 277.12,-166.74 287.5,-164.63 283.92,-158.62"/>
</a>
</g>
</g>
<!-- Node6 -->
<g id="Node000006" class="node">
<title>Node6</title>
<g id="a_Node000006"><a xlink:href="subsystems_8h.html" target="_top" xlink:title=" ">
<polygon fill="white" stroke="#666666" points="147.9,-132 9.65,-132 9.65,-112 147.9,-112 147.9,-132"/>
<text text-anchor="middle" x="78.78" y="-118.5" font-family="Helvetica,sans-Serif" font-size="10.00">demo/include/subsystems.h</text>
</a>
</g>
</g>
<!-- Node2&#45;&gt;Node6 -->
<g id="edge5_Node000002_Node000006" class="edge">
<title>Node2&#45;&gt;Node6</title>
<g id="a_edge5_Node000002_Node000006"><a xlink:title=" ">
<path fill="none" stroke="#63b8ff" d="M214.17,-164.31C182.22,-154.56 138.81,-141.32 109.85,-132.48"/>
<polygon fill="#63b8ff" stroke="#63b8ff" points="212.91,-167.58 223.5,-167.15 214.95,-160.89 212.91,-167.58"/>
</a>
</g>
</g>
<!-- Node8 -->
<g id="Node000008" class="node">
<title>Node8</title>
<g id="a_Node000008"><a xlink:href="scene_8cpp.html" target="_top" xlink:title=" ">
<polygon fill="white" stroke="#666666" points="308.03,-132 203.53,-132 203.53,-112 308.03,-112 308.03,-132"/>
<text text-anchor="middle" x="255.78" y="-118.5" font-family="Helvetica,sans-Serif" font-size="10.00">demo/src/scene.cpp</text>
</a>
</g>
</g>
<!-- Node2&#45;&gt;Node8 -->
<g id="edge10_Node000002_Node000008" class="edge">
<title>Node2&#45;&gt;Node8</title>
<g id="a_edge10_Node000002_Node000008"><a xlink:title=" ">
<path fill="none" stroke="#63b8ff" d="M255.78,-156.13C255.78,-147.9 255.78,-138.85 255.78,-132.3"/>
<polygon fill="#63b8ff" stroke="#63b8ff" points="252.28,-156.08 255.78,-166.08 259.28,-156.08 252.28,-156.08"/>
</a>
</g>
</g>
<!-- Node3&#45;&gt;Node4 -->
<g id="edge3_Node000003_Node000004" class="edge">
<title>Node3&#45;&gt;Node4</title>
<g id="a_edge3_Node000003_Node000004"><a xlink:title=" ">
<path fill="none" stroke="#63b8ff" d="M252.61,-50.75C272.62,-41.18 298.42,-28.85 315.94,-20.48"/>
<polygon fill="#63b8ff" stroke="#63b8ff" points="251.34,-47.47 243.83,-54.94 254.36,-53.79 251.34,-47.47"/>
</a>
</g>
</g>
<!-- Node5 -->
<g id="Node000005" class="node">
<title>Node5</title>
<g id="a_Node000005"><a xlink:href="renderer_8cpp.html" target="_top" xlink:title=" ">
<polygon fill="white" stroke="#666666" points="155.53,-20 42.03,-20 42.03,0 155.53,0 155.53,-20"/>
<text text-anchor="middle" x="98.78" y="-6.5" font-family="Helvetica,sans-Serif" font-size="10.00">demo/src/renderer.cpp</text>
</a>
</g>
</g>
<!-- Node3&#45;&gt;Node5 -->
<g id="edge4_Node000003_Node000005" class="edge">
<title>Node3&#45;&gt;Node5</title>
<g id="a_edge4_Node000003_Node000005"><a xlink:title=" ">
<path fill="none" stroke="#63b8ff" d="M190.65,-51.01C168.61,-41.41 139.95,-28.93 120.54,-20.48"/>
<polygon fill="#63b8ff" stroke="#63b8ff" points="189.22,-54.21 199.79,-54.99 192.02,-47.79 189.22,-54.21"/>
</a>
</g>
</g>
<!-- Node6&#45;&gt;Node3 -->
<g id="edge6_Node000006_Node000003" class="edge">
<title>Node6&#45;&gt;Node3</title>
<g id="a_edge6_Node000006_Node000003"><a xlink:title=" ">
<path fill="none" stroke="#63b8ff" d="M114.34,-107.66C140.16,-97.98 174.45,-85.12 197.5,-76.48"/>
<polygon fill="#63b8ff" stroke="#63b8ff" points="113.41,-104.27 105.28,-111.06 115.87,-110.83 113.41,-104.27"/>
</a>
</g>
</g>
<!-- Node6&#45;&gt;Node5 -->
<g id="edge7_Node000006_Node000005" class="edge">
<title>Node6&#45;&gt;Node5</title>
<g id="a_edge7_Node000006_Node000005"><a xlink:title=" ">
<path fill="none" stroke="#63b8ff" d="M41.3,-106.9C16.34,-95.22 -9.61,-77.15 3.78,-56 15.19,-37.96 36.02,-27.01 55.27,-20.44"/>
<polygon fill="#63b8ff" stroke="#63b8ff" points="39.86,-110.1 50.43,-110.9 42.67,-103.68 39.86,-110.1"/>
</a>
</g>
</g>
<!-- Node7 -->
<g id="Node000007" class="node">
<title>Node7</title>
<g id="a_Node000007"><a xlink:href="subsystems_8cpp.html" target="_top" xlink:title=" ">
<polygon fill="white" stroke="#666666" points="144.53,-76 13.03,-76 13.03,-56 144.53,-56 144.53,-76"/>
<text text-anchor="middle" x="78.78" y="-62.5" font-family="Helvetica,sans-Serif" font-size="10.00">demo/src/subsystems.cpp</text>
</a>
</g>
</g>
<!-- Node6&#45;&gt;Node7 -->
<g id="edge8_Node000006_Node000007" class="edge">
<title>Node6&#45;&gt;Node7</title>
<g id="a_edge8_Node000006_Node000007"><a xlink:title=" ">
<path fill="none" stroke="#63b8ff" d="M78.78,-100.13C78.78,-91.9 78.78,-82.85 78.78,-76.3"/>
<polygon fill="#63b8ff" stroke="#63b8ff" points="75.28,-100.08 78.78,-110.08 82.28,-100.08 75.28,-100.08"/>
</a>
</g>
</g>
</g>
</svg>
</svg>

<style type='text/css'>
<![CDATA[
[data-mouse-over-selected='false'] { opacity: 0.7; }
[data-mouse-over-selected='true']  { opacity: 1.0; }
]]>
</style>
<script type="application/ecmascript"><![CDATA[
document.addEventListener('DOMContentLoaded', (event) => {
  highlightEdges();
  highlightAdjacentNodes();
});
]]></script>
</svg>
