<?xml version="1.0" encoding="UTF-8" standalone="no"?>
<!DOCTYPE svg PUBLIC "-//W3C//DTD SVG 1.1//EN"
 "http://www.w3.org/Graphics/SVG/1.1/DTD/svg11.dtd">
<!-- Generated by graphviz version 10.0.1 (20240210.2158)
 -->
<!-- Title: hybrid&#45;renderer&#45;lib/src/mesh.cpp Pages: 1 -->
<!--zoomable 288 -->

<svg id="main" version="1.1" xmlns="http://www.w3.org/2000/svg" xmlns:xlink="http://www.w3.org/1999/xlink" xml:space="preserve" onload="init(evt)">
<style type="text/css"><![CDATA[
.node, .edge {opacity: 0.7;}
.node.selected, .edge.selected {opacity: 1;}
.edge:hover path { stroke: red; }
.edge:hover polygon { stroke: red; fill: red; }
]]></style>

<defs>
  <circle id="rim" cx="0" cy="0" r="7"/>
  <circle id="rim2" cx="0" cy="0" r="3.5"/>
  <g id="zoomPlus">
    <use xlink:href="#rim" fill="#404040"><set attributeName="fill" to="#808080" begin="zoomplus.mouseover" end="zoomplus.mouseout"/></use>
    <path d="M-4,0h8M0,-4v8" fill="none" stroke="white" stroke-width="1.5" pointer-events="none"/>
  </g>
  <g id="zoomMin">
    <use xlink:href="#rim" fill="#404040"><set attributeName="fill" to="#808080" begin="zoomminus.mouseover" end="zoomminus.mouseout"/></use>
    <path d="M-4,0h8" fill="none" stroke="white" stroke-width="1.5" pointer-events="none"/>
  </g>
  <g id="arrowUp" transform="translate(30 24)">
    <use xlink:href="#rim"/>
    <path pointer-events="none" fill="none" stroke="white" stroke-width="1.5" d="M0,-3.0v7 M-2.5,-0.5L0,-3.0L2.5,-0.5"/>
  </g>
  <g id="arrowRight" transform="rotate(90) translate(36 -43)">
    <use xlink:href="#rim"/>
    <path pointer-events="none" fill="none" stroke="white" stroke-width="1.5" d="M0,-3.0v7 M-2.5,-0.5L0,-3.0L2.5,-0.5"/>
  </g>
  <g id="arrowDown" transform="rotate(180) translate(-30 -48)">
    <use xlink:href="#rim"/>
    <path pointer-events="none" fill="none" stroke="white" stroke-width="1.5" d="M0,-3.0v7 M-2.5,-0.5L0,-3.0L2.5,-0.5"/>
  </g>
  <g id="arrowLeft" transform="rotate(270) translate(-36 17)">
    <use xlink:href="#rim"/>
    <path pointer-events="none" fill="none" stroke="white" stroke-width="1.5" d="M0,-3.0v7 M-2.5,-0.5L0,-3.0L2.5,-0.5"/>
  </g>
  <g id="resetDef">
    <use xlink:href="#rim2" fill="#404040"><set attributeName="fill" to="#808080" begin="reset.mouseover" end="reset.mouseout"/></use>
  </g>
</defs>
<script type="application/ecmascript">
var viewWidth = 720;
var viewHeight = 288;
var sectionId = 'dynsection-0';
</script>
<script type="application/ecmascript" xlink:href="svg.min.js"/>
<svg id="graph" class="graph">
<g id="viewport">
<title>hybrid&#45;renderer&#45;lib/src/mesh.cpp</title>
<!-- Node1 -->
<g id="Node000001" class="node">
<title>Node1</title>
<g id="a_Node000001"><a xlink:title=" ">
<polygon fill="#999999" stroke="#666666" points="318.12,-280 224.88,-280 224.88,-248 318.12,-248 318.12,-280"/>
<text text-anchor="start" x="232.88" y="-266.5" font-family="Helvetica,sans-Serif" font-size="10.00">hybrid&#45;renderer&#45;lib</text>
<text text-anchor="middle" x="271.5" y="-254.5" font-family="Helvetica,sans-Serif" font-size="10.00">/src/mesh.cpp</text>
</a>
</g>
</g>
<!-- Node2 -->
<g id="Node000002" class="node">
<title>Node2</title>
<g id="a_Node000002"><a xlink:href="mesh_8h.html" target="_top" xlink:title=" ">
<polygon fill="white" stroke="#666666" points="295.62,-212 247.38,-212 247.38,-192 295.62,-192 295.62,-212"/>
<text text-anchor="middle" x="271.5" y="-198.5" font-family="Helvetica,sans-Serif" font-size="10.00">mesh.h</text>
</a>
</g>
</g>
<!-- Node1&#45;&gt;Node2 -->
<g id="edge1_Node000001_Node000002" class="edge">
<title>Node1&#45;&gt;Node2</title>
<g id="a_edge1_Node000001_Node000002"><a xlink:title=" ">
<path fill="none" stroke="#63b8ff" d="M271.5,-247.55C271.5,-240.34 271.5,-231.66 271.5,-223.88"/>
<polygon fill="#63b8ff" stroke="#63b8ff" points="275,-223.92 271.5,-213.92 268,-223.92 275,-223.92"/>
</a>
</g>
</g>
<!-- Node3 -->
<g id="Node000003" class="node">
<title>Node3</title>
<g id="a_Node000003"><a xlink:title=" ">
<polygon fill="#e0e0e0" stroke="#999999" points="111.12,-150 65.88,-150 65.88,-130 111.12,-130 111.12,-150"/>
<text text-anchor="middle" x="88.5" y="-136.5" font-family="Helvetica,sans-Serif" font-size="10.00">cstdint</text>
</a>
</g>
</g>
<!-- Node1&#45;&gt;Node3 -->
<g id="edge20_Node000001_Node000003" class="edge">
<title>Node1&#45;&gt;Node3</title>
<g id="a_edge20_Node000001_Node000003"><a xlink:title=" ">
<path fill="none" stroke="#63b8ff" d="M248.32,-247.55C213.31,-224.21 147.28,-180.19 112.05,-156.7"/>
<polygon fill="#63b8ff" stroke="#63b8ff" points="114.1,-153.86 103.83,-151.22 110.21,-159.68 114.1,-153.86"/>
</a>
</g>
</g>
<!-- Node4 -->
<g id="Node000004" class="node">
<title>Node4</title>
<g id="a_Node000004"><a xlink:title=" ">
<polygon fill="#e0e0e0" stroke="#999999" points="170.25,-150 128.75,-150 128.75,-130 170.25,-130 170.25,-150"/>
<text text-anchor="middle" x="149.5" y="-136.5" font-family="Helvetica,sans-Serif" font-size="10.00">vector</text>
</a>
</g>
</g>
<!-- Node1&#45;&gt;Node4 -->
<g id="edge21_Node000001_Node000004" class="edge">
<title>Node1&#45;&gt;Node4</title>
<g id="a_edge21_Node000001_Node000004"><a xlink:title=" ">
<path fill="none" stroke="#63b8ff" d="M256.05,-247.55C233.21,-224.71 190.57,-182.07 166.74,-158.24"/>
<polygon fill="#63b8ff" stroke="#63b8ff" points="169.5,-156.05 159.95,-151.45 164.55,-161 169.5,-156.05"/>
</a>
</g>
</g>
<!-- Node5 -->
<g id="Node000005" class="node">
<title>Node5</title>
<g id="a_Node000005"><a xlink:href="hri__math_8h.html" target="_top" xlink:title=" ">
<polygon fill="white" stroke="#666666" points="250.38,-150 188.62,-150 188.62,-130 250.38,-130 250.38,-150"/>
<text text-anchor="middle" x="219.5" y="-136.5" font-family="Helvetica,sans-Serif" font-size="10.00">hri_math.h</text>
</a>
</g>
</g>
<!-- Node1&#45;&gt;Node5 -->
<g id="edge22_Node000001_Node000005" class="edge">
<title>Node1&#45;&gt;Node5</title>
<g id="a_edge22_Node000001_Node000005"><a xlink:title=" ">
<path fill="none" stroke="#63b8ff" d="M259.75,-247.65C252.75,-237.88 244.15,-224.72 238.5,-212 231.21,-195.58 226.19,-175.75 223.15,-161.23"/>
<polygon fill="#63b8ff" stroke="#63b8ff" points="226.61,-160.68 221.27,-151.53 219.74,-162.02 226.61,-160.68"/>
</a>
</g>
</g>
<!-- Node10 -->
<g id="Node000010" class="node">
<title>Node10</title>
<g id="a_Node000010"><a xlink:href="render__context_8h.html" target="_top" xlink:title=" ">
<polygon fill="white" stroke="#666666" points="512.5,-88 394.5,-88 394.5,-56 512.5,-56 512.5,-88"/>
<text text-anchor="start" x="402.5" y="-74.5" font-family="Helvetica,sans-Serif" font-size="10.00">renderer_internal/render</text>
<text text-anchor="middle" x="453.5" y="-62.5" font-family="Helvetica,sans-Serif" font-size="10.00">_context.h</text>
</a>
</g>
</g>
<!-- Node1&#45;&gt;Node10 -->
<g id="edge23_Node000001_Node000010" class="edge">
<title>Node1&#45;&gt;Node10</title>
<g id="a_edge23_Node000001_Node000010"><a xlink:title=" ">
<path fill="none" stroke="#63b8ff" d="M312.88,-247.54C351.4,-230.93 407.26,-200.74 437.5,-156 448.66,-139.48 452.48,-117.12 453.61,-99.77"/>
<polygon fill="#63b8ff" stroke="#63b8ff" points="457.1,-100.07 453.97,-89.95 450.11,-99.82 457.1,-100.07"/>
</a>
</g>
</g>
<!-- Node16 -->
<g id="Node000016" class="node">
<title>Node16</title>
<g id="a_Node000016"><a xlink:href="buffer_8h.html" target="_top" xlink:title=" ">
<polygon fill="white" stroke="#666666" points="428.75,-150 306.25,-150 306.25,-130 428.75,-130 428.75,-150"/>
<text text-anchor="middle" x="367.5" y="-136.5" font-family="Helvetica,sans-Serif" font-size="10.00">renderer_internal/buffer.h</text>
</a>
</g>
</g>
<!-- Node1&#45;&gt;Node16 -->
<g id="edge24_Node000001_Node000016" class="edge">
<title>Node1&#45;&gt;Node16</title>
<g id="a_edge24_Node000001_Node000016"><a xlink:title=" ">
<path fill="none" stroke="#63b8ff" d="M283.66,-247.55C301.4,-225.01 334.3,-183.19 353.19,-159.19"/>
<polygon fill="#63b8ff" stroke="#63b8ff" points="355.75,-161.6 359.18,-151.57 350.25,-157.27 355.75,-161.6"/>
</a>
</g>
</g>
<!-- Node17 -->
<g id="Node000017" class="node">
<title>Node17</title>
<g id="a_Node000017"><a xlink:href="command__submission_8h.html" target="_top" xlink:title=" ">
<polygon fill="white" stroke="#666666" points="618.38,-156 484.62,-156 484.62,-124 618.38,-124 618.38,-156"/>
<text text-anchor="start" x="492.62" y="-142.5" font-family="Helvetica,sans-Serif" font-size="10.00">renderer_internal/command</text>
<text text-anchor="middle" x="551.5" y="-130.5" font-family="Helvetica,sans-Serif" font-size="10.00">_submission.h</text>
</a>
</g>
</g>
<!-- Node1&#45;&gt;Node17 -->
<g id="edge25_Node000001_Node000017" class="edge">
<title>Node1&#45;&gt;Node17</title>
<g id="a_edge25_Node000001_Node000017"><a xlink:title=" ">
<path fill="none" stroke="#63b8ff" d="M318.37,-257.3C360.18,-250.79 422.08,-237.54 470.5,-212 493.39,-199.93 515.2,-180.16 530.41,-164.55"/>
<polygon fill="#63b8ff" stroke="#63b8ff" points="532.77,-167.14 537.11,-157.47 527.69,-162.33 532.77,-167.14"/>
</a>
</g>
</g>
<!-- Node2&#45;&gt;Node3 -->
<g id="edge2_Node000002_Node000003" class="edge">
<title>Node2&#45;&gt;Node3</title>
<g id="a_edge2_Node000002_Node000003"><a xlink:title=" ">
<path fill="none" stroke="#63b8ff" d="M247.14,-195.1C216.78,-187.44 163.52,-173.03 119.5,-156 118.71,-155.69 117.9,-155.37 117.1,-155.04"/>
<polygon fill="#63b8ff" stroke="#63b8ff" points="118.58,-151.87 108.02,-151 115.73,-158.27 118.58,-151.87"/>
</a>
</g>
</g>
<!-- Node2&#45;&gt;Node4 -->
<g id="edge3_Node000002_Node000004" class="edge">
<title>Node2&#45;&gt;Node4</title>
<g id="a_edge3_Node000002_Node000004"><a xlink:title=" ">
<path fill="none" stroke="#63b8ff" d="M252.09,-191.57C233.46,-182.5 204.52,-168.38 179.5,-156 179.16,-155.83 178.81,-155.66 178.47,-155.49"/>
<polygon fill="#63b8ff" stroke="#63b8ff" points="180.08,-152.38 169.57,-151.06 176.96,-158.65 180.08,-152.38"/>
</a>
</g>
</g>
<!-- Node2&#45;&gt;Node5 -->
<g id="edge4_Node000002_Node000005" class="edge">
<title>Node2&#45;&gt;Node5</title>
<g id="a_edge4_Node000002_Node000005"><a xlink:title=" ">
<path fill="none" stroke="#63b8ff" d="M263.38,-191.62C255.78,-182.86 244.23,-169.53 234.88,-158.75"/>
<polygon fill="#63b8ff" stroke="#63b8ff" points="237.58,-156.52 228.39,-151.26 232.29,-161.11 237.58,-156.52"/>
</a>
</g>
</g>
<!-- Node2&#45;&gt;Node10 -->
<g id="edge9_Node000002_Node000010" class="edge">
<title>Node2&#45;&gt;Node10</title>
<g id="a_edge9_Node000002_Node000010"><a xlink:title=" ">
<path fill="none" stroke="#63b8ff" d="M272.04,-191.54C273.47,-175.44 278.65,-142.67 297.5,-124 320.3,-101.42 353.23,-88.84 382.96,-81.83"/>
<polygon fill="#63b8ff" stroke="#63b8ff" points="383.66,-85.26 392.69,-79.72 382.18,-78.41 383.66,-85.26"/>
</a>
</g>
</g>
<!-- Node2&#45;&gt;Node16 -->
<g id="edge16_Node000002_Node000016" class="edge">
<title>Node2&#45;&gt;Node16</title>
<g id="a_edge16_Node000002_Node000016"><a xlink:title=" ">
<path fill="none" stroke="#63b8ff" d="M286.5,-191.62C301.58,-182.2 325.07,-167.52 342.88,-156.39"/>
<polygon fill="#63b8ff" stroke="#63b8ff" points="344.7,-159.38 351.32,-151.11 340.99,-153.44 344.7,-159.38"/>
</a>
</g>
</g>
<!-- Node6 -->
<g id="Node000006" class="node">
<title>Node6</title>
<g id="a_Node000006"><a xlink:title=" ">
<polygon fill="#e0e0e0" stroke="#999999" points="43,-82 0,-82 0,-62 43,-62 43,-82"/>
<text text-anchor="middle" x="21.5" y="-68.5" font-family="Helvetica,sans-Serif" font-size="10.00">cmath</text>
</a>
</g>
</g>
<!-- Node5&#45;&gt;Node6 -->
<g id="edge5_Node000005_Node000006" class="edge">
<title>Node5&#45;&gt;Node6</title>
<g id="a_edge5_Node000005_Node000006"><a xlink:title=" ">
<path fill="none" stroke="#63b8ff" d="M195.5,-129.63C190.26,-127.68 184.72,-125.71 179.5,-124 123.34,-105.61 106.62,-109.31 51.5,-88 50.73,-87.7 49.95,-87.39 49.16,-87.07"/>
<polygon fill="#63b8ff" stroke="#63b8ff" points="50.95,-84.03 40.39,-83.08 48.05,-90.4 50.95,-84.03"/>
</a>
</g>
</g>
<!-- Node7 -->
<g id="Node000007" class="node">
<title>Node7</title>
<g id="a_Node000007"><a xlink:title=" ">
<polygon fill="#e0e0e0" stroke="#999999" points="130.12,-82 60.88,-82 60.88,-62 130.12,-62 130.12,-82"/>
<text text-anchor="middle" x="95.5" y="-68.5" font-family="Helvetica,sans-Serif" font-size="10.00">glm/glm.hpp</text>
</a>
</g>
</g>
<!-- Node5&#45;&gt;Node7 -->
<g id="edge6_Node000005_Node000007" class="edge">
<title>Node5&#45;&gt;Node7</title>
<g id="a_edge6_Node000005_Node000007"><a xlink:title=" ">
<path fill="none" stroke="#63b8ff" d="M201.73,-129.54C181.2,-118.61 147.16,-100.5 123.15,-87.72"/>
<polygon fill="#63b8ff" stroke="#63b8ff" points="125.04,-84.76 114.57,-83.15 121.75,-90.94 125.04,-84.76"/>
</a>
</g>
</g>
<!-- Node8 -->
<g id="Node000008" class="node">
<title>Node8</title>
<g id="a_Node000008"><a xlink:title=" ">
<polygon fill="#e0e0e0" stroke="#999999" points="290.88,-82 148.12,-82 148.12,-62 290.88,-62 290.88,-82"/>
<text text-anchor="middle" x="219.5" y="-68.5" font-family="Helvetica,sans-Serif" font-size="10.00">glm/gtc/matrix_transform.hpp</text>
</a>
</g>
</g>
<!-- Node5&#45;&gt;Node8 -->
<g id="edge7_Node000005_Node000008" class="edge">
<title>Node5&#45;&gt;Node8</title>
<g id="a_edge7_Node000005_Node000008"><a xlink:title=" ">
<path fill="none" stroke="#63b8ff" d="M219.5,-129.54C219.5,-120.23 219.5,-105.7 219.5,-93.7"/>
<polygon fill="#63b8ff" stroke="#63b8ff" points="223,-93.95 219.5,-83.95 216,-93.95 223,-93.95"/>
</a>
</g>
</g>
<!-- Node9 -->
<g id="Node000009" class="node">
<title>Node9</title>
<g id="a_Node000009"><a xlink:href="platform_8h.html" target="_top" xlink:title=" ">
<polygon fill="white" stroke="#666666" points="268.88,-20 210.12,-20 210.12,0 268.88,0 268.88,-20"/>
<text text-anchor="middle" x="239.5" y="-6.5" font-family="Helvetica,sans-Serif" font-size="10.00">platform.h</text>
</a>
</g>
</g>
<!-- Node5&#45;&gt;Node9 -->
<g id="edge8_Node000005_Node000009" class="edge">
<title>Node5&#45;&gt;Node9</title>
<g id="a_edge8_Node000005_Node000009"><a xlink:title=" ">
<path fill="none" stroke="#63b8ff" d="M247.06,-129.53C265.53,-121.58 288.41,-108.22 299.5,-88 306.34,-75.53 305.86,-68.72 299.5,-56 293.24,-43.48 281.66,-33.54 270.32,-26.22"/>
<polygon fill="#63b8ff" stroke="#63b8ff" points="272.26,-23.3 261.87,-21.23 268.71,-29.33 272.26,-23.3"/>
</a>
</g>
</g>
<!-- Node10&#45;&gt;Node9 -->
<g id="edge11_Node000010_Node000009" class="edge">
<title>Node10&#45;&gt;Node9</title>
<g id="a_edge11_Node000010_Node000009"><a xlink:title=" ">
<path fill="none" stroke="#63b8ff" d="M398.39,-55.55C361.45,-45.19 313.62,-31.78 280.13,-22.39"/>
<polygon fill="#63b8ff" stroke="#63b8ff" points="281.39,-19.11 270.82,-19.78 279.5,-25.85 281.39,-19.11"/>
</a>
</g>
</g>
<!-- Node11 -->
<g id="Node000011" class="node">
<title>Node11</title>
<g id="a_Node000011"><a xlink:href="config_8h.html" target="_top" xlink:title=" ">
<polygon fill="white" stroke="#666666" points="440.38,-20 390.62,-20 390.62,0 440.38,0 440.38,-20"/>
<text text-anchor="middle" x="415.5" y="-6.5" font-family="Helvetica,sans-Serif" font-size="10.00">config.h</text>
</a>
</g>
</g>
<!-- Node10&#45;&gt;Node11 -->
<g id="edge10_Node000010_Node000011" class="edge">
<title>Node10&#45;&gt;Node11</title>
<g id="a_edge10_Node000010_Node000011"><a xlink:title=" ">
<path fill="none" stroke="#63b8ff" d="M443.71,-55.55C438.77,-47.74 432.72,-38.19 427.49,-29.94"/>
<polygon fill="#63b8ff" stroke="#63b8ff" points="430.58,-28.26 422.27,-21.69 424.66,-32.01 430.58,-28.26"/>
</a>
</g>
</g>
<!-- Node12 -->
<g id="Node000012" class="node">
<title>Node12</title>
<g id="a_Node000012"><a xlink:title=" ">
<polygon fill="#e0e0e0" stroke="#999999" points="516.12,-20 458.88,-20 458.88,0 516.12,0 516.12,-20"/>
<text text-anchor="middle" x="487.5" y="-6.5" font-family="Helvetica,sans-Serif" font-size="10.00">functional</text>
</a>
</g>
</g>
<!-- Node10&#45;&gt;Node12 -->
<g id="edge12_Node000010_Node000012" class="edge">
<title>Node10&#45;&gt;Node12</title>
<g id="a_edge12_Node000010_Node000012"><a xlink:title=" ">
<path fill="none" stroke="#63b8ff" d="M462.26,-55.55C466.63,-47.82 471.97,-38.4 476.61,-30.21"/>
<polygon fill="#63b8ff" stroke="#63b8ff" points="479.54,-32.15 481.42,-21.72 473.45,-28.7 479.54,-32.15"/>
</a>
</g>
</g>
<!-- Node13 -->
<g id="Node000013" class="node">
<title>Node13</title>
<g id="a_Node000013"><a xlink:title=" ">
<polygon fill="#e0e0e0" stroke="#999999" points="612.62,-20 534.38,-20 534.38,0 612.62,0 612.62,-20"/>
<text text-anchor="middle" x="573.5" y="-6.5" font-family="Helvetica,sans-Serif" font-size="10.00">VkBootstrap.h</text>
</a>
</g>
</g>
<!-- Node10&#45;&gt;Node13 -->
<g id="edge13_Node000010_Node000013" class="edge">
<title>Node10&#45;&gt;Node13</title>
<g id="a_edge13_Node000010_Node000013"><a xlink:title=" ">
<path fill="none" stroke="#63b8ff" d="M484.4,-55.55C502.89,-46.3 526.25,-34.63 544.4,-25.55"/>
<polygon fill="#63b8ff" stroke="#63b8ff" points="545.95,-28.69 553.33,-21.08 542.82,-22.43 545.95,-28.69"/>
</a>
</g>
</g>
<!-- Node14 -->
<g id="Node000014" class="node">
<title>Node14</title>
<g id="a_Node000014"><a xlink:title=" ">
<polygon fill="#e0e0e0" stroke="#999999" points="372.38,-20 286.62,-20 286.62,0 372.38,0 372.38,-20"/>
<text text-anchor="middle" x="329.5" y="-6.5" font-family="Helvetica,sans-Serif" font-size="10.00">vk_mem_alloc.h</text>
</a>
</g>
</g>
<!-- Node10&#45;&gt;Node14 -->
<g id="edge14_Node000010_Node000014" class="edge">
<title>Node10&#45;&gt;Node14</title>
<g id="a_edge14_Node000010_Node000014"><a xlink:title=" ">
<path fill="none" stroke="#63b8ff" d="M421.57,-55.55C402.37,-46.26 378.1,-34.52 359.3,-25.42"/>
<polygon fill="#63b8ff" stroke="#63b8ff" points="360.83,-22.27 350.31,-21.07 357.78,-28.57 360.83,-22.27"/>
</a>
</g>
</g>
<!-- Node15 -->
<g id="Node000015" class="node">
<title>Node15</title>
<g id="a_Node000015"><a xlink:title=" ">
<polygon fill="#e0e0e0" stroke="#999999" points="712.12,-20 630.88,-20 630.88,0 712.12,0 712.12,-20"/>
<text text-anchor="middle" x="671.5" y="-6.5" font-family="Helvetica,sans-Serif" font-size="10.00">vulkan/vulkan.h</text>
</a>
</g>
</g>
<!-- Node10&#45;&gt;Node15 -->
<g id="edge15_Node000010_Node000015" class="edge">
<title>Node10&#45;&gt;Node15</title>
<g id="a_edge15_Node000010_Node000015"><a xlink:title=" ">
<path fill="none" stroke="#63b8ff" d="M509.64,-55.55C545.8,-45.6 592.19,-32.83 626.03,-23.51"/>
<polygon fill="#63b8ff" stroke="#63b8ff" points="626.82,-26.93 635.54,-20.9 624.97,-20.18 626.82,-26.93"/>
</a>
</g>
</g>
<!-- Node16&#45;&gt;Node10 -->
<g id="edge19_Node000016_Node000010" class="edge">
<title>Node16&#45;&gt;Node10</title>
<g id="a_edge19_Node000016_Node000010"><a xlink:title=" ">
<path fill="none" stroke="#63b8ff" d="M379.82,-129.54C391.44,-120.63 409.28,-106.93 424.5,-95.25"/>
<polygon fill="#63b8ff" stroke="#63b8ff" points="426.56,-98.09 432.36,-89.22 422.3,-92.53 426.56,-98.09"/>
</a>
</g>
</g>
<!-- Node16&#45;&gt;Node14 -->
<g id="edge17_Node000016_Node000014" class="edge">
<title>Node16&#45;&gt;Node14</title>
<g id="a_edge17_Node000016_Node000014"><a xlink:title=" ">
<path fill="none" stroke="#63b8ff" d="M364.77,-129.79C358.69,-109.32 343.93,-59.61 335.56,-31.41"/>
<polygon fill="#63b8ff" stroke="#63b8ff" points="338.94,-30.51 332.74,-21.92 332.23,-32.5 338.94,-30.51"/>
</a>
</g>
</g>
<!-- Node16&#45;&gt;Node15 -->
<g id="edge18_Node000016_Node000015" class="edge">
<title>Node16&#45;&gt;Node15</title>
<g id="a_edge18_Node000016_Node000015"><a xlink:title=" ">
<path fill="none" stroke="#63b8ff" d="M401.09,-129.51C432.66,-120.21 480.98,-104.99 521.5,-88 566.22,-69.25 615.87,-42.52 645.35,-25.99"/>
<polygon fill="#63b8ff" stroke="#63b8ff" points="646.95,-29.11 653.93,-21.15 643.5,-23.02 646.95,-29.11"/>
</a>
</g>
</g>
<!-- Node17&#45;&gt;Node10 -->
<g id="edge27_Node000017_Node000010" class="edge">
<title>Node17&#45;&gt;Node10</title>
<g id="a_edge27_Node000017_Node000010"><a xlink:title=" ">
<path fill="none" stroke="#63b8ff" d="M528.77,-123.69C516,-115.09 499.85,-104.21 485.78,-94.74"/>
<polygon fill="#63b8ff" stroke="#63b8ff" points="487.95,-91.98 477.7,-89.3 484.04,-97.79 487.95,-91.98"/>
</a>
</g>
</g>
<!-- Node17&#45;&gt;Node15 -->
<g id="edge26_Node000017_Node000015" class="edge">
<title>Node17&#45;&gt;Node15</title>
<g id="a_edge26_Node000017_Node000015"><a xlink:title=" ">
<path fill="none" stroke="#63b8ff" d="M565.97,-123.56C588.4,-99.64 631.42,-53.75 655.02,-28.58"/>
<polygon fill="#63b8ff" stroke="#63b8ff" points="657.44,-31.12 661.72,-21.43 652.33,-26.33 657.44,-31.12"/>
</a>
</g>
</g>
</g>
</svg>

<g id="navigator" transform="translate(0 0)" fill="#404254">
  <rect fill="#f2f5e9" fill-opacity="0.5" stroke="#606060" stroke-width=".5" x="0" y="0" width="60" height="60"/>
  <use id="zoomplus" xlink:href="#zoomPlus" x="17" y="9" onmousedown="handleZoom(evt,'in')"/>
  <use id="zoomminus" xlink:href="#zoomMin" x="42" y="9" onmousedown="handleZoom(evt,'out')"/>
  <use id="reset" xlink:href="#resetDef" x="30" y="36" onmousedown="handleReset()"/>
   <use id="arrowup" xlink:href="#arrowUp" x="0" y="0" onmousedown="handlePan(0,-1)"/>
  <use id="arrowright" xlink:href="#arrowRight" x="0" y="0" onmousedown="handlePan(1,0)"/>
  <use id="arrowdown" xlink:href="#arrowDown" x="0" y="0" onmousedown="handlePan(0,1)"/>
  <use id="arrowleft" xlink:href="#arrowLeft" x="0" y="0" onmousedown="handlePan(-1,0)"/>
</g>
<svg viewBox="0 0 15 15" width="100%" height="30px" preserveAspectRatio="xMaxYMin meet">
 <g id="arrow_out" transform="scale(0.3 0.3)">
  <a xlink:href="mesh_8cpp__incl_org.svg" target="_base">
   <rect id="button" ry="5" rx="5" y="6" x="6" height="38" width="38"
        fill="#f2f5e9" fill-opacity="0.5" stroke="#606060" stroke-width="1.0"/>
   <path id="arrow"
     d="M 11.500037,31.436501 C 11.940474,20.09759 22.043105,11.32322 32.158766,21.979434 L 37.068811,17.246167 C 37.068811,17.246167 37.088388,32 37.088388,32 L 22.160133,31.978069 C 22.160133,31.978069 26.997745,27.140456 26.997745,27.140456 C 18.528582,18.264221 13.291696,25.230495 11.500037,31.436501 z"
     style="fill:#404040;"/>
  </a>
 </g>
</svg>

<style type='text/css'>
<![CDATA[
[data-mouse-over-selected='false'] { opacity: 0.7; }
[data-mouse-over-selected='true']  { opacity: 1.0; }
]]>
</style>
<script type="application/ecmascript"><![CDATA[
document.addEventListener('DOMContentLoaded', (event) => {
  highlightEdges();
  highlightAdjacentNodes();
});
]]></script>
</svg>
