<?xml version="1.0" encoding="UTF-8" standalone="no"?>
<!DOCTYPE svg PUBLIC "-//W3C//DTD SVG 1.1//EN"
 "http://www.w3.org/Graphics/SVG/1.1/DTD/svg11.dtd">
<!-- Generated by graphviz version 10.0.1 (20240210.2158)
 -->
<!-- Title: hybrid&#45;renderer&#45;lib/include/mesh.h Pages: 1 -->
<svg width="621pt" height="356pt"
 viewBox="0.00 0.00 621.00 356.00" xmlns="http://www.w3.org/2000/svg" xmlns:xlink="http://www.w3.org/1999/xlink">
<g id="graph0" class="graph" transform="scale(1 1) rotate(0) translate(4 352)">
<title>hybrid&#45;renderer&#45;lib/include/mesh.h</title>
<!-- Node1 -->
<g id="Node000001" class="node">
<title>Node1</title>
<g id="a_Node000001"><a xlink:title=" ">
<polygon fill="#999999" stroke="#666666" points="476.12,-348 382.88,-348 382.88,-316 476.12,-316 476.12,-348"/>
<text text-anchor="start" x="390.88" y="-334.5" font-family="Helvetica,sans-Serif" font-size="10.00">hybrid&#45;renderer&#45;lib</text>
<text text-anchor="middle" x="429.5" y="-322.5" font-family="Helvetica,sans-Serif" font-size="10.00">/include/mesh.h</text>
</a>
</g>
</g>
<!-- Node2 -->
<g id="Node000002" class="node">
<title>Node2</title>
<g id="a_Node000002"><a xlink:href="hybrid__renderer_8h.html" target="_top" xlink:title=" ">
<polygon fill="white" stroke="#666666" points="391.38,-212 263.62,-212 263.62,-180 391.38,-180 391.38,-212"/>
<text text-anchor="start" x="271.62" y="-198.5" font-family="Helvetica,sans-Serif" font-size="10.00">hybrid&#45;renderer&#45;lib</text>
<text text-anchor="middle" x="327.5" y="-186.5" font-family="Helvetica,sans-Serif" font-size="10.00">/include/hybrid_renderer.h</text>
</a>
</g>
</g>
<!-- Node1&#45;&gt;Node2 -->
<g id="edge1_Node000001_Node000002" class="edge">
<title>Node1&#45;&gt;Node2</title>
<g id="a_edge1_Node000001_Node000002"><a xlink:title=" ">
<path fill="none" stroke="#63b8ff" d="M372.62,-310.85C358.7,-303.27 345.3,-293.19 336.5,-280 322.9,-259.63 323.33,-229.98 325.2,-212.18"/>
<polygon fill="#63b8ff" stroke="#63b8ff" points="370.91,-313.91 381.42,-315.26 374.05,-307.65 370.91,-313.91"/>
</a>
</g>
</g>
<!-- Node10 -->
<g id="Node000010" class="node">
<title>Node10</title>
<g id="a_Node000010"><a xlink:href="scene_8h.html" target="_top" xlink:title=" ">
<polygon fill="white" stroke="#666666" points="439.12,-280 345.88,-280 345.88,-248 439.12,-248 439.12,-280"/>
<text text-anchor="start" x="353.88" y="-266.5" font-family="Helvetica,sans-Serif" font-size="10.00">hybrid&#45;renderer&#45;lib</text>
<text text-anchor="middle" x="392.5" y="-254.5" font-family="Helvetica,sans-Serif" font-size="10.00">/include/scene.h</text>
</a>
</g>
</g>
<!-- Node1&#45;&gt;Node10 -->
<g id="edge14_Node000001_Node000010" class="edge">
<title>Node1&#45;&gt;Node10</title>
<g id="a_edge14_Node000001_Node000010"><a xlink:title=" ">
<path fill="none" stroke="#63b8ff" d="M415.34,-305.74C410.52,-297.14 405.28,-287.79 401.04,-280.22"/>
<polygon fill="#63b8ff" stroke="#63b8ff" points="412.24,-307.36 420.18,-314.37 418.34,-303.94 412.24,-307.36"/>
</a>
</g>
</g>
<!-- Node11 -->
<g id="Node000011" class="node">
<title>Node11</title>
<g id="a_Node000011"><a xlink:href="scene_8cpp.html" target="_top" xlink:title=" ">
<polygon fill="white" stroke="#666666" points="508.12,-212 414.88,-212 414.88,-180 508.12,-180 508.12,-212"/>
<text text-anchor="start" x="422.88" y="-198.5" font-family="Helvetica,sans-Serif" font-size="10.00">hybrid&#45;renderer&#45;lib</text>
<text text-anchor="middle" x="461.5" y="-186.5" font-family="Helvetica,sans-Serif" font-size="10.00">/src/scene.cpp</text>
</a>
</g>
</g>
<!-- Node1&#45;&gt;Node11 -->
<g id="edge18_Node000001_Node000011" class="edge">
<title>Node1&#45;&gt;Node11</title>
<g id="a_edge18_Node000001_Node000011"><a xlink:title=" ">
<path fill="none" stroke="#63b8ff" d="M440.28,-305.14C443.29,-297.18 446.32,-288.33 448.5,-280 454.56,-256.86 458.19,-229.3 460.02,-212.49"/>
<polygon fill="#63b8ff" stroke="#63b8ff" points="437.11,-303.64 436.7,-314.23 443.62,-306.21 437.11,-303.64"/>
</a>
</g>
</g>
<!-- Node12 -->
<g id="Node000012" class="node">
<title>Node12</title>
<g id="a_Node000012"><a xlink:href="mesh_8cpp.html" target="_top" xlink:title=" ">
<polygon fill="white" stroke="#666666" points="589.12,-280 495.88,-280 495.88,-248 589.12,-248 589.12,-280"/>
<text text-anchor="start" x="503.88" y="-266.5" font-family="Helvetica,sans-Serif" font-size="10.00">hybrid&#45;renderer&#45;lib</text>
<text text-anchor="middle" x="542.5" y="-254.5" font-family="Helvetica,sans-Serif" font-size="10.00">/src/mesh.cpp</text>
</a>
</g>
</g>
<!-- Node1&#45;&gt;Node12 -->
<g id="edge17_Node000001_Node000012" class="edge">
<title>Node1&#45;&gt;Node12</title>
<g id="a_edge17_Node000001_Node000012"><a xlink:title=" ">
<path fill="none" stroke="#63b8ff" d="M465.8,-309.8C482.19,-300.23 501.18,-289.13 516.17,-280.38"/>
<polygon fill="#63b8ff" stroke="#63b8ff" points="464.17,-306.7 457.3,-314.76 467.7,-312.74 464.17,-306.7"/>
</a>
</g>
</g>
<!-- Node3 -->
<g id="Node000003" class="node">
<title>Node3</title>
<g id="a_Node000003"><a xlink:href="demo_8h.html" target="_top" xlink:title=" ">
<polygon fill="white" stroke="#666666" points="109,-76 0,-76 0,-56 109,-56 109,-76"/>
<text text-anchor="middle" x="54.5" y="-62.5" font-family="Helvetica,sans-Serif" font-size="10.00">demo/include/demo.h</text>
</a>
</g>
</g>
<!-- Node2&#45;&gt;Node3 -->
<g id="edge2_Node000002_Node000003" class="edge">
<title>Node2&#45;&gt;Node3</title>
<g id="a_edge2_Node000002_Node000003"><a xlink:title=" ">
<path fill="none" stroke="#63b8ff" d="M266.19,-176.02C240.5,-167.34 210.6,-156.24 184.5,-144 140.33,-123.28 91.72,-92.02 68.44,-76.47"/>
<polygon fill="#63b8ff" stroke="#63b8ff" points="264.89,-179.28 275.48,-179.12 267.1,-172.64 264.89,-179.28"/>
</a>
</g>
</g>
<!-- Node5 -->
<g id="Node000005" class="node">
<title>Node5</title>
<g id="a_Node000005"><a xlink:href="renderer_8h.html" target="_top" xlink:title=" ">
<polygon fill="white" stroke="#666666" points="247.62,-76 127.38,-76 127.38,-56 247.62,-56 247.62,-76"/>
<text text-anchor="middle" x="187.5" y="-62.5" font-family="Helvetica,sans-Serif" font-size="10.00">demo/include/renderer.h</text>
</a>
</g>
</g>
<!-- Node2&#45;&gt;Node5 -->
<g id="edge4_Node000002_Node000005" class="edge">
<title>Node2&#45;&gt;Node5</title>
<g id="a_edge4_Node000002_Node000005"><a xlink:title=" ">
<path fill="none" stroke="#63b8ff" d="M252.7,-178.68C233.48,-171.11 214.57,-160.06 201.5,-144 185.46,-124.29 185.39,-92.29 186.51,-76.47"/>
<polygon fill="#63b8ff" stroke="#63b8ff" points="251.35,-181.92 261.95,-182.03 253.74,-175.34 251.35,-181.92"/>
</a>
</g>
</g>
<!-- Node6 -->
<g id="Node000006" class="node">
<title>Node6</title>
<g id="a_Node000006"><a xlink:href="renderer_8cpp.html" target="_top" xlink:title=" ">
<polygon fill="white" stroke="#666666" points="332.25,-20 218.75,-20 218.75,0 332.25,0 332.25,-20"/>
<text text-anchor="middle" x="275.5" y="-6.5" font-family="Helvetica,sans-Serif" font-size="10.00">demo/src/renderer.cpp</text>
</a>
</g>
</g>
<!-- Node2&#45;&gt;Node6 -->
<g id="edge11_Node000002_Node000006" class="edge">
<title>Node2&#45;&gt;Node6</title>
<g id="a_edge11_Node000002_Node000006"><a xlink:title=" ">
<path fill="none" stroke="#63b8ff" d="M367.42,-173.98C413.12,-147.17 477.63,-99.1 444.5,-56 430.76,-38.13 376.1,-25.85 332.61,-18.69"/>
<polygon fill="#63b8ff" stroke="#63b8ff" points="365.97,-170.78 359.03,-178.78 369.45,-176.86 365.97,-170.78"/>
</a>
</g>
</g>
<!-- Node7 -->
<g id="Node000007" class="node">
<title>Node7</title>
<g id="a_Node000007"><a xlink:href="subsystems_8h.html" target="_top" xlink:title=" ">
<polygon fill="white" stroke="#666666" points="348.62,-138 210.38,-138 210.38,-118 348.62,-118 348.62,-138"/>
<text text-anchor="middle" x="279.5" y="-124.5" font-family="Helvetica,sans-Serif" font-size="10.00">demo/include/subsystems.h</text>
</a>
</g>
</g>
<!-- Node2&#45;&gt;Node7 -->
<g id="edge7_Node000002_Node000007" class="edge">
<title>Node2&#45;&gt;Node7</title>
<g id="a_edge7_Node000002_Node000007"><a xlink:title=" ">
<path fill="none" stroke="#63b8ff" d="M309.83,-170.7C301.63,-159.43 292.38,-146.71 286.28,-138.32"/>
<polygon fill="#63b8ff" stroke="#63b8ff" points="306.76,-172.44 315.48,-178.47 312.43,-168.32 306.76,-172.44"/>
</a>
</g>
</g>
<!-- Node8 -->
<g id="Node000008" class="node">
<title>Node8</title>
<g id="a_Node000008"><a xlink:href="subsystems_8cpp.html" target="_top" xlink:title=" ">
<polygon fill="white" stroke="#666666" points="435.25,-76 303.75,-76 303.75,-56 435.25,-56 435.25,-76"/>
<text text-anchor="middle" x="369.5" y="-62.5" font-family="Helvetica,sans-Serif" font-size="10.00">demo/src/subsystems.cpp</text>
</a>
</g>
</g>
<!-- Node2&#45;&gt;Node8 -->
<g id="edge12_Node000002_Node000008" class="edge">
<title>Node2&#45;&gt;Node8</title>
<g id="a_edge12_Node000002_Node000008"><a xlink:title=" ">
<path fill="none" stroke="#63b8ff" d="M344.62,-170.19C349.47,-162.15 354.29,-152.98 357.5,-144 365.88,-120.56 368.41,-91.04 369.17,-76.28"/>
<polygon fill="#63b8ff" stroke="#63b8ff" points="341.81,-168.09 339.4,-178.41 347.72,-171.84 341.81,-168.09"/>
</a>
</g>
</g>
<!-- Node9 -->
<g id="Node000009" class="node">
<title>Node9</title>
<g id="a_Node000009"><a xlink:href="hybrid__renderer_8cpp.html" target="_top" xlink:title=" ">
<polygon fill="white" stroke="#666666" points="613,-144 492,-144 492,-112 613,-112 613,-144"/>
<text text-anchor="start" x="500" y="-130.5" font-family="Helvetica,sans-Serif" font-size="10.00">hybrid&#45;renderer&#45;lib</text>
<text text-anchor="middle" x="552.5" y="-118.5" font-family="Helvetica,sans-Serif" font-size="10.00">/src/hybrid_renderer.cpp</text>
</a>
</g>
</g>
<!-- Node2&#45;&gt;Node9 -->
<g id="edge13_Node000002_Node000009" class="edge">
<title>Node2&#45;&gt;Node9</title>
<g id="a_edge13_Node000002_Node000009"><a xlink:title=" ">
<path fill="none" stroke="#63b8ff" d="M391.1,-176.34C425.39,-166.28 467.21,-154.02 499.69,-144.49"/>
<polygon fill="#63b8ff" stroke="#63b8ff" points="390.32,-172.93 381.7,-179.1 392.29,-179.64 390.32,-172.93"/>
</a>
</g>
</g>
<!-- Node4 -->
<g id="Node000004" class="node">
<title>Node4</title>
<g id="a_Node000004"><a xlink:href="main_8cpp.html" target="_top" xlink:title=" ">
<polygon fill="white" stroke="#666666" points="153.12,-20 53.88,-20 53.88,0 153.12,0 153.12,-20"/>
<text text-anchor="middle" x="103.5" y="-6.5" font-family="Helvetica,sans-Serif" font-size="10.00">demo/src/main.cpp</text>
</a>
</g>
</g>
<!-- Node3&#45;&gt;Node4 -->
<g id="edge3_Node000003_Node000004" class="edge">
<title>Node3&#45;&gt;Node4</title>
<g id="a_edge3_Node000003_Node000004"><a xlink:title=" ">
<path fill="none" stroke="#63b8ff" d="M70.57,-47.29C78.75,-38.28 88.35,-27.7 95.06,-20.3"/>
<polygon fill="#63b8ff" stroke="#63b8ff" points="68.18,-44.72 64.05,-54.47 73.36,-49.42 68.18,-44.72"/>
</a>
</g>
</g>
<!-- Node5&#45;&gt;Node4 -->
<g id="edge5_Node000005_Node000004" class="edge">
<title>Node5&#45;&gt;Node4</title>
<g id="a_edge5_Node000005_Node000004"><a xlink:title=" ">
<path fill="none" stroke="#63b8ff" d="M163.45,-49.54C148.87,-40.17 130.73,-28.51 118.25,-20.48"/>
<polygon fill="#63b8ff" stroke="#63b8ff" points="161.29,-52.31 171.6,-54.78 165.08,-46.42 161.29,-52.31"/>
</a>
</g>
</g>
<!-- Node5&#45;&gt;Node6 -->
<g id="edge6_Node000005_Node000006" class="edge">
<title>Node5&#45;&gt;Node6</title>
<g id="a_edge6_Node000005_Node000006"><a xlink:title=" ">
<path fill="none" stroke="#63b8ff" d="M212.25,-49.81C227.6,-40.39 246.85,-28.58 260.05,-20.48"/>
<polygon fill="#63b8ff" stroke="#63b8ff" points="210.81,-46.59 204.12,-54.8 214.47,-52.56 210.81,-46.59"/>
</a>
</g>
</g>
<!-- Node7&#45;&gt;Node5 -->
<g id="edge8_Node000007_Node000005" class="edge">
<title>Node7&#45;&gt;Node5</title>
<g id="a_edge8_Node000007_Node000005"><a xlink:title=" ">
<path fill="none" stroke="#63b8ff" d="M255.79,-111.54C238.69,-100.39 216.18,-85.71 201.77,-76.31"/>
<polygon fill="#63b8ff" stroke="#63b8ff" points="253.57,-114.27 263.86,-116.8 257.39,-108.4 253.57,-114.27"/>
</a>
</g>
</g>
<!-- Node7&#45;&gt;Node6 -->
<g id="edge9_Node000007_Node000006" class="edge">
<title>Node7&#45;&gt;Node6</title>
<g id="a_edge9_Node000007_Node000006"><a xlink:title=" ">
<path fill="none" stroke="#63b8ff" d="M278.78,-106.23C277.91,-80.8 276.46,-38.84 275.82,-20.3"/>
<polygon fill="#63b8ff" stroke="#63b8ff" points="275.28,-106.12 279.12,-115.99 282.27,-105.88 275.28,-106.12"/>
</a>
</g>
</g>
<!-- Node7&#45;&gt;Node8 -->
<g id="edge10_Node000007_Node000008" class="edge">
<title>Node7&#45;&gt;Node8</title>
<g id="a_edge10_Node000007_Node000008"><a xlink:title=" ">
<path fill="none" stroke="#63b8ff" d="M302.7,-111.54C319.42,-100.39 341.44,-85.71 355.54,-76.31"/>
<polygon fill="#63b8ff" stroke="#63b8ff" points="301.2,-108.33 294.82,-116.79 305.08,-114.15 301.2,-108.33"/>
</a>
</g>
</g>
<!-- Node10&#45;&gt;Node2 -->
<g id="edge15_Node000010_Node000002" class="edge">
<title>Node10&#45;&gt;Node2</title>
<g id="a_edge15_Node000010_Node000002"><a xlink:title=" ">
<path fill="none" stroke="#63b8ff" d="M369.56,-239.71C360.58,-230.59 350.52,-220.37 342.49,-212.22"/>
<polygon fill="#63b8ff" stroke="#63b8ff" points="366.85,-241.95 376.36,-246.61 371.84,-237.03 366.85,-241.95"/>
</a>
</g>
</g>
<!-- Node10&#45;&gt;Node11 -->
<g id="edge16_Node000010_Node000011" class="edge">
<title>Node10&#45;&gt;Node11</title>
<g id="a_edge16_Node000010_Node000011"><a xlink:title=" ">
<path fill="none" stroke="#63b8ff" d="M416.56,-239.99C426.17,-230.79 436.98,-220.46 445.58,-212.22"/>
<polygon fill="#63b8ff" stroke="#63b8ff" points="414.4,-237.2 409.6,-246.65 419.24,-242.26 414.4,-237.2"/>
</a>
</g>
</g>
</g>
</svg>
