<?xml version="1.0" encoding="UTF-8" standalone="no"?>
<!DOCTYPE svg PUBLIC "-//W3C//DTD SVG 1.1//EN"
 "http://www.w3.org/Graphics/SVG/1.1/DTD/svg11.dtd">
<!-- Generated by graphviz version 10.0.1 (20240210.2158)
 -->
<!-- Title: hri::degrees Pages: 1 -->
<svg width="499pt" height="85pt"
 viewBox="0.00 0.00 498.75 85.00" xmlns="http://www.w3.org/2000/svg" xmlns:xlink="http://www.w3.org/1999/xlink">

<svg id="main" version="1.1" xmlns="http://www.w3.org/2000/svg" xmlns:xlink="http://www.w3.org/1999/xlink" xml:space="preserve" onload="init(evt)">
<style type="text/css"><![CDATA[
.node, .edge {opacity: 0.7;}
.node.selected, .edge.selected {opacity: 1;}
.edge:hover path { stroke: red; }
.edge:hover polygon { stroke: red; fill: red; }
]]></style>
<script type="application/ecmascript" xlink:href="svg.min.js"/>
<svg id="graph" class="graph">
<g id="graph0" class="graph" transform="scale(1 1) rotate(0) translate(4 81)">
<title>hri::degrees</title>
<!-- Node1 -->
<g id="Node000001" class="node">
<title>Node1</title>
<g id="a_Node000001"><a xlink:title=" ">
<polygon fill="#999999" stroke="#666666" points="490.75,-58 423.75,-58 423.75,-38 490.75,-38 490.75,-58"/>
<text text-anchor="middle" x="457.25" y="-44.5" font-family="Helvetica,sans-Serif" font-size="10.00">hri::degrees</text>
</a>
</g>
</g>
<!-- Node2 -->
<g id="Node000002" class="node">
<title>Node2</title>
<g id="a_Node000002"><a xlink:href="namespacehri.html#acd3a7c0c786cee7eb37afe8bfb309464" target="_top" xlink:title=" ">
<polygon fill="white" stroke="#666666" points="387.75,-58 323.75,-58 323.75,-38 387.75,-38 387.75,-58"/>
<text text-anchor="middle" x="355.75" y="-44.5" font-family="Helvetica,sans-Serif" font-size="10.00">hri::radians</text>
</a>
</g>
</g>
<!-- Node1&#45;&gt;Node2 -->
<g id="edge1_Node000001_Node000002" class="edge">
<title>Node1&#45;&gt;Node2</title>
<g id="a_edge1_Node000001_Node000002"><a xlink:title=" ">
<path fill="none" stroke="#63b8ff" d="M411.92,-41.29C403.93,-41.18 395.75,-41.31 388.22,-41.67"/>
<polygon fill="#63b8ff" stroke="#63b8ff" points="411.79,-44.78 421.88,-41.57 411.98,-37.79 411.79,-44.78"/>
</a>
</g>
</g>
<!-- Node2&#45;&gt;Node1 -->
<g id="edge2_Node000002_Node000001" class="edge">
<title>Node2&#45;&gt;Node1</title>
<g id="a_edge2_Node000002_Node000001"><a xlink:title=" ">
<path fill="none" stroke="#63b8ff" d="M399.62,-54.69C407.58,-54.83 415.79,-54.73 423.39,-54.39"/>
<polygon fill="#63b8ff" stroke="#63b8ff" points="399.84,-51.2 389.73,-54.38 399.62,-58.19 399.84,-51.2"/>
</a>
</g>
</g>
<!-- Node3 -->
<g id="Node000003" class="node">
<title>Node3</title>
<g id="a_Node000003"><a xlink:href="struct_scene_transform.html#afbe5bdf9740808bc56e3702071134e7d" target="_top" xlink:title="Create a 4x4 transformation matrix representing the model transfom.">
<polygon fill="white" stroke="#666666" points="287.75,-77 142,-77 142,-57 287.75,-57 287.75,-77"/>
<text text-anchor="middle" x="214.88" y="-63.5" font-family="Helvetica,sans-Serif" font-size="10.00">SceneTransform::modelMatrix</text>
</a>
</g>
</g>
<!-- Node2&#45;&gt;Node3 -->
<g id="edge3_Node000002_Node000003" class="edge">
<title>Node2&#45;&gt;Node3</title>
<g id="a_edge3_Node000002_Node000003"><a xlink:title=" ">
<path fill="none" stroke="#63b8ff" d="M312.34,-53.8C304.62,-54.86 296.37,-55.99 288.07,-57.12"/>
<polygon fill="#63b8ff" stroke="#63b8ff" points="312.65,-57.29 322.08,-52.47 311.7,-50.36 312.65,-57.29"/>
</a>
</g>
</g>
<!-- Node4 -->
<g id="Node000004" class="node">
<title>Node4</title>
<g id="a_Node000004"><a xlink:href="classhri_1_1_camera.html#aeb6260cec685087b762690c86519d980" target="_top" xlink:title="Update view &amp; project matrices using basis vectors.">
<polygon fill="white" stroke="#666666" points="284.38,-39 145.38,-39 145.38,-19 284.38,-19 284.38,-39"/>
<text text-anchor="middle" x="214.88" y="-25.5" font-family="Helvetica,sans-Serif" font-size="10.00">hri::Camera::updateMatrices</text>
</a>
</g>
</g>
<!-- Node2&#45;&gt;Node4 -->
<g id="edge4_Node000002_Node000004" class="edge">
<title>Node2&#45;&gt;Node4</title>
<g id="a_edge4_Node000002_Node000004"><a xlink:title=" ">
<path fill="none" stroke="#63b8ff" d="M312.47,-42.22C303.66,-41.01 294.17,-39.71 284.69,-38.41"/>
<polygon fill="#63b8ff" stroke="#63b8ff" points="311.7,-45.64 322.08,-43.53 312.65,-38.71 311.7,-45.64"/>
</a>
</g>
</g>
<!-- Node5 -->
<g id="Node000005" class="node">
<title>Node5</title>
<g id="a_Node000005"><a xlink:href="classhri_1_1_camera.html#a1d5d52436f4eb15ae2d4a2b0feb44fbd" target="_top" xlink:title="Instantiate a camera at the world origin, looking forward, with custom parameters.">
<polygon fill="white" stroke="#666666" points="106,-58 0,-58 0,-38 106,-38 106,-58"/>
<text text-anchor="middle" x="53" y="-44.5" font-family="Helvetica,sans-Serif" font-size="10.00">hri::Camera::Camera</text>
</a>
</g>
</g>
<!-- Node4&#45;&gt;Node5 -->
<g id="edge5_Node000004_Node000005" class="edge">
<title>Node4&#45;&gt;Node5</title>
<g id="a_edge5_Node000004_Node000005"><a xlink:title=" ">
<path fill="none" stroke="#63b8ff" d="M133.78,-38.52C124.43,-39.63 115.08,-40.74 106.25,-41.79"/>
<polygon fill="#63b8ff" stroke="#63b8ff" points="134.13,-42 143.64,-37.35 133.3,-35.05 134.13,-42"/>
</a>
</g>
</g>
<!-- Node6 -->
<g id="Node000006" class="node">
<title>Node6</title>
<g id="a_Node000006"><a xlink:href="classhri_1_1_camera.html#af28880b5e06eb181cf5f4afd82f5c7ae" target="_top" xlink:title="Instantiate a camera.">
<polygon fill="white" stroke="#666666" points="106,-20 0,-20 0,0 106,0 106,-20"/>
<text text-anchor="middle" x="53" y="-6.5" font-family="Helvetica,sans-Serif" font-size="10.00">hri::Camera::Camera</text>
</a>
</g>
</g>
<!-- Node4&#45;&gt;Node6 -->
<g id="edge6_Node000004_Node000006" class="edge">
<title>Node4&#45;&gt;Node6</title>
<g id="a_edge6_Node000004_Node000006"><a xlink:title=" ">
<path fill="none" stroke="#63b8ff" d="M133.78,-19.48C124.43,-18.37 115.08,-17.26 106.25,-16.21"/>
<polygon fill="#63b8ff" stroke="#63b8ff" points="133.3,-22.95 143.64,-20.65 134.13,-16 133.3,-22.95"/>
</a>
</g>
</g>
</g>
</svg>
</svg>

<style type='text/css'>
<![CDATA[
[data-mouse-over-selected='false'] { opacity: 0.7; }
[data-mouse-over-selected='true']  { opacity: 1.0; }
]]>
</style>
<script type="application/ecmascript"><![CDATA[
document.addEventListener('DOMContentLoaded', (event) => {
  highlightEdges();
  highlightAdjacentNodes();
});
]]></script>
</svg>
