<?xml version="1.0" encoding="UTF-8" standalone="no"?>
<!DOCTYPE svg PUBLIC "-//W3C//DTD SVG 1.1//EN"
 "http://www.w3.org/Graphics/SVG/1.1/DTD/svg11.dtd">
<!-- Generated by graphviz version 10.0.1 (20240210.2158)
 -->
<!-- Title: hri::radians Pages: 1 -->
<svg width="396pt" height="123pt"
 viewBox="0.00 0.00 395.75 123.00" xmlns="http://www.w3.org/2000/svg" xmlns:xlink="http://www.w3.org/1999/xlink">
<g id="graph0" class="graph" transform="scale(1 1) rotate(0) translate(4 119)">
<title>hri::radians</title>
<!-- Node1 -->
<g id="Node000001" class="node">
<title>Node1</title>
<g id="a_Node000001"><a xlink:title=" ">
<polygon fill="#999999" stroke="#666666" points="387.75,-96 323.75,-96 323.75,-76 387.75,-76 387.75,-96"/>
<text text-anchor="middle" x="355.75" y="-82.5" font-family="Helvetica,sans-Serif" font-size="10.00">hri::radians</text>
</a>
</g>
</g>
<!-- Node2 -->
<g id="Node000002" class="node">
<title>Node2</title>
<g id="a_Node000002"><a xlink:href="namespacehri.html#a778909c1320f31774fdf25dc126fcb9d" target="_top" xlink:title=" ">
<polygon fill="white" stroke="#666666" points="248.38,-115 181.38,-115 181.38,-95 248.38,-95 248.38,-115"/>
<text text-anchor="middle" x="214.88" y="-101.5" font-family="Helvetica,sans-Serif" font-size="10.00">hri::degrees</text>
</a>
</g>
</g>
<!-- Node1&#45;&gt;Node2 -->
<g id="edge1_Node000001_Node000002" class="edge">
<title>Node1&#45;&gt;Node2</title>
<g id="a_edge1_Node000001_Node000002"><a xlink:title=" ">
<path fill="none" stroke="#63b8ff" d="M312.38,-85.53C291.98,-87.56 267.88,-91 248.87,-94.64"/>
<polygon fill="#63b8ff" stroke="#63b8ff" points="312.43,-89.03 322.08,-84.66 311.8,-82.06 312.43,-89.03"/>
</a>
</g>
</g>
<!-- Node3 -->
<g id="Node000003" class="node">
<title>Node3</title>
<g id="a_Node000003"><a xlink:href="struct_scene_transform.html#afbe5bdf9740808bc56e3702071134e7d" target="_top" xlink:title="Create a 4x4 transformation matrix representing the model transfom.">
<polygon fill="white" stroke="#666666" points="287.75,-77 142,-77 142,-57 287.75,-57 287.75,-77"/>
<text text-anchor="middle" x="214.88" y="-63.5" font-family="Helvetica,sans-Serif" font-size="10.00">SceneTransform::modelMatrix</text>
</a>
</g>
</g>
<!-- Node1&#45;&gt;Node3 -->
<g id="edge3_Node000001_Node000003" class="edge">
<title>Node1&#45;&gt;Node3</title>
<g id="a_edge3_Node000001_Node000003"><a xlink:title=" ">
<path fill="none" stroke="#63b8ff" d="M312.34,-80.2C304.62,-79.14 296.37,-78.01 288.07,-76.88"/>
<polygon fill="#63b8ff" stroke="#63b8ff" points="311.7,-83.64 322.08,-81.53 312.65,-76.71 311.7,-83.64"/>
</a>
</g>
</g>
<!-- Node4 -->
<g id="Node000004" class="node">
<title>Node4</title>
<g id="a_Node000004"><a xlink:href="classhri_1_1_camera.html#aeb6260cec685087b762690c86519d980" target="_top" xlink:title="Update view &amp; project matrices using basis vectors.">
<polygon fill="white" stroke="#666666" points="284.38,-39 145.38,-39 145.38,-19 284.38,-19 284.38,-39"/>
<text text-anchor="middle" x="214.88" y="-25.5" font-family="Helvetica,sans-Serif" font-size="10.00">hri::Camera::updateMatrices</text>
</a>
</g>
</g>
<!-- Node1&#45;&gt;Node4 -->
<g id="edge4_Node000001_Node000004" class="edge">
<title>Node1&#45;&gt;Node4</title>
<g id="a_edge4_Node000001_Node000004"><a xlink:title=" ">
<path fill="none" stroke="#63b8ff" d="M329.57,-69.67C317.32,-62.27 302.16,-53.88 287.75,-48 279.74,-44.73 271,-41.88 262.46,-39.44"/>
<polygon fill="#63b8ff" stroke="#63b8ff" points="327.46,-72.48 337.8,-74.78 331.15,-66.53 327.46,-72.48"/>
</a>
</g>
</g>
<!-- Node2&#45;&gt;Node1 -->
<g id="edge2_Node000002_Node000001" class="edge">
<title>Node2&#45;&gt;Node1</title>
<g id="a_edge2_Node000002_Node000001"><a xlink:title=" ">
<path fill="none" stroke="#63b8ff" d="M260.24,-105.27C280.87,-103.15 304.91,-99.66 323.58,-96"/>
<polygon fill="#63b8ff" stroke="#63b8ff" points="260.01,-101.78 250.38,-106.19 260.66,-108.75 260.01,-101.78"/>
</a>
</g>
</g>
<!-- Node5 -->
<g id="Node000005" class="node">
<title>Node5</title>
<g id="a_Node000005"><a xlink:href="classhri_1_1_camera.html#a1d5d52436f4eb15ae2d4a2b0feb44fbd" target="_top" xlink:title="Instantiate a camera at the world origin, looking forward, with custom parameters.">
<polygon fill="white" stroke="#666666" points="106,-58 0,-58 0,-38 106,-38 106,-58"/>
<text text-anchor="middle" x="53" y="-44.5" font-family="Helvetica,sans-Serif" font-size="10.00">hri::Camera::Camera</text>
</a>
</g>
</g>
<!-- Node4&#45;&gt;Node5 -->
<g id="edge5_Node000004_Node000005" class="edge">
<title>Node4&#45;&gt;Node5</title>
<g id="a_edge5_Node000004_Node000005"><a xlink:title=" ">
<path fill="none" stroke="#63b8ff" d="M133.78,-38.52C124.43,-39.63 115.08,-40.74 106.25,-41.79"/>
<polygon fill="#63b8ff" stroke="#63b8ff" points="134.13,-42 143.64,-37.35 133.3,-35.05 134.13,-42"/>
</a>
</g>
</g>
<!-- Node6 -->
<g id="Node000006" class="node">
<title>Node6</title>
<g id="a_Node000006"><a xlink:href="classhri_1_1_camera.html#af28880b5e06eb181cf5f4afd82f5c7ae" target="_top" xlink:title="Instantiate a camera.">
<polygon fill="white" stroke="#666666" points="106,-20 0,-20 0,0 106,0 106,-20"/>
<text text-anchor="middle" x="53" y="-6.5" font-family="Helvetica,sans-Serif" font-size="10.00">hri::Camera::Camera</text>
</a>
</g>
</g>
<!-- Node4&#45;&gt;Node6 -->
<g id="edge6_Node000004_Node000006" class="edge">
<title>Node4&#45;&gt;Node6</title>
<g id="a_edge6_Node000004_Node000006"><a xlink:title=" ">
<path fill="none" stroke="#63b8ff" d="M133.78,-19.48C124.43,-18.37 115.08,-17.26 106.25,-16.21"/>
<polygon fill="#63b8ff" stroke="#63b8ff" points="133.3,-22.95 143.64,-20.65 134.13,-16 133.3,-22.95"/>
</a>
</g>
</g>
</g>
</svg>
