<?xml version="1.0" encoding="UTF-8" standalone="no"?>
<!DOCTYPE svg PUBLIC "-//W3C//DTD SVG 1.1//EN"
 "http://www.w3.org/Graphics/SVG/1.1/DTD/svg11.dtd">
<!-- Generated by graphviz version 10.0.1 (20240210.2158)
 -->
<!-- Title: hri::dot Pages: 1 -->
<svg width="310pt" height="218pt"
 viewBox="0.00 0.00 309.50 218.00" xmlns="http://www.w3.org/2000/svg" xmlns:xlink="http://www.w3.org/1999/xlink">
<g id="graph0" class="graph" transform="scale(1 1) rotate(0) translate(4 214)">
<title>hri::dot</title>
<!-- Node1 -->
<g id="Node000001" class="node">
<title>Node1</title>
<g id="a_Node000001"><a xlink:title=" ">
<polygon fill="#999999" stroke="#666666" points="301.5,-115 255.5,-115 255.5,-95 301.5,-95 301.5,-115"/>
<text text-anchor="middle" x="278.5" y="-101.5" font-family="Helvetica,sans-Serif" font-size="10.00">hri::dot</text>
</a>
</g>
</g>
<!-- Node2 -->
<g id="Node000002" class="node">
<title>Node2</title>
<g id="a_Node000002"><a xlink:href="namespacehri.html#a973384293c0e408c65e034c68d3f29b4" target="_top" xlink:title=" ">
<polygon fill="white" stroke="#666666" points="219.5,-210 142,-210 142,-190 219.5,-190 219.5,-210"/>
<text text-anchor="middle" x="180.75" y="-196.5" font-family="Helvetica,sans-Serif" font-size="10.00">hri::magnitude</text>
</a>
</g>
</g>
<!-- Node1&#45;&gt;Node2 -->
<g id="edge1_Node000001_Node000002" class="edge">
<title>Node1&#45;&gt;Node2</title>
<g id="a_edge1_Node000001_Node000002"><a xlink:title=" ">
<path fill="none" stroke="#63b8ff" d="M265.78,-125.08C255.31,-141.71 238.68,-165.09 219.5,-181 215.55,-184.28 210.93,-187.19 206.32,-189.68"/>
<polygon fill="#63b8ff" stroke="#63b8ff" points="268.75,-126.94 270.96,-116.58 262.77,-123.3 268.75,-126.94"/>
</a>
</g>
</g>
<!-- Node3 -->
<g id="Node000003" class="node">
<title>Node3</title>
<g id="a_Node000003"><a xlink:href="namespacehri.html#ac16296eb9f9ac2b2fa74fa1d67692fe5" target="_top" xlink:title=" ">
<polygon fill="white" stroke="#666666" points="219.5,-172 142,-172 142,-152 219.5,-152 219.5,-172"/>
<text text-anchor="middle" x="180.75" y="-158.5" font-family="Helvetica,sans-Serif" font-size="10.00">hri::magnitude</text>
</a>
</g>
</g>
<!-- Node1&#45;&gt;Node3 -->
<g id="edge2_Node000001_Node000003" class="edge">
<title>Node1&#45;&gt;Node3</title>
<g id="a_edge2_Node000001_Node000003"><a xlink:title=" ">
<path fill="none" stroke="#63b8ff" d="M253.05,-121.9C242.84,-128.73 230.76,-136.5 219.5,-143 214.42,-145.93 208.82,-148.89 203.53,-151.57"/>
<polygon fill="#63b8ff" stroke="#63b8ff" points="254.96,-124.84 261.28,-116.33 251.04,-119.04 254.96,-124.84"/>
</a>
</g>
</g>
<!-- Node4 -->
<g id="Node000004" class="node">
<title>Node4</title>
<g id="a_Node000004"><a xlink:href="namespacehri.html#a1f956ec3a8e0bc7137496adba95c3ff4" target="_top" xlink:title=" ">
<polygon fill="white" stroke="#666666" points="219.5,-134 142,-134 142,-114 219.5,-114 219.5,-134"/>
<text text-anchor="middle" x="180.75" y="-120.5" font-family="Helvetica,sans-Serif" font-size="10.00">hri::magnitude</text>
</a>
</g>
</g>
<!-- Node1&#45;&gt;Node4 -->
<g id="edge3_Node000001_Node000004" class="edge">
<title>Node1&#45;&gt;Node4</title>
<g id="a_edge3_Node000001_Node000004"><a xlink:title=" ">
<path fill="none" stroke="#63b8ff" d="M244.04,-111.64C236.27,-113.18 227.93,-114.84 219.97,-116.42"/>
<polygon fill="#63b8ff" stroke="#63b8ff" points="244.68,-115.08 253.81,-109.7 243.32,-108.21 244.68,-115.08"/>
</a>
</g>
</g>
<!-- Node5 -->
<g id="Node000005" class="node">
<title>Node5</title>
<g id="a_Node000005"><a xlink:href="namespacehri.html#ac37aa10e96e3d4f0775c3a659f16d490" target="_top" xlink:title=" ">
<polygon fill="white" stroke="#666666" points="218,-96 143.5,-96 143.5,-76 218,-76 218,-96"/>
<text text-anchor="middle" x="180.75" y="-82.5" font-family="Helvetica,sans-Serif" font-size="10.00">hri::normalize</text>
</a>
</g>
</g>
<!-- Node1&#45;&gt;Node5 -->
<g id="edge4_Node000001_Node000005" class="edge">
<title>Node1&#45;&gt;Node5</title>
<g id="a_edge4_Node000001_Node000005"><a xlink:title=" ">
<path fill="none" stroke="#63b8ff" d="M244.12,-98.38C235.83,-96.73 226.9,-94.96 218.46,-93.28"/>
<polygon fill="#63b8ff" stroke="#63b8ff" points="243.32,-101.79 253.81,-100.3 244.68,-94.92 243.32,-101.79"/>
</a>
</g>
</g>
<!-- Node7 -->
<g id="Node000007" class="node">
<title>Node7</title>
<g id="a_Node000007"><a xlink:href="namespacehri.html#a049be5f298c13d3a19e3b014fd1b8a60" target="_top" xlink:title=" ">
<polygon fill="white" stroke="#666666" points="218,-58 143.5,-58 143.5,-38 218,-38 218,-58"/>
<text text-anchor="middle" x="180.75" y="-44.5" font-family="Helvetica,sans-Serif" font-size="10.00">hri::normalize</text>
</a>
</g>
</g>
<!-- Node1&#45;&gt;Node7 -->
<g id="edge6_Node000001_Node000007" class="edge">
<title>Node1&#45;&gt;Node7</title>
<g id="a_edge6_Node000001_Node000007"><a xlink:title=" ">
<path fill="none" stroke="#63b8ff" d="M253.05,-88.1C242.84,-81.27 230.76,-73.5 219.5,-67 214.42,-64.07 208.82,-61.11 203.53,-58.43"/>
<polygon fill="#63b8ff" stroke="#63b8ff" points="251.04,-90.96 261.28,-93.67 254.96,-85.16 251.04,-90.96"/>
</a>
</g>
</g>
<!-- Node8 -->
<g id="Node000008" class="node">
<title>Node8</title>
<g id="a_Node000008"><a xlink:href="namespacehri.html#ae5e9d70d8e442397de8a40bb1af251ac" target="_top" xlink:title=" ">
<polygon fill="white" stroke="#666666" points="218,-20 143.5,-20 143.5,0 218,0 218,-20"/>
<text text-anchor="middle" x="180.75" y="-6.5" font-family="Helvetica,sans-Serif" font-size="10.00">hri::normalize</text>
</a>
</g>
</g>
<!-- Node1&#45;&gt;Node8 -->
<g id="edge7_Node000001_Node000008" class="edge">
<title>Node1&#45;&gt;Node8</title>
<g id="a_edge7_Node000001_Node000008"><a xlink:title=" ">
<path fill="none" stroke="#63b8ff" d="M265.78,-84.92C255.31,-68.29 238.68,-44.91 219.5,-29 215.55,-25.72 210.93,-22.81 206.32,-20.32"/>
<polygon fill="#63b8ff" stroke="#63b8ff" points="262.77,-86.7 270.96,-93.42 268.75,-83.06 262.77,-86.7"/>
</a>
</g>
</g>
<!-- Node6 -->
<g id="Node000006" class="node">
<title>Node6</title>
<g id="a_Node000006"><a xlink:href="classhri_1_1_camera.html#af28880b5e06eb181cf5f4afd82f5c7ae" target="_top" xlink:title="Instantiate a camera.">
<polygon fill="white" stroke="#666666" points="106,-96 0,-96 0,-76 106,-76 106,-96"/>
<text text-anchor="middle" x="53" y="-82.5" font-family="Helvetica,sans-Serif" font-size="10.00">hri::Camera::Camera</text>
</a>
</g>
</g>
<!-- Node5&#45;&gt;Node6 -->
<g id="edge5_Node000005_Node000006" class="edge">
<title>Node5&#45;&gt;Node6</title>
<g id="a_edge5_Node000005_Node000006"><a xlink:title=" ">
<path fill="none" stroke="#63b8ff" d="M131.66,-86C123.4,-86 114.78,-86 106.41,-86"/>
<polygon fill="#63b8ff" stroke="#63b8ff" points="131.53,-89.5 141.53,-86 131.53,-82.5 131.53,-89.5"/>
</a>
</g>
</g>
</g>
</svg>
