<?xml version="1.0" encoding="UTF-8" standalone="no"?>
<!DOCTYPE svg PUBLIC "-//W3C//DTD SVG 1.1//EN"
 "http://www.w3.org/Graphics/SVG/1.1/DTD/svg11.dtd">
<!-- Generated by graphviz version 10.0.1 (20240210.2158)
 -->
<!-- Title: hri::rsqrtf Pages: 1 -->
<svg width="315pt" height="104pt"
 viewBox="0.00 0.00 314.75 104.00" xmlns="http://www.w3.org/2000/svg" xmlns:xlink="http://www.w3.org/1999/xlink">

<svg id="main" version="1.1" xmlns="http://www.w3.org/2000/svg" xmlns:xlink="http://www.w3.org/1999/xlink" xml:space="preserve" onload="init(evt)">
<style type="text/css"><![CDATA[
.node, .edge {opacity: 0.7;}
.node.selected, .edge.selected {opacity: 1;}
.edge:hover path { stroke: red; }
.edge:hover polygon { stroke: red; fill: red; }
]]></style>
<script type="application/ecmascript" xlink:href="svg.min.js"/>
<svg id="graph" class="graph">
<g id="graph0" class="graph" transform="scale(1 1) rotate(0) translate(4 100)">
<title>hri::rsqrtf</title>
<!-- Node1 -->
<g id="Node000001" class="node">
<title>Node1</title>
<g id="a_Node000001"><a xlink:title="Simple inverse square root function.">
<polygon fill="#999999" stroke="#666666" points="306.75,-58 252.5,-58 252.5,-38 306.75,-38 306.75,-58"/>
<text text-anchor="middle" x="279.62" y="-44.5" font-family="Helvetica,sans-Serif" font-size="10.00">hri::rsqrtf</text>
</a>
</g>
</g>
<!-- Node2 -->
<g id="Node000002" class="node">
<title>Node2</title>
<g id="a_Node000002"><a xlink:href="namespacehri.html#ac37aa10e96e3d4f0775c3a659f16d490" target="_top" xlink:title=" ">
<polygon fill="white" stroke="#666666" points="216.5,-96 142,-96 142,-76 216.5,-76 216.5,-96"/>
<text text-anchor="middle" x="179.25" y="-82.5" font-family="Helvetica,sans-Serif" font-size="10.00">hri::normalize</text>
</a>
</g>
</g>
<!-- Node1&#45;&gt;Node2 -->
<g id="edge1_Node000001_Node000002" class="edge">
<title>Node1&#45;&gt;Node2</title>
<g id="a_edge1_Node000001_Node000002"><a xlink:title=" ">
<path fill="none" stroke="#63b8ff" d="M241.46,-62.35C230.09,-66.75 217.8,-71.5 207.24,-75.58"/>
<polygon fill="#63b8ff" stroke="#63b8ff" points="242.52,-65.7 250.59,-58.83 240,-59.17 242.52,-65.7"/>
</a>
</g>
</g>
<!-- Node4 -->
<g id="Node000004" class="node">
<title>Node4</title>
<g id="a_Node000004"><a xlink:href="namespacehri.html#a049be5f298c13d3a19e3b014fd1b8a60" target="_top" xlink:title=" ">
<polygon fill="white" stroke="#666666" points="216.5,-58 142,-58 142,-38 216.5,-38 216.5,-58"/>
<text text-anchor="middle" x="179.25" y="-44.5" font-family="Helvetica,sans-Serif" font-size="10.00">hri::normalize</text>
</a>
</g>
</g>
<!-- Node1&#45;&gt;Node4 -->
<g id="edge3_Node000001_Node000004" class="edge">
<title>Node1&#45;&gt;Node4</title>
<g id="a_edge3_Node000001_Node000004"><a xlink:title=" ">
<path fill="none" stroke="#63b8ff" d="M240.59,-48C232.79,-48 224.61,-48 216.86,-48"/>
<polygon fill="#63b8ff" stroke="#63b8ff" points="240.49,-51.5 250.49,-48 240.49,-44.5 240.49,-51.5"/>
</a>
</g>
</g>
<!-- Node5 -->
<g id="Node000005" class="node">
<title>Node5</title>
<g id="a_Node000005"><a xlink:href="namespacehri.html#ae5e9d70d8e442397de8a40bb1af251ac" target="_top" xlink:title=" ">
<polygon fill="white" stroke="#666666" points="216.5,-20 142,-20 142,0 216.5,0 216.5,-20"/>
<text text-anchor="middle" x="179.25" y="-6.5" font-family="Helvetica,sans-Serif" font-size="10.00">hri::normalize</text>
</a>
</g>
</g>
<!-- Node1&#45;&gt;Node5 -->
<g id="edge4_Node000001_Node000005" class="edge">
<title>Node1&#45;&gt;Node5</title>
<g id="a_edge4_Node000001_Node000005"><a xlink:title=" ">
<path fill="none" stroke="#63b8ff" d="M241.46,-33.65C230.09,-29.25 217.8,-24.5 207.24,-20.42"/>
<polygon fill="#63b8ff" stroke="#63b8ff" points="240,-36.83 250.59,-37.17 242.52,-30.3 240,-36.83"/>
</a>
</g>
</g>
<!-- Node3 -->
<g id="Node000003" class="node">
<title>Node3</title>
<g id="a_Node000003"><a xlink:href="classhri_1_1_camera.html#af28880b5e06eb181cf5f4afd82f5c7ae" target="_top" xlink:title="Instantiate a camera.">
<polygon fill="white" stroke="#666666" points="106,-96 0,-96 0,-76 106,-76 106,-96"/>
<text text-anchor="middle" x="53" y="-82.5" font-family="Helvetica,sans-Serif" font-size="10.00">hri::Camera::Camera</text>
</a>
</g>
</g>
<!-- Node2&#45;&gt;Node3 -->
<g id="edge2_Node000002_Node000003" class="edge">
<title>Node2&#45;&gt;Node3</title>
<g id="a_edge2_Node000002_Node000003"><a xlink:title=" ">
<path fill="none" stroke="#63b8ff" d="M130.16,-86C122.39,-86 114.32,-86 106.46,-86"/>
<polygon fill="#63b8ff" stroke="#63b8ff" points="130.13,-89.5 140.13,-86 130.13,-82.5 130.13,-89.5"/>
</a>
</g>
</g>
</g>
</svg>
</svg>

<style type='text/css'>
<![CDATA[
[data-mouse-over-selected='false'] { opacity: 0.7; }
[data-mouse-over-selected='true']  { opacity: 1.0; }
]]>
</style>
<script type="application/ecmascript"><![CDATA[
document.addEventListener('DOMContentLoaded', (event) => {
  highlightEdges();
  highlightAdjacentNodes();
});
]]></script>
</svg>
