<?xml version="1.0" encoding="UTF-8" standalone="no"?>
<!DOCTYPE svg PUBLIC "-//W3C//DTD SVG 1.1//EN"
 "http://www.w3.org/Graphics/SVG/1.1/DTD/svg11.dtd">
<!-- Generated by graphviz version 10.0.1 (20240210.2158)
 -->
<!-- Title: raytracing::getDeviceAddress Pages: 1 -->
<svg width="550pt" height="216pt"
 viewBox="0.00 0.00 549.50 216.00" xmlns="http://www.w3.org/2000/svg" xmlns:xlink="http://www.w3.org/1999/xlink">
<g id="graph0" class="graph" transform="scale(1 1) rotate(0) translate(4 212)">
<title>raytracing::getDeviceAddress</title>
<!-- Node1 -->
<g id="Node000001" class="node">
<title>Node1</title>
<g id="a_Node000001"><a xlink:title="Get the device address from a buffer resource.">
<polygon fill="#999999" stroke="#666666" points="541.5,-114 398.75,-114 398.75,-94 541.5,-94 541.5,-114"/>
<text text-anchor="middle" x="470.12" y="-100.5" font-family="Helvetica,sans-Serif" font-size="10.00">raytracing::getDeviceAddress</text>
</a>
</g>
</g>
<!-- Node2 -->
<g id="Node000002" class="node">
<title>Node2</title>
<g id="a_Node000002"><a xlink:href="class_scene_a_s_manager.html#ac1e394e99a4742852e700bc941a81541" target="_top" xlink:title=" ">
<polygon fill="white" stroke="#666666" points="362.75,-208 221.5,-208 221.5,-176 362.75,-176 362.75,-208"/>
<text text-anchor="start" x="229.5" y="-194.5" font-family="Helvetica,sans-Serif" font-size="10.00">SceneASManager::cmdBuild</text>
<text text-anchor="middle" x="292.12" y="-182.5" font-family="Helvetica,sans-Serif" font-size="10.00">BLASses</text>
</a>
</g>
</g>
<!-- Node1&#45;&gt;Node2 -->
<g id="edge1_Node000001_Node000002" class="edge">
<title>Node1&#45;&gt;Node2</title>
<g id="a_edge1_Node000001_Node000002"><a xlink:title=" ">
<path fill="none" stroke="#63b8ff" d="M441.37,-120.05C420.12,-132.11 389.93,-148.77 362.75,-162 353.16,-166.67 342.67,-171.38 332.81,-175.65"/>
<polygon fill="#63b8ff" stroke="#63b8ff" points="443.06,-123.12 450.01,-115.12 439.59,-117.04 443.06,-123.12"/>
</a>
</g>
</g>
<!-- Node3 -->
<g id="Node000003" class="node">
<title>Node3</title>
<g id="a_Node000003"><a xlink:href="class_scene_a_s_manager.html#a3a6567c53fd1bbc025b547db857575aa" target="_top" xlink:title=" ">
<polygon fill="white" stroke="#666666" points="175.38,-156 10.12,-156 10.12,-136 175.38,-136 175.38,-156"/>
<text text-anchor="middle" x="92.75" y="-142.5" font-family="Helvetica,sans-Serif" font-size="10.00">SceneASManager::cmdBuildTLAS</text>
</a>
</g>
</g>
<!-- Node1&#45;&gt;Node3 -->
<g id="edge2_Node000001_Node000003" class="edge">
<title>Node1&#45;&gt;Node3</title>
<g id="a_edge2_Node000001_Node000003"><a xlink:title=" ">
<path fill="none" stroke="#63b8ff" d="M420.41,-117.26C402.41,-121.68 381.78,-126.18 362.75,-129 300.37,-138.23 229.13,-142.46 175.64,-144.39"/>
<polygon fill="#63b8ff" stroke="#63b8ff" points="421.2,-120.67 430.05,-114.83 419.49,-113.88 421.2,-120.67"/>
</a>
</g>
</g>
<!-- Node4 -->
<g id="Node000004" class="node">
<title>Node4</title>
<g id="a_Node000004"><a xlink:href="classraytracing_1_1_a_s_builder.html#a42350a22f3a56d2e6fa9ad06a032c723" target="_top" xlink:title="Convert an instance buffer to AS Input.">
<polygon fill="white" stroke="#666666" points="350.75,-120 233.5,-120 233.5,-88 350.75,-88 350.75,-120"/>
<text text-anchor="start" x="241.5" y="-106.5" font-family="Helvetica,sans-Serif" font-size="10.00">raytracing::ASBuilder</text>
<text text-anchor="middle" x="292.12" y="-94.5" font-family="Helvetica,sans-Serif" font-size="10.00">::instancesToGeometry</text>
</a>
</g>
</g>
<!-- Node1&#45;&gt;Node4 -->
<g id="edge3_Node000001_Node000004" class="edge">
<title>Node1&#45;&gt;Node4</title>
<g id="a_edge3_Node000001_Node000004"><a xlink:title=" ">
<path fill="none" stroke="#63b8ff" d="M386.81,-104C374.76,-104 362.56,-104 351.13,-104"/>
<polygon fill="#63b8ff" stroke="#63b8ff" points="386.79,-107.5 396.79,-104 386.79,-100.5 386.79,-107.5"/>
</a>
</g>
</g>
<!-- Node7 -->
<g id="Node000007" class="node">
<title>Node7</title>
<g id="a_Node000007"><a xlink:href="classraytracing_1_1_a_s_builder.html#a001fb433eb6488a9196e30fd27d93bc4" target="_top" xlink:title="Convert a Mesh object&#39;s data to AS Input.">
<polygon fill="white" stroke="#666666" points="346.25,-70 238,-70 238,-38 346.25,-38 346.25,-70"/>
<text text-anchor="start" x="246" y="-56.5" font-family="Helvetica,sans-Serif" font-size="10.00">raytracing::ASBuilder</text>
<text text-anchor="middle" x="292.12" y="-44.5" font-family="Helvetica,sans-Serif" font-size="10.00">::objectToGeometry</text>
</a>
</g>
</g>
<!-- Node1&#45;&gt;Node7 -->
<g id="edge7_Node000001_Node000007" class="edge">
<title>Node1&#45;&gt;Node7</title>
<g id="a_edge7_Node000001_Node000007"><a xlink:title=" ">
<path fill="none" stroke="#63b8ff" d="M421.32,-90.42C398.24,-83.86 370.46,-75.97 346.67,-69.21"/>
<polygon fill="#63b8ff" stroke="#63b8ff" points="420.2,-93.74 430.77,-93.1 422.11,-87.01 420.2,-93.74"/>
</a>
</g>
</g>
<!-- Node8 -->
<g id="Node000008" class="node">
<title>Node8</title>
<g id="a_Node000008"><a xlink:href="class_scene_graph.html#acb456eb3ad39870d6eaba7e50f76f283" target="_top" xlink:title="Create a new scene graph.">
<polygon fill="white" stroke="#666666" points="357.12,-20 227.12,-20 227.12,0 357.12,0 357.12,-20"/>
<text text-anchor="middle" x="292.12" y="-6.5" font-family="Helvetica,sans-Serif" font-size="10.00">SceneGraph::SceneGraph</text>
</a>
</g>
</g>
<!-- Node1&#45;&gt;Node8 -->
<g id="edge8_Node000001_Node000008" class="edge">
<title>Node1&#45;&gt;Node8</title>
<g id="a_edge8_Node000001_Node000008"><a xlink:title=" ">
<path fill="none" stroke="#63b8ff" d="M448.82,-86.4C428.35,-69.49 395.22,-44.3 362.75,-29 355.72,-25.69 348.01,-22.87 340.37,-20.49"/>
<polygon fill="#63b8ff" stroke="#63b8ff" points="446.48,-89.01 456.38,-92.77 450.99,-83.65 446.48,-89.01"/>
</a>
</g>
</g>
<!-- Node4&#45;&gt;Node3 -->
<g id="edge4_Node000004_Node000003" class="edge">
<title>Node4&#45;&gt;Node3</title>
<g id="a_edge4_Node000004_Node000003"><a xlink:title=" ">
<path fill="none" stroke="#63b8ff" d="M222.25,-118.66C196.12,-124.22 166.91,-130.43 142.95,-135.53"/>
<polygon fill="#63b8ff" stroke="#63b8ff" points="222.71,-122.14 231.76,-116.63 221.25,-115.29 222.71,-122.14"/>
</a>
</g>
</g>
<!-- Node5 -->
<g id="Node000005" class="node">
<title>Node5</title>
<g id="a_Node000005"><a xlink:href="class_scene_a_s_manager.html#a5d945af1c6136a2dedcba6caba66b74b" target="_top" xlink:title=" ">
<polygon fill="white" stroke="#666666" points="168.62,-117 16.88,-117 16.88,-97 168.62,-97 168.62,-117"/>
<text text-anchor="middle" x="92.75" y="-103.5" font-family="Helvetica,sans-Serif" font-size="10.00">SceneASManager::createTLAS</text>
</a>
</g>
</g>
<!-- Node4&#45;&gt;Node5 -->
<g id="edge5_Node000004_Node000005" class="edge">
<title>Node4&#45;&gt;Node5</title>
<g id="a_edge5_Node000004_Node000005"><a xlink:title=" ">
<path fill="none" stroke="#63b8ff" d="M222.14,-105.05C204.93,-105.31 186.39,-105.59 168.9,-105.86"/>
<polygon fill="#63b8ff" stroke="#63b8ff" points="221.78,-108.55 231.73,-104.9 221.67,-101.56 221.78,-108.55"/>
</a>
</g>
</g>
<!-- Node6 -->
<g id="Node000006" class="node">
<title>Node6</title>
<g id="a_Node000006"><a xlink:href="class_scene_a_s_manager.html#a0b76beddf292469cd273d91ca2cbcf99" target="_top" xlink:title=" ">
<polygon fill="white" stroke="#666666" points="185.5,-79 0,-79 0,-59 185.5,-59 185.5,-79"/>
<text text-anchor="middle" x="92.75" y="-65.5" font-family="Helvetica,sans-Serif" font-size="10.00">SceneASManager::shouldReallocTLAS</text>
</a>
</g>
</g>
<!-- Node4&#45;&gt;Node6 -->
<g id="edge6_Node000004_Node000006" class="edge">
<title>Node4&#45;&gt;Node6</title>
<g id="a_edge6_Node000004_Node000006"><a xlink:title=" ">
<path fill="none" stroke="#63b8ff" d="M221.99,-91.74C199.37,-87.73 174.46,-83.31 152.66,-79.45"/>
<polygon fill="#63b8ff" stroke="#63b8ff" points="221.29,-95.17 231.75,-93.47 222.51,-88.28 221.29,-95.17"/>
</a>
</g>
</g>
</g>
</svg>
