<?xml version="1.0" encoding="UTF-8" standalone="no"?>
<!DOCTYPE svg PUBLIC "-//W3C//DTD SVG 1.1//EN"
 "http://www.w3.org/Graphics/SVG/1.1/DTD/svg11.dtd">
<!-- Generated by graphviz version 10.0.1 (20240210.2158)
 -->
<!-- Title: hri::radians Pages: 1 -->
<svg width="175pt" height="28pt"
 viewBox="0.00 0.00 175.00 28.00" xmlns="http://www.w3.org/2000/svg" xmlns:xlink="http://www.w3.org/1999/xlink">
<g id="graph0" class="graph" transform="scale(1 1) rotate(0) translate(4 24)">
<title>hri::radians</title>
<!-- Node1 -->
<g id="Node000001" class="node">
<title>Node1</title>
<g id="a_Node000001"><a xlink:title=" ">
<polygon fill="#999999" stroke="#666666" points="64,-20 0,-20 0,0 64,0 64,-20"/>
<text text-anchor="middle" x="32" y="-6.5" font-family="Helvetica,sans-Serif" font-size="10.00">hri::radians</text>
</a>
</g>
</g>
<!-- Node2 -->
<g id="Node000002" class="node">
<title>Node2</title>
<g id="a_Node000002"><a xlink:href="namespacehri.html#a778909c1320f31774fdf25dc126fcb9d" target="_top" xlink:title=" ">
<polygon fill="white" stroke="#666666" points="167,-20 100,-20 100,0 167,0 167,-20"/>
<text text-anchor="middle" x="133.5" y="-6.5" font-family="Helvetica,sans-Serif" font-size="10.00">hri::degrees</text>
</a>
</g>
</g>
<!-- Node1&#45;&gt;Node2 -->
<g id="edge1_Node000001_Node000002" class="edge">
<title>Node1&#45;&gt;Node2</title>
<g id="a_edge1_Node000001_Node000002"><a xlink:title=" ">
<path fill="none" stroke="#63b8ff" d="M64.48,-3.67C71.98,-3.31 80.12,-3.18 88.08,-3.28"/>
<polygon fill="#63b8ff" stroke="#63b8ff" points="87.9,-6.78 97.99,-3.56 88.09,0.22 87.9,-6.78"/>
</a>
</g>
</g>
<!-- Node2&#45;&gt;Node1 -->
<g id="edge2_Node000002_Node000001" class="edge">
<title>Node2&#45;&gt;Node1</title>
<g id="a_edge2_Node000002_Node000001"><a xlink:title=" ">
<path fill="none" stroke="#63b8ff" d="M99.51,-16.4C91.93,-16.73 83.76,-16.83 75.83,-16.69"/>
<polygon fill="#63b8ff" stroke="#63b8ff" points="76.1,-13.2 66,-16.38 75.88,-20.2 76.1,-13.2"/>
</a>
</g>
</g>
</g>
</svg>
