<?xml version="1.0" encoding="UTF-8" standalone="no"?>
<!DOCTYPE svg PUBLIC "-//W3C//DTD SVG 1.1//EN"
 "http://www.w3.org/Graphics/SVG/1.1/DTD/svg11.dtd">
<!-- Generated by graphviz version 10.0.1 (20240210.2158)
 -->
<!-- Title: hri::rsqrtf Pages: 1 -->
<svg width="388pt" height="123pt"
 viewBox="0.00 0.00 387.75 123.00" xmlns="http://www.w3.org/2000/svg" xmlns:xlink="http://www.w3.org/1999/xlink">

<svg id="main" version="1.1" xmlns="http://www.w3.org/2000/svg" xmlns:xlink="http://www.w3.org/1999/xlink" xml:space="preserve" onload="init(evt)">
<style type="text/css"><![CDATA[
.node, .edge {opacity: 0.7;}
.node.selected, .edge.selected {opacity: 1;}
.edge:hover path { stroke: red; }
.edge:hover polygon { stroke: red; fill: red; }
]]></style>
<script type="application/ecmascript" xlink:href="svg.min.js"/>
<svg id="graph" class="graph">
<g id="graph0" class="graph" transform="scale(1 1) rotate(0) translate(4 119)">
<title>hri::rsqrtf</title>
<!-- Node1 -->
<g id="Node000001" class="node">
<title>Node1</title>
<g id="a_Node000001"><a xlink:title="Simple inverse square root function.">
<polygon fill="#999999" stroke="#666666" points="379.75,-58 325.5,-58 325.5,-38 379.75,-38 379.75,-58"/>
<text text-anchor="middle" x="352.62" y="-44.5" font-family="Helvetica,sans-Serif" font-size="10.00">hri::rsqrtf</text>
</a>
</g>
</g>
<!-- Node2 -->
<g id="Node000002" class="node">
<title>Node2</title>
<g id="a_Node000002"><a xlink:href="namespacehri.html#ac37aa10e96e3d4f0775c3a659f16d490" target="_top" xlink:title=" ">
<polygon fill="white" stroke="#666666" points="289.5,-96 215,-96 215,-76 289.5,-76 289.5,-96"/>
<text text-anchor="middle" x="252.25" y="-82.5" font-family="Helvetica,sans-Serif" font-size="10.00">hri::normalize</text>
</a>
</g>
</g>
<!-- Node1&#45;&gt;Node2 -->
<g id="edge1_Node000001_Node000002" class="edge">
<title>Node1&#45;&gt;Node2</title>
<g id="a_edge1_Node000001_Node000002"><a xlink:title=" ">
<path fill="none" stroke="#63b8ff" d="M314.46,-62.35C303.09,-66.75 290.8,-71.5 280.24,-75.58"/>
<polygon fill="#63b8ff" stroke="#63b8ff" points="315.52,-65.7 323.59,-58.83 313,-59.17 315.52,-65.7"/>
</a>
</g>
</g>
<!-- Node6 -->
<g id="Node000006" class="node">
<title>Node6</title>
<g id="a_Node000006"><a xlink:href="namespacehri.html#a049be5f298c13d3a19e3b014fd1b8a60" target="_top" xlink:title=" ">
<polygon fill="white" stroke="#666666" points="289.5,-58 215,-58 215,-38 289.5,-38 289.5,-58"/>
<text text-anchor="middle" x="252.25" y="-44.5" font-family="Helvetica,sans-Serif" font-size="10.00">hri::normalize</text>
</a>
</g>
</g>
<!-- Node1&#45;&gt;Node6 -->
<g id="edge5_Node000001_Node000006" class="edge">
<title>Node1&#45;&gt;Node6</title>
<g id="a_edge5_Node000001_Node000006"><a xlink:title=" ">
<path fill="none" stroke="#63b8ff" d="M313.59,-48C305.79,-48 297.61,-48 289.86,-48"/>
<polygon fill="#63b8ff" stroke="#63b8ff" points="313.49,-51.5 323.49,-48 313.49,-44.5 313.49,-51.5"/>
</a>
</g>
</g>
<!-- Node7 -->
<g id="Node000007" class="node">
<title>Node7</title>
<g id="a_Node000007"><a xlink:href="namespacehri.html#ae5e9d70d8e442397de8a40bb1af251ac" target="_top" xlink:title=" ">
<polygon fill="white" stroke="#666666" points="289.5,-20 215,-20 215,0 289.5,0 289.5,-20"/>
<text text-anchor="middle" x="252.25" y="-6.5" font-family="Helvetica,sans-Serif" font-size="10.00">hri::normalize</text>
</a>
</g>
</g>
<!-- Node1&#45;&gt;Node7 -->
<g id="edge6_Node000001_Node000007" class="edge">
<title>Node1&#45;&gt;Node7</title>
<g id="a_edge6_Node000001_Node000007"><a xlink:title=" ">
<path fill="none" stroke="#63b8ff" d="M314.46,-33.65C303.09,-29.25 290.8,-24.5 280.24,-20.42"/>
<polygon fill="#63b8ff" stroke="#63b8ff" points="313,-36.83 323.59,-37.17 315.52,-30.3 313,-36.83"/>
</a>
</g>
</g>
<!-- Node3 -->
<g id="Node000003" class="node">
<title>Node3</title>
<g id="a_Node000003"><a xlink:href="classhri_1_1_camera.html#af28880b5e06eb181cf5f4afd82f5c7ae" target="_top" xlink:title="Instantiate a camera.">
<polygon fill="white" stroke="#666666" points="179,-115 73,-115 73,-95 179,-95 179,-115"/>
<text text-anchor="middle" x="126" y="-101.5" font-family="Helvetica,sans-Serif" font-size="10.00">hri::Camera::Camera</text>
</a>
</g>
</g>
<!-- Node2&#45;&gt;Node3 -->
<g id="edge2_Node000002_Node000003" class="edge">
<title>Node2&#45;&gt;Node3</title>
<g id="a_edge2_Node000002_Node000003"><a xlink:title=" ">
<path fill="none" stroke="#63b8ff" d="M203.44,-93.31C195.58,-94.51 187.41,-95.76 179.46,-96.98"/>
<polygon fill="#63b8ff" stroke="#63b8ff" points="203.79,-96.8 213.15,-91.83 202.73,-89.88 203.79,-96.8"/>
</a>
</g>
</g>
<!-- Node4 -->
<g id="Node000004" class="node">
<title>Node4</title>
<g id="a_Node000004"><a xlink:href="main_8cpp.html#a35afe9a22644f1030e0558cfe105d18b" target="_top" xlink:title=" ">
<polygon fill="white" stroke="#666666" points="175.62,-77 76.38,-77 76.38,-57 175.62,-57 175.62,-77"/>
<text text-anchor="middle" x="126" y="-63.5" font-family="Helvetica,sans-Serif" font-size="10.00">handleCameraInput</text>
</a>
</g>
</g>
<!-- Node2&#45;&gt;Node4 -->
<g id="edge3_Node000002_Node000004" class="edge">
<title>Node2&#45;&gt;Node4</title>
<g id="a_edge3_Node000002_Node000004"><a xlink:title=" ">
<path fill="none" stroke="#63b8ff" d="M203.45,-78.69C194.38,-77.3 184.88,-75.85 175.78,-74.46"/>
<polygon fill="#63b8ff" stroke="#63b8ff" points="202.73,-82.12 213.15,-80.17 203.79,-75.2 202.73,-82.12"/>
</a>
</g>
</g>
<!-- Node5 -->
<g id="Node000005" class="node">
<title>Node5</title>
<g id="a_Node000005"><a xlink:href="main_8cpp.html#ae66f6b31b5ad750f1fe042a706a4e3d4" target="_top" xlink:title=" ">
<polygon fill="white" stroke="#666666" points="37,-77 0,-77 0,-57 37,-57 37,-77"/>
<text text-anchor="middle" x="18.5" y="-63.5" font-family="Helvetica,sans-Serif" font-size="10.00">main</text>
</a>
</g>
</g>
<!-- Node4&#45;&gt;Node5 -->
<g id="edge4_Node000004_Node000005" class="edge">
<title>Node4&#45;&gt;Node5</title>
<g id="a_edge4_Node000004_Node000005"><a xlink:title=" ">
<path fill="none" stroke="#63b8ff" d="M64.66,-67C54.72,-67 45.15,-67 37.4,-67"/>
<polygon fill="#63b8ff" stroke="#63b8ff" points="64.44,-70.5 74.44,-67 64.44,-63.5 64.44,-70.5"/>
</a>
</g>
</g>
</g>
</svg>
</svg>

<style type='text/css'>
<![CDATA[
[data-mouse-over-selected='false'] { opacity: 0.7; }
[data-mouse-over-selected='true']  { opacity: 1.0; }
]]>
</style>
<script type="application/ecmascript"><![CDATA[
document.addEventListener('DOMContentLoaded', (event) => {
  highlightEdges();
  highlightAdjacentNodes();
});
]]></script>
</svg>
