<?xml version="1.0" encoding="UTF-8" standalone="no"?>
<!DOCTYPE svg PUBLIC "-//W3C//DTD SVG 1.1//EN"
 "http://www.w3.org/Graphics/SVG/1.1/DTD/svg11.dtd">
<!-- Generated by graphviz version 10.0.1 (20240210.2158)
 -->
<!-- Title: hri::dot Pages: 1 -->
<svg width="383pt" height="218pt"
 viewBox="0.00 0.00 382.50 218.00" xmlns="http://www.w3.org/2000/svg" xmlns:xlink="http://www.w3.org/1999/xlink">

<svg id="main" version="1.1" xmlns="http://www.w3.org/2000/svg" xmlns:xlink="http://www.w3.org/1999/xlink" xml:space="preserve" onload="init(evt)">
<style type="text/css"><![CDATA[
.node, .edge {opacity: 0.7;}
.node.selected, .edge.selected {opacity: 1;}
.edge:hover path { stroke: red; }
.edge:hover polygon { stroke: red; fill: red; }
]]></style>
<script type="application/ecmascript" xlink:href="svg.min.js"/>
<svg id="graph" class="graph">
<g id="graph0" class="graph" transform="scale(1 1) rotate(0) translate(4 214)">
<title>hri::dot</title>
<!-- Node1 -->
<g id="Node000001" class="node">
<title>Node1</title>
<g id="a_Node000001"><a xlink:title=" ">
<polygon fill="#999999" stroke="#666666" points="374.5,-115 328.5,-115 328.5,-95 374.5,-95 374.5,-115"/>
<text text-anchor="middle" x="351.5" y="-101.5" font-family="Helvetica,sans-Serif" font-size="10.00">hri::dot</text>
</a>
</g>
</g>
<!-- Node2 -->
<g id="Node000002" class="node">
<title>Node2</title>
<g id="a_Node000002"><a xlink:href="namespacehri.html#a973384293c0e408c65e034c68d3f29b4" target="_top" xlink:title=" ">
<polygon fill="white" stroke="#666666" points="292.5,-210 215,-210 215,-190 292.5,-190 292.5,-210"/>
<text text-anchor="middle" x="253.75" y="-196.5" font-family="Helvetica,sans-Serif" font-size="10.00">hri::magnitude</text>
</a>
</g>
</g>
<!-- Node1&#45;&gt;Node2 -->
<g id="edge1_Node000001_Node000002" class="edge">
<title>Node1&#45;&gt;Node2</title>
<g id="a_edge1_Node000001_Node000002"><a xlink:title=" ">
<path fill="none" stroke="#63b8ff" d="M338.78,-125.08C328.31,-141.71 311.68,-165.09 292.5,-181 288.55,-184.28 283.93,-187.19 279.32,-189.68"/>
<polygon fill="#63b8ff" stroke="#63b8ff" points="341.75,-126.94 343.96,-116.58 335.77,-123.3 341.75,-126.94"/>
</a>
</g>
</g>
<!-- Node3 -->
<g id="Node000003" class="node">
<title>Node3</title>
<g id="a_Node000003"><a xlink:href="namespacehri.html#ac16296eb9f9ac2b2fa74fa1d67692fe5" target="_top" xlink:title=" ">
<polygon fill="white" stroke="#666666" points="292.5,-172 215,-172 215,-152 292.5,-152 292.5,-172"/>
<text text-anchor="middle" x="253.75" y="-158.5" font-family="Helvetica,sans-Serif" font-size="10.00">hri::magnitude</text>
</a>
</g>
</g>
<!-- Node1&#45;&gt;Node3 -->
<g id="edge2_Node000001_Node000003" class="edge">
<title>Node1&#45;&gt;Node3</title>
<g id="a_edge2_Node000001_Node000003"><a xlink:title=" ">
<path fill="none" stroke="#63b8ff" d="M326.05,-121.9C315.84,-128.73 303.76,-136.5 292.5,-143 287.42,-145.93 281.82,-148.89 276.53,-151.57"/>
<polygon fill="#63b8ff" stroke="#63b8ff" points="327.96,-124.84 334.28,-116.33 324.04,-119.04 327.96,-124.84"/>
</a>
</g>
</g>
<!-- Node4 -->
<g id="Node000004" class="node">
<title>Node4</title>
<g id="a_Node000004"><a xlink:href="namespacehri.html#a1f956ec3a8e0bc7137496adba95c3ff4" target="_top" xlink:title=" ">
<polygon fill="white" stroke="#666666" points="292.5,-134 215,-134 215,-114 292.5,-114 292.5,-134"/>
<text text-anchor="middle" x="253.75" y="-120.5" font-family="Helvetica,sans-Serif" font-size="10.00">hri::magnitude</text>
</a>
</g>
</g>
<!-- Node1&#45;&gt;Node4 -->
<g id="edge3_Node000001_Node000004" class="edge">
<title>Node1&#45;&gt;Node4</title>
<g id="a_edge3_Node000001_Node000004"><a xlink:title=" ">
<path fill="none" stroke="#63b8ff" d="M317.04,-111.64C309.27,-113.18 300.93,-114.84 292.97,-116.42"/>
<polygon fill="#63b8ff" stroke="#63b8ff" points="317.68,-115.08 326.81,-109.7 316.32,-108.21 317.68,-115.08"/>
</a>
</g>
</g>
<!-- Node5 -->
<g id="Node000005" class="node">
<title>Node5</title>
<g id="a_Node000005"><a xlink:href="namespacehri.html#ac37aa10e96e3d4f0775c3a659f16d490" target="_top" xlink:title=" ">
<polygon fill="white" stroke="#666666" points="291,-96 216.5,-96 216.5,-76 291,-76 291,-96"/>
<text text-anchor="middle" x="253.75" y="-82.5" font-family="Helvetica,sans-Serif" font-size="10.00">hri::normalize</text>
</a>
</g>
</g>
<!-- Node1&#45;&gt;Node5 -->
<g id="edge4_Node000001_Node000005" class="edge">
<title>Node1&#45;&gt;Node5</title>
<g id="a_edge4_Node000001_Node000005"><a xlink:title=" ">
<path fill="none" stroke="#63b8ff" d="M317.12,-98.38C308.83,-96.73 299.9,-94.96 291.46,-93.28"/>
<polygon fill="#63b8ff" stroke="#63b8ff" points="316.32,-101.79 326.81,-100.3 317.68,-94.92 316.32,-101.79"/>
</a>
</g>
</g>
<!-- Node9 -->
<g id="Node000009" class="node">
<title>Node9</title>
<g id="a_Node000009"><a xlink:href="namespacehri.html#a049be5f298c13d3a19e3b014fd1b8a60" target="_top" xlink:title=" ">
<polygon fill="white" stroke="#666666" points="291,-58 216.5,-58 216.5,-38 291,-38 291,-58"/>
<text text-anchor="middle" x="253.75" y="-44.5" font-family="Helvetica,sans-Serif" font-size="10.00">hri::normalize</text>
</a>
</g>
</g>
<!-- Node1&#45;&gt;Node9 -->
<g id="edge8_Node000001_Node000009" class="edge">
<title>Node1&#45;&gt;Node9</title>
<g id="a_edge8_Node000001_Node000009"><a xlink:title=" ">
<path fill="none" stroke="#63b8ff" d="M326.05,-88.1C315.84,-81.27 303.76,-73.5 292.5,-67 287.42,-64.07 281.82,-61.11 276.53,-58.43"/>
<polygon fill="#63b8ff" stroke="#63b8ff" points="324.04,-90.96 334.28,-93.67 327.96,-85.16 324.04,-90.96"/>
</a>
</g>
</g>
<!-- Node10 -->
<g id="Node000010" class="node">
<title>Node10</title>
<g id="a_Node000010"><a xlink:href="namespacehri.html#ae5e9d70d8e442397de8a40bb1af251ac" target="_top" xlink:title=" ">
<polygon fill="white" stroke="#666666" points="291,-20 216.5,-20 216.5,0 291,0 291,-20"/>
<text text-anchor="middle" x="253.75" y="-6.5" font-family="Helvetica,sans-Serif" font-size="10.00">hri::normalize</text>
</a>
</g>
</g>
<!-- Node1&#45;&gt;Node10 -->
<g id="edge9_Node000001_Node000010" class="edge">
<title>Node1&#45;&gt;Node10</title>
<g id="a_edge9_Node000001_Node000010"><a xlink:title=" ">
<path fill="none" stroke="#63b8ff" d="M338.78,-84.92C328.31,-68.29 311.68,-44.91 292.5,-29 288.55,-25.72 283.93,-22.81 279.32,-20.32"/>
<polygon fill="#63b8ff" stroke="#63b8ff" points="335.77,-86.7 343.96,-93.42 341.75,-83.06 335.77,-86.7"/>
</a>
</g>
</g>
<!-- Node6 -->
<g id="Node000006" class="node">
<title>Node6</title>
<g id="a_Node000006"><a xlink:href="classhri_1_1_camera.html#af28880b5e06eb181cf5f4afd82f5c7ae" target="_top" xlink:title="Instantiate a camera.">
<polygon fill="white" stroke="#666666" points="179,-115 73,-115 73,-95 179,-95 179,-115"/>
<text text-anchor="middle" x="126" y="-101.5" font-family="Helvetica,sans-Serif" font-size="10.00">hri::Camera::Camera</text>
</a>
</g>
</g>
<!-- Node5&#45;&gt;Node6 -->
<g id="edge5_Node000005_Node000006" class="edge">
<title>Node5&#45;&gt;Node6</title>
<g id="a_edge5_Node000005_Node000006"><a xlink:title=" ">
<path fill="none" stroke="#63b8ff" d="M204.66,-93.27C196.4,-94.51 187.78,-95.82 179.41,-97.08"/>
<polygon fill="#63b8ff" stroke="#63b8ff" points="205.18,-96.73 214.54,-91.77 204.13,-89.81 205.18,-96.73"/>
</a>
</g>
</g>
<!-- Node7 -->
<g id="Node000007" class="node">
<title>Node7</title>
<g id="a_Node000007"><a xlink:href="main_8cpp.html#a35afe9a22644f1030e0558cfe105d18b" target="_top" xlink:title=" ">
<polygon fill="white" stroke="#666666" points="175.62,-77 76.38,-77 76.38,-57 175.62,-57 175.62,-77"/>
<text text-anchor="middle" x="126" y="-63.5" font-family="Helvetica,sans-Serif" font-size="10.00">handleCameraInput</text>
</a>
</g>
</g>
<!-- Node5&#45;&gt;Node7 -->
<g id="edge6_Node000005_Node000007" class="edge">
<title>Node5&#45;&gt;Node7</title>
<g id="a_edge6_Node000005_Node000007"><a xlink:title=" ">
<path fill="none" stroke="#63b8ff" d="M204.74,-78.75C195.22,-77.31 185.22,-75.8 175.69,-74.36"/>
<polygon fill="#63b8ff" stroke="#63b8ff" points="204.13,-82.19 214.54,-80.23 205.18,-75.27 204.13,-82.19"/>
</a>
</g>
</g>
<!-- Node8 -->
<g id="Node000008" class="node">
<title>Node8</title>
<g id="a_Node000008"><a xlink:href="main_8cpp.html#ae66f6b31b5ad750f1fe042a706a4e3d4" target="_top" xlink:title=" ">
<polygon fill="white" stroke="#666666" points="37,-77 0,-77 0,-57 37,-57 37,-77"/>
<text text-anchor="middle" x="18.5" y="-63.5" font-family="Helvetica,sans-Serif" font-size="10.00">main</text>
</a>
</g>
</g>
<!-- Node7&#45;&gt;Node8 -->
<g id="edge7_Node000007_Node000008" class="edge">
<title>Node7&#45;&gt;Node8</title>
<g id="a_edge7_Node000007_Node000008"><a xlink:title=" ">
<path fill="none" stroke="#63b8ff" d="M64.66,-67C54.72,-67 45.15,-67 37.4,-67"/>
<polygon fill="#63b8ff" stroke="#63b8ff" points="64.44,-70.5 74.44,-67 64.44,-63.5 64.44,-70.5"/>
</a>
</g>
</g>
</g>
</svg>
</svg>

<style type='text/css'>
<![CDATA[
[data-mouse-over-selected='false'] { opacity: 0.7; }
[data-mouse-over-selected='true']  { opacity: 1.0; }
]]>
</style>
<script type="application/ecmascript"><![CDATA[
document.addEventListener('DOMContentLoaded', (event) => {
  highlightEdges();
  highlightAdjacentNodes();
});
]]></script>
</svg>
