<?xml version="1.0" encoding="UTF-8" standalone="no"?>
<!DOCTYPE svg PUBLIC "-//W3C//DTD SVG 1.1//EN"
 "http://www.w3.org/Graphics/SVG/1.1/DTD/svg11.dtd">
<!-- Generated by graphviz version 10.0.1 (20240210.2158)
 -->
<!-- Title: hybrid&#45;renderer&#45;lib/include/platform.h Pages: 1 -->
<svg width="1762pt" height="564pt"
 viewBox="0.00 0.00 1762.02 564.00" xmlns="http://www.w3.org/2000/svg" xmlns:xlink="http://www.w3.org/1999/xlink">
<g id="graph0" class="graph" transform="scale(1 1) rotate(0) translate(4 560)">
<title>hybrid&#45;renderer&#45;lib/include/platform.h</title>
<!-- Node1 -->
<g id="Node000001" class="node">
<title>Node1</title>
<g id="a_Node000001"><a xlink:title=" ">
<polygon fill="#999999" stroke="#666666" points="1154.38,-556 1058.88,-556 1058.88,-524 1154.38,-524 1154.38,-556"/>
<text text-anchor="start" x="1066.88" y="-542.5" font-family="Helvetica,sans-Serif" font-size="10.00">hybrid&#45;renderer&#45;lib</text>
<text text-anchor="middle" x="1106.62" y="-530.5" font-family="Helvetica,sans-Serif" font-size="10.00">/include/platform.h</text>
</a>
</g>
</g>
<!-- Node2 -->
<g id="Node000002" class="node">
<title>Node2</title>
<g id="a_Node000002"><a xlink:href="hri__math_8h.html" target="_top" xlink:title=" ">
<polygon fill="white" stroke="#666666" points="413.88,-402 315.38,-402 315.38,-370 413.88,-370 413.88,-402"/>
<text text-anchor="start" x="323.38" y="-388.5" font-family="Helvetica,sans-Serif" font-size="10.00">hybrid&#45;renderer&#45;lib</text>
<text text-anchor="middle" x="364.62" y="-376.5" font-family="Helvetica,sans-Serif" font-size="10.00">/include/hri_math.h</text>
</a>
</g>
</g>
<!-- Node1&#45;&gt;Node2 -->
<g id="edge1_Node000001_Node000002" class="edge">
<title>Node1&#45;&gt;Node2</title>
<g id="a_edge1_Node000001_Node000002"><a xlink:title=" ">
<path fill="none" stroke="#63b8ff" d="M1046.91,-538.11C914.36,-535.48 599.49,-525.37 500.62,-488 450.28,-468.97 402.42,-425.54 379.21,-402.31"/>
<polygon fill="#63b8ff" stroke="#63b8ff" points="1046.82,-541.61 1056.89,-538.3 1046.96,-534.61 1046.82,-541.61"/>
</a>
</g>
</g>
<!-- Node4 -->
<g id="Node000004" class="node">
<title>Node4</title>
<g id="a_Node000004"><a xlink:href="hybrid__renderer_8h.html" target="_top" xlink:title=" ">
<polygon fill="white" stroke="#666666" points="635.5,-162 507.75,-162 507.75,-130 635.5,-130 635.5,-162"/>
<text text-anchor="start" x="515.75" y="-148.5" font-family="Helvetica,sans-Serif" font-size="10.00">hybrid&#45;renderer&#45;lib</text>
<text text-anchor="middle" x="571.62" y="-136.5" font-family="Helvetica,sans-Serif" font-size="10.00">/include/hybrid_renderer.h</text>
</a>
</g>
</g>
<!-- Node1&#45;&gt;Node4 -->
<g id="edge24_Node000001_Node000004" class="edge">
<title>Node1&#45;&gt;Node4</title>
<g id="a_edge24_Node000001_Node000004"><a xlink:title=" ">
<path fill="none" stroke="#63b8ff" d="M1047.45,-536.36C897.53,-528.08 514.62,-496.23 514.62,-387 514.62,-387 514.62,-387 514.62,-305 514.62,-249.89 545.69,-190.03 561.96,-162.48"/>
<polygon fill="#63b8ff" stroke="#63b8ff" points="1047,-539.84 1057.17,-536.88 1047.37,-532.85 1047,-539.84"/>
</a>
</g>
</g>
<!-- Node11 -->
<g id="Node000011" class="node">
<title>Node11</title>
<g id="a_Node000011"><a xlink:href="material_8h.html" target="_top" xlink:title=" ">
<polygon fill="white" stroke="#666666" points="150.38,-322 54.88,-322 54.88,-290 150.38,-290 150.38,-322"/>
<text text-anchor="start" x="62.88" y="-308.5" font-family="Helvetica,sans-Serif" font-size="10.00">hybrid&#45;renderer&#45;lib</text>
<text text-anchor="middle" x="102.62" y="-296.5" font-family="Helvetica,sans-Serif" font-size="10.00">/include/material.h</text>
</a>
</g>
</g>
<!-- Node1&#45;&gt;Node11 -->
<g id="edge25_Node000001_Node000011" class="edge">
<title>Node1&#45;&gt;Node11</title>
<g id="a_edge25_Node000001_Node000011"><a xlink:title=" ">
<path fill="none" stroke="#63b8ff" d="M1047.43,-537.86C903.85,-534.58 540.41,-522.98 424.62,-488 300.31,-450.45 171.19,-359.05 122.65,-322.49"/>
<polygon fill="#63b8ff" stroke="#63b8ff" points="1047.01,-541.36 1057.08,-538.08 1047.16,-534.36 1047.01,-541.36"/>
</a>
</g>
</g>
<!-- Node16 -->
<g id="Node000016" class="node">
<title>Node16</title>
<g id="a_Node000016"><a xlink:href="render__context_8h.html" target="_top" xlink:title=" ">
<polygon fill="white" stroke="#666666" points="1169,-488 1044.25,-488 1044.25,-444 1169,-444 1169,-488"/>
<text text-anchor="start" x="1052.25" y="-474.5" font-family="Helvetica,sans-Serif" font-size="10.00">hybrid&#45;renderer&#45;lib</text>
<text text-anchor="start" x="1052.25" y="-462.5" font-family="Helvetica,sans-Serif" font-size="10.00">/include/renderer_internal</text>
<text text-anchor="middle" x="1106.62" y="-450.5" font-family="Helvetica,sans-Serif" font-size="10.00">/render_context.h</text>
</a>
</g>
</g>
<!-- Node1&#45;&gt;Node16 -->
<g id="edge26_Node000001_Node000016" class="edge">
<title>Node1&#45;&gt;Node16</title>
<g id="a_edge26_Node000001_Node000016"><a xlink:title=" ">
<path fill="none" stroke="#63b8ff" d="M1106.62,-512.38C1106.62,-504.43 1106.62,-495.82 1106.62,-488.26"/>
<polygon fill="#63b8ff" stroke="#63b8ff" points="1103.13,-512.22 1106.63,-522.22 1110.13,-512.22 1103.13,-512.22"/>
</a>
</g>
</g>
<!-- Node29 -->
<g id="Node000029" class="node">
<title>Node29</title>
<g id="a_Node000029"><a xlink:href="render__core_8h.html" target="_top" xlink:title=" ">
<polygon fill="white" stroke="#666666" points="1535,-408 1410.25,-408 1410.25,-364 1535,-364 1535,-408"/>
<text text-anchor="start" x="1418.25" y="-394.5" font-family="Helvetica,sans-Serif" font-size="10.00">hybrid&#45;renderer&#45;lib</text>
<text text-anchor="start" x="1418.25" y="-382.5" font-family="Helvetica,sans-Serif" font-size="10.00">/include/renderer_internal</text>
<text text-anchor="middle" x="1472.62" y="-370.5" font-family="Helvetica,sans-Serif" font-size="10.00">/render_core.h</text>
</a>
</g>
</g>
<!-- Node1&#45;&gt;Node29 -->
<g id="edge65_Node000001_Node000029" class="edge">
<title>Node1&#45;&gt;Node29</title>
<g id="a_edge65_Node000001_Node000029"><a xlink:title=" ">
<path fill="none" stroke="#63b8ff" d="M1154.27,-519.21C1223.17,-490.6 1350.11,-437.88 1421.11,-408.39"/>
<polygon fill="#63b8ff" stroke="#63b8ff" points="1153.02,-515.94 1145.13,-523.01 1155.71,-522.41 1153.02,-515.94"/>
</a>
</g>
</g>
<!-- Node30 -->
<g id="Node000030" class="node">
<title>Node30</title>
<g id="a_Node000030"><a xlink:href="render__core_8cpp.html" target="_top" xlink:title=" ">
<polygon fill="white" stroke="#666666" points="1698.38,-328 1590.88,-328 1590.88,-284 1698.38,-284 1698.38,-328"/>
<text text-anchor="start" x="1598.88" y="-314.5" font-family="Helvetica,sans-Serif" font-size="10.00">hybrid&#45;renderer&#45;lib</text>
<text text-anchor="start" x="1598.88" y="-302.5" font-family="Helvetica,sans-Serif" font-size="10.00">/src/renderer_internal</text>
<text text-anchor="middle" x="1644.62" y="-290.5" font-family="Helvetica,sans-Serif" font-size="10.00">/render_core.cpp</text>
</a>
</g>
</g>
<!-- Node1&#45;&gt;Node30 -->
<g id="edge67_Node000001_Node000030" class="edge">
<title>Node1&#45;&gt;Node30</title>
<g id="a_edge67_Node000001_Node000030"><a xlink:title=" ">
<path fill="none" stroke="#63b8ff" d="M1165.67,-536.22C1309.94,-528.04 1673.83,-498.65 1745.62,-408 1757.77,-392.67 1755.49,-380.89 1745.62,-364 1735.22,-346.18 1716.95,-333.49 1698.79,-324.68"/>
<polygon fill="#63b8ff" stroke="#63b8ff" points="1165.74,-532.71 1155.95,-536.75 1166.13,-539.7 1165.74,-532.71"/>
</a>
</g>
</g>
<!-- Node31 -->
<g id="Node000031" class="node">
<title>Node31</title>
<g id="a_Node000031"><a xlink:href="render__context_8cpp.html" target="_top" xlink:title=" ">
<polygon fill="white" stroke="#666666" points="1736.38,-408 1628.88,-408 1628.88,-364 1736.38,-364 1736.38,-408"/>
<text text-anchor="start" x="1636.88" y="-394.5" font-family="Helvetica,sans-Serif" font-size="10.00">hybrid&#45;renderer&#45;lib</text>
<text text-anchor="start" x="1636.88" y="-382.5" font-family="Helvetica,sans-Serif" font-size="10.00">/src/renderer_internal</text>
<text text-anchor="middle" x="1682.62" y="-370.5" font-family="Helvetica,sans-Serif" font-size="10.00">/render_context.cpp</text>
</a>
</g>
</g>
<!-- Node1&#45;&gt;Node31 -->
<g id="edge66_Node000001_Node000031" class="edge">
<title>Node1&#45;&gt;Node31</title>
<g id="a_edge66_Node000001_Node000031"><a xlink:title=" ">
<path fill="none" stroke="#63b8ff" d="M1165.72,-524.24C1260.01,-500.56 1450.24,-452.22 1610.62,-408 1616.4,-406.41 1622.42,-404.71 1628.42,-403"/>
<polygon fill="#63b8ff" stroke="#63b8ff" points="1165.02,-520.81 1156.17,-526.64 1166.72,-527.6 1165.02,-520.81"/>
</a>
</g>
</g>
<!-- Node3 -->
<g id="Node000003" class="node">
<title>Node3</title>
<g id="a_Node000003"><a xlink:href="camera_8h.html" target="_top" xlink:title=" ">
<polygon fill="white" stroke="#666666" points="373.25,-322 280,-322 280,-290 373.25,-290 373.25,-322"/>
<text text-anchor="start" x="288" y="-308.5" font-family="Helvetica,sans-Serif" font-size="10.00">hybrid&#45;renderer&#45;lib</text>
<text text-anchor="middle" x="326.62" y="-296.5" font-family="Helvetica,sans-Serif" font-size="10.00">/include/camera.h</text>
</a>
</g>
</g>
<!-- Node2&#45;&gt;Node3 -->
<g id="edge2_Node000002_Node000003" class="edge">
<title>Node2&#45;&gt;Node3</title>
<g id="a_edge2_Node000002_Node000003"><a xlink:title=" ">
<path fill="none" stroke="#63b8ff" d="M352.19,-359.49C346.22,-347.23 339.27,-332.95 334.12,-322.38"/>
<polygon fill="#63b8ff" stroke="#63b8ff" points="348.93,-360.77 356.45,-368.23 355.22,-357.71 348.93,-360.77"/>
</a>
</g>
</g>
<!-- Node2&#45;&gt;Node4 -->
<g id="edge12_Node000002_Node000004" class="edge">
<title>Node2&#45;&gt;Node4</title>
<g id="a_edge12_Node000002_Node000004"><a xlink:title=" ">
<path fill="none" stroke="#63b8ff" d="M380.07,-360.65C403.65,-324.41 451.14,-255.1 500.62,-204 515.69,-188.44 534.97,-173.21 549.63,-162.41"/>
<polygon fill="#63b8ff" stroke="#63b8ff" points="377.37,-358.37 374.89,-368.67 383.25,-362.17 377.37,-358.37"/>
</a>
</g>
</g>
<!-- Node10 -->
<g id="Node000010" class="node">
<title>Node10</title>
<g id="a_Node000010"><a xlink:href="camera_8cpp.html" target="_top" xlink:title=" ">
<polygon fill="white" stroke="#666666" points="448.25,-242 355,-242 355,-210 448.25,-210 448.25,-242"/>
<text text-anchor="start" x="363" y="-228.5" font-family="Helvetica,sans-Serif" font-size="10.00">hybrid&#45;renderer&#45;lib</text>
<text text-anchor="middle" x="401.62" y="-216.5" font-family="Helvetica,sans-Serif" font-size="10.00">/src/camera.cpp</text>
</a>
</g>
</g>
<!-- Node2&#45;&gt;Node10 -->
<g id="edge23_Node000002_Node000010" class="edge">
<title>Node2&#45;&gt;Node10</title>
<g id="a_edge23_Node000002_Node000010"><a xlink:title=" ">
<path fill="none" stroke="#63b8ff" d="M373.63,-358.78C376.74,-349.17 380.07,-338.16 382.62,-328 390.18,-297.89 396.24,-262.05 399.35,-242.18"/>
<polygon fill="#63b8ff" stroke="#63b8ff" points="370.32,-357.63 370.5,-368.22 376.97,-359.83 370.32,-357.63"/>
</a>
</g>
</g>
<!-- Node2&#45;&gt;Node11 -->
<g id="edge13_Node000002_Node000011" class="edge">
<title>Node2&#45;&gt;Node11</title>
<g id="a_edge13_Node000002_Node000011"><a xlink:title=" ">
<path fill="none" stroke="#63b8ff" d="M304.17,-369.79C262.9,-359.03 207.11,-343.77 158.62,-328 153.39,-326.3 147.92,-324.4 142.55,-322.46"/>
<polygon fill="#63b8ff" stroke="#63b8ff" points="303.12,-373.13 313.68,-372.25 304.88,-366.35 303.12,-373.13"/>
</a>
</g>
</g>
<!-- Node14 -->
<g id="Node000014" class="node">
<title>Node14</title>
<g id="a_Node000014"><a xlink:href="mesh_8h.html" target="_top" xlink:title=" ">
<polygon fill="white" stroke="#666666" points="261.25,-322 168,-322 168,-290 261.25,-290 261.25,-322"/>
<text text-anchor="start" x="176" y="-308.5" font-family="Helvetica,sans-Serif" font-size="10.00">hybrid&#45;renderer&#45;lib</text>
<text text-anchor="middle" x="214.62" y="-296.5" font-family="Helvetica,sans-Serif" font-size="10.00">/include/mesh.h</text>
</a>
</g>
</g>
<!-- Node2&#45;&gt;Node14 -->
<g id="edge18_Node000002_Node000014" class="edge">
<title>Node2&#45;&gt;Node14</title>
<g id="a_edge18_Node000002_Node000014"><a xlink:title=" ">
<path fill="none" stroke="#63b8ff" d="M324.95,-364.37C299.61,-351.19 267.29,-334.39 244.2,-322.38"/>
<polygon fill="#63b8ff" stroke="#63b8ff" points="323.16,-367.38 333.65,-368.89 326.39,-361.17 323.16,-367.38"/>
</a>
</g>
</g>
<!-- Node3&#45;&gt;Node4 -->
<g id="edge3_Node000003_Node000004" class="edge">
<title>Node3&#45;&gt;Node4</title>
<g id="a_edge3_Node000003_Node000004"><a xlink:title=" ">
<path fill="none" stroke="#63b8ff" d="M324.29,-278.58C323.8,-255.9 326.97,-223.83 345.62,-204 367.53,-180.72 448.48,-164.46 507.25,-155.43"/>
<polygon fill="#63b8ff" stroke="#63b8ff" points="320.78,-278.44 324.76,-288.25 327.77,-278.1 320.78,-278.44"/>
</a>
</g>
</g>
<!-- Node3&#45;&gt;Node10 -->
<g id="edge11_Node000003_Node000010" class="edge">
<title>Node3&#45;&gt;Node10</title>
<g id="a_edge11_Node000003_Node000010"><a xlink:title=" ">
<path fill="none" stroke="#63b8ff" d="M349.39,-281.33C361.55,-268.68 376.16,-253.48 386.84,-242.38"/>
<polygon fill="#63b8ff" stroke="#63b8ff" points="346.9,-278.86 342.49,-288.5 351.95,-283.72 346.9,-278.86"/>
</a>
</g>
</g>
<!-- Node5 -->
<g id="Node000005" class="node">
<title>Node5</title>
<g id="a_Node000005"><a xlink:href="demo_8h.html" target="_top" xlink:title=" ">
<polygon fill="white" stroke="#666666" points="436.12,-82 327.12,-82 327.12,-62 436.12,-62 436.12,-82"/>
<text text-anchor="middle" x="381.62" y="-68.5" font-family="Helvetica,sans-Serif" font-size="10.00">demo/include/demo.h</text>
</a>
</g>
</g>
<!-- Node4&#45;&gt;Node5 -->
<g id="edge4_Node000004_Node000005" class="edge">
<title>Node4&#45;&gt;Node5</title>
<g id="a_edge4_Node000004_Node000005"><a xlink:title=" ">
<path fill="none" stroke="#63b8ff" d="M520.31,-125.55C483.46,-111.59 435.4,-93.38 406.62,-82.47"/>
<polygon fill="#63b8ff" stroke="#63b8ff" points="518.86,-128.75 529.45,-129.02 521.34,-122.2 518.86,-128.75"/>
</a>
</g>
</g>
<!-- Node7 -->
<g id="Node000007" class="node">
<title>Node7</title>
<g id="a_Node000007"><a xlink:href="subsystems_8h.html" target="_top" xlink:title=" ">
<polygon fill="white" stroke="#666666" points="592.75,-82 454.5,-82 454.5,-62 592.75,-62 592.75,-82"/>
<text text-anchor="middle" x="523.62" y="-68.5" font-family="Helvetica,sans-Serif" font-size="10.00">demo/include/subsystems.h</text>
</a>
</g>
</g>
<!-- Node4&#45;&gt;Node7 -->
<g id="edge6_Node000004_Node000007" class="edge">
<title>Node4&#45;&gt;Node7</title>
<g id="a_edge6_Node000004_Node000007"><a xlink:title=" ">
<path fill="none" stroke="#63b8ff" d="M555.15,-120.28C546.42,-107.19 536.21,-91.88 529.83,-82.31"/>
<polygon fill="#63b8ff" stroke="#63b8ff" points="552.15,-122.09 560.61,-128.47 557.97,-118.21 552.15,-122.09"/>
</a>
</g>
</g>
<!-- Node8 -->
<g id="Node000008" class="node">
<title>Node8</title>
<g id="a_Node000008"><a xlink:href="subsystems_8cpp.html" target="_top" xlink:title=" ">
<polygon fill="white" stroke="#666666" points="637.38,-20 505.88,-20 505.88,0 637.38,0 637.38,-20"/>
<text text-anchor="middle" x="571.62" y="-6.5" font-family="Helvetica,sans-Serif" font-size="10.00">demo/src/subsystems.cpp</text>
</a>
</g>
</g>
<!-- Node4&#45;&gt;Node8 -->
<g id="edge9_Node000004_Node000008" class="edge">
<title>Node4&#45;&gt;Node8</title>
<g id="a_edge9_Node000004_Node000008"><a xlink:title=" ">
<path fill="none" stroke="#63b8ff" d="M588.68,-120.05C598.7,-102.28 608.22,-77.79 601.62,-56 597.49,-42.34 587.69,-29.04 580.41,-20.48"/>
<polygon fill="#63b8ff" stroke="#63b8ff" points="585.83,-118 583.63,-128.36 591.81,-121.64 585.83,-118"/>
</a>
</g>
</g>
<!-- Node9 -->
<g id="Node000009" class="node">
<title>Node9</title>
<g id="a_Node000009"><a xlink:href="hybrid__renderer_8cpp.html" target="_top" xlink:title=" ">
<polygon fill="white" stroke="#666666" points="770.12,-88 649.12,-88 649.12,-56 770.12,-56 770.12,-88"/>
<text text-anchor="start" x="657.12" y="-74.5" font-family="Helvetica,sans-Serif" font-size="10.00">hybrid&#45;renderer&#45;lib</text>
<text text-anchor="middle" x="709.62" y="-62.5" font-family="Helvetica,sans-Serif" font-size="10.00">/src/hybrid_renderer.cpp</text>
</a>
</g>
</g>
<!-- Node4&#45;&gt;Node9 -->
<g id="edge10_Node000004_Node000009" class="edge">
<title>Node4&#45;&gt;Node9</title>
<g id="a_edge10_Node000004_Node000009"><a xlink:title=" ">
<path fill="none" stroke="#63b8ff" d="M611.24,-124.33C633.17,-112.89 659.98,-98.9 680.07,-88.42"/>
<polygon fill="#63b8ff" stroke="#63b8ff" points="609.82,-121.13 602.57,-128.85 613.06,-127.33 609.82,-121.13"/>
</a>
</g>
</g>
<!-- Node6 -->
<g id="Node000006" class="node">
<title>Node6</title>
<g id="a_Node000006"><a xlink:href="main_8cpp.html" target="_top" xlink:title=" ">
<polygon fill="white" stroke="#666666" points="484.25,-20 385,-20 385,0 484.25,0 484.25,-20"/>
<text text-anchor="middle" x="434.62" y="-6.5" font-family="Helvetica,sans-Serif" font-size="10.00">demo/src/main.cpp</text>
</a>
</g>
</g>
<!-- Node5&#45;&gt;Node6 -->
<g id="edge5_Node000005_Node000006" class="edge">
<title>Node5&#45;&gt;Node6</title>
<g id="a_edge5_Node000005_Node000006"><a xlink:title=" ">
<path fill="none" stroke="#63b8ff" d="M397.3,-53.25C406.92,-42.36 418.83,-28.88 426.58,-20.11"/>
<polygon fill="#63b8ff" stroke="#63b8ff" points="394.91,-50.68 390.91,-60.49 400.15,-55.31 394.91,-50.68"/>
</a>
</g>
</g>
<!-- Node7&#45;&gt;Node6 -->
<g id="edge7_Node000007_Node000006" class="edge">
<title>Node7&#45;&gt;Node6</title>
<g id="a_edge7_Node000007_Node000006"><a xlink:title=" ">
<path fill="none" stroke="#63b8ff" d="M500.22,-55.22C483.74,-44.11 462.24,-29.62 448.43,-20.31"/>
<polygon fill="#63b8ff" stroke="#63b8ff" points="498.22,-58.09 508.46,-60.78 502.13,-52.29 498.22,-58.09"/>
</a>
</g>
</g>
<!-- Node7&#45;&gt;Node8 -->
<g id="edge8_Node000007_Node000008" class="edge">
<title>Node7&#45;&gt;Node8</title>
<g id="a_edge8_Node000007_Node000008"><a xlink:title=" ">
<path fill="none" stroke="#63b8ff" d="M538.09,-52.92C546.75,-42.1 557.39,-28.79 564.33,-20.11"/>
<polygon fill="#63b8ff" stroke="#63b8ff" points="535.58,-50.45 532.07,-60.44 541.05,-54.82 535.58,-50.45"/>
</a>
</g>
</g>
<!-- Node11&#45;&gt;Node4 -->
<g id="edge14_Node000011_Node000004" class="edge">
<title>Node11&#45;&gt;Node4</title>
<g id="a_edge14_Node000011_Node000004"><a xlink:title=" ">
<path fill="none" stroke="#63b8ff" d="M74.83,-282.15C51.64,-260.38 25.52,-227.52 46.62,-204 76.91,-170.24 374.04,-154.62 507.41,-149.26"/>
<polygon fill="#63b8ff" stroke="#63b8ff" points="72.25,-284.53 82.02,-288.62 76.93,-279.33 72.25,-284.53"/>
</a>
</g>
</g>
<!-- Node12 -->
<g id="Node000012" class="node">
<title>Node12</title>
<g id="a_Node000012"><a xlink:href="scene_8h.html" target="_top" xlink:title=" ">
<polygon fill="white" stroke="#666666" points="149.25,-242 56,-242 56,-210 149.25,-210 149.25,-242"/>
<text text-anchor="start" x="64" y="-228.5" font-family="Helvetica,sans-Serif" font-size="10.00">hybrid&#45;renderer&#45;lib</text>
<text text-anchor="middle" x="102.62" y="-216.5" font-family="Helvetica,sans-Serif" font-size="10.00">/include/scene.h</text>
</a>
</g>
</g>
<!-- Node11&#45;&gt;Node12 -->
<g id="edge15_Node000011_Node000012" class="edge">
<title>Node11&#45;&gt;Node12</title>
<g id="a_edge15_Node000011_Node000012"><a xlink:title=" ">
<path fill="none" stroke="#63b8ff" d="M102.62,-278.37C102.62,-266.37 102.62,-252.63 102.62,-242.38"/>
<polygon fill="#63b8ff" stroke="#63b8ff" points="99.13,-278.08 102.63,-288.08 106.13,-278.08 99.13,-278.08"/>
</a>
</g>
</g>
<!-- Node12&#45;&gt;Node4 -->
<g id="edge16_Node000012_Node000004" class="edge">
<title>Node12&#45;&gt;Node4</title>
<g id="a_edge16_Node000012_Node000004"><a xlink:title=" ">
<path fill="none" stroke="#63b8ff" d="M150.3,-206.05C152.76,-205.31 155.21,-204.62 157.62,-204 279.04,-172.9 425.11,-157.82 507.28,-151.3"/>
<polygon fill="#63b8ff" stroke="#63b8ff" points="149.37,-202.67 140.97,-209.12 151.56,-209.32 149.37,-202.67"/>
</a>
</g>
</g>
<!-- Node13 -->
<g id="Node000013" class="node">
<title>Node13</title>
<g id="a_Node000013"><a xlink:href="scene_8cpp.html" target="_top" xlink:title=" ">
<polygon fill="white" stroke="#666666" points="93.25,-162 0,-162 0,-130 93.25,-130 93.25,-162"/>
<text text-anchor="start" x="8" y="-148.5" font-family="Helvetica,sans-Serif" font-size="10.00">hybrid&#45;renderer&#45;lib</text>
<text text-anchor="middle" x="46.62" y="-136.5" font-family="Helvetica,sans-Serif" font-size="10.00">/src/scene.cpp</text>
</a>
</g>
</g>
<!-- Node12&#45;&gt;Node13 -->
<g id="edge17_Node000012_Node000013" class="edge">
<title>Node12&#45;&gt;Node13</title>
<g id="a_edge17_Node000012_Node000013"><a xlink:title=" ">
<path fill="none" stroke="#63b8ff" d="M85.1,-200.59C76.13,-188.1 65.48,-173.27 57.67,-162.38"/>
<polygon fill="#63b8ff" stroke="#63b8ff" points="82,-202.28 90.68,-208.36 87.69,-198.2 82,-202.28"/>
</a>
</g>
</g>
<!-- Node14&#45;&gt;Node4 -->
<g id="edge19_Node000014_Node000004" class="edge">
<title>Node14&#45;&gt;Node4</title>
<g id="a_edge19_Node000014_Node000004"><a xlink:title=" ">
<path fill="none" stroke="#63b8ff" d="M236.64,-281.76C262.23,-255.25 303.4,-214.22 322.62,-204 380.68,-173.15 455,-158.91 507.28,-152.4"/>
<polygon fill="#63b8ff" stroke="#63b8ff" points="234.37,-279.07 229.97,-288.71 239.42,-283.92 234.37,-279.07"/>
</a>
</g>
</g>
<!-- Node14&#45;&gt;Node12 -->
<g id="edge20_Node000014_Node000012" class="edge">
<title>Node14&#45;&gt;Node12</title>
<g id="a_edge20_Node000014_Node000012"><a xlink:title=" ">
<path fill="none" stroke="#63b8ff" d="M183.22,-283.13C164.59,-270.15 141.42,-254.01 124.71,-242.38"/>
<polygon fill="#63b8ff" stroke="#63b8ff" points="181.05,-285.88 191.26,-288.72 185.05,-280.14 181.05,-285.88"/>
</a>
</g>
</g>
<!-- Node14&#45;&gt;Node13 -->
<g id="edge22_Node000014_Node000013" class="edge">
<title>Node14&#45;&gt;Node13</title>
<g id="a_edge22_Node000014_Node000013"><a xlink:title=" ">
<path fill="none" stroke="#63b8ff" d="M164.39,-285.69C162.78,-285.11 161.19,-284.55 159.62,-284 109.87,-266.59 77.73,-290.55 46.62,-248 28.21,-222.8 35.4,-183.82 41.5,-162.4"/>
<polygon fill="#63b8ff" stroke="#63b8ff" points="163.05,-288.93 173.65,-289.07 165.46,-282.35 163.05,-288.93"/>
</a>
</g>
</g>
<!-- Node15 -->
<g id="Node000015" class="node">
<title>Node15</title>
<g id="a_Node000015"><a xlink:href="mesh_8cpp.html" target="_top" xlink:title=" ">
<polygon fill="white" stroke="#666666" points="260.25,-242 167,-242 167,-210 260.25,-210 260.25,-242"/>
<text text-anchor="start" x="175" y="-228.5" font-family="Helvetica,sans-Serif" font-size="10.00">hybrid&#45;renderer&#45;lib</text>
<text text-anchor="middle" x="213.62" y="-216.5" font-family="Helvetica,sans-Serif" font-size="10.00">/src/mesh.cpp</text>
</a>
</g>
</g>
<!-- Node14&#45;&gt;Node15 -->
<g id="edge21_Node000014_Node000015" class="edge">
<title>Node14&#45;&gt;Node15</title>
<g id="a_edge21_Node000014_Node000015"><a xlink:title=" ">
<path fill="none" stroke="#63b8ff" d="M214.28,-278.37C214.13,-266.37 213.95,-252.63 213.82,-242.38"/>
<polygon fill="#63b8ff" stroke="#63b8ff" points="210.78,-278.12 214.41,-288.08 217.78,-278.03 210.78,-278.12"/>
</a>
</g>
</g>
<!-- Node16&#45;&gt;Node4 -->
<g id="edge27_Node000016_Node000004" class="edge">
<title>Node16&#45;&gt;Node4</title>
<g id="a_edge27_Node000016_Node000004"><a xlink:title=" ">
<path fill="none" stroke="#63b8ff" d="M1032.72,-461.01C904.07,-453.4 649.72,-435.09 619.62,-408 547.38,-342.95 561.62,-207.83 568.86,-162.33"/>
<polygon fill="#63b8ff" stroke="#63b8ff" points="1032.32,-464.5 1042.51,-461.59 1032.73,-457.51 1032.32,-464.5"/>
</a>
</g>
</g>
<!-- Node17 -->
<g id="Node000017" class="node">
<title>Node17</title>
<g id="a_Node000017"><a xlink:href="buffer_8h.html" target="_top" xlink:title=" ">
<polygon fill="white" stroke="#666666" points="781,-408 656.25,-408 656.25,-364 781,-364 781,-408"/>
<text text-anchor="start" x="664.25" y="-394.5" font-family="Helvetica,sans-Serif" font-size="10.00">hybrid&#45;renderer&#45;lib</text>
<text text-anchor="start" x="664.25" y="-382.5" font-family="Helvetica,sans-Serif" font-size="10.00">/include/renderer_internal</text>
<text text-anchor="middle" x="718.62" y="-370.5" font-family="Helvetica,sans-Serif" font-size="10.00">/buffer.h</text>
</a>
</g>
</g>
<!-- Node16&#45;&gt;Node17 -->
<g id="edge28_Node000016_Node000017" class="edge">
<title>Node16&#45;&gt;Node17</title>
<g id="a_edge28_Node000016_Node000017"><a xlink:title=" ">
<path fill="none" stroke="#63b8ff" d="M1032.92,-453.05C970.11,-442.48 877.58,-425.97 797.62,-408 792.36,-406.82 786.92,-405.52 781.47,-404.18"/>
<polygon fill="#63b8ff" stroke="#63b8ff" points="1031.96,-456.44 1042.41,-454.64 1033.12,-449.54 1031.96,-456.44"/>
</a>
</g>
</g>
<!-- Node18 -->
<g id="Node000018" class="node">
<title>Node18</title>
<g id="a_Node000018"><a xlink:href="buffer_8cpp.html" target="_top" xlink:title=" ">
<polygon fill="white" stroke="#666666" points="764.38,-328 656.88,-328 656.88,-284 764.38,-284 764.38,-328"/>
<text text-anchor="start" x="664.88" y="-314.5" font-family="Helvetica,sans-Serif" font-size="10.00">hybrid&#45;renderer&#45;lib</text>
<text text-anchor="start" x="664.88" y="-302.5" font-family="Helvetica,sans-Serif" font-size="10.00">/src/renderer_internal</text>
<text text-anchor="middle" x="710.62" y="-290.5" font-family="Helvetica,sans-Serif" font-size="10.00">/buffer.cpp</text>
</a>
</g>
</g>
<!-- Node16&#45;&gt;Node18 -->
<g id="edge58_Node000016_Node000018" class="edge">
<title>Node16&#45;&gt;Node18</title>
<g id="a_edge58_Node000016_Node000018"><a xlink:title=" ">
<path fill="none" stroke="#63b8ff" d="M1032.45,-457.07C979.4,-449.4 907.31,-434.85 848.62,-408 818.88,-394.39 816,-383.35 789.62,-364 773.4,-352.1 755.19,-338.94 740.34,-328.27"/>
<polygon fill="#63b8ff" stroke="#63b8ff" points="1031.92,-460.53 1042.31,-458.44 1032.89,-453.59 1031.92,-460.53"/>
</a>
</g>
</g>
<!-- Node19 -->
<g id="Node000019" class="node">
<title>Node19</title>
<g id="a_Node000019"><a xlink:href="descriptor__management_8h.html" target="_top" xlink:title=" ">
<polygon fill="white" stroke="#666666" points="1220.38,-408 1088.88,-408 1088.88,-364 1220.38,-364 1220.38,-408"/>
<text text-anchor="start" x="1096.88" y="-394.5" font-family="Helvetica,sans-Serif" font-size="10.00">hybrid&#45;renderer&#45;lib</text>
<text text-anchor="start" x="1096.88" y="-382.5" font-family="Helvetica,sans-Serif" font-size="10.00">/include/renderer_internal</text>
<text text-anchor="middle" x="1154.62" y="-370.5" font-family="Helvetica,sans-Serif" font-size="10.00">/descriptor_management.h</text>
</a>
</g>
</g>
<!-- Node16&#45;&gt;Node19 -->
<g id="edge31_Node000016_Node000019" class="edge">
<title>Node16&#45;&gt;Node19</title>
<g id="a_edge31_Node000016_Node000019"><a xlink:title=" ">
<path fill="none" stroke="#63b8ff" d="M1125.74,-433.94C1131.03,-425.34 1136.66,-416.2 1141.52,-408.29"/>
<polygon fill="#63b8ff" stroke="#63b8ff" points="1122.79,-432.05 1120.53,-442.4 1128.76,-435.71 1122.79,-432.05"/>
</a>
</g>
</g>
<!-- Node20 -->
<g id="Node000020" class="node">
<title>Node20</title>
<g id="a_Node000020"><a xlink:href="render__system_8h.html" target="_top" xlink:title=" ">
<polygon fill="white" stroke="#666666" points="1497,-248 1372.25,-248 1372.25,-204 1497,-204 1497,-248"/>
<text text-anchor="start" x="1380.25" y="-234.5" font-family="Helvetica,sans-Serif" font-size="10.00">hybrid&#45;renderer&#45;lib</text>
<text text-anchor="start" x="1380.25" y="-222.5" font-family="Helvetica,sans-Serif" font-size="10.00">/include/renderer_internal</text>
<text text-anchor="middle" x="1434.62" y="-210.5" font-family="Helvetica,sans-Serif" font-size="10.00">/render_system.h</text>
</a>
</g>
</g>
<!-- Node16&#45;&gt;Node20 -->
<g id="edge56_Node000016_Node000020" class="edge">
<title>Node16&#45;&gt;Node20</title>
<g id="a_edge56_Node000016_Node000020"><a xlink:title=" ">
<path fill="none" stroke="#63b8ff" d="M1180.25,-446.84C1244.02,-427.49 1334.45,-390.8 1389.62,-328 1410.15,-304.64 1422.72,-270.4 1429.18,-248.4"/>
<polygon fill="#63b8ff" stroke="#63b8ff" points="1179.52,-443.4 1170.92,-449.59 1181.5,-450.12 1179.52,-443.4"/>
</a>
</g>
</g>
<!-- Node21 -->
<g id="Node000021" class="node">
<title>Node21</title>
<g id="a_Node000021"><a xlink:href="render__system_8cpp.html" target="_top" xlink:title=" ">
<polygon fill="white" stroke="#666666" points="1533.38,-168 1425.88,-168 1425.88,-124 1533.38,-124 1533.38,-168"/>
<text text-anchor="start" x="1433.88" y="-154.5" font-family="Helvetica,sans-Serif" font-size="10.00">hybrid&#45;renderer&#45;lib</text>
<text text-anchor="start" x="1433.88" y="-142.5" font-family="Helvetica,sans-Serif" font-size="10.00">/src/renderer_internal</text>
<text text-anchor="middle" x="1479.62" y="-130.5" font-family="Helvetica,sans-Serif" font-size="10.00">/render_system.cpp</text>
</a>
</g>
</g>
<!-- Node16&#45;&gt;Node21 -->
<g id="edge63_Node000016_Node000021" class="edge">
<title>Node16&#45;&gt;Node21</title>
<g id="a_edge63_Node000016_Node000021"><a xlink:title=" ">
<path fill="none" stroke="#63b8ff" d="M1180.29,-456.64C1303.28,-442.51 1537.67,-414.78 1543.62,-408 1568.42,-379.76 1578.27,-347.01 1520.62,-204 1515.43,-191.11 1506.73,-178.4 1498.68,-168.26"/>
<polygon fill="#63b8ff" stroke="#63b8ff" points="1180.15,-453.13 1170.61,-457.75 1180.94,-460.09 1180.15,-453.13"/>
</a>
</g>
</g>
<!-- Node22 -->
<g id="Node000022" class="node">
<title>Node22</title>
<g id="a_Node000022"><a xlink:href="shader__database_8h.html" target="_top" xlink:title=" ">
<polygon fill="white" stroke="#666666" points="1345,-328 1220.25,-328 1220.25,-284 1345,-284 1345,-328"/>
<text text-anchor="start" x="1228.25" y="-314.5" font-family="Helvetica,sans-Serif" font-size="10.00">hybrid&#45;renderer&#45;lib</text>
<text text-anchor="start" x="1228.25" y="-302.5" font-family="Helvetica,sans-Serif" font-size="10.00">/include/renderer_internal</text>
<text text-anchor="middle" x="1282.62" y="-290.5" font-family="Helvetica,sans-Serif" font-size="10.00">/shader_database.h</text>
</a>
</g>
</g>
<!-- Node16&#45;&gt;Node22 -->
<g id="edge57_Node000016_Node000022" class="edge">
<title>Node16&#45;&gt;Node22</title>
<g id="a_edge57_Node000016_Node000022"><a xlink:title=" ">
<path fill="none" stroke="#63b8ff" d="M1179.72,-440.6C1197.5,-432.24 1215.45,-421.5 1229.62,-408 1253,-385.75 1268.1,-350.88 1275.98,-328.49"/>
<polygon fill="#63b8ff" stroke="#63b8ff" points="1178.4,-437.35 1170.69,-444.62 1181.25,-443.75 1178.4,-437.35"/>
</a>
</g>
</g>
<!-- Node25 -->
<g id="Node000025" class="node">
<title>Node25</title>
<g id="a_Node000025"><a xlink:href="shader__database_8cpp.html" target="_top" xlink:title=" ">
<polygon fill="white" stroke="#666666" points="810.62,-248 698.62,-248 698.62,-204 810.62,-204 810.62,-248"/>
<text text-anchor="start" x="706.62" y="-234.5" font-family="Helvetica,sans-Serif" font-size="10.00">hybrid&#45;renderer&#45;lib</text>
<text text-anchor="start" x="706.62" y="-222.5" font-family="Helvetica,sans-Serif" font-size="10.00">/src/renderer_internal</text>
<text text-anchor="middle" x="754.62" y="-210.5" font-family="Helvetica,sans-Serif" font-size="10.00">/shader_database.cpp</text>
</a>
</g>
</g>
<!-- Node16&#45;&gt;Node25 -->
<g id="edge64_Node000016_Node000025" class="edge">
<title>Node16&#45;&gt;Node25</title>
<g id="a_edge64_Node000016_Node000025"><a xlink:title=" ">
<path fill="none" stroke="#63b8ff" d="M1032.69,-461.1C909.37,-453.83 672.66,-436.34 647.62,-408 611.14,-366.7 619.26,-331.25 647.62,-284 658.89,-265.23 678.66,-252.31 698.17,-243.57"/>
<polygon fill="#63b8ff" stroke="#63b8ff" points="1032.2,-464.58 1042.39,-461.66 1032.61,-457.59 1032.2,-464.58"/>
</a>
</g>
</g>
<!-- Node26 -->
<g id="Node000026" class="node">
<title>Node26</title>
<g id="a_Node000026"><a xlink:href="descriptor__management_8cpp.html" target="_top" xlink:title=" ">
<polygon fill="white" stroke="#666666" points="1126.62,-328 984.62,-328 984.62,-284 1126.62,-284 1126.62,-328"/>
<text text-anchor="start" x="992.62" y="-314.5" font-family="Helvetica,sans-Serif" font-size="10.00">hybrid&#45;renderer&#45;lib</text>
<text text-anchor="start" x="992.62" y="-302.5" font-family="Helvetica,sans-Serif" font-size="10.00">/src/renderer_internal</text>
<text text-anchor="middle" x="1055.62" y="-290.5" font-family="Helvetica,sans-Serif" font-size="10.00">/descriptor_management.cpp</text>
</a>
</g>
</g>
<!-- Node16&#45;&gt;Node26 -->
<g id="edge59_Node000016_Node000026" class="edge">
<title>Node16&#45;&gt;Node26</title>
<g id="a_edge59_Node000016_Node000026"><a xlink:title=" ">
<path fill="none" stroke="#63b8ff" d="M1090.19,-433.34C1086.38,-425.22 1082.58,-416.4 1079.62,-408 1070.19,-381.13 1063.26,-348.96 1059.33,-328.26"/>
<polygon fill="#63b8ff" stroke="#63b8ff" points="1086.96,-434.7 1094.48,-442.16 1093.26,-431.64 1086.96,-434.7"/>
</a>
</g>
</g>
<!-- Node27 -->
<g id="Node000027" class="node">
<title>Node27</title>
<g id="a_Node000027"><a xlink:href="image_8h.html" target="_top" xlink:title=" ">
<polygon fill="white" stroke="#666666" points="1017,-408 892.25,-408 892.25,-364 1017,-364 1017,-408"/>
<text text-anchor="start" x="900.25" y="-394.5" font-family="Helvetica,sans-Serif" font-size="10.00">hybrid&#45;renderer&#45;lib</text>
<text text-anchor="start" x="900.25" y="-382.5" font-family="Helvetica,sans-Serif" font-size="10.00">/include/renderer_internal</text>
<text text-anchor="middle" x="954.62" y="-370.5" font-family="Helvetica,sans-Serif" font-size="10.00">/image.h</text>
</a>
</g>
</g>
<!-- Node16&#45;&gt;Node27 -->
<g id="edge46_Node000016_Node000027" class="edge">
<title>Node16&#45;&gt;Node27</title>
<g id="a_edge46_Node000016_Node000027"><a xlink:title=" ">
<path fill="none" stroke="#63b8ff" d="M1055.04,-438.53C1035.93,-428.72 1014.5,-417.73 996.37,-408.42"/>
<polygon fill="#63b8ff" stroke="#63b8ff" points="1053.25,-441.54 1063.74,-443 1056.44,-435.32 1053.25,-441.54"/>
</a>
</g>
</g>
<!-- Node28 -->
<g id="Node000028" class="node">
<title>Node28</title>
<g id="a_Node000028"><a xlink:href="image_8cpp.html" target="_top" xlink:title=" ">
<polygon fill="white" stroke="#666666" points="890.38,-328 782.88,-328 782.88,-284 890.38,-284 890.38,-328"/>
<text text-anchor="start" x="790.88" y="-314.5" font-family="Helvetica,sans-Serif" font-size="10.00">hybrid&#45;renderer&#45;lib</text>
<text text-anchor="start" x="790.88" y="-302.5" font-family="Helvetica,sans-Serif" font-size="10.00">/src/renderer_internal</text>
<text text-anchor="middle" x="836.62" y="-290.5" font-family="Helvetica,sans-Serif" font-size="10.00">/image.cpp</text>
</a>
</g>
</g>
<!-- Node16&#45;&gt;Node28 -->
<g id="edge60_Node000016_Node000028" class="edge">
<title>Node16&#45;&gt;Node28</title>
<g id="a_edge60_Node000016_Node000028"><a xlink:title=" ">
<path fill="none" stroke="#63b8ff" d="M1032.44,-461.97C985.18,-456.49 925.24,-442.54 883.62,-408 859.07,-387.62 846.64,-351.55 840.91,-328.49"/>
<polygon fill="#63b8ff" stroke="#63b8ff" points="1032.04,-465.44 1042.35,-463 1032.77,-458.48 1032.04,-465.44"/>
</a>
</g>
</g>
<!-- Node16&#45;&gt;Node29 -->
<g id="edge50_Node000016_Node000029" class="edge">
<title>Node16&#45;&gt;Node29</title>
<g id="a_edge50_Node000016_Node000029"><a xlink:title=" ">
<path fill="none" stroke="#63b8ff" d="M1180.47,-452.08C1239.28,-441.4 1323.56,-425.25 1396.62,-408 1401.02,-406.96 1405.55,-405.84 1410.1,-404.68"/>
<polygon fill="#63b8ff" stroke="#63b8ff" points="1180.14,-448.58 1170.92,-453.8 1181.38,-455.47 1180.14,-448.58"/>
</a>
</g>
</g>
<!-- Node16&#45;&gt;Node30 -->
<g id="edge62_Node000016_Node000030" class="edge">
<title>Node16&#45;&gt;Node30</title>
<g id="a_edge62_Node000016_Node000030"><a xlink:title=" ">
<path fill="none" stroke="#63b8ff" d="M1180.36,-463.43C1295.57,-459.77 1511.84,-447.67 1576.62,-408 1606.73,-389.56 1626.5,-352.2 1636.6,-328.45"/>
<polygon fill="#63b8ff" stroke="#63b8ff" points="1180.59,-459.92 1170.7,-463.72 1180.81,-466.92 1180.59,-459.92"/>
</a>
</g>
</g>
<!-- Node16&#45;&gt;Node31 -->
<g id="edge61_Node000016_Node000031" class="edge">
<title>Node16&#45;&gt;Node31</title>
<g id="a_edge61_Node000016_Node000031"><a xlink:title=" ">
<path fill="none" stroke="#63b8ff" d="M1180.82,-461.05C1280.38,-454.76 1462.32,-439.77 1614.62,-408 1619.22,-407.04 1623.95,-405.9 1628.67,-404.66"/>
<polygon fill="#63b8ff" stroke="#63b8ff" points="1180.67,-457.55 1170.9,-461.66 1181.1,-464.54 1180.67,-457.55"/>
</a>
</g>
</g>
<!-- Node17&#45;&gt;Node4 -->
<g id="edge29_Node000017_Node000004" class="edge">
<title>Node17&#45;&gt;Node4</title>
<g id="a_edge29_Node000017_Node000004"><a xlink:title=" ">
<path fill="none" stroke="#63b8ff" d="M676.19,-356.6C665.89,-348.28 655.57,-338.54 647.62,-328 607.01,-274.11 583.76,-195.31 575.31,-162.36"/>
<polygon fill="#63b8ff" stroke="#63b8ff" points="673.93,-359.27 683.98,-362.62 678.21,-353.73 673.93,-359.27"/>
</a>
</g>
</g>
<!-- Node17&#45;&gt;Node18 -->
<g id="edge30_Node000017_Node000018" class="edge">
<title>Node17&#45;&gt;Node18</title>
<g id="a_edge30_Node000017_Node000018"><a xlink:title=" ">
<path fill="none" stroke="#63b8ff" d="M715.27,-352.25C714.44,-344.15 713.57,-335.68 712.81,-328.29"/>
<polygon fill="#63b8ff" stroke="#63b8ff" points="711.78,-352.59 716.28,-362.18 718.75,-351.88 711.78,-352.59"/>
</a>
</g>
</g>
<!-- Node19&#45;&gt;Node4 -->
<g id="edge32_Node000019_Node000004" class="edge">
<title>Node19&#45;&gt;Node4</title>
<g id="a_edge32_Node000019_Node000004"><a xlink:title=" ">
<path fill="none" stroke="#63b8ff" d="M1156.79,-352.2C1156.43,-330.3 1152.22,-302.28 1135.62,-284 1101.75,-246.7 776.57,-184.06 635.92,-158.44"/>
<polygon fill="#63b8ff" stroke="#63b8ff" points="1153.29,-352.08 1156.67,-362.12 1160.29,-352.17 1153.29,-352.08"/>
</a>
</g>
</g>
<!-- Node19&#45;&gt;Node20 -->
<g id="edge33_Node000019_Node000020" class="edge">
<title>Node19&#45;&gt;Node20</title>
<g id="a_edge33_Node000019_Node000020"><a xlink:title=" ">
<path fill="none" stroke="#63b8ff" d="M1232.02,-374.27C1270.94,-366.14 1317.4,-352.09 1353.62,-328 1384.51,-307.46 1409.23,-271.44 1422.9,-248.43"/>
<polygon fill="#63b8ff" stroke="#63b8ff" points="1231.35,-370.83 1222.22,-376.21 1232.71,-377.7 1231.35,-370.83"/>
</a>
</g>
</g>
<!-- Node19&#45;&gt;Node22 -->
<g id="edge36_Node000019_Node000022" class="edge">
<title>Node19&#45;&gt;Node22</title>
<g id="a_edge36_Node000019_Node000022"><a xlink:title=" ">
<path fill="none" stroke="#63b8ff" d="M1199.22,-357.82C1215.1,-348.15 1232.74,-337.4 1247.69,-328.29"/>
<polygon fill="#63b8ff" stroke="#63b8ff" points="1197.61,-354.71 1190.89,-362.9 1201.25,-360.68 1197.61,-354.71"/>
</a>
</g>
</g>
<!-- Node19&#45;&gt;Node26 -->
<g id="edge45_Node000019_Node000026" class="edge">
<title>Node19&#45;&gt;Node26</title>
<g id="a_edge45_Node000019_Node000026"><a xlink:title=" ">
<path fill="none" stroke="#63b8ff" d="M1118.74,-356.72C1106.82,-347.34 1093.77,-337.06 1082.64,-328.29"/>
<polygon fill="#63b8ff" stroke="#63b8ff" points="1116.36,-359.31 1126.38,-362.75 1120.7,-353.81 1116.36,-359.31"/>
</a>
</g>
</g>
<!-- Node20&#45;&gt;Node4 -->
<g id="edge34_Node000020_Node000004" class="edge">
<title>Node20&#45;&gt;Node4</title>
<g id="a_edge34_Node000020_Node000004"><a xlink:title=" ">
<path fill="none" stroke="#63b8ff" d="M1360.57,-213.5C1337.26,-210.13 1311.41,-206.64 1287.62,-204 1047.81,-177.35 761.46,-158.42 635.93,-150.77"/>
<polygon fill="#63b8ff" stroke="#63b8ff" points="1359.89,-216.94 1370.29,-214.92 1360.9,-210.01 1359.89,-216.94"/>
</a>
</g>
</g>
<!-- Node20&#45;&gt;Node21 -->
<g id="edge35_Node000020_Node000021" class="edge">
<title>Node20&#45;&gt;Node21</title>
<g id="a_edge35_Node000020_Node000021"><a xlink:title=" ">
<path fill="none" stroke="#63b8ff" d="M1452.54,-193.94C1457.51,-185.34 1462.78,-176.2 1467.34,-168.29"/>
<polygon fill="#63b8ff" stroke="#63b8ff" points="1449.64,-191.96 1447.68,-202.38 1455.71,-195.46 1449.64,-191.96"/>
</a>
</g>
</g>
<!-- Node22&#45;&gt;Node4 -->
<g id="edge37_Node000022_Node000004" class="edge">
<title>Node22&#45;&gt;Node4</title>
<g id="a_edge37_Node000022_Node000004"><a xlink:title=" ">
<path fill="none" stroke="#63b8ff" d="M1209.21,-280.78C1187.79,-272.08 1164.96,-261.1 1145.62,-248 1122.99,-232.66 1127.22,-215.94 1102.62,-204 1021.72,-164.73 758.49,-152.24 635.74,-148.5"/>
<polygon fill="#63b8ff" stroke="#63b8ff" points="1207.93,-284.04 1218.51,-284.45 1210.49,-277.53 1207.93,-284.04"/>
</a>
</g>
</g>
<!-- Node22&#45;&gt;Node20 -->
<g id="edge41_Node000022_Node000020" class="edge">
<title>Node22&#45;&gt;Node20</title>
<g id="a_edge41_Node000022_Node000020"><a xlink:title=" ">
<path fill="none" stroke="#63b8ff" d="M1334.21,-278.53C1353.32,-268.72 1374.75,-257.73 1392.88,-248.42"/>
<polygon fill="#63b8ff" stroke="#63b8ff" points="1332.81,-275.32 1325.51,-283 1336,-281.54 1332.81,-275.32"/>
</a>
</g>
</g>
<!-- Node22&#45;&gt;Node21 -->
<g id="edge43_Node000022_Node000021" class="edge">
<title>Node22&#45;&gt;Node21</title>
<g id="a_edge43_Node000022_Node000021"><a xlink:title=" ">
<path fill="none" stroke="#63b8ff" d="M1301.9,-274.33C1316.73,-252.59 1338.84,-223.87 1363.62,-204 1382.1,-189.19 1405.04,-176.91 1425.64,-167.58"/>
<polygon fill="#63b8ff" stroke="#63b8ff" points="1299.08,-272.25 1296.45,-282.51 1304.9,-276.13 1299.08,-272.25"/>
</a>
</g>
</g>
<!-- Node23 -->
<g id="Node000023" class="node">
<title>Node23</title>
<g id="a_Node000023"><a xlink:href="render__pass_8h.html" target="_top" xlink:title=" ">
<polygon fill="white" stroke="#666666" points="1279,-248 1154.25,-248 1154.25,-204 1279,-204 1279,-248"/>
<text text-anchor="start" x="1162.25" y="-234.5" font-family="Helvetica,sans-Serif" font-size="10.00">hybrid&#45;renderer&#45;lib</text>
<text text-anchor="start" x="1162.25" y="-222.5" font-family="Helvetica,sans-Serif" font-size="10.00">/include/renderer_internal</text>
<text text-anchor="middle" x="1216.62" y="-210.5" font-family="Helvetica,sans-Serif" font-size="10.00">/render_pass.h</text>
</a>
</g>
</g>
<!-- Node22&#45;&gt;Node23 -->
<g id="edge38_Node000022_Node000023" class="edge">
<title>Node22&#45;&gt;Node23</title>
<g id="a_edge38_Node000022_Node000023"><a xlink:title=" ">
<path fill="none" stroke="#63b8ff" d="M1257.29,-275.06C1249.74,-266.13 1241.62,-256.54 1234.64,-248.29"/>
<polygon fill="#63b8ff" stroke="#63b8ff" points="1254.48,-277.16 1263.61,-282.53 1259.82,-272.64 1254.48,-277.16"/>
</a>
</g>
</g>
<!-- Node24 -->
<g id="Node000024" class="node">
<title>Node24</title>
<g id="a_Node000024"><a xlink:href="render__pass_8cpp.html" target="_top" xlink:title=" ">
<polygon fill="white" stroke="#666666" points="1315.38,-168 1207.88,-168 1207.88,-124 1315.38,-124 1315.38,-168"/>
<text text-anchor="start" x="1215.88" y="-154.5" font-family="Helvetica,sans-Serif" font-size="10.00">hybrid&#45;renderer&#45;lib</text>
<text text-anchor="start" x="1215.88" y="-142.5" font-family="Helvetica,sans-Serif" font-size="10.00">/src/renderer_internal</text>
<text text-anchor="middle" x="1261.62" y="-130.5" font-family="Helvetica,sans-Serif" font-size="10.00">/render_pass.cpp</text>
</a>
</g>
</g>
<!-- Node22&#45;&gt;Node24 -->
<g id="edge42_Node000022_Node000024" class="edge">
<title>Node22&#45;&gt;Node24</title>
<g id="a_edge42_Node000022_Node000024"><a xlink:title=" ">
<path fill="none" stroke="#63b8ff" d="M1288.5,-272.56C1291.07,-252.58 1292.53,-226.55 1287.62,-204 1284.95,-191.67 1279.36,-178.81 1274.04,-168.43"/>
<polygon fill="#63b8ff" stroke="#63b8ff" points="1285.06,-271.95 1287.07,-282.35 1291.98,-272.96 1285.06,-271.95"/>
</a>
</g>
</g>
<!-- Node22&#45;&gt;Node25 -->
<g id="edge44_Node000022_Node000025" class="edge">
<title>Node22&#45;&gt;Node25</title>
<g id="a_edge44_Node000022_Node000025"><a xlink:title=" ">
<path fill="none" stroke="#63b8ff" d="M1208.66,-294.07C1101.82,-278.29 906.63,-249.45 810.77,-235.29"/>
<polygon fill="#63b8ff" stroke="#63b8ff" points="1208.08,-297.53 1218.49,-295.52 1209.1,-290.6 1208.08,-297.53"/>
</a>
</g>
</g>
<!-- Node23&#45;&gt;Node4 -->
<g id="edge39_Node000023_Node000004" class="edge">
<title>Node23&#45;&gt;Node4</title>
<g id="a_edge39_Node000023_Node000004"><a xlink:title=" ">
<path fill="none" stroke="#63b8ff" d="M1142.65,-204.39C1141.97,-204.25 1141.3,-204.13 1140.62,-204 959.35,-170.13 741.57,-155.4 635.7,-149.87"/>
<polygon fill="#63b8ff" stroke="#63b8ff" points="1141.79,-207.78 1152.3,-206.44 1143.25,-200.93 1141.79,-207.78"/>
</a>
</g>
</g>
<!-- Node23&#45;&gt;Node24 -->
<g id="edge40_Node000023_Node000024" class="edge">
<title>Node23&#45;&gt;Node24</title>
<g id="a_edge40_Node000023_Node000024"><a xlink:title=" ">
<path fill="none" stroke="#63b8ff" d="M1234.54,-193.94C1239.51,-185.34 1244.78,-176.2 1249.34,-168.29"/>
<polygon fill="#63b8ff" stroke="#63b8ff" points="1231.64,-191.96 1229.68,-202.38 1237.71,-195.46 1231.64,-191.96"/>
</a>
</g>
</g>
<!-- Node27&#45;&gt;Node4 -->
<g id="edge47_Node000027_Node000004" class="edge">
<title>Node27&#45;&gt;Node4</title>
<g id="a_edge47_Node000027_Node000004"><a xlink:title=" ">
<path fill="none" stroke="#63b8ff" d="M941.21,-353.26C921.45,-310.96 880.2,-237.54 819.62,-204 762.33,-172.28 688.22,-158.18 635.99,-151.93"/>
<polygon fill="#63b8ff" stroke="#63b8ff" points="937.93,-354.52 945.25,-362.18 944.31,-351.62 937.93,-354.52"/>
</a>
</g>
</g>
<!-- Node27&#45;&gt;Node23 -->
<g id="edge48_Node000027_Node000023" class="edge">
<title>Node27&#45;&gt;Node23</title>
<g id="a_edge48_Node000027_Node000023"><a xlink:title=" ">
<path fill="none" stroke="#63b8ff" d="M952.88,-352.58C953.51,-330.44 958.16,-301.95 975.62,-284 1000.06,-258.89 1091.08,-242.65 1153.99,-234.16"/>
<polygon fill="#63b8ff" stroke="#63b8ff" points="949.38,-352.3 952.89,-362.3 956.38,-352.3 949.38,-352.3"/>
</a>
</g>
</g>
<!-- Node27&#45;&gt;Node28 -->
<g id="edge49_Node000027_Node000028" class="edge">
<title>Node27&#45;&gt;Node28</title>
<g id="a_edge49_Node000027_Node000028"><a xlink:title=" ">
<path fill="none" stroke="#63b8ff" d="M913.1,-357.55C898.57,-347.95 882.48,-337.31 868.83,-328.29"/>
<polygon fill="#63b8ff" stroke="#63b8ff" points="910.85,-360.26 921.12,-362.85 914.71,-354.42 910.85,-360.26"/>
</a>
</g>
</g>
<!-- Node29&#45;&gt;Node4 -->
<g id="edge51_Node000029_Node000004" class="edge">
<title>Node29&#45;&gt;Node4</title>
<g id="a_edge51_Node000029_Node000004"><a xlink:title=" ">
<path fill="none" stroke="#63b8ff" d="M1398.56,-378.32C1344.55,-371.24 1270.78,-356.86 1211.62,-328 1184.11,-314.57 1184.75,-299.96 1158.62,-284 1081.49,-236.86 1058.68,-228.36 971.62,-204 855.78,-171.58 715.63,-157.01 635.73,-150.93"/>
<polygon fill="#63b8ff" stroke="#63b8ff" points="1397.91,-381.77 1408.27,-379.54 1398.78,-374.83 1397.91,-381.77"/>
</a>
</g>
</g>
<!-- Node29&#45;&gt;Node20 -->
<g id="edge53_Node000029_Node000020" class="edge">
<title>Node29&#45;&gt;Node20</title>
<g id="a_edge53_Node000029_Node000020"><a xlink:title=" ">
<path fill="none" stroke="#63b8ff" d="M1472.34,-352.36C1471.44,-332.31 1468.97,-306.28 1462.62,-284 1459.12,-271.7 1453.04,-258.84 1447.44,-248.46"/>
<polygon fill="#63b8ff" stroke="#63b8ff" points="1468.83,-352.31 1472.66,-362.19 1475.83,-352.08 1468.83,-352.31"/>
</a>
</g>
</g>
<!-- Node29&#45;&gt;Node21 -->
<g id="edge55_Node000029_Node000021" class="edge">
<title>Node29&#45;&gt;Node21</title>
<g id="a_edge55_Node000029_Node000021"><a xlink:title=" ">
<path fill="none" stroke="#63b8ff" d="M1485.99,-353.32C1499.51,-317.09 1516.94,-256.05 1505.62,-204 1502.95,-191.67 1497.36,-178.81 1492.04,-168.43"/>
<polygon fill="#63b8ff" stroke="#63b8ff" points="1482.85,-351.73 1482.5,-362.32 1489.37,-354.26 1482.85,-351.73"/>
</a>
</g>
</g>
<!-- Node29&#45;&gt;Node23 -->
<g id="edge52_Node000029_Node000023" class="edge">
<title>Node29&#45;&gt;Node23</title>
<g id="a_edge52_Node000029_Node000023"><a xlink:title=" ">
<path fill="none" stroke="#63b8ff" d="M1443.59,-355.86C1420.65,-333.99 1387.03,-304.44 1353.62,-284 1330.55,-269.88 1303.36,-257.76 1279.31,-248.37"/>
<polygon fill="#63b8ff" stroke="#63b8ff" points="1441.13,-358.34 1450.75,-362.77 1445.99,-353.31 1441.13,-358.34"/>
</a>
</g>
</g>
<!-- Node29&#45;&gt;Node30 -->
<g id="edge54_Node000029_Node000030" class="edge">
<title>Node29&#45;&gt;Node30</title>
<g id="a_edge54_Node000029_Node000030"><a xlink:title=" ">
<path fill="none" stroke="#63b8ff" d="M1530.1,-358.93C1551.96,-349.02 1576.58,-337.86 1597.38,-328.42"/>
<polygon fill="#63b8ff" stroke="#63b8ff" points="1528.66,-355.74 1521,-363.06 1531.56,-362.12 1528.66,-355.74"/>
</a>
</g>
</g>
</g>
</svg>
