<?xml version="1.0" encoding="UTF-8" standalone="no"?>
<!DOCTYPE svg PUBLIC "-//W3C//DTD SVG 1.1//EN"
 "http://www.w3.org/Graphics/SVG/1.1/DTD/svg11.dtd">
<!-- Generated by graphviz version 10.0.1 (20240210.2158)
 -->
<!-- Title: hybrid&#45;renderer&#45;lib/include/renderer_internal/render_system.h Pages: 1 -->
<!--zoomable 312 -->

<svg id="main" version="1.1" xmlns="http://www.w3.org/2000/svg" xmlns:xlink="http://www.w3.org/1999/xlink" xml:space="preserve" onload="init(evt)">
<style type="text/css"><![CDATA[
.node, .edge {opacity: 0.7;}
.node.selected, .edge.selected {opacity: 1;}
.edge:hover path { stroke: red; }
.edge:hover polygon { stroke: red; fill: red; }
]]></style>

<defs>
  <circle id="rim" cx="0" cy="0" r="7"/>
  <circle id="rim2" cx="0" cy="0" r="3.5"/>
  <g id="zoomPlus">
    <use xlink:href="#rim" fill="#404040"><set attributeName="fill" to="#808080" begin="zoomplus.mouseover" end="zoomplus.mouseout"/></use>
    <path d="M-4,0h8M0,-4v8" fill="none" stroke="white" stroke-width="1.5" pointer-events="none"/>
  </g>
  <g id="zoomMin">
    <use xlink:href="#rim" fill="#404040"><set attributeName="fill" to="#808080" begin="zoomminus.mouseover" end="zoomminus.mouseout"/></use>
    <path d="M-4,0h8" fill="none" stroke="white" stroke-width="1.5" pointer-events="none"/>
  </g>
  <g id="arrowUp" transform="translate(30 24)">
    <use xlink:href="#rim"/>
    <path pointer-events="none" fill="none" stroke="white" stroke-width="1.5" d="M0,-3.0v7 M-2.5,-0.5L0,-3.0L2.5,-0.5"/>
  </g>
  <g id="arrowRight" transform="rotate(90) translate(36 -43)">
    <use xlink:href="#rim"/>
    <path pointer-events="none" fill="none" stroke="white" stroke-width="1.5" d="M0,-3.0v7 M-2.5,-0.5L0,-3.0L2.5,-0.5"/>
  </g>
  <g id="arrowDown" transform="rotate(180) translate(-30 -48)">
    <use xlink:href="#rim"/>
    <path pointer-events="none" fill="none" stroke="white" stroke-width="1.5" d="M0,-3.0v7 M-2.5,-0.5L0,-3.0L2.5,-0.5"/>
  </g>
  <g id="arrowLeft" transform="rotate(270) translate(-36 17)">
    <use xlink:href="#rim"/>
    <path pointer-events="none" fill="none" stroke="white" stroke-width="1.5" d="M0,-3.0v7 M-2.5,-0.5L0,-3.0L2.5,-0.5"/>
  </g>
  <g id="resetDef">
    <use xlink:href="#rim2" fill="#404040"><set attributeName="fill" to="#808080" begin="reset.mouseover" end="reset.mouseout"/></use>
  </g>
</defs>
<script type="application/ecmascript">
var viewWidth = 750;
var viewHeight = 312;
var sectionId = 'dynsection-0';
</script>
<script type="application/ecmascript" xlink:href="svg.min.js"/>
<svg id="graph" class="graph">
<g id="viewport">
<title>hybrid&#45;renderer&#45;lib/include/renderer_internal/render_system.h</title>
<!-- Node1 -->
<g id="Node000001" class="node">
<title>Node1</title>
<g id="a_Node000001"><a xlink:title=" ">
<polygon fill="#999999" stroke="#666666" points="297.82,-304 173.07,-304 173.07,-260 297.82,-260 297.82,-304"/>
<text text-anchor="start" x="181.07" y="-290.5" font-family="Helvetica,sans-Serif" font-size="10.00">hybrid&#45;renderer&#45;lib</text>
<text text-anchor="start" x="181.07" y="-278.5" font-family="Helvetica,sans-Serif" font-size="10.00">/include/renderer_internal</text>
<text text-anchor="middle" x="235.44" y="-266.5" font-family="Helvetica,sans-Serif" font-size="10.00">/render_system.h</text>
</a>
</g>
</g>
<!-- Node2 -->
<g id="Node000002" class="node">
<title>Node2</title>
<g id="a_Node000002"><a xlink:title=" ">
<polygon fill="#e0e0e0" stroke="#999999" points="67.44,-150 27.44,-150 27.44,-130 67.44,-130 67.44,-150"/>
<text text-anchor="middle" x="47.44" y="-136.5" font-family="Helvetica,sans-Serif" font-size="10.00">string</text>
</a>
</g>
</g>
<!-- Node1&#45;&gt;Node2 -->
<g id="edge1_Node000001_Node000002" class="edge">
<title>Node1&#45;&gt;Node2</title>
<g id="a_edge1_Node000001_Node000002"><a xlink:title=" ">
<path fill="none" stroke="#63b8ff" d="M175.5,-259.57C154.65,-250.47 131.89,-238.55 113.44,-224 90.49,-205.89 70.61,-178.3 58.83,-159.97"/>
<polygon fill="#63b8ff" stroke="#63b8ff" points="61.92,-158.31 53.67,-151.67 55.98,-162.01 61.92,-158.31"/>
</a>
</g>
</g>
<!-- Node3 -->
<g id="Node000003" class="node">
<title>Node3</title>
<g id="a_Node000003"><a xlink:title=" ">
<polygon fill="#e0e0e0" stroke="#999999" points="157.82,-82 123.07,-82 123.07,-62 157.82,-62 157.82,-82"/>
<text text-anchor="middle" x="140.44" y="-68.5" font-family="Helvetica,sans-Serif" font-size="10.00">map</text>
</a>
</g>
</g>
<!-- Node1&#45;&gt;Node3 -->
<g id="edge2_Node000001_Node000003" class="edge">
<title>Node1&#45;&gt;Node3</title>
<g id="a_edge2_Node000001_Node000003"><a xlink:title=" ">
<path fill="none" stroke="#63b8ff" d="M172.69,-267.65C117.52,-251.88 42.39,-219.34 18.44,-156 13.41,-142.7 10.56,-135.84 18.44,-124 39.13,-92.93 82.76,-80.75 111.83,-76.01"/>
<polygon fill="#63b8ff" stroke="#63b8ff" points="112.02,-79.51 121.43,-74.65 111.04,-72.58 112.02,-79.51"/>
</a>
</g>
</g>
<!-- Node4 -->
<g id="Node000004" class="node">
<title>Node4</title>
<g id="a_Node000004"><a xlink:title=" ">
<polygon fill="#e0e0e0" stroke="#999999" points="322.07,-20 240.82,-20 240.82,0 322.07,0 322.07,-20"/>
<text text-anchor="middle" x="281.44" y="-6.5" font-family="Helvetica,sans-Serif" font-size="10.00">vulkan/vulkan.h</text>
</a>
</g>
</g>
<!-- Node1&#45;&gt;Node4 -->
<g id="edge3_Node000001_Node000004" class="edge">
<title>Node1&#45;&gt;Node4</title>
<g id="a_edge3_Node000001_Node000004"><a xlink:title=" ">
<path fill="none" stroke="#63b8ff" d="M172.73,-277.45C129.56,-271.87 73.52,-258.01 36.44,-224 2.6,-192.96 -9.91,-165.17 10.44,-124 50.01,-43.98 162.25,-20.56 229.23,-13.75"/>
<polygon fill="#63b8ff" stroke="#63b8ff" points="229.23,-17.26 238.87,-12.86 228.59,-10.29 229.23,-17.26"/>
</a>
</g>
</g>
<!-- Node5 -->
<g id="Node000005" class="node">
<title>Node5</title>
<g id="a_Node000005"><a xlink:href="descriptor__management_8h.html" target="_top" xlink:title=" ">
<polygon fill="white" stroke="#666666" points="355.32,-156 221.57,-156 221.57,-124 355.32,-124 355.32,-156"/>
<text text-anchor="start" x="229.57" y="-142.5" font-family="Helvetica,sans-Serif" font-size="10.00">renderer_internal/descriptor</text>
<text text-anchor="middle" x="288.44" y="-130.5" font-family="Helvetica,sans-Serif" font-size="10.00">_management.h</text>
</a>
</g>
</g>
<!-- Node1&#45;&gt;Node5 -->
<g id="edge4_Node000001_Node000005" class="edge">
<title>Node1&#45;&gt;Node5</title>
<g id="a_edge4_Node000001_Node000005"><a xlink:title=" ">
<path fill="none" stroke="#63b8ff" d="M243.49,-259.74C252.92,-234.84 268.53,-193.61 278.65,-166.88"/>
<polygon fill="#63b8ff" stroke="#63b8ff" points="281.81,-168.4 282.08,-157.81 275.27,-165.92 281.81,-168.4"/>
</a>
</g>
</g>
<!-- Node6 -->
<g id="Node000006" class="node">
<title>Node6</title>
<g id="a_Node000006"><a xlink:href="render__context_8h.html" target="_top" xlink:title=" ">
<polygon fill="white" stroke="#666666" points="538.44,-88 420.44,-88 420.44,-56 538.44,-56 538.44,-88"/>
<text text-anchor="start" x="428.44" y="-74.5" font-family="Helvetica,sans-Serif" font-size="10.00">renderer_internal/render</text>
<text text-anchor="middle" x="479.44" y="-62.5" font-family="Helvetica,sans-Serif" font-size="10.00">_context.h</text>
</a>
</g>
</g>
<!-- Node1&#45;&gt;Node6 -->
<g id="edge17_Node000001_Node000006" class="edge">
<title>Node1&#45;&gt;Node6</title>
<g id="a_edge17_Node000001_Node000006"><a xlink:title=" ">
<path fill="none" stroke="#63b8ff" d="M298.08,-275.95C371.73,-266.27 490.97,-238.08 546.44,-156 554.41,-144.22 552.76,-136.74 546.44,-124 540.62,-112.25 530.65,-102.47 520.15,-94.72"/>
<polygon fill="#63b8ff" stroke="#63b8ff" points="522.38,-92.01 512.14,-89.29 518.45,-97.8 522.38,-92.01"/>
</a>
</g>
</g>
<!-- Node12 -->
<g id="Node000012" class="node">
<title>Node12</title>
<g id="a_Node000012"><a xlink:href="debug_8h.html" target="_top" xlink:title=" ">
<polygon fill="white" stroke="#666666" points="537.19,-150 411.69,-150 411.69,-130 537.19,-130 537.19,-150"/>
<text text-anchor="middle" x="474.44" y="-136.5" font-family="Helvetica,sans-Serif" font-size="10.00">renderer_internal/debug.h</text>
</a>
</g>
</g>
<!-- Node1&#45;&gt;Node12 -->
<g id="edge14_Node000001_Node000012" class="edge">
<title>Node1&#45;&gt;Node12</title>
<g id="a_edge14_Node000001_Node000012"><a xlink:title=" ">
<path fill="none" stroke="#63b8ff" d="M272,-259.58C320.7,-231.06 405.67,-181.28 448.37,-156.27"/>
<polygon fill="#63b8ff" stroke="#63b8ff" points="450.11,-159.31 456.97,-151.24 446.57,-153.27 450.11,-159.31"/>
</a>
</g>
</g>
<!-- Node13 -->
<g id="Node000013" class="node">
<title>Node13</title>
<g id="a_Node000013"><a xlink:href="render__core_8h.html" target="_top" xlink:title=" ">
<polygon fill="white" stroke="#666666" points="711.44,-156 593.44,-156 593.44,-124 711.44,-124 711.44,-156"/>
<text text-anchor="start" x="601.44" y="-142.5" font-family="Helvetica,sans-Serif" font-size="10.00">renderer_internal/render</text>
<text text-anchor="middle" x="652.44" y="-130.5" font-family="Helvetica,sans-Serif" font-size="10.00">_core.h</text>
</a>
</g>
</g>
<!-- Node1&#45;&gt;Node13 -->
<g id="edge18_Node000001_Node000013" class="edge">
<title>Node1&#45;&gt;Node13</title>
<g id="a_edge18_Node000001_Node000013"><a xlink:title=" ">
<path fill="none" stroke="#63b8ff" d="M298.31,-275.67C384.01,-267.54 532.27,-250.19 579.44,-224 604.05,-210.34 624.42,-185.09 637.33,-166.02"/>
<polygon fill="#63b8ff" stroke="#63b8ff" points="640.22,-168 642.73,-157.7 634.35,-164.19 640.22,-168"/>
</a>
</g>
</g>
<!-- Node14 -->
<g id="Node000014" class="node">
<title>Node14</title>
<g id="a_Node000014"><a xlink:href="shader__database_8h.html" target="_top" xlink:title=" ">
<polygon fill="white" stroke="#666666" points="242.57,-224 122.32,-224 122.32,-192 242.57,-192 242.57,-224"/>
<text text-anchor="start" x="130.32" y="-210.5" font-family="Helvetica,sans-Serif" font-size="10.00">renderer_internal/shader</text>
<text text-anchor="middle" x="182.44" y="-198.5" font-family="Helvetica,sans-Serif" font-size="10.00">_database.h</text>
</a>
</g>
</g>
<!-- Node1&#45;&gt;Node14 -->
<g id="edge23_Node000001_Node000014" class="edge">
<title>Node1&#45;&gt;Node14</title>
<g id="a_edge23_Node000001_Node000014"><a xlink:title=" ">
<path fill="none" stroke="#63b8ff" d="M219.83,-259.79C213.71,-251.47 206.64,-241.88 200.32,-233.28"/>
<polygon fill="#63b8ff" stroke="#63b8ff" points="203.22,-231.32 194.48,-225.35 197.59,-235.47 203.22,-231.32"/>
</a>
</g>
</g>
<!-- Node5&#45;&gt;Node3 -->
<g id="edge5_Node000005_Node000003" class="edge">
<title>Node5&#45;&gt;Node3</title>
<g id="a_edge5_Node000005_Node000003"><a xlink:title=" ">
<path fill="none" stroke="#63b8ff" d="M253.74,-123.53C227.81,-111.96 192.81,-96.35 168.6,-85.56"/>
<polygon fill="#63b8ff" stroke="#63b8ff" points="170.25,-82.46 159.7,-81.59 167.4,-88.85 170.25,-82.46"/>
</a>
</g>
</g>
<!-- Node5&#45;&gt;Node4 -->
<g id="edge6_Node000005_Node000004" class="edge">
<title>Node5&#45;&gt;Node4</title>
<g id="a_edge6_Node000005_Node000004"><a xlink:title=" ">
<path fill="none" stroke="#63b8ff" d="M287.6,-123.56C286.34,-100.58 283.98,-57.34 282.57,-31.66"/>
<polygon fill="#63b8ff" stroke="#63b8ff" points="286.08,-31.63 282.04,-21.84 279.09,-32.01 286.08,-31.63"/>
</a>
</g>
</g>
<!-- Node5&#45;&gt;Node6 -->
<g id="edge7_Node000005_Node000006" class="edge">
<title>Node5&#45;&gt;Node6</title>
<g id="a_edge7_Node000005_Node000006"><a xlink:title=" ">
<path fill="none" stroke="#63b8ff" d="M333.22,-123.53C360.31,-114.17 395.06,-102.16 423.88,-92.2"/>
<polygon fill="#63b8ff" stroke="#63b8ff" points="424.87,-95.56 433.18,-88.99 422.59,-88.94 424.87,-95.56"/>
</a>
</g>
</g>
<!-- Node6&#45;&gt;Node4 -->
<g id="edge13_Node000006_Node000004" class="edge">
<title>Node6&#45;&gt;Node4</title>
<g id="a_edge13_Node000006_Node000004"><a xlink:title=" ">
<path fill="none" stroke="#63b8ff" d="M428.45,-55.55C395.9,-45.68 354.21,-33.05 323.54,-23.76"/>
<polygon fill="#63b8ff" stroke="#63b8ff" points="324.82,-20.49 314.23,-20.94 322.78,-27.18 324.82,-20.49"/>
</a>
</g>
</g>
<!-- Node7 -->
<g id="Node000007" class="node">
<title>Node7</title>
<g id="a_Node000007"><a xlink:href="config_8h.html" target="_top" xlink:title=" ">
<polygon fill="white" stroke="#666666" points="590.32,-20 540.57,-20 540.57,0 590.32,0 590.32,-20"/>
<text text-anchor="middle" x="565.44" y="-6.5" font-family="Helvetica,sans-Serif" font-size="10.00">config.h</text>
</a>
</g>
</g>
<!-- Node6&#45;&gt;Node7 -->
<g id="edge8_Node000006_Node000007" class="edge">
<title>Node6&#45;&gt;Node7</title>
<g id="a_edge8_Node000006_Node000007"><a xlink:title=" ">
<path fill="none" stroke="#63b8ff" d="M501.59,-55.55C514.16,-46.78 529.86,-35.83 542.55,-26.97"/>
<polygon fill="#63b8ff" stroke="#63b8ff" points="544.52,-29.87 550.72,-21.27 540.51,-24.13 544.52,-29.87"/>
</a>
</g>
</g>
<!-- Node8 -->
<g id="Node000008" class="node">
<title>Node8</title>
<g id="a_Node000008"><a xlink:href="platform_8h.html" target="_top" xlink:title=" ">
<polygon fill="white" stroke="#666666" points="666.82,-20 608.07,-20 608.07,0 666.82,0 666.82,-20"/>
<text text-anchor="middle" x="637.44" y="-6.5" font-family="Helvetica,sans-Serif" font-size="10.00">platform.h</text>
</a>
</g>
</g>
<!-- Node6&#45;&gt;Node8 -->
<g id="edge9_Node000006_Node000008" class="edge">
<title>Node6&#45;&gt;Node8</title>
<g id="a_edge9_Node000006_Node000008"><a xlink:title=" ">
<path fill="none" stroke="#63b8ff" d="M520.13,-55.55C545.51,-45.91 577.84,-33.64 602.13,-24.41"/>
<polygon fill="#63b8ff" stroke="#63b8ff" points="603.15,-27.77 611.25,-20.95 600.66,-21.22 603.15,-27.77"/>
</a>
</g>
</g>
<!-- Node9 -->
<g id="Node000009" class="node">
<title>Node9</title>
<g id="a_Node000009"><a xlink:title=" ">
<polygon fill="#e0e0e0" stroke="#999999" points="742.07,-20 684.82,-20 684.82,0 742.07,0 742.07,-20"/>
<text text-anchor="middle" x="713.44" y="-6.5" font-family="Helvetica,sans-Serif" font-size="10.00">functional</text>
</a>
</g>
</g>
<!-- Node6&#45;&gt;Node9 -->
<g id="edge10_Node000006_Node000009" class="edge">
<title>Node6&#45;&gt;Node9</title>
<g id="a_edge10_Node000006_Node000009"><a xlink:title=" ">
<path fill="none" stroke="#63b8ff" d="M538.79,-55.78C581.01,-44.96 636.56,-30.71 673.56,-21.23"/>
<polygon fill="#63b8ff" stroke="#63b8ff" points="674.13,-24.69 682.95,-18.82 672.39,-17.91 674.13,-24.69"/>
</a>
</g>
</g>
<!-- Node10 -->
<g id="Node000010" class="node">
<title>Node10</title>
<g id="a_Node000010"><a xlink:title=" ">
<polygon fill="#e0e0e0" stroke="#999999" points="418.57,-20 340.32,-20 340.32,0 418.57,0 418.57,-20"/>
<text text-anchor="middle" x="379.44" y="-6.5" font-family="Helvetica,sans-Serif" font-size="10.00">VkBootstrap.h</text>
</a>
</g>
</g>
<!-- Node6&#45;&gt;Node10 -->
<g id="edge11_Node000006_Node000010" class="edge">
<title>Node6&#45;&gt;Node10</title>
<g id="a_edge11_Node000006_Node000010"><a xlink:title=" ">
<path fill="none" stroke="#63b8ff" d="M453.69,-55.55C438.64,-46.52 419.73,-35.17 404.76,-26.19"/>
<polygon fill="#63b8ff" stroke="#63b8ff" points="406.8,-23.33 396.42,-21.19 403.2,-29.33 406.8,-23.33"/>
</a>
</g>
</g>
<!-- Node11 -->
<g id="Node000011" class="node">
<title>Node11</title>
<g id="a_Node000011"><a xlink:title=" ">
<polygon fill="#e0e0e0" stroke="#999999" points="522.32,-20 436.57,-20 436.57,0 522.32,0 522.32,-20"/>
<text text-anchor="middle" x="479.44" y="-6.5" font-family="Helvetica,sans-Serif" font-size="10.00">vk_mem_alloc.h</text>
</a>
</g>
</g>
<!-- Node6&#45;&gt;Node11 -->
<g id="edge12_Node000006_Node000011" class="edge">
<title>Node6&#45;&gt;Node11</title>
<g id="a_edge12_Node000006_Node000011"><a xlink:title=" ">
<path fill="none" stroke="#63b8ff" d="M479.44,-55.55C479.44,-48.34 479.44,-39.66 479.44,-31.88"/>
<polygon fill="#63b8ff" stroke="#63b8ff" points="482.94,-31.92 479.44,-21.92 475.94,-31.92 482.94,-31.92"/>
</a>
</g>
</g>
<!-- Node12&#45;&gt;Node4 -->
<g id="edge15_Node000012_Node000004" class="edge">
<title>Node12&#45;&gt;Node4</title>
<g id="a_edge15_Node000012_Node000004"><a xlink:title=" ">
<path fill="none" stroke="#63b8ff" d="M460.25,-129.59C427.35,-107.77 345.58,-53.54 305.02,-26.64"/>
<polygon fill="#63b8ff" stroke="#63b8ff" points="307.19,-23.87 296.92,-21.26 303.32,-29.71 307.19,-23.87"/>
</a>
</g>
</g>
<!-- Node12&#45;&gt;Node6 -->
<g id="edge16_Node000012_Node000006" class="edge">
<title>Node12&#45;&gt;Node6</title>
<g id="a_edge16_Node000012_Node000006"><a xlink:title=" ">
<path fill="none" stroke="#63b8ff" d="M475.16,-129.54C475.75,-121.72 476.62,-110.22 477.43,-99.63"/>
<polygon fill="#63b8ff" stroke="#63b8ff" points="480.9,-100.05 478.17,-89.81 473.92,-99.52 480.9,-100.05"/>
</a>
</g>
</g>
<!-- Node13&#45;&gt;Node6 -->
<g id="edge22_Node000013_Node000006" class="edge">
<title>Node13&#45;&gt;Node6</title>
<g id="a_edge22_Node000013_Node000006"><a xlink:title=" ">
<path fill="none" stroke="#63b8ff" d="M611.88,-123.53C587.68,-114.29 556.71,-102.48 530.81,-92.6"/>
<polygon fill="#63b8ff" stroke="#63b8ff" points="532.05,-89.33 521.46,-89.03 529.56,-95.87 532.05,-89.33"/>
</a>
</g>
</g>
<!-- Node13&#45;&gt;Node7 -->
<g id="edge20_Node000013_Node000007" class="edge">
<title>Node13&#45;&gt;Node7</title>
<g id="a_edge20_Node000013_Node000007"><a xlink:title=" ">
<path fill="none" stroke="#63b8ff" d="M641.95,-123.56C625.9,-99.95 595.32,-54.95 578.08,-29.59"/>
<polygon fill="#63b8ff" stroke="#63b8ff" points="581.15,-27.88 572.63,-21.58 575.36,-31.82 581.15,-27.88"/>
</a>
</g>
</g>
<!-- Node13&#45;&gt;Node8 -->
<g id="edge21_Node000013_Node000008" class="edge">
<title>Node13&#45;&gt;Node8</title>
<g id="a_edge21_Node000013_Node000008"><a xlink:title=" ">
<path fill="none" stroke="#63b8ff" d="M650.63,-123.56C647.94,-100.58 642.87,-57.34 639.86,-31.66"/>
<polygon fill="#63b8ff" stroke="#63b8ff" points="643.35,-31.35 638.71,-21.83 636.4,-32.17 643.35,-31.35"/>
</a>
</g>
</g>
<!-- Node13&#45;&gt;Node9 -->
<g id="edge19_Node000013_Node000009" class="edge">
<title>Node13&#45;&gt;Node9</title>
<g id="a_edge19_Node000013_Node000009"><a xlink:title=" ">
<path fill="none" stroke="#63b8ff" d="M659.8,-123.56C670.9,-100.27 691.93,-56.15 704.1,-30.61"/>
<polygon fill="#63b8ff" stroke="#63b8ff" points="707.21,-32.23 708.35,-21.69 700.89,-29.21 707.21,-32.23"/>
</a>
</g>
</g>
<!-- Node14&#45;&gt;Node2 -->
<g id="edge24_Node000014_Node000002" class="edge">
<title>Node14&#45;&gt;Node2</title>
<g id="a_edge24_Node000014_Node000002"><a xlink:title=" ">
<path fill="none" stroke="#63b8ff" d="M150.79,-191.53C128.52,-180.64 98.92,-166.17 77.11,-155.5"/>
<polygon fill="#63b8ff" stroke="#63b8ff" points="78.67,-152.37 68.15,-151.12 75.6,-158.66 78.67,-152.37"/>
</a>
</g>
</g>
<!-- Node14&#45;&gt;Node3 -->
<g id="edge25_Node000014_Node000003" class="edge">
<title>Node14&#45;&gt;Node3</title>
<g id="a_edge25_Node000014_Node000003"><a xlink:title=" ">
<path fill="none" stroke="#63b8ff" d="M171.31,-191.7C164.77,-181.95 156.94,-168.79 152.44,-156 145.29,-135.64 142.4,-111.03 141.23,-93.92"/>
<polygon fill="#63b8ff" stroke="#63b8ff" points="144.73,-93.81 140.71,-84 137.74,-94.17 144.73,-93.81"/>
</a>
</g>
</g>
<!-- Node14&#45;&gt;Node4 -->
<g id="edge27_Node000014_Node000004" class="edge">
<title>Node14&#45;&gt;Node4</title>
<g id="a_edge27_Node000014_Node000004"><a xlink:title=" ">
<path fill="none" stroke="#63b8ff" d="M165.52,-191.62C135.91,-162.85 80.87,-99.82 114.44,-56 128.44,-37.73 185.56,-25.2 229.14,-18.1"/>
<polygon fill="#63b8ff" stroke="#63b8ff" points="229.62,-21.56 238.96,-16.55 228.54,-14.65 229.62,-21.56"/>
</a>
</g>
</g>
<!-- Node14&#45;&gt;Node5 -->
<g id="edge29_Node000014_Node000005" class="edge">
<title>Node14&#45;&gt;Node5</title>
<g id="a_edge29_Node000014_Node000005"><a xlink:title=" ">
<path fill="none" stroke="#63b8ff" d="M207.3,-191.53C221.25,-182.84 238.87,-171.86 254.13,-162.37"/>
<polygon fill="#63b8ff" stroke="#63b8ff" points="255.82,-165.43 262.46,-157.18 252.12,-159.49 255.82,-165.43"/>
</a>
</g>
</g>
<!-- Node14&#45;&gt;Node6 -->
<g id="edge28_Node000014_Node000006" class="edge">
<title>Node14&#45;&gt;Node6</title>
<g id="a_edge28_Node000014_Node000006"><a xlink:title=" ">
<path fill="none" stroke="#63b8ff" d="M243.07,-196.77C279.68,-188.98 326.45,-176.1 364.44,-156 383.96,-145.68 384.77,-137.23 402.44,-124 416.08,-113.8 431.66,-103.28 445.21,-94.47"/>
<polygon fill="#63b8ff" stroke="#63b8ff" points="446.89,-97.55 453.4,-89.2 443.1,-91.67 446.89,-97.55"/>
</a>
</g>
</g>
<!-- Node15 -->
<g id="Node000015" class="node">
<title>Node15</title>
<g id="a_Node000015"><a xlink:title=" ">
<polygon fill="#e0e0e0" stroke="#999999" points="203.19,-150 161.69,-150 161.69,-130 203.19,-130 203.19,-150"/>
<text text-anchor="middle" x="182.44" y="-136.5" font-family="Helvetica,sans-Serif" font-size="10.00">vector</text>
</a>
</g>
</g>
<!-- Node14&#45;&gt;Node15 -->
<g id="edge26_Node000014_Node000015" class="edge">
<title>Node14&#45;&gt;Node15</title>
<g id="a_edge26_Node000014_Node000015"><a xlink:title=" ">
<path fill="none" stroke="#63b8ff" d="M182.44,-191.69C182.44,-182.8 182.44,-171.46 182.44,-161.77"/>
<polygon fill="#63b8ff" stroke="#63b8ff" points="185.94,-161.83 182.44,-151.83 178.94,-161.83 185.94,-161.83"/>
</a>
</g>
</g>
</g>
</svg>

<g id="navigator" transform="translate(0 0)" fill="#404254">
  <rect fill="#f2f5e9" fill-opacity="0.5" stroke="#606060" stroke-width=".5" x="0" y="0" width="60" height="60"/>
  <use id="zoomplus" xlink:href="#zoomPlus" x="17" y="9" onmousedown="handleZoom(evt,'in')"/>
  <use id="zoomminus" xlink:href="#zoomMin" x="42" y="9" onmousedown="handleZoom(evt,'out')"/>
  <use id="reset" xlink:href="#resetDef" x="30" y="36" onmousedown="handleReset()"/>
   <use id="arrowup" xlink:href="#arrowUp" x="0" y="0" onmousedown="handlePan(0,-1)"/>
  <use id="arrowright" xlink:href="#arrowRight" x="0" y="0" onmousedown="handlePan(1,0)"/>
  <use id="arrowdown" xlink:href="#arrowDown" x="0" y="0" onmousedown="handlePan(0,1)"/>
  <use id="arrowleft" xlink:href="#arrowLeft" x="0" y="0" onmousedown="handlePan(-1,0)"/>
</g>
<svg viewBox="0 0 15 15" width="100%" height="30px" preserveAspectRatio="xMaxYMin meet">
 <g id="arrow_out" transform="scale(0.3 0.3)">
  <a xlink:href="render__system_8h__incl_org.svg" target="_base">
   <rect id="button" ry="5" rx="5" y="6" x="6" height="38" width="38"
        fill="#f2f5e9" fill-opacity="0.5" stroke="#606060" stroke-width="1.0"/>
   <path id="arrow"
     d="M 11.500037,31.436501 C 11.940474,20.09759 22.043105,11.32322 32.158766,21.979434 L 37.068811,17.246167 C 37.068811,17.246167 37.088388,32 37.088388,32 L 22.160133,31.978069 C 22.160133,31.978069 26.997745,27.140456 26.997745,27.140456 C 18.528582,18.264221 13.291696,25.230495 11.500037,31.436501 z"
     style="fill:#404040;"/>
  </a>
 </g>
</svg>

<style type='text/css'>
<![CDATA[
[data-mouse-over-selected='false'] { opacity: 0.7; }
[data-mouse-over-selected='true']  { opacity: 1.0; }
]]>
</style>
<script type="application/ecmascript"><![CDATA[
document.addEventListener('DOMContentLoaded', (event) => {
  highlightEdges();
  highlightAdjacentNodes();
});
]]></script>
</svg>
