<?xml version="1.0" encoding="UTF-8" standalone="no"?>
<!DOCTYPE svg PUBLIC "-//W3C//DTD SVG 1.1//EN"
 "http://www.w3.org/Graphics/SVG/1.1/DTD/svg11.dtd">
<!-- Generated by graphviz version 10.0.1 (20240210.2158)
 -->
<!-- Title: hybrid&#45;renderer&#45;lib/src/renderer_internal/render_pass.cpp Pages: 1 -->
<svg width="791pt" height="380pt"
 viewBox="0.00 0.00 790.88 380.00" xmlns="http://www.w3.org/2000/svg" xmlns:xlink="http://www.w3.org/1999/xlink">
<g id="graph0" class="graph" transform="scale(1 1) rotate(0) translate(4 376)">
<title>hybrid&#45;renderer&#45;lib/src/renderer_internal/render_pass.cpp</title>
<!-- Node1 -->
<g id="Node000001" class="node">
<title>Node1</title>
<g id="a_Node000001"><a xlink:title=" ">
<polygon fill="#999999" stroke="#666666" points="466.62,-372 359.12,-372 359.12,-328 466.62,-328 466.62,-372"/>
<text text-anchor="start" x="367.12" y="-358.5" font-family="Helvetica,sans-Serif" font-size="10.00">hybrid&#45;renderer&#45;lib</text>
<text text-anchor="start" x="367.12" y="-346.5" font-family="Helvetica,sans-Serif" font-size="10.00">/src/renderer_internal</text>
<text text-anchor="middle" x="412.88" y="-334.5" font-family="Helvetica,sans-Serif" font-size="10.00">/render_pass.cpp</text>
</a>
</g>
</g>
<!-- Node2 -->
<g id="Node000002" class="node">
<title>Node2</title>
<g id="a_Node000002"><a xlink:href="render__pass_8h.html" target="_top" xlink:title=" ">
<polygon fill="white" stroke="#666666" points="388.88,-292 270.88,-292 270.88,-260 388.88,-260 388.88,-292"/>
<text text-anchor="start" x="278.88" y="-278.5" font-family="Helvetica,sans-Serif" font-size="10.00">renderer_internal/render</text>
<text text-anchor="middle" x="329.88" y="-266.5" font-family="Helvetica,sans-Serif" font-size="10.00">_pass.h</text>
</a>
</g>
</g>
<!-- Node1&#45;&gt;Node2 -->
<g id="edge1_Node000001_Node000002" class="edge">
<title>Node1&#45;&gt;Node2</title>
<g id="a_edge1_Node000001_Node000002"><a xlink:title=" ">
<path fill="none" stroke="#63b8ff" d="M388.42,-327.79C378.29,-319 366.51,-308.78 356.19,-299.83"/>
<polygon fill="#63b8ff" stroke="#63b8ff" points="358.56,-297.25 348.72,-293.34 353.98,-302.54 358.56,-297.25"/>
</a>
</g>
</g>
<!-- Node3 -->
<g id="Node000003" class="node">
<title>Node3</title>
<g id="a_Node000003"><a xlink:title=" ">
<polygon fill="#e0e0e0" stroke="#999999" points="82.75,-218 33,-218 33,-198 82.75,-198 82.75,-218"/>
<text text-anchor="middle" x="57.88" y="-204.5" font-family="Helvetica,sans-Serif" font-size="10.00">optional</text>
</a>
</g>
</g>
<!-- Node1&#45;&gt;Node3 -->
<g id="edge31_Node000001_Node000003" class="edge">
<title>Node1&#45;&gt;Node3</title>
<g id="a_edge31_Node000001_Node000003"><a xlink:title=" ">
<path fill="none" stroke="#63b8ff" d="M358.94,-329.02C330.07,-318.23 293.96,-304.58 261.88,-292 201.35,-268.27 131.24,-239.45 90.97,-222.77"/>
<polygon fill="#63b8ff" stroke="#63b8ff" points="92.42,-219.58 81.84,-218.98 89.73,-226.04 92.42,-219.58"/>
</a>
</g>
</g>
<!-- Node4 -->
<g id="Node000004" class="node">
<title>Node4</title>
<g id="a_Node000004"><a xlink:title=" ">
<polygon fill="#e0e0e0" stroke="#999999" points="430.62,-150 389.12,-150 389.12,-130 430.62,-130 430.62,-150"/>
<text text-anchor="middle" x="409.88" y="-136.5" font-family="Helvetica,sans-Serif" font-size="10.00">vector</text>
</a>
</g>
</g>
<!-- Node1&#45;&gt;Node4 -->
<g id="edge32_Node000001_Node000004" class="edge">
<title>Node1&#45;&gt;Node4</title>
<g id="a_edge32_Node000001_Node000004"><a xlink:title=" ">
<path fill="none" stroke="#63b8ff" d="M412.57,-327.52C411.99,-287.34 410.74,-201.27 410.17,-161.69"/>
<polygon fill="#63b8ff" stroke="#63b8ff" points="413.68,-161.85 410.03,-151.9 406.68,-161.95 413.68,-161.85"/>
</a>
</g>
</g>
<!-- Node5 -->
<g id="Node000005" class="node">
<title>Node5</title>
<g id="a_Node000005"><a xlink:title=" ">
<polygon fill="#e0e0e0" stroke="#999999" points="85.75,-20 0,-20 0,0 85.75,0 85.75,-20"/>
<text text-anchor="middle" x="42.88" y="-6.5" font-family="Helvetica,sans-Serif" font-size="10.00">vk_mem_alloc.h</text>
</a>
</g>
</g>
<!-- Node1&#45;&gt;Node5 -->
<g id="edge33_Node000001_Node000005" class="edge">
<title>Node1&#45;&gt;Node5</title>
<g id="a_edge33_Node000001_Node000005"><a xlink:title=" ">
<path fill="none" stroke="#63b8ff" d="M358.7,-341.99C247.71,-326.12 4.88,-282.95 4.88,-209 4.88,-209 4.88,-209 4.88,-139 4.88,-99.18 21.99,-55.16 33.25,-30.51"/>
<polygon fill="#63b8ff" stroke="#63b8ff" points="36.29,-32.25 37.41,-21.72 29.97,-29.25 36.29,-32.25"/>
</a>
</g>
</g>
<!-- Node6 -->
<g id="Node000006" class="node">
<title>Node6</title>
<g id="a_Node000006"><a xlink:title=" ">
<polygon fill="#e0e0e0" stroke="#999999" points="513.5,-20 432.25,-20 432.25,0 513.5,0 513.5,-20"/>
<text text-anchor="middle" x="472.88" y="-6.5" font-family="Helvetica,sans-Serif" font-size="10.00">vulkan/vulkan.h</text>
</a>
</g>
</g>
<!-- Node1&#45;&gt;Node6 -->
<g id="edge34_Node000001_Node000006" class="edge">
<title>Node1&#45;&gt;Node6</title>
<g id="a_edge34_Node000001_Node000006"><a xlink:title=" ">
<path fill="none" stroke="#63b8ff" d="M467.07,-340.14C569.84,-321.79 782.88,-275.71 782.88,-209 782.88,-209 782.88,-209 782.88,-139 782.88,-76.33 725.91,-81.98 668.88,-56 622.65,-34.94 565.67,-23.29 525.08,-17.15"/>
<polygon fill="#63b8ff" stroke="#63b8ff" points="525.72,-13.7 515.33,-15.74 524.72,-20.63 525.72,-13.7"/>
</a>
</g>
</g>
<!-- Node14 -->
<g id="Node000014" class="node">
<title>Node14</title>
<g id="a_Node000014"><a xlink:href="shader__database_8h.html" target="_top" xlink:title=" ">
<polygon fill="white" stroke="#666666" points="600,-224 479.75,-224 479.75,-192 600,-192 600,-224"/>
<text text-anchor="start" x="487.75" y="-210.5" font-family="Helvetica,sans-Serif" font-size="10.00">renderer_internal/shader</text>
<text text-anchor="middle" x="539.88" y="-198.5" font-family="Helvetica,sans-Serif" font-size="10.00">_database.h</text>
</a>
</g>
</g>
<!-- Node1&#45;&gt;Node14 -->
<g id="edge35_Node000001_Node000014" class="edge">
<title>Node1&#45;&gt;Node14</title>
<g id="a_edge35_Node000001_Node000014"><a xlink:title=" ">
<path fill="none" stroke="#63b8ff" d="M432.16,-327.74C455.36,-302.17 494.17,-259.39 518.32,-232.76"/>
<polygon fill="#63b8ff" stroke="#63b8ff" points="520.77,-235.27 524.89,-225.52 515.58,-230.57 520.77,-235.27"/>
</a>
</g>
</g>
<!-- Node2&#45;&gt;Node3 -->
<g id="edge2_Node000002_Node000003" class="edge">
<title>Node2&#45;&gt;Node3</title>
<g id="a_edge2_Node000002_Node000003"><a xlink:title=" ">
<path fill="none" stroke="#63b8ff" d="M270.83,-264.64C223.35,-255.7 155.18,-241.48 96.88,-224 95.14,-223.48 93.38,-222.92 91.6,-222.33"/>
<polygon fill="#63b8ff" stroke="#63b8ff" points="92.79,-219.04 82.2,-218.98 90.44,-225.63 92.79,-219.04"/>
</a>
</g>
</g>
<!-- Node2&#45;&gt;Node4 -->
<g id="edge3_Node000002_Node000004" class="edge">
<title>Node2&#45;&gt;Node4</title>
<g id="a_edge3_Node000002_Node000004"><a xlink:title=" ">
<path fill="none" stroke="#63b8ff" d="M345.91,-259.54C355.23,-249.95 366.71,-237 374.88,-224 387.46,-203.98 397.39,-178.65 403.41,-161.27"/>
<polygon fill="#63b8ff" stroke="#63b8ff" points="406.7,-162.47 406.53,-151.88 400.05,-160.26 406.7,-162.47"/>
</a>
</g>
</g>
<!-- Node2&#45;&gt;Node5 -->
<g id="edge4_Node000002_Node000005" class="edge">
<title>Node2&#45;&gt;Node5</title>
<g id="a_edge4_Node000002_Node000005"><a xlink:title=" ">
<path fill="none" stroke="#63b8ff" d="M270.44,-266.27C207.6,-253.65 110.93,-223.87 61.88,-156 34.94,-118.73 36.61,-61.61 39.89,-31.39"/>
<polygon fill="#63b8ff" stroke="#63b8ff" points="43.33,-32.09 41.12,-21.72 36.38,-31.2 43.33,-32.09"/>
</a>
</g>
</g>
<!-- Node2&#45;&gt;Node6 -->
<g id="edge5_Node000002_Node000006" class="edge">
<title>Node2&#45;&gt;Node6</title>
<g id="a_edge5_Node000002_Node000006"><a xlink:title=" ">
<path fill="none" stroke="#63b8ff" d="M332.98,-259.67C339.1,-231.51 354.39,-170.18 379.88,-124 400.6,-86.43 434.45,-49.26 455.09,-28.3"/>
<polygon fill="#63b8ff" stroke="#63b8ff" points="457.37,-30.97 461.98,-21.43 452.43,-26.01 457.37,-30.97"/>
</a>
</g>
</g>
<!-- Node7 -->
<g id="Node000007" class="node">
<title>Node7</title>
<g id="a_Node000007"><a xlink:href="image_8h.html" target="_top" xlink:title=" ">
<polygon fill="white" stroke="#666666" points="332.62,-150 207.12,-150 207.12,-130 332.62,-130 332.62,-150"/>
<text text-anchor="middle" x="269.88" y="-136.5" font-family="Helvetica,sans-Serif" font-size="10.00">renderer_internal/image.h</text>
</a>
</g>
</g>
<!-- Node2&#45;&gt;Node7 -->
<g id="edge6_Node000002_Node000007" class="edge">
<title>Node2&#45;&gt;Node7</title>
<g id="a_edge6_Node000002_Node000007"><a xlink:title=" ">
<path fill="none" stroke="#63b8ff" d="M322.99,-259.63C312.05,-235.2 290.71,-187.52 278.67,-160.65"/>
<polygon fill="#63b8ff" stroke="#63b8ff" points="281.9,-159.3 274.62,-151.6 275.52,-162.16 281.9,-159.3"/>
</a>
</g>
</g>
<!-- Node13 -->
<g id="Node000013" class="node">
<title>Node13</title>
<g id="a_Node000013"><a xlink:href="render__core_8h.html" target="_top" xlink:title=" ">
<polygon fill="white" stroke="#666666" points="188.88,-156 70.88,-156 70.88,-124 188.88,-124 188.88,-156"/>
<text text-anchor="start" x="78.88" y="-142.5" font-family="Helvetica,sans-Serif" font-size="10.00">renderer_internal/render</text>
<text text-anchor="middle" x="129.88" y="-130.5" font-family="Helvetica,sans-Serif" font-size="10.00">_core.h</text>
</a>
</g>
</g>
<!-- Node2&#45;&gt;Node13 -->
<g id="edge16_Node000002_Node000013" class="edge">
<title>Node2&#45;&gt;Node13</title>
<g id="a_edge16_Node000002_Node000013"><a xlink:title=" ">
<path fill="none" stroke="#63b8ff" d="M306.93,-259.63C271.39,-235.81 202.88,-189.91 162.29,-162.72"/>
<polygon fill="#63b8ff" stroke="#63b8ff" points="164.37,-159.9 154.11,-157.24 160.47,-165.71 164.37,-159.9"/>
</a>
</g>
</g>
<!-- Node2&#45;&gt;Node14 -->
<g id="edge21_Node000002_Node000014" class="edge">
<title>Node2&#45;&gt;Node14</title>
<g id="a_edge21_Node000002_Node000014"><a xlink:title=" ">
<path fill="none" stroke="#63b8ff" d="M379.11,-259.53C409.15,-250.09 447.77,-237.95 479.62,-227.94"/>
<polygon fill="#63b8ff" stroke="#63b8ff" points="480.65,-231.28 489.14,-224.95 478.55,-224.6 480.65,-231.28"/>
</a>
</g>
</g>
<!-- Node7&#45;&gt;Node5 -->
<g id="edge7_Node000007_Node000005" class="edge">
<title>Node7&#45;&gt;Node5</title>
<g id="a_edge7_Node000007_Node000005"><a xlink:title=" ">
<path fill="none" stroke="#63b8ff" d="M253.18,-129.59C214.16,-107.58 116.68,-52.61 69.41,-25.96"/>
<polygon fill="#63b8ff" stroke="#63b8ff" points="71.34,-23.03 60.91,-21.17 67.9,-29.13 71.34,-23.03"/>
</a>
</g>
</g>
<!-- Node7&#45;&gt;Node6 -->
<g id="edge8_Node000007_Node000006" class="edge">
<title>Node7&#45;&gt;Node6</title>
<g id="a_edge8_Node000007_Node000006"><a xlink:title=" ">
<path fill="none" stroke="#63b8ff" d="M285.43,-129.55C301.71,-119.55 327.91,-103.15 349.88,-88 369.49,-74.48 372.9,-68.98 392.88,-56 409.6,-45.14 429.08,-34.14 444.64,-25.74"/>
<polygon fill="#63b8ff" stroke="#63b8ff" points="446.19,-28.88 453.36,-21.08 442.89,-22.71 446.19,-28.88"/>
</a>
</g>
</g>
<!-- Node8 -->
<g id="Node000008" class="node">
<title>Node8</title>
<g id="a_Node000008"><a xlink:href="render__context_8h.html" target="_top" xlink:title=" ">
<polygon fill="white" stroke="#666666" points="340.88,-88 222.88,-88 222.88,-56 340.88,-56 340.88,-88"/>
<text text-anchor="start" x="230.88" y="-74.5" font-family="Helvetica,sans-Serif" font-size="10.00">renderer_internal/render</text>
<text text-anchor="middle" x="281.88" y="-62.5" font-family="Helvetica,sans-Serif" font-size="10.00">_context.h</text>
</a>
</g>
</g>
<!-- Node7&#45;&gt;Node8 -->
<g id="edge9_Node000007_Node000008" class="edge">
<title>Node7&#45;&gt;Node8</title>
<g id="a_edge9_Node000007_Node000008"><a xlink:title=" ">
<path fill="none" stroke="#63b8ff" d="M271.59,-129.54C273.02,-121.72 275.11,-110.22 277.03,-99.63"/>
<polygon fill="#63b8ff" stroke="#63b8ff" points="280.48,-100.26 278.82,-89.79 273.59,-99 280.48,-100.26"/>
</a>
</g>
</g>
<!-- Node8&#45;&gt;Node5 -->
<g id="edge14_Node000008_Node000005" class="edge">
<title>Node8&#45;&gt;Node5</title>
<g id="a_edge14_Node000008_Node000005"><a xlink:title=" ">
<path fill="none" stroke="#63b8ff" d="M222.49,-56.09C182.1,-45.95 129.32,-32.7 91.44,-23.19"/>
<polygon fill="#63b8ff" stroke="#63b8ff" points="92.71,-19.9 82.15,-20.86 91,-26.69 92.71,-19.9"/>
</a>
</g>
</g>
<!-- Node8&#45;&gt;Node6 -->
<g id="edge15_Node000008_Node000006" class="edge">
<title>Node8&#45;&gt;Node6</title>
<g id="a_edge15_Node000008_Node000006"><a xlink:title=" ">
<path fill="none" stroke="#63b8ff" d="M331.06,-55.55C362.33,-45.73 402.33,-33.16 431.87,-23.88"/>
<polygon fill="#63b8ff" stroke="#63b8ff" points="432.71,-27.29 441.2,-20.95 430.61,-20.61 432.71,-27.29"/>
</a>
</g>
</g>
<!-- Node9 -->
<g id="Node000009" class="node">
<title>Node9</title>
<g id="a_Node000009"><a xlink:href="config_8h.html" target="_top" xlink:title=" ">
<polygon fill="white" stroke="#666666" points="229.75,-20 180,-20 180,0 229.75,0 229.75,-20"/>
<text text-anchor="middle" x="204.88" y="-6.5" font-family="Helvetica,sans-Serif" font-size="10.00">config.h</text>
</a>
</g>
</g>
<!-- Node8&#45;&gt;Node9 -->
<g id="edge10_Node000008_Node000009" class="edge">
<title>Node8&#45;&gt;Node9</title>
<g id="a_edge10_Node000008_Node000009"><a xlink:title=" ">
<path fill="none" stroke="#63b8ff" d="M262.05,-55.55C250.91,-46.87 237.01,-36.04 225.71,-27.24"/>
<polygon fill="#63b8ff" stroke="#63b8ff" points="228.18,-24.72 218.14,-21.34 223.88,-30.25 228.18,-24.72"/>
</a>
</g>
</g>
<!-- Node10 -->
<g id="Node000010" class="node">
<title>Node10</title>
<g id="a_Node000010"><a xlink:href="platform_8h.html" target="_top" xlink:title=" ">
<polygon fill="white" stroke="#666666" points="162.25,-20 103.5,-20 103.5,0 162.25,0 162.25,-20"/>
<text text-anchor="middle" x="132.88" y="-6.5" font-family="Helvetica,sans-Serif" font-size="10.00">platform.h</text>
</a>
</g>
</g>
<!-- Node8&#45;&gt;Node10 -->
<g id="edge11_Node000008_Node000010" class="edge">
<title>Node8&#45;&gt;Node10</title>
<g id="a_edge11_Node000008_Node000010"><a xlink:title=" ">
<path fill="none" stroke="#63b8ff" d="M243.5,-55.55C219.79,-46 189.64,-33.86 166.8,-24.66"/>
<polygon fill="#63b8ff" stroke="#63b8ff" points="168.23,-21.46 157.64,-20.97 165.61,-27.96 168.23,-21.46"/>
</a>
</g>
</g>
<!-- Node11 -->
<g id="Node000011" class="node">
<title>Node11</title>
<g id="a_Node000011"><a xlink:title=" ">
<polygon fill="#e0e0e0" stroke="#999999" points="305.5,-20 248.25,-20 248.25,0 305.5,0 305.5,-20"/>
<text text-anchor="middle" x="276.88" y="-6.5" font-family="Helvetica,sans-Serif" font-size="10.00">functional</text>
</a>
</g>
</g>
<!-- Node8&#45;&gt;Node11 -->
<g id="edge12_Node000008_Node000011" class="edge">
<title>Node8&#45;&gt;Node11</title>
<g id="a_edge12_Node000008_Node000011"><a xlink:title=" ">
<path fill="none" stroke="#63b8ff" d="M280.59,-55.55C279.98,-48.26 279.25,-39.45 278.59,-31.6"/>
<polygon fill="#63b8ff" stroke="#63b8ff" points="282.1,-31.59 277.78,-21.92 275.13,-32.17 282.1,-31.59"/>
</a>
</g>
</g>
<!-- Node12 -->
<g id="Node000012" class="node">
<title>Node12</title>
<g id="a_Node000012"><a xlink:title=" ">
<polygon fill="#e0e0e0" stroke="#999999" points="402,-20 323.75,-20 323.75,0 402,0 402,-20"/>
<text text-anchor="middle" x="362.88" y="-6.5" font-family="Helvetica,sans-Serif" font-size="10.00">VkBootstrap.h</text>
</a>
</g>
</g>
<!-- Node8&#45;&gt;Node12 -->
<g id="edge13_Node000008_Node000012" class="edge">
<title>Node8&#45;&gt;Node12</title>
<g id="a_edge13_Node000008_Node000012"><a xlink:title=" ">
<path fill="none" stroke="#63b8ff" d="M302.73,-55.55C314.45,-46.87 329.07,-36.04 340.95,-27.24"/>
<polygon fill="#63b8ff" stroke="#63b8ff" points="343.01,-30.07 348.96,-21.31 338.84,-24.45 343.01,-30.07"/>
</a>
</g>
</g>
<!-- Node13&#45;&gt;Node8 -->
<g id="edge20_Node000013_Node000008" class="edge">
<title>Node13&#45;&gt;Node8</title>
<g id="a_edge20_Node000013_Node000008"><a xlink:title=" ">
<path fill="none" stroke="#63b8ff" d="M165.51,-123.53C186.5,-114.41 213.26,-102.79 235.83,-92.99"/>
<polygon fill="#63b8ff" stroke="#63b8ff" points="237.03,-96.29 244.81,-89.09 234.24,-89.87 237.03,-96.29"/>
</a>
</g>
</g>
<!-- Node13&#45;&gt;Node9 -->
<g id="edge18_Node000013_Node000009" class="edge">
<title>Node13&#45;&gt;Node9</title>
<g id="a_edge18_Node000013_Node000009"><a xlink:title=" ">
<path fill="none" stroke="#63b8ff" d="M138.92,-123.56C152.69,-100.06 178.89,-55.35 193.79,-29.92"/>
<polygon fill="#63b8ff" stroke="#63b8ff" points="196.61,-32.03 198.65,-21.63 190.57,-28.49 196.61,-32.03"/>
</a>
</g>
</g>
<!-- Node13&#45;&gt;Node10 -->
<g id="edge19_Node000013_Node000010" class="edge">
<title>Node13&#45;&gt;Node10</title>
<g id="a_edge19_Node000013_Node000010"><a xlink:title=" ">
<path fill="none" stroke="#63b8ff" d="M120.03,-123.62C114.37,-113.84 107.82,-100.68 104.88,-88 101.66,-74.15 100.97,-69.68 104.88,-56 107.58,-46.53 112.92,-37.11 118.22,-29.35"/>
<polygon fill="#63b8ff" stroke="#63b8ff" points="120.92,-31.59 124.04,-21.47 115.28,-27.44 120.92,-31.59"/>
</a>
</g>
</g>
<!-- Node13&#45;&gt;Node11 -->
<g id="edge17_Node000013_Node000011" class="edge">
<title>Node13&#45;&gt;Node11</title>
<g id="a_edge17_Node000013_Node000011"><a xlink:title=" ">
<path fill="none" stroke="#63b8ff" d="M145.08,-123.71C167.29,-101.42 206.74,-62.01 213.88,-56 226.25,-45.58 240.9,-35.02 252.97,-26.75"/>
<polygon fill="#63b8ff" stroke="#63b8ff" points="254.8,-29.73 261.13,-21.24 250.88,-23.93 254.8,-29.73"/>
</a>
</g>
</g>
<!-- Node14&#45;&gt;Node4 -->
<g id="edge24_Node000014_Node000004" class="edge">
<title>Node14&#45;&gt;Node4</title>
<g id="a_edge24_Node000014_Node000004"><a xlink:title=" ">
<path fill="none" stroke="#63b8ff" d="M509.4,-191.53C488.05,-180.69 459.71,-166.3 438.73,-155.65"/>
<polygon fill="#63b8ff" stroke="#63b8ff" points="440.36,-152.55 429.86,-151.15 437.19,-158.79 440.36,-152.55"/>
</a>
</g>
</g>
<!-- Node14&#45;&gt;Node6 -->
<g id="edge25_Node000014_Node000006" class="edge">
<title>Node14&#45;&gt;Node6</title>
<g id="a_edge25_Node000014_Node000006"><a xlink:title=" ">
<path fill="none" stroke="#63b8ff" d="M600.33,-200.19C656,-190.96 726.77,-169.99 703.88,-124 670.58,-57.12 582.11,-29.39 524.82,-18.21"/>
<polygon fill="#63b8ff" stroke="#63b8ff" points="525.76,-14.82 515.29,-16.46 524.5,-21.71 525.76,-14.82"/>
</a>
</g>
</g>
<!-- Node14&#45;&gt;Node8 -->
<g id="edge26_Node000014_Node000008" class="edge">
<title>Node14&#45;&gt;Node8</title>
<g id="a_edge26_Node000014_Node000008"><a xlink:title=" ">
<path fill="none" stroke="#63b8ff" d="M521.11,-191.66C508.79,-181.56 492.34,-168.04 477.88,-156 460.9,-141.88 459.19,-134.7 439.88,-124 412.72,-108.95 380.45,-97.54 352.17,-89.37"/>
<polygon fill="#63b8ff" stroke="#63b8ff" points="353.17,-86.01 342.6,-86.69 351.29,-92.75 353.17,-86.01"/>
</a>
</g>
</g>
<!-- Node15 -->
<g id="Node000015" class="node">
<title>Node15</title>
<g id="a_Node000015"><a xlink:title=" ">
<polygon fill="#e0e0e0" stroke="#999999" points="678.88,-150 638.88,-150 638.88,-130 678.88,-130 678.88,-150"/>
<text text-anchor="middle" x="658.88" y="-136.5" font-family="Helvetica,sans-Serif" font-size="10.00">string</text>
</a>
</g>
</g>
<!-- Node14&#45;&gt;Node15 -->
<g id="edge22_Node000014_Node000015" class="edge">
<title>Node14&#45;&gt;Node15</title>
<g id="a_edge22_Node000014_Node000015"><a xlink:title=" ">
<path fill="none" stroke="#63b8ff" d="M567.78,-191.53C587.13,-180.79 612.78,-166.56 631.93,-155.94"/>
<polygon fill="#63b8ff" stroke="#63b8ff" points="633.45,-159.11 640.49,-151.19 630.05,-152.98 633.45,-159.11"/>
</a>
</g>
</g>
<!-- Node16 -->
<g id="Node000016" class="node">
<title>Node16</title>
<g id="a_Node000016"><a xlink:title=" ">
<polygon fill="#e0e0e0" stroke="#999999" points="605.25,-82 570.5,-82 570.5,-62 605.25,-62 605.25,-82"/>
<text text-anchor="middle" x="587.88" y="-68.5" font-family="Helvetica,sans-Serif" font-size="10.00">map</text>
</a>
</g>
</g>
<!-- Node14&#45;&gt;Node16 -->
<g id="edge23_Node000014_Node000016" class="edge">
<title>Node14&#45;&gt;Node16</title>
<g id="a_edge23_Node000014_Node000016"><a xlink:title=" ">
<path fill="none" stroke="#63b8ff" d="M600.23,-202.47C631.83,-196.67 667.99,-183.88 687.88,-156 696.13,-144.42 695.3,-136.13 687.88,-124 672.39,-98.72 640,-85.48 616.27,-78.89"/>
<polygon fill="#63b8ff" stroke="#63b8ff" points="617.44,-75.58 606.89,-76.54 615.73,-82.37 617.44,-75.58"/>
</a>
</g>
</g>
<!-- Node17 -->
<g id="Node000017" class="node">
<title>Node17</title>
<g id="a_Node000017"><a xlink:href="descriptor__management_8h.html" target="_top" xlink:title=" ">
<polygon fill="white" stroke="#666666" points="620.75,-156 487,-156 487,-124 620.75,-124 620.75,-156"/>
<text text-anchor="start" x="495" y="-142.5" font-family="Helvetica,sans-Serif" font-size="10.00">renderer_internal/descriptor</text>
<text text-anchor="middle" x="553.88" y="-130.5" font-family="Helvetica,sans-Serif" font-size="10.00">_management.h</text>
</a>
</g>
</g>
<!-- Node14&#45;&gt;Node17 -->
<g id="edge27_Node000014_Node000017" class="edge">
<title>Node14&#45;&gt;Node17</title>
<g id="a_edge27_Node000014_Node000017"><a xlink:title=" ">
<path fill="none" stroke="#63b8ff" d="M543.12,-191.69C544.66,-184.45 546.54,-175.58 548.3,-167.3"/>
<polygon fill="#63b8ff" stroke="#63b8ff" points="551.68,-168.21 550.33,-157.71 544.83,-166.76 551.68,-168.21"/>
</a>
</g>
</g>
<!-- Node17&#45;&gt;Node6 -->
<g id="edge29_Node000017_Node000006" class="edge">
<title>Node17&#45;&gt;Node6</title>
<g id="a_edge29_Node000017_Node000006"><a xlink:title=" ">
<path fill="none" stroke="#63b8ff" d="M544.1,-123.56C529.23,-100.06 500.94,-55.35 484.85,-29.92"/>
<polygon fill="#63b8ff" stroke="#63b8ff" points="487.89,-28.18 479.59,-21.61 481.98,-31.93 487.89,-28.18"/>
</a>
</g>
</g>
<!-- Node17&#45;&gt;Node8 -->
<g id="edge30_Node000017_Node000008" class="edge">
<title>Node17&#45;&gt;Node8</title>
<g id="a_edge30_Node000017_Node000008"><a xlink:title=" ">
<path fill="none" stroke="#63b8ff" d="M490.1,-123.53C448.73,-113.49 394.81,-100.4 352.2,-90.06"/>
<polygon fill="#63b8ff" stroke="#63b8ff" points="353.08,-86.68 342.53,-87.72 351.42,-93.48 353.08,-86.68"/>
</a>
</g>
</g>
<!-- Node17&#45;&gt;Node16 -->
<g id="edge28_Node000017_Node000016" class="edge">
<title>Node17&#45;&gt;Node16</title>
<g id="a_edge28_Node000017_Node000016"><a xlink:title=" ">
<path fill="none" stroke="#63b8ff" d="M561.76,-123.69C566.55,-114.4 572.71,-102.44 577.84,-92.47"/>
<polygon fill="#63b8ff" stroke="#63b8ff" points="580.91,-94.15 582.38,-83.66 574.69,-90.95 580.91,-94.15"/>
</a>
</g>
</g>
</g>
</svg>
