<?xml version="1.0" encoding="UTF-8" standalone="no"?>
<!DOCTYPE svg PUBLIC "-//W3C//DTD SVG 1.1//EN"
 "http://www.w3.org/Graphics/SVG/1.1/DTD/svg11.dtd">
<!-- Generated by graphviz version 10.0.1 (20240210.2158)
 -->
<!-- Title: hybrid&#45;renderer&#45;lib/include/renderer_internal/render_context.h Pages: 1 -->
<!--zoomable 552 -->

<svg id="main" version="1.1" xmlns="http://www.w3.org/2000/svg" xmlns:xlink="http://www.w3.org/1999/xlink" xml:space="preserve" onload="init(evt)">
<style type="text/css"><![CDATA[
.node, .edge {opacity: 0.7;}
.node.selected, .edge.selected {opacity: 1;}
.edge:hover path { stroke: red; }
.edge:hover polygon { stroke: red; fill: red; }
]]></style>

<defs>
  <circle id="rim" cx="0" cy="0" r="7"/>
  <circle id="rim2" cx="0" cy="0" r="3.5"/>
  <g id="zoomPlus">
    <use xlink:href="#rim" fill="#404040"><set attributeName="fill" to="#808080" begin="zoomplus.mouseover" end="zoomplus.mouseout"/></use>
    <path d="M-4,0h8M0,-4v8" fill="none" stroke="white" stroke-width="1.5" pointer-events="none"/>
  </g>
  <g id="zoomMin">
    <use xlink:href="#rim" fill="#404040"><set attributeName="fill" to="#808080" begin="zoomminus.mouseover" end="zoomminus.mouseout"/></use>
    <path d="M-4,0h8" fill="none" stroke="white" stroke-width="1.5" pointer-events="none"/>
  </g>
  <g id="arrowUp" transform="translate(30 24)">
    <use xlink:href="#rim"/>
    <path pointer-events="none" fill="none" stroke="white" stroke-width="1.5" d="M0,-3.0v7 M-2.5,-0.5L0,-3.0L2.5,-0.5"/>
  </g>
  <g id="arrowRight" transform="rotate(90) translate(36 -43)">
    <use xlink:href="#rim"/>
    <path pointer-events="none" fill="none" stroke="white" stroke-width="1.5" d="M0,-3.0v7 M-2.5,-0.5L0,-3.0L2.5,-0.5"/>
  </g>
  <g id="arrowDown" transform="rotate(180) translate(-30 -48)">
    <use xlink:href="#rim"/>
    <path pointer-events="none" fill="none" stroke="white" stroke-width="1.5" d="M0,-3.0v7 M-2.5,-0.5L0,-3.0L2.5,-0.5"/>
  </g>
  <g id="arrowLeft" transform="rotate(270) translate(-36 17)">
    <use xlink:href="#rim"/>
    <path pointer-events="none" fill="none" stroke="white" stroke-width="1.5" d="M0,-3.0v7 M-2.5,-0.5L0,-3.0L2.5,-0.5"/>
  </g>
  <g id="resetDef">
    <use xlink:href="#rim2" fill="#404040"><set attributeName="fill" to="#808080" begin="reset.mouseover" end="reset.mouseout"/></use>
  </g>
</defs>
<script type="application/ecmascript">
var viewWidth = 1445;
var viewHeight = 552;
var sectionId = 'dynsection-1';
</script>
<script type="application/ecmascript" xlink:href="svg.min.js"/>
<svg id="graph" class="graph">
<g id="viewport">
<title>hybrid&#45;renderer&#45;lib/include/renderer_internal/render_context.h</title>
<!-- Node1 -->
<g id="Node000001" class="node">
<title>Node1</title>
<g id="a_Node000001"><a xlink:title=" ">
<polygon fill="#999999" stroke="#666666" points="710.12,-544 585.38,-544 585.38,-500 710.12,-500 710.12,-544"/>
<text text-anchor="start" x="593.38" y="-530.5" font-family="Helvetica,sans-Serif" font-size="10.00">hybrid&#45;renderer&#45;lib</text>
<text text-anchor="start" x="593.38" y="-518.5" font-family="Helvetica,sans-Serif" font-size="10.00">/include/renderer_internal</text>
<text text-anchor="middle" x="647.75" y="-506.5" font-family="Helvetica,sans-Serif" font-size="10.00">/render_context.h</text>
</a>
</g>
</g>
<!-- Node2 -->
<g id="Node000002" class="node">
<title>Node2</title>
<g id="a_Node000002"><a xlink:href="hybrid__renderer_8h.html" target="_top" xlink:title=" ">
<polygon fill="white" stroke="#666666" points="722.62,-218 594.88,-218 594.88,-186 722.62,-186 722.62,-218"/>
<text text-anchor="start" x="602.88" y="-204.5" font-family="Helvetica,sans-Serif" font-size="10.00">hybrid&#45;renderer&#45;lib</text>
<text text-anchor="middle" x="658.75" y="-192.5" font-family="Helvetica,sans-Serif" font-size="10.00">/include/hybrid_renderer.h</text>
</a>
</g>
</g>
<!-- Node1&#45;&gt;Node2 -->
<g id="edge1_Node000001_Node000002" class="edge">
<title>Node1&#45;&gt;Node2</title>
<g id="a_edge1_Node000001_Node000002"><a xlink:title=" ">
<path fill="none" stroke="#63b8ff" d="M573.75,-517.2C477.77,-511.04 316.8,-496.17 267.75,-464 218.06,-431.41 184.65,-389.35 217.75,-340 260.17,-276.74 482.54,-231.92 594.39,-213.01"/>
<polygon fill="#63b8ff" stroke="#63b8ff" points="573.42,-520.68 583.61,-517.81 573.85,-513.7 573.42,-520.68"/>
</a>
</g>
</g>
<!-- Node10 -->
<g id="Node000010" class="node">
<title>Node10</title>
<g id="a_Node000010"><a xlink:href="buffer_8h.html" target="_top" xlink:title=" ">
<polygon fill="white" stroke="#666666" points="185.12,-464 60.38,-464 60.38,-420 185.12,-420 185.12,-464"/>
<text text-anchor="start" x="68.38" y="-450.5" font-family="Helvetica,sans-Serif" font-size="10.00">hybrid&#45;renderer&#45;lib</text>
<text text-anchor="start" x="68.38" y="-438.5" font-family="Helvetica,sans-Serif" font-size="10.00">/include/renderer_internal</text>
<text text-anchor="middle" x="122.75" y="-426.5" font-family="Helvetica,sans-Serif" font-size="10.00">/buffer.h</text>
</a>
</g>
</g>
<!-- Node1&#45;&gt;Node10 -->
<g id="edge14_Node000001_Node000010" class="edge">
<title>Node1&#45;&gt;Node10</title>
<g id="a_edge14_Node000001_Node000010"><a xlink:title=" ">
<path fill="none" stroke="#63b8ff" d="M573.82,-514.89C484.39,-506.75 329.57,-490.24 198.75,-464 194.46,-463.14 190.05,-462.16 185.62,-461.12"/>
<polygon fill="#63b8ff" stroke="#63b8ff" points="573.41,-518.37 583.69,-515.78 574.04,-511.39 573.41,-518.37"/>
</a>
</g>
</g>
<!-- Node11 -->
<g id="Node000011" class="node">
<title>Node11</title>
<g id="a_Node000011"><a xlink:href="buffer_8cpp.html" target="_top" xlink:title=" ">
<polygon fill="white" stroke="#666666" points="107.5,-384 0,-384 0,-340 107.5,-340 107.5,-384"/>
<text text-anchor="start" x="8" y="-370.5" font-family="Helvetica,sans-Serif" font-size="10.00">hybrid&#45;renderer&#45;lib</text>
<text text-anchor="start" x="8" y="-358.5" font-family="Helvetica,sans-Serif" font-size="10.00">/src/renderer_internal</text>
<text text-anchor="middle" x="53.75" y="-346.5" font-family="Helvetica,sans-Serif" font-size="10.00">/buffer.cpp</text>
</a>
</g>
</g>
<!-- Node1&#45;&gt;Node11 -->
<g id="edge47_Node000001_Node000011" class="edge">
<title>Node1&#45;&gt;Node11</title>
<g id="a_edge47_Node000001_Node000011"><a xlink:title=" ">
<path fill="none" stroke="#63b8ff" d="M573.41,-519.36C421.36,-515.25 86.22,-501.93 51.75,-464 32.29,-442.59 38.74,-406.82 45.79,-384.1"/>
<polygon fill="#63b8ff" stroke="#63b8ff" points="573.31,-522.86 583.39,-519.63 573.49,-515.86 573.31,-522.86"/>
</a>
</g>
</g>
<!-- Node12 -->
<g id="Node000012" class="node">
<title>Node12</title>
<g id="a_Node000012"><a xlink:href="descriptor__management_8h.html" target="_top" xlink:title=" ">
<polygon fill="white" stroke="#666666" points="1046.5,-464 915,-464 915,-420 1046.5,-420 1046.5,-464"/>
<text text-anchor="start" x="923" y="-450.5" font-family="Helvetica,sans-Serif" font-size="10.00">hybrid&#45;renderer&#45;lib</text>
<text text-anchor="start" x="923" y="-438.5" font-family="Helvetica,sans-Serif" font-size="10.00">/include/renderer_internal</text>
<text text-anchor="middle" x="980.75" y="-426.5" font-family="Helvetica,sans-Serif" font-size="10.00">/descriptor_management.h</text>
</a>
</g>
</g>
<!-- Node1&#45;&gt;Node12 -->
<g id="edge17_Node000001_Node000012" class="edge">
<title>Node1&#45;&gt;Node12</title>
<g id="a_edge17_Node000001_Node000012"><a xlink:title=" ">
<path fill="none" stroke="#63b8ff" d="M721.28,-503.78C779.08,-490.24 858.9,-471.54 914.69,-458.47"/>
<polygon fill="#63b8ff" stroke="#63b8ff" points="720.8,-500.3 711.86,-505.98 722.39,-507.11 720.8,-500.3"/>
</a>
</g>
</g>
<!-- Node13 -->
<g id="Node000013" class="node">
<title>Node13</title>
<g id="a_Node000013"><a xlink:href="render__system_8h.html" target="_top" xlink:title=" ">
<polygon fill="white" stroke="#666666" points="991.12,-304 866.38,-304 866.38,-260 991.12,-260 991.12,-304"/>
<text text-anchor="start" x="874.38" y="-290.5" font-family="Helvetica,sans-Serif" font-size="10.00">hybrid&#45;renderer&#45;lib</text>
<text text-anchor="start" x="874.38" y="-278.5" font-family="Helvetica,sans-Serif" font-size="10.00">/include/renderer_internal</text>
<text text-anchor="middle" x="928.75" y="-266.5" font-family="Helvetica,sans-Serif" font-size="10.00">/render_system.h</text>
</a>
</g>
</g>
<!-- Node1&#45;&gt;Node13 -->
<g id="edge42_Node000001_Node000013" class="edge">
<title>Node1&#45;&gt;Node13</title>
<g id="a_edge42_Node000001_Node000013"><a xlink:title=" ">
<path fill="none" stroke="#63b8ff" d="M673.05,-491.09C716.25,-440.06 799.79,-341.47 801.75,-340 821.18,-325.42 844.92,-313.5 866.6,-304.41"/>
<polygon fill="#63b8ff" stroke="#63b8ff" points="670.5,-488.69 666.71,-498.59 675.84,-493.21 670.5,-488.69"/>
</a>
</g>
</g>
<!-- Node14 -->
<g id="Node000014" class="node">
<title>Node14</title>
<g id="a_Node000014"><a xlink:href="render__system_8cpp.html" target="_top" xlink:title=" ">
<polygon fill="white" stroke="#666666" points="1084.5,-224 977,-224 977,-180 1084.5,-180 1084.5,-224"/>
<text text-anchor="start" x="985" y="-210.5" font-family="Helvetica,sans-Serif" font-size="10.00">hybrid&#45;renderer&#45;lib</text>
<text text-anchor="start" x="985" y="-198.5" font-family="Helvetica,sans-Serif" font-size="10.00">/src/renderer_internal</text>
<text text-anchor="middle" x="1030.75" y="-186.5" font-family="Helvetica,sans-Serif" font-size="10.00">/render_system.cpp</text>
</a>
</g>
</g>
<!-- Node1&#45;&gt;Node14 -->
<g id="edge52_Node000001_Node000014" class="edge">
<title>Node1&#45;&gt;Node14</title>
<g id="a_edge52_Node000001_Node000014"><a xlink:title=" ">
<path fill="none" stroke="#63b8ff" d="M721.74,-518.5C839.29,-513.51 1062.58,-499.55 1132.75,-464 1219.43,-420.08 1246.17,-394.42 1281.75,-304 1288.91,-285.8 1293.95,-275.28 1281.75,-260 1257.6,-229.75 1151.18,-214.34 1084.9,-207.53"/>
<polygon fill="#63b8ff" stroke="#63b8ff" points="721.72,-515 711.88,-518.91 722.01,-522 721.72,-515"/>
</a>
</g>
</g>
<!-- Node15 -->
<g id="Node000015" class="node">
<title>Node15</title>
<g id="a_Node000015"><a xlink:href="shader__database_8h.html" target="_top" xlink:title=" ">
<polygon fill="white" stroke="#666666" points="1171.12,-384 1046.38,-384 1046.38,-340 1171.12,-340 1171.12,-384"/>
<text text-anchor="start" x="1054.38" y="-370.5" font-family="Helvetica,sans-Serif" font-size="10.00">hybrid&#45;renderer&#45;lib</text>
<text text-anchor="start" x="1054.38" y="-358.5" font-family="Helvetica,sans-Serif" font-size="10.00">/include/renderer_internal</text>
<text text-anchor="middle" x="1108.75" y="-346.5" font-family="Helvetica,sans-Serif" font-size="10.00">/shader_database.h</text>
</a>
</g>
</g>
<!-- Node1&#45;&gt;Node15 -->
<g id="edge46_Node000001_Node000015" class="edge">
<title>Node1&#45;&gt;Node15</title>
<g id="a_edge46_Node000001_Node000015"><a xlink:title=" ">
<path fill="none" stroke="#63b8ff" d="M721.59,-518.65C824.23,-514.07 1003.32,-500.89 1055.75,-464 1082.8,-444.97 1097.11,-407.79 1103.79,-384.23"/>
<polygon fill="#63b8ff" stroke="#63b8ff" points="721.74,-515.14 711.89,-519.07 722.03,-522.14 721.74,-515.14"/>
</a>
</g>
</g>
<!-- Node18 -->
<g id="Node000018" class="node">
<title>Node18</title>
<g id="a_Node000018"><a xlink:href="shader__database_8cpp.html" target="_top" xlink:title=" ">
<polygon fill="white" stroke="#666666" points="1272.75,-304 1160.75,-304 1160.75,-260 1272.75,-260 1272.75,-304"/>
<text text-anchor="start" x="1168.75" y="-290.5" font-family="Helvetica,sans-Serif" font-size="10.00">hybrid&#45;renderer&#45;lib</text>
<text text-anchor="start" x="1168.75" y="-278.5" font-family="Helvetica,sans-Serif" font-size="10.00">/src/renderer_internal</text>
<text text-anchor="middle" x="1216.75" y="-266.5" font-family="Helvetica,sans-Serif" font-size="10.00">/shader_database.cpp</text>
</a>
</g>
</g>
<!-- Node1&#45;&gt;Node18 -->
<g id="edge54_Node000001_Node000018" class="edge">
<title>Node1&#45;&gt;Node18</title>
<g id="a_edge54_Node000001_Node000018"><a xlink:title=" ">
<path fill="none" stroke="#63b8ff" d="M721.66,-516.54C829.25,-509.18 1023.1,-492.41 1086.75,-464 1136.54,-441.78 1148.71,-428.82 1179.75,-384 1196.87,-359.28 1207.09,-325.71 1212.32,-304.19"/>
<polygon fill="#63b8ff" stroke="#63b8ff" points="721.51,-513.04 711.76,-517.2 721.98,-520.02 721.51,-513.04"/>
</a>
</g>
</g>
<!-- Node19 -->
<g id="Node000019" class="node">
<title>Node19</title>
<g id="a_Node000019"><a xlink:href="descriptor__management_8cpp.html" target="_top" xlink:title=" ">
<polygon fill="white" stroke="#666666" points="952.75,-384 810.75,-384 810.75,-340 952.75,-340 952.75,-384"/>
<text text-anchor="start" x="818.75" y="-370.5" font-family="Helvetica,sans-Serif" font-size="10.00">hybrid&#45;renderer&#45;lib</text>
<text text-anchor="start" x="818.75" y="-358.5" font-family="Helvetica,sans-Serif" font-size="10.00">/src/renderer_internal</text>
<text text-anchor="middle" x="881.75" y="-346.5" font-family="Helvetica,sans-Serif" font-size="10.00">/descriptor_management.cpp</text>
</a>
</g>
</g>
<!-- Node1&#45;&gt;Node19 -->
<g id="edge48_Node000001_Node000019" class="edge">
<title>Node1&#45;&gt;Node19</title>
<g id="a_edge48_Node000001_Node000019"><a xlink:title=" ">
<path fill="none" stroke="#63b8ff" d="M721.02,-501.23C746.4,-492.31 774.14,-480.08 796.75,-464 827.38,-442.21 853.65,-406.89 868.57,-384.32"/>
<polygon fill="#63b8ff" stroke="#63b8ff" points="720.09,-497.85 711.74,-504.37 722.34,-504.48 720.09,-497.85"/>
</a>
</g>
</g>
<!-- Node20 -->
<g id="Node000020" class="node">
<title>Node20</title>
<g id="a_Node000020"><a xlink:href="image_8h.html" target="_top" xlink:title=" ">
<polygon fill="white" stroke="#666666" points="601.12,-464 476.38,-464 476.38,-420 601.12,-420 601.12,-464"/>
<text text-anchor="start" x="484.38" y="-450.5" font-family="Helvetica,sans-Serif" font-size="10.00">hybrid&#45;renderer&#45;lib</text>
<text text-anchor="start" x="484.38" y="-438.5" font-family="Helvetica,sans-Serif" font-size="10.00">/include/renderer_internal</text>
<text text-anchor="middle" x="538.75" y="-426.5" font-family="Helvetica,sans-Serif" font-size="10.00">/image.h</text>
</a>
</g>
</g>
<!-- Node1&#45;&gt;Node20 -->
<g id="edge32_Node000001_Node000020" class="edge">
<title>Node1&#45;&gt;Node20</title>
<g id="a_edge32_Node000001_Node000020"><a xlink:title=" ">
<path fill="none" stroke="#63b8ff" d="M608.62,-493C595.4,-483.54 580.87,-473.14 568.5,-464.29"/>
<polygon fill="#63b8ff" stroke="#63b8ff" points="606.57,-495.83 616.73,-498.81 610.64,-490.14 606.57,-495.83"/>
</a>
</g>
</g>
<!-- Node21 -->
<g id="Node000021" class="node">
<title>Node21</title>
<g id="a_Node000021"><a xlink:href="image_8cpp.html" target="_top" xlink:title=" ">
<polygon fill="white" stroke="#666666" points="498.5,-384 391,-384 391,-340 498.5,-340 498.5,-384"/>
<text text-anchor="start" x="399" y="-370.5" font-family="Helvetica,sans-Serif" font-size="10.00">hybrid&#45;renderer&#45;lib</text>
<text text-anchor="start" x="399" y="-358.5" font-family="Helvetica,sans-Serif" font-size="10.00">/src/renderer_internal</text>
<text text-anchor="middle" x="444.75" y="-346.5" font-family="Helvetica,sans-Serif" font-size="10.00">/image.cpp</text>
</a>
</g>
</g>
<!-- Node1&#45;&gt;Node21 -->
<g id="edge49_Node000001_Node000021" class="edge">
<title>Node1&#45;&gt;Node21</title>
<g id="a_edge49_Node000001_Node000021"><a xlink:title=" ">
<path fill="none" stroke="#63b8ff" d="M574,-514.74C537.22,-507.83 494.91,-493.51 467.75,-464 447.78,-442.3 443.95,-406.95 443.79,-384.35"/>
<polygon fill="#63b8ff" stroke="#63b8ff" points="573.27,-518.17 583.72,-516.4 574.45,-511.27 573.27,-518.17"/>
</a>
</g>
</g>
<!-- Node22 -->
<g id="Node000022" class="node">
<title>Node22</title>
<g id="a_Node000022"><a xlink:href="render__core_8h.html" target="_top" xlink:title=" ">
<polygon fill="white" stroke="#666666" points="755.12,-384 630.38,-384 630.38,-340 755.12,-340 755.12,-384"/>
<text text-anchor="start" x="638.38" y="-370.5" font-family="Helvetica,sans-Serif" font-size="10.00">hybrid&#45;renderer&#45;lib</text>
<text text-anchor="start" x="638.38" y="-358.5" font-family="Helvetica,sans-Serif" font-size="10.00">/include/renderer_internal</text>
<text text-anchor="middle" x="692.75" y="-346.5" font-family="Helvetica,sans-Serif" font-size="10.00">/render_core.h</text>
</a>
</g>
</g>
<!-- Node1&#45;&gt;Node22 -->
<g id="edge36_Node000001_Node000022" class="edge">
<title>Node1&#45;&gt;Node22</title>
<g id="a_edge36_Node000001_Node000022"><a xlink:title=" ">
<path fill="none" stroke="#63b8ff" d="M656.87,-488.98C665.74,-457.84 678.96,-411.41 686.63,-384.48"/>
<polygon fill="#63b8ff" stroke="#63b8ff" points="653.61,-487.66 654.23,-498.24 660.34,-489.58 653.61,-487.66"/>
</a>
</g>
</g>
<!-- Node23 -->
<g id="Node000023" class="node">
<title>Node23</title>
<g id="a_Node000023"><a xlink:href="render__core_8cpp.html" target="_top" xlink:title=" ">
<polygon fill="white" stroke="#666666" points="630.5,-304 523,-304 523,-260 630.5,-260 630.5,-304"/>
<text text-anchor="start" x="531" y="-290.5" font-family="Helvetica,sans-Serif" font-size="10.00">hybrid&#45;renderer&#45;lib</text>
<text text-anchor="start" x="531" y="-278.5" font-family="Helvetica,sans-Serif" font-size="10.00">/src/renderer_internal</text>
<text text-anchor="middle" x="576.75" y="-266.5" font-family="Helvetica,sans-Serif" font-size="10.00">/render_core.cpp</text>
</a>
</g>
</g>
<!-- Node1&#45;&gt;Node23 -->
<g id="edge51_Node000001_Node000023" class="edge">
<title>Node1&#45;&gt;Node23</title>
<g id="a_edge51_Node000001_Node000023"><a xlink:title=" ">
<path fill="none" stroke="#63b8ff" d="M638.18,-488.9C623.45,-439.56 595.65,-346.36 583.14,-304.42"/>
<polygon fill="#63b8ff" stroke="#63b8ff" points="634.8,-489.85 641.02,-498.43 641.51,-487.85 634.8,-489.85"/>
</a>
</g>
</g>
<!-- Node24 -->
<g id="Node000024" class="node">
<title>Node24</title>
<g id="a_Node000024"><a xlink:href="sampler_8h.html" target="_top" xlink:title=" ">
<polygon fill="white" stroke="#666666" points="421.12,-464 296.38,-464 296.38,-420 421.12,-420 421.12,-464"/>
<text text-anchor="start" x="304.38" y="-450.5" font-family="Helvetica,sans-Serif" font-size="10.00">hybrid&#45;renderer&#45;lib</text>
<text text-anchor="start" x="304.38" y="-438.5" font-family="Helvetica,sans-Serif" font-size="10.00">/include/renderer_internal</text>
<text text-anchor="middle" x="358.75" y="-426.5" font-family="Helvetica,sans-Serif" font-size="10.00">/sampler.h</text>
</a>
</g>
</g>
<!-- Node1&#45;&gt;Node24 -->
<g id="edge43_Node000001_Node000024" class="edge">
<title>Node1&#45;&gt;Node24</title>
<g id="a_edge43_Node000001_Node000024"><a xlink:title=" ">
<path fill="none" stroke="#63b8ff" d="M574.26,-501.49C533.2,-490.55 481.11,-476.61 434.75,-464 430.39,-462.81 425.89,-461.59 421.36,-460.34"/>
<polygon fill="#63b8ff" stroke="#63b8ff" points="573.24,-504.84 583.81,-504.03 575.04,-498.08 573.24,-504.84"/>
</a>
</g>
</g>
<!-- Node25 -->
<g id="Node000025" class="node">
<title>Node25</title>
<g id="a_Node000025"><a xlink:href="sampler_8cpp.html" target="_top" xlink:title=" ">
<polygon fill="white" stroke="#666666" points="334.5,-384 227,-384 227,-340 334.5,-340 334.5,-384"/>
<text text-anchor="start" x="235" y="-370.5" font-family="Helvetica,sans-Serif" font-size="10.00">hybrid&#45;renderer&#45;lib</text>
<text text-anchor="start" x="235" y="-358.5" font-family="Helvetica,sans-Serif" font-size="10.00">/src/renderer_internal</text>
<text text-anchor="middle" x="280.75" y="-346.5" font-family="Helvetica,sans-Serif" font-size="10.00">/sampler.cpp</text>
</a>
</g>
</g>
<!-- Node1&#45;&gt;Node25 -->
<g id="edge53_Node000001_Node000025" class="edge">
<title>Node1&#45;&gt;Node25</title>
<g id="a_edge53_Node000001_Node000025"><a xlink:title=" ">
<path fill="none" stroke="#63b8ff" d="M573.59,-519.75C479.56,-516.47 325.13,-504.82 287.75,-464 268.16,-442.61 270.92,-406.84 275.35,-384.11"/>
<polygon fill="#63b8ff" stroke="#63b8ff" points="573.41,-523.25 583.52,-520.07 573.63,-516.25 573.41,-523.25"/>
</a>
</g>
</g>
<!-- Node26 -->
<g id="Node000026" class="node">
<title>Node26</title>
<g id="a_Node000026"><a xlink:href="render__context_8cpp.html" target="_top" xlink:title=" ">
<polygon fill="white" stroke="#666666" points="1436.5,-464 1329,-464 1329,-420 1436.5,-420 1436.5,-464"/>
<text text-anchor="start" x="1337" y="-450.5" font-family="Helvetica,sans-Serif" font-size="10.00">hybrid&#45;renderer&#45;lib</text>
<text text-anchor="start" x="1337" y="-438.5" font-family="Helvetica,sans-Serif" font-size="10.00">/src/renderer_internal</text>
<text text-anchor="middle" x="1382.75" y="-426.5" font-family="Helvetica,sans-Serif" font-size="10.00">/render_context.cpp</text>
</a>
</g>
</g>
<!-- Node1&#45;&gt;Node26 -->
<g id="edge50_Node000001_Node000026" class="edge">
<title>Node1&#45;&gt;Node26</title>
<g id="a_edge50_Node000001_Node000026"><a xlink:title=" ">
<path fill="none" stroke="#63b8ff" d="M721.64,-519.84C845.42,-516.75 1102.08,-505.43 1314.75,-464 1319.36,-463.1 1324.1,-462.01 1328.83,-460.8"/>
<polygon fill="#63b8ff" stroke="#63b8ff" points="721.86,-516.33 711.95,-520.07 722.03,-523.33 721.86,-516.33"/>
</a>
</g>
</g>
<!-- Node3 -->
<g id="Node000003" class="node">
<title>Node3</title>
<g id="a_Node000003"><a xlink:href="demo_8h.html" target="_top" xlink:title=" ">
<polygon fill="white" stroke="#666666" points="506.25,-76 397.25,-76 397.25,-56 506.25,-56 506.25,-76"/>
<text text-anchor="middle" x="451.75" y="-62.5" font-family="Helvetica,sans-Serif" font-size="10.00">demo/include/demo.h</text>
</a>
</g>
</g>
<!-- Node2&#45;&gt;Node3 -->
<g id="edge2_Node000002_Node000003" class="edge">
<title>Node2&#45;&gt;Node3</title>
<g id="a_edge2_Node000002_Node000003"><a xlink:title=" ">
<path fill="none" stroke="#63b8ff" d="M595.43,-181.65C570.83,-172.44 543.24,-159.91 520.75,-144 493.2,-124.5 468.9,-92.12 457.94,-76.29"/>
<polygon fill="#63b8ff" stroke="#63b8ff" points="594.1,-184.89 604.7,-185 596.48,-178.31 594.1,-184.89"/>
</a>
</g>
</g>
<!-- Node5 -->
<g id="Node000005" class="node">
<title>Node5</title>
<g id="a_Node000005"><a xlink:href="renderer_8h.html" target="_top" xlink:title=" ">
<polygon fill="white" stroke="#666666" points="682.88,-76 562.62,-76 562.62,-56 682.88,-56 682.88,-76"/>
<text text-anchor="middle" x="622.75" y="-62.5" font-family="Helvetica,sans-Serif" font-size="10.00">demo/include/renderer.h</text>
</a>
</g>
</g>
<!-- Node2&#45;&gt;Node5 -->
<g id="edge4_Node000002_Node000005" class="edge">
<title>Node2&#45;&gt;Node5</title>
<g id="a_edge4_Node000002_Node000005"><a xlink:title=" ">
<path fill="none" stroke="#63b8ff" d="M643.42,-175.98C638.21,-166.32 632.91,-154.97 629.75,-144 622.91,-120.27 622.29,-90.87 622.48,-76.21"/>
<polygon fill="#63b8ff" stroke="#63b8ff" points="640.21,-177.41 648.19,-184.38 646.3,-173.95 640.21,-177.41"/>
</a>
</g>
</g>
<!-- Node6 -->
<g id="Node000006" class="node">
<title>Node6</title>
<g id="a_Node000006"><a xlink:href="renderer_8cpp.html" target="_top" xlink:title=" ">
<polygon fill="white" stroke="#666666" points="679.5,-20 566,-20 566,0 679.5,0 679.5,-20"/>
<text text-anchor="middle" x="622.75" y="-6.5" font-family="Helvetica,sans-Serif" font-size="10.00">demo/src/renderer.cpp</text>
</a>
</g>
</g>
<!-- Node2&#45;&gt;Node6 -->
<g id="edge11_Node000002_Node000006" class="edge">
<title>Node2&#45;&gt;Node6</title>
<g id="a_edge11_Node000002_Node000006"><a xlink:title=" ">
<path fill="none" stroke="#63b8ff" d="M630.83,-178.32C605.22,-155.56 569.02,-117.93 553.75,-76 550.71,-67.65 549.52,-63.82 553.75,-56 562.88,-39.15 581.36,-27.61 596.89,-20.44"/>
<polygon fill="#63b8ff" stroke="#63b8ff" points="628.4,-180.85 638.25,-184.75 632.98,-175.56 628.4,-180.85"/>
</a>
</g>
</g>
<!-- Node7 -->
<g id="Node000007" class="node">
<title>Node7</title>
<g id="a_Node000007"><a xlink:href="subsystems_8h.html" target="_top" xlink:title=" ">
<polygon fill="white" stroke="#666666" points="776.88,-138 638.62,-138 638.62,-118 776.88,-118 776.88,-138"/>
<text text-anchor="middle" x="707.75" y="-124.5" font-family="Helvetica,sans-Serif" font-size="10.00">demo/include/subsystems.h</text>
</a>
</g>
</g>
<!-- Node2&#45;&gt;Node7 -->
<g id="edge7_Node000002_Node000007" class="edge">
<title>Node2&#45;&gt;Node7</title>
<g id="a_edge7_Node000002_Node000007"><a xlink:title=" ">
<path fill="none" stroke="#63b8ff" d="M675.57,-176.28C684.48,-163.19 694.9,-147.88 701.41,-138.31"/>
<polygon fill="#63b8ff" stroke="#63b8ff" points="672.73,-174.24 669.99,-184.48 678.51,-178.18 672.73,-174.24"/>
</a>
</g>
</g>
<!-- Node8 -->
<g id="Node000008" class="node">
<title>Node8</title>
<g id="a_Node000008"><a xlink:href="subsystems_8cpp.html" target="_top" xlink:title=" ">
<polygon fill="white" stroke="#666666" points="870.5,-76 739,-76 739,-56 870.5,-56 870.5,-76"/>
<text text-anchor="middle" x="804.75" y="-62.5" font-family="Helvetica,sans-Serif" font-size="10.00">demo/src/subsystems.cpp</text>
</a>
</g>
</g>
<!-- Node2&#45;&gt;Node8 -->
<g id="edge12_Node000002_Node000008" class="edge">
<title>Node2&#45;&gt;Node8</title>
<g id="a_edge12_Node000002_Node000008"><a xlink:title=" ">
<path fill="none" stroke="#63b8ff" d="M731.66,-181.44C751.68,-172.89 771.71,-160.83 785.75,-144 802.25,-124.23 804.78,-92.26 804.95,-76.46"/>
<polygon fill="#63b8ff" stroke="#63b8ff" points="730.62,-178.09 722.63,-185.04 733.22,-184.59 730.62,-178.09"/>
</a>
</g>
</g>
<!-- Node9 -->
<g id="Node000009" class="node">
<title>Node9</title>
<g id="a_Node000009"><a xlink:href="hybrid__renderer_8cpp.html" target="_top" xlink:title=" ">
<polygon fill="white" stroke="#666666" points="954.25,-144 833.25,-144 833.25,-112 954.25,-112 954.25,-144"/>
<text text-anchor="start" x="841.25" y="-130.5" font-family="Helvetica,sans-Serif" font-size="10.00">hybrid&#45;renderer&#45;lib</text>
<text text-anchor="middle" x="893.75" y="-118.5" font-family="Helvetica,sans-Serif" font-size="10.00">/src/hybrid_renderer.cpp</text>
</a>
</g>
</g>
<!-- Node2&#45;&gt;Node9 -->
<g id="edge13_Node000002_Node000009" class="edge">
<title>Node2&#45;&gt;Node9</title>
<g id="a_edge13_Node000002_Node000009"><a xlink:title=" ">
<path fill="none" stroke="#63b8ff" d="M719.71,-182.32C758.15,-170.55 807.2,-155.52 843.42,-144.42"/>
<polygon fill="#63b8ff" stroke="#63b8ff" points="719.15,-178.83 710.61,-185.11 721.2,-185.53 719.15,-178.83"/>
</a>
</g>
</g>
<!-- Node4 -->
<g id="Node000004" class="node">
<title>Node4</title>
<g id="a_Node000004"><a xlink:href="main_8cpp.html" target="_top" xlink:title=" ">
<polygon fill="white" stroke="#666666" points="525.38,-20 426.12,-20 426.12,0 525.38,0 525.38,-20"/>
<text text-anchor="middle" x="475.75" y="-6.5" font-family="Helvetica,sans-Serif" font-size="10.00">demo/src/main.cpp</text>
</a>
</g>
</g>
<!-- Node3&#45;&gt;Node4 -->
<g id="edge3_Node000003_Node000004" class="edge">
<title>Node3&#45;&gt;Node4</title>
<g id="a_edge3_Node000003_Node000004"><a xlink:title=" ">
<path fill="none" stroke="#63b8ff" d="M460.51,-45.29C464.3,-36.75 468.57,-27.16 471.62,-20.3"/>
<polygon fill="#63b8ff" stroke="#63b8ff" points="457.41,-43.65 456.55,-54.21 463.8,-46.49 457.41,-43.65"/>
</a>
</g>
</g>
<!-- Node5&#45;&gt;Node4 -->
<g id="edge5_Node000005_Node000004" class="edge">
<title>Node5&#45;&gt;Node4</title>
<g id="a_edge5_Node000005_Node000004"><a xlink:title=" ">
<path fill="none" stroke="#63b8ff" d="M586.44,-51.66C560.09,-41.98 525.08,-29.12 501.56,-20.48"/>
<polygon fill="#63b8ff" stroke="#63b8ff" points="585.13,-54.91 595.72,-55.07 587.54,-48.34 585.13,-54.91"/>
</a>
</g>
</g>
<!-- Node5&#45;&gt;Node6 -->
<g id="edge6_Node000005_Node000006" class="edge">
<title>Node5&#45;&gt;Node6</title>
<g id="a_edge6_Node000005_Node000006"><a xlink:title=" ">
<path fill="none" stroke="#63b8ff" d="M622.75,-44.13C622.75,-35.9 622.75,-26.85 622.75,-20.3"/>
<polygon fill="#63b8ff" stroke="#63b8ff" points="619.25,-44.08 622.75,-54.08 626.25,-44.08 619.25,-44.08"/>
</a>
</g>
</g>
<!-- Node7&#45;&gt;Node5 -->
<g id="edge8_Node000007_Node000005" class="edge">
<title>Node7&#45;&gt;Node5</title>
<g id="a_edge8_Node000007_Node000005"><a xlink:title=" ">
<path fill="none" stroke="#63b8ff" d="M685.4,-111.22C669.66,-100.11 649.13,-85.62 635.94,-76.31"/>
<polygon fill="#63b8ff" stroke="#63b8ff" points="683.04,-113.84 693.23,-116.75 687.08,-108.13 683.04,-113.84"/>
</a>
</g>
</g>
<!-- Node7&#45;&gt;Node6 -->
<g id="edge9_Node000007_Node000006" class="edge">
<title>Node7&#45;&gt;Node6</title>
<g id="a_edge9_Node000007_Node000006"><a xlink:title=" ">
<path fill="none" stroke="#63b8ff" d="M707.2,-106.62C705.88,-91.47 702.11,-70.92 691.75,-56 680.41,-39.68 661.04,-27.81 645.71,-20.38"/>
<polygon fill="#63b8ff" stroke="#63b8ff" points="703.69,-106.54 707.73,-116.33 710.68,-106.15 703.69,-106.54"/>
</a>
</g>
</g>
<!-- Node7&#45;&gt;Node8 -->
<g id="edge10_Node000007_Node000008" class="edge">
<title>Node7&#45;&gt;Node8</title>
<g id="a_edge10_Node000007_Node000008"><a xlink:title=" ">
<path fill="none" stroke="#63b8ff" d="M732.5,-111.69C750.55,-100.52 774.44,-85.75 789.7,-76.31"/>
<polygon fill="#63b8ff" stroke="#63b8ff" points="730.86,-108.59 724.19,-116.83 734.54,-114.54 730.86,-108.59"/>
</a>
</g>
</g>
<!-- Node10&#45;&gt;Node2 -->
<g id="edge15_Node000010_Node000002" class="edge">
<title>Node10&#45;&gt;Node2</title>
<g id="a_edge15_Node000010_Node000002"><a xlink:title=" ">
<path fill="none" stroke="#63b8ff" d="M123.94,-408.26C127.35,-366.78 139.86,-296.32 184.75,-260 246.29,-210.21 479.85,-202.99 594.5,-202.53"/>
<polygon fill="#63b8ff" stroke="#63b8ff" points="120.45,-407.91 123.27,-418.13 127.44,-408.38 120.45,-407.91"/>
</a>
</g>
</g>
<!-- Node10&#45;&gt;Node11 -->
<g id="edge16_Node000010_Node000011" class="edge">
<title>Node10&#45;&gt;Node11</title>
<g id="a_edge16_Node000010_Node000011"><a xlink:title=" ">
<path fill="none" stroke="#63b8ff" d="M96.51,-411.34C88.55,-402.33 79.96,-392.63 72.58,-384.29"/>
<polygon fill="#63b8ff" stroke="#63b8ff" points="93.65,-413.38 102.89,-418.55 98.89,-408.74 93.65,-413.38"/>
</a>
</g>
</g>
<!-- Node12&#45;&gt;Node2 -->
<g id="edge18_Node000012_Node000002" class="edge">
<title>Node12&#45;&gt;Node2</title>
<g id="a_edge18_Node000012_Node000002"><a xlink:title=" ">
<path fill="none" stroke="#63b8ff" d="M996.66,-409.25C1014.04,-369.52 1035.02,-301.66 999.75,-260 990.84,-249.48 819.04,-224.69 722.77,-211.54"/>
<polygon fill="#63b8ff" stroke="#63b8ff" points="993.5,-407.73 992.53,-418.28 999.87,-410.64 993.5,-407.73"/>
</a>
</g>
</g>
<!-- Node12&#45;&gt;Node13 -->
<g id="edge19_Node000012_Node000013" class="edge">
<title>Node12&#45;&gt;Node13</title>
<g id="a_edge19_Node000012_Node000013"><a xlink:title=" ">
<path fill="none" stroke="#63b8ff" d="M977.43,-408.16C974.7,-388.03 969.91,-361.99 961.75,-340 957.13,-327.56 949.93,-314.7 943.42,-304.34"/>
<polygon fill="#63b8ff" stroke="#63b8ff" points="973.95,-408.55 978.65,-418.05 980.9,-407.69 973.95,-408.55"/>
</a>
</g>
</g>
<!-- Node12&#45;&gt;Node15 -->
<g id="edge22_Node000012_Node000015" class="edge">
<title>Node12&#45;&gt;Node15</title>
<g id="a_edge22_Node000012_Node000015"><a xlink:title=" ">
<path fill="none" stroke="#63b8ff" d="M1025.35,-413.82C1041.23,-404.15 1058.86,-393.4 1073.82,-384.29"/>
<polygon fill="#63b8ff" stroke="#63b8ff" points="1023.74,-410.71 1017.02,-418.9 1027.38,-416.68 1023.74,-410.71"/>
</a>
</g>
</g>
<!-- Node12&#45;&gt;Node19 -->
<g id="edge31_Node000012_Node000019" class="edge">
<title>Node12&#45;&gt;Node19</title>
<g id="a_edge31_Node000012_Node000019"><a xlink:title=" ">
<path fill="none" stroke="#63b8ff" d="M944.86,-412.72C932.95,-403.34 919.9,-393.06 908.77,-384.29"/>
<polygon fill="#63b8ff" stroke="#63b8ff" points="942.49,-415.31 952.51,-418.75 946.82,-409.81 942.49,-415.31"/>
</a>
</g>
</g>
<!-- Node13&#45;&gt;Node2 -->
<g id="edge20_Node000013_Node000002" class="edge">
<title>Node13&#45;&gt;Node2</title>
<g id="a_edge20_Node000013_Node000002"><a xlink:title=" ">
<path fill="none" stroke="#63b8ff" d="M855.22,-259.76C810.07,-246.72 753.28,-230.31 712.38,-218.49"/>
<polygon fill="#63b8ff" stroke="#63b8ff" points="854.1,-263.08 864.67,-262.49 856.04,-256.35 854.1,-263.08"/>
</a>
</g>
</g>
<!-- Node13&#45;&gt;Node14 -->
<g id="edge21_Node000013_Node000014" class="edge">
<title>Node13&#45;&gt;Node14</title>
<g id="a_edge21_Node000013_Node000014"><a xlink:title=" ">
<path fill="none" stroke="#63b8ff" d="M965.73,-252.72C978,-243.34 991.45,-233.06 1002.91,-224.29"/>
<polygon fill="#63b8ff" stroke="#63b8ff" points="963.64,-249.91 957.82,-258.77 967.89,-255.47 963.64,-249.91"/>
</a>
</g>
</g>
<!-- Node15&#45;&gt;Node2 -->
<g id="edge23_Node000015_Node000002" class="edge">
<title>Node15&#45;&gt;Node2</title>
<g id="a_edge23_Node000015_Node000002"><a xlink:title=" ">
<path fill="none" stroke="#63b8ff" d="M1087.52,-330.43C1067.75,-302.36 1040.24,-264.47 1032.75,-260 1006.67,-244.42 822.97,-221.59 723.08,-210.13"/>
<polygon fill="#63b8ff" stroke="#63b8ff" points="1084.41,-332.09 1093.02,-338.27 1090.14,-328.07 1084.41,-332.09"/>
</a>
</g>
</g>
<!-- Node15&#45;&gt;Node13 -->
<g id="edge27_Node000015_Node000013" class="edge">
<title>Node15&#45;&gt;Node13</title>
<g id="a_edge27_Node000015_Node000013"><a xlink:title=" ">
<path fill="none" stroke="#63b8ff" d="M1049.22,-335.2C1026.2,-325.23 1000.15,-313.94 978.19,-304.42"/>
<polygon fill="#63b8ff" stroke="#63b8ff" points="1047.61,-338.32 1058.18,-339.08 1050.39,-331.9 1047.61,-338.32"/>
</a>
</g>
</g>
<!-- Node15&#45;&gt;Node14 -->
<g id="edge29_Node000015_Node000014" class="edge">
<title>Node15&#45;&gt;Node14</title>
<g id="a_edge29_Node000015_Node000014"><a xlink:title=" ">
<path fill="none" stroke="#63b8ff" d="M1115.97,-328.5C1118.89,-307.79 1119.42,-281.01 1108.75,-260 1101.23,-245.19 1087.86,-233.32 1074.29,-224.31"/>
<polygon fill="#63b8ff" stroke="#63b8ff" points="1112.57,-327.66 1114.36,-338.1 1119.47,-328.82 1112.57,-327.66"/>
</a>
</g>
</g>
<!-- Node16 -->
<g id="Node000016" class="node">
<title>Node16</title>
<g id="a_Node000016"><a xlink:href="render__pass_8h.html" target="_top" xlink:title=" ">
<polygon fill="white" stroke="#666666" points="811.12,-304 686.38,-304 686.38,-260 811.12,-260 811.12,-304"/>
<text text-anchor="start" x="694.38" y="-290.5" font-family="Helvetica,sans-Serif" font-size="10.00">hybrid&#45;renderer&#45;lib</text>
<text text-anchor="start" x="694.38" y="-278.5" font-family="Helvetica,sans-Serif" font-size="10.00">/include/renderer_internal</text>
<text text-anchor="middle" x="748.75" y="-266.5" font-family="Helvetica,sans-Serif" font-size="10.00">/render_pass.h</text>
</a>
</g>
</g>
<!-- Node15&#45;&gt;Node16 -->
<g id="edge24_Node000015_Node000016" class="edge">
<title>Node15&#45;&gt;Node16</title>
<g id="a_edge24_Node000015_Node000016"><a xlink:title=" ">
<path fill="none" stroke="#63b8ff" d="M1034.91,-345C969.01,-330.72 873.57,-310.04 811.34,-296.56"/>
<polygon fill="#63b8ff" stroke="#63b8ff" points="1034.05,-348.4 1044.56,-347.09 1035.53,-341.55 1034.05,-348.4"/>
</a>
</g>
</g>
<!-- Node17 -->
<g id="Node000017" class="node">
<title>Node17</title>
<g id="a_Node000017"><a xlink:href="render__pass_8cpp.html" target="_top" xlink:title=" ">
<polygon fill="white" stroke="#666666" points="954.5,-224 847,-224 847,-180 954.5,-180 954.5,-224"/>
<text text-anchor="start" x="855" y="-210.5" font-family="Helvetica,sans-Serif" font-size="10.00">hybrid&#45;renderer&#45;lib</text>
<text text-anchor="start" x="855" y="-198.5" font-family="Helvetica,sans-Serif" font-size="10.00">/src/renderer_internal</text>
<text text-anchor="middle" x="900.75" y="-186.5" font-family="Helvetica,sans-Serif" font-size="10.00">/render_pass.cpp</text>
</a>
</g>
</g>
<!-- Node15&#45;&gt;Node17 -->
<g id="edge28_Node000015_Node000017" class="edge">
<title>Node15&#45;&gt;Node17</title>
<g id="a_edge28_Node000015_Node000017"><a xlink:title=" ">
<path fill="none" stroke="#63b8ff" d="M1103.94,-328.33C1099.09,-306.31 1089.5,-278.08 1070.75,-260 1066.34,-255.75 1003.01,-235.15 954.93,-219.93"/>
<polygon fill="#63b8ff" stroke="#63b8ff" points="1100.48,-328.88 1105.83,-338.02 1107.35,-327.54 1100.48,-328.88"/>
</a>
</g>
</g>
<!-- Node15&#45;&gt;Node18 -->
<g id="edge30_Node000015_Node000018" class="edge">
<title>Node15&#45;&gt;Node18</title>
<g id="a_edge30_Node000015_Node000018"><a xlink:title=" ">
<path fill="none" stroke="#63b8ff" d="M1147.52,-333C1160.62,-323.54 1175.02,-313.14 1187.27,-304.29"/>
<polygon fill="#63b8ff" stroke="#63b8ff" points="1145.55,-330.11 1139.49,-338.8 1149.64,-335.78 1145.55,-330.11"/>
</a>
</g>
</g>
<!-- Node16&#45;&gt;Node2 -->
<g id="edge25_Node000016_Node000002" class="edge">
<title>Node16&#45;&gt;Node2</title>
<g id="a_edge25_Node000016_Node000002"><a xlink:title=" ">
<path fill="none" stroke="#63b8ff" d="M715.7,-252.36C702.42,-240.84 687.64,-228.04 676.46,-218.35"/>
<polygon fill="#63b8ff" stroke="#63b8ff" points="713.16,-254.79 723.01,-258.69 717.75,-249.5 713.16,-254.79"/>
</a>
</g>
</g>
<!-- Node16&#45;&gt;Node17 -->
<g id="edge26_Node000016_Node000017" class="edge">
<title>Node16&#45;&gt;Node17</title>
<g id="a_edge26_Node000016_Node000017"><a xlink:title=" ">
<path fill="none" stroke="#63b8ff" d="M800.33,-254.53C819.45,-244.72 840.87,-233.73 859,-224.42"/>
<polygon fill="#63b8ff" stroke="#63b8ff" points="798.93,-251.32 791.63,-259 802.13,-257.54 798.93,-251.32"/>
</a>
</g>
</g>
<!-- Node20&#45;&gt;Node2 -->
<g id="edge33_Node000020_Node000002" class="edge">
<title>Node20&#45;&gt;Node2</title>
<g id="a_edge33_Node000020_Node000002"><a xlink:title=" ">
<path fill="none" stroke="#63b8ff" d="M529.16,-408.74C516.53,-363.35 497.69,-283.57 513.75,-260 531.95,-233.29 564.76,-219.09 594.56,-211.55"/>
<polygon fill="#63b8ff" stroke="#63b8ff" points="525.78,-409.63 531.88,-418.29 532.51,-407.71 525.78,-409.63"/>
</a>
</g>
</g>
<!-- Node20&#45;&gt;Node16 -->
<g id="edge34_Node000020_Node000016" class="edge">
<title>Node20&#45;&gt;Node16</title>
<g id="a_edge34_Node000020_Node000016"><a xlink:title=" ">
<path fill="none" stroke="#63b8ff" d="M558.44,-410.09C573.61,-388.24 596.26,-359.48 621.75,-340 640.95,-325.33 664.53,-313.42 686.14,-304.36"/>
<polygon fill="#63b8ff" stroke="#63b8ff" points="555.57,-408.09 552.86,-418.34 561.37,-412.02 555.57,-408.09"/>
</a>
</g>
</g>
<!-- Node20&#45;&gt;Node21 -->
<g id="edge35_Node000020_Node000021" class="edge">
<title>Node20&#45;&gt;Node21</title>
<g id="a_edge35_Node000020_Node000021"><a xlink:title=" ">
<path fill="none" stroke="#63b8ff" d="M504.34,-412.45C493.12,-403.14 480.87,-392.97 470.4,-384.29"/>
<polygon fill="#63b8ff" stroke="#63b8ff" points="501.97,-415.03 511.9,-418.72 506.44,-409.64 501.97,-415.03"/>
</a>
</g>
</g>
<!-- Node22&#45;&gt;Node2 -->
<g id="edge37_Node000022_Node000002" class="edge">
<title>Node22&#45;&gt;Node2</title>
<g id="a_edge37_Node000022_Node000002"><a xlink:title=" ">
<path fill="none" stroke="#63b8ff" d="M683.85,-328.81C681.74,-320.74 679.57,-312.07 677.75,-304 670.96,-273.89 664.67,-238.35 661.31,-218.47"/>
<polygon fill="#63b8ff" stroke="#63b8ff" points="680.41,-329.48 686.37,-338.24 687.17,-327.68 680.41,-329.48"/>
</a>
</g>
</g>
<!-- Node22&#45;&gt;Node13 -->
<g id="edge39_Node000022_Node000013" class="edge">
<title>Node22&#45;&gt;Node13</title>
<g id="a_edge39_Node000022_Node000013"><a xlink:title=" ">
<path fill="none" stroke="#63b8ff" d="M766.05,-336.77C798.17,-326.16 835.47,-313.83 866.24,-303.66"/>
<polygon fill="#63b8ff" stroke="#63b8ff" points="765.21,-333.37 756.81,-339.83 767.4,-340.01 765.21,-333.37"/>
</a>
</g>
</g>
<!-- Node22&#45;&gt;Node14 -->
<g id="edge41_Node000022_Node000014" class="edge">
<title>Node22&#45;&gt;Node14</title>
<g id="a_edge41_Node000022_Node000014"><a xlink:title=" ">
<path fill="none" stroke="#63b8ff" d="M765.39,-334.93C784.01,-326.53 803.39,-316.18 819.75,-304 840.47,-288.57 836.26,-274.34 857.75,-260 862.96,-256.52 928.04,-235.5 976.85,-219.99"/>
<polygon fill="#63b8ff" stroke="#63b8ff" points="764,-331.71 756.23,-338.91 766.79,-338.13 764,-331.71"/>
</a>
</g>
</g>
<!-- Node22&#45;&gt;Node16 -->
<g id="edge38_Node000022_Node000016" class="edge">
<title>Node22&#45;&gt;Node16</title>
<g id="a_edge38_Node000022_Node000016"><a xlink:title=" ">
<path fill="none" stroke="#63b8ff" d="M714.65,-330.5C720.94,-321.74 727.67,-312.37 733.47,-304.29"/>
<polygon fill="#63b8ff" stroke="#63b8ff" points="711.92,-328.29 708.93,-338.46 717.61,-332.37 711.92,-328.29"/>
</a>
</g>
</g>
<!-- Node22&#45;&gt;Node23 -->
<g id="edge40_Node000022_Node000023" class="edge">
<title>Node22&#45;&gt;Node23</title>
<g id="a_edge40_Node000022_Node000023"><a xlink:title=" ">
<path fill="none" stroke="#63b8ff" d="M651.52,-333.28C637.34,-323.74 621.7,-313.23 608.41,-304.29"/>
<polygon fill="#63b8ff" stroke="#63b8ff" points="649.55,-336.17 659.8,-338.84 653.45,-330.36 649.55,-336.17"/>
</a>
</g>
</g>
<!-- Node24&#45;&gt;Node2 -->
<g id="edge44_Node000024_Node000002" class="edge">
<title>Node24&#45;&gt;Node2</title>
<g id="a_edge44_Node000024_Node000002"><a xlink:title=" ">
<path fill="none" stroke="#63b8ff" d="M360,-408.51C362.21,-387.38 367.83,-360.12 381.75,-340 431.28,-268.42 529.29,-232.54 594.44,-215.86"/>
<polygon fill="#63b8ff" stroke="#63b8ff" points="356.52,-408.08 359.19,-418.33 363.5,-408.65 356.52,-408.08"/>
</a>
</g>
</g>
<!-- Node24&#45;&gt;Node25 -->
<g id="edge45_Node000024_Node000025" class="edge">
<title>Node24&#45;&gt;Node25</title>
<g id="a_edge45_Node000024_Node000025"><a xlink:title=" ">
<path fill="none" stroke="#63b8ff" d="M329.37,-411.62C320.28,-402.53 310.46,-392.71 302.04,-384.29"/>
<polygon fill="#63b8ff" stroke="#63b8ff" points="326.82,-414.02 336.37,-418.62 331.77,-409.07 326.82,-414.02"/>
</a>
</g>
</g>
</g>
</svg>

<g id="navigator" transform="translate(0 0)" fill="#404254">
  <rect fill="#f2f5e9" fill-opacity="0.5" stroke="#606060" stroke-width=".5" x="0" y="0" width="60" height="60"/>
  <use id="zoomplus" xlink:href="#zoomPlus" x="17" y="9" onmousedown="handleZoom(evt,'in')"/>
  <use id="zoomminus" xlink:href="#zoomMin" x="42" y="9" onmousedown="handleZoom(evt,'out')"/>
  <use id="reset" xlink:href="#resetDef" x="30" y="36" onmousedown="handleReset()"/>
   <use id="arrowup" xlink:href="#arrowUp" x="0" y="0" onmousedown="handlePan(0,-1)"/>
  <use id="arrowright" xlink:href="#arrowRight" x="0" y="0" onmousedown="handlePan(1,0)"/>
  <use id="arrowdown" xlink:href="#arrowDown" x="0" y="0" onmousedown="handlePan(0,1)"/>
  <use id="arrowleft" xlink:href="#arrowLeft" x="0" y="0" onmousedown="handlePan(-1,0)"/>
</g>
<svg viewBox="0 0 15 15" width="100%" height="30px" preserveAspectRatio="xMaxYMin meet">
 <g id="arrow_out" transform="scale(0.3 0.3)">
  <a xlink:href="render__context_8h__dep__incl_org.svg" target="_base">
   <rect id="button" ry="5" rx="5" y="6" x="6" height="38" width="38"
        fill="#f2f5e9" fill-opacity="0.5" stroke="#606060" stroke-width="1.0"/>
   <path id="arrow"
     d="M 11.500037,31.436501 C 11.940474,20.09759 22.043105,11.32322 32.158766,21.979434 L 37.068811,17.246167 C 37.068811,17.246167 37.088388,32 37.088388,32 L 22.160133,31.978069 C 22.160133,31.978069 26.997745,27.140456 26.997745,27.140456 C 18.528582,18.264221 13.291696,25.230495 11.500037,31.436501 z"
     style="fill:#404040;"/>
  </a>
 </g>
</svg>

<style type='text/css'>
<![CDATA[
[data-mouse-over-selected='false'] { opacity: 0.7; }
[data-mouse-over-selected='true']  { opacity: 1.0; }
]]>
</style>
<script type="application/ecmascript"><![CDATA[
document.addEventListener('DOMContentLoaded', (event) => {
  highlightEdges();
  highlightAdjacentNodes();
});
]]></script>
</svg>
