<?xml version="1.0" encoding="UTF-8" standalone="no"?>
<!DOCTYPE svg PUBLIC "-//W3C//DTD SVG 1.1//EN"
 "http://www.w3.org/Graphics/SVG/1.1/DTD/svg11.dtd">
<!-- Generated by graphviz version 10.0.1 (20240210.2158)
 -->
<!-- Title: hybrid&#45;renderer&#45;lib/include/renderer_internal/render_core.h Pages: 1 -->
<svg width="510pt" height="176pt"
 viewBox="0.00 0.00 510.25 176.00" xmlns="http://www.w3.org/2000/svg" xmlns:xlink="http://www.w3.org/1999/xlink">
<g id="graph0" class="graph" transform="scale(1 1) rotate(0) translate(4 172)">
<title>hybrid&#45;renderer&#45;lib/include/renderer_internal/render_core.h</title>
<!-- Node1 -->
<g id="Node000001" class="node">
<title>Node1</title>
<g id="a_Node000001"><a xlink:title=" ">
<polygon fill="#999999" stroke="#666666" points="182,-168 57.25,-168 57.25,-124 182,-124 182,-168"/>
<text text-anchor="start" x="65.25" y="-154.5" font-family="Helvetica,sans-Serif" font-size="10.00">hybrid&#45;renderer&#45;lib</text>
<text text-anchor="start" x="65.25" y="-142.5" font-family="Helvetica,sans-Serif" font-size="10.00">/include/renderer_internal</text>
<text text-anchor="middle" x="119.62" y="-130.5" font-family="Helvetica,sans-Serif" font-size="10.00">/render_core.h</text>
</a>
</g>
</g>
<!-- Node2 -->
<g id="Node000002" class="node">
<title>Node2</title>
<g id="a_Node000002"><a xlink:title=" ">
<polygon fill="#e0e0e0" stroke="#999999" points="57.25,-20 0,-20 0,0 57.25,0 57.25,-20"/>
<text text-anchor="middle" x="28.62" y="-6.5" font-family="Helvetica,sans-Serif" font-size="10.00">functional</text>
</a>
</g>
</g>
<!-- Node1&#45;&gt;Node2 -->
<g id="edge1_Node000001_Node000002" class="edge">
<title>Node1&#45;&gt;Node2</title>
<g id="a_edge1_Node000001_Node000002"><a xlink:title=" ">
<path fill="none" stroke="#63b8ff" d="M105.21,-123.77C87.58,-97.81 58.03,-54.29 41.25,-29.6"/>
<polygon fill="#63b8ff" stroke="#63b8ff" points="44.28,-27.83 35.77,-21.52 38.49,-31.76 44.28,-27.83"/>
</a>
</g>
</g>
<!-- Node3 -->
<g id="Node000003" class="node">
<title>Node3</title>
<g id="a_Node000003"><a xlink:href="config_8h.html" target="_top" xlink:title=" ">
<polygon fill="white" stroke="#666666" points="125.5,-20 75.75,-20 75.75,0 125.5,0 125.5,-20"/>
<text text-anchor="middle" x="100.62" y="-6.5" font-family="Helvetica,sans-Serif" font-size="10.00">config.h</text>
</a>
</g>
</g>
<!-- Node1&#45;&gt;Node3 -->
<g id="edge2_Node000001_Node000003" class="edge">
<title>Node1&#45;&gt;Node3</title>
<g id="a_edge2_Node000001_Node000003"><a xlink:title=" ">
<path fill="none" stroke="#63b8ff" d="M116.61,-123.77C113.03,-98.5 107.09,-56.61 103.55,-31.62"/>
<polygon fill="#63b8ff" stroke="#63b8ff" points="107.02,-31.18 102.15,-21.77 100.09,-32.16 107.02,-31.18"/>
</a>
</g>
</g>
<!-- Node4 -->
<g id="Node000004" class="node">
<title>Node4</title>
<g id="a_Node000004"><a xlink:href="platform_8h.html" target="_top" xlink:title=" ">
<polygon fill="white" stroke="#666666" points="202,-20 143.25,-20 143.25,0 202,0 202,-20"/>
<text text-anchor="middle" x="172.62" y="-6.5" font-family="Helvetica,sans-Serif" font-size="10.00">platform.h</text>
</a>
</g>
</g>
<!-- Node1&#45;&gt;Node4 -->
<g id="edge3_Node000001_Node000004" class="edge">
<title>Node1&#45;&gt;Node4</title>
<g id="a_edge3_Node000001_Node000004"><a xlink:title=" ">
<path fill="none" stroke="#63b8ff" d="M128.02,-123.77C138.11,-98.27 154.89,-55.84 164.74,-30.94"/>
<polygon fill="#63b8ff" stroke="#63b8ff" points="167.98,-32.26 168.4,-21.68 161.47,-29.69 167.98,-32.26"/>
</a>
</g>
</g>
<!-- Node5 -->
<g id="Node000005" class="node">
<title>Node5</title>
<g id="a_Node000005"><a xlink:href="render__context_8h.html" target="_top" xlink:title=" ">
<polygon fill="white" stroke="#666666" points="284.62,-88 166.62,-88 166.62,-56 284.62,-56 284.62,-88"/>
<text text-anchor="start" x="174.62" y="-74.5" font-family="Helvetica,sans-Serif" font-size="10.00">renderer_internal/render</text>
<text text-anchor="middle" x="225.62" y="-62.5" font-family="Helvetica,sans-Serif" font-size="10.00">_context.h</text>
</a>
</g>
</g>
<!-- Node1&#45;&gt;Node5 -->
<g id="edge4_Node000001_Node000005" class="edge">
<title>Node1&#45;&gt;Node5</title>
<g id="a_edge4_Node000001_Node000005"><a xlink:title=" ">
<path fill="none" stroke="#63b8ff" d="M151.14,-123.59C164.5,-114.52 180.05,-103.96 193.47,-94.84"/>
<polygon fill="#63b8ff" stroke="#63b8ff" points="195.25,-97.86 201.56,-89.35 191.32,-92.07 195.25,-97.86"/>
</a>
</g>
</g>
<!-- Node5&#45;&gt;Node2 -->
<g id="edge7_Node000005_Node000002" class="edge">
<title>Node5&#45;&gt;Node2</title>
<g id="a_edge7_Node000005_Node000002"><a xlink:title=" ">
<path fill="none" stroke="#63b8ff" d="M174.89,-55.55C141.69,-45.44 98.94,-32.41 68.24,-23.06"/>
<polygon fill="#63b8ff" stroke="#63b8ff" points="69.55,-19.8 58.96,-20.24 67.51,-26.5 69.55,-19.8"/>
</a>
</g>
</g>
<!-- Node5&#45;&gt;Node3 -->
<g id="edge5_Node000005_Node000003" class="edge">
<title>Node5&#45;&gt;Node3</title>
<g id="a_edge5_Node000005_Node000003"><a xlink:title=" ">
<path fill="none" stroke="#63b8ff" d="M193.43,-55.55C173.99,-46.22 149.39,-34.41 130.4,-25.29"/>
<polygon fill="#63b8ff" stroke="#63b8ff" points="132.12,-22.23 121.59,-21.06 129.09,-28.55 132.12,-22.23"/>
</a>
</g>
</g>
<!-- Node5&#45;&gt;Node4 -->
<g id="edge6_Node000005_Node000004" class="edge">
<title>Node5&#45;&gt;Node4</title>
<g id="a_edge6_Node000005_Node000004"><a xlink:title=" ">
<path fill="none" stroke="#63b8ff" d="M211.98,-55.55C204.77,-47.39 195.89,-37.33 188.39,-28.84"/>
<polygon fill="#63b8ff" stroke="#63b8ff" points="191.18,-26.72 181.94,-21.54 185.93,-31.35 191.18,-26.72"/>
</a>
</g>
</g>
<!-- Node6 -->
<g id="Node000006" class="node">
<title>Node6</title>
<g id="a_Node000006"><a xlink:title=" ">
<polygon fill="#e0e0e0" stroke="#999999" points="298.75,-20 220.5,-20 220.5,0 298.75,0 298.75,-20"/>
<text text-anchor="middle" x="259.62" y="-6.5" font-family="Helvetica,sans-Serif" font-size="10.00">VkBootstrap.h</text>
</a>
</g>
</g>
<!-- Node5&#45;&gt;Node6 -->
<g id="edge8_Node000005_Node000006" class="edge">
<title>Node5&#45;&gt;Node6</title>
<g id="a_edge8_Node000005_Node000006"><a xlink:title=" ">
<path fill="none" stroke="#63b8ff" d="M234.38,-55.55C238.76,-47.82 244.1,-38.4 248.74,-30.21"/>
<polygon fill="#63b8ff" stroke="#63b8ff" points="251.66,-32.15 253.55,-21.72 245.57,-28.7 251.66,-32.15"/>
</a>
</g>
</g>
<!-- Node7 -->
<g id="Node000007" class="node">
<title>Node7</title>
<g id="a_Node000007"><a xlink:title=" ">
<polygon fill="#e0e0e0" stroke="#999999" points="402.5,-20 316.75,-20 316.75,0 402.5,0 402.5,-20"/>
<text text-anchor="middle" x="359.62" y="-6.5" font-family="Helvetica,sans-Serif" font-size="10.00">vk_mem_alloc.h</text>
</a>
</g>
</g>
<!-- Node5&#45;&gt;Node7 -->
<g id="edge9_Node000005_Node000007" class="edge">
<title>Node5&#45;&gt;Node7</title>
<g id="a_edge9_Node000005_Node000007"><a xlink:title=" ">
<path fill="none" stroke="#63b8ff" d="M260.13,-55.55C281.17,-46.13 307.84,-34.19 328.27,-25.04"/>
<polygon fill="#63b8ff" stroke="#63b8ff" points="329.54,-28.31 337.23,-21.03 326.68,-21.92 329.54,-28.31"/>
</a>
</g>
</g>
<!-- Node8 -->
<g id="Node000008" class="node">
<title>Node8</title>
<g id="a_Node000008"><a xlink:title=" ">
<polygon fill="#e0e0e0" stroke="#999999" points="502.25,-20 421,-20 421,0 502.25,0 502.25,-20"/>
<text text-anchor="middle" x="461.62" y="-6.5" font-family="Helvetica,sans-Serif" font-size="10.00">vulkan/vulkan.h</text>
</a>
</g>
</g>
<!-- Node5&#45;&gt;Node8 -->
<g id="edge10_Node000005_Node000008" class="edge">
<title>Node5&#45;&gt;Node8</title>
<g id="a_edge10_Node000005_Node000008"><a xlink:title=" ">
<path fill="none" stroke="#63b8ff" d="M284.87,-55.94C324.59,-45.84 376.24,-32.71 413.43,-23.25"/>
<polygon fill="#63b8ff" stroke="#63b8ff" points="414.19,-26.67 423.02,-20.82 412.46,-19.89 414.19,-26.67"/>
</a>
</g>
</g>
</g>
</svg>
