<?xml version="1.0" encoding="UTF-8" standalone="no"?>
<!DOCTYPE svg PUBLIC "-//W3C//DTD SVG 1.1//EN"
 "http://www.w3.org/Graphics/SVG/1.1/DTD/svg11.dtd">
<!-- Generated by graphviz version 10.0.1 (20240210.2158)
 -->
<!-- Title: hybrid&#45;renderer&#45;lib/include/renderer_internal/render_pass.h Pages: 1 -->
<!--zoomable 312 -->

<svg id="main" version="1.1" xmlns="http://www.w3.org/2000/svg" xmlns:xlink="http://www.w3.org/1999/xlink" xml:space="preserve" onload="init(evt)">
<style type="text/css"><![CDATA[
.node, .edge {opacity: 0.7;}
.node.selected, .edge.selected {opacity: 1;}
.edge:hover path { stroke: red; }
.edge:hover polygon { stroke: red; fill: red; }
]]></style>

<defs>
  <circle id="rim" cx="0" cy="0" r="7"/>
  <circle id="rim2" cx="0" cy="0" r="3.5"/>
  <g id="zoomPlus">
    <use xlink:href="#rim" fill="#404040"><set attributeName="fill" to="#808080" begin="zoomplus.mouseover" end="zoomplus.mouseout"/></use>
    <path d="M-4,0h8M0,-4v8" fill="none" stroke="white" stroke-width="1.5" pointer-events="none"/>
  </g>
  <g id="zoomMin">
    <use xlink:href="#rim" fill="#404040"><set attributeName="fill" to="#808080" begin="zoomminus.mouseover" end="zoomminus.mouseout"/></use>
    <path d="M-4,0h8" fill="none" stroke="white" stroke-width="1.5" pointer-events="none"/>
  </g>
  <g id="arrowUp" transform="translate(30 24)">
    <use xlink:href="#rim"/>
    <path pointer-events="none" fill="none" stroke="white" stroke-width="1.5" d="M0,-3.0v7 M-2.5,-0.5L0,-3.0L2.5,-0.5"/>
  </g>
  <g id="arrowRight" transform="rotate(90) translate(36 -43)">
    <use xlink:href="#rim"/>
    <path pointer-events="none" fill="none" stroke="white" stroke-width="1.5" d="M0,-3.0v7 M-2.5,-0.5L0,-3.0L2.5,-0.5"/>
  </g>
  <g id="arrowDown" transform="rotate(180) translate(-30 -48)">
    <use xlink:href="#rim"/>
    <path pointer-events="none" fill="none" stroke="white" stroke-width="1.5" d="M0,-3.0v7 M-2.5,-0.5L0,-3.0L2.5,-0.5"/>
  </g>
  <g id="arrowLeft" transform="rotate(270) translate(-36 17)">
    <use xlink:href="#rim"/>
    <path pointer-events="none" fill="none" stroke="white" stroke-width="1.5" d="M0,-3.0v7 M-2.5,-0.5L0,-3.0L2.5,-0.5"/>
  </g>
  <g id="resetDef">
    <use xlink:href="#rim2" fill="#404040"><set attributeName="fill" to="#808080" begin="reset.mouseover" end="reset.mouseout"/></use>
  </g>
</defs>
<script type="application/ecmascript">
var viewWidth = 794;
var viewHeight = 312;
var sectionId = 'dynsection-0';
</script>
<script type="application/ecmascript" xlink:href="svg.min.js"/>
<svg id="graph" class="graph">
<g id="viewport">
<title>hybrid&#45;renderer&#45;lib/include/renderer_internal/render_pass.h</title>
<!-- Node1 -->
<g id="Node000001" class="node">
<title>Node1</title>
<g id="a_Node000001"><a xlink:title=" ">
<polygon fill="#999999" stroke="#666666" points="418.12,-304 293.38,-304 293.38,-260 418.12,-260 418.12,-304"/>
<text text-anchor="start" x="301.38" y="-290.5" font-family="Helvetica,sans-Serif" font-size="10.00">hybrid&#45;renderer&#45;lib</text>
<text text-anchor="start" x="301.38" y="-278.5" font-family="Helvetica,sans-Serif" font-size="10.00">/include/renderer_internal</text>
<text text-anchor="middle" x="355.75" y="-266.5" font-family="Helvetica,sans-Serif" font-size="10.00">/render_pass.h</text>
</a>
</g>
</g>
<!-- Node2 -->
<g id="Node000002" class="node">
<title>Node2</title>
<g id="a_Node000002"><a xlink:title=" ">
<polygon fill="#e0e0e0" stroke="#999999" points="119.62,-218 69.88,-218 69.88,-198 119.62,-198 119.62,-218"/>
<text text-anchor="middle" x="94.75" y="-204.5" font-family="Helvetica,sans-Serif" font-size="10.00">optional</text>
</a>
</g>
</g>
<!-- Node1&#45;&gt;Node2 -->
<g id="edge1_Node000001_Node000002" class="edge">
<title>Node1&#45;&gt;Node2</title>
<g id="a_edge1_Node000001_Node000002"><a xlink:title=" ">
<path fill="none" stroke="#63b8ff" d="M293,-266.94C248.23,-256.41 186.82,-240.95 133.75,-224 132.15,-223.49 130.52,-222.95 128.89,-222.39"/>
<polygon fill="#63b8ff" stroke="#63b8ff" points="130.12,-219.11 119.53,-219 127.74,-225.7 130.12,-219.11"/>
</a>
</g>
</g>
<!-- Node3 -->
<g id="Node000003" class="node">
<title>Node3</title>
<g id="a_Node000003"><a xlink:title=" ">
<polygon fill="#e0e0e0" stroke="#999999" points="41.5,-150 0,-150 0,-130 41.5,-130 41.5,-150"/>
<text text-anchor="middle" x="20.75" y="-136.5" font-family="Helvetica,sans-Serif" font-size="10.00">vector</text>
</a>
</g>
</g>
<!-- Node1&#45;&gt;Node3 -->
<g id="edge2_Node000001_Node000003" class="edge">
<title>Node1&#45;&gt;Node3</title>
<g id="a_edge2_Node000001_Node000003"><a xlink:title=" ">
<path fill="none" stroke="#63b8ff" d="M293.24,-268.9C255.16,-259.92 206.38,-245.46 166.75,-224 147.34,-213.48 147.33,-203.92 128.75,-192 115.33,-183.39 79.05,-166.71 52.22,-154.78"/>
<polygon fill="#63b8ff" stroke="#63b8ff" points="53.7,-151.6 43.14,-150.76 50.87,-158 53.7,-151.6"/>
</a>
</g>
</g>
<!-- Node4 -->
<g id="Node000004" class="node">
<title>Node4</title>
<g id="a_Node000004"><a xlink:title=" ">
<polygon fill="#e0e0e0" stroke="#999999" points="470.62,-20 384.88,-20 384.88,0 470.62,0 470.62,-20"/>
<text text-anchor="middle" x="427.75" y="-6.5" font-family="Helvetica,sans-Serif" font-size="10.00">vk_mem_alloc.h</text>
</a>
</g>
</g>
<!-- Node1&#45;&gt;Node4 -->
<g id="edge3_Node000001_Node000004" class="edge">
<title>Node1&#45;&gt;Node4</title>
<g id="a_edge3_Node000001_Node000004"><a xlink:title=" ">
<path fill="none" stroke="#63b8ff" d="M361.4,-259.81C374.94,-209.04 409.09,-80.96 422.36,-31.21"/>
<polygon fill="#63b8ff" stroke="#63b8ff" points="425.67,-32.36 424.87,-21.8 418.91,-30.56 425.67,-32.36"/>
</a>
</g>
</g>
<!-- Node5 -->
<g id="Node000005" class="node">
<title>Node5</title>
<g id="a_Node000005"><a xlink:title=" ">
<polygon fill="#e0e0e0" stroke="#999999" points="366.38,-20 285.12,-20 285.12,0 366.38,0 366.38,-20"/>
<text text-anchor="middle" x="325.75" y="-6.5" font-family="Helvetica,sans-Serif" font-size="10.00">vulkan/vulkan.h</text>
</a>
</g>
</g>
<!-- Node1&#45;&gt;Node5 -->
<g id="edge4_Node000001_Node000005" class="edge">
<title>Node1&#45;&gt;Node5</title>
<g id="a_edge4_Node000001_Node000005"><a xlink:title=" ">
<path fill="none" stroke="#63b8ff" d="M353.4,-259.81C347.77,-209.15 333.58,-81.51 328.03,-31.52"/>
<polygon fill="#63b8ff" stroke="#63b8ff" points="331.54,-31.39 326.95,-21.84 324.58,-32.17 331.54,-31.39"/>
</a>
</g>
</g>
<!-- Node6 -->
<g id="Node000006" class="node">
<title>Node6</title>
<g id="a_Node000006"><a xlink:href="image_8h.html" target="_top" xlink:title=" ">
<polygon fill="white" stroke="#666666" points="547.5,-150 422,-150 422,-130 547.5,-130 547.5,-150"/>
<text text-anchor="middle" x="484.75" y="-136.5" font-family="Helvetica,sans-Serif" font-size="10.00">renderer_internal/image.h</text>
</a>
</g>
</g>
<!-- Node1&#45;&gt;Node6 -->
<g id="edge5_Node000001_Node000006" class="edge">
<title>Node1&#45;&gt;Node6</title>
<g id="a_edge5_Node000001_Node000006"><a xlink:title=" ">
<path fill="none" stroke="#63b8ff" d="M375.34,-259.74C400.7,-232.21 444.45,-184.73 468.22,-158.94"/>
<polygon fill="#63b8ff" stroke="#63b8ff" points="470.77,-161.33 474.97,-151.61 465.62,-156.59 470.77,-161.33"/>
</a>
</g>
</g>
<!-- Node12 -->
<g id="Node000012" class="node">
<title>Node12</title>
<g id="a_Node000012"><a xlink:href="render__core_8h.html" target="_top" xlink:title=" ">
<polygon fill="white" stroke="#666666" points="721.75,-156 603.75,-156 603.75,-124 721.75,-124 721.75,-156"/>
<text text-anchor="start" x="611.75" y="-142.5" font-family="Helvetica,sans-Serif" font-size="10.00">renderer_internal/render</text>
<text text-anchor="middle" x="662.75" y="-130.5" font-family="Helvetica,sans-Serif" font-size="10.00">_core.h</text>
</a>
</g>
</g>
<!-- Node1&#45;&gt;Node12 -->
<g id="edge15_Node000001_Node000012" class="edge">
<title>Node1&#45;&gt;Node12</title>
<g id="a_edge15_Node000001_Node000012"><a xlink:title=" ">
<path fill="none" stroke="#63b8ff" d="M402.71,-259.58C461.53,-232.76 561.55,-187.15 618.88,-161.01"/>
<polygon fill="#63b8ff" stroke="#63b8ff" points="620.05,-164.32 627.69,-156.99 617.14,-157.95 620.05,-164.32"/>
</a>
</g>
</g>
<!-- Node13 -->
<g id="Node000013" class="node">
<title>Node13</title>
<g id="a_Node000013"><a xlink:href="shader__database_8h.html" target="_top" xlink:title=" ">
<polygon fill="white" stroke="#666666" points="295.88,-224 175.62,-224 175.62,-192 295.88,-192 295.88,-224"/>
<text text-anchor="start" x="183.62" y="-210.5" font-family="Helvetica,sans-Serif" font-size="10.00">renderer_internal/shader</text>
<text text-anchor="middle" x="235.75" y="-198.5" font-family="Helvetica,sans-Serif" font-size="10.00">_database.h</text>
</a>
</g>
</g>
<!-- Node1&#45;&gt;Node13 -->
<g id="edge20_Node000001_Node000013" class="edge">
<title>Node1&#45;&gt;Node13</title>
<g id="a_edge20_Node000001_Node000013"><a xlink:title=" ">
<path fill="none" stroke="#63b8ff" d="M320.07,-259.59C304.66,-250.34 286.66,-239.55 271.27,-230.31"/>
<polygon fill="#63b8ff" stroke="#63b8ff" points="273.25,-227.42 262.87,-225.27 269.65,-233.42 273.25,-227.42"/>
</a>
</g>
</g>
<!-- Node6&#45;&gt;Node4 -->
<g id="edge6_Node000006_Node000004" class="edge">
<title>Node6&#45;&gt;Node4</title>
<g id="a_edge6_Node000006_Node000004"><a xlink:title=" ">
<path fill="none" stroke="#63b8ff" d="M480.65,-129.79C471.45,-109.14 449,-58.71 436.5,-30.65"/>
<polygon fill="#63b8ff" stroke="#63b8ff" points="439.85,-29.56 432.58,-21.85 433.45,-32.41 439.85,-29.56"/>
</a>
</g>
</g>
<!-- Node6&#45;&gt;Node5 -->
<g id="edge7_Node000006_Node000005" class="edge">
<title>Node6&#45;&gt;Node5</title>
<g id="a_edge7_Node000006_Node000005"><a xlink:title=" ">
<path fill="none" stroke="#63b8ff" d="M473.06,-129.59C446.18,-107.95 379.73,-54.45 346.03,-27.33"/>
<polygon fill="#63b8ff" stroke="#63b8ff" points="348.62,-24.92 338.64,-21.38 344.23,-30.37 348.62,-24.92"/>
</a>
</g>
</g>
<!-- Node7 -->
<g id="Node000007" class="node">
<title>Node7</title>
<g id="a_Node000007"><a xlink:href="render__context_8h.html" target="_top" xlink:title=" ">
<polygon fill="white" stroke="#666666" points="615.75,-88 497.75,-88 497.75,-56 615.75,-56 615.75,-88"/>
<text text-anchor="start" x="505.75" y="-74.5" font-family="Helvetica,sans-Serif" font-size="10.00">renderer_internal/render</text>
<text text-anchor="middle" x="556.75" y="-62.5" font-family="Helvetica,sans-Serif" font-size="10.00">_context.h</text>
</a>
</g>
</g>
<!-- Node6&#45;&gt;Node7 -->
<g id="edge8_Node000006_Node000007" class="edge">
<title>Node6&#45;&gt;Node7</title>
<g id="a_edge8_Node000006_Node000007"><a xlink:title=" ">
<path fill="none" stroke="#63b8ff" d="M495.07,-129.54C504.61,-120.8 519.17,-107.45 531.75,-95.92"/>
<polygon fill="#63b8ff" stroke="#63b8ff" points="533.94,-98.66 538.94,-89.32 529.21,-93.5 533.94,-98.66"/>
</a>
</g>
</g>
<!-- Node7&#45;&gt;Node4 -->
<g id="edge13_Node000007_Node000004" class="edge">
<title>Node7&#45;&gt;Node4</title>
<g id="a_edge13_Node000007_Node000004"><a xlink:title=" ">
<path fill="none" stroke="#63b8ff" d="M523.53,-55.55C503.37,-46.17 477.84,-34.3 458.21,-25.17"/>
<polygon fill="#63b8ff" stroke="#63b8ff" points="459.89,-22.09 449.35,-21.05 456.94,-28.44 459.89,-22.09"/>
</a>
</g>
</g>
<!-- Node7&#45;&gt;Node5 -->
<g id="edge14_Node000007_Node000005" class="edge">
<title>Node7&#45;&gt;Node5</title>
<g id="a_edge14_Node000007_Node000005"><a xlink:title=" ">
<path fill="none" stroke="#63b8ff" d="M497.26,-55.55C458.62,-45.51 408.93,-32.61 372.99,-23.27"/>
<polygon fill="#63b8ff" stroke="#63b8ff" points="374.33,-20 363.78,-20.88 372.57,-26.78 374.33,-20"/>
</a>
</g>
</g>
<!-- Node8 -->
<g id="Node000008" class="node">
<title>Node8</title>
<g id="a_Node000008"><a xlink:href="config_8h.html" target="_top" xlink:title=" ">
<polygon fill="white" stroke="#666666" points="634.62,-20 584.88,-20 584.88,0 634.62,0 634.62,-20"/>
<text text-anchor="middle" x="609.75" y="-6.5" font-family="Helvetica,sans-Serif" font-size="10.00">config.h</text>
</a>
</g>
</g>
<!-- Node7&#45;&gt;Node8 -->
<g id="edge9_Node000007_Node000008" class="edge">
<title>Node7&#45;&gt;Node8</title>
<g id="a_edge9_Node000007_Node000008"><a xlink:title=" ">
<path fill="none" stroke="#63b8ff" d="M570.4,-55.55C577.61,-47.39 586.49,-37.33 593.99,-28.84"/>
<polygon fill="#63b8ff" stroke="#63b8ff" points="596.44,-31.35 600.44,-21.54 591.19,-26.72 596.44,-31.35"/>
</a>
</g>
</g>
<!-- Node9 -->
<g id="Node000009" class="node">
<title>Node9</title>
<g id="a_Node000009"><a xlink:href="platform_8h.html" target="_top" xlink:title=" ">
<polygon fill="white" stroke="#666666" points="711.12,-20 652.38,-20 652.38,0 711.12,0 711.12,-20"/>
<text text-anchor="middle" x="681.75" y="-6.5" font-family="Helvetica,sans-Serif" font-size="10.00">platform.h</text>
</a>
</g>
</g>
<!-- Node7&#45;&gt;Node9 -->
<g id="edge10_Node000007_Node000009" class="edge">
<title>Node7&#45;&gt;Node9</title>
<g id="a_edge10_Node000007_Node000009"><a xlink:title=" ">
<path fill="none" stroke="#63b8ff" d="M588.94,-55.55C608.38,-46.22 632.98,-34.41 651.97,-25.29"/>
<polygon fill="#63b8ff" stroke="#63b8ff" points="653.28,-28.55 660.79,-21.06 650.26,-22.23 653.28,-28.55"/>
</a>
</g>
</g>
<!-- Node10 -->
<g id="Node000010" class="node">
<title>Node10</title>
<g id="a_Node000010"><a xlink:title=" ">
<polygon fill="#e0e0e0" stroke="#999999" points="786.38,-20 729.12,-20 729.12,0 786.38,0 786.38,-20"/>
<text text-anchor="middle" x="757.75" y="-6.5" font-family="Helvetica,sans-Serif" font-size="10.00">functional</text>
</a>
</g>
</g>
<!-- Node7&#45;&gt;Node10 -->
<g id="edge11_Node000007_Node000010" class="edge">
<title>Node7&#45;&gt;Node10</title>
<g id="a_edge11_Node000007_Node000010"><a xlink:title=" ">
<path fill="none" stroke="#63b8ff" d="M608.51,-55.55C642.6,-45.37 686.55,-32.25 717.91,-22.89"/>
<polygon fill="#63b8ff" stroke="#63b8ff" points="718.82,-26.27 727.4,-20.06 716.82,-19.57 718.82,-26.27"/>
</a>
</g>
</g>
<!-- Node11 -->
<g id="Node000011" class="node">
<title>Node11</title>
<g id="a_Node000011"><a xlink:title=" ">
<polygon fill="#e0e0e0" stroke="#999999" points="566.88,-20 488.62,-20 488.62,0 566.88,0 566.88,-20"/>
<text text-anchor="middle" x="527.75" y="-6.5" font-family="Helvetica,sans-Serif" font-size="10.00">VkBootstrap.h</text>
</a>
</g>
</g>
<!-- Node7&#45;&gt;Node11 -->
<g id="edge12_Node000007_Node000011" class="edge">
<title>Node7&#45;&gt;Node11</title>
<g id="a_edge12_Node000007_Node000011"><a xlink:title=" ">
<path fill="none" stroke="#63b8ff" d="M549.28,-55.55C545.63,-48 541.2,-38.82 537.3,-30.77"/>
<polygon fill="#63b8ff" stroke="#63b8ff" points="540.46,-29.25 532.96,-21.77 534.16,-32.3 540.46,-29.25"/>
</a>
</g>
</g>
<!-- Node12&#45;&gt;Node7 -->
<g id="edge19_Node000012_Node000007" class="edge">
<title>Node12&#45;&gt;Node7</title>
<g id="a_edge19_Node000012_Node000007"><a xlink:title=" ">
<path fill="none" stroke="#63b8ff" d="M637.9,-123.53C623.94,-114.84 606.32,-103.86 591.07,-94.37"/>
<polygon fill="#63b8ff" stroke="#63b8ff" points="593.07,-91.49 582.73,-89.18 589.37,-97.43 593.07,-91.49"/>
</a>
</g>
</g>
<!-- Node12&#45;&gt;Node8 -->
<g id="edge17_Node000012_Node000008" class="edge">
<title>Node12&#45;&gt;Node8</title>
<g id="a_edge17_Node000012_Node000008"><a xlink:title=" ">
<path fill="none" stroke="#63b8ff" d="M656.36,-123.56C646.75,-100.37 628.61,-56.54 618.01,-30.96"/>
<polygon fill="#63b8ff" stroke="#63b8ff" points="621.25,-29.63 614.19,-21.72 614.78,-32.3 621.25,-29.63"/>
</a>
</g>
</g>
<!-- Node12&#45;&gt;Node9 -->
<g id="edge18_Node000012_Node000009" class="edge">
<title>Node12&#45;&gt;Node9</title>
<g id="a_edge18_Node000012_Node000009"><a xlink:title=" ">
<path fill="none" stroke="#63b8ff" d="M665.04,-123.56C668.45,-100.58 674.87,-57.34 678.68,-31.66"/>
<polygon fill="#63b8ff" stroke="#63b8ff" points="682.14,-32.23 680.14,-21.82 675.21,-31.2 682.14,-32.23"/>
</a>
</g>
</g>
<!-- Node12&#45;&gt;Node10 -->
<g id="edge16_Node000012_Node000010" class="edge">
<title>Node12&#45;&gt;Node10</title>
<g id="a_edge16_Node000012_Node000010"><a xlink:title=" ">
<path fill="none" stroke="#63b8ff" d="M674.21,-123.56C691.81,-99.85 725.43,-54.55 744.21,-29.25"/>
<polygon fill="#63b8ff" stroke="#63b8ff" points="746.78,-31.66 749.93,-21.54 741.16,-27.49 746.78,-31.66"/>
</a>
</g>
</g>
<!-- Node13&#45;&gt;Node3 -->
<g id="edge23_Node000013_Node000003" class="edge">
<title>Node13&#45;&gt;Node3</title>
<g id="a_edge23_Node000013_Node000003"><a xlink:title=" ">
<path fill="none" stroke="#63b8ff" d="M175.14,-191.91C139.94,-182.63 94.94,-169.88 55.75,-156 54.6,-155.59 53.43,-155.16 52.25,-154.72"/>
<polygon fill="#63b8ff" stroke="#63b8ff" points="53.66,-151.52 43.08,-151.05 51.06,-158.02 53.66,-151.52"/>
</a>
</g>
</g>
<!-- Node13&#45;&gt;Node5 -->
<g id="edge24_Node000013_Node000005" class="edge">
<title>Node13&#45;&gt;Node5</title>
<g id="a_edge24_Node000013_Node000005"><a xlink:title=" ">
<path fill="none" stroke="#63b8ff" d="M175.26,-195.12C153.68,-187.65 131.56,-175.56 118.75,-156 103.29,-132.39 130.4,-62.2 136.75,-56 155.98,-37.25 224.41,-24.42 273.39,-17.39"/>
<polygon fill="#63b8ff" stroke="#63b8ff" points="273.84,-20.86 283.27,-16.02 272.88,-13.93 273.84,-20.86"/>
</a>
</g>
</g>
<!-- Node13&#45;&gt;Node7 -->
<g id="edge25_Node000013_Node000007" class="edge">
<title>Node13&#45;&gt;Node7</title>
<g id="a_edge25_Node000013_Node000007"><a xlink:title=" ">
<path fill="none" stroke="#63b8ff" d="M296.15,-206.37C379.68,-204.07 523.91,-194.46 556.75,-156 569.8,-140.72 568.63,-117.45 564.86,-99.44"/>
<polygon fill="#63b8ff" stroke="#63b8ff" points="568.32,-98.82 562.5,-89.97 561.52,-100.52 568.32,-98.82"/>
</a>
</g>
</g>
<!-- Node14 -->
<g id="Node000014" class="node">
<title>Node14</title>
<g id="a_Node000014"><a xlink:title=" ">
<polygon fill="#e0e0e0" stroke="#999999" points="327.75,-150 287.75,-150 287.75,-130 327.75,-130 327.75,-150"/>
<text text-anchor="middle" x="307.75" y="-136.5" font-family="Helvetica,sans-Serif" font-size="10.00">string</text>
</a>
</g>
</g>
<!-- Node13&#45;&gt;Node14 -->
<g id="edge21_Node000013_Node000014" class="edge">
<title>Node13&#45;&gt;Node14</title>
<g id="a_edge21_Node000013_Node000014"><a xlink:title=" ">
<path fill="none" stroke="#63b8ff" d="M252.45,-191.69C263.46,-181.6 277.9,-168.36 289.26,-157.95"/>
<polygon fill="#63b8ff" stroke="#63b8ff" points="291.46,-160.68 296.47,-151.34 286.73,-155.52 291.46,-160.68"/>
</a>
</g>
</g>
<!-- Node15 -->
<g id="Node000015" class="node">
<title>Node15</title>
<g id="a_Node000015"><a xlink:title=" ">
<polygon fill="#e0e0e0" stroke="#999999" points="180.12,-82 145.38,-82 145.38,-62 180.12,-62 180.12,-82"/>
<text text-anchor="middle" x="162.75" y="-68.5" font-family="Helvetica,sans-Serif" font-size="10.00">map</text>
</a>
</g>
</g>
<!-- Node13&#45;&gt;Node15 -->
<g id="edge22_Node000013_Node000015" class="edge">
<title>Node13&#45;&gt;Node15</title>
<g id="a_edge22_Node000013_Node000015"><a xlink:title=" ">
<path fill="none" stroke="#63b8ff" d="M175.29,-192.56C156.48,-184.92 137.8,-173.36 126.75,-156 113.32,-134.9 130.53,-107.93 145.46,-90.56"/>
<polygon fill="#63b8ff" stroke="#63b8ff" points="147.7,-93.3 151.86,-83.56 142.53,-88.58 147.7,-93.3"/>
</a>
</g>
</g>
<!-- Node16 -->
<g id="Node000016" class="node">
<title>Node16</title>
<g id="a_Node000016"><a xlink:href="descriptor__management_8h.html" target="_top" xlink:title=" ">
<polygon fill="white" stroke="#666666" points="269.62,-156 135.88,-156 135.88,-124 269.62,-124 269.62,-156"/>
<text text-anchor="start" x="143.88" y="-142.5" font-family="Helvetica,sans-Serif" font-size="10.00">renderer_internal/descriptor</text>
<text text-anchor="middle" x="202.75" y="-130.5" font-family="Helvetica,sans-Serif" font-size="10.00">_management.h</text>
</a>
</g>
</g>
<!-- Node13&#45;&gt;Node16 -->
<g id="edge26_Node000013_Node000016" class="edge">
<title>Node13&#45;&gt;Node16</title>
<g id="a_edge26_Node000013_Node000016"><a xlink:title=" ">
<path fill="none" stroke="#63b8ff" d="M228.1,-191.69C224.35,-184.2 219.73,-174.97 215.48,-166.45"/>
<polygon fill="#63b8ff" stroke="#63b8ff" points="218.64,-164.96 211.04,-157.58 212.38,-168.09 218.64,-164.96"/>
</a>
</g>
</g>
<!-- Node16&#45;&gt;Node5 -->
<g id="edge28_Node000016_Node000005" class="edge">
<title>Node16&#45;&gt;Node5</title>
<g id="a_edge28_Node000016_Node000005"><a xlink:title=" ">
<path fill="none" stroke="#63b8ff" d="M217.59,-123.56C240.58,-99.64 284.67,-53.75 308.86,-28.58"/>
<polygon fill="#63b8ff" stroke="#63b8ff" points="311.33,-31.05 315.74,-21.42 306.29,-26.2 311.33,-31.05"/>
</a>
</g>
</g>
<!-- Node16&#45;&gt;Node7 -->
<g id="edge29_Node000016_Node000007" class="edge">
<title>Node16&#45;&gt;Node7</title>
<g id="a_edge29_Node000016_Node000007"><a xlink:title=" ">
<path fill="none" stroke="#63b8ff" d="M269.88,-125.7C272.88,-125.12 275.84,-124.55 278.75,-124 349.21,-110.58 429.85,-95.86 486.07,-85.7"/>
<polygon fill="#63b8ff" stroke="#63b8ff" points="486.62,-89.15 495.84,-83.93 485.37,-82.27 486.62,-89.15"/>
</a>
</g>
</g>
<!-- Node16&#45;&gt;Node15 -->
<g id="edge27_Node000016_Node000015" class="edge">
<title>Node16&#45;&gt;Node15</title>
<g id="a_edge27_Node000016_Node000015"><a xlink:title=" ">
<path fill="none" stroke="#63b8ff" d="M193.47,-123.69C187.78,-114.3 180.44,-102.18 174.36,-92.15"/>
<polygon fill="#63b8ff" stroke="#63b8ff" points="177.36,-90.35 169.18,-83.61 171.37,-93.98 177.36,-90.35"/>
</a>
</g>
</g>
</g>
</svg>

<g id="navigator" transform="translate(0 0)" fill="#404254">
  <rect fill="#f2f5e9" fill-opacity="0.5" stroke="#606060" stroke-width=".5" x="0" y="0" width="60" height="60"/>
  <use id="zoomplus" xlink:href="#zoomPlus" x="17" y="9" onmousedown="handleZoom(evt,'in')"/>
  <use id="zoomminus" xlink:href="#zoomMin" x="42" y="9" onmousedown="handleZoom(evt,'out')"/>
  <use id="reset" xlink:href="#resetDef" x="30" y="36" onmousedown="handleReset()"/>
   <use id="arrowup" xlink:href="#arrowUp" x="0" y="0" onmousedown="handlePan(0,-1)"/>
  <use id="arrowright" xlink:href="#arrowRight" x="0" y="0" onmousedown="handlePan(1,0)"/>
  <use id="arrowdown" xlink:href="#arrowDown" x="0" y="0" onmousedown="handlePan(0,1)"/>
  <use id="arrowleft" xlink:href="#arrowLeft" x="0" y="0" onmousedown="handlePan(-1,0)"/>
</g>
<svg viewBox="0 0 15 15" width="100%" height="30px" preserveAspectRatio="xMaxYMin meet">
 <g id="arrow_out" transform="scale(0.3 0.3)">
  <a xlink:href="render__pass_8h__incl_org.svg" target="_base">
   <rect id="button" ry="5" rx="5" y="6" x="6" height="38" width="38"
        fill="#f2f5e9" fill-opacity="0.5" stroke="#606060" stroke-width="1.0"/>
   <path id="arrow"
     d="M 11.500037,31.436501 C 11.940474,20.09759 22.043105,11.32322 32.158766,21.979434 L 37.068811,17.246167 C 37.068811,17.246167 37.088388,32 37.088388,32 L 22.160133,31.978069 C 22.160133,31.978069 26.997745,27.140456 26.997745,27.140456 C 18.528582,18.264221 13.291696,25.230495 11.500037,31.436501 z"
     style="fill:#404040;"/>
  </a>
 </g>
</svg>

<style type='text/css'>
<![CDATA[
[data-mouse-over-selected='false'] { opacity: 0.7; }
[data-mouse-over-selected='true']  { opacity: 1.0; }
]]>
</style>
<script type="application/ecmascript"><![CDATA[
document.addEventListener('DOMContentLoaded', (event) => {
  highlightEdges();
  highlightAdjacentNodes();
});
]]></script>
</svg>
