<?xml version="1.0" encoding="UTF-8" standalone="no"?>
<!DOCTYPE svg PUBLIC "-//W3C//DTD SVG 1.1//EN"
 "http://www.w3.org/Graphics/SVG/1.1/DTD/svg11.dtd">
<!-- Generated by graphviz version 10.0.1 (20240210.2158)
 -->
<!-- Title: hybrid&#45;renderer&#45;lib/include/renderer_internal/render_context.h Pages: 1 -->
<svg width="1265pt" height="496pt"
 viewBox="0.00 0.00 1265.25 496.00" xmlns="http://www.w3.org/2000/svg" xmlns:xlink="http://www.w3.org/1999/xlink">
<g id="graph0" class="graph" transform="scale(1 1) rotate(0) translate(4 492)">
<title>hybrid&#45;renderer&#45;lib/include/renderer_internal/render_context.h</title>
<!-- Node1 -->
<g id="Node000001" class="node">
<title>Node1</title>
<g id="a_Node000001"><a xlink:title=" ">
<polygon fill="#999999" stroke="#666666" points="571.88,-488 447.13,-488 447.13,-444 571.88,-444 571.88,-488"/>
<text text-anchor="start" x="455.13" y="-474.5" font-family="Helvetica,sans-Serif" font-size="10.00">hybrid&#45;renderer&#45;lib</text>
<text text-anchor="start" x="455.13" y="-462.5" font-family="Helvetica,sans-Serif" font-size="10.00">/include/renderer_internal</text>
<text text-anchor="middle" x="509.5" y="-450.5" font-family="Helvetica,sans-Serif" font-size="10.00">/render_context.h</text>
</a>
</g>
</g>
<!-- Node2 -->
<g id="Node000002" class="node">
<title>Node2</title>
<g id="a_Node000002"><a xlink:href="hybrid__renderer_8h.html" target="_top" xlink:title=" ">
<polygon fill="white" stroke="#666666" points="528.38,-162 400.63,-162 400.63,-130 528.38,-130 528.38,-162"/>
<text text-anchor="start" x="408.63" y="-148.5" font-family="Helvetica,sans-Serif" font-size="10.00">hybrid&#45;renderer&#45;lib</text>
<text text-anchor="middle" x="464.5" y="-136.5" font-family="Helvetica,sans-Serif" font-size="10.00">/include/hybrid_renderer.h</text>
</a>
</g>
</g>
<!-- Node1&#45;&gt;Node2 -->
<g id="edge1_Node000001_Node000002" class="edge">
<title>Node1&#45;&gt;Node2</title>
<g id="a_edge1_Node000001_Node000002"><a xlink:title=" ">
<path fill="none" stroke="#63b8ff" d="M435.16,-463.18C323.4,-459.21 118.66,-446.71 57.5,-408 21.87,-385.45 18.31,-368.48 6.5,-328 1.03,-309.23 -4.45,-300.2 6.5,-284 51,-218.16 285.21,-174.16 400.4,-156.17"/>
<polygon fill="#63b8ff" stroke="#63b8ff" points="435.04,-466.68 445.15,-463.52 435.28,-459.68 435.04,-466.68"/>
</a>
</g>
</g>
<!-- Node8 -->
<g id="Node000008" class="node">
<title>Node8</title>
<g id="a_Node000008"><a xlink:href="buffer_8h.html" target="_top" xlink:title=" ">
<polygon fill="white" stroke="#666666" points="209.88,-408 85.13,-408 85.13,-364 209.88,-364 209.88,-408"/>
<text text-anchor="start" x="93.13" y="-394.5" font-family="Helvetica,sans-Serif" font-size="10.00">hybrid&#45;renderer&#45;lib</text>
<text text-anchor="start" x="93.13" y="-382.5" font-family="Helvetica,sans-Serif" font-size="10.00">/include/renderer_internal</text>
<text text-anchor="middle" x="147.5" y="-370.5" font-family="Helvetica,sans-Serif" font-size="10.00">/buffer.h</text>
</a>
</g>
</g>
<!-- Node1&#45;&gt;Node8 -->
<g id="edge9_Node000001_Node000008" class="edge">
<title>Node1&#45;&gt;Node8</title>
<g id="a_edge9_Node000001_Node000008"><a xlink:title=" ">
<path fill="none" stroke="#63b8ff" d="M435.48,-451.78C377.55,-441.06 295.08,-425 223.5,-408 219.11,-406.96 214.58,-405.83 210.03,-404.67"/>
<polygon fill="#63b8ff" stroke="#63b8ff" points="434.77,-455.21 445.24,-453.58 436.04,-448.32 434.77,-455.21"/>
</a>
</g>
</g>
<!-- Node9 -->
<g id="Node000009" class="node">
<title>Node9</title>
<g id="a_Node000009"><a xlink:href="buffer_8cpp.html" target="_top" xlink:title=" ">
<polygon fill="white" stroke="#666666" points="123.25,-328 15.75,-328 15.75,-284 123.25,-284 123.25,-328"/>
<text text-anchor="start" x="23.75" y="-314.5" font-family="Helvetica,sans-Serif" font-size="10.00">hybrid&#45;renderer&#45;lib</text>
<text text-anchor="start" x="23.75" y="-302.5" font-family="Helvetica,sans-Serif" font-size="10.00">/src/renderer_internal</text>
<text text-anchor="middle" x="69.5" y="-290.5" font-family="Helvetica,sans-Serif" font-size="10.00">/buffer.cpp</text>
</a>
</g>
</g>
<!-- Node1&#45;&gt;Node9 -->
<g id="edge39_Node000001_Node000009" class="edge">
<title>Node1&#45;&gt;Node9</title>
<g id="a_edge39_Node000001_Node000009"><a xlink:title=" ">
<path fill="none" stroke="#63b8ff" d="M435.6,-460.31C318.41,-452.15 100.66,-433.7 76.5,-408 56.64,-386.87 59.47,-351.02 64,-328.2"/>
<polygon fill="#63b8ff" stroke="#63b8ff" points="435.24,-463.8 445.45,-460.99 435.72,-456.81 435.24,-463.8"/>
</a>
</g>
</g>
<!-- Node10 -->
<g id="Node000010" class="node">
<title>Node10</title>
<g id="a_Node000010"><a xlink:href="descriptor__management_8h.html" target="_top" xlink:title=" ">
<polygon fill="white" stroke="#666666" points="688.25,-408 556.75,-408 556.75,-364 688.25,-364 688.25,-408"/>
<text text-anchor="start" x="564.75" y="-394.5" font-family="Helvetica,sans-Serif" font-size="10.00">hybrid&#45;renderer&#45;lib</text>
<text text-anchor="start" x="564.75" y="-382.5" font-family="Helvetica,sans-Serif" font-size="10.00">/include/renderer_internal</text>
<text text-anchor="middle" x="622.5" y="-370.5" font-family="Helvetica,sans-Serif" font-size="10.00">/descriptor_management.h</text>
</a>
</g>
</g>
<!-- Node1&#45;&gt;Node10 -->
<g id="edge12_Node000001_Node000010" class="edge">
<title>Node1&#45;&gt;Node10</title>
<g id="a_edge12_Node000001_Node000010"><a xlink:title=" ">
<path fill="none" stroke="#63b8ff" d="M549.67,-437.28C563.48,-427.74 578.71,-417.23 591.66,-408.29"/>
<polygon fill="#63b8ff" stroke="#63b8ff" points="547.87,-434.27 541.62,-442.83 551.84,-440.03 547.87,-434.27"/>
</a>
</g>
</g>
<!-- Node11 -->
<g id="Node000011" class="node">
<title>Node11</title>
<g id="a_Node000011"><a xlink:href="render__system_8h.html" target="_top" xlink:title=" ">
<polygon fill="white" stroke="#666666" points="849.88,-248 725.13,-248 725.13,-204 849.88,-204 849.88,-248"/>
<text text-anchor="start" x="733.13" y="-234.5" font-family="Helvetica,sans-Serif" font-size="10.00">hybrid&#45;renderer&#45;lib</text>
<text text-anchor="start" x="733.13" y="-222.5" font-family="Helvetica,sans-Serif" font-size="10.00">/include/renderer_internal</text>
<text text-anchor="middle" x="787.5" y="-210.5" font-family="Helvetica,sans-Serif" font-size="10.00">/render_system.h</text>
</a>
</g>
</g>
<!-- Node1&#45;&gt;Node11 -->
<g id="edge37_Node000001_Node000011" class="edge">
<title>Node1&#45;&gt;Node11</title>
<g id="a_edge37_Node000001_Node000011"><a xlink:title=" ">
<path fill="none" stroke="#63b8ff" d="M582.98,-451.66C619.23,-442.91 662.57,-429.08 697.5,-408 740.28,-382.18 755.05,-373.13 776.5,-328 788.62,-302.51 789.89,-269.43 789.13,-248.2"/>
<polygon fill="#63b8ff" stroke="#63b8ff" points="582.39,-448.2 573.44,-453.87 583.97,-455.02 582.39,-448.2"/>
</a>
</g>
</g>
<!-- Node12 -->
<g id="Node000012" class="node">
<title>Node12</title>
<g id="a_Node000012"><a xlink:href="render__system_8cpp.html" target="_top" xlink:title=" ">
<polygon fill="white" stroke="#666666" points="924.25,-168 816.75,-168 816.75,-124 924.25,-124 924.25,-168"/>
<text text-anchor="start" x="824.75" y="-154.5" font-family="Helvetica,sans-Serif" font-size="10.00">hybrid&#45;renderer&#45;lib</text>
<text text-anchor="start" x="824.75" y="-142.5" font-family="Helvetica,sans-Serif" font-size="10.00">/src/renderer_internal</text>
<text text-anchor="middle" x="870.5" y="-130.5" font-family="Helvetica,sans-Serif" font-size="10.00">/render_system.cpp</text>
</a>
</g>
</g>
<!-- Node1&#45;&gt;Node12 -->
<g id="edge44_Node000001_Node000012" class="edge">
<title>Node1&#45;&gt;Node12</title>
<g id="a_edge44_Node000001_Node000012"><a xlink:title=" ">
<path fill="none" stroke="#63b8ff" d="M583.67,-459.18C682.36,-450.61 850.96,-432.89 907.5,-408 1010.11,-362.83 1054.56,-349.34 1102.5,-248 1110.86,-230.32 1114.57,-219.39 1102.5,-204 1080.81,-176.34 986.14,-160.32 924.64,-152.65"/>
<polygon fill="#63b8ff" stroke="#63b8ff" points="583.47,-455.68 573.8,-460.02 584.06,-462.65 583.47,-455.68"/>
</a>
</g>
</g>
<!-- Node13 -->
<g id="Node000013" class="node">
<title>Node13</title>
<g id="a_Node000013"><a xlink:href="shader__database_8h.html" target="_top" xlink:title=" ">
<polygon fill="white" stroke="#666666" points="959.88,-328 835.13,-328 835.13,-284 959.88,-284 959.88,-328"/>
<text text-anchor="start" x="843.13" y="-314.5" font-family="Helvetica,sans-Serif" font-size="10.00">hybrid&#45;renderer&#45;lib</text>
<text text-anchor="start" x="843.13" y="-302.5" font-family="Helvetica,sans-Serif" font-size="10.00">/include/renderer_internal</text>
<text text-anchor="middle" x="897.5" y="-290.5" font-family="Helvetica,sans-Serif" font-size="10.00">/shader_database.h</text>
</a>
</g>
</g>
<!-- Node1&#45;&gt;Node13 -->
<g id="edge38_Node000001_Node000013" class="edge">
<title>Node1&#45;&gt;Node13</title>
<g id="a_edge38_Node000001_Node000013"><a xlink:title=" ">
<path fill="none" stroke="#63b8ff" d="M583.54,-457.74C662.85,-448.87 782.6,-432.02 821.5,-408 852.68,-388.74 875.52,-351.63 887.64,-328.15"/>
<polygon fill="#63b8ff" stroke="#63b8ff" points="583.21,-454.25 573.65,-458.82 583.97,-461.21 583.21,-454.25"/>
</a>
</g>
</g>
<!-- Node16 -->
<g id="Node000016" class="node">
<title>Node16</title>
<g id="a_Node000016"><a xlink:href="shader__database_8cpp.html" target="_top" xlink:title=" ">
<polygon fill="white" stroke="#666666" points="1093.5,-248 981.5,-248 981.5,-204 1093.5,-204 1093.5,-248"/>
<text text-anchor="start" x="989.5" y="-234.5" font-family="Helvetica,sans-Serif" font-size="10.00">hybrid&#45;renderer&#45;lib</text>
<text text-anchor="start" x="989.5" y="-222.5" font-family="Helvetica,sans-Serif" font-size="10.00">/src/renderer_internal</text>
<text text-anchor="middle" x="1037.5" y="-210.5" font-family="Helvetica,sans-Serif" font-size="10.00">/shader_database.cpp</text>
</a>
</g>
</g>
<!-- Node1&#45;&gt;Node16 -->
<g id="edge45_Node000001_Node000016" class="edge">
<title>Node1&#45;&gt;Node16</title>
<g id="a_edge45_Node000001_Node000016"><a xlink:title=" ">
<path fill="none" stroke="#63b8ff" d="M583.54,-462.54C655.66,-457.94 767.18,-444.88 856.5,-408 913.04,-384.66 925.7,-371.71 968.5,-328 992.42,-303.57 1013.55,-269.92 1025.93,-248.31"/>
<polygon fill="#63b8ff" stroke="#63b8ff" points="583.6,-459.03 573.82,-463.12 584.01,-466.02 583.6,-459.03"/>
</a>
</g>
</g>
<!-- Node17 -->
<g id="Node000017" class="node">
<title>Node17</title>
<g id="a_Node000017"><a xlink:href="descriptor__management_8cpp.html" target="_top" xlink:title=" ">
<polygon fill="white" stroke="#666666" points="561.5,-328 419.5,-328 419.5,-284 561.5,-284 561.5,-328"/>
<text text-anchor="start" x="427.5" y="-314.5" font-family="Helvetica,sans-Serif" font-size="10.00">hybrid&#45;renderer&#45;lib</text>
<text text-anchor="start" x="427.5" y="-302.5" font-family="Helvetica,sans-Serif" font-size="10.00">/src/renderer_internal</text>
<text text-anchor="middle" x="490.5" y="-290.5" font-family="Helvetica,sans-Serif" font-size="10.00">/descriptor_management.cpp</text>
</a>
</g>
</g>
<!-- Node1&#45;&gt;Node17 -->
<g id="edge40_Node000001_Node000017" class="edge">
<title>Node1&#45;&gt;Node17</title>
<g id="a_edge40_Node000001_Node000017"><a xlink:title=" ">
<path fill="none" stroke="#63b8ff" d="M505.6,-432.57C501.86,-401.43 496.31,-355.3 493.08,-328.48"/>
<polygon fill="#63b8ff" stroke="#63b8ff" points="502.09,-432.68 506.76,-442.19 509.04,-431.84 502.09,-432.68"/>
</a>
</g>
</g>
<!-- Node18 -->
<g id="Node000018" class="node">
<title>Node18</title>
<g id="a_Node000018"><a xlink:href="image_8h.html" target="_top" xlink:title=" ">
<polygon fill="white" stroke="#666666" points="389.88,-408 265.13,-408 265.13,-364 389.88,-364 389.88,-408"/>
<text text-anchor="start" x="273.13" y="-394.5" font-family="Helvetica,sans-Serif" font-size="10.00">hybrid&#45;renderer&#45;lib</text>
<text text-anchor="start" x="273.13" y="-382.5" font-family="Helvetica,sans-Serif" font-size="10.00">/include/renderer_internal</text>
<text text-anchor="middle" x="327.5" y="-370.5" font-family="Helvetica,sans-Serif" font-size="10.00">/image.h</text>
</a>
</g>
</g>
<!-- Node1&#45;&gt;Node18 -->
<g id="edge27_Node000001_Node000018" class="edge">
<title>Node1&#45;&gt;Node18</title>
<g id="a_edge27_Node000001_Node000018"><a xlink:title=" ">
<path fill="none" stroke="#63b8ff" d="M449.31,-439.2C426.03,-429.23 399.7,-417.94 377.49,-408.42"/>
<polygon fill="#63b8ff" stroke="#63b8ff" points="447.81,-442.37 458.38,-443.09 450.57,-435.93 447.81,-442.37"/>
</a>
</g>
</g>
<!-- Node19 -->
<g id="Node000019" class="node">
<title>Node19</title>
<g id="a_Node000019"><a xlink:href="image_8cpp.html" target="_top" xlink:title=" ">
<polygon fill="white" stroke="#666666" points="287.25,-328 179.75,-328 179.75,-284 287.25,-284 287.25,-328"/>
<text text-anchor="start" x="187.75" y="-314.5" font-family="Helvetica,sans-Serif" font-size="10.00">hybrid&#45;renderer&#45;lib</text>
<text text-anchor="start" x="187.75" y="-302.5" font-family="Helvetica,sans-Serif" font-size="10.00">/src/renderer_internal</text>
<text text-anchor="middle" x="233.5" y="-290.5" font-family="Helvetica,sans-Serif" font-size="10.00">/image.cpp</text>
</a>
</g>
</g>
<!-- Node1&#45;&gt;Node19 -->
<g id="edge41_Node000001_Node000019" class="edge">
<title>Node1&#45;&gt;Node19</title>
<g id="a_edge41_Node000001_Node000019"><a xlink:title=" ">
<path fill="none" stroke="#63b8ff" d="M435.79,-457.13C370.38,-448.64 281.43,-432.88 256.5,-408 235.5,-387.04 232.01,-351.14 232.19,-328.27"/>
<polygon fill="#63b8ff" stroke="#63b8ff" points="435.03,-460.56 445.39,-458.34 435.91,-453.62 435.03,-460.56"/>
</a>
</g>
</g>
<!-- Node20 -->
<g id="Node000020" class="node">
<title>Node20</title>
<g id="a_Node000020"><a xlink:href="render__core_8h.html" target="_top" xlink:title=" ">
<polygon fill="white" stroke="#666666" points="741.88,-328 617.13,-328 617.13,-284 741.88,-284 741.88,-328"/>
<text text-anchor="start" x="625.13" y="-314.5" font-family="Helvetica,sans-Serif" font-size="10.00">hybrid&#45;renderer&#45;lib</text>
<text text-anchor="start" x="625.13" y="-302.5" font-family="Helvetica,sans-Serif" font-size="10.00">/include/renderer_internal</text>
<text text-anchor="middle" x="679.5" y="-290.5" font-family="Helvetica,sans-Serif" font-size="10.00">/render_core.h</text>
</a>
</g>
</g>
<!-- Node1&#45;&gt;Node20 -->
<g id="edge31_Node000001_Node000020" class="edge">
<title>Node1&#45;&gt;Node20</title>
<g id="a_edge31_Node000001_Node000020"><a xlink:title=" ">
<path fill="none" stroke="#63b8ff" d="M514.8,-432.81C519.87,-411.01 529.53,-382.85 547.5,-364 566.1,-344.49 592.5,-331.29 616.81,-322.56"/>
<polygon fill="#63b8ff" stroke="#63b8ff" points="511.42,-431.87 512.79,-442.38 518.27,-433.31 511.42,-431.87"/>
</a>
</g>
</g>
<!-- Node21 -->
<g id="Node000021" class="node">
<title>Node21</title>
<g id="a_Node000021"><a xlink:href="render__core_8cpp.html" target="_top" xlink:title=" ">
<polygon fill="white" stroke="#666666" points="489.25,-248 381.75,-248 381.75,-204 489.25,-204 489.25,-248"/>
<text text-anchor="start" x="389.75" y="-234.5" font-family="Helvetica,sans-Serif" font-size="10.00">hybrid&#45;renderer&#45;lib</text>
<text text-anchor="start" x="389.75" y="-222.5" font-family="Helvetica,sans-Serif" font-size="10.00">/src/renderer_internal</text>
<text text-anchor="middle" x="435.5" y="-210.5" font-family="Helvetica,sans-Serif" font-size="10.00">/render_core.cpp</text>
</a>
</g>
</g>
<!-- Node1&#45;&gt;Node21 -->
<g id="edge43_Node000001_Node000021" class="edge">
<title>Node1&#45;&gt;Node21</title>
<g id="a_edge43_Node000001_Node000021"><a xlink:title=" ">
<path fill="none" stroke="#63b8ff" d="M479.62,-435.55C455.73,-409.74 424.05,-369.89 410.5,-328 401.72,-300.84 413.3,-268.74 423.45,-248.13"/>
<polygon fill="#63b8ff" stroke="#63b8ff" points="476.93,-437.8 486.35,-442.65 482.01,-432.98 476.93,-437.8"/>
</a>
</g>
</g>
<!-- Node22 -->
<g id="Node000022" class="node">
<title>Node22</title>
<g id="a_Node000022"><a xlink:href="render__context_8cpp.html" target="_top" xlink:title=" ">
<polygon fill="white" stroke="#666666" points="1257.25,-408 1149.75,-408 1149.75,-364 1257.25,-364 1257.25,-408"/>
<text text-anchor="start" x="1157.75" y="-394.5" font-family="Helvetica,sans-Serif" font-size="10.00">hybrid&#45;renderer&#45;lib</text>
<text text-anchor="start" x="1157.75" y="-382.5" font-family="Helvetica,sans-Serif" font-size="10.00">/src/renderer_internal</text>
<text text-anchor="middle" x="1203.5" y="-370.5" font-family="Helvetica,sans-Serif" font-size="10.00">/render_context.cpp</text>
</a>
</g>
</g>
<!-- Node1&#45;&gt;Node22 -->
<g id="edge42_Node000001_Node000022" class="edge">
<title>Node1&#45;&gt;Node22</title>
<g id="a_edge42_Node000001_Node000022"><a xlink:title=" ">
<path fill="none" stroke="#63b8ff" d="M583.69,-463.24C701.62,-459.33 938.65,-446.92 1135.5,-408 1140.11,-407.09 1144.84,-405.99 1149.57,-404.77"/>
<polygon fill="#63b8ff" stroke="#63b8ff" points="583.71,-459.74 573.82,-463.56 583.93,-466.74 583.71,-459.74"/>
</a>
</g>
</g>
<!-- Node3 -->
<g id="Node000003" class="node">
<title>Node3</title>
<g id="a_Node000003"><a xlink:href="demo_8h.html" target="_top" xlink:title=" ">
<polygon fill="white" stroke="#666666" points="329,-82 220,-82 220,-62 329,-62 329,-82"/>
<text text-anchor="middle" x="274.5" y="-68.5" font-family="Helvetica,sans-Serif" font-size="10.00">demo/include/demo.h</text>
</a>
</g>
</g>
<!-- Node2&#45;&gt;Node3 -->
<g id="edge2_Node000002_Node000003" class="edge">
<title>Node2&#45;&gt;Node3</title>
<g id="a_edge2_Node000002_Node000003"><a xlink:title=" ">
<path fill="none" stroke="#63b8ff" d="M413.19,-125.55C376.34,-111.59 328.28,-93.38 299.49,-82.47"/>
<polygon fill="#63b8ff" stroke="#63b8ff" points="411.73,-128.75 422.33,-129.02 414.22,-122.2 411.73,-128.75"/>
</a>
</g>
</g>
<!-- Node5 -->
<g id="Node000005" class="node">
<title>Node5</title>
<g id="a_Node000005"><a xlink:href="subsystems_8h.html" target="_top" xlink:title=" ">
<polygon fill="white" stroke="#666666" points="485.63,-82 347.38,-82 347.38,-62 485.63,-62 485.63,-82"/>
<text text-anchor="middle" x="416.5" y="-68.5" font-family="Helvetica,sans-Serif" font-size="10.00">demo/include/subsystems.h</text>
</a>
</g>
</g>
<!-- Node2&#45;&gt;Node5 -->
<g id="edge4_Node000002_Node000005" class="edge">
<title>Node2&#45;&gt;Node5</title>
<g id="a_edge4_Node000002_Node000005"><a xlink:title=" ">
<path fill="none" stroke="#63b8ff" d="M448.02,-120.28C439.29,-107.19 429.09,-91.88 422.71,-82.31"/>
<polygon fill="#63b8ff" stroke="#63b8ff" points="445.02,-122.09 453.48,-128.47 450.85,-118.21 445.02,-122.09"/>
</a>
</g>
</g>
<!-- Node6 -->
<g id="Node000006" class="node">
<title>Node6</title>
<g id="a_Node000006"><a xlink:href="subsystems_8cpp.html" target="_top" xlink:title=" ">
<polygon fill="white" stroke="#666666" points="530.25,-20 398.75,-20 398.75,0 530.25,0 530.25,-20"/>
<text text-anchor="middle" x="464.5" y="-6.5" font-family="Helvetica,sans-Serif" font-size="10.00">demo/src/subsystems.cpp</text>
</a>
</g>
</g>
<!-- Node2&#45;&gt;Node6 -->
<g id="edge7_Node000002_Node000006" class="edge">
<title>Node2&#45;&gt;Node6</title>
<g id="a_edge7_Node000002_Node000006"><a xlink:title=" ">
<path fill="none" stroke="#63b8ff" d="M481.56,-120.05C491.58,-102.28 501.1,-77.79 494.5,-56 490.37,-42.34 480.56,-29.04 473.28,-20.48"/>
<polygon fill="#63b8ff" stroke="#63b8ff" points="478.71,-118 476.5,-128.36 484.69,-121.64 478.71,-118"/>
</a>
</g>
</g>
<!-- Node7 -->
<g id="Node000007" class="node">
<title>Node7</title>
<g id="a_Node000007"><a xlink:href="hybrid__renderer_8cpp.html" target="_top" xlink:title=" ">
<polygon fill="white" stroke="#666666" points="663,-88 542,-88 542,-56 663,-56 663,-88"/>
<text text-anchor="start" x="550" y="-74.5" font-family="Helvetica,sans-Serif" font-size="10.00">hybrid&#45;renderer&#45;lib</text>
<text text-anchor="middle" x="602.5" y="-62.5" font-family="Helvetica,sans-Serif" font-size="10.00">/src/hybrid_renderer.cpp</text>
</a>
</g>
</g>
<!-- Node2&#45;&gt;Node7 -->
<g id="edge8_Node000002_Node000007" class="edge">
<title>Node2&#45;&gt;Node7</title>
<g id="a_edge8_Node000002_Node000007"><a xlink:title=" ">
<path fill="none" stroke="#63b8ff" d="M504.11,-124.33C526.05,-112.89 552.86,-98.9 572.95,-88.42"/>
<polygon fill="#63b8ff" stroke="#63b8ff" points="502.69,-121.13 495.45,-128.85 505.93,-127.33 502.69,-121.13"/>
</a>
</g>
</g>
<!-- Node4 -->
<g id="Node000004" class="node">
<title>Node4</title>
<g id="a_Node000004"><a xlink:href="main_8cpp.html" target="_top" xlink:title=" ">
<polygon fill="white" stroke="#666666" points="377.13,-20 277.88,-20 277.88,0 377.13,0 377.13,-20"/>
<text text-anchor="middle" x="327.5" y="-6.5" font-family="Helvetica,sans-Serif" font-size="10.00">demo/src/main.cpp</text>
</a>
</g>
</g>
<!-- Node3&#45;&gt;Node4 -->
<g id="edge3_Node000003_Node000004" class="edge">
<title>Node3&#45;&gt;Node4</title>
<g id="a_edge3_Node000003_Node000004"><a xlink:title=" ">
<path fill="none" stroke="#63b8ff" d="M290.18,-53.25C299.8,-42.36 311.71,-28.88 319.45,-20.11"/>
<polygon fill="#63b8ff" stroke="#63b8ff" points="287.78,-50.68 283.78,-60.49 293.03,-55.31 287.78,-50.68"/>
</a>
</g>
</g>
<!-- Node5&#45;&gt;Node4 -->
<g id="edge5_Node000005_Node000004" class="edge">
<title>Node5&#45;&gt;Node4</title>
<g id="a_edge5_Node000005_Node000004"><a xlink:title=" ">
<path fill="none" stroke="#63b8ff" d="M393.1,-55.22C376.62,-44.11 355.12,-29.62 341.31,-20.31"/>
<polygon fill="#63b8ff" stroke="#63b8ff" points="391.09,-58.09 401.34,-60.78 395,-52.29 391.09,-58.09"/>
</a>
</g>
</g>
<!-- Node5&#45;&gt;Node6 -->
<g id="edge6_Node000005_Node000006" class="edge">
<title>Node5&#45;&gt;Node6</title>
<g id="a_edge6_Node000005_Node000006"><a xlink:title=" ">
<path fill="none" stroke="#63b8ff" d="M430.96,-52.92C439.63,-42.1 450.27,-28.79 457.21,-20.11"/>
<polygon fill="#63b8ff" stroke="#63b8ff" points="428.46,-50.45 424.95,-60.44 433.93,-54.82 428.46,-50.45"/>
</a>
</g>
</g>
<!-- Node8&#45;&gt;Node2 -->
<g id="edge10_Node000008_Node000002" class="edge">
<title>Node8&#45;&gt;Node2</title>
<g id="a_edge10_Node000008_Node000002"><a xlink:title=" ">
<path fill="none" stroke="#63b8ff" d="M148.19,-352.11C150.16,-330.81 155.73,-303.51 170.5,-284 226.51,-210.04 332.19,-174.54 400.42,-158.62"/>
<polygon fill="#63b8ff" stroke="#63b8ff" points="144.7,-351.82 147.52,-362.03 151.68,-352.29 144.7,-351.82"/>
</a>
</g>
</g>
<!-- Node8&#45;&gt;Node9 -->
<g id="edge11_Node000008_Node000009" class="edge">
<title>Node8&#45;&gt;Node9</title>
<g id="a_edge11_Node000008_Node000009"><a xlink:title=" ">
<path fill="none" stroke="#63b8ff" d="M118.12,-355.62C109.04,-346.53 99.21,-336.71 90.79,-328.29"/>
<polygon fill="#63b8ff" stroke="#63b8ff" points="115.57,-358.02 125.12,-362.62 120.52,-353.07 115.57,-358.02"/>
</a>
</g>
</g>
<!-- Node10&#45;&gt;Node2 -->
<g id="edge13_Node000010_Node000002" class="edge">
<title>Node10&#45;&gt;Node2</title>
<g id="a_edge13_Node000010_Node000002"><a xlink:title=" ">
<path fill="none" stroke="#63b8ff" d="M614.14,-352.67C606.54,-329.93 593.01,-300.67 570.5,-284 498.63,-230.76 429.81,-316.67 372.5,-248 359.97,-232.99 362.99,-221.09 372.5,-204 383.1,-184.96 402.99,-171.47 421.56,-162.41"/>
<polygon fill="#63b8ff" stroke="#63b8ff" points="610.76,-353.58 617.05,-362.11 617.45,-351.52 610.76,-353.58"/>
</a>
</g>
</g>
<!-- Node10&#45;&gt;Node11 -->
<g id="edge14_Node000010_Node000011" class="edge">
<title>Node10&#45;&gt;Node11</title>
<g id="a_edge14_Node000010_Node000011"><a xlink:title=" ">
<path fill="none" stroke="#63b8ff" d="M699.06,-362.72C717.81,-354.3 736.49,-343 750.5,-328 771.28,-305.76 780.6,-270.89 784.63,-248.5"/>
<polygon fill="#63b8ff" stroke="#63b8ff" points="697.91,-359.4 690.06,-366.51 700.63,-365.85 697.91,-359.4"/>
</a>
</g>
</g>
<!-- Node10&#45;&gt;Node13 -->
<g id="edge17_Node000010_Node000013" class="edge">
<title>Node10&#45;&gt;Node13</title>
<g id="a_edge17_Node000010_Node000013"><a xlink:title=" ">
<path fill="none" stroke="#63b8ff" d="M699.62,-363.13C742.26,-351.03 794.57,-336.2 834.69,-324.82"/>
<polygon fill="#63b8ff" stroke="#63b8ff" points="698.84,-359.71 690.18,-365.8 700.75,-366.44 698.84,-359.71"/>
</a>
</g>
</g>
<!-- Node10&#45;&gt;Node17 -->
<g id="edge26_Node000010_Node000017" class="edge">
<title>Node10&#45;&gt;Node17</title>
<g id="a_edge26_Node000010_Node000017"><a xlink:title=" ">
<path fill="none" stroke="#63b8ff" d="M576.97,-358.1C560.48,-348.35 542.09,-337.49 526.53,-328.29"/>
<polygon fill="#63b8ff" stroke="#63b8ff" points="574.74,-360.84 585.13,-362.92 578.3,-354.82 574.74,-360.84"/>
</a>
</g>
</g>
<!-- Node11&#45;&gt;Node2 -->
<g id="edge15_Node000011_Node000002" class="edge">
<title>Node11&#45;&gt;Node2</title>
<g id="a_edge15_Node000011_Node000002"><a xlink:title=" ">
<path fill="none" stroke="#63b8ff" d="M713.95,-207.24C658.09,-193.75 582.04,-175.38 528.64,-162.49"/>
<polygon fill="#63b8ff" stroke="#63b8ff" points="712.83,-210.57 723.37,-209.51 714.47,-203.76 712.83,-210.57"/>
</a>
</g>
</g>
<!-- Node11&#45;&gt;Node12 -->
<g id="edge16_Node000011_Node000012" class="edge">
<title>Node11&#45;&gt;Node12</title>
<g id="a_edge16_Node000011_Node000012"><a xlink:title=" ">
<path fill="none" stroke="#63b8ff" d="M818.47,-195.89C828.22,-186.74 838.79,-176.8 847.85,-168.29"/>
<polygon fill="#63b8ff" stroke="#63b8ff" points="816.17,-193.25 811.28,-202.65 820.97,-198.35 816.17,-193.25"/>
</a>
</g>
</g>
<!-- Node13&#45;&gt;Node2 -->
<g id="edge18_Node000013_Node000002" class="edge">
<title>Node13&#45;&gt;Node2</title>
<g id="a_edge18_Node000013_Node000002"><a xlink:title=" ">
<path fill="none" stroke="#63b8ff" d="M893.58,-272.3C889.05,-249.56 879.34,-220.49 858.5,-204 812.42,-167.53 654.64,-176.62 596.5,-168 574.35,-164.72 550.14,-160.92 528.58,-157.47"/>
<polygon fill="#63b8ff" stroke="#63b8ff" points="890.11,-272.75 895.25,-282.02 897,-271.57 890.11,-272.75"/>
</a>
</g>
</g>
<!-- Node13&#45;&gt;Node11 -->
<g id="edge22_Node000013_Node000011" class="edge">
<title>Node13&#45;&gt;Node11</title>
<g id="a_edge22_Node000013_Node000011"><a xlink:title=" ">
<path fill="none" stroke="#63b8ff" d="M858.4,-277.28C844.96,-267.74 830.13,-257.23 817.52,-248.29"/>
<polygon fill="#63b8ff" stroke="#63b8ff" points="856.03,-279.88 866.21,-282.81 860.08,-274.17 856.03,-279.88"/>
</a>
</g>
</g>
<!-- Node13&#45;&gt;Node12 -->
<g id="edge24_Node000013_Node000012" class="edge">
<title>Node13&#45;&gt;Node12</title>
<g id="a_edge24_Node000013_Node000012"><a xlink:title=" ">
<path fill="none" stroke="#63b8ff" d="M918.65,-274.03C929.75,-253.76 939.21,-226.89 929.5,-204 923.6,-190.1 912.47,-177.94 901.46,-168.46"/>
<polygon fill="#63b8ff" stroke="#63b8ff" points="915.79,-271.99 913.74,-282.39 921.82,-275.54 915.79,-271.99"/>
</a>
</g>
</g>
<!-- Node14 -->
<g id="Node000014" class="node">
<title>Node14</title>
<g id="a_Node000014"><a xlink:href="render__pass_8h.html" target="_top" xlink:title=" ">
<polygon fill="white" stroke="#666666" points="669.88,-248 545.13,-248 545.13,-204 669.88,-204 669.88,-248"/>
<text text-anchor="start" x="553.13" y="-234.5" font-family="Helvetica,sans-Serif" font-size="10.00">hybrid&#45;renderer&#45;lib</text>
<text text-anchor="start" x="553.13" y="-222.5" font-family="Helvetica,sans-Serif" font-size="10.00">/include/renderer_internal</text>
<text text-anchor="middle" x="607.5" y="-210.5" font-family="Helvetica,sans-Serif" font-size="10.00">/render_pass.h</text>
</a>
</g>
</g>
<!-- Node13&#45;&gt;Node14 -->
<g id="edge19_Node000013_Node000014" class="edge">
<title>Node13&#45;&gt;Node14</title>
<g id="a_edge19_Node000013_Node000014"><a xlink:title=" ">
<path fill="none" stroke="#63b8ff" d="M824.08,-285.25C776.5,-272.45 715.19,-255.97 669.96,-243.8"/>
<polygon fill="#63b8ff" stroke="#63b8ff" points="822.91,-288.56 833.47,-287.78 824.72,-281.8 822.91,-288.56"/>
</a>
</g>
</g>
<!-- Node15 -->
<g id="Node000015" class="node">
<title>Node15</title>
<g id="a_Node000015"><a xlink:href="render__pass_8cpp.html" target="_top" xlink:title=" ">
<polygon fill="white" stroke="#666666" points="713.25,-168 605.75,-168 605.75,-124 713.25,-124 713.25,-168"/>
<text text-anchor="start" x="613.75" y="-154.5" font-family="Helvetica,sans-Serif" font-size="10.00">hybrid&#45;renderer&#45;lib</text>
<text text-anchor="start" x="613.75" y="-142.5" font-family="Helvetica,sans-Serif" font-size="10.00">/src/renderer_internal</text>
<text text-anchor="middle" x="659.5" y="-130.5" font-family="Helvetica,sans-Serif" font-size="10.00">/render_pass.cpp</text>
</a>
</g>
</g>
<!-- Node13&#45;&gt;Node15 -->
<g id="edge23_Node000013_Node000015" class="edge">
<title>Node13&#45;&gt;Node15</title>
<g id="a_edge23_Node000013_Node000015"><a xlink:title=" ">
<path fill="none" stroke="#63b8ff" d="M904.72,-272.45C907.55,-250.67 907.06,-222.67 891.5,-204 869.04,-177.03 774.87,-160.81 713.63,-152.91"/>
<polygon fill="#63b8ff" stroke="#63b8ff" points="901.26,-271.89 903.12,-282.32 908.17,-273.01 901.26,-271.89"/>
</a>
</g>
</g>
<!-- Node13&#45;&gt;Node16 -->
<g id="edge25_Node000013_Node000016" class="edge">
<title>Node13&#45;&gt;Node16</title>
<g id="a_edge25_Node000013_Node000016"><a xlink:title=" ">
<path fill="none" stroke="#63b8ff" d="M945.79,-278.1C963.28,-268.35 982.78,-257.49 999.29,-248.29"/>
<polygon fill="#63b8ff" stroke="#63b8ff" points="944.11,-275.02 937.08,-282.95 947.52,-281.14 944.11,-275.02"/>
</a>
</g>
</g>
<!-- Node14&#45;&gt;Node2 -->
<g id="edge20_Node000014_Node000002" class="edge">
<title>Node14&#45;&gt;Node2</title>
<g id="a_edge20_Node000014_Node000002"><a xlink:title=" ">
<path fill="none" stroke="#63b8ff" d="M558.58,-198.31C536.58,-186.32 511.41,-172.59 492.65,-162.35"/>
<polygon fill="#63b8ff" stroke="#63b8ff" points="556.64,-201.25 567.1,-202.96 559.99,-195.1 556.64,-201.25"/>
</a>
</g>
</g>
<!-- Node14&#45;&gt;Node15 -->
<g id="edge21_Node000014_Node000015" class="edge">
<title>Node14&#45;&gt;Node15</title>
<g id="a_edge21_Node000014_Node000015"><a xlink:title=" ">
<path fill="none" stroke="#63b8ff" d="M628.02,-194.22C633.81,-185.54 639.98,-176.28 645.31,-168.29"/>
<polygon fill="#63b8ff" stroke="#63b8ff" points="625.18,-192.16 622.55,-202.43 631.01,-196.05 625.18,-192.16"/>
</a>
</g>
</g>
<!-- Node18&#45;&gt;Node2 -->
<g id="edge28_Node000018_Node000002" class="edge">
<title>Node18&#45;&gt;Node2</title>
<g id="a_edge28_Node000018_Node000002"><a xlink:title=" ">
<path fill="none" stroke="#63b8ff" d="M320.39,-352.61C313.78,-313.7 309,-248.14 339.5,-204 353.74,-183.4 377.32,-170.1 400.19,-161.59"/>
<polygon fill="#63b8ff" stroke="#63b8ff" points="316.93,-353.1 322.19,-362.29 323.81,-351.82 316.93,-353.1"/>
</a>
</g>
</g>
<!-- Node18&#45;&gt;Node14 -->
<g id="edge29_Node000018_Node000014" class="edge">
<title>Node18&#45;&gt;Node14</title>
<g id="a_edge29_Node000018_Node000014"><a xlink:title=" ">
<path fill="none" stroke="#63b8ff" d="M345.67,-354.11C360.44,-331.57 383.26,-301.94 410.5,-284 432.66,-269.41 495.76,-252.5 544.63,-240.9"/>
<polygon fill="#63b8ff" stroke="#63b8ff" points="342.87,-352 340.46,-362.32 348.78,-355.75 342.87,-352"/>
</a>
</g>
</g>
<!-- Node18&#45;&gt;Node19 -->
<g id="edge30_Node000018_Node000019" class="edge">
<title>Node18&#45;&gt;Node19</title>
<g id="a_edge30_Node000018_Node000019"><a xlink:title=" ">
<path fill="none" stroke="#63b8ff" d="M293.09,-356.45C281.87,-347.14 269.62,-336.97 259.16,-328.29"/>
<polygon fill="#63b8ff" stroke="#63b8ff" points="290.72,-359.03 300.65,-362.72 295.19,-353.64 290.72,-359.03"/>
</a>
</g>
</g>
<!-- Node20&#45;&gt;Node2 -->
<g id="edge32_Node000020_Node000002" class="edge">
<title>Node20&#45;&gt;Node2</title>
<g id="a_edge32_Node000020_Node000002"><a xlink:title=" ">
<path fill="none" stroke="#63b8ff" d="M605.91,-284.79C582.2,-275.99 556.83,-263.95 536.5,-248 520.66,-235.57 489.54,-187.41 473.92,-162.35"/>
<polygon fill="#63b8ff" stroke="#63b8ff" points="604.64,-288.05 615.23,-288.1 606.98,-281.45 604.64,-288.05"/>
</a>
</g>
</g>
<!-- Node20&#45;&gt;Node11 -->
<g id="edge34_Node000020_Node000011" class="edge">
<title>Node20&#45;&gt;Node11</title>
<g id="a_edge34_Node000020_Node000011"><a xlink:title=" ">
<path fill="none" stroke="#63b8ff" d="M718.27,-277C731.37,-267.54 745.77,-257.14 758.03,-248.29"/>
<polygon fill="#63b8ff" stroke="#63b8ff" points="716.3,-274.11 710.24,-282.8 720.4,-279.78 716.3,-274.11"/>
</a>
</g>
</g>
<!-- Node20&#45;&gt;Node12 -->
<g id="edge36_Node000020_Node000012" class="edge">
<title>Node20&#45;&gt;Node12</title>
<g id="a_edge36_Node000020_Node000012"><a xlink:title=" ">
<path fill="none" stroke="#63b8ff" d="M684.14,-272.52C688.84,-250.59 698.18,-222.39 716.5,-204 743.27,-177.14 783.79,-162.81 816.55,-155.23"/>
<polygon fill="#63b8ff" stroke="#63b8ff" points="680.74,-271.68 682.31,-282.16 687.61,-272.99 680.74,-271.68"/>
</a>
</g>
</g>
<!-- Node20&#45;&gt;Node14 -->
<g id="edge33_Node000020_Node000014" class="edge">
<title>Node20&#45;&gt;Node14</title>
<g id="a_edge33_Node000020_Node000014"><a xlink:title=" ">
<path fill="none" stroke="#63b8ff" d="M652.12,-275.34C643.81,-266.33 634.85,-256.63 627.15,-248.29"/>
<polygon fill="#63b8ff" stroke="#63b8ff" points="649.45,-277.6 658.8,-282.57 654.59,-272.85 649.45,-277.6"/>
</a>
</g>
</g>
<!-- Node20&#45;&gt;Node21 -->
<g id="edge35_Node000020_Node000021" class="edge">
<title>Node20&#45;&gt;Node21</title>
<g id="a_edge35_Node000020_Node000021"><a xlink:title=" ">
<path fill="none" stroke="#63b8ff" d="M605.8,-281.44C568.34,-269.47 523.64,-255.17 489.43,-244.24"/>
<polygon fill="#63b8ff" stroke="#63b8ff" points="604.63,-284.74 615.22,-284.45 606.76,-278.07 604.63,-284.74"/>
</a>
</g>
</g>
</g>
</svg>
