<?xml version="1.0" encoding="UTF-8" standalone="no"?>
<!DOCTYPE svg PUBLIC "-//W3C//DTD SVG 1.1//EN"
 "http://www.w3.org/Graphics/SVG/1.1/DTD/svg11.dtd">
<!-- Generated by graphviz version 10.0.1 (20240210.2158)
 -->
<!-- Title: hybrid&#45;renderer&#45;lib/include/renderer_internal/render_system.h Pages: 1 -->
<!--zoomable 312 -->

<svg id="main" version="1.1" xmlns="http://www.w3.org/2000/svg" xmlns:xlink="http://www.w3.org/1999/xlink" xml:space="preserve" onload="init(evt)">
<style type="text/css"><![CDATA[
.node, .edge {opacity: 0.7;}
.node.selected, .edge.selected {opacity: 1;}
.edge:hover path { stroke: red; }
.edge:hover polygon { stroke: red; fill: red; }
]]></style>

<defs>
  <circle id="rim" cx="0" cy="0" r="7"/>
  <circle id="rim2" cx="0" cy="0" r="3.5"/>
  <g id="zoomPlus">
    <use xlink:href="#rim" fill="#404040"><set attributeName="fill" to="#808080" begin="zoomplus.mouseover" end="zoomplus.mouseout"/></use>
    <path d="M-4,0h8M0,-4v8" fill="none" stroke="white" stroke-width="1.5" pointer-events="none"/>
  </g>
  <g id="zoomMin">
    <use xlink:href="#rim" fill="#404040"><set attributeName="fill" to="#808080" begin="zoomminus.mouseover" end="zoomminus.mouseout"/></use>
    <path d="M-4,0h8" fill="none" stroke="white" stroke-width="1.5" pointer-events="none"/>
  </g>
  <g id="arrowUp" transform="translate(30 24)">
    <use xlink:href="#rim"/>
    <path pointer-events="none" fill="none" stroke="white" stroke-width="1.5" d="M0,-3.0v7 M-2.5,-0.5L0,-3.0L2.5,-0.5"/>
  </g>
  <g id="arrowRight" transform="rotate(90) translate(36 -43)">
    <use xlink:href="#rim"/>
    <path pointer-events="none" fill="none" stroke="white" stroke-width="1.5" d="M0,-3.0v7 M-2.5,-0.5L0,-3.0L2.5,-0.5"/>
  </g>
  <g id="arrowDown" transform="rotate(180) translate(-30 -48)">
    <use xlink:href="#rim"/>
    <path pointer-events="none" fill="none" stroke="white" stroke-width="1.5" d="M0,-3.0v7 M-2.5,-0.5L0,-3.0L2.5,-0.5"/>
  </g>
  <g id="arrowLeft" transform="rotate(270) translate(-36 17)">
    <use xlink:href="#rim"/>
    <path pointer-events="none" fill="none" stroke="white" stroke-width="1.5" d="M0,-3.0v7 M-2.5,-0.5L0,-3.0L2.5,-0.5"/>
  </g>
  <g id="resetDef">
    <use xlink:href="#rim2" fill="#404040"><set attributeName="fill" to="#808080" begin="reset.mouseover" end="reset.mouseout"/></use>
  </g>
</defs>
<script type="application/ecmascript">
var viewWidth = 627;
var viewHeight = 312;
var sectionId = 'dynsection-0';
</script>
<script type="application/ecmascript" xlink:href="svg.min.js"/>
<svg id="graph" class="graph">
<g id="viewport">
<title>hybrid&#45;renderer&#45;lib/include/renderer_internal/render_system.h</title>
<!-- Node1 -->
<g id="Node000001" class="node">
<title>Node1</title>
<g id="a_Node000001"><a xlink:title=" ">
<polygon fill="#999999" stroke="#666666" points="205.91,-304 81.16,-304 81.16,-260 205.91,-260 205.91,-304"/>
<text text-anchor="start" x="89.16" y="-290.5" font-family="Helvetica,sans-Serif" font-size="10.00">hybrid&#45;renderer&#45;lib</text>
<text text-anchor="start" x="89.16" y="-278.5" font-family="Helvetica,sans-Serif" font-size="10.00">/include/renderer_internal</text>
<text text-anchor="middle" x="143.54" y="-266.5" font-family="Helvetica,sans-Serif" font-size="10.00">/render_system.h</text>
</a>
</g>
</g>
<!-- Node2 -->
<g id="Node000002" class="node">
<title>Node2</title>
<g id="a_Node000002"><a xlink:title=" ">
<polygon fill="#e0e0e0" stroke="#999999" points="64.54,-150 24.54,-150 24.54,-130 64.54,-130 64.54,-150"/>
<text text-anchor="middle" x="44.54" y="-136.5" font-family="Helvetica,sans-Serif" font-size="10.00">string</text>
</a>
</g>
</g>
<!-- Node1&#45;&gt;Node2 -->
<g id="edge1_Node000001_Node000002" class="edge">
<title>Node1&#45;&gt;Node2</title>
<g id="a_edge1_Node000001_Node000002"><a xlink:title=" ">
<path fill="none" stroke="#63b8ff" d="M128.5,-259.74C109.21,-232.46 76.05,-185.57 57.71,-159.62"/>
<polygon fill="#63b8ff" stroke="#63b8ff" points="60.76,-157.88 52.13,-151.73 55.04,-161.92 60.76,-157.88"/>
</a>
</g>
</g>
<!-- Node3 -->
<g id="Node000003" class="node">
<title>Node3</title>
<g id="a_Node000003"><a xlink:title=" ">
<polygon fill="#e0e0e0" stroke="#999999" points="109.91,-82 75.16,-82 75.16,-62 109.91,-62 109.91,-82"/>
<text text-anchor="middle" x="92.54" y="-68.5" font-family="Helvetica,sans-Serif" font-size="10.00">map</text>
</a>
</g>
</g>
<!-- Node1&#45;&gt;Node3 -->
<g id="edge2_Node000001_Node000003" class="edge">
<title>Node1&#45;&gt;Node3</title>
<g id="a_edge2_Node000001_Node000003"><a xlink:title=" ">
<path fill="none" stroke="#63b8ff" d="M108.6,-259.54C77.17,-237.9 33.28,-201.26 15.54,-156 10.35,-142.76 8.81,-136.53 15.54,-124 25.84,-104.82 46.89,-91.63 64.37,-83.48"/>
<polygon fill="#63b8ff" stroke="#63b8ff" points="65.48,-86.82 73.28,-79.65 62.71,-80.39 65.48,-86.82"/>
</a>
</g>
</g>
<!-- Node4 -->
<g id="Node000004" class="node">
<title>Node4</title>
<g id="a_Node000004"><a xlink:title=" ">
<polygon fill="#e0e0e0" stroke="#999999" points="199.16,-20 117.91,-20 117.91,0 199.16,0 199.16,-20"/>
<text text-anchor="middle" x="158.54" y="-6.5" font-family="Helvetica,sans-Serif" font-size="10.00">vulkan/vulkan.h</text>
</a>
</g>
</g>
<!-- Node1&#45;&gt;Node4 -->
<g id="edge3_Node000001_Node000004" class="edge">
<title>Node1&#45;&gt;Node4</title>
<g id="a_edge3_Node000001_Node000004"><a xlink:title=" ">
<path fill="none" stroke="#63b8ff" d="M84.55,-259.6C66.63,-250.81 48.12,-239.07 34.54,-224 3.72,-189.8 -8.56,-167.13 7.54,-124 26.33,-73.67 83.06,-41.44 121.38,-24.78"/>
<polygon fill="#63b8ff" stroke="#63b8ff" points="122.38,-28.16 130.26,-21.07 119.68,-21.7 122.38,-28.16"/>
</a>
</g>
</g>
<!-- Node5 -->
<g id="Node000005" class="node">
<title>Node5</title>
<g id="a_Node000005"><a xlink:href="descriptor__management_8h.html" target="_top" xlink:title=" ">
<polygon fill="white" stroke="#666666" points="254.41,-156 120.66,-156 120.66,-124 254.41,-124 254.41,-156"/>
<text text-anchor="start" x="128.66" y="-142.5" font-family="Helvetica,sans-Serif" font-size="10.00">renderer_internal/descriptor</text>
<text text-anchor="middle" x="187.54" y="-130.5" font-family="Helvetica,sans-Serif" font-size="10.00">_management.h</text>
</a>
</g>
</g>
<!-- Node1&#45;&gt;Node5 -->
<g id="edge4_Node000001_Node000005" class="edge">
<title>Node1&#45;&gt;Node5</title>
<g id="a_edge4_Node000001_Node000005"><a xlink:title=" ">
<path fill="none" stroke="#63b8ff" d="M146.57,-259.74C149.53,-241.46 154.74,-214.55 162.54,-192 165.51,-183.41 169.58,-174.4 173.57,-166.39"/>
<polygon fill="#63b8ff" stroke="#63b8ff" points="176.66,-168.03 178.16,-157.54 170.45,-164.81 176.66,-168.03"/>
</a>
</g>
</g>
<!-- Node6 -->
<g id="Node000006" class="node">
<title>Node6</title>
<g id="a_Node000006"><a xlink:href="render__context_8h.html" target="_top" xlink:title=" ">
<polygon fill="white" stroke="#666666" points="437.54,-88 319.54,-88 319.54,-56 437.54,-56 437.54,-88"/>
<text text-anchor="start" x="327.54" y="-74.5" font-family="Helvetica,sans-Serif" font-size="10.00">renderer_internal/render</text>
<text text-anchor="middle" x="378.54" y="-62.5" font-family="Helvetica,sans-Serif" font-size="10.00">_context.h</text>
</a>
</g>
</g>
<!-- Node1&#45;&gt;Node6 -->
<g id="edge14_Node000001_Node000006" class="edge">
<title>Node1&#45;&gt;Node6</title>
<g id="a_edge14_Node000001_Node000006"><a xlink:title=" ">
<path fill="none" stroke="#63b8ff" d="M206.35,-271.56C269.33,-258.22 362.16,-227.01 399.54,-156 409.06,-137.92 402.3,-115.32 394,-98.27"/>
<polygon fill="#63b8ff" stroke="#63b8ff" points="397.27,-96.98 389.47,-89.8 391.1,-100.27 397.27,-96.98"/>
</a>
</g>
</g>
<!-- Node12 -->
<g id="Node000012" class="node">
<title>Node12</title>
<g id="a_Node000012"><a xlink:href="render__core_8h.html" target="_top" xlink:title=" ">
<polygon fill="white" stroke="#666666" points="564.54,-156 446.54,-156 446.54,-124 564.54,-124 564.54,-156"/>
<text text-anchor="start" x="454.54" y="-142.5" font-family="Helvetica,sans-Serif" font-size="10.00">renderer_internal/render</text>
<text text-anchor="middle" x="505.54" y="-130.5" font-family="Helvetica,sans-Serif" font-size="10.00">_core.h</text>
</a>
</g>
</g>
<!-- Node1&#45;&gt;Node12 -->
<g id="edge15_Node000001_Node000012" class="edge">
<title>Node1&#45;&gt;Node12</title>
<g id="a_edge15_Node000001_Node000012"><a xlink:title=" ">
<path fill="none" stroke="#63b8ff" d="M206.21,-280.12C267.64,-276.72 362.06,-264.55 432.54,-224 456.93,-209.97 477.33,-184.78 490.31,-165.81"/>
<polygon fill="#63b8ff" stroke="#63b8ff" points="493.17,-167.84 495.74,-157.56 487.32,-163.99 493.17,-167.84"/>
</a>
</g>
</g>
<!-- Node13 -->
<g id="Node000013" class="node">
<title>Node13</title>
<g id="a_Node000013"><a xlink:href="shader__database_8h.html" target="_top" xlink:title=" ">
<polygon fill="white" stroke="#666666" points="291.66,-224 171.41,-224 171.41,-192 291.66,-192 291.66,-224"/>
<text text-anchor="start" x="179.41" y="-210.5" font-family="Helvetica,sans-Serif" font-size="10.00">renderer_internal/shader</text>
<text text-anchor="middle" x="231.54" y="-198.5" font-family="Helvetica,sans-Serif" font-size="10.00">_database.h</text>
</a>
</g>
</g>
<!-- Node1&#45;&gt;Node13 -->
<g id="edge20_Node000001_Node000013" class="edge">
<title>Node1&#45;&gt;Node13</title>
<g id="a_edge20_Node000001_Node000013"><a xlink:title=" ">
<path fill="none" stroke="#63b8ff" d="M169.47,-259.79C180.32,-250.91 192.95,-240.58 203.97,-231.56"/>
<polygon fill="#63b8ff" stroke="#63b8ff" points="206.08,-234.35 211.6,-225.31 201.65,-228.93 206.08,-234.35"/>
</a>
</g>
</g>
<!-- Node5&#45;&gt;Node3 -->
<g id="edge5_Node000005_Node000003" class="edge">
<title>Node5&#45;&gt;Node3</title>
<g id="a_edge5_Node000005_Node000003"><a xlink:title=" ">
<path fill="none" stroke="#63b8ff" d="M165.51,-123.69C150.4,-113.2 130.41,-99.31 115.18,-88.73"/>
<polygon fill="#63b8ff" stroke="#63b8ff" points="117.4,-86.01 107.19,-83.18 113.41,-91.76 117.4,-86.01"/>
</a>
</g>
</g>
<!-- Node5&#45;&gt;Node4 -->
<g id="edge6_Node000005_Node000004" class="edge">
<title>Node5&#45;&gt;Node4</title>
<g id="a_edge6_Node000005_Node000004"><a xlink:title=" ">
<path fill="none" stroke="#63b8ff" d="M184.04,-123.56C178.81,-100.47 168.95,-56.94 163.14,-31.31"/>
<polygon fill="#63b8ff" stroke="#63b8ff" points="166.61,-30.78 160.99,-21.8 159.78,-32.33 166.61,-30.78"/>
</a>
</g>
</g>
<!-- Node5&#45;&gt;Node6 -->
<g id="edge7_Node000005_Node000006" class="edge">
<title>Node5&#45;&gt;Node6</title>
<g id="a_edge7_Node000005_Node000006"><a xlink:title=" ">
<path fill="none" stroke="#63b8ff" d="M232.32,-123.53C259.4,-114.17 294.15,-102.16 322.98,-92.2"/>
<polygon fill="#63b8ff" stroke="#63b8ff" points="323.97,-95.56 332.28,-88.99 321.68,-88.94 323.97,-95.56"/>
</a>
</g>
</g>
<!-- Node6&#45;&gt;Node4 -->
<g id="edge13_Node000006_Node000004" class="edge">
<title>Node6&#45;&gt;Node4</title>
<g id="a_edge13_Node000006_Node000004"><a xlink:title=" ">
<path fill="none" stroke="#63b8ff" d="M321.88,-55.55C285.4,-45.6 238.57,-32.83 204.42,-23.51"/>
<polygon fill="#63b8ff" stroke="#63b8ff" points="205.39,-20.15 194.82,-20.89 203.55,-26.9 205.39,-20.15"/>
</a>
</g>
</g>
<!-- Node7 -->
<g id="Node000007" class="node">
<title>Node7</title>
<g id="a_Node000007"><a xlink:href="config_8h.html" target="_top" xlink:title=" ">
<polygon fill="white" stroke="#666666" points="619.41,-20 569.66,-20 569.66,0 619.41,0 619.41,-20"/>
<text text-anchor="middle" x="594.54" y="-6.5" font-family="Helvetica,sans-Serif" font-size="10.00">config.h</text>
</a>
</g>
</g>
<!-- Node6&#45;&gt;Node7 -->
<g id="edge8_Node000006_Node000007" class="edge">
<title>Node6&#45;&gt;Node7</title>
<g id="a_edge8_Node000006_Node000007"><a xlink:title=" ">
<path fill="none" stroke="#63b8ff" d="M434.16,-55.55C473.36,-44.66 524.7,-30.4 558.6,-20.98"/>
<polygon fill="#63b8ff" stroke="#63b8ff" points="559.23,-24.44 567.93,-18.39 557.36,-17.7 559.23,-24.44"/>
</a>
</g>
</g>
<!-- Node8 -->
<g id="Node000008" class="node">
<title>Node8</title>
<g id="a_Node000008"><a xlink:href="platform_8h.html" target="_top" xlink:title=" ">
<polygon fill="white" stroke="#666666" points="475.91,-20 417.16,-20 417.16,0 475.91,0 475.91,-20"/>
<text text-anchor="middle" x="446.54" y="-6.5" font-family="Helvetica,sans-Serif" font-size="10.00">platform.h</text>
</a>
</g>
</g>
<!-- Node6&#45;&gt;Node8 -->
<g id="edge9_Node000006_Node000008" class="edge">
<title>Node6&#45;&gt;Node8</title>
<g id="a_edge9_Node000006_Node000008"><a xlink:title=" ">
<path fill="none" stroke="#63b8ff" d="M396.05,-55.55C405.69,-47.04 417.67,-36.48 427.53,-27.77"/>
<polygon fill="#63b8ff" stroke="#63b8ff" points="429.56,-30.65 434.74,-21.41 424.93,-25.4 429.56,-30.65"/>
</a>
</g>
</g>
<!-- Node9 -->
<g id="Node000009" class="node">
<title>Node9</title>
<g id="a_Node000009"><a xlink:title=" ">
<polygon fill="#e0e0e0" stroke="#999999" points="551.16,-20 493.91,-20 493.91,0 551.16,0 551.16,-20"/>
<text text-anchor="middle" x="522.54" y="-6.5" font-family="Helvetica,sans-Serif" font-size="10.00">functional</text>
</a>
</g>
</g>
<!-- Node6&#45;&gt;Node9 -->
<g id="edge10_Node000006_Node000009" class="edge">
<title>Node6&#45;&gt;Node9</title>
<g id="a_edge10_Node000006_Node000009"><a xlink:title=" ">
<path fill="none" stroke="#63b8ff" d="M415.62,-55.55C438.44,-46.04 467.42,-33.97 489.45,-24.79"/>
<polygon fill="#63b8ff" stroke="#63b8ff" points="490.68,-28.07 498.56,-20.99 487.99,-21.61 490.68,-28.07"/>
</a>
</g>
</g>
<!-- Node10 -->
<g id="Node000010" class="node">
<title>Node10</title>
<g id="a_Node000010"><a xlink:title=" ">
<polygon fill="#e0e0e0" stroke="#999999" points="295.66,-20 217.41,-20 217.41,0 295.66,0 295.66,-20"/>
<text text-anchor="middle" x="256.54" y="-6.5" font-family="Helvetica,sans-Serif" font-size="10.00">VkBootstrap.h</text>
</a>
</g>
</g>
<!-- Node6&#45;&gt;Node10 -->
<g id="edge11_Node000006_Node000010" class="edge">
<title>Node6&#45;&gt;Node10</title>
<g id="a_edge11_Node000006_Node000010"><a xlink:title=" ">
<path fill="none" stroke="#63b8ff" d="M347.12,-55.55C328.24,-46.26 304.36,-34.52 285.86,-25.42"/>
<polygon fill="#63b8ff" stroke="#63b8ff" points="287.55,-22.35 277.03,-21.08 284.46,-28.63 287.55,-22.35"/>
</a>
</g>
</g>
<!-- Node11 -->
<g id="Node000011" class="node">
<title>Node11</title>
<g id="a_Node000011"><a xlink:title=" ">
<polygon fill="#e0e0e0" stroke="#999999" points="399.41,-20 313.66,-20 313.66,0 399.41,0 399.41,-20"/>
<text text-anchor="middle" x="356.54" y="-6.5" font-family="Helvetica,sans-Serif" font-size="10.00">vk_mem_alloc.h</text>
</a>
</g>
</g>
<!-- Node6&#45;&gt;Node11 -->
<g id="edge12_Node000006_Node000011" class="edge">
<title>Node6&#45;&gt;Node11</title>
<g id="a_edge12_Node000006_Node000011"><a xlink:title=" ">
<path fill="none" stroke="#63b8ff" d="M372.87,-55.55C370.14,-48.08 366.82,-39.03 363.89,-31.04"/>
<polygon fill="#63b8ff" stroke="#63b8ff" points="367.24,-30.01 360.51,-21.83 360.67,-32.42 367.24,-30.01"/>
</a>
</g>
</g>
<!-- Node12&#45;&gt;Node6 -->
<g id="edge19_Node000012_Node000006" class="edge">
<title>Node12&#45;&gt;Node6</title>
<g id="a_edge19_Node000012_Node000006"><a xlink:title=" ">
<path fill="none" stroke="#63b8ff" d="M475.76,-123.53C458.57,-114.59 436.72,-103.24 418.1,-93.56"/>
<polygon fill="#63b8ff" stroke="#63b8ff" points="419.96,-90.58 409.47,-89.08 416.73,-96.79 419.96,-90.58"/>
</a>
</g>
</g>
<!-- Node12&#45;&gt;Node7 -->
<g id="edge17_Node000012_Node000007" class="edge">
<title>Node12&#45;&gt;Node7</title>
<g id="a_edge17_Node000012_Node000007"><a xlink:title=" ">
<path fill="none" stroke="#63b8ff" d="M516.27,-123.56C532.69,-99.95 563.98,-54.95 581.62,-29.59"/>
<polygon fill="#63b8ff" stroke="#63b8ff" points="584.36,-31.78 587.19,-21.57 578.61,-27.78 584.36,-31.78"/>
</a>
</g>
</g>
<!-- Node12&#45;&gt;Node8 -->
<g id="edge18_Node000012_Node000008" class="edge">
<title>Node12&#45;&gt;Node8</title>
<g id="a_edge18_Node000012_Node000008"><a xlink:title=" ">
<path fill="none" stroke="#63b8ff" d="M498.42,-123.56C487.69,-100.27 467.35,-56.15 455.58,-30.61"/>
<polygon fill="#63b8ff" stroke="#63b8ff" points="458.84,-29.32 451.47,-21.7 452.48,-32.25 458.84,-29.32"/>
</a>
</g>
</g>
<!-- Node12&#45;&gt;Node9 -->
<g id="edge16_Node000012_Node000009" class="edge">
<title>Node12&#45;&gt;Node9</title>
<g id="a_edge16_Node000012_Node000009"><a xlink:title=" ">
<path fill="none" stroke="#63b8ff" d="M507.59,-123.56C510.64,-100.58 516.39,-57.34 519.8,-31.66"/>
<polygon fill="#63b8ff" stroke="#63b8ff" points="523.25,-32.2 521.1,-21.83 516.32,-31.28 523.25,-32.2"/>
</a>
</g>
</g>
<!-- Node13&#45;&gt;Node2 -->
<g id="edge21_Node000013_Node000002" class="edge">
<title>Node13&#45;&gt;Node2</title>
<g id="a_edge21_Node000013_Node000002"><a xlink:title=" ">
<path fill="none" stroke="#63b8ff" d="M181.16,-191.52C151.12,-181.96 112.36,-169.07 78.54,-156 77.43,-155.57 76.3,-155.12 75.16,-154.67"/>
<polygon fill="#63b8ff" stroke="#63b8ff" points="76.88,-151.59 66.3,-150.94 74.16,-158.04 76.88,-151.59"/>
</a>
</g>
</g>
<!-- Node13&#45;&gt;Node3 -->
<g id="edge22_Node000013_Node000003" class="edge">
<title>Node13&#45;&gt;Node3</title>
<g id="a_edge22_Node000013_Node000003"><a xlink:title=" ">
<path fill="none" stroke="#63b8ff" d="M171.16,-193.61C149.51,-185.97 126.72,-174.14 111.54,-156 96.96,-138.59 93.04,-112.18 92.23,-93.85"/>
<polygon fill="#63b8ff" stroke="#63b8ff" points="95.73,-93.88 92.1,-83.92 88.73,-93.97 95.73,-93.88"/>
</a>
</g>
</g>
<!-- Node13&#45;&gt;Node4 -->
<g id="edge24_Node000013_Node000004" class="edge">
<title>Node13&#45;&gt;Node4</title>
<g id="a_edge24_Node000013_Node000004"><a xlink:title=" ">
<path fill="none" stroke="#63b8ff" d="M244.56,-191.68C257.06,-175.01 272.8,-147.57 263.54,-124 247.13,-82.23 207.2,-46.72 181.59,-27.18"/>
<polygon fill="#63b8ff" stroke="#63b8ff" points="183.89,-24.52 173.76,-21.39 179.72,-30.15 183.89,-24.52"/>
</a>
</g>
</g>
<!-- Node13&#45;&gt;Node5 -->
<g id="edge26_Node000013_Node000005" class="edge">
<title>Node13&#45;&gt;Node5</title>
<g id="a_edge26_Node000013_Node000005"><a xlink:title=" ">
<path fill="none" stroke="#63b8ff" d="M221.33,-191.69C216.17,-183.95 209.77,-174.35 203.94,-165.6"/>
<polygon fill="#63b8ff" stroke="#63b8ff" points="206.99,-163.86 198.53,-157.48 201.16,-167.75 206.99,-163.86"/>
</a>
</g>
</g>
<!-- Node13&#45;&gt;Node6 -->
<g id="edge25_Node000013_Node000006" class="edge">
<title>Node13&#45;&gt;Node6</title>
<g id="a_edge25_Node000013_Node000006"><a xlink:title=" ">
<path fill="none" stroke="#63b8ff" d="M252.57,-191.57C265.57,-181.77 282.41,-168.6 296.54,-156 317.91,-136.94 340.68,-113.62 356.79,-96.56"/>
<polygon fill="#63b8ff" stroke="#63b8ff" points="359.25,-99.06 363.53,-89.37 354.14,-94.27 359.25,-99.06"/>
</a>
</g>
</g>
<!-- Node14 -->
<g id="Node000014" class="node">
<title>Node14</title>
<g id="a_Node000014"><a xlink:title=" ">
<polygon fill="#e0e0e0" stroke="#999999" points="390.29,-150 348.79,-150 348.79,-130 390.29,-130 390.29,-150"/>
<text text-anchor="middle" x="369.54" y="-136.5" font-family="Helvetica,sans-Serif" font-size="10.00">vector</text>
</a>
</g>
</g>
<!-- Node13&#45;&gt;Node14 -->
<g id="edge23_Node000013_Node000014" class="edge">
<title>Node13&#45;&gt;Node14</title>
<g id="a_edge23_Node000013_Node000014"><a xlink:title=" ">
<path fill="none" stroke="#63b8ff" d="M263.89,-191.53C286.76,-180.59 317.19,-166.04 339.52,-155.36"/>
<polygon fill="#63b8ff" stroke="#63b8ff" points="340.88,-158.59 348.39,-151.11 337.86,-152.27 340.88,-158.59"/>
</a>
</g>
</g>
</g>
</svg>

<g id="navigator" transform="translate(0 0)" fill="#404254">
  <rect fill="#f2f5e9" fill-opacity="0.5" stroke="#606060" stroke-width=".5" x="0" y="0" width="60" height="60"/>
  <use id="zoomplus" xlink:href="#zoomPlus" x="17" y="9" onmousedown="handleZoom(evt,'in')"/>
  <use id="zoomminus" xlink:href="#zoomMin" x="42" y="9" onmousedown="handleZoom(evt,'out')"/>
  <use id="reset" xlink:href="#resetDef" x="30" y="36" onmousedown="handleReset()"/>
   <use id="arrowup" xlink:href="#arrowUp" x="0" y="0" onmousedown="handlePan(0,-1)"/>
  <use id="arrowright" xlink:href="#arrowRight" x="0" y="0" onmousedown="handlePan(1,0)"/>
  <use id="arrowdown" xlink:href="#arrowDown" x="0" y="0" onmousedown="handlePan(0,1)"/>
  <use id="arrowleft" xlink:href="#arrowLeft" x="0" y="0" onmousedown="handlePan(-1,0)"/>
</g>
<svg viewBox="0 0 15 15" width="100%" height="30px" preserveAspectRatio="xMaxYMin meet">
 <g id="arrow_out" transform="scale(0.3 0.3)">
  <a xlink:href="render__system_8h__incl_org.svg" target="_base">
   <rect id="button" ry="5" rx="5" y="6" x="6" height="38" width="38"
        fill="#f2f5e9" fill-opacity="0.5" stroke="#606060" stroke-width="1.0"/>
   <path id="arrow"
     d="M 11.500037,31.436501 C 11.940474,20.09759 22.043105,11.32322 32.158766,21.979434 L 37.068811,17.246167 C 37.068811,17.246167 37.088388,32 37.088388,32 L 22.160133,31.978069 C 22.160133,31.978069 26.997745,27.140456 26.997745,27.140456 C 18.528582,18.264221 13.291696,25.230495 11.500037,31.436501 z"
     style="fill:#404040;"/>
  </a>
 </g>
</svg>

<style type='text/css'>
<![CDATA[
[data-mouse-over-selected='false'] { opacity: 0.7; }
[data-mouse-over-selected='true']  { opacity: 1.0; }
]]>
</style>
<script type="application/ecmascript"><![CDATA[
document.addEventListener('DOMContentLoaded', (event) => {
  highlightEdges();
  highlightAdjacentNodes();
});
]]></script>
</svg>
