<?xml version="1.0" encoding="UTF-8" standalone="no"?>
<!DOCTYPE svg PUBLIC "-//W3C//DTD SVG 1.1//EN"
 "http://www.w3.org/Graphics/SVG/1.1/DTD/svg11.dtd">
<!-- Generated by graphviz version 10.0.1 (20240210.2158)
 -->
<!-- Title: hybrid&#45;renderer&#45;lib/src/renderer_internal/render_system.cpp Pages: 1 -->
<svg width="883pt" height="380pt"
 viewBox="0.00 0.00 883.38 380.00" xmlns="http://www.w3.org/2000/svg" xmlns:xlink="http://www.w3.org/1999/xlink">
<g id="graph0" class="graph" transform="scale(1 1) rotate(0) translate(4 376)">
<title>hybrid&#45;renderer&#45;lib/src/renderer_internal/render_system.cpp</title>
<!-- Node1 -->
<g id="Node000001" class="node">
<title>Node1</title>
<g id="a_Node000001"><a xlink:title=" ">
<polygon fill="#999999" stroke="#666666" points="337.75,-372 230.25,-372 230.25,-328 337.75,-328 337.75,-372"/>
<text text-anchor="start" x="238.25" y="-358.5" font-family="Helvetica,sans-Serif" font-size="10.00">hybrid&#45;renderer&#45;lib</text>
<text text-anchor="start" x="238.25" y="-346.5" font-family="Helvetica,sans-Serif" font-size="10.00">/src/renderer_internal</text>
<text text-anchor="middle" x="284" y="-334.5" font-family="Helvetica,sans-Serif" font-size="10.00">/render_system.cpp</text>
</a>
</g>
</g>
<!-- Node2 -->
<g id="Node000002" class="node">
<title>Node2</title>
<g id="a_Node000002"><a xlink:href="render__system_8h.html" target="_top" xlink:title=" ">
<polygon fill="white" stroke="#666666" points="387,-292 269,-292 269,-260 387,-260 387,-292"/>
<text text-anchor="start" x="277" y="-278.5" font-family="Helvetica,sans-Serif" font-size="10.00">renderer_internal/render</text>
<text text-anchor="middle" x="328" y="-266.5" font-family="Helvetica,sans-Serif" font-size="10.00">_system.h</text>
</a>
</g>
</g>
<!-- Node1&#45;&gt;Node2 -->
<g id="edge1_Node000001_Node000002" class="edge">
<title>Node1&#45;&gt;Node2</title>
<g id="a_edge1_Node000001_Node000002"><a xlink:title=" ">
<path fill="none" stroke="#63b8ff" d="M296.96,-327.79C301.94,-319.65 307.66,-310.29 312.82,-301.84"/>
<polygon fill="#63b8ff" stroke="#63b8ff" points="315.74,-303.78 317.97,-293.42 309.77,-300.13 315.74,-303.78"/>
</a>
</g>
</g>
<!-- Node4 -->
<g id="Node000004" class="node">
<title>Node4</title>
<g id="a_Node000004"><a xlink:title=" ">
<polygon fill="#e0e0e0" stroke="#999999" points="235.38,-82 200.62,-82 200.62,-62 235.38,-62 235.38,-82"/>
<text text-anchor="middle" x="218" y="-68.5" font-family="Helvetica,sans-Serif" font-size="10.00">map</text>
</a>
</g>
</g>
<!-- Node1&#45;&gt;Node4 -->
<g id="edge31_Node000001_Node000004" class="edge">
<title>Node1&#45;&gt;Node4</title>
<g id="a_edge31_Node000001_Node000004"><a xlink:title=" ">
<path fill="none" stroke="#63b8ff" d="M229.78,-329.95C184.63,-310.86 123.31,-276.67 95,-224 73.96,-184.85 70.31,-160.96 95,-124 115.88,-92.74 159.85,-80.62 189.16,-75.93"/>
<polygon fill="#63b8ff" stroke="#63b8ff" points="189.42,-79.43 198.85,-74.59 188.46,-72.49 189.42,-79.43"/>
</a>
</g>
</g>
<!-- Node5 -->
<g id="Node000005" class="node">
<title>Node5</title>
<g id="a_Node000005"><a xlink:title=" ">
<polygon fill="#e0e0e0" stroke="#999999" points="415.62,-20 334.38,-20 334.38,0 415.62,0 415.62,-20"/>
<text text-anchor="middle" x="375" y="-6.5" font-family="Helvetica,sans-Serif" font-size="10.00">vulkan/vulkan.h</text>
</a>
</g>
</g>
<!-- Node1&#45;&gt;Node5 -->
<g id="edge32_Node000001_Node000005" class="edge">
<title>Node1&#45;&gt;Node5</title>
<g id="a_edge32_Node000001_Node000005"><a xlink:title=" ">
<path fill="none" stroke="#63b8ff" d="M229.91,-346.07C147.51,-338.37 0,-310.42 0,-209 0,-209 0,-209 0,-139 0,-74.88 58.77,-80.56 118,-56 185.44,-28.03 269.83,-17.44 323.09,-13.44"/>
<polygon fill="#63b8ff" stroke="#63b8ff" points="323.06,-16.95 332.79,-12.76 322.57,-9.96 323.06,-16.95"/>
</a>
</g>
</g>
<!-- Node7 -->
<g id="Node000007" class="node">
<title>Node7</title>
<g id="a_Node000007"><a xlink:href="render__context_8h.html" target="_top" xlink:title=" ">
<polygon fill="white" stroke="#666666" points="713,-88 595,-88 595,-56 713,-56 713,-88"/>
<text text-anchor="start" x="603" y="-74.5" font-family="Helvetica,sans-Serif" font-size="10.00">renderer_internal/render</text>
<text text-anchor="middle" x="654" y="-62.5" font-family="Helvetica,sans-Serif" font-size="10.00">_context.h</text>
</a>
</g>
</g>
<!-- Node1&#45;&gt;Node7 -->
<g id="edge33_Node000001_Node000007" class="edge">
<title>Node1&#45;&gt;Node7</title>
<g id="a_edge33_Node000001_Node000007"><a xlink:title=" ">
<path fill="none" stroke="#63b8ff" d="M338.07,-335.84C404.53,-317.93 518.84,-281.39 603,-224 637.04,-200.79 650.96,-194.36 666,-156 673.17,-137.72 669.45,-115.66 664.33,-98.88"/>
<polygon fill="#63b8ff" stroke="#63b8ff" points="667.72,-97.98 661.17,-89.65 661.1,-100.25 667.72,-97.98"/>
</a>
</g>
</g>
<!-- Node14 -->
<g id="Node000014" class="node">
<title>Node14</title>
<g id="a_Node000014"><a xlink:href="render__core_8h.html" target="_top" xlink:title=" ">
<polygon fill="white" stroke="#666666" points="864,-156 746,-156 746,-124 864,-124 864,-156"/>
<text text-anchor="start" x="754" y="-142.5" font-family="Helvetica,sans-Serif" font-size="10.00">renderer_internal/render</text>
<text text-anchor="middle" x="805" y="-130.5" font-family="Helvetica,sans-Serif" font-size="10.00">_core.h</text>
</a>
</g>
</g>
<!-- Node1&#45;&gt;Node14 -->
<g id="edge34_Node000001_Node000014" class="edge">
<title>Node1&#45;&gt;Node14</title>
<g id="a_edge34_Node000001_Node000014"><a xlink:title=" ">
<path fill="none" stroke="#63b8ff" d="M338.02,-348.43C443.07,-346.32 670.02,-336.58 732,-292 773.66,-262.04 792.55,-201.77 800.29,-167.12"/>
<polygon fill="#63b8ff" stroke="#63b8ff" points="803.68,-168.01 802.27,-157.51 796.82,-166.6 803.68,-168.01"/>
</a>
</g>
</g>
<!-- Node15 -->
<g id="Node000015" class="node">
<title>Node15</title>
<g id="a_Node000015"><a xlink:href="shader__database_8h.html" target="_top" xlink:title=" ">
<polygon fill="white" stroke="#666666" points="224.12,-224 103.88,-224 103.88,-192 224.12,-192 224.12,-224"/>
<text text-anchor="start" x="111.88" y="-210.5" font-family="Helvetica,sans-Serif" font-size="10.00">renderer_internal/shader</text>
<text text-anchor="middle" x="164" y="-198.5" font-family="Helvetica,sans-Serif" font-size="10.00">_database.h</text>
</a>
</g>
</g>
<!-- Node1&#45;&gt;Node15 -->
<g id="edge35_Node000001_Node000015" class="edge">
<title>Node1&#45;&gt;Node15</title>
<g id="a_edge35_Node000001_Node000015"><a xlink:title=" ">
<path fill="none" stroke="#63b8ff" d="M265.77,-327.74C243.96,-302.28 207.51,-259.76 184.66,-233.11"/>
<polygon fill="#63b8ff" stroke="#63b8ff" points="187.35,-230.86 178.18,-225.54 182.03,-235.42 187.35,-230.86"/>
</a>
</g>
</g>
<!-- Node3 -->
<g id="Node000003" class="node">
<title>Node3</title>
<g id="a_Node000003"><a xlink:title=" ">
<polygon fill="#e0e0e0" stroke="#999999" points="242,-150 202,-150 202,-130 242,-130 242,-150"/>
<text text-anchor="middle" x="222" y="-136.5" font-family="Helvetica,sans-Serif" font-size="10.00">string</text>
</a>
</g>
</g>
<!-- Node2&#45;&gt;Node3 -->
<g id="edge2_Node000002_Node000003" class="edge">
<title>Node2&#45;&gt;Node3</title>
<g id="a_edge2_Node000002_Node000003"><a xlink:title=" ">
<path fill="none" stroke="#63b8ff" d="M310.66,-259.79C300.07,-250.07 286.57,-236.92 276,-224 259.14,-203.4 242.92,-177.35 232.73,-159.98"/>
<polygon fill="#63b8ff" stroke="#63b8ff" points="236,-158.64 227.97,-151.73 229.93,-162.14 236,-158.64"/>
</a>
</g>
</g>
<!-- Node2&#45;&gt;Node4 -->
<g id="edge3_Node000002_Node000004" class="edge">
<title>Node2&#45;&gt;Node4</title>
<g id="a_edge3_Node000002_Node000004"><a xlink:title=" ">
<path fill="none" stroke="#63b8ff" d="M320.85,-259.72C307.81,-232.15 278.92,-172.44 251,-124 244.66,-113 236.98,-101.06 230.62,-91.5"/>
<polygon fill="#63b8ff" stroke="#63b8ff" points="233.71,-89.82 225.22,-83.48 227.9,-93.73 233.71,-89.82"/>
</a>
</g>
</g>
<!-- Node2&#45;&gt;Node5 -->
<g id="edge4_Node000002_Node000005" class="edge">
<title>Node2&#45;&gt;Node5</title>
<g id="a_edge4_Node000002_Node000005"><a xlink:title=" ">
<path fill="none" stroke="#63b8ff" d="M325.85,-259.8C322.43,-232.34 317.06,-172.81 327,-124 334.06,-89.32 352.16,-52.08 364,-30.2"/>
<polygon fill="#63b8ff" stroke="#63b8ff" points="367,-32.02 368.8,-21.58 360.88,-28.61 367,-32.02"/>
</a>
</g>
</g>
<!-- Node6 -->
<g id="Node000006" class="node">
<title>Node6</title>
<g id="a_Node000006"><a xlink:href="descriptor__management_8h.html" target="_top" xlink:title=" ">
<polygon fill="white" stroke="#666666" points="469.88,-156 336.12,-156 336.12,-124 469.88,-124 469.88,-156"/>
<text text-anchor="start" x="344.12" y="-142.5" font-family="Helvetica,sans-Serif" font-size="10.00">renderer_internal/descriptor</text>
<text text-anchor="middle" x="403" y="-130.5" font-family="Helvetica,sans-Serif" font-size="10.00">_management.h</text>
</a>
</g>
</g>
<!-- Node2&#45;&gt;Node6 -->
<g id="edge5_Node000002_Node000006" class="edge">
<title>Node2&#45;&gt;Node6</title>
<g id="a_edge5_Node000002_Node000006"><a xlink:title=" ">
<path fill="none" stroke="#63b8ff" d="M336.6,-259.63C349.38,-236.81 373.49,-193.72 388.88,-166.23"/>
<polygon fill="#63b8ff" stroke="#63b8ff" points="391.93,-167.95 393.76,-157.51 385.82,-164.53 391.93,-167.95"/>
</a>
</g>
</g>
<!-- Node2&#45;&gt;Node7 -->
<g id="edge18_Node000002_Node000007" class="edge">
<title>Node2&#45;&gt;Node7</title>
<g id="a_edge18_Node000002_Node000007"><a xlink:title=" ">
<path fill="none" stroke="#63b8ff" d="M387.37,-271.28C461.25,-263.18 585.2,-237.47 647,-156 659,-140.18 660.14,-117.45 658.62,-99.78"/>
<polygon fill="#63b8ff" stroke="#63b8ff" points="662.11,-99.5 657.42,-90 655.16,-100.35 662.11,-99.5"/>
</a>
</g>
</g>
<!-- Node13 -->
<g id="Node000013" class="node">
<title>Node13</title>
<g id="a_Node000013"><a xlink:href="debug_8h.html" target="_top" xlink:title=" ">
<polygon fill="white" stroke="#666666" points="613.75,-150 488.25,-150 488.25,-130 613.75,-130 613.75,-150"/>
<text text-anchor="middle" x="551" y="-136.5" font-family="Helvetica,sans-Serif" font-size="10.00">renderer_internal/debug.h</text>
</a>
</g>
</g>
<!-- Node2&#45;&gt;Node13 -->
<g id="edge15_Node000002_Node000013" class="edge">
<title>Node2&#45;&gt;Node13</title>
<g id="a_edge15_Node000002_Node000013"><a xlink:title=" ">
<path fill="none" stroke="#63b8ff" d="M353.58,-259.63C396.6,-233.78 482.9,-181.92 525.72,-156.19"/>
<polygon fill="#63b8ff" stroke="#63b8ff" points="527.31,-159.32 534.07,-151.17 523.7,-153.32 527.31,-159.32"/>
</a>
</g>
</g>
<!-- Node2&#45;&gt;Node14 -->
<g id="edge19_Node000002_Node000014" class="edge">
<title>Node2&#45;&gt;Node14</title>
<g id="a_edge19_Node000002_Node000014"><a xlink:title=" ">
<path fill="none" stroke="#63b8ff" d="M387.4,-275.69C461.81,-274.57 591.95,-265.98 694,-224 727.88,-210.06 760.72,-183.35 781.78,-163.98"/>
<polygon fill="#63b8ff" stroke="#63b8ff" points="784.07,-166.63 788.95,-157.23 779.27,-161.54 784.07,-166.63"/>
</a>
</g>
</g>
<!-- Node2&#45;&gt;Node15 -->
<g id="edge24_Node000002_Node000015" class="edge">
<title>Node2&#45;&gt;Node15</title>
<g id="a_edge24_Node000002_Node000015"><a xlink:title=" ">
<path fill="none" stroke="#63b8ff" d="M289.55,-259.53C266.7,-250.33 237.51,-238.58 213.02,-228.73"/>
<polygon fill="#63b8ff" stroke="#63b8ff" points="214.48,-225.54 203.9,-225.06 211.87,-232.04 214.48,-225.54"/>
</a>
</g>
</g>
<!-- Node6&#45;&gt;Node4 -->
<g id="edge6_Node000006_Node000004" class="edge">
<title>Node6&#45;&gt;Node4</title>
<g id="a_edge6_Node000006_Node000004"><a xlink:title=" ">
<path fill="none" stroke="#63b8ff" d="M359.63,-123.53C324.59,-111.03 276.3,-93.8 246.13,-83.04"/>
<polygon fill="#63b8ff" stroke="#63b8ff" points="247.54,-79.82 236.95,-79.76 245.19,-86.42 247.54,-79.82"/>
</a>
</g>
</g>
<!-- Node6&#45;&gt;Node5 -->
<g id="edge7_Node000006_Node000005" class="edge">
<title>Node6&#45;&gt;Node5</title>
<g id="a_edge7_Node000006_Node000005"><a xlink:title=" ">
<path fill="none" stroke="#63b8ff" d="M399.62,-123.56C394.57,-100.47 385.05,-56.94 379.44,-31.31"/>
<polygon fill="#63b8ff" stroke="#63b8ff" points="382.92,-30.83 377.36,-21.8 376.08,-32.32 382.92,-30.83"/>
</a>
</g>
</g>
<!-- Node6&#45;&gt;Node7 -->
<g id="edge8_Node000006_Node000007" class="edge">
<title>Node6&#45;&gt;Node7</title>
<g id="a_edge8_Node000006_Node000007"><a xlink:title=" ">
<path fill="none" stroke="#63b8ff" d="M461.85,-123.53C498.38,-113.92 545.52,-101.52 583.97,-91.41"/>
<polygon fill="#63b8ff" stroke="#63b8ff" points="584.84,-94.8 593.62,-88.88 583.06,-88.03 584.84,-94.8"/>
</a>
</g>
</g>
<!-- Node7&#45;&gt;Node5 -->
<g id="edge14_Node000007_Node000005" class="edge">
<title>Node7&#45;&gt;Node5</title>
<g id="a_edge14_Node000007_Node000005"><a xlink:title=" ">
<path fill="none" stroke="#63b8ff" d="M594.83,-58.28C545.07,-47.58 474.63,-32.43 427.01,-22.18"/>
<polygon fill="#63b8ff" stroke="#63b8ff" points="428.01,-18.82 417.5,-20.14 426.54,-25.66 428.01,-18.82"/>
</a>
</g>
</g>
<!-- Node8 -->
<g id="Node000008" class="node">
<title>Node8</title>
<g id="a_Node000008"><a xlink:href="config_8h.html" target="_top" xlink:title=" ">
<polygon fill="white" stroke="#666666" points="798.88,-20 749.12,-20 749.12,0 798.88,0 798.88,-20"/>
<text text-anchor="middle" x="774" y="-6.5" font-family="Helvetica,sans-Serif" font-size="10.00">config.h</text>
</a>
</g>
</g>
<!-- Node7&#45;&gt;Node8 -->
<g id="edge9_Node000007_Node000008" class="edge">
<title>Node7&#45;&gt;Node8</title>
<g id="a_edge9_Node000007_Node000008"><a xlink:title=" ">
<path fill="none" stroke="#63b8ff" d="M684.9,-55.55C703.39,-46.3 726.75,-34.63 744.9,-25.55"/>
<polygon fill="#63b8ff" stroke="#63b8ff" points="746.45,-28.69 753.83,-21.08 743.32,-22.43 746.45,-28.69"/>
</a>
</g>
</g>
<!-- Node9 -->
<g id="Node000009" class="node">
<title>Node9</title>
<g id="a_Node000009"><a xlink:href="platform_8h.html" target="_top" xlink:title=" ">
<polygon fill="white" stroke="#666666" points="875.38,-20 816.62,-20 816.62,0 875.38,0 875.38,-20"/>
<text text-anchor="middle" x="846" y="-6.5" font-family="Helvetica,sans-Serif" font-size="10.00">platform.h</text>
</a>
</g>
</g>
<!-- Node7&#45;&gt;Node9 -->
<g id="edge10_Node000007_Node000009" class="edge">
<title>Node7&#45;&gt;Node9</title>
<g id="a_edge10_Node000007_Node000009"><a xlink:title=" ">
<path fill="none" stroke="#63b8ff" d="M703.44,-55.55C735.07,-45.67 775.59,-33 805.34,-23.71"/>
<polygon fill="#63b8ff" stroke="#63b8ff" points="806.23,-27.09 814.73,-20.77 804.14,-20.41 806.23,-27.09"/>
</a>
</g>
</g>
<!-- Node10 -->
<g id="Node000010" class="node">
<title>Node10</title>
<g id="a_Node000010"><a xlink:title=" ">
<polygon fill="#e0e0e0" stroke="#999999" points="730.62,-20 673.38,-20 673.38,0 730.62,0 730.62,-20"/>
<text text-anchor="middle" x="702" y="-6.5" font-family="Helvetica,sans-Serif" font-size="10.00">functional</text>
</a>
</g>
</g>
<!-- Node7&#45;&gt;Node10 -->
<g id="edge11_Node000007_Node000010" class="edge">
<title>Node7&#45;&gt;Node10</title>
<g id="a_edge11_Node000007_Node000010"><a xlink:title=" ">
<path fill="none" stroke="#63b8ff" d="M666.36,-55.55C672.75,-47.56 680.59,-37.76 687.29,-29.39"/>
<polygon fill="#63b8ff" stroke="#63b8ff" points="690.01,-31.59 693.53,-21.59 684.55,-27.21 690.01,-31.59"/>
</a>
</g>
</g>
<!-- Node11 -->
<g id="Node000011" class="node">
<title>Node11</title>
<g id="a_Node000011"><a xlink:title=" ">
<polygon fill="#e0e0e0" stroke="#999999" points="551.12,-20 472.88,-20 472.88,0 551.12,0 551.12,-20"/>
<text text-anchor="middle" x="512" y="-6.5" font-family="Helvetica,sans-Serif" font-size="10.00">VkBootstrap.h</text>
</a>
</g>
</g>
<!-- Node7&#45;&gt;Node11 -->
<g id="edge12_Node000007_Node000011" class="edge">
<title>Node7&#45;&gt;Node11</title>
<g id="a_edge12_Node000007_Node000011"><a xlink:title=" ">
<path fill="none" stroke="#63b8ff" d="M617.43,-55.55C594.94,-46.04 566.36,-33.97 544.63,-24.79"/>
<polygon fill="#63b8ff" stroke="#63b8ff" points="546.23,-21.67 535.66,-21 543.51,-28.11 546.23,-21.67"/>
</a>
</g>
</g>
<!-- Node12 -->
<g id="Node000012" class="node">
<title>Node12</title>
<g id="a_Node000012"><a xlink:title=" ">
<polygon fill="#e0e0e0" stroke="#999999" points="654.88,-20 569.12,-20 569.12,0 654.88,0 654.88,-20"/>
<text text-anchor="middle" x="612" y="-6.5" font-family="Helvetica,sans-Serif" font-size="10.00">vk_mem_alloc.h</text>
</a>
</g>
</g>
<!-- Node7&#45;&gt;Node12 -->
<g id="edge13_Node000007_Node000012" class="edge">
<title>Node7&#45;&gt;Node12</title>
<g id="a_edge13_Node000007_Node000012"><a xlink:title=" ">
<path fill="none" stroke="#63b8ff" d="M643.18,-55.55C637.65,-47.65 630.88,-37.97 625.06,-29.66"/>
<polygon fill="#63b8ff" stroke="#63b8ff" points="628.06,-27.83 619.45,-21.65 622.32,-31.85 628.06,-27.83"/>
</a>
</g>
</g>
<!-- Node13&#45;&gt;Node5 -->
<g id="edge16_Node000013_Node000005" class="edge">
<title>Node13&#45;&gt;Node5</title>
<g id="a_edge16_Node000013_Node000005"><a xlink:title=" ">
<path fill="none" stroke="#63b8ff" d="M538.06,-129.59C508.18,-107.86 434.12,-54 396.98,-26.98"/>
<polygon fill="#63b8ff" stroke="#63b8ff" points="399.33,-24.37 389.18,-21.32 395.21,-30.03 399.33,-24.37"/>
</a>
</g>
</g>
<!-- Node13&#45;&gt;Node7 -->
<g id="edge17_Node000013_Node000007" class="edge">
<title>Node13&#45;&gt;Node7</title>
<g id="a_edge17_Node000013_Node000007"><a xlink:title=" ">
<path fill="none" stroke="#63b8ff" d="M565.76,-129.54C580,-120.42 602.06,-106.28 620.56,-94.43"/>
<polygon fill="#63b8ff" stroke="#63b8ff" points="622.32,-97.46 628.85,-89.12 618.54,-91.57 622.32,-97.46"/>
</a>
</g>
</g>
<!-- Node14&#45;&gt;Node7 -->
<g id="edge23_Node000014_Node000007" class="edge">
<title>Node14&#45;&gt;Node7</title>
<g id="a_edge23_Node000014_Node000007"><a xlink:title=" ">
<path fill="none" stroke="#63b8ff" d="M769.6,-123.53C748.75,-114.41 722.16,-102.79 699.74,-92.99"/>
<polygon fill="#63b8ff" stroke="#63b8ff" points="701.39,-89.9 690.83,-89.1 698.59,-96.31 701.39,-89.9"/>
</a>
</g>
</g>
<!-- Node14&#45;&gt;Node8 -->
<g id="edge21_Node000014_Node000008" class="edge">
<title>Node14&#45;&gt;Node8</title>
<g id="a_edge21_Node000014_Node000008"><a xlink:title=" ">
<path fill="none" stroke="#63b8ff" d="M801.26,-123.56C795.67,-100.47 785.13,-56.94 778.92,-31.31"/>
<polygon fill="#63b8ff" stroke="#63b8ff" points="782.37,-30.69 776.61,-21.8 775.57,-32.34 782.37,-30.69"/>
</a>
</g>
</g>
<!-- Node14&#45;&gt;Node9 -->
<g id="edge22_Node000014_Node000009" class="edge">
<title>Node14&#45;&gt;Node9</title>
<g id="a_edge22_Node000014_Node000009"><a xlink:title=" ">
<path fill="none" stroke="#63b8ff" d="M809.95,-123.56C817.37,-100.37 831.41,-56.54 839.61,-30.96"/>
<polygon fill="#63b8ff" stroke="#63b8ff" points="842.83,-32.36 842.55,-21.77 836.17,-30.22 842.83,-32.36"/>
</a>
</g>
</g>
<!-- Node14&#45;&gt;Node10 -->
<g id="edge20_Node000014_Node000010" class="edge">
<title>Node14&#45;&gt;Node10</title>
<g id="a_edge20_Node000014_Node000010"><a xlink:title=" ">
<path fill="none" stroke="#63b8ff" d="M792.58,-123.56C773.49,-99.85 737.04,-54.55 716.68,-29.25"/>
<polygon fill="#63b8ff" stroke="#63b8ff" points="719.45,-27.1 710.45,-21.51 714,-31.49 719.45,-27.1"/>
</a>
</g>
</g>
<!-- Node15&#45;&gt;Node3 -->
<g id="edge25_Node000015_Node000003" class="edge">
<title>Node15&#45;&gt;Node3</title>
<g id="a_edge25_Node000015_Node000003"><a xlink:title=" ">
<path fill="none" stroke="#63b8ff" d="M177.45,-191.69C186.06,-181.9 197.26,-169.15 206.28,-158.89"/>
<polygon fill="#63b8ff" stroke="#63b8ff" points="208.84,-161.28 212.81,-151.45 203.58,-156.65 208.84,-161.28"/>
</a>
</g>
</g>
<!-- Node15&#45;&gt;Node4 -->
<g id="edge26_Node000015_Node000004" class="edge">
<title>Node15&#45;&gt;Node4</title>
<g id="a_edge26_Node000015_Node000004"><a xlink:title=" ">
<path fill="none" stroke="#63b8ff" d="M168.71,-191.8C174.05,-175 183.29,-147.24 193,-124 197.43,-113.39 203.02,-101.87 207.78,-92.46"/>
<polygon fill="#63b8ff" stroke="#63b8ff" points="210.88,-94.08 212.36,-83.59 204.66,-90.87 210.88,-94.08"/>
</a>
</g>
</g>
<!-- Node15&#45;&gt;Node5 -->
<g id="edge28_Node000015_Node000005" class="edge">
<title>Node15&#45;&gt;Node5</title>
<g id="a_edge28_Node000015_Node000005"><a xlink:title=" ">
<path fill="none" stroke="#63b8ff" d="M131.28,-191.55C117.42,-183.14 102.71,-171.3 95,-156 88.6,-143.3 88.44,-136.62 95,-124 137.59,-42.12 254.04,-19.42 322.61,-13.22"/>
<polygon fill="#63b8ff" stroke="#63b8ff" points="322.81,-16.72 332.5,-12.43 322.25,-9.74 322.81,-16.72"/>
</a>
</g>
</g>
<!-- Node15&#45;&gt;Node6 -->
<g id="edge30_Node000015_Node000006" class="edge">
<title>Node15&#45;&gt;Node6</title>
<g id="a_edge30_Node000015_Node000006"><a xlink:title=" ">
<path fill="none" stroke="#63b8ff" d="M220.03,-191.53C254.67,-181.96 299.33,-169.63 335.85,-159.54"/>
<polygon fill="#63b8ff" stroke="#63b8ff" points="336.74,-162.93 345.44,-156.89 334.87,-156.18 336.74,-162.93"/>
</a>
</g>
</g>
<!-- Node15&#45;&gt;Node7 -->
<g id="edge29_Node000015_Node000007" class="edge">
<title>Node15&#45;&gt;Node7</title>
<g id="a_edge29_Node000015_Node000007"><a xlink:title=" ">
<path fill="none" stroke="#63b8ff" d="M224.34,-207.9C334.46,-208.34 562.29,-203.31 623,-156 640.3,-142.52 647.95,-118.3 651.32,-99.5"/>
<polygon fill="#63b8ff" stroke="#63b8ff" points="654.75,-100.26 652.74,-89.86 647.82,-99.24 654.75,-100.26"/>
</a>
</g>
</g>
<!-- Node16 -->
<g id="Node000016" class="node">
<title>Node16</title>
<g id="a_Node000016"><a xlink:title=" ">
<polygon fill="#e0e0e0" stroke="#999999" points="145.75,-150 104.25,-150 104.25,-130 145.75,-130 145.75,-150"/>
<text text-anchor="middle" x="125" y="-136.5" font-family="Helvetica,sans-Serif" font-size="10.00">vector</text>
</a>
</g>
</g>
<!-- Node15&#45;&gt;Node16 -->
<g id="edge27_Node000015_Node000016" class="edge">
<title>Node15&#45;&gt;Node16</title>
<g id="a_edge27_Node000015_Node000016"><a xlink:title=" ">
<path fill="none" stroke="#63b8ff" d="M154.95,-191.69C149.4,-182.3 142.24,-170.18 136.32,-160.15"/>
<polygon fill="#63b8ff" stroke="#63b8ff" points="139.38,-158.45 131.28,-151.62 133.35,-162.01 139.38,-158.45"/>
</a>
</g>
</g>
</g>
</svg>
