<?xml version="1.0" encoding="UTF-8" standalone="no"?>
<!DOCTYPE svg PUBLIC "-//W3C//DTD SVG 1.1//EN"
 "http://www.w3.org/Graphics/SVG/1.1/DTD/svg11.dtd">
<!-- Generated by graphviz version 10.0.1 (20240210.2158)
 -->
<!-- Title: hybrid&#45;renderer&#45;lib/src/renderer_internal/render_core.cpp Pages: 1 -->
<svg width="510pt" height="244pt"
 viewBox="0.00 0.00 510.25 244.00" xmlns="http://www.w3.org/2000/svg" xmlns:xlink="http://www.w3.org/1999/xlink">
<g id="graph0" class="graph" transform="scale(1 1) rotate(0) translate(4 240)">
<title>hybrid&#45;renderer&#45;lib/src/renderer_internal/render_core.cpp</title>
<!-- Node1 -->
<g id="Node000001" class="node">
<title>Node1</title>
<g id="a_Node000001"><a xlink:title=" ">
<polygon fill="#999999" stroke="#666666" points="208.62,-236 101.12,-236 101.12,-192 208.62,-192 208.62,-236"/>
<text text-anchor="start" x="109.12" y="-222.5" font-family="Helvetica,sans-Serif" font-size="10.00">hybrid&#45;renderer&#45;lib</text>
<text text-anchor="start" x="109.12" y="-210.5" font-family="Helvetica,sans-Serif" font-size="10.00">/src/renderer_internal</text>
<text text-anchor="middle" x="154.88" y="-198.5" font-family="Helvetica,sans-Serif" font-size="10.00">/render_core.cpp</text>
</a>
</g>
</g>
<!-- Node2 -->
<g id="Node000002" class="node">
<title>Node2</title>
<g id="a_Node000002"><a xlink:href="render__core_8h.html" target="_top" xlink:title=" ">
<polygon fill="white" stroke="#666666" points="170.88,-156 52.88,-156 52.88,-124 170.88,-124 170.88,-156"/>
<text text-anchor="start" x="60.88" y="-142.5" font-family="Helvetica,sans-Serif" font-size="10.00">renderer_internal/render</text>
<text text-anchor="middle" x="111.88" y="-130.5" font-family="Helvetica,sans-Serif" font-size="10.00">_core.h</text>
</a>
</g>
</g>
<!-- Node1&#45;&gt;Node2 -->
<g id="edge1_Node000001_Node000002" class="edge">
<title>Node1&#45;&gt;Node2</title>
<g id="a_edge1_Node000001_Node000002"><a xlink:title=" ">
<path fill="none" stroke="#63b8ff" d="M142.21,-191.79C137.35,-183.65 131.76,-174.29 126.71,-165.84"/>
<polygon fill="#63b8ff" stroke="#63b8ff" points="129.82,-164.22 121.68,-157.43 123.81,-167.81 129.82,-164.22"/>
</a>
</g>
</g>
<!-- Node4 -->
<g id="Node000004" class="node">
<title>Node4</title>
<g id="a_Node000004"><a xlink:href="config_8h.html" target="_top" xlink:title=" ">
<polygon fill="white" stroke="#666666" points="49.75,-20 0,-20 0,0 49.75,0 49.75,-20"/>
<text text-anchor="middle" x="24.88" y="-6.5" font-family="Helvetica,sans-Serif" font-size="10.00">config.h</text>
</a>
</g>
</g>
<!-- Node1&#45;&gt;Node4 -->
<g id="edge12_Node000001_Node000004" class="edge">
<title>Node1&#45;&gt;Node4</title>
<g id="a_edge12_Node000001_Node000004"><a xlink:title=" ">
<path fill="none" stroke="#63b8ff" d="M100.84,-197.42C79.81,-188.63 57.53,-175.4 43.88,-156 17.41,-118.4 18.88,-61.42 22.01,-31.31"/>
<polygon fill="#63b8ff" stroke="#63b8ff" points="25.44,-32.03 23.19,-21.68 18.5,-31.18 25.44,-32.03"/>
</a>
</g>
</g>
<!-- Node5 -->
<g id="Node000005" class="node">
<title>Node5</title>
<g id="a_Node000005"><a xlink:href="platform_8h.html" target="_top" xlink:title=" ">
<polygon fill="white" stroke="#666666" points="502.25,-20 443.5,-20 443.5,0 502.25,0 502.25,-20"/>
<text text-anchor="middle" x="472.88" y="-6.5" font-family="Helvetica,sans-Serif" font-size="10.00">platform.h</text>
</a>
</g>
</g>
<!-- Node1&#45;&gt;Node5 -->
<g id="edge13_Node000001_Node000005" class="edge">
<title>Node1&#45;&gt;Node5</title>
<g id="a_edge13_Node000001_Node000005"><a xlink:title=" ">
<path fill="none" stroke="#63b8ff" d="M188.61,-191.57C253.01,-150.66 392.1,-62.31 448.44,-26.52"/>
<polygon fill="#63b8ff" stroke="#63b8ff" points="450.11,-29.61 456.68,-21.29 446.36,-23.7 450.11,-29.61"/>
</a>
</g>
</g>
<!-- Node6 -->
<g id="Node000006" class="node">
<title>Node6</title>
<g id="a_Node000006"><a xlink:href="render__context_8h.html" target="_top" xlink:title=" ">
<polygon fill="white" stroke="#666666" points="255.88,-88 137.88,-88 137.88,-56 255.88,-56 255.88,-88"/>
<text text-anchor="start" x="145.88" y="-74.5" font-family="Helvetica,sans-Serif" font-size="10.00">renderer_internal/render</text>
<text text-anchor="middle" x="196.88" y="-62.5" font-family="Helvetica,sans-Serif" font-size="10.00">_context.h</text>
</a>
</g>
</g>
<!-- Node1&#45;&gt;Node6 -->
<g id="edge14_Node000001_Node000006" class="edge">
<title>Node1&#45;&gt;Node6</title>
<g id="a_edge14_Node000001_Node000006"><a xlink:title=" ">
<path fill="none" stroke="#63b8ff" d="M165.47,-191.76C170.4,-181.21 176.01,-168.15 179.88,-156 185.79,-137.39 190.14,-115.76 192.96,-99.24"/>
<polygon fill="#63b8ff" stroke="#63b8ff" points="196.36,-100.16 194.5,-89.73 189.45,-99.04 196.36,-100.16"/>
</a>
</g>
</g>
<!-- Node3 -->
<g id="Node000003" class="node">
<title>Node3</title>
<g id="a_Node000003"><a xlink:title=" ">
<polygon fill="#e0e0e0" stroke="#999999" points="125.5,-20 68.25,-20 68.25,0 125.5,0 125.5,-20"/>
<text text-anchor="middle" x="96.88" y="-6.5" font-family="Helvetica,sans-Serif" font-size="10.00">functional</text>
</a>
</g>
</g>
<!-- Node2&#45;&gt;Node3 -->
<g id="edge2_Node000002_Node000003" class="edge">
<title>Node2&#45;&gt;Node3</title>
<g id="a_edge2_Node000002_Node000003"><a xlink:title=" ">
<path fill="none" stroke="#63b8ff" d="M110.07,-123.56C107.37,-100.58 102.3,-57.34 99.3,-31.66"/>
<polygon fill="#63b8ff" stroke="#63b8ff" points="102.78,-31.35 98.14,-21.83 95.83,-32.17 102.78,-31.35"/>
</a>
</g>
</g>
<!-- Node2&#45;&gt;Node4 -->
<g id="edge3_Node000002_Node000004" class="edge">
<title>Node2&#45;&gt;Node4</title>
<g id="a_edge3_Node000002_Node000004"><a xlink:title=" ">
<path fill="none" stroke="#63b8ff" d="M101.38,-123.56C85.33,-99.95 54.75,-54.95 37.51,-29.59"/>
<polygon fill="#63b8ff" stroke="#63b8ff" points="40.58,-27.88 32.06,-21.58 34.79,-31.82 40.58,-27.88"/>
</a>
</g>
</g>
<!-- Node2&#45;&gt;Node5 -->
<g id="edge4_Node000002_Node000005" class="edge">
<title>Node2&#45;&gt;Node5</title>
<g id="a_edge4_Node000002_Node000005"><a xlink:title=" ">
<path fill="none" stroke="#63b8ff" d="M159.57,-123.55C189.82,-113.64 229.74,-100.35 264.88,-88 325.93,-66.53 396.48,-40.06 437.74,-24.41"/>
<polygon fill="#63b8ff" stroke="#63b8ff" points="438.8,-27.75 446.9,-20.93 436.31,-21.21 438.8,-27.75"/>
</a>
</g>
</g>
<!-- Node2&#45;&gt;Node6 -->
<g id="edge5_Node000002_Node000006" class="edge">
<title>Node2&#45;&gt;Node6</title>
<g id="a_edge5_Node000002_Node000006"><a xlink:title=" ">
<path fill="none" stroke="#63b8ff" d="M131.59,-123.69C142.45,-115.26 156.14,-104.63 168.17,-95.29"/>
<polygon fill="#63b8ff" stroke="#63b8ff" points="170.03,-98.28 175.78,-89.38 165.73,-92.75 170.03,-98.28"/>
</a>
</g>
</g>
<!-- Node6&#45;&gt;Node3 -->
<g id="edge8_Node000006_Node000003" class="edge">
<title>Node6&#45;&gt;Node3</title>
<g id="a_edge8_Node000006_Node000003"><a xlink:title=" ">
<path fill="none" stroke="#63b8ff" d="M171.12,-55.55C156.08,-46.52 137.17,-35.17 122.19,-26.19"/>
<polygon fill="#63b8ff" stroke="#63b8ff" points="124.23,-23.33 113.85,-21.19 120.63,-29.33 124.23,-23.33"/>
</a>
</g>
</g>
<!-- Node6&#45;&gt;Node4 -->
<g id="edge6_Node000006_Node000004" class="edge">
<title>Node6&#45;&gt;Node4</title>
<g id="a_edge6_Node000006_Node000004"><a xlink:title=" ">
<path fill="none" stroke="#63b8ff" d="M152.58,-55.55C124.01,-45.58 87.35,-32.79 60.64,-23.47"/>
<polygon fill="#63b8ff" stroke="#63b8ff" points="61.87,-20.2 51.28,-20.21 59.57,-26.81 61.87,-20.2"/>
</a>
</g>
</g>
<!-- Node6&#45;&gt;Node5 -->
<g id="edge7_Node000006_Node000005" class="edge">
<title>Node6&#45;&gt;Node5</title>
<g id="a_edge7_Node000006_Node000005"><a xlink:title=" ">
<path fill="none" stroke="#63b8ff" d="M256.13,-58.67C301.78,-49.09 366.78,-35.27 432.11,-20.59"/>
<polygon fill="#63b8ff" stroke="#63b8ff" points="432.56,-24.08 441.54,-18.47 431.02,-17.25 432.56,-24.08"/>
</a>
</g>
</g>
<!-- Node7 -->
<g id="Node000007" class="node">
<title>Node7</title>
<g id="a_Node000007"><a xlink:title=" ">
<polygon fill="#e0e0e0" stroke="#999999" points="222,-20 143.75,-20 143.75,0 222,0 222,-20"/>
<text text-anchor="middle" x="182.88" y="-6.5" font-family="Helvetica,sans-Serif" font-size="10.00">VkBootstrap.h</text>
</a>
</g>
</g>
<!-- Node6&#45;&gt;Node7 -->
<g id="edge9_Node000006_Node000007" class="edge">
<title>Node6&#45;&gt;Node7</title>
<g id="a_edge9_Node000006_Node000007"><a xlink:title=" ">
<path fill="none" stroke="#63b8ff" d="M193.27,-55.55C191.57,-48.26 189.51,-39.45 187.68,-31.6"/>
<polygon fill="#63b8ff" stroke="#63b8ff" points="191.09,-30.83 185.41,-21.88 184.28,-32.42 191.09,-30.83"/>
</a>
</g>
</g>
<!-- Node8 -->
<g id="Node000008" class="node">
<title>Node8</title>
<g id="a_Node000008"><a xlink:title=" ">
<polygon fill="#e0e0e0" stroke="#999999" points="325.75,-20 240,-20 240,0 325.75,0 325.75,-20"/>
<text text-anchor="middle" x="282.88" y="-6.5" font-family="Helvetica,sans-Serif" font-size="10.00">vk_mem_alloc.h</text>
</a>
</g>
</g>
<!-- Node6&#45;&gt;Node8 -->
<g id="edge10_Node000006_Node000008" class="edge">
<title>Node6&#45;&gt;Node8</title>
<g id="a_edge10_Node000006_Node000008"><a xlink:title=" ">
<path fill="none" stroke="#63b8ff" d="M219.02,-55.55C231.59,-46.78 247.29,-35.83 259.98,-26.97"/>
<polygon fill="#63b8ff" stroke="#63b8ff" points="261.95,-29.87 268.15,-21.27 257.94,-24.13 261.95,-29.87"/>
</a>
</g>
</g>
<!-- Node9 -->
<g id="Node000009" class="node">
<title>Node9</title>
<g id="a_Node000009"><a xlink:title=" ">
<polygon fill="#e0e0e0" stroke="#999999" points="425.5,-20 344.25,-20 344.25,0 425.5,0 425.5,-20"/>
<text text-anchor="middle" x="384.88" y="-6.5" font-family="Helvetica,sans-Serif" font-size="10.00">vulkan/vulkan.h</text>
</a>
</g>
</g>
<!-- Node6&#45;&gt;Node9 -->
<g id="edge11_Node000006_Node000009" class="edge">
<title>Node6&#45;&gt;Node9</title>
<g id="a_edge11_Node000006_Node000009"><a xlink:title=" ">
<path fill="none" stroke="#63b8ff" d="M245.29,-55.55C276.06,-45.73 315.44,-33.16 344.52,-23.88"/>
<polygon fill="#63b8ff" stroke="#63b8ff" points="345.22,-27.33 353.68,-20.96 343.09,-20.66 345.22,-27.33"/>
</a>
</g>
</g>
</g>
</svg>
