<?xml version="1.0" encoding="UTF-8" standalone="no"?>
<!DOCTYPE svg PUBLIC "-//W3C//DTD SVG 1.1//EN"
 "http://www.w3.org/Graphics/SVG/1.1/DTD/svg11.dtd">
<!-- Generated by graphviz version 10.0.1 (20240210.2158)
 -->
<!-- Title: hybrid&#45;renderer&#45;lib/include/renderer_internal/render_core.h Pages: 1 -->
<!--zoomable 336 -->

<svg id="main" version="1.1" xmlns="http://www.w3.org/2000/svg" xmlns:xlink="http://www.w3.org/1999/xlink" xml:space="preserve" onload="init(evt)">
<style type="text/css"><![CDATA[
.node, .edge {opacity: 0.7;}
.node.selected, .edge.selected {opacity: 1;}
.edge:hover path { stroke: red; }
.edge:hover polygon { stroke: red; fill: red; }
]]></style>

<defs>
  <circle id="rim" cx="0" cy="0" r="7"/>
  <circle id="rim2" cx="0" cy="0" r="3.5"/>
  <g id="zoomPlus">
    <use xlink:href="#rim" fill="#404040"><set attributeName="fill" to="#808080" begin="zoomplus.mouseover" end="zoomplus.mouseout"/></use>
    <path d="M-4,0h8M0,-4v8" fill="none" stroke="white" stroke-width="1.5" pointer-events="none"/>
  </g>
  <g id="zoomMin">
    <use xlink:href="#rim" fill="#404040"><set attributeName="fill" to="#808080" begin="zoomminus.mouseover" end="zoomminus.mouseout"/></use>
    <path d="M-4,0h8" fill="none" stroke="white" stroke-width="1.5" pointer-events="none"/>
  </g>
  <g id="arrowUp" transform="translate(30 24)">
    <use xlink:href="#rim"/>
    <path pointer-events="none" fill="none" stroke="white" stroke-width="1.5" d="M0,-3.0v7 M-2.5,-0.5L0,-3.0L2.5,-0.5"/>
  </g>
  <g id="arrowRight" transform="rotate(90) translate(36 -43)">
    <use xlink:href="#rim"/>
    <path pointer-events="none" fill="none" stroke="white" stroke-width="1.5" d="M0,-3.0v7 M-2.5,-0.5L0,-3.0L2.5,-0.5"/>
  </g>
  <g id="arrowDown" transform="rotate(180) translate(-30 -48)">
    <use xlink:href="#rim"/>
    <path pointer-events="none" fill="none" stroke="white" stroke-width="1.5" d="M0,-3.0v7 M-2.5,-0.5L0,-3.0L2.5,-0.5"/>
  </g>
  <g id="arrowLeft" transform="rotate(270) translate(-36 17)">
    <use xlink:href="#rim"/>
    <path pointer-events="none" fill="none" stroke="white" stroke-width="1.5" d="M0,-3.0v7 M-2.5,-0.5L0,-3.0L2.5,-0.5"/>
  </g>
  <g id="resetDef">
    <use xlink:href="#rim2" fill="#404040"><set attributeName="fill" to="#808080" begin="reset.mouseover" end="reset.mouseout"/></use>
  </g>
</defs>
<script type="application/ecmascript">
var viewWidth = 557;
var viewHeight = 336;
var sectionId = 'dynsection-1';
</script>
<script type="application/ecmascript" xlink:href="svg.min.js"/>
<svg id="graph" class="graph">
<g id="viewport">
<title>hybrid&#45;renderer&#45;lib/include/renderer_internal/render_core.h</title>
<!-- Node1 -->
<g id="Node000001" class="node">
<title>Node1</title>
<g id="a_Node000001"><a xlink:title=" ">
<polygon fill="#999999" stroke="#666666" points="385.88,-328 261.12,-328 261.12,-284 385.88,-284 385.88,-328"/>
<text text-anchor="start" x="269.12" y="-314.5" font-family="Helvetica,sans-Serif" font-size="10.00">hybrid&#45;renderer&#45;lib</text>
<text text-anchor="start" x="269.12" y="-302.5" font-family="Helvetica,sans-Serif" font-size="10.00">/include/renderer_internal</text>
<text text-anchor="middle" x="323.5" y="-290.5" font-family="Helvetica,sans-Serif" font-size="10.00">/render_core.h</text>
</a>
</g>
</g>
<!-- Node2 -->
<g id="Node000002" class="node">
<title>Node2</title>
<g id="a_Node000002"><a xlink:href="hybrid__renderer_8h.html" target="_top" xlink:title=" ">
<polygon fill="white" stroke="#666666" points="308.38,-162 180.62,-162 180.62,-130 308.38,-130 308.38,-162"/>
<text text-anchor="start" x="188.62" y="-148.5" font-family="Helvetica,sans-Serif" font-size="10.00">hybrid&#45;renderer&#45;lib</text>
<text text-anchor="middle" x="244.5" y="-136.5" font-family="Helvetica,sans-Serif" font-size="10.00">/include/hybrid_renderer.h</text>
</a>
</g>
</g>
<!-- Node1&#45;&gt;Node2 -->
<g id="edge1_Node000001_Node000002" class="edge">
<title>Node1&#45;&gt;Node2</title>
<g id="a_edge1_Node000001_Node000002"><a xlink:title=" ">
<path fill="none" stroke="#63b8ff" d="M276.94,-276.72C267.31,-268.66 258.33,-259.02 252.5,-248 238.02,-220.64 239.67,-183.16 242.11,-162.41"/>
<polygon fill="#63b8ff" stroke="#63b8ff" points="274.65,-279.38 284.7,-282.75 278.95,-273.85 274.65,-279.38"/>
</a>
</g>
</g>
<!-- Node8 -->
<g id="Node000008" class="node">
<title>Node8</title>
<g id="a_Node000008"><a xlink:href="render__pass_8h.html" target="_top" xlink:title=" ">
<polygon fill="white" stroke="#666666" points="205.88,-248 81.12,-248 81.12,-204 205.88,-204 205.88,-248"/>
<text text-anchor="start" x="89.12" y="-234.5" font-family="Helvetica,sans-Serif" font-size="10.00">hybrid&#45;renderer&#45;lib</text>
<text text-anchor="start" x="89.12" y="-222.5" font-family="Helvetica,sans-Serif" font-size="10.00">/include/renderer_internal</text>
<text text-anchor="middle" x="143.5" y="-210.5" font-family="Helvetica,sans-Serif" font-size="10.00">/render_pass.h</text>
</a>
</g>
</g>
<!-- Node1&#45;&gt;Node8 -->
<g id="edge9_Node000001_Node000008" class="edge">
<title>Node1&#45;&gt;Node8</title>
<g id="a_edge9_Node000001_Node000008"><a xlink:title=" ">
<path fill="none" stroke="#63b8ff" d="M263.97,-279.2C240.95,-269.23 214.9,-257.94 192.94,-248.42"/>
<polygon fill="#63b8ff" stroke="#63b8ff" points="262.36,-282.32 272.93,-283.08 265.14,-275.9 262.36,-282.32"/>
</a>
</g>
</g>
<!-- Node10 -->
<g id="Node000010" class="node">
<title>Node10</title>
<g id="a_Node000010"><a xlink:href="render__system_8h.html" target="_top" xlink:title=" ">
<polygon fill="white" stroke="#666666" points="385.88,-248 261.12,-248 261.12,-204 385.88,-204 385.88,-248"/>
<text text-anchor="start" x="269.12" y="-234.5" font-family="Helvetica,sans-Serif" font-size="10.00">hybrid&#45;renderer&#45;lib</text>
<text text-anchor="start" x="269.12" y="-222.5" font-family="Helvetica,sans-Serif" font-size="10.00">/include/renderer_internal</text>
<text text-anchor="middle" x="323.5" y="-210.5" font-family="Helvetica,sans-Serif" font-size="10.00">/render_system.h</text>
</a>
</g>
</g>
<!-- Node1&#45;&gt;Node10 -->
<g id="edge12_Node000001_Node000010" class="edge">
<title>Node1&#45;&gt;Node10</title>
<g id="a_edge12_Node000001_Node000010"><a xlink:title=" ">
<path fill="none" stroke="#63b8ff" d="M323.5,-272.25C323.5,-264.15 323.5,-255.68 323.5,-248.29"/>
<polygon fill="#63b8ff" stroke="#63b8ff" points="320,-272.17 323.5,-282.17 327,-272.17 320,-272.17"/>
</a>
</g>
</g>
<!-- Node11 -->
<g id="Node000011" class="node">
<title>Node11</title>
<g id="a_Node000011"><a xlink:href="render__system_8cpp.html" target="_top" xlink:title=" ">
<polygon fill="white" stroke="#666666" points="456.25,-168 348.75,-168 348.75,-124 456.25,-124 456.25,-168"/>
<text text-anchor="start" x="356.75" y="-154.5" font-family="Helvetica,sans-Serif" font-size="10.00">hybrid&#45;renderer&#45;lib</text>
<text text-anchor="start" x="356.75" y="-142.5" font-family="Helvetica,sans-Serif" font-size="10.00">/src/renderer_internal</text>
<text text-anchor="middle" x="402.5" y="-130.5" font-family="Helvetica,sans-Serif" font-size="10.00">/render_system.cpp</text>
</a>
</g>
</g>
<!-- Node1&#45;&gt;Node11 -->
<g id="edge16_Node000001_Node000011" class="edge">
<title>Node1&#45;&gt;Node11</title>
<g id="a_edge16_Node000001_Node000011"><a xlink:title=" ">
<path fill="none" stroke="#63b8ff" d="M370.06,-276.72C379.69,-268.66 388.67,-259.02 394.5,-248 407.66,-223.12 407.5,-189.89 405.52,-168.46"/>
<polygon fill="#63b8ff" stroke="#63b8ff" points="368.05,-273.85 362.3,-282.75 372.35,-279.38 368.05,-273.85"/>
</a>
</g>
</g>
<!-- Node12 -->
<g id="Node000012" class="node">
<title>Node12</title>
<g id="a_Node000012"><a xlink:href="render__core_8cpp.html" target="_top" xlink:title=" ">
<polygon fill="white" stroke="#666666" points="549.25,-248 441.75,-248 441.75,-204 549.25,-204 549.25,-248"/>
<text text-anchor="start" x="449.75" y="-234.5" font-family="Helvetica,sans-Serif" font-size="10.00">hybrid&#45;renderer&#45;lib</text>
<text text-anchor="start" x="449.75" y="-222.5" font-family="Helvetica,sans-Serif" font-size="10.00">/src/renderer_internal</text>
<text text-anchor="middle" x="495.5" y="-210.5" font-family="Helvetica,sans-Serif" font-size="10.00">/render_core.cpp</text>
</a>
</g>
</g>
<!-- Node1&#45;&gt;Node12 -->
<g id="edge15_Node000001_Node000012" class="edge">
<title>Node1&#45;&gt;Node12</title>
<g id="a_edge15_Node000001_Node000012"><a xlink:title=" ">
<path fill="none" stroke="#63b8ff" d="M380.98,-278.93C402.83,-269.02 427.46,-257.86 448.26,-248.42"/>
<polygon fill="#63b8ff" stroke="#63b8ff" points="379.54,-275.74 371.88,-283.06 382.43,-282.12 379.54,-275.74"/>
</a>
</g>
</g>
<!-- Node3 -->
<g id="Node000003" class="node">
<title>Node3</title>
<g id="a_Node000003"><a xlink:href="demo_8h.html" target="_top" xlink:title=" ">
<polygon fill="white" stroke="#666666" points="109,-82 0,-82 0,-62 109,-62 109,-82"/>
<text text-anchor="middle" x="54.5" y="-68.5" font-family="Helvetica,sans-Serif" font-size="10.00">demo/include/demo.h</text>
</a>
</g>
</g>
<!-- Node2&#45;&gt;Node3 -->
<g id="edge2_Node000002_Node000003" class="edge">
<title>Node2&#45;&gt;Node3</title>
<g id="a_edge2_Node000002_Node000003"><a xlink:title=" ">
<path fill="none" stroke="#63b8ff" d="M193.19,-125.55C156.34,-111.59 108.28,-93.38 79.49,-82.47"/>
<polygon fill="#63b8ff" stroke="#63b8ff" points="191.73,-128.75 202.32,-129.02 194.21,-122.2 191.73,-128.75"/>
</a>
</g>
</g>
<!-- Node5 -->
<g id="Node000005" class="node">
<title>Node5</title>
<g id="a_Node000005"><a xlink:href="subsystems_8h.html" target="_top" xlink:title=" ">
<polygon fill="white" stroke="#666666" points="265.62,-82 127.38,-82 127.38,-62 265.62,-62 265.62,-82"/>
<text text-anchor="middle" x="196.5" y="-68.5" font-family="Helvetica,sans-Serif" font-size="10.00">demo/include/subsystems.h</text>
</a>
</g>
</g>
<!-- Node2&#45;&gt;Node5 -->
<g id="edge4_Node000002_Node000005" class="edge">
<title>Node2&#45;&gt;Node5</title>
<g id="a_edge4_Node000002_Node000005"><a xlink:title=" ">
<path fill="none" stroke="#63b8ff" d="M228.02,-120.28C219.29,-107.19 209.09,-91.88 202.71,-82.31"/>
<polygon fill="#63b8ff" stroke="#63b8ff" points="225.02,-122.09 233.48,-128.47 230.85,-118.21 225.02,-122.09"/>
</a>
</g>
</g>
<!-- Node6 -->
<g id="Node000006" class="node">
<title>Node6</title>
<g id="a_Node000006"><a xlink:href="subsystems_8cpp.html" target="_top" xlink:title=" ">
<polygon fill="white" stroke="#666666" points="310.25,-20 178.75,-20 178.75,0 310.25,0 310.25,-20"/>
<text text-anchor="middle" x="244.5" y="-6.5" font-family="Helvetica,sans-Serif" font-size="10.00">demo/src/subsystems.cpp</text>
</a>
</g>
</g>
<!-- Node2&#45;&gt;Node6 -->
<g id="edge7_Node000002_Node000006" class="edge">
<title>Node2&#45;&gt;Node6</title>
<g id="a_edge7_Node000002_Node000006"><a xlink:title=" ">
<path fill="none" stroke="#63b8ff" d="M261.56,-120.05C271.58,-102.28 281.1,-77.79 274.5,-56 270.36,-42.34 260.56,-29.04 253.28,-20.48"/>
<polygon fill="#63b8ff" stroke="#63b8ff" points="258.7,-118 256.5,-128.36 264.69,-121.64 258.7,-118"/>
</a>
</g>
</g>
<!-- Node7 -->
<g id="Node000007" class="node">
<title>Node7</title>
<g id="a_Node000007"><a xlink:href="hybrid__renderer_8cpp.html" target="_top" xlink:title=" ">
<polygon fill="white" stroke="#666666" points="443,-88 322,-88 322,-56 443,-56 443,-88"/>
<text text-anchor="start" x="330" y="-74.5" font-family="Helvetica,sans-Serif" font-size="10.00">hybrid&#45;renderer&#45;lib</text>
<text text-anchor="middle" x="382.5" y="-62.5" font-family="Helvetica,sans-Serif" font-size="10.00">/src/hybrid_renderer.cpp</text>
</a>
</g>
</g>
<!-- Node2&#45;&gt;Node7 -->
<g id="edge8_Node000002_Node000007" class="edge">
<title>Node2&#45;&gt;Node7</title>
<g id="a_edge8_Node000002_Node000007"><a xlink:title=" ">
<path fill="none" stroke="#63b8ff" d="M284.11,-124.33C306.05,-112.89 332.85,-98.9 352.94,-88.42"/>
<polygon fill="#63b8ff" stroke="#63b8ff" points="282.69,-121.13 275.45,-128.85 285.93,-127.33 282.69,-121.13"/>
</a>
</g>
</g>
<!-- Node4 -->
<g id="Node000004" class="node">
<title>Node4</title>
<g id="a_Node000004"><a xlink:href="main_8cpp.html" target="_top" xlink:title=" ">
<polygon fill="white" stroke="#666666" points="157.12,-20 57.88,-20 57.88,0 157.12,0 157.12,-20"/>
<text text-anchor="middle" x="107.5" y="-6.5" font-family="Helvetica,sans-Serif" font-size="10.00">demo/src/main.cpp</text>
</a>
</g>
</g>
<!-- Node3&#45;&gt;Node4 -->
<g id="edge3_Node000003_Node000004" class="edge">
<title>Node3&#45;&gt;Node4</title>
<g id="a_edge3_Node000003_Node000004"><a xlink:title=" ">
<path fill="none" stroke="#63b8ff" d="M70.18,-53.25C79.79,-42.36 91.71,-28.88 99.45,-20.11"/>
<polygon fill="#63b8ff" stroke="#63b8ff" points="67.78,-50.68 63.78,-60.49 73.03,-55.31 67.78,-50.68"/>
</a>
</g>
</g>
<!-- Node5&#45;&gt;Node4 -->
<g id="edge5_Node000005_Node000004" class="edge">
<title>Node5&#45;&gt;Node4</title>
<g id="a_edge5_Node000005_Node000004"><a xlink:title=" ">
<path fill="none" stroke="#63b8ff" d="M173.1,-55.22C156.62,-44.11 135.12,-29.62 121.31,-20.31"/>
<polygon fill="#63b8ff" stroke="#63b8ff" points="171.09,-58.09 181.34,-60.78 175,-52.29 171.09,-58.09"/>
</a>
</g>
</g>
<!-- Node5&#45;&gt;Node6 -->
<g id="edge6_Node000005_Node000006" class="edge">
<title>Node5&#45;&gt;Node6</title>
<g id="a_edge6_Node000005_Node000006"><a xlink:title=" ">
<path fill="none" stroke="#63b8ff" d="M210.96,-52.92C219.62,-42.1 230.27,-28.79 237.21,-20.11"/>
<polygon fill="#63b8ff" stroke="#63b8ff" points="208.46,-50.45 204.95,-60.44 213.93,-54.82 208.46,-50.45"/>
</a>
</g>
</g>
<!-- Node8&#45;&gt;Node2 -->
<g id="edge10_Node000008_Node000002" class="edge">
<title>Node8&#45;&gt;Node2</title>
<g id="a_edge10_Node000008_Node000002"><a xlink:title=" ">
<path fill="none" stroke="#63b8ff" d="M180.17,-196.68C195.18,-185.09 211.96,-172.13 224.62,-162.35"/>
<polygon fill="#63b8ff" stroke="#63b8ff" points="178.07,-193.88 172.3,-202.76 182.35,-199.42 178.07,-193.88"/>
</a>
</g>
</g>
<!-- Node9 -->
<g id="Node000009" class="node">
<title>Node9</title>
<g id="a_Node000009"><a xlink:href="render__pass_8cpp.html" target="_top" xlink:title=" ">
<polygon fill="white" stroke="#666666" points="162.25,-168 54.75,-168 54.75,-124 162.25,-124 162.25,-168"/>
<text text-anchor="start" x="62.75" y="-154.5" font-family="Helvetica,sans-Serif" font-size="10.00">hybrid&#45;renderer&#45;lib</text>
<text text-anchor="start" x="62.75" y="-142.5" font-family="Helvetica,sans-Serif" font-size="10.00">/src/renderer_internal</text>
<text text-anchor="middle" x="108.5" y="-130.5" font-family="Helvetica,sans-Serif" font-size="10.00">/render_pass.cpp</text>
</a>
</g>
</g>
<!-- Node8&#45;&gt;Node9 -->
<g id="edge11_Node000008_Node000009" class="edge">
<title>Node8&#45;&gt;Node9</title>
<g id="a_edge11_Node000008_Node000009"><a xlink:title=" ">
<path fill="none" stroke="#63b8ff" d="M129.31,-193.38C125.52,-184.94 121.52,-176.02 118.05,-168.29"/>
<polygon fill="#63b8ff" stroke="#63b8ff" points="126.03,-194.61 133.32,-202.31 132.42,-191.75 126.03,-194.61"/>
</a>
</g>
</g>
<!-- Node10&#45;&gt;Node2 -->
<g id="edge13_Node000010_Node000002" class="edge">
<title>Node10&#45;&gt;Node2</title>
<g id="a_edge13_Node000010_Node000002"><a xlink:title=" ">
<path fill="none" stroke="#63b8ff" d="M293.76,-195.64C282.2,-184.22 269.44,-171.62 259.8,-162.11"/>
<polygon fill="#63b8ff" stroke="#63b8ff" points="291.26,-198.09 300.84,-202.62 296.18,-193.11 291.26,-198.09"/>
</a>
</g>
</g>
<!-- Node10&#45;&gt;Node11 -->
<g id="edge14_Node000010_Node000011" class="edge">
<title>Node10&#45;&gt;Node11</title>
<g id="a_edge14_Node000010_Node000011"><a xlink:title=" ">
<path fill="none" stroke="#63b8ff" d="M353.26,-195.62C362.46,-186.53 372.41,-176.71 380.94,-168.29"/>
<polygon fill="#63b8ff" stroke="#63b8ff" points="350.82,-193.11 346.16,-202.62 355.74,-198.09 350.82,-193.11"/>
</a>
</g>
</g>
</g>
</svg>

<g id="navigator" transform="translate(0 0)" fill="#404254">
  <rect fill="#f2f5e9" fill-opacity="0.5" stroke="#606060" stroke-width=".5" x="0" y="0" width="60" height="60"/>
  <use id="zoomplus" xlink:href="#zoomPlus" x="17" y="9" onmousedown="handleZoom(evt,'in')"/>
  <use id="zoomminus" xlink:href="#zoomMin" x="42" y="9" onmousedown="handleZoom(evt,'out')"/>
  <use id="reset" xlink:href="#resetDef" x="30" y="36" onmousedown="handleReset()"/>
   <use id="arrowup" xlink:href="#arrowUp" x="0" y="0" onmousedown="handlePan(0,-1)"/>
  <use id="arrowright" xlink:href="#arrowRight" x="0" y="0" onmousedown="handlePan(1,0)"/>
  <use id="arrowdown" xlink:href="#arrowDown" x="0" y="0" onmousedown="handlePan(0,1)"/>
  <use id="arrowleft" xlink:href="#arrowLeft" x="0" y="0" onmousedown="handlePan(-1,0)"/>
</g>
<svg viewBox="0 0 15 15" width="100%" height="30px" preserveAspectRatio="xMaxYMin meet">
 <g id="arrow_out" transform="scale(0.3 0.3)">
  <a xlink:href="render__core_8h__dep__incl_org.svg" target="_base">
   <rect id="button" ry="5" rx="5" y="6" x="6" height="38" width="38"
        fill="#f2f5e9" fill-opacity="0.5" stroke="#606060" stroke-width="1.0"/>
   <path id="arrow"
     d="M 11.500037,31.436501 C 11.940474,20.09759 22.043105,11.32322 32.158766,21.979434 L 37.068811,17.246167 C 37.068811,17.246167 37.088388,32 37.088388,32 L 22.160133,31.978069 C 22.160133,31.978069 26.997745,27.140456 26.997745,27.140456 C 18.528582,18.264221 13.291696,25.230495 11.500037,31.436501 z"
     style="fill:#404040;"/>
  </a>
 </g>
</svg>

<style type='text/css'>
<![CDATA[
[data-mouse-over-selected='false'] { opacity: 0.7; }
[data-mouse-over-selected='true']  { opacity: 1.0; }
]]>
</style>
<script type="application/ecmascript"><![CDATA[
document.addEventListener('DOMContentLoaded', (event) => {
  highlightEdges();
  highlightAdjacentNodes();
});
]]></script>
</svg>
