<?xml version="1.0" encoding="UTF-8" standalone="no"?>
<!DOCTYPE svg PUBLIC "-//W3C//DTD SVG 1.1//EN"
 "http://www.w3.org/Graphics/SVG/1.1/DTD/svg11.dtd">
<!-- Generated by graphviz version 10.0.1 (20240210.2158)
 -->
<!-- Title: hybrid&#45;renderer&#45;lib/include/renderer_internal/render_context.h Pages: 1 -->
<svg width="510pt" height="108pt"
 viewBox="0.00 0.00 509.50 108.00" xmlns="http://www.w3.org/2000/svg" xmlns:xlink="http://www.w3.org/1999/xlink">
<g id="graph0" class="graph" transform="scale(1 1) rotate(0) translate(4 104)">
<title>hybrid&#45;renderer&#45;lib/include/renderer_internal/render_context.h</title>
<!-- Node1 -->
<g id="Node000001" class="node">
<title>Node1</title>
<g id="a_Node000001"><a xlink:title=" ">
<polygon fill="#999999" stroke="#666666" points="278.25,-100 153.5,-100 153.5,-56 278.25,-56 278.25,-100"/>
<text text-anchor="start" x="161.5" y="-86.5" font-family="Helvetica,sans-Serif" font-size="10.00">hybrid&#45;renderer&#45;lib</text>
<text text-anchor="start" x="161.5" y="-74.5" font-family="Helvetica,sans-Serif" font-size="10.00">/include/renderer_internal</text>
<text text-anchor="middle" x="215.88" y="-62.5" font-family="Helvetica,sans-Serif" font-size="10.00">/render_context.h</text>
</a>
</g>
</g>
<!-- Node2 -->
<g id="Node000002" class="node">
<title>Node2</title>
<g id="a_Node000002"><a xlink:href="config_8h.html" target="_top" xlink:title=" ">
<polygon fill="white" stroke="#666666" points="49.75,-20 0,-20 0,0 49.75,0 49.75,-20"/>
<text text-anchor="middle" x="24.88" y="-6.5" font-family="Helvetica,sans-Serif" font-size="10.00">config.h</text>
</a>
</g>
</g>
<!-- Node1&#45;&gt;Node2 -->
<g id="edge1_Node000001_Node000002" class="edge">
<title>Node1&#45;&gt;Node2</title>
<g id="a_edge1_Node000001_Node000002"><a xlink:title=" ">
<path fill="none" stroke="#63b8ff" d="M153.86,-55.57C122.98,-44.9 86.75,-32.38 60.56,-23.33"/>
<polygon fill="#63b8ff" stroke="#63b8ff" points="62.03,-20.13 51.43,-20.18 59.74,-26.75 62.03,-20.13"/>
</a>
</g>
</g>
<!-- Node3 -->
<g id="Node000003" class="node">
<title>Node3</title>
<g id="a_Node000003"><a xlink:href="platform_8h.html" target="_top" xlink:title=" ">
<polygon fill="white" stroke="#666666" points="126.25,-20 67.5,-20 67.5,0 126.25,0 126.25,-20"/>
<text text-anchor="middle" x="96.88" y="-6.5" font-family="Helvetica,sans-Serif" font-size="10.00">platform.h</text>
</a>
</g>
</g>
<!-- Node1&#45;&gt;Node3 -->
<g id="edge2_Node000001_Node000003" class="edge">
<title>Node1&#45;&gt;Node3</title>
<g id="a_edge2_Node000001_Node000003"><a xlink:title=" ">
<path fill="none" stroke="#63b8ff" d="M177.24,-55.57C159.65,-45.81 139.27,-34.51 123.43,-25.73"/>
<polygon fill="#63b8ff" stroke="#63b8ff" points="125.53,-22.89 115.08,-21.1 122.13,-29.01 125.53,-22.89"/>
</a>
</g>
</g>
<!-- Node4 -->
<g id="Node000004" class="node">
<title>Node4</title>
<g id="a_Node000004"><a xlink:title=" ">
<polygon fill="#e0e0e0" stroke="#999999" points="201.5,-20 144.25,-20 144.25,0 201.5,0 201.5,-20"/>
<text text-anchor="middle" x="172.88" y="-6.5" font-family="Helvetica,sans-Serif" font-size="10.00">functional</text>
</a>
</g>
</g>
<!-- Node1&#45;&gt;Node4 -->
<g id="edge3_Node000001_Node000004" class="edge">
<title>Node1&#45;&gt;Node4</title>
<g id="a_edge3_Node000001_Node000004"><a xlink:title=" ">
<path fill="none" stroke="#63b8ff" d="M202.03,-55.75C196.64,-47.47 190.5,-38.06 185.26,-30.01"/>
<polygon fill="#63b8ff" stroke="#63b8ff" points="188.23,-28.16 179.84,-21.69 182.36,-31.98 188.23,-28.16"/>
</a>
</g>
</g>
<!-- Node5 -->
<g id="Node000005" class="node">
<title>Node5</title>
<g id="a_Node000005"><a xlink:title=" ">
<polygon fill="#e0e0e0" stroke="#999999" points="298,-20 219.75,-20 219.75,0 298,0 298,-20"/>
<text text-anchor="middle" x="258.88" y="-6.5" font-family="Helvetica,sans-Serif" font-size="10.00">VkBootstrap.h</text>
</a>
</g>
</g>
<!-- Node1&#45;&gt;Node5 -->
<g id="edge4_Node000001_Node000005" class="edge">
<title>Node1&#45;&gt;Node5</title>
<g id="a_edge4_Node000001_Node000005"><a xlink:title=" ">
<path fill="none" stroke="#63b8ff" d="M229.72,-55.75C235.11,-47.47 241.25,-38.06 246.49,-30.01"/>
<polygon fill="#63b8ff" stroke="#63b8ff" points="249.39,-31.98 251.91,-21.69 243.52,-28.16 249.39,-31.98"/>
</a>
</g>
</g>
<!-- Node6 -->
<g id="Node000006" class="node">
<title>Node6</title>
<g id="a_Node000006"><a xlink:title=" ">
<polygon fill="#e0e0e0" stroke="#999999" points="401.75,-20 316,-20 316,0 401.75,0 401.75,-20"/>
<text text-anchor="middle" x="358.88" y="-6.5" font-family="Helvetica,sans-Serif" font-size="10.00">vk_mem_alloc.h</text>
</a>
</g>
</g>
<!-- Node1&#45;&gt;Node6 -->
<g id="edge5_Node000001_Node000006" class="edge">
<title>Node1&#45;&gt;Node6</title>
<g id="a_edge5_Node000001_Node000006"><a xlink:title=" ">
<path fill="none" stroke="#63b8ff" d="M262.3,-55.57C283.95,-45.58 309.1,-33.97 328.31,-25.11"/>
<polygon fill="#63b8ff" stroke="#63b8ff" points="329.6,-28.37 337.21,-21 326.66,-22.01 329.6,-28.37"/>
</a>
</g>
</g>
<!-- Node7 -->
<g id="Node000007" class="node">
<title>Node7</title>
<g id="a_Node000007"><a xlink:title=" ">
<polygon fill="#e0e0e0" stroke="#999999" points="501.5,-20 420.25,-20 420.25,0 501.5,0 501.5,-20"/>
<text text-anchor="middle" x="460.88" y="-6.5" font-family="Helvetica,sans-Serif" font-size="10.00">vulkan/vulkan.h</text>
</a>
</g>
</g>
<!-- Node1&#45;&gt;Node7 -->
<g id="edge6_Node000001_Node000007" class="edge">
<title>Node1&#45;&gt;Node7</title>
<g id="a_edge6_Node000001_Node000007"><a xlink:title=" ">
<path fill="none" stroke="#63b8ff" d="M278.65,-60.09C321.23,-48.62 376.56,-33.71 415.03,-23.35"/>
<polygon fill="#63b8ff" stroke="#63b8ff" points="415.7,-26.8 424.44,-20.81 413.88,-20.04 415.7,-26.8"/>
</a>
</g>
</g>
</g>
</svg>
