<?xml version="1.0" encoding="UTF-8" standalone="no"?>
<!DOCTYPE svg PUBLIC "-//W3C//DTD SVG 1.1//EN"
 "http://www.w3.org/Graphics/SVG/1.1/DTD/svg11.dtd">
<!-- Generated by graphviz version 10.0.1 (20240210.2158)
 -->
<!-- Title: hybrid&#45;renderer&#45;lib/src/renderer_internal/render_system.cpp Pages: 1 -->
<svg width="766pt" height="380pt"
 viewBox="0.00 0.00 765.88 380.00" xmlns="http://www.w3.org/2000/svg" xmlns:xlink="http://www.w3.org/1999/xlink">
<g id="graph0" class="graph" transform="scale(1 1) rotate(0) translate(4 376)">
<title>hybrid&#45;renderer&#45;lib/src/renderer_internal/render_system.cpp</title>
<!-- Node1 -->
<g id="Node000001" class="node">
<title>Node1</title>
<g id="a_Node000001"><a xlink:title=" ">
<polygon fill="#999999" stroke="#666666" points="299.75,-372 192.25,-372 192.25,-328 299.75,-328 299.75,-372"/>
<text text-anchor="start" x="200.25" y="-358.5" font-family="Helvetica,sans-Serif" font-size="10.00">hybrid&#45;renderer&#45;lib</text>
<text text-anchor="start" x="200.25" y="-346.5" font-family="Helvetica,sans-Serif" font-size="10.00">/src/renderer_internal</text>
<text text-anchor="middle" x="246" y="-334.5" font-family="Helvetica,sans-Serif" font-size="10.00">/render_system.cpp</text>
</a>
</g>
</g>
<!-- Node2 -->
<g id="Node000002" class="node">
<title>Node2</title>
<g id="a_Node000002"><a xlink:href="render__system_8h.html" target="_top" xlink:title=" ">
<polygon fill="white" stroke="#666666" points="368,-292 250,-292 250,-260 368,-260 368,-292"/>
<text text-anchor="start" x="258" y="-278.5" font-family="Helvetica,sans-Serif" font-size="10.00">renderer_internal/render</text>
<text text-anchor="middle" x="309" y="-266.5" font-family="Helvetica,sans-Serif" font-size="10.00">_system.h</text>
</a>
</g>
</g>
<!-- Node1&#45;&gt;Node2 -->
<g id="edge1_Node000001_Node000002" class="edge">
<title>Node1&#45;&gt;Node2</title>
<g id="a_edge1_Node000001_Node000002"><a xlink:title=" ">
<path fill="none" stroke="#63b8ff" d="M264.56,-327.79C272,-319.29 280.6,-309.46 288.24,-300.73"/>
<polygon fill="#63b8ff" stroke="#63b8ff" points="290.82,-303.1 294.77,-293.27 285.55,-298.49 290.82,-303.1"/>
</a>
</g>
</g>
<!-- Node4 -->
<g id="Node000004" class="node">
<title>Node4</title>
<g id="a_Node000004"><a xlink:title=" ">
<polygon fill="#e0e0e0" stroke="#999999" points="235.38,-82 200.62,-82 200.62,-62 235.38,-62 235.38,-82"/>
<text text-anchor="middle" x="218" y="-68.5" font-family="Helvetica,sans-Serif" font-size="10.00">map</text>
</a>
</g>
</g>
<!-- Node1&#45;&gt;Node4 -->
<g id="edge28_Node000001_Node000004" class="edge">
<title>Node1&#45;&gt;Node4</title>
<g id="a_edge28_Node000001_Node000004"><a xlink:title=" ">
<path fill="none" stroke="#63b8ff" d="M203.46,-327.66C167.09,-306.8 117.23,-271.27 95,-224 76.08,-183.78 70.31,-160.96 95,-124 115.88,-92.74 159.85,-80.62 189.16,-75.93"/>
<polygon fill="#63b8ff" stroke="#63b8ff" points="189.42,-79.43 198.85,-74.59 188.46,-72.49 189.42,-79.43"/>
</a>
</g>
</g>
<!-- Node5 -->
<g id="Node000005" class="node">
<title>Node5</title>
<g id="a_Node000005"><a xlink:title=" ">
<polygon fill="#e0e0e0" stroke="#999999" points="336.62,-20 255.38,-20 255.38,0 336.62,0 336.62,-20"/>
<text text-anchor="middle" x="296" y="-6.5" font-family="Helvetica,sans-Serif" font-size="10.00">vulkan/vulkan.h</text>
</a>
</g>
</g>
<!-- Node1&#45;&gt;Node5 -->
<g id="edge29_Node000001_Node000005" class="edge">
<title>Node1&#45;&gt;Node5</title>
<g id="a_edge29_Node000001_Node000005"><a xlink:title=" ">
<path fill="none" stroke="#63b8ff" d="M192.01,-342.39C119.6,-330.17 0,-296.72 0,-209 0,-209 0,-209 0,-139 0,-34.06 158.68,-14.17 243.67,-11.04"/>
<polygon fill="#63b8ff" stroke="#63b8ff" points="243.75,-14.54 253.64,-10.75 243.54,-7.55 243.75,-14.54"/>
</a>
</g>
</g>
<!-- Node7 -->
<g id="Node000007" class="node">
<title>Node7</title>
<g id="a_Node000007"><a xlink:href="render__context_8h.html" target="_top" xlink:title=" ">
<polygon fill="white" stroke="#666666" points="595,-88 477,-88 477,-56 595,-56 595,-88"/>
<text text-anchor="start" x="485" y="-74.5" font-family="Helvetica,sans-Serif" font-size="10.00">renderer_internal/render</text>
<text text-anchor="middle" x="536" y="-62.5" font-family="Helvetica,sans-Serif" font-size="10.00">_context.h</text>
</a>
</g>
</g>
<!-- Node1&#45;&gt;Node7 -->
<g id="edge30_Node000001_Node000007" class="edge">
<title>Node1&#45;&gt;Node7</title>
<g id="a_edge30_Node000001_Node000007"><a xlink:title=" ">
<path fill="none" stroke="#63b8ff" d="M300.08,-331.91C369.73,-306.49 486.92,-251.18 530,-156 537.96,-138.42 539.25,-116.59 538.66,-99.73"/>
<polygon fill="#63b8ff" stroke="#63b8ff" points="542.16,-99.74 538.06,-89.97 535.18,-100.17 542.16,-99.74"/>
</a>
</g>
</g>
<!-- Node13 -->
<g id="Node000013" class="node">
<title>Node13</title>
<g id="a_Node000013"><a xlink:href="render__core_8h.html" target="_top" xlink:title=" ">
<polygon fill="white" stroke="#666666" points="720,-156 602,-156 602,-124 720,-124 720,-156"/>
<text text-anchor="start" x="610" y="-142.5" font-family="Helvetica,sans-Serif" font-size="10.00">renderer_internal/render</text>
<text text-anchor="middle" x="661" y="-130.5" font-family="Helvetica,sans-Serif" font-size="10.00">_core.h</text>
</a>
</g>
</g>
<!-- Node1&#45;&gt;Node13 -->
<g id="edge31_Node000001_Node000013" class="edge">
<title>Node1&#45;&gt;Node13</title>
<g id="a_edge31_Node000001_Node000013"><a xlink:title=" ">
<path fill="none" stroke="#63b8ff" d="M300.04,-345.98C384.68,-340.28 543.43,-325.38 588,-292 628.86,-261.4 647.99,-201.89 655.99,-167.42"/>
<polygon fill="#63b8ff" stroke="#63b8ff" points="659.37,-168.35 658.06,-157.84 652.53,-166.88 659.37,-168.35"/>
</a>
</g>
</g>
<!-- Node14 -->
<g id="Node000014" class="node">
<title>Node14</title>
<g id="a_Node000014"><a xlink:href="shader__database_8h.html" target="_top" xlink:title=" ">
<polygon fill="white" stroke="#666666" points="224.12,-224 103.88,-224 103.88,-192 224.12,-192 224.12,-224"/>
<text text-anchor="start" x="111.88" y="-210.5" font-family="Helvetica,sans-Serif" font-size="10.00">renderer_internal/shader</text>
<text text-anchor="middle" x="164" y="-198.5" font-family="Helvetica,sans-Serif" font-size="10.00">_database.h</text>
</a>
</g>
</g>
<!-- Node1&#45;&gt;Node14 -->
<g id="edge32_Node000001_Node000014" class="edge">
<title>Node1&#45;&gt;Node14</title>
<g id="a_edge32_Node000001_Node000014"><a xlink:title=" ">
<path fill="none" stroke="#63b8ff" d="M233.55,-327.74C218.83,-302.62 194.38,-260.87 178.74,-234.16"/>
<polygon fill="#63b8ff" stroke="#63b8ff" points="181.86,-232.56 173.78,-225.7 175.82,-236.1 181.86,-232.56"/>
</a>
</g>
</g>
<!-- Node3 -->
<g id="Node000003" class="node">
<title>Node3</title>
<g id="a_Node000003"><a xlink:title=" ">
<polygon fill="#e0e0e0" stroke="#999999" points="242,-150 202,-150 202,-130 242,-130 242,-150"/>
<text text-anchor="middle" x="222" y="-136.5" font-family="Helvetica,sans-Serif" font-size="10.00">string</text>
</a>
</g>
</g>
<!-- Node2&#45;&gt;Node3 -->
<g id="edge2_Node000002_Node000003" class="edge">
<title>Node2&#45;&gt;Node3</title>
<g id="a_edge2_Node000002_Node000003"><a xlink:title=" ">
<path fill="none" stroke="#63b8ff" d="M299.02,-259.63C282.94,-234.87 251.37,-186.24 234.06,-159.57"/>
<polygon fill="#63b8ff" stroke="#63b8ff" points="237.19,-157.97 228.81,-151.49 231.32,-161.79 237.19,-157.97"/>
</a>
</g>
</g>
<!-- Node2&#45;&gt;Node4 -->
<g id="edge3_Node000002_Node000004" class="edge">
<title>Node2&#45;&gt;Node4</title>
<g id="a_edge3_Node000002_Node000004"><a xlink:title=" ">
<path fill="none" stroke="#63b8ff" d="M304.25,-259.55C295.42,-231.7 275.19,-171.56 251,-124 245.31,-112.82 237.78,-101.01 231.35,-91.58"/>
<polygon fill="#63b8ff" stroke="#63b8ff" points="234.41,-89.85 225.81,-83.66 228.68,-93.86 234.41,-89.85"/>
</a>
</g>
</g>
<!-- Node2&#45;&gt;Node5 -->
<g id="edge4_Node000002_Node000005" class="edge">
<title>Node2&#45;&gt;Node5</title>
<g id="a_edge4_Node000002_Node000005"><a xlink:title=" ">
<path fill="none" stroke="#63b8ff" d="M308.24,-259.67C306.03,-214.72 299.56,-83.23 297.03,-31.89"/>
<polygon fill="#63b8ff" stroke="#63b8ff" points="300.53,-31.74 296.54,-21.92 293.53,-32.08 300.53,-31.74"/>
</a>
</g>
</g>
<!-- Node6 -->
<g id="Node000006" class="node">
<title>Node6</title>
<g id="a_Node000006"><a xlink:href="descriptor__management_8h.html" target="_top" xlink:title=" ">
<polygon fill="white" stroke="#666666" points="469.88,-156 336.12,-156 336.12,-124 469.88,-124 469.88,-156"/>
<text text-anchor="start" x="344.12" y="-142.5" font-family="Helvetica,sans-Serif" font-size="10.00">renderer_internal/descriptor</text>
<text text-anchor="middle" x="403" y="-130.5" font-family="Helvetica,sans-Serif" font-size="10.00">_management.h</text>
</a>
</g>
</g>
<!-- Node2&#45;&gt;Node6 -->
<g id="edge5_Node000002_Node000006" class="edge">
<title>Node2&#45;&gt;Node6</title>
<g id="a_edge5_Node000002_Node000006"><a xlink:title=" ">
<path fill="none" stroke="#63b8ff" d="M319.78,-259.63C335.93,-236.61 366.56,-192.95 385.81,-165.5"/>
<polygon fill="#63b8ff" stroke="#63b8ff" points="388.6,-167.63 391.47,-157.43 382.87,-163.61 388.6,-167.63"/>
</a>
</g>
</g>
<!-- Node2&#45;&gt;Node7 -->
<g id="edge15_Node000002_Node000007" class="edge">
<title>Node2&#45;&gt;Node7</title>
<g id="a_edge15_Node000002_Node000007"><a xlink:title=" ">
<path fill="none" stroke="#63b8ff" d="M352.4,-259.52C397.4,-241.36 466.81,-207.08 508,-156 521.11,-139.74 528.21,-117.05 531.98,-99.5"/>
<polygon fill="#63b8ff" stroke="#63b8ff" points="535.39,-100.27 533.81,-89.8 528.51,-98.98 535.39,-100.27"/>
</a>
</g>
</g>
<!-- Node2&#45;&gt;Node13 -->
<g id="edge16_Node000002_Node000013" class="edge">
<title>Node2&#45;&gt;Node13</title>
<g id="a_edge16_Node000002_Node000013"><a xlink:title=" ">
<path fill="none" stroke="#63b8ff" d="M368.47,-264.35C409.63,-255.94 465.21,-242.54 512,-224 554.17,-207.29 599.22,-180.86 628.61,-162.33"/>
<polygon fill="#63b8ff" stroke="#63b8ff" points="630.12,-165.51 636.67,-157.18 626.36,-159.61 630.12,-165.51"/>
</a>
</g>
</g>
<!-- Node2&#45;&gt;Node14 -->
<g id="edge21_Node000002_Node000014" class="edge">
<title>Node2&#45;&gt;Node14</title>
<g id="a_edge21_Node000002_Node000014"><a xlink:title=" ">
<path fill="none" stroke="#63b8ff" d="M275,-259.53C255.17,-250.5 229.92,-239 208.51,-229.26"/>
<polygon fill="#63b8ff" stroke="#63b8ff" points="209.96,-226.08 199.41,-225.12 207.06,-232.45 209.96,-226.08"/>
</a>
</g>
</g>
<!-- Node6&#45;&gt;Node4 -->
<g id="edge6_Node000006_Node000004" class="edge">
<title>Node6&#45;&gt;Node4</title>
<g id="a_edge6_Node000006_Node000004"><a xlink:title=" ">
<path fill="none" stroke="#63b8ff" d="M359.63,-123.53C324.59,-111.03 276.3,-93.8 246.13,-83.04"/>
<polygon fill="#63b8ff" stroke="#63b8ff" points="247.54,-79.82 236.95,-79.76 245.19,-86.42 247.54,-79.82"/>
</a>
</g>
</g>
<!-- Node6&#45;&gt;Node5 -->
<g id="edge7_Node000006_Node000005" class="edge">
<title>Node6&#45;&gt;Node5</title>
<g id="a_edge7_Node000006_Node000005"><a xlink:title=" ">
<path fill="none" stroke="#63b8ff" d="M390.09,-123.56C370.18,-99.74 332.07,-54.15 310.97,-28.91"/>
<polygon fill="#63b8ff" stroke="#63b8ff" points="313.87,-26.92 304.77,-21.49 308.5,-31.4 313.87,-26.92"/>
</a>
</g>
</g>
<!-- Node6&#45;&gt;Node7 -->
<g id="edge8_Node000006_Node000007" class="edge">
<title>Node6&#45;&gt;Node7</title>
<g id="a_edge8_Node000006_Node000007"><a xlink:title=" ">
<path fill="none" stroke="#63b8ff" d="M434.18,-123.53C452.28,-114.55 475.28,-103.13 494.85,-93.42"/>
<polygon fill="#63b8ff" stroke="#63b8ff" points="496.26,-96.63 503.66,-89.05 493.14,-90.36 496.26,-96.63"/>
</a>
</g>
</g>
<!-- Node7&#45;&gt;Node5 -->
<g id="edge14_Node000007_Node000005" class="edge">
<title>Node7&#45;&gt;Node5</title>
<g id="a_edge14_Node000007_Node000005"><a xlink:title=" ">
<path fill="none" stroke="#63b8ff" d="M476.67,-56.17C435.99,-46 382.69,-32.67 344.54,-23.13"/>
<polygon fill="#63b8ff" stroke="#63b8ff" points="345.73,-19.82 335.18,-20.79 344.03,-26.62 345.73,-19.82"/>
</a>
</g>
</g>
<!-- Node8 -->
<g id="Node000008" class="node">
<title>Node8</title>
<g id="a_Node000008"><a xlink:href="config_8h.html" target="_top" xlink:title=" ">
<polygon fill="white" stroke="#666666" points="757.88,-20 708.12,-20 708.12,0 757.88,0 757.88,-20"/>
<text text-anchor="middle" x="733" y="-6.5" font-family="Helvetica,sans-Serif" font-size="10.00">config.h</text>
</a>
</g>
</g>
<!-- Node7&#45;&gt;Node8 -->
<g id="edge9_Node000007_Node000008" class="edge">
<title>Node7&#45;&gt;Node8</title>
<g id="a_edge9_Node000007_Node000008"><a xlink:title=" ">
<path fill="none" stroke="#63b8ff" d="M586.73,-55.55C621.25,-45.03 666.1,-31.37 696.99,-21.97"/>
<polygon fill="#63b8ff" stroke="#63b8ff" points="697.7,-25.41 706.25,-19.15 695.66,-18.71 697.7,-25.41"/>
</a>
</g>
</g>
<!-- Node9 -->
<g id="Node000009" class="node">
<title>Node9</title>
<g id="a_Node000009"><a xlink:href="platform_8h.html" target="_top" xlink:title=" ">
<polygon fill="white" stroke="#666666" points="614.38,-20 555.62,-20 555.62,0 614.38,0 614.38,-20"/>
<text text-anchor="middle" x="585" y="-6.5" font-family="Helvetica,sans-Serif" font-size="10.00">platform.h</text>
</a>
</g>
</g>
<!-- Node7&#45;&gt;Node9 -->
<g id="edge10_Node000007_Node000009" class="edge">
<title>Node7&#45;&gt;Node9</title>
<g id="a_edge10_Node000007_Node000009"><a xlink:title=" ">
<path fill="none" stroke="#63b8ff" d="M548.62,-55.55C555.21,-47.48 563.32,-37.55 570.21,-29.12"/>
<polygon fill="#63b8ff" stroke="#63b8ff" points="572.74,-31.54 576.36,-21.58 567.32,-27.11 572.74,-31.54"/>
</a>
</g>
</g>
<!-- Node10 -->
<g id="Node000010" class="node">
<title>Node10</title>
<g id="a_Node000010"><a xlink:title=" ">
<polygon fill="#e0e0e0" stroke="#999999" points="689.62,-20 632.38,-20 632.38,0 689.62,0 689.62,-20"/>
<text text-anchor="middle" x="661" y="-6.5" font-family="Helvetica,sans-Serif" font-size="10.00">functional</text>
</a>
</g>
</g>
<!-- Node7&#45;&gt;Node10 -->
<g id="edge11_Node000007_Node000010" class="edge">
<title>Node7&#45;&gt;Node10</title>
<g id="a_edge11_Node000007_Node000010"><a xlink:title=" ">
<path fill="none" stroke="#63b8ff" d="M568.19,-55.55C587.63,-46.22 612.23,-34.41 631.22,-25.29"/>
<polygon fill="#63b8ff" stroke="#63b8ff" points="632.53,-28.55 640.04,-21.06 629.51,-22.23 632.53,-28.55"/>
</a>
</g>
</g>
<!-- Node11 -->
<g id="Node000011" class="node">
<title>Node11</title>
<g id="a_Node000011"><a xlink:title=" ">
<polygon fill="#e0e0e0" stroke="#999999" points="537.12,-20 458.88,-20 458.88,0 537.12,0 537.12,-20"/>
<text text-anchor="middle" x="498" y="-6.5" font-family="Helvetica,sans-Serif" font-size="10.00">VkBootstrap.h</text>
</a>
</g>
</g>
<!-- Node7&#45;&gt;Node11 -->
<g id="edge12_Node000007_Node000011" class="edge">
<title>Node7&#45;&gt;Node11</title>
<g id="a_edge12_Node000007_Node000011"><a xlink:title=" ">
<path fill="none" stroke="#63b8ff" d="M526.21,-55.55C521.27,-47.74 515.22,-38.19 509.99,-29.94"/>
<polygon fill="#63b8ff" stroke="#63b8ff" points="513.08,-28.26 504.77,-21.69 507.16,-32.01 513.08,-28.26"/>
</a>
</g>
</g>
<!-- Node12 -->
<g id="Node000012" class="node">
<title>Node12</title>
<g id="a_Node000012"><a xlink:title=" ">
<polygon fill="#e0e0e0" stroke="#999999" points="440.88,-20 355.12,-20 355.12,0 440.88,0 440.88,-20"/>
<text text-anchor="middle" x="398" y="-6.5" font-family="Helvetica,sans-Serif" font-size="10.00">vk_mem_alloc.h</text>
</a>
</g>
</g>
<!-- Node7&#45;&gt;Node12 -->
<g id="edge13_Node000007_Node000012" class="edge">
<title>Node7&#45;&gt;Node12</title>
<g id="a_edge13_Node000007_Node000012"><a xlink:title=" ">
<path fill="none" stroke="#63b8ff" d="M500.46,-55.55C478.7,-46.09 451.08,-34.08 430,-24.91"/>
<polygon fill="#63b8ff" stroke="#63b8ff" points="431.59,-21.79 421.03,-21.01 428.8,-28.21 431.59,-21.79"/>
</a>
</g>
</g>
<!-- Node13&#45;&gt;Node7 -->
<g id="edge20_Node000013_Node000007" class="edge">
<title>Node13&#45;&gt;Node7</title>
<g id="a_edge20_Node000013_Node000007"><a xlink:title=" ">
<path fill="none" stroke="#63b8ff" d="M631.69,-123.53C614.85,-114.63 593.46,-103.34 575.19,-93.69"/>
<polygon fill="#63b8ff" stroke="#63b8ff" points="576.94,-90.66 566.46,-89.08 573.67,-96.85 576.94,-90.66"/>
</a>
</g>
</g>
<!-- Node13&#45;&gt;Node8 -->
<g id="edge18_Node000013_Node000008" class="edge">
<title>Node13&#45;&gt;Node8</title>
<g id="a_edge18_Node000013_Node000008"><a xlink:title=" ">
<path fill="none" stroke="#63b8ff" d="M669.68,-123.56C682.85,-100.16 707.83,-55.75 722.16,-30.27"/>
<polygon fill="#63b8ff" stroke="#63b8ff" points="725.16,-32.08 727.01,-21.65 719.06,-28.65 725.16,-32.08"/>
</a>
</g>
</g>
<!-- Node13&#45;&gt;Node9 -->
<g id="edge19_Node000013_Node000009" class="edge">
<title>Node13&#45;&gt;Node9</title>
<g id="a_edge19_Node000013_Node000009"><a xlink:title=" ">
<path fill="none" stroke="#63b8ff" d="M651.83,-123.56C637.88,-100.06 611.33,-55.35 596.24,-29.92"/>
<polygon fill="#63b8ff" stroke="#63b8ff" points="599.43,-28.44 591.31,-21.63 593.41,-32.01 599.43,-28.44"/>
</a>
</g>
</g>
<!-- Node13&#45;&gt;Node10 -->
<g id="edge17_Node000013_Node000010" class="edge">
<title>Node13&#45;&gt;Node10</title>
<g id="a_edge17_Node000013_Node000010"><a xlink:title=" ">
<path fill="none" stroke="#63b8ff" d="M661,-123.56C661,-100.58 661,-57.34 661,-31.66"/>
<polygon fill="#63b8ff" stroke="#63b8ff" points="664.5,-31.84 661,-21.84 657.5,-31.84 664.5,-31.84"/>
</a>
</g>
</g>
<!-- Node14&#45;&gt;Node3 -->
<g id="edge22_Node000014_Node000003" class="edge">
<title>Node14&#45;&gt;Node3</title>
<g id="a_edge22_Node000014_Node000003"><a xlink:title=" ">
<path fill="none" stroke="#63b8ff" d="M177.45,-191.69C186.06,-181.9 197.26,-169.15 206.28,-158.89"/>
<polygon fill="#63b8ff" stroke="#63b8ff" points="208.84,-161.28 212.81,-151.45 203.58,-156.65 208.84,-161.28"/>
</a>
</g>
</g>
<!-- Node14&#45;&gt;Node4 -->
<g id="edge23_Node000014_Node000004" class="edge">
<title>Node14&#45;&gt;Node4</title>
<g id="a_edge23_Node000014_Node000004"><a xlink:title=" ">
<path fill="none" stroke="#63b8ff" d="M168.71,-191.8C174.05,-175 183.29,-147.24 193,-124 197.43,-113.39 203.02,-101.87 207.78,-92.46"/>
<polygon fill="#63b8ff" stroke="#63b8ff" points="210.88,-94.08 212.36,-83.59 204.66,-90.87 210.88,-94.08"/>
</a>
</g>
</g>
<!-- Node14&#45;&gt;Node5 -->
<g id="edge25_Node000014_Node000005" class="edge">
<title>Node14&#45;&gt;Node5</title>
<g id="a_edge25_Node000014_Node000005"><a xlink:title=" ">
<path fill="none" stroke="#63b8ff" d="M131.28,-191.55C117.42,-183.14 102.71,-171.3 95,-156 88.6,-143.3 88.44,-136.62 95,-124 124.4,-67.49 194.89,-37.58 244.05,-23.03"/>
<polygon fill="#63b8ff" stroke="#63b8ff" points="244.99,-26.4 253.66,-20.31 243.08,-19.66 244.99,-26.4"/>
</a>
</g>
</g>
<!-- Node14&#45;&gt;Node6 -->
<g id="edge27_Node000014_Node000006" class="edge">
<title>Node14&#45;&gt;Node6</title>
<g id="a_edge27_Node000014_Node000006"><a xlink:title=" ">
<path fill="none" stroke="#63b8ff" d="M220.03,-191.53C254.67,-181.96 299.33,-169.63 335.85,-159.54"/>
<polygon fill="#63b8ff" stroke="#63b8ff" points="336.74,-162.93 345.44,-156.89 334.87,-156.18 336.74,-162.93"/>
</a>
</g>
</g>
<!-- Node14&#45;&gt;Node7 -->
<g id="edge26_Node000014_Node000007" class="edge">
<title>Node14&#45;&gt;Node7</title>
<g id="a_edge26_Node000014_Node000007"><a xlink:title=" ">
<path fill="none" stroke="#63b8ff" d="M224.32,-202.87C303.62,-196.49 437.7,-182.17 479,-156 500.35,-142.47 515.77,-117.74 525.15,-98.78"/>
<polygon fill="#63b8ff" stroke="#63b8ff" points="528.29,-100.33 529.33,-89.79 521.94,-97.38 528.29,-100.33"/>
</a>
</g>
</g>
<!-- Node15 -->
<g id="Node000015" class="node">
<title>Node15</title>
<g id="a_Node000015"><a xlink:title=" ">
<polygon fill="#e0e0e0" stroke="#999999" points="145.75,-150 104.25,-150 104.25,-130 145.75,-130 145.75,-150"/>
<text text-anchor="middle" x="125" y="-136.5" font-family="Helvetica,sans-Serif" font-size="10.00">vector</text>
</a>
</g>
</g>
<!-- Node14&#45;&gt;Node15 -->
<g id="edge24_Node000014_Node000015" class="edge">
<title>Node14&#45;&gt;Node15</title>
<g id="a_edge24_Node000014_Node000015"><a xlink:title=" ">
<path fill="none" stroke="#63b8ff" d="M154.95,-191.69C149.4,-182.3 142.24,-170.18 136.32,-160.15"/>
<polygon fill="#63b8ff" stroke="#63b8ff" points="139.38,-158.45 131.28,-151.62 133.35,-162.01 139.38,-158.45"/>
</a>
</g>
</g>
</g>
</svg>
