<?xml version="1.0" encoding="UTF-8" standalone="no"?>
<!DOCTYPE svg PUBLIC "-//W3C//DTD SVG 1.1//EN"
 "http://www.w3.org/Graphics/SVG/1.1/DTD/svg11.dtd">
<!-- Generated by graphviz version 10.0.1 (20240210.2158)
 -->
<!-- Title: hybrid&#45;renderer&#45;lib/src/renderer_internal/sampler.cpp Pages: 1 -->
<svg width="510pt" height="232pt"
 viewBox="0.00 0.00 509.50 232.00" xmlns="http://www.w3.org/2000/svg" xmlns:xlink="http://www.w3.org/1999/xlink">
<g id="graph0" class="graph" transform="scale(1 1) rotate(0) translate(4 228)">
<title>hybrid&#45;renderer&#45;lib/src/renderer_internal/sampler.cpp</title>
<!-- Node1 -->
<g id="Node000001" class="node">
<title>Node1</title>
<g id="a_Node000001"><a xlink:title=" ">
<polygon fill="#999999" stroke="#666666" points="176.38,-224 68.88,-224 68.88,-180 176.38,-180 176.38,-224"/>
<text text-anchor="start" x="76.88" y="-210.5" font-family="Helvetica,sans-Serif" font-size="10.00">hybrid&#45;renderer&#45;lib</text>
<text text-anchor="start" x="76.88" y="-198.5" font-family="Helvetica,sans-Serif" font-size="10.00">/src/renderer_internal</text>
<text text-anchor="middle" x="122.62" y="-186.5" font-family="Helvetica,sans-Serif" font-size="10.00">/sampler.cpp</text>
</a>
</g>
</g>
<!-- Node2 -->
<g id="Node000002" class="node">
<title>Node2</title>
<g id="a_Node000002"><a xlink:href="sampler_8h.html" target="_top" xlink:title=" ">
<polygon fill="white" stroke="#666666" points="189.5,-144 55.75,-144 55.75,-124 189.5,-124 189.5,-144"/>
<text text-anchor="middle" x="122.62" y="-130.5" font-family="Helvetica,sans-Serif" font-size="10.00">renderer_internal/sampler.h</text>
</a>
</g>
</g>
<!-- Node1&#45;&gt;Node2 -->
<g id="edge1_Node000001_Node000002" class="edge">
<title>Node1&#45;&gt;Node2</title>
<g id="a_edge1_Node000001_Node000002"><a xlink:title=" ">
<path fill="none" stroke="#63b8ff" d="M122.62,-179.75C122.62,-172.13 122.62,-163.53 122.62,-155.93"/>
<polygon fill="#63b8ff" stroke="#63b8ff" points="126.13,-155.93 122.63,-145.93 119.13,-155.93 126.13,-155.93"/>
</a>
</g>
</g>
<!-- Node3 -->
<g id="Node000003" class="node">
<title>Node3</title>
<g id="a_Node000003"><a xlink:title=" ">
<polygon fill="#e0e0e0" stroke="#999999" points="81.25,-20 0,-20 0,0 81.25,0 81.25,-20"/>
<text text-anchor="middle" x="40.62" y="-6.5" font-family="Helvetica,sans-Serif" font-size="10.00">vulkan/vulkan.h</text>
</a>
</g>
</g>
<!-- Node1&#45;&gt;Node3 -->
<g id="edge10_Node000001_Node000003" class="edge">
<title>Node1&#45;&gt;Node3</title>
<g id="a_edge10_Node000001_Node000003"><a xlink:title=" ">
<path fill="none" stroke="#63b8ff" d="M80.94,-179.54C67.61,-170.47 54.33,-158.58 46.62,-144 27.7,-108.19 31.87,-59.08 36.39,-31.66"/>
<polygon fill="#63b8ff" stroke="#63b8ff" points="39.82,-32.37 38.2,-21.9 32.94,-31.09 39.82,-32.37"/>
</a>
</g>
</g>
<!-- Node4 -->
<g id="Node000004" class="node">
<title>Node4</title>
<g id="a_Node000004"><a xlink:href="render__context_8h.html" target="_top" xlink:title=" ">
<polygon fill="white" stroke="#666666" points="265.62,-88 147.62,-88 147.62,-56 265.62,-56 265.62,-88"/>
<text text-anchor="start" x="155.62" y="-74.5" font-family="Helvetica,sans-Serif" font-size="10.00">renderer_internal/render</text>
<text text-anchor="middle" x="206.62" y="-62.5" font-family="Helvetica,sans-Serif" font-size="10.00">_context.h</text>
</a>
</g>
</g>
<!-- Node1&#45;&gt;Node4 -->
<g id="edge11_Node000001_Node000004" class="edge">
<title>Node1&#45;&gt;Node4</title>
<g id="a_edge11_Node000001_Node000004"><a xlink:title=" ">
<path fill="none" stroke="#63b8ff" d="M163.37,-179.52C176.78,-170.38 190.35,-158.46 198.62,-144 206.2,-130.76 208.34,-113.86 208.53,-99.86"/>
<polygon fill="#63b8ff" stroke="#63b8ff" points="212.03,-99.91 208.3,-90 205.03,-100.07 212.03,-99.91"/>
</a>
</g>
</g>
<!-- Node2&#45;&gt;Node3 -->
<g id="edge2_Node000002_Node000003" class="edge">
<title>Node2&#45;&gt;Node3</title>
<g id="a_edge2_Node000002_Node000003"><a xlink:title=" ">
<path fill="none" stroke="#63b8ff" d="M116.46,-123.83C103.05,-103.87 70.97,-56.15 53.13,-29.61"/>
<polygon fill="#63b8ff" stroke="#63b8ff" points="56.19,-27.88 47.7,-21.53 50.38,-31.78 56.19,-27.88"/>
</a>
</g>
</g>
<!-- Node2&#45;&gt;Node4 -->
<g id="edge3_Node000002_Node000004" class="edge">
<title>Node2&#45;&gt;Node4</title>
<g id="a_edge3_Node000002_Node000004"><a xlink:title=" ">
<path fill="none" stroke="#63b8ff" d="M135.75,-123.62C146.47,-115.97 162.06,-104.83 175.89,-94.95"/>
<polygon fill="#63b8ff" stroke="#63b8ff" points="177.77,-97.91 183.87,-89.25 173.7,-92.22 177.77,-97.91"/>
</a>
</g>
</g>
<!-- Node4&#45;&gt;Node3 -->
<g id="edge9_Node000004_Node000003" class="edge">
<title>Node4&#45;&gt;Node3</title>
<g id="a_edge9_Node000004_Node000003"><a xlink:title=" ">
<path fill="none" stroke="#63b8ff" d="M163.88,-55.55C137.1,-45.87 102.95,-33.53 77.38,-24.29"/>
<polygon fill="#63b8ff" stroke="#63b8ff" points="78.67,-21.03 68.08,-20.92 76.29,-27.61 78.67,-21.03"/>
</a>
</g>
</g>
<!-- Node5 -->
<g id="Node000005" class="node">
<title>Node5</title>
<g id="a_Node000005"><a xlink:href="config_8h.html" target="_top" xlink:title=" ">
<polygon fill="white" stroke="#666666" points="149.5,-20 99.75,-20 99.75,0 149.5,0 149.5,-20"/>
<text text-anchor="middle" x="124.62" y="-6.5" font-family="Helvetica,sans-Serif" font-size="10.00">config.h</text>
</a>
</g>
</g>
<!-- Node4&#45;&gt;Node5 -->
<g id="edge4_Node000004_Node000005" class="edge">
<title>Node4&#45;&gt;Node5</title>
<g id="a_edge4_Node000004_Node000005"><a xlink:title=" ">
<path fill="none" stroke="#63b8ff" d="M185.51,-55.55C173.53,-46.78 158.55,-35.83 146.46,-26.97"/>
<polygon fill="#63b8ff" stroke="#63b8ff" points="148.84,-24.38 138.7,-21.3 144.71,-30.03 148.84,-24.38"/>
</a>
</g>
</g>
<!-- Node6 -->
<g id="Node000006" class="node">
<title>Node6</title>
<g id="a_Node000006"><a xlink:href="platform_8h.html" target="_top" xlink:title=" ">
<polygon fill="white" stroke="#666666" points="226,-20 167.25,-20 167.25,0 226,0 226,-20"/>
<text text-anchor="middle" x="196.62" y="-6.5" font-family="Helvetica,sans-Serif" font-size="10.00">platform.h</text>
</a>
</g>
</g>
<!-- Node4&#45;&gt;Node6 -->
<g id="edge5_Node000004_Node000006" class="edge">
<title>Node4&#45;&gt;Node6</title>
<g id="a_edge5_Node000004_Node000006"><a xlink:title=" ">
<path fill="none" stroke="#63b8ff" d="M204.05,-55.55C202.83,-48.26 201.37,-39.45 200.06,-31.6"/>
<polygon fill="#63b8ff" stroke="#63b8ff" points="203.54,-31.19 198.44,-21.9 196.63,-32.34 203.54,-31.19"/>
</a>
</g>
</g>
<!-- Node7 -->
<g id="Node000007" class="node">
<title>Node7</title>
<g id="a_Node000007"><a xlink:title=" ">
<polygon fill="#e0e0e0" stroke="#999999" points="301.25,-20 244,-20 244,0 301.25,0 301.25,-20"/>
<text text-anchor="middle" x="272.62" y="-6.5" font-family="Helvetica,sans-Serif" font-size="10.00">functional</text>
</a>
</g>
</g>
<!-- Node4&#45;&gt;Node7 -->
<g id="edge6_Node000004_Node000007" class="edge">
<title>Node4&#45;&gt;Node7</title>
<g id="a_edge6_Node000004_Node000007"><a xlink:title=" ">
<path fill="none" stroke="#63b8ff" d="M223.62,-55.55C232.88,-47.13 244.36,-36.69 253.89,-28.04"/>
<polygon fill="#63b8ff" stroke="#63b8ff" points="256.11,-30.74 261.16,-21.43 251.4,-25.56 256.11,-30.74"/>
</a>
</g>
</g>
<!-- Node8 -->
<g id="Node000008" class="node">
<title>Node8</title>
<g id="a_Node000008"><a xlink:title=" ">
<polygon fill="#e0e0e0" stroke="#999999" points="397.75,-20 319.5,-20 319.5,0 397.75,0 397.75,-20"/>
<text text-anchor="middle" x="358.62" y="-6.5" font-family="Helvetica,sans-Serif" font-size="10.00">VkBootstrap.h</text>
</a>
</g>
</g>
<!-- Node4&#45;&gt;Node8 -->
<g id="edge7_Node000004_Node000008" class="edge">
<title>Node4&#45;&gt;Node8</title>
<g id="a_edge7_Node000004_Node000008"><a xlink:title=" ">
<path fill="none" stroke="#63b8ff" d="M245.77,-55.55C270.07,-45.96 301,-33.75 324.33,-24.54"/>
<polygon fill="#63b8ff" stroke="#63b8ff" points="325.37,-27.89 333.38,-20.96 322.8,-21.38 325.37,-27.89"/>
</a>
</g>
</g>
<!-- Node9 -->
<g id="Node000009" class="node">
<title>Node9</title>
<g id="a_Node000009"><a xlink:title=" ">
<polygon fill="#e0e0e0" stroke="#999999" points="501.5,-20 415.75,-20 415.75,0 501.5,0 501.5,-20"/>
<text text-anchor="middle" x="458.62" y="-6.5" font-family="Helvetica,sans-Serif" font-size="10.00">vk_mem_alloc.h</text>
</a>
</g>
</g>
<!-- Node4&#45;&gt;Node9 -->
<g id="edge8_Node000004_Node000009" class="edge">
<title>Node4&#45;&gt;Node9</title>
<g id="a_edge8_Node000004_Node000009"><a xlink:title=" ">
<path fill="none" stroke="#63b8ff" d="M266.03,-56.86C309.12,-46.6 366.8,-32.86 407.77,-23.11"/>
<polygon fill="#63b8ff" stroke="#63b8ff" points="408.47,-26.54 417.39,-20.82 406.85,-19.73 408.47,-26.54"/>
</a>
</g>
</g>
</g>
</svg>
