<?xml version="1.0" encoding="UTF-8" standalone="no"?>
<!DOCTYPE svg PUBLIC "-//W3C//DTD SVG 1.1//EN"
 "http://www.w3.org/Graphics/SVG/1.1/DTD/svg11.dtd">
<!-- Generated by graphviz version 10.0.1 (20240210.2158)
 -->
<!-- Title: demo/include/scene.h Pages: 1 -->
<svg width="399pt" height="196pt"
 viewBox="0.00 0.00 398.88 196.00" xmlns="http://www.w3.org/2000/svg" xmlns:xlink="http://www.w3.org/1999/xlink">
<g id="graph0" class="graph" transform="scale(1 1) rotate(0) translate(4 192)">
<title>demo/include/scene.h</title>
<!-- Node1 -->
<g id="Node000001" class="node">
<title>Node1</title>
<g id="a_Node000001"><a xlink:title=" ">
<polygon fill="#999999" stroke="#666666" points="206.25,-188 95,-188 95,-168 206.25,-168 206.25,-188"/>
<text text-anchor="middle" x="150.62" y="-174.5" font-family="Helvetica,sans-Serif" font-size="10.00">demo/include/scene.h</text>
</a>
</g>
</g>
<!-- Node2 -->
<g id="Node000002" class="node">
<title>Node2</title>
<g id="a_Node000002"><a xlink:href="renderer_8h.html" target="_top" xlink:title=" ">
<polygon fill="white" stroke="#666666" points="171.75,-76 51.5,-76 51.5,-56 171.75,-56 171.75,-76"/>
<text text-anchor="middle" x="111.62" y="-62.5" font-family="Helvetica,sans-Serif" font-size="10.00">demo/include/renderer.h</text>
</a>
</g>
</g>
<!-- Node1&#45;&gt;Node2 -->
<g id="edge1_Node000001_Node000002" class="edge">
<title>Node1&#45;&gt;Node2</title>
<g id="a_edge1_Node000001_Node000002"><a xlink:title=" ">
<path fill="none" stroke="#63b8ff" d="M136.18,-158.48C130.81,-150.7 125.15,-141.31 121.62,-132 114.42,-113 112.4,-89 111.84,-76.13"/>
<polygon fill="#63b8ff" stroke="#63b8ff" points="133.27,-160.42 142,-166.41 138.91,-156.28 133.27,-160.42"/>
</a>
</g>
</g>
<!-- Node3 -->
<g id="Node000003" class="node">
<title>Node3</title>
<g id="a_Node000003"><a xlink:href="main_8cpp.html" target="_top" xlink:title=" ">
<polygon fill="white" stroke="#666666" points="99.25,-20 0,-20 0,0 99.25,0 99.25,-20"/>
<text text-anchor="middle" x="49.62" y="-6.5" font-family="Helvetica,sans-Serif" font-size="10.00">demo/src/main.cpp</text>
</a>
</g>
</g>
<!-- Node1&#45;&gt;Node3 -->
<g id="edge8_Node000001_Node000003" class="edge">
<title>Node1&#45;&gt;Node3</title>
<g id="a_edge8_Node000001_Node000003"><a xlink:title=" ">
<path fill="none" stroke="#63b8ff" d="M124.11,-161.44C97.82,-144.3 59.14,-114.05 42.62,-76 34.58,-57.47 41.11,-33.28 45.83,-20.26"/>
<polygon fill="#63b8ff" stroke="#63b8ff" points="122.24,-164.39 132.57,-166.75 125.97,-158.47 122.24,-164.39"/>
</a>
</g>
</g>
<!-- Node5 -->
<g id="Node000005" class="node">
<title>Node5</title>
<g id="a_Node000005"><a xlink:href="subsystems_8h.html" target="_top" xlink:title=" ">
<polygon fill="white" stroke="#666666" points="268.75,-132 130.5,-132 130.5,-112 268.75,-112 268.75,-132"/>
<text text-anchor="middle" x="199.62" y="-118.5" font-family="Helvetica,sans-Serif" font-size="10.00">demo/include/subsystems.h</text>
</a>
</g>
</g>
<!-- Node1&#45;&gt;Node5 -->
<g id="edge4_Node000001_Node000005" class="edge">
<title>Node1&#45;&gt;Node5</title>
<g id="a_edge4_Node000001_Node000005"><a xlink:title=" ">
<path fill="none" stroke="#63b8ff" d="M166.7,-159.29C174.87,-150.28 184.47,-139.7 191.19,-132.3"/>
<polygon fill="#63b8ff" stroke="#63b8ff" points="164.31,-156.72 160.18,-166.47 169.49,-161.42 164.31,-156.72"/>
</a>
</g>
</g>
<!-- Node7 -->
<g id="Node000007" class="node">
<title>Node7</title>
<g id="a_Node000007"><a xlink:href="scene_8cpp.html" target="_top" xlink:title=" ">
<polygon fill="white" stroke="#666666" points="390.88,-132 286.38,-132 286.38,-112 390.88,-112 390.88,-132"/>
<text text-anchor="middle" x="338.62" y="-118.5" font-family="Helvetica,sans-Serif" font-size="10.00">demo/src/scene.cpp</text>
</a>
</g>
</g>
<!-- Node1&#45;&gt;Node7 -->
<g id="edge9_Node000001_Node000007" class="edge">
<title>Node1&#45;&gt;Node7</title>
<g id="a_edge9_Node000001_Node000007"><a xlink:title=" ">
<path fill="none" stroke="#63b8ff" d="M194.38,-164.43C228.35,-154.67 274.72,-141.35 305.62,-132.48"/>
<polygon fill="#63b8ff" stroke="#63b8ff" points="193.47,-161.05 184.83,-167.18 195.4,-167.78 193.47,-161.05"/>
</a>
</g>
</g>
<!-- Node2&#45;&gt;Node3 -->
<g id="edge2_Node000002_Node000003" class="edge">
<title>Node2&#45;&gt;Node3</title>
<g id="a_edge2_Node000002_Node000003"><a xlink:title=" ">
<path fill="none" stroke="#63b8ff" d="M92.25,-48.13C81.71,-38.94 69.07,-27.93 60.3,-20.3"/>
<polygon fill="#63b8ff" stroke="#63b8ff" points="89.84,-50.67 99.68,-54.6 94.44,-45.39 89.84,-50.67"/>
</a>
</g>
</g>
<!-- Node4 -->
<g id="Node000004" class="node">
<title>Node4</title>
<g id="a_Node000004"><a xlink:href="renderer_8cpp.html" target="_top" xlink:title=" ">
<polygon fill="white" stroke="#666666" points="243.38,-20 129.88,-20 129.88,0 243.38,0 243.38,-20"/>
<text text-anchor="middle" x="186.62" y="-6.5" font-family="Helvetica,sans-Serif" font-size="10.00">demo/src/renderer.cpp</text>
</a>
</g>
</g>
<!-- Node2&#45;&gt;Node4 -->
<g id="edge3_Node000002_Node000004" class="edge">
<title>Node2&#45;&gt;Node4</title>
<g id="a_edge3_Node000002_Node000004"><a xlink:title=" ">
<path fill="none" stroke="#63b8ff" d="M133.85,-49C146.74,-39.72 162.53,-28.35 173.46,-20.48"/>
<polygon fill="#63b8ff" stroke="#63b8ff" points="131.99,-46.03 125.92,-54.71 136.08,-51.71 131.99,-46.03"/>
</a>
</g>
</g>
<!-- Node5&#45;&gt;Node2 -->
<g id="edge5_Node000005_Node000002" class="edge">
<title>Node5&#45;&gt;Node2</title>
<g id="a_edge5_Node000005_Node000002"><a xlink:title=" ">
<path fill="none" stroke="#63b8ff" d="M174.87,-105.81C159.52,-96.39 140.28,-84.58 127.07,-76.48"/>
<polygon fill="#63b8ff" stroke="#63b8ff" points="172.65,-108.56 183.01,-110.8 176.31,-102.59 172.65,-108.56"/>
</a>
</g>
</g>
<!-- Node5&#45;&gt;Node4 -->
<g id="edge6_Node000005_Node000004" class="edge">
<title>Node5&#45;&gt;Node4</title>
<g id="a_edge6_Node000005_Node000004"><a xlink:title=" ">
<path fill="none" stroke="#63b8ff" d="M197.18,-100.31C194.35,-76.36 189.81,-37.95 187.73,-20.35"/>
<polygon fill="#63b8ff" stroke="#63b8ff" points="193.69,-100.6 198.34,-110.12 200.64,-99.78 193.69,-100.6"/>
</a>
</g>
</g>
<!-- Node6 -->
<g id="Node000006" class="node">
<title>Node6</title>
<g id="a_Node000006"><a xlink:href="subsystems_8cpp.html" target="_top" xlink:title=" ">
<polygon fill="white" stroke="#666666" points="359.38,-76 227.88,-76 227.88,-56 359.38,-56 359.38,-76"/>
<text text-anchor="middle" x="293.62" y="-62.5" font-family="Helvetica,sans-Serif" font-size="10.00">demo/src/subsystems.cpp</text>
</a>
</g>
</g>
<!-- Node5&#45;&gt;Node6 -->
<g id="edge7_Node000005_Node000006" class="edge">
<title>Node5&#45;&gt;Node6</title>
<g id="a_edge7_Node000005_Node000006"><a xlink:title=" ">
<path fill="none" stroke="#63b8ff" d="M225.6,-106.08C242.07,-96.62 262.88,-84.66 277.12,-76.48"/>
<polygon fill="#63b8ff" stroke="#63b8ff" points="224.24,-102.82 217.31,-110.84 227.73,-108.89 224.24,-102.82"/>
</a>
</g>
</g>
</g>
</svg>
