<?xml version="1.0" encoding="UTF-8" standalone="no"?>
<!DOCTYPE svg PUBLIC "-//W3C//DTD SVG 1.1//EN"
 "http://www.w3.org/Graphics/SVG/1.1/DTD/svg11.dtd">
<!-- Generated by graphviz version 10.0.1 (20240210.2158)
 -->
<!-- Title: hybrid&#45;renderer&#45;lib/src/scene.cpp Pages: 1 -->
<svg width="252pt" height="264pt"
 viewBox="0.00 0.00 252.00 264.00" xmlns="http://www.w3.org/2000/svg" xmlns:xlink="http://www.w3.org/1999/xlink">
<g id="graph0" class="graph" transform="scale(1 1) rotate(0) translate(4 260)">
<title>hybrid&#45;renderer&#45;lib/src/scene.cpp</title>
<!-- Node1 -->
<g id="Node000001" class="node">
<title>Node1</title>
<g id="a_Node000001"><a xlink:title=" ">
<polygon fill="#999999" stroke="#666666" points="244,-256 150.75,-256 150.75,-224 244,-224 244,-256"/>
<text text-anchor="start" x="158.75" y="-242.5" font-family="Helvetica,sans-Serif" font-size="10.00">hybrid&#45;renderer&#45;lib</text>
<text text-anchor="middle" x="197.38" y="-230.5" font-family="Helvetica,sans-Serif" font-size="10.00">/src/scene.cpp</text>
</a>
</g>
</g>
<!-- Node2 -->
<g id="Node000002" class="node">
<title>Node2</title>
<g id="a_Node000002"><a xlink:href="scene_8h.html" target="_top" xlink:title=" ">
<polygon fill="white" stroke="#666666" points="222.62,-188 172.12,-188 172.12,-168 222.62,-168 222.62,-188"/>
<text text-anchor="middle" x="197.38" y="-174.5" font-family="Helvetica,sans-Serif" font-size="10.00">scene.h</text>
</a>
</g>
</g>
<!-- Node1&#45;&gt;Node2 -->
<g id="edge1_Node000001_Node000002" class="edge">
<title>Node1&#45;&gt;Node2</title>
<g id="a_edge1_Node000001_Node000002"><a xlink:title=" ">
<path fill="none" stroke="#63b8ff" d="M197.38,-223.55C197.38,-216.34 197.38,-207.66 197.38,-199.88"/>
<polygon fill="#63b8ff" stroke="#63b8ff" points="200.88,-199.92 197.38,-189.92 193.88,-199.92 200.88,-199.92"/>
</a>
</g>
</g>
<!-- Node3 -->
<g id="Node000003" class="node">
<title>Node3</title>
<g id="a_Node000003"><a xlink:title=" ">
<polygon fill="#e0e0e0" stroke="#999999" points="242.12,-76 200.62,-76 200.62,-56 242.12,-56 242.12,-76"/>
<text text-anchor="middle" x="221.38" y="-62.5" font-family="Helvetica,sans-Serif" font-size="10.00">vector</text>
</a>
</g>
</g>
<!-- Node1&#45;&gt;Node3 -->
<g id="edge12_Node000001_Node000003" class="edge">
<title>Node1&#45;&gt;Node3</title>
<g id="a_edge12_Node000001_Node000003"><a xlink:title=" ">
<path fill="none" stroke="#63b8ff" d="M211.06,-223.72C218.66,-214.18 227.37,-201.24 231.38,-188 241.73,-153.81 233.99,-111.87 227.58,-87.41"/>
<polygon fill="#63b8ff" stroke="#63b8ff" points="230.95,-86.48 224.86,-77.81 224.22,-88.39 230.95,-86.48"/>
</a>
</g>
</g>
<!-- Node8 -->
<g id="Node000008" class="node">
<title>Node8</title>
<g id="a_Node000008"><a xlink:href="mesh_8h.html" target="_top" xlink:title=" ">
<polygon fill="white" stroke="#666666" points="184.5,-132 136.25,-132 136.25,-112 184.5,-112 184.5,-132"/>
<text text-anchor="middle" x="160.38" y="-118.5" font-family="Helvetica,sans-Serif" font-size="10.00">mesh.h</text>
</a>
</g>
</g>
<!-- Node1&#45;&gt;Node8 -->
<g id="edge13_Node000001_Node000008" class="edge">
<title>Node1&#45;&gt;Node8</title>
<g id="a_edge13_Node000001_Node000008"><a xlink:title=" ">
<path fill="none" stroke="#63b8ff" d="M183.91,-223.65C176.39,-214.09 167.69,-201.14 163.38,-188 158.67,-173.67 158.06,-156.61 158.55,-143.56"/>
<polygon fill="#63b8ff" stroke="#63b8ff" points="162.04,-143.82 159.2,-133.61 155.05,-143.37 162.04,-143.82"/>
</a>
</g>
</g>
<!-- Node2&#45;&gt;Node3 -->
<g id="edge2_Node000002_Node000003" class="edge">
<title>Node2&#45;&gt;Node3</title>
<g id="a_edge2_Node000002_Node000003"><a xlink:title=" ">
<path fill="none" stroke="#63b8ff" d="M199.42,-167.62C203.28,-149.92 211.72,-111.24 216.94,-87.32"/>
<polygon fill="#63b8ff" stroke="#63b8ff" points="220.3,-88.35 219.01,-77.83 213.46,-86.86 220.3,-88.35"/>
</a>
</g>
</g>
<!-- Node4 -->
<g id="Node000004" class="node">
<title>Node4</title>
<g id="a_Node000004"><a xlink:href="material_8h.html" target="_top" xlink:title=" ">
<polygon fill="white" stroke="#666666" points="117.75,-132 59,-132 59,-112 117.75,-112 117.75,-132"/>
<text text-anchor="middle" x="88.38" y="-118.5" font-family="Helvetica,sans-Serif" font-size="10.00">material.h</text>
</a>
</g>
</g>
<!-- Node2&#45;&gt;Node4 -->
<g id="edge3_Node000002_Node000004" class="edge">
<title>Node2&#45;&gt;Node4</title>
<g id="a_edge3_Node000002_Node000004"><a xlink:title=" ">
<path fill="none" stroke="#63b8ff" d="M178.39,-167.59C161.61,-159.28 136.88,-147.03 117.59,-137.47"/>
<polygon fill="#63b8ff" stroke="#63b8ff" points="119.38,-134.45 108.87,-133.15 116.27,-140.73 119.38,-134.45"/>
</a>
</g>
</g>
<!-- Node2&#45;&gt;Node8 -->
<g id="edge8_Node000002_Node000008" class="edge">
<title>Node2&#45;&gt;Node8</title>
<g id="a_edge8_Node000002_Node000008"><a xlink:title=" ">
<path fill="none" stroke="#63b8ff" d="M190.93,-167.59C186.05,-160.47 179.18,-150.45 173.2,-141.72"/>
<polygon fill="#63b8ff" stroke="#63b8ff" points="176.14,-139.82 167.6,-133.55 170.37,-143.77 176.14,-139.82"/>
</a>
</g>
</g>
<!-- Node5 -->
<g id="Node000005" class="node">
<title>Node5</title>
<g id="a_Node000005"><a xlink:href="platform_8h.html" target="_top" xlink:title=" ">
<polygon fill="white" stroke="#666666" points="58.75,-20 0,-20 0,0 58.75,0 58.75,-20"/>
<text text-anchor="middle" x="29.38" y="-6.5" font-family="Helvetica,sans-Serif" font-size="10.00">platform.h</text>
</a>
</g>
</g>
<!-- Node4&#45;&gt;Node5 -->
<g id="edge4_Node000004_Node000005" class="edge">
<title>Node4&#45;&gt;Node5</title>
<g id="a_edge4_Node000004_Node000005"><a xlink:title=" ">
<path fill="none" stroke="#63b8ff" d="M77.74,-111.64C68.73,-103.16 56.07,-89.9 48.38,-76 40.7,-62.12 35.83,-44.82 32.95,-31.56"/>
<polygon fill="#63b8ff" stroke="#63b8ff" points="36.4,-30.96 31.06,-21.81 29.53,-32.3 36.4,-30.96"/>
</a>
</g>
</g>
<!-- Node6 -->
<g id="Node000006" class="node">
<title>Node6</title>
<g id="a_Node000006"><a xlink:href="hri__math_8h.html" target="_top" xlink:title=" ">
<polygon fill="white" stroke="#666666" points="119.25,-76 57.5,-76 57.5,-56 119.25,-56 119.25,-76"/>
<text text-anchor="middle" x="88.38" y="-62.5" font-family="Helvetica,sans-Serif" font-size="10.00">hri_math.h</text>
</a>
</g>
</g>
<!-- Node4&#45;&gt;Node6 -->
<g id="edge5_Node000004_Node000006" class="edge">
<title>Node4&#45;&gt;Node6</title>
<g id="a_edge5_Node000004_Node000006"><a xlink:title=" ">
<path fill="none" stroke="#63b8ff" d="M88.38,-111.59C88.38,-105.01 88.38,-95.96 88.38,-87.73"/>
<polygon fill="#63b8ff" stroke="#63b8ff" points="91.88,-87.81 88.38,-77.81 84.88,-87.81 91.88,-87.81"/>
</a>
</g>
</g>
<!-- Node6&#45;&gt;Node5 -->
<g id="edge7_Node000006_Node000005" class="edge">
<title>Node6&#45;&gt;Node5</title>
<g id="a_edge7_Node000006_Node000005"><a xlink:title=" ">
<path fill="none" stroke="#63b8ff" d="M78.1,-55.59C69.81,-48.01 57.93,-37.13 47.97,-28.02"/>
<polygon fill="#63b8ff" stroke="#63b8ff" points="50.39,-25.49 40.65,-21.32 45.66,-30.65 50.39,-25.49"/>
</a>
</g>
</g>
<!-- Node7 -->
<g id="Node000007" class="node">
<title>Node7</title>
<g id="a_Node000007"><a xlink:title=" ">
<polygon fill="#e0e0e0" stroke="#999999" points="119.88,-20 76.88,-20 76.88,0 119.88,0 119.88,-20"/>
<text text-anchor="middle" x="98.38" y="-6.5" font-family="Helvetica,sans-Serif" font-size="10.00">cmath</text>
</a>
</g>
</g>
<!-- Node6&#45;&gt;Node7 -->
<g id="edge6_Node000006_Node000007" class="edge">
<title>Node6&#45;&gt;Node7</title>
<g id="a_edge6_Node000006_Node000007"><a xlink:title=" ">
<path fill="none" stroke="#63b8ff" d="M90.12,-55.59C91.35,-48.93 93.05,-39.75 94.59,-31.44"/>
<polygon fill="#63b8ff" stroke="#63b8ff" points="98,-32.26 96.38,-21.79 91.12,-30.98 98,-32.26"/>
</a>
</g>
</g>
<!-- Node8&#45;&gt;Node3 -->
<g id="edge10_Node000008_Node000003" class="edge">
<title>Node8&#45;&gt;Node3</title>
<g id="a_edge10_Node000008_Node000003"><a xlink:title=" ">
<path fill="none" stroke="#63b8ff" d="M171,-111.59C179.66,-103.93 192.11,-92.91 202.46,-83.75"/>
<polygon fill="#63b8ff" stroke="#63b8ff" points="204.57,-86.55 209.74,-77.3 199.93,-81.31 204.57,-86.55"/>
</a>
</g>
</g>
<!-- Node8&#45;&gt;Node6 -->
<g id="edge11_Node000008_Node000006" class="edge">
<title>Node8&#45;&gt;Node6</title>
<g id="a_edge11_Node000008_Node000006"><a xlink:title=" ">
<path fill="none" stroke="#63b8ff" d="M147.83,-111.59C137.41,-103.77 122.33,-92.46 109.96,-83.19"/>
<polygon fill="#63b8ff" stroke="#63b8ff" points="112.08,-80.41 101.98,-77.21 107.88,-86.01 112.08,-80.41"/>
</a>
</g>
</g>
<!-- Node9 -->
<g id="Node000009" class="node">
<title>Node9</title>
<g id="a_Node000009"><a xlink:title=" ">
<polygon fill="#e0e0e0" stroke="#999999" points="183,-76 137.75,-76 137.75,-56 183,-56 183,-76"/>
<text text-anchor="middle" x="160.38" y="-62.5" font-family="Helvetica,sans-Serif" font-size="10.00">cstdint</text>
</a>
</g>
</g>
<!-- Node8&#45;&gt;Node9 -->
<g id="edge9_Node000008_Node000009" class="edge">
<title>Node8&#45;&gt;Node9</title>
<g id="a_edge9_Node000008_Node000009"><a xlink:title=" ">
<path fill="none" stroke="#63b8ff" d="M160.38,-111.59C160.38,-105.01 160.38,-95.96 160.38,-87.73"/>
<polygon fill="#63b8ff" stroke="#63b8ff" points="163.88,-87.81 160.38,-77.81 156.88,-87.81 163.88,-87.81"/>
</a>
</g>
</g>
</g>
</svg>
