<?xml version="1.0" encoding="UTF-8" standalone="no"?>
<!DOCTYPE svg PUBLIC "-//W3C//DTD SVG 1.1//EN"
 "http://www.w3.org/Graphics/SVG/1.1/DTD/svg11.dtd">
<!-- Generated by graphviz version 10.0.1 (20240210.2158)
 -->
<!-- Title: hybrid&#45;renderer&#45;lib/include/scene.h Pages: 1 -->
<svg width="451pt" height="232pt"
 viewBox="0.00 0.00 451.00 232.00" xmlns="http://www.w3.org/2000/svg" xmlns:xlink="http://www.w3.org/1999/xlink">

<svg id="main" version="1.1" xmlns="http://www.w3.org/2000/svg" xmlns:xlink="http://www.w3.org/1999/xlink" xml:space="preserve" onload="init(evt)">
<style type="text/css"><![CDATA[
.node, .edge {opacity: 0.7;}
.node.selected, .edge.selected {opacity: 1;}
.edge:hover path { stroke: red; }
.edge:hover polygon { stroke: red; fill: red; }
]]></style>
<script type="application/ecmascript" xlink:href="svg.min.js"/>
<svg id="graph" class="graph">
<g id="graph0" class="graph" transform="scale(1 1) rotate(0) translate(4 228)">
<title>hybrid&#45;renderer&#45;lib/include/scene.h</title>
<!-- Node1 -->
<g id="Node000001" class="node">
<title>Node1</title>
<g id="a_Node000001"><a xlink:title=" ">
<polygon fill="#999999" stroke="#666666" points="355.12,-224 261.88,-224 261.88,-192 355.12,-192 355.12,-224"/>
<text text-anchor="start" x="269.88" y="-210.5" font-family="Helvetica,sans-Serif" font-size="10.00">hybrid&#45;renderer&#45;lib</text>
<text text-anchor="middle" x="308.5" y="-198.5" font-family="Helvetica,sans-Serif" font-size="10.00">/include/scene.h</text>
</a>
</g>
</g>
<!-- Node2 -->
<g id="Node000002" class="node">
<title>Node2</title>
<g id="a_Node000002"><a xlink:href="hybrid__renderer_8h.html" target="_top" xlink:title=" ">
<polygon fill="white" stroke="#666666" points="308.38,-156 180.62,-156 180.62,-124 308.38,-124 308.38,-156"/>
<text text-anchor="start" x="188.62" y="-142.5" font-family="Helvetica,sans-Serif" font-size="10.00">hybrid&#45;renderer&#45;lib</text>
<text text-anchor="middle" x="244.5" y="-130.5" font-family="Helvetica,sans-Serif" font-size="10.00">/include/hybrid_renderer.h</text>
</a>
</g>
</g>
<!-- Node1&#45;&gt;Node2 -->
<g id="edge1_Node000001_Node000002" class="edge">
<title>Node1&#45;&gt;Node2</title>
<g id="a_edge1_Node000001_Node000002"><a xlink:title=" ">
<path fill="none" stroke="#63b8ff" d="M285.64,-183.43C276.87,-174.38 267.09,-164.29 259.26,-156.22"/>
<polygon fill="#63b8ff" stroke="#63b8ff" points="283.13,-185.86 292.6,-190.61 288.15,-180.99 283.13,-185.86"/>
</a>
</g>
</g>
<!-- Node8 -->
<g id="Node000008" class="node">
<title>Node8</title>
<g id="a_Node000008"><a xlink:href="scene_8cpp.html" target="_top" xlink:title=" ">
<polygon fill="white" stroke="#666666" points="420.12,-156 326.88,-156 326.88,-124 420.12,-124 420.12,-156"/>
<text text-anchor="start" x="334.88" y="-142.5" font-family="Helvetica,sans-Serif" font-size="10.00">hybrid&#45;renderer&#45;lib</text>
<text text-anchor="middle" x="373.5" y="-130.5" font-family="Helvetica,sans-Serif" font-size="10.00">/src/scene.cpp</text>
</a>
</g>
</g>
<!-- Node1&#45;&gt;Node8 -->
<g id="edge9_Node000001_Node000008" class="edge">
<title>Node1&#45;&gt;Node8</title>
<g id="a_edge9_Node000001_Node000008"><a xlink:title=" ">
<path fill="none" stroke="#63b8ff" d="M331.44,-183.71C340.42,-174.59 350.48,-164.37 358.51,-156.22"/>
<polygon fill="#63b8ff" stroke="#63b8ff" points="329.16,-181.03 324.64,-190.61 334.15,-185.95 329.16,-181.03"/>
</a>
</g>
</g>
<!-- Node3 -->
<g id="Node000003" class="node">
<title>Node3</title>
<g id="a_Node000003"><a xlink:href="demo_8h.html" target="_top" xlink:title=" ">
<polygon fill="white" stroke="#666666" points="109,-82 0,-82 0,-62 109,-62 109,-82"/>
<text text-anchor="middle" x="54.5" y="-68.5" font-family="Helvetica,sans-Serif" font-size="10.00">demo/include/demo.h</text>
</a>
</g>
</g>
<!-- Node2&#45;&gt;Node3 -->
<g id="edge2_Node000002_Node000003" class="edge">
<title>Node2&#45;&gt;Node3</title>
<g id="a_edge2_Node000002_Node000003"><a xlink:title=" ">
<path fill="none" stroke="#63b8ff" d="M189.31,-119.83C153.98,-107.56 109.69,-92.17 81.73,-82.46"/>
<polygon fill="#63b8ff" stroke="#63b8ff" points="187.93,-123.05 198.52,-123.03 190.23,-116.44 187.93,-123.05"/>
</a>
</g>
</g>
<!-- Node5 -->
<g id="Node000005" class="node">
<title>Node5</title>
<g id="a_Node000005"><a xlink:href="subsystems_8h.html" target="_top" xlink:title=" ">
<polygon fill="white" stroke="#666666" points="265.62,-82 127.38,-82 127.38,-62 265.62,-62 265.62,-82"/>
<text text-anchor="middle" x="196.5" y="-68.5" font-family="Helvetica,sans-Serif" font-size="10.00">demo/include/subsystems.h</text>
</a>
</g>
</g>
<!-- Node2&#45;&gt;Node5 -->
<g id="edge4_Node000002_Node000005" class="edge">
<title>Node2&#45;&gt;Node5</title>
<g id="a_edge4_Node000002_Node000005"><a xlink:title=" ">
<path fill="none" stroke="#63b8ff" d="M226.83,-114.7C218.63,-103.43 209.38,-90.71 203.28,-82.32"/>
<polygon fill="#63b8ff" stroke="#63b8ff" points="223.76,-116.44 232.48,-122.47 229.43,-112.32 223.76,-116.44"/>
</a>
</g>
</g>
<!-- Node6 -->
<g id="Node000006" class="node">
<title>Node6</title>
<g id="a_Node000006"><a xlink:href="subsystems_8cpp.html" target="_top" xlink:title=" ">
<polygon fill="white" stroke="#666666" points="310.25,-20 178.75,-20 178.75,0 310.25,0 310.25,-20"/>
<text text-anchor="middle" x="244.5" y="-6.5" font-family="Helvetica,sans-Serif" font-size="10.00">demo/src/subsystems.cpp</text>
</a>
</g>
</g>
<!-- Node2&#45;&gt;Node6 -->
<g id="edge7_Node000002_Node000006" class="edge">
<title>Node2&#45;&gt;Node6</title>
<g id="a_edge7_Node000002_Node000006"><a xlink:title=" ">
<path fill="none" stroke="#63b8ff" d="M262.48,-114.46C267.36,-106.43 271.99,-97.2 274.5,-88 278.24,-74.28 278.62,-69.61 274.5,-56 270.36,-42.34 260.56,-29.04 253.28,-20.48"/>
<polygon fill="#63b8ff" stroke="#63b8ff" points="259.67,-112.36 257.12,-122.64 265.53,-116.19 259.67,-112.36"/>
</a>
</g>
</g>
<!-- Node7 -->
<g id="Node000007" class="node">
<title>Node7</title>
<g id="a_Node000007"><a xlink:href="hybrid__renderer_8cpp.html" target="_top" xlink:title=" ">
<polygon fill="white" stroke="#666666" points="443,-88 322,-88 322,-56 443,-56 443,-88"/>
<text text-anchor="start" x="330" y="-74.5" font-family="Helvetica,sans-Serif" font-size="10.00">hybrid&#45;renderer&#45;lib</text>
<text text-anchor="middle" x="382.5" y="-62.5" font-family="Helvetica,sans-Serif" font-size="10.00">/src/hybrid_renderer.cpp</text>
</a>
</g>
</g>
<!-- Node2&#45;&gt;Node7 -->
<g id="edge8_Node000002_Node000007" class="edge">
<title>Node2&#45;&gt;Node7</title>
<g id="a_edge8_Node000002_Node000007"><a xlink:title=" ">
<path fill="none" stroke="#63b8ff" d="M287.14,-118.61C307.53,-108.86 331.53,-97.38 350.35,-88.38"/>
<polygon fill="#63b8ff" stroke="#63b8ff" points="285.73,-115.4 278.22,-122.87 288.75,-121.72 285.73,-115.4"/>
</a>
</g>
</g>
<!-- Node4 -->
<g id="Node000004" class="node">
<title>Node4</title>
<g id="a_Node000004"><a xlink:href="main_8cpp.html" target="_top" xlink:title=" ">
<polygon fill="white" stroke="#666666" points="157.12,-20 57.88,-20 57.88,0 157.12,0 157.12,-20"/>
<text text-anchor="middle" x="107.5" y="-6.5" font-family="Helvetica,sans-Serif" font-size="10.00">demo/src/main.cpp</text>
</a>
</g>
</g>
<!-- Node3&#45;&gt;Node4 -->
<g id="edge3_Node000003_Node000004" class="edge">
<title>Node3&#45;&gt;Node4</title>
<g id="a_edge3_Node000003_Node000004"><a xlink:title=" ">
<path fill="none" stroke="#63b8ff" d="M70.18,-53.25C79.79,-42.36 91.71,-28.88 99.45,-20.11"/>
<polygon fill="#63b8ff" stroke="#63b8ff" points="67.78,-50.68 63.78,-60.49 73.03,-55.31 67.78,-50.68"/>
</a>
</g>
</g>
<!-- Node5&#45;&gt;Node4 -->
<g id="edge5_Node000005_Node000004" class="edge">
<title>Node5&#45;&gt;Node4</title>
<g id="a_edge5_Node000005_Node000004"><a xlink:title=" ">
<path fill="none" stroke="#63b8ff" d="M173.1,-55.22C156.62,-44.11 135.12,-29.62 121.31,-20.31"/>
<polygon fill="#63b8ff" stroke="#63b8ff" points="171.09,-58.09 181.34,-60.78 175,-52.29 171.09,-58.09"/>
</a>
</g>
</g>
<!-- Node5&#45;&gt;Node6 -->
<g id="edge6_Node000005_Node000006" class="edge">
<title>Node5&#45;&gt;Node6</title>
<g id="a_edge6_Node000005_Node000006"><a xlink:title=" ">
<path fill="none" stroke="#63b8ff" d="M210.96,-52.92C219.62,-42.1 230.27,-28.79 237.21,-20.11"/>
<polygon fill="#63b8ff" stroke="#63b8ff" points="208.46,-50.45 204.95,-60.44 213.93,-54.82 208.46,-50.45"/>
</a>
</g>
</g>
</g>
</svg>
</svg>

<style type='text/css'>
<![CDATA[
[data-mouse-over-selected='false'] { opacity: 0.7; }
[data-mouse-over-selected='true']  { opacity: 1.0; }
]]>
</style>
<script type="application/ecmascript"><![CDATA[
document.addEventListener('DOMContentLoaded', (event) => {
  highlightEdges();
  highlightAdjacentNodes();
});
]]></script>
</svg>
