<?xml version="1.0" encoding="UTF-8" standalone="no"?>
<!DOCTYPE svg PUBLIC "-//W3C//DTD SVG 1.1//EN"
 "http://www.w3.org/Graphics/SVG/1.1/DTD/svg11.dtd">
<!-- Generated by graphviz version 10.0.1 (20240210.2158)
 -->
<!-- Title: hybrid&#45;renderer&#45;lib/include/scene.h Pages: 1 -->
<svg width="250pt" height="208pt"
 viewBox="0.00 0.00 250.12 208.00" xmlns="http://www.w3.org/2000/svg" xmlns:xlink="http://www.w3.org/1999/xlink">
<g id="graph0" class="graph" transform="scale(1 1) rotate(0) translate(4 204)">
<title>hybrid&#45;renderer&#45;lib/include/scene.h</title>
<!-- Node1 -->
<g id="Node000001" class="node">
<title>Node1</title>
<g id="a_Node000001"><a xlink:title=" ">
<polygon fill="#999999" stroke="#666666" points="207,-200 113.75,-200 113.75,-168 207,-168 207,-200"/>
<text text-anchor="start" x="121.75" y="-186.5" font-family="Helvetica,sans-Serif" font-size="10.00">hybrid&#45;renderer&#45;lib</text>
<text text-anchor="middle" x="160.38" y="-174.5" font-family="Helvetica,sans-Serif" font-size="10.00">/include/scene.h</text>
</a>
</g>
</g>
<!-- Node2 -->
<g id="Node000002" class="node">
<title>Node2</title>
<g id="a_Node000002"><a xlink:title=" ">
<polygon fill="#e0e0e0" stroke="#999999" points="242.12,-76 200.62,-76 200.62,-56 242.12,-56 242.12,-76"/>
<text text-anchor="middle" x="221.38" y="-62.5" font-family="Helvetica,sans-Serif" font-size="10.00">vector</text>
</a>
</g>
</g>
<!-- Node1&#45;&gt;Node2 -->
<g id="edge1_Node000001_Node000002" class="edge">
<title>Node1&#45;&gt;Node2</title>
<g id="a_edge1_Node000001_Node000002"><a xlink:title=" ">
<path fill="none" stroke="#63b8ff" d="M171.18,-167.78C177.99,-157.85 186.72,-144.47 193.38,-132 201.17,-117.4 208.52,-100.16 213.73,-87.1"/>
<polygon fill="#63b8ff" stroke="#63b8ff" points="216.95,-88.49 217.32,-77.9 210.43,-85.95 216.95,-88.49"/>
</a>
</g>
</g>
<!-- Node3 -->
<g id="Node000003" class="node">
<title>Node3</title>
<g id="a_Node000003"><a xlink:href="material_8h.html" target="_top" xlink:title=" ">
<polygon fill="white" stroke="#666666" points="117.75,-132 59,-132 59,-112 117.75,-112 117.75,-132"/>
<text text-anchor="middle" x="88.38" y="-118.5" font-family="Helvetica,sans-Serif" font-size="10.00">material.h</text>
</a>
</g>
</g>
<!-- Node1&#45;&gt;Node3 -->
<g id="edge2_Node000001_Node000003" class="edge">
<title>Node1&#45;&gt;Node3</title>
<g id="a_edge2_Node000001_Node000003"><a xlink:title=" ">
<path fill="none" stroke="#63b8ff" d="M141.83,-167.55C131.62,-159.04 118.95,-148.48 108.5,-139.77"/>
<polygon fill="#63b8ff" stroke="#63b8ff" points="110.75,-137.09 100.83,-133.38 106.27,-142.47 110.75,-137.09"/>
</a>
</g>
</g>
<!-- Node7 -->
<g id="Node000007" class="node">
<title>Node7</title>
<g id="a_Node000007"><a xlink:href="mesh_8h.html" target="_top" xlink:title=" ">
<polygon fill="white" stroke="#666666" points="184.5,-132 136.25,-132 136.25,-112 184.5,-112 184.5,-132"/>
<text text-anchor="middle" x="160.38" y="-118.5" font-family="Helvetica,sans-Serif" font-size="10.00">mesh.h</text>
</a>
</g>
</g>
<!-- Node1&#45;&gt;Node7 -->
<g id="edge7_Node000001_Node000007" class="edge">
<title>Node1&#45;&gt;Node7</title>
<g id="a_edge7_Node000001_Node000007"><a xlink:title=" ">
<path fill="none" stroke="#63b8ff" d="M160.38,-167.55C160.38,-160.34 160.38,-151.66 160.38,-143.88"/>
<polygon fill="#63b8ff" stroke="#63b8ff" points="163.88,-143.92 160.38,-133.92 156.88,-143.92 163.88,-143.92"/>
</a>
</g>
</g>
<!-- Node4 -->
<g id="Node000004" class="node">
<title>Node4</title>
<g id="a_Node000004"><a xlink:href="platform_8h.html" target="_top" xlink:title=" ">
<polygon fill="white" stroke="#666666" points="58.75,-20 0,-20 0,0 58.75,0 58.75,-20"/>
<text text-anchor="middle" x="29.38" y="-6.5" font-family="Helvetica,sans-Serif" font-size="10.00">platform.h</text>
</a>
</g>
</g>
<!-- Node3&#45;&gt;Node4 -->
<g id="edge3_Node000003_Node000004" class="edge">
<title>Node3&#45;&gt;Node4</title>
<g id="a_edge3_Node000003_Node000004"><a xlink:title=" ">
<path fill="none" stroke="#63b8ff" d="M77.74,-111.64C68.73,-103.16 56.07,-89.9 48.38,-76 40.7,-62.12 35.83,-44.82 32.95,-31.56"/>
<polygon fill="#63b8ff" stroke="#63b8ff" points="36.4,-30.96 31.06,-21.81 29.53,-32.3 36.4,-30.96"/>
</a>
</g>
</g>
<!-- Node5 -->
<g id="Node000005" class="node">
<title>Node5</title>
<g id="a_Node000005"><a xlink:href="hri__math_8h.html" target="_top" xlink:title=" ">
<polygon fill="white" stroke="#666666" points="119.25,-76 57.5,-76 57.5,-56 119.25,-56 119.25,-76"/>
<text text-anchor="middle" x="88.38" y="-62.5" font-family="Helvetica,sans-Serif" font-size="10.00">hri_math.h</text>
</a>
</g>
</g>
<!-- Node3&#45;&gt;Node5 -->
<g id="edge4_Node000003_Node000005" class="edge">
<title>Node3&#45;&gt;Node5</title>
<g id="a_edge4_Node000003_Node000005"><a xlink:title=" ">
<path fill="none" stroke="#63b8ff" d="M88.38,-111.59C88.38,-105.01 88.38,-95.96 88.38,-87.73"/>
<polygon fill="#63b8ff" stroke="#63b8ff" points="91.88,-87.81 88.38,-77.81 84.88,-87.81 91.88,-87.81"/>
</a>
</g>
</g>
<!-- Node5&#45;&gt;Node4 -->
<g id="edge6_Node000005_Node000004" class="edge">
<title>Node5&#45;&gt;Node4</title>
<g id="a_edge6_Node000005_Node000004"><a xlink:title=" ">
<path fill="none" stroke="#63b8ff" d="M78.1,-55.59C69.81,-48.01 57.93,-37.13 47.97,-28.02"/>
<polygon fill="#63b8ff" stroke="#63b8ff" points="50.39,-25.49 40.65,-21.32 45.66,-30.65 50.39,-25.49"/>
</a>
</g>
</g>
<!-- Node6 -->
<g id="Node000006" class="node">
<title>Node6</title>
<g id="a_Node000006"><a xlink:title=" ">
<polygon fill="#e0e0e0" stroke="#999999" points="119.88,-20 76.88,-20 76.88,0 119.88,0 119.88,-20"/>
<text text-anchor="middle" x="98.38" y="-6.5" font-family="Helvetica,sans-Serif" font-size="10.00">cmath</text>
</a>
</g>
</g>
<!-- Node5&#45;&gt;Node6 -->
<g id="edge5_Node000005_Node000006" class="edge">
<title>Node5&#45;&gt;Node6</title>
<g id="a_edge5_Node000005_Node000006"><a xlink:title=" ">
<path fill="none" stroke="#63b8ff" d="M90.12,-55.59C91.35,-48.93 93.05,-39.75 94.59,-31.44"/>
<polygon fill="#63b8ff" stroke="#63b8ff" points="98,-32.26 96.38,-21.79 91.12,-30.98 98,-32.26"/>
</a>
</g>
</g>
<!-- Node7&#45;&gt;Node2 -->
<g id="edge9_Node000007_Node000002" class="edge">
<title>Node7&#45;&gt;Node2</title>
<g id="a_edge9_Node000007_Node000002"><a xlink:title=" ">
<path fill="none" stroke="#63b8ff" d="M171,-111.59C179.66,-103.93 192.11,-92.91 202.46,-83.75"/>
<polygon fill="#63b8ff" stroke="#63b8ff" points="204.57,-86.55 209.74,-77.3 199.93,-81.31 204.57,-86.55"/>
</a>
</g>
</g>
<!-- Node7&#45;&gt;Node5 -->
<g id="edge10_Node000007_Node000005" class="edge">
<title>Node7&#45;&gt;Node5</title>
<g id="a_edge10_Node000007_Node000005"><a xlink:title=" ">
<path fill="none" stroke="#63b8ff" d="M147.83,-111.59C137.41,-103.77 122.33,-92.46 109.96,-83.19"/>
<polygon fill="#63b8ff" stroke="#63b8ff" points="112.08,-80.41 101.98,-77.21 107.88,-86.01 112.08,-80.41"/>
</a>
</g>
</g>
<!-- Node8 -->
<g id="Node000008" class="node">
<title>Node8</title>
<g id="a_Node000008"><a xlink:title=" ">
<polygon fill="#e0e0e0" stroke="#999999" points="183,-76 137.75,-76 137.75,-56 183,-56 183,-76"/>
<text text-anchor="middle" x="160.38" y="-62.5" font-family="Helvetica,sans-Serif" font-size="10.00">cstdint</text>
</a>
</g>
</g>
<!-- Node7&#45;&gt;Node8 -->
<g id="edge8_Node000007_Node000008" class="edge">
<title>Node7&#45;&gt;Node8</title>
<g id="a_edge8_Node000007_Node000008"><a xlink:title=" ">
<path fill="none" stroke="#63b8ff" d="M160.38,-111.59C160.38,-105.01 160.38,-95.96 160.38,-87.73"/>
<polygon fill="#63b8ff" stroke="#63b8ff" points="163.88,-87.81 160.38,-77.81 156.88,-87.81 163.88,-87.81"/>
</a>
</g>
</g>
</g>
</svg>
