<?xml version="1.0" encoding="UTF-8" standalone="no"?>
<!DOCTYPE svg PUBLIC "-//W3C//DTD SVG 1.1//EN"
 "http://www.w3.org/Graphics/SVG/1.1/DTD/svg11.dtd">
<!-- Generated by graphviz version 10.0.1 (20240210.2158)
 -->
<!-- Title: hybrid&#45;renderer&#45;lib/include/renderer_internal/shader_database.h Pages: 1 -->
<svg width="664pt" height="336pt"
 viewBox="0.00 0.00 663.50 336.00" xmlns="http://www.w3.org/2000/svg" xmlns:xlink="http://www.w3.org/1999/xlink">
<g id="graph0" class="graph" transform="scale(1 1) rotate(0) translate(4 332)">
<title>hybrid&#45;renderer&#45;lib/include/renderer_internal/shader_database.h</title>
<!-- Node1 -->
<g id="Node000001" class="node">
<title>Node1</title>
<g id="a_Node000001"><a xlink:title=" ">
<polygon fill="#999999" stroke="#666666" points="494.88,-328 370.12,-328 370.12,-284 494.88,-284 494.88,-328"/>
<text text-anchor="start" x="378.12" y="-314.5" font-family="Helvetica,sans-Serif" font-size="10.00">hybrid&#45;renderer&#45;lib</text>
<text text-anchor="start" x="378.12" y="-302.5" font-family="Helvetica,sans-Serif" font-size="10.00">/include/renderer_internal</text>
<text text-anchor="middle" x="432.5" y="-290.5" font-family="Helvetica,sans-Serif" font-size="10.00">/shader_database.h</text>
</a>
</g>
</g>
<!-- Node2 -->
<g id="Node000002" class="node">
<title>Node2</title>
<g id="a_Node000002"><a xlink:href="hybrid__renderer_8h.html" target="_top" xlink:title=" ">
<polygon fill="white" stroke="#666666" points="308.38,-162 180.62,-162 180.62,-130 308.38,-130 308.38,-162"/>
<text text-anchor="start" x="188.62" y="-148.5" font-family="Helvetica,sans-Serif" font-size="10.00">hybrid&#45;renderer&#45;lib</text>
<text text-anchor="middle" x="244.5" y="-136.5" font-family="Helvetica,sans-Serif" font-size="10.00">/include/hybrid_renderer.h</text>
</a>
</g>
</g>
<!-- Node1&#45;&gt;Node2 -->
<g id="edge1_Node000001_Node000002" class="edge">
<title>Node1&#45;&gt;Node2</title>
<g id="a_edge1_Node000001_Node000002"><a xlink:title=" ">
<path fill="none" stroke="#63b8ff" d="M358.57,-298.89C290.39,-291.54 196.38,-276.47 173.5,-248 161.25,-232.76 165.04,-221.63 173.5,-204 182.11,-186.04 199.45,-171.95 214.83,-162.27"/>
<polygon fill="#63b8ff" stroke="#63b8ff" points="357.89,-302.34 368.2,-299.89 358.61,-295.38 357.89,-302.34"/>
</a>
</g>
</g>
<!-- Node8 -->
<g id="Node000008" class="node">
<title>Node8</title>
<g id="a_Node000008"><a xlink:href="render__pass_8h.html" target="_top" xlink:title=" ">
<polygon fill="white" stroke="#666666" points="306.88,-248 182.12,-248 182.12,-204 306.88,-204 306.88,-248"/>
<text text-anchor="start" x="190.12" y="-234.5" font-family="Helvetica,sans-Serif" font-size="10.00">hybrid&#45;renderer&#45;lib</text>
<text text-anchor="start" x="190.12" y="-222.5" font-family="Helvetica,sans-Serif" font-size="10.00">/include/renderer_internal</text>
<text text-anchor="middle" x="244.5" y="-210.5" font-family="Helvetica,sans-Serif" font-size="10.00">/render_pass.h</text>
</a>
</g>
</g>
<!-- Node1&#45;&gt;Node8 -->
<g id="edge9_Node000001_Node000008" class="edge">
<title>Node1&#45;&gt;Node8</title>
<g id="a_edge9_Node000001_Node000008"><a xlink:title=" ">
<path fill="none" stroke="#63b8ff" d="M370.65,-279.34C346.52,-269.33 319.18,-257.99 296.14,-248.42"/>
<polygon fill="#63b8ff" stroke="#63b8ff" points="369.15,-282.51 379.73,-283.11 371.83,-276.04 369.15,-282.51"/>
</a>
</g>
</g>
<!-- Node9 -->
<g id="Node000009" class="node">
<title>Node9</title>
<g id="a_Node000009"><a xlink:href="render__pass_8cpp.html" target="_top" xlink:title=" ">
<polygon fill="white" stroke="#666666" points="438.25,-168 330.75,-168 330.75,-124 438.25,-124 438.25,-168"/>
<text text-anchor="start" x="338.75" y="-154.5" font-family="Helvetica,sans-Serif" font-size="10.00">hybrid&#45;renderer&#45;lib</text>
<text text-anchor="start" x="338.75" y="-142.5" font-family="Helvetica,sans-Serif" font-size="10.00">/src/renderer_internal</text>
<text text-anchor="middle" x="384.5" y="-130.5" font-family="Helvetica,sans-Serif" font-size="10.00">/render_pass.cpp</text>
</a>
</g>
</g>
<!-- Node1&#45;&gt;Node9 -->
<g id="edge15_Node000001_Node000009" class="edge">
<title>Node1&#45;&gt;Node9</title>
<g id="a_edge15_Node000001_Node000009"><a xlink:title=" ">
<path fill="none" stroke="#63b8ff" d="M451.58,-273.52C461.42,-252.98 469.32,-226 458.5,-204 451.34,-189.45 438.48,-177.57 425.47,-168.49"/>
<polygon fill="#63b8ff" stroke="#63b8ff" points="448.54,-271.78 447.04,-282.27 454.75,-275 448.54,-271.78"/>
</a>
</g>
</g>
<!-- Node10 -->
<g id="Node000010" class="node">
<title>Node10</title>
<g id="a_Node000010"><a xlink:href="render__system_8h.html" target="_top" xlink:title=" ">
<polygon fill="white" stroke="#666666" points="449.88,-248 325.12,-248 325.12,-204 449.88,-204 449.88,-248"/>
<text text-anchor="start" x="333.12" y="-234.5" font-family="Helvetica,sans-Serif" font-size="10.00">hybrid&#45;renderer&#45;lib</text>
<text text-anchor="start" x="333.12" y="-222.5" font-family="Helvetica,sans-Serif" font-size="10.00">/include/renderer_internal</text>
<text text-anchor="middle" x="387.5" y="-210.5" font-family="Helvetica,sans-Serif" font-size="10.00">/render_system.h</text>
</a>
</g>
</g>
<!-- Node1&#45;&gt;Node10 -->
<g id="edge12_Node000001_Node000010" class="edge">
<title>Node1&#45;&gt;Node10</title>
<g id="a_edge12_Node000001_Node000010"><a xlink:title=" ">
<path fill="none" stroke="#63b8ff" d="M414.58,-273.94C409.62,-265.34 404.34,-256.2 399.78,-248.29"/>
<polygon fill="#63b8ff" stroke="#63b8ff" points="411.42,-275.46 419.45,-282.38 417.48,-271.96 411.42,-275.46"/>
</a>
</g>
</g>
<!-- Node11 -->
<g id="Node000011" class="node">
<title>Node11</title>
<g id="a_Node000011"><a xlink:href="render__system_8cpp.html" target="_top" xlink:title=" ">
<polygon fill="white" stroke="#666666" points="566.25,-168 458.75,-168 458.75,-124 566.25,-124 566.25,-168"/>
<text text-anchor="start" x="466.75" y="-154.5" font-family="Helvetica,sans-Serif" font-size="10.00">hybrid&#45;renderer&#45;lib</text>
<text text-anchor="start" x="466.75" y="-142.5" font-family="Helvetica,sans-Serif" font-size="10.00">/src/renderer_internal</text>
<text text-anchor="middle" x="512.5" y="-130.5" font-family="Helvetica,sans-Serif" font-size="10.00">/render_system.cpp</text>
</a>
</g>
</g>
<!-- Node1&#45;&gt;Node11 -->
<g id="edge16_Node000001_Node000011" class="edge">
<title>Node1&#45;&gt;Node11</title>
<g id="a_edge16_Node000001_Node000011"><a xlink:title=" ">
<path fill="none" stroke="#63b8ff" d="M458,-274.63C464.25,-266.33 470.55,-257.1 475.5,-248 489.7,-221.92 500.54,-189.28 506.71,-168.28"/>
<polygon fill="#63b8ff" stroke="#63b8ff" points="455.36,-272.33 451.99,-282.37 460.89,-276.63 455.36,-272.33"/>
</a>
</g>
</g>
<!-- Node12 -->
<g id="Node000012" class="node">
<title>Node12</title>
<g id="a_Node000012"><a xlink:href="shader__database_8cpp.html" target="_top" xlink:title=" ">
<polygon fill="white" stroke="#666666" points="655.5,-248 543.5,-248 543.5,-204 655.5,-204 655.5,-248"/>
<text text-anchor="start" x="551.5" y="-234.5" font-family="Helvetica,sans-Serif" font-size="10.00">hybrid&#45;renderer&#45;lib</text>
<text text-anchor="start" x="551.5" y="-222.5" font-family="Helvetica,sans-Serif" font-size="10.00">/src/renderer_internal</text>
<text text-anchor="middle" x="599.5" y="-210.5" font-family="Helvetica,sans-Serif" font-size="10.00">/shader_database.cpp</text>
</a>
</g>
</g>
<!-- Node1&#45;&gt;Node12 -->
<g id="edge17_Node000001_Node000012" class="edge">
<title>Node1&#45;&gt;Node12</title>
<g id="a_edge17_Node000001_Node000012"><a xlink:title=" ">
<path fill="none" stroke="#63b8ff" d="M488.31,-278.93C509.53,-269.02 533.44,-257.86 553.63,-248.42"/>
<polygon fill="#63b8ff" stroke="#63b8ff" points="487.08,-275.64 479.5,-283.05 490.05,-281.98 487.08,-275.64"/>
</a>
</g>
</g>
<!-- Node3 -->
<g id="Node000003" class="node">
<title>Node3</title>
<g id="a_Node000003"><a xlink:href="demo_8h.html" target="_top" xlink:title=" ">
<polygon fill="white" stroke="#666666" points="109,-82 0,-82 0,-62 109,-62 109,-82"/>
<text text-anchor="middle" x="54.5" y="-68.5" font-family="Helvetica,sans-Serif" font-size="10.00">demo/include/demo.h</text>
</a>
</g>
</g>
<!-- Node2&#45;&gt;Node3 -->
<g id="edge2_Node000002_Node000003" class="edge">
<title>Node2&#45;&gt;Node3</title>
<g id="a_edge2_Node000002_Node000003"><a xlink:title=" ">
<path fill="none" stroke="#63b8ff" d="M193.19,-125.55C156.34,-111.59 108.28,-93.38 79.49,-82.47"/>
<polygon fill="#63b8ff" stroke="#63b8ff" points="191.73,-128.75 202.32,-129.02 194.21,-122.2 191.73,-128.75"/>
</a>
</g>
</g>
<!-- Node5 -->
<g id="Node000005" class="node">
<title>Node5</title>
<g id="a_Node000005"><a xlink:href="subsystems_8h.html" target="_top" xlink:title=" ">
<polygon fill="white" stroke="#666666" points="265.62,-82 127.38,-82 127.38,-62 265.62,-62 265.62,-82"/>
<text text-anchor="middle" x="196.5" y="-68.5" font-family="Helvetica,sans-Serif" font-size="10.00">demo/include/subsystems.h</text>
</a>
</g>
</g>
<!-- Node2&#45;&gt;Node5 -->
<g id="edge4_Node000002_Node000005" class="edge">
<title>Node2&#45;&gt;Node5</title>
<g id="a_edge4_Node000002_Node000005"><a xlink:title=" ">
<path fill="none" stroke="#63b8ff" d="M228.02,-120.28C219.29,-107.19 209.09,-91.88 202.71,-82.31"/>
<polygon fill="#63b8ff" stroke="#63b8ff" points="225.02,-122.09 233.48,-128.47 230.85,-118.21 225.02,-122.09"/>
</a>
</g>
</g>
<!-- Node6 -->
<g id="Node000006" class="node">
<title>Node6</title>
<g id="a_Node000006"><a xlink:href="subsystems_8cpp.html" target="_top" xlink:title=" ">
<polygon fill="white" stroke="#666666" points="310.25,-20 178.75,-20 178.75,0 310.25,0 310.25,-20"/>
<text text-anchor="middle" x="244.5" y="-6.5" font-family="Helvetica,sans-Serif" font-size="10.00">demo/src/subsystems.cpp</text>
</a>
</g>
</g>
<!-- Node2&#45;&gt;Node6 -->
<g id="edge7_Node000002_Node000006" class="edge">
<title>Node2&#45;&gt;Node6</title>
<g id="a_edge7_Node000002_Node000006"><a xlink:title=" ">
<path fill="none" stroke="#63b8ff" d="M261.56,-120.05C271.58,-102.28 281.1,-77.79 274.5,-56 270.36,-42.34 260.56,-29.04 253.28,-20.48"/>
<polygon fill="#63b8ff" stroke="#63b8ff" points="258.7,-118 256.5,-128.36 264.69,-121.64 258.7,-118"/>
</a>
</g>
</g>
<!-- Node7 -->
<g id="Node000007" class="node">
<title>Node7</title>
<g id="a_Node000007"><a xlink:href="hybrid__renderer_8cpp.html" target="_top" xlink:title=" ">
<polygon fill="white" stroke="#666666" points="443,-88 322,-88 322,-56 443,-56 443,-88"/>
<text text-anchor="start" x="330" y="-74.5" font-family="Helvetica,sans-Serif" font-size="10.00">hybrid&#45;renderer&#45;lib</text>
<text text-anchor="middle" x="382.5" y="-62.5" font-family="Helvetica,sans-Serif" font-size="10.00">/src/hybrid_renderer.cpp</text>
</a>
</g>
</g>
<!-- Node2&#45;&gt;Node7 -->
<g id="edge8_Node000002_Node000007" class="edge">
<title>Node2&#45;&gt;Node7</title>
<g id="a_edge8_Node000002_Node000007"><a xlink:title=" ">
<path fill="none" stroke="#63b8ff" d="M284.11,-124.33C306.05,-112.89 332.85,-98.9 352.94,-88.42"/>
<polygon fill="#63b8ff" stroke="#63b8ff" points="282.69,-121.13 275.45,-128.85 285.93,-127.33 282.69,-121.13"/>
</a>
</g>
</g>
<!-- Node4 -->
<g id="Node000004" class="node">
<title>Node4</title>
<g id="a_Node000004"><a xlink:href="main_8cpp.html" target="_top" xlink:title=" ">
<polygon fill="white" stroke="#666666" points="157.12,-20 57.88,-20 57.88,0 157.12,0 157.12,-20"/>
<text text-anchor="middle" x="107.5" y="-6.5" font-family="Helvetica,sans-Serif" font-size="10.00">demo/src/main.cpp</text>
</a>
</g>
</g>
<!-- Node3&#45;&gt;Node4 -->
<g id="edge3_Node000003_Node000004" class="edge">
<title>Node3&#45;&gt;Node4</title>
<g id="a_edge3_Node000003_Node000004"><a xlink:title=" ">
<path fill="none" stroke="#63b8ff" d="M70.18,-53.25C79.79,-42.36 91.71,-28.88 99.45,-20.11"/>
<polygon fill="#63b8ff" stroke="#63b8ff" points="67.78,-50.68 63.78,-60.49 73.03,-55.31 67.78,-50.68"/>
</a>
</g>
</g>
<!-- Node5&#45;&gt;Node4 -->
<g id="edge5_Node000005_Node000004" class="edge">
<title>Node5&#45;&gt;Node4</title>
<g id="a_edge5_Node000005_Node000004"><a xlink:title=" ">
<path fill="none" stroke="#63b8ff" d="M173.1,-55.22C156.62,-44.11 135.12,-29.62 121.31,-20.31"/>
<polygon fill="#63b8ff" stroke="#63b8ff" points="171.09,-58.09 181.34,-60.78 175,-52.29 171.09,-58.09"/>
</a>
</g>
</g>
<!-- Node5&#45;&gt;Node6 -->
<g id="edge6_Node000005_Node000006" class="edge">
<title>Node5&#45;&gt;Node6</title>
<g id="a_edge6_Node000005_Node000006"><a xlink:title=" ">
<path fill="none" stroke="#63b8ff" d="M210.96,-52.92C219.62,-42.1 230.27,-28.79 237.21,-20.11"/>
<polygon fill="#63b8ff" stroke="#63b8ff" points="208.46,-50.45 204.95,-60.44 213.93,-54.82 208.46,-50.45"/>
</a>
</g>
</g>
<!-- Node8&#45;&gt;Node2 -->
<g id="edge10_Node000008_Node000002" class="edge">
<title>Node8&#45;&gt;Node2</title>
<g id="a_edge10_Node000008_Node000002"><a xlink:title=" ">
<path fill="none" stroke="#63b8ff" d="M244.5,-192.28C244.5,-181.8 244.5,-170.7 244.5,-162.11"/>
<polygon fill="#63b8ff" stroke="#63b8ff" points="241,-192.17 244.5,-202.17 248,-192.17 241,-192.17"/>
</a>
</g>
</g>
<!-- Node8&#45;&gt;Node9 -->
<g id="edge11_Node000008_Node000009" class="edge">
<title>Node8&#45;&gt;Node9</title>
<g id="a_edge11_Node000008_Node000009"><a xlink:title=" ">
<path fill="none" stroke="#63b8ff" d="M292.79,-198.1C310.28,-188.35 329.78,-177.49 346.29,-168.29"/>
<polygon fill="#63b8ff" stroke="#63b8ff" points="291.11,-195.02 284.08,-202.95 294.52,-201.14 291.11,-195.02"/>
</a>
</g>
</g>
<!-- Node10&#45;&gt;Node2 -->
<g id="edge13_Node000010_Node000002" class="edge">
<title>Node10&#45;&gt;Node2</title>
<g id="a_edge13_Node000010_Node000002"><a xlink:title=" ">
<path fill="none" stroke="#63b8ff" d="M338.58,-198.31C316.58,-186.32 291.41,-172.59 272.65,-162.35"/>
<polygon fill="#63b8ff" stroke="#63b8ff" points="336.64,-201.25 347.1,-202.96 339.99,-195.1 336.64,-201.25"/>
</a>
</g>
</g>
<!-- Node10&#45;&gt;Node11 -->
<g id="edge14_Node000010_Node000011" class="edge">
<title>Node10&#45;&gt;Node11</title>
<g id="a_edge14_Node000010_Node000011"><a xlink:title=" ">
<path fill="none" stroke="#63b8ff" d="M431.05,-197.82C446.56,-188.15 463.78,-177.4 478.38,-168.29"/>
<polygon fill="#63b8ff" stroke="#63b8ff" points="429.57,-194.62 422.94,-202.88 433.28,-200.56 429.57,-194.62"/>
</a>
</g>
</g>
</g>
</svg>
