<?xml version="1.0" encoding="UTF-8" standalone="no"?>
<!DOCTYPE svg PUBLIC "-//W3C//DTD SVG 1.1//EN"
 "http://www.w3.org/Graphics/SVG/1.1/DTD/svg11.dtd">
<!-- Generated by graphviz version 10.0.1 (20240210.2158)
 -->
<!-- Title: hybrid&#45;renderer&#45;lib/include/renderer_internal/shader_database.h Pages: 1 -->
<svg width="570pt" height="244pt"
 viewBox="0.00 0.00 569.88 244.00" xmlns="http://www.w3.org/2000/svg" xmlns:xlink="http://www.w3.org/1999/xlink">
<g id="graph0" class="graph" transform="scale(1 1) rotate(0) translate(4 240)">
<title>hybrid&#45;renderer&#45;lib/include/renderer_internal/shader_database.h</title>
<!-- Node1 -->
<g id="Node000001" class="node">
<title>Node1</title>
<g id="a_Node000001"><a xlink:title=" ">
<polygon fill="#999999" stroke="#666666" points="203.38,-236 78.62,-236 78.62,-192 203.38,-192 203.38,-236"/>
<text text-anchor="start" x="86.62" y="-222.5" font-family="Helvetica,sans-Serif" font-size="10.00">hybrid&#45;renderer&#45;lib</text>
<text text-anchor="start" x="86.62" y="-210.5" font-family="Helvetica,sans-Serif" font-size="10.00">/include/renderer_internal</text>
<text text-anchor="middle" x="141" y="-198.5" font-family="Helvetica,sans-Serif" font-size="10.00">/shader_database.h</text>
</a>
</g>
</g>
<!-- Node2 -->
<g id="Node000002" class="node">
<title>Node2</title>
<g id="a_Node000002"><a xlink:title=" ">
<polygon fill="#e0e0e0" stroke="#999999" points="40,-150 0,-150 0,-130 40,-130 40,-150"/>
<text text-anchor="middle" x="20" y="-136.5" font-family="Helvetica,sans-Serif" font-size="10.00">string</text>
</a>
</g>
</g>
<!-- Node1&#45;&gt;Node2 -->
<g id="edge1_Node000001_Node000002" class="edge">
<title>Node1&#45;&gt;Node2</title>
<g id="a_edge1_Node000001_Node000002"><a xlink:title=" ">
<path fill="none" stroke="#63b8ff" d="M105.02,-191.59C85.81,-180.16 62.62,-166.36 45.31,-156.06"/>
<polygon fill="#63b8ff" stroke="#63b8ff" points="47.56,-153.33 37.18,-151.22 43.98,-159.34 47.56,-153.33"/>
</a>
</g>
</g>
<!-- Node3 -->
<g id="Node000003" class="node">
<title>Node3</title>
<g id="a_Node000003"><a xlink:title=" ">
<polygon fill="#e0e0e0" stroke="#999999" points="190.38,-82 155.62,-82 155.62,-62 190.38,-62 190.38,-82"/>
<text text-anchor="middle" x="173" y="-68.5" font-family="Helvetica,sans-Serif" font-size="10.00">map</text>
</a>
</g>
</g>
<!-- Node1&#45;&gt;Node3 -->
<g id="edge2_Node000001_Node000003" class="edge">
<title>Node1&#45;&gt;Node3</title>
<g id="a_edge2_Node000001_Node000003"><a xlink:title=" ">
<path fill="none" stroke="#63b8ff" d="M145.86,-191.74C151.96,-165.06 162.34,-119.63 168.34,-93.38"/>
<polygon fill="#63b8ff" stroke="#63b8ff" points="171.68,-94.5 170.49,-83.97 164.85,-92.94 171.68,-94.5"/>
</a>
</g>
</g>
<!-- Node4 -->
<g id="Node000004" class="node">
<title>Node4</title>
<g id="a_Node000004"><a xlink:title=" ">
<polygon fill="#e0e0e0" stroke="#999999" points="137.75,-150 96.25,-150 96.25,-130 137.75,-130 137.75,-150"/>
<text text-anchor="middle" x="117" y="-136.5" font-family="Helvetica,sans-Serif" font-size="10.00">vector</text>
</a>
</g>
</g>
<!-- Node1&#45;&gt;Node4 -->
<g id="edge3_Node000001_Node000004" class="edge">
<title>Node1&#45;&gt;Node4</title>
<g id="a_edge3_Node000001_Node000004"><a xlink:title=" ">
<path fill="none" stroke="#63b8ff" d="M133.93,-191.79C130.7,-182.1 126.9,-170.69 123.71,-161.14"/>
<polygon fill="#63b8ff" stroke="#63b8ff" points="127.07,-160.13 120.58,-151.75 120.42,-162.34 127.07,-160.13"/>
</a>
</g>
</g>
<!-- Node5 -->
<g id="Node000005" class="node">
<title>Node5</title>
<g id="a_Node000005"><a xlink:title=" ">
<polygon fill="#e0e0e0" stroke="#999999" points="141.62,-20 60.38,-20 60.38,0 141.62,0 141.62,-20"/>
<text text-anchor="middle" x="101" y="-6.5" font-family="Helvetica,sans-Serif" font-size="10.00">vulkan/vulkan.h</text>
</a>
</g>
</g>
<!-- Node1&#45;&gt;Node5 -->
<g id="edge4_Node000001_Node000005" class="edge">
<title>Node1&#45;&gt;Node5</title>
<g id="a_edge4_Node000001_Node000005"><a xlink:title=" ">
<path fill="none" stroke="#63b8ff" d="M113.19,-191.59C102.91,-181.96 92.45,-169.68 87,-156 70.21,-113.86 83.82,-59.58 93.47,-30.87"/>
<polygon fill="#63b8ff" stroke="#63b8ff" points="96.7,-32.26 96.76,-21.66 90.1,-29.9 96.7,-32.26"/>
</a>
</g>
</g>
<!-- Node6 -->
<g id="Node000006" class="node">
<title>Node6</title>
<g id="a_Node000006"><a xlink:href="render__context_8h.html" target="_top" xlink:title=" ">
<polygon fill="white" stroke="#666666" points="403,-88 285,-88 285,-56 403,-56 403,-88"/>
<text text-anchor="start" x="293" y="-74.5" font-family="Helvetica,sans-Serif" font-size="10.00">renderer_internal/render</text>
<text text-anchor="middle" x="344" y="-62.5" font-family="Helvetica,sans-Serif" font-size="10.00">_context.h</text>
</a>
</g>
</g>
<!-- Node1&#45;&gt;Node6 -->
<g id="edge5_Node000001_Node000006" class="edge">
<title>Node1&#45;&gt;Node6</title>
<g id="a_edge5_Node000001_Node000006"><a xlink:title=" ">
<path fill="none" stroke="#63b8ff" d="M203.56,-212.37C247.91,-208.31 305.01,-195.08 337,-156 349.65,-140.54 350.69,-117.6 348.96,-99.76"/>
<polygon fill="#63b8ff" stroke="#63b8ff" points="352.43,-99.31 347.63,-89.87 345.5,-100.24 352.43,-99.31"/>
</a>
</g>
</g>
<!-- Node12 -->
<g id="Node000012" class="node">
<title>Node12</title>
<g id="a_Node000012"><a xlink:href="descriptor__management_8h.html" target="_top" xlink:title=" ">
<polygon fill="white" stroke="#666666" points="327.88,-156 194.12,-156 194.12,-124 327.88,-124 327.88,-156"/>
<text text-anchor="start" x="202.12" y="-142.5" font-family="Helvetica,sans-Serif" font-size="10.00">renderer_internal/descriptor</text>
<text text-anchor="middle" x="261" y="-130.5" font-family="Helvetica,sans-Serif" font-size="10.00">_management.h</text>
</a>
</g>
</g>
<!-- Node1&#45;&gt;Node12 -->
<g id="edge12_Node000001_Node000012" class="edge">
<title>Node1&#45;&gt;Node12</title>
<g id="a_edge12_Node000001_Node000012"><a xlink:title=" ">
<path fill="none" stroke="#63b8ff" d="M176.68,-191.59C192.09,-182.34 210.09,-171.55 225.48,-162.31"/>
<polygon fill="#63b8ff" stroke="#63b8ff" points="227.1,-165.42 233.88,-157.27 223.5,-159.42 227.1,-165.42"/>
</a>
</g>
</g>
<!-- Node6&#45;&gt;Node5 -->
<g id="edge11_Node000006_Node000005" class="edge">
<title>Node6&#45;&gt;Node5</title>
<g id="a_edge11_Node000006_Node000005"><a xlink:title=" ">
<path fill="none" stroke="#63b8ff" d="M284.56,-56.32C243.38,-46.15 189.2,-32.78 150.39,-23.2"/>
<polygon fill="#63b8ff" stroke="#63b8ff" points="151.4,-19.84 140.85,-20.84 149.72,-26.63 151.4,-19.84"/>
</a>
</g>
</g>
<!-- Node7 -->
<g id="Node000007" class="node">
<title>Node7</title>
<g id="a_Node000007"><a xlink:href="config_8h.html" target="_top" xlink:title=" ">
<polygon fill="white" stroke="#666666" points="561.88,-20 512.12,-20 512.12,0 561.88,0 561.88,-20"/>
<text text-anchor="middle" x="537" y="-6.5" font-family="Helvetica,sans-Serif" font-size="10.00">config.h</text>
</a>
</g>
</g>
<!-- Node6&#45;&gt;Node7 -->
<g id="edge6_Node000006_Node000007" class="edge">
<title>Node6&#45;&gt;Node7</title>
<g id="a_edge6_Node000006_Node000007"><a xlink:title=" ">
<path fill="none" stroke="#63b8ff" d="M393.7,-55.55C427.18,-45.14 470.56,-31.65 500.79,-22.26"/>
<polygon fill="#63b8ff" stroke="#63b8ff" points="501.72,-25.63 510.23,-19.32 499.65,-18.95 501.72,-25.63"/>
</a>
</g>
</g>
<!-- Node8 -->
<g id="Node000008" class="node">
<title>Node8</title>
<g id="a_Node000008"><a xlink:href="platform_8h.html" target="_top" xlink:title=" ">
<polygon fill="white" stroke="#666666" points="218.38,-20 159.62,-20 159.62,0 218.38,0 218.38,-20"/>
<text text-anchor="middle" x="189" y="-6.5" font-family="Helvetica,sans-Serif" font-size="10.00">platform.h</text>
</a>
</g>
</g>
<!-- Node6&#45;&gt;Node8 -->
<g id="edge7_Node000006_Node000008" class="edge">
<title>Node6&#45;&gt;Node8</title>
<g id="a_edge7_Node000006_Node000008"><a xlink:title=" ">
<path fill="none" stroke="#63b8ff" d="M304.08,-55.55C279.3,-45.96 247.76,-33.75 223.97,-24.54"/>
<polygon fill="#63b8ff" stroke="#63b8ff" points="225.3,-21.3 214.72,-20.95 222.78,-27.83 225.3,-21.3"/>
</a>
</g>
</g>
<!-- Node9 -->
<g id="Node000009" class="node">
<title>Node9</title>
<g id="a_Node000009"><a xlink:title=" ">
<polygon fill="#e0e0e0" stroke="#999999" points="293.62,-20 236.38,-20 236.38,0 293.62,0 293.62,-20"/>
<text text-anchor="middle" x="265" y="-6.5" font-family="Helvetica,sans-Serif" font-size="10.00">functional</text>
</a>
</g>
</g>
<!-- Node6&#45;&gt;Node9 -->
<g id="edge8_Node000006_Node000009" class="edge">
<title>Node6&#45;&gt;Node9</title>
<g id="a_edge8_Node000006_Node000009"><a xlink:title=" ">
<path fill="none" stroke="#63b8ff" d="M323.66,-55.55C312.23,-46.87 297.97,-36.04 286.38,-27.24"/>
<polygon fill="#63b8ff" stroke="#63b8ff" points="288.67,-24.58 278.59,-21.32 284.44,-30.16 288.67,-24.58"/>
</a>
</g>
</g>
<!-- Node10 -->
<g id="Node000010" class="node">
<title>Node10</title>
<g id="a_Node000010"><a xlink:title=" ">
<polygon fill="#e0e0e0" stroke="#999999" points="390.12,-20 311.88,-20 311.88,0 390.12,0 390.12,-20"/>
<text text-anchor="middle" x="351" y="-6.5" font-family="Helvetica,sans-Serif" font-size="10.00">VkBootstrap.h</text>
</a>
</g>
</g>
<!-- Node6&#45;&gt;Node10 -->
<g id="edge9_Node000006_Node000010" class="edge">
<title>Node6&#45;&gt;Node10</title>
<g id="a_edge9_Node000006_Node000010"><a xlink:title=" ">
<path fill="none" stroke="#63b8ff" d="M345.8,-55.55C346.65,-48.26 347.68,-39.45 348.6,-31.6"/>
<polygon fill="#63b8ff" stroke="#63b8ff" points="352.04,-32.25 349.73,-21.91 345.09,-31.44 352.04,-32.25"/>
</a>
</g>
</g>
<!-- Node11 -->
<g id="Node000011" class="node">
<title>Node11</title>
<g id="a_Node000011"><a xlink:title=" ">
<polygon fill="#e0e0e0" stroke="#999999" points="493.88,-20 408.12,-20 408.12,0 493.88,0 493.88,-20"/>
<text text-anchor="middle" x="451" y="-6.5" font-family="Helvetica,sans-Serif" font-size="10.00">vk_mem_alloc.h</text>
</a>
</g>
</g>
<!-- Node6&#45;&gt;Node11 -->
<g id="edge10_Node000006_Node000011" class="edge">
<title>Node6&#45;&gt;Node11</title>
<g id="a_edge10_Node000006_Node000011"><a xlink:title=" ">
<path fill="none" stroke="#63b8ff" d="M371.56,-55.55C387.81,-46.43 408.28,-34.96 424.37,-25.93"/>
<polygon fill="#63b8ff" stroke="#63b8ff" points="425.89,-29.09 432.9,-21.15 422.47,-22.99 425.89,-29.09"/>
</a>
</g>
</g>
<!-- Node12&#45;&gt;Node3 -->
<g id="edge13_Node000012_Node000003" class="edge">
<title>Node12&#45;&gt;Node3</title>
<g id="a_edge13_Node000012_Node000003"><a xlink:title=" ">
<path fill="none" stroke="#63b8ff" d="M240.59,-123.69C226.73,-113.3 208.43,-99.57 194.37,-89.03"/>
<polygon fill="#63b8ff" stroke="#63b8ff" points="196.73,-86.42 186.63,-83.22 192.53,-92.02 196.73,-86.42"/>
</a>
</g>
</g>
<!-- Node12&#45;&gt;Node5 -->
<g id="edge14_Node000012_Node000005" class="edge">
<title>Node12&#45;&gt;Node5</title>
<g id="a_edge14_Node000012_Node000005"><a xlink:title=" ">
<path fill="none" stroke="#63b8ff" d="M252.76,-123.7C242.32,-105.52 222.78,-75.22 199,-56 182.08,-42.32 160.33,-31.79 141.62,-24.37"/>
<polygon fill="#63b8ff" stroke="#63b8ff" points="143.02,-21.16 132.43,-20.89 140.55,-27.7 143.02,-21.16"/>
</a>
</g>
</g>
<!-- Node12&#45;&gt;Node6 -->
<g id="edge15_Node000012_Node000006" class="edge">
<title>Node12&#45;&gt;Node6</title>
<g id="a_edge15_Node000012_Node000006"><a xlink:title=" ">
<path fill="none" stroke="#63b8ff" d="M280.25,-123.69C290.76,-115.34 303.96,-104.84 315.62,-95.56"/>
<polygon fill="#63b8ff" stroke="#63b8ff" points="317.73,-98.36 323.38,-89.4 313.38,-92.88 317.73,-98.36"/>
</a>
</g>
</g>
</g>
</svg>
