<?xml version="1.0" encoding="UTF-8" standalone="no"?>
<!DOCTYPE svg PUBLIC "-//W3C//DTD SVG 1.1//EN"
 "http://www.w3.org/Graphics/SVG/1.1/DTD/svg11.dtd">
<!-- Generated by graphviz version 10.0.1 (20240210.2158)
 -->
<!-- Title: hybrid&#45;renderer&#45;lib/src/renderer_internal/shader_database.cpp Pages: 1 -->
<svg width="651pt" height="312pt"
 viewBox="0.00 0.00 651.22 312.00" xmlns="http://www.w3.org/2000/svg" xmlns:xlink="http://www.w3.org/1999/xlink">
<g id="graph0" class="graph" transform="scale(1 1) rotate(0) translate(4 308)">
<title>hybrid&#45;renderer&#45;lib/src/renderer_internal/shader_database.cpp</title>
<!-- Node1 -->
<g id="Node000001" class="node">
<title>Node1</title>
<g id="a_Node000001"><a xlink:title=" ">
<polygon fill="#999999" stroke="#666666" points="261.34,-304 149.34,-304 149.34,-260 261.34,-260 261.34,-304"/>
<text text-anchor="start" x="157.34" y="-290.5" font-family="Helvetica,sans-Serif" font-size="10.00">hybrid&#45;renderer&#45;lib</text>
<text text-anchor="start" x="157.34" y="-278.5" font-family="Helvetica,sans-Serif" font-size="10.00">/src/renderer_internal</text>
<text text-anchor="middle" x="205.34" y="-266.5" font-family="Helvetica,sans-Serif" font-size="10.00">/shader_database.cpp</text>
</a>
</g>
</g>
<!-- Node2 -->
<g id="Node000002" class="node">
<title>Node2</title>
<g id="a_Node000002"><a xlink:href="shader__database_8h.html" target="_top" xlink:title=" ">
<polygon fill="white" stroke="#666666" points="265.47,-224 145.22,-224 145.22,-192 265.47,-192 265.47,-224"/>
<text text-anchor="start" x="153.22" y="-210.5" font-family="Helvetica,sans-Serif" font-size="10.00">renderer_internal/shader</text>
<text text-anchor="middle" x="205.34" y="-198.5" font-family="Helvetica,sans-Serif" font-size="10.00">_database.h</text>
</a>
</g>
</g>
<!-- Node1&#45;&gt;Node2 -->
<g id="edge1_Node000001_Node000002" class="edge">
<title>Node1&#45;&gt;Node2</title>
<g id="a_edge1_Node000001_Node000002"><a xlink:title=" ">
<path fill="none" stroke="#63b8ff" d="M205.34,-259.79C205.34,-252.18 205.34,-243.52 205.34,-235.52"/>
<polygon fill="#63b8ff" stroke="#63b8ff" points="208.84,-235.64 205.34,-225.64 201.84,-235.64 208.84,-235.64"/>
</a>
</g>
</g>
<!-- Node3 -->
<g id="Node000003" class="node">
<title>Node3</title>
<g id="a_Node000003"><a xlink:title=" ">
<polygon fill="#e0e0e0" stroke="#999999" points="59.34,-150 19.34,-150 19.34,-130 59.34,-130 59.34,-150"/>
<text text-anchor="middle" x="39.34" y="-136.5" font-family="Helvetica,sans-Serif" font-size="10.00">string</text>
</a>
</g>
</g>
<!-- Node1&#45;&gt;Node3 -->
<g id="edge18_Node000001_Node000003" class="edge">
<title>Node1&#45;&gt;Node3</title>
<g id="a_edge18_Node000001_Node000003"><a xlink:title=" ">
<path fill="none" stroke="#63b8ff" d="M179.37,-259.72C166.4,-249.05 150.49,-235.9 136.34,-224 109.22,-201.2 78.15,-174.51 58.64,-157.68"/>
<polygon fill="#63b8ff" stroke="#63b8ff" points="61.06,-155.15 51.2,-151.26 56.48,-160.45 61.06,-155.15"/>
</a>
</g>
</g>
<!-- Node4 -->
<g id="Node000004" class="node">
<title>Node4</title>
<g id="a_Node000004"><a xlink:title=" ">
<polygon fill="#e0e0e0" stroke="#999999" points="104.72,-82 69.97,-82 69.97,-62 104.72,-62 104.72,-82"/>
<text text-anchor="middle" x="87.34" y="-68.5" font-family="Helvetica,sans-Serif" font-size="10.00">map</text>
</a>
</g>
</g>
<!-- Node1&#45;&gt;Node4 -->
<g id="edge19_Node000001_Node000004" class="edge">
<title>Node1&#45;&gt;Node4</title>
<g id="a_edge19_Node000001_Node000004"><a xlink:title=" ">
<path fill="none" stroke="#63b8ff" d="M148.98,-263.51C101.44,-245.27 36.99,-211.45 10.34,-156 4.18,-143.18 3.61,-136.53 10.34,-124 20.64,-104.82 41.69,-91.63 59.17,-83.48"/>
<polygon fill="#63b8ff" stroke="#63b8ff" points="60.28,-86.82 68.08,-79.65 57.52,-80.39 60.28,-86.82"/>
</a>
</g>
</g>
<!-- Node5 -->
<g id="Node000005" class="node">
<title>Node5</title>
<g id="a_Node000005"><a xlink:title=" ">
<polygon fill="#e0e0e0" stroke="#999999" points="385.09,-150 343.59,-150 343.59,-130 385.09,-130 385.09,-150"/>
<text text-anchor="middle" x="364.34" y="-136.5" font-family="Helvetica,sans-Serif" font-size="10.00">vector</text>
</a>
</g>
</g>
<!-- Node1&#45;&gt;Node5 -->
<g id="edge20_Node000001_Node000005" class="edge">
<title>Node1&#45;&gt;Node5</title>
<g id="a_edge20_Node000001_Node000005"><a xlink:title=" ">
<path fill="none" stroke="#63b8ff" d="M231.83,-259.68C244.79,-249.11 260.53,-236.06 274.34,-224 299.93,-201.66 328.65,-174.86 346.62,-157.88"/>
<polygon fill="#63b8ff" stroke="#63b8ff" points="348.57,-160.85 353.41,-151.43 343.75,-155.77 348.57,-160.85"/>
</a>
</g>
</g>
<!-- Node6 -->
<g id="Node000006" class="node">
<title>Node6</title>
<g id="a_Node000006"><a xlink:title=" ">
<polygon fill="#e0e0e0" stroke="#999999" points="222.97,-20 141.72,-20 141.72,0 222.97,0 222.97,-20"/>
<text text-anchor="middle" x="182.34" y="-6.5" font-family="Helvetica,sans-Serif" font-size="10.00">vulkan/vulkan.h</text>
</a>
</g>
</g>
<!-- Node1&#45;&gt;Node6 -->
<g id="edge21_Node000001_Node000006" class="edge">
<title>Node1&#45;&gt;Node6</title>
<g id="a_edge21_Node000001_Node000006"><a xlink:title=" ">
<path fill="none" stroke="#63b8ff" d="M149.12,-274.73C111.71,-267.9 63.67,-253.65 31.34,-224 7.12,-201.79 8.92,-188.19 2.34,-156 -7.99,-105.44 18.93,-85.4 61.34,-56 82.39,-41.41 108.77,-30.87 131.51,-23.69"/>
<polygon fill="#63b8ff" stroke="#63b8ff" points="132.34,-27.09 140.9,-20.86 130.32,-20.39 132.34,-27.09"/>
</a>
</g>
</g>
<!-- Node7 -->
<g id="Node000007" class="node">
<title>Node7</title>
<g id="a_Node000007"><a xlink:href="render__context_8h.html" target="_top" xlink:title=" ">
<polygon fill="white" stroke="#666666" points="423.34,-88 305.34,-88 305.34,-56 423.34,-56 423.34,-88"/>
<text text-anchor="start" x="313.34" y="-74.5" font-family="Helvetica,sans-Serif" font-size="10.00">renderer_internal/render</text>
<text text-anchor="middle" x="364.34" y="-62.5" font-family="Helvetica,sans-Serif" font-size="10.00">_context.h</text>
</a>
</g>
</g>
<!-- Node1&#45;&gt;Node7 -->
<g id="edge22_Node000001_Node000007" class="edge">
<title>Node1&#45;&gt;Node7</title>
<g id="a_edge22_Node000001_Node000007"><a xlink:title=" ">
<path fill="none" stroke="#63b8ff" d="M261.81,-261.85C307.39,-242.95 368.1,-209.07 394.34,-156 403.71,-137.06 394.27,-114.43 383.58,-97.59"/>
<polygon fill="#63b8ff" stroke="#63b8ff" points="386.67,-95.92 378.12,-89.66 380.91,-99.89 386.67,-95.92"/>
</a>
</g>
</g>
<!-- Node14 -->
<g id="Node000014" class="node">
<title>Node14</title>
<g id="a_Node000014"><a xlink:title=" ">
<polygon fill="#e0e0e0" stroke="#999999" points="483.47,-218 441.22,-218 441.22,-198 483.47,-198 483.47,-218"/>
<text text-anchor="middle" x="462.34" y="-204.5" font-family="Helvetica,sans-Serif" font-size="10.00">cstdio</text>
</a>
</g>
</g>
<!-- Node1&#45;&gt;Node14 -->
<g id="edge17_Node000001_Node000014" class="edge">
<title>Node1&#45;&gt;Node14</title>
<g id="a_edge17_Node000001_Node000014"><a xlink:title=" ">
<path fill="none" stroke="#63b8ff" d="M261.69,-269.05C306.99,-258.85 371.97,-242.85 427.34,-224 428.68,-223.54 430.04,-223.06 431.4,-222.56"/>
<polygon fill="#63b8ff" stroke="#63b8ff" points="432.41,-225.92 440.41,-218.98 429.82,-219.42 432.41,-225.92"/>
</a>
</g>
</g>
<!-- Node2&#45;&gt;Node3 -->
<g id="edge2_Node000002_Node000003" class="edge">
<title>Node2&#45;&gt;Node3</title>
<g id="a_edge2_Node000002_Node000003"><a xlink:title=" ">
<path fill="none" stroke="#63b8ff" d="M163.82,-191.53C137.73,-181.66 103.42,-168.44 73.34,-156 72.24,-155.54 71.12,-155.08 69.99,-154.6"/>
<polygon fill="#63b8ff" stroke="#63b8ff" points="71.73,-151.54 61.16,-150.8 68.96,-157.97 71.73,-151.54"/>
</a>
</g>
</g>
<!-- Node2&#45;&gt;Node4 -->
<g id="edge3_Node000002_Node000004" class="edge">
<title>Node2&#45;&gt;Node4</title>
<g id="a_edge3_Node000002_Node000004"><a xlink:title=" ">
<path fill="none" stroke="#63b8ff" d="M155.89,-191.55C137.86,-183.61 118.85,-172.11 106.34,-156 92.41,-138.06 88.36,-111.76 87.34,-93.59"/>
<polygon fill="#63b8ff" stroke="#63b8ff" points="90.85,-93.7 87.08,-83.79 83.85,-93.88 90.85,-93.7"/>
</a>
</g>
</g>
<!-- Node2&#45;&gt;Node5 -->
<g id="edge4_Node000002_Node000005" class="edge">
<title>Node2&#45;&gt;Node5</title>
<g id="a_edge4_Node000002_Node000005"><a xlink:title=" ">
<path fill="none" stroke="#63b8ff" d="M243.39,-191.52C267.95,-181.48 300.58,-168.08 329.34,-156 330.47,-155.53 331.62,-155.04 332.77,-154.55"/>
<polygon fill="#63b8ff" stroke="#63b8ff" points="334.04,-157.82 341.87,-150.69 331.3,-151.38 334.04,-157.82"/>
</a>
</g>
</g>
<!-- Node2&#45;&gt;Node6 -->
<g id="edge5_Node000002_Node000006" class="edge">
<title>Node2&#45;&gt;Node6</title>
<g id="a_edge5_Node000002_Node000006"><a xlink:title=" ">
<path fill="none" stroke="#63b8ff" d="M228.41,-191.71C239.72,-182.79 252.19,-170.45 258.34,-156 263.91,-142.91 262.49,-137.6 258.34,-124 246.8,-86.15 217.86,-49.49 199.21,-28.65"/>
<polygon fill="#63b8ff" stroke="#63b8ff" points="201.84,-26.33 192.49,-21.35 196.69,-31.07 201.84,-26.33"/>
</a>
</g>
</g>
<!-- Node2&#45;&gt;Node7 -->
<g id="edge6_Node000002_Node000007" class="edge">
<title>Node2&#45;&gt;Node7</title>
<g id="a_edge6_Node000002_Node000007"><a xlink:title=" ">
<path fill="none" stroke="#63b8ff" d="M236.32,-191.7C253.41,-182.53 274.5,-169.96 291.34,-156 312.28,-138.64 332.41,-115.05 346.21,-97.46"/>
<polygon fill="#63b8ff" stroke="#63b8ff" points="348.95,-99.65 352.27,-89.58 343.4,-95.38 348.95,-99.65"/>
</a>
</g>
</g>
<!-- Node13 -->
<g id="Node000013" class="node">
<title>Node13</title>
<g id="a_Node000013"><a xlink:href="descriptor__management_8h.html" target="_top" xlink:title=" ">
<polygon fill="white" stroke="#666666" points="249.22,-156 115.47,-156 115.47,-124 249.22,-124 249.22,-156"/>
<text text-anchor="start" x="123.47" y="-142.5" font-family="Helvetica,sans-Serif" font-size="10.00">renderer_internal/descriptor</text>
<text text-anchor="middle" x="182.34" y="-130.5" font-family="Helvetica,sans-Serif" font-size="10.00">_management.h</text>
</a>
</g>
</g>
<!-- Node2&#45;&gt;Node13 -->
<g id="edge13_Node000002_Node000013" class="edge">
<title>Node2&#45;&gt;Node13</title>
<g id="a_edge13_Node000002_Node000013"><a xlink:title=" ">
<path fill="none" stroke="#63b8ff" d="M200.01,-191.69C197.45,-184.36 194.32,-175.38 191.41,-167.02"/>
<polygon fill="#63b8ff" stroke="#63b8ff" points="194.74,-165.95 188.14,-157.65 188.13,-168.25 194.74,-165.95"/>
</a>
</g>
</g>
<!-- Node7&#45;&gt;Node6 -->
<g id="edge12_Node000007_Node000006" class="edge">
<title>Node7&#45;&gt;Node6</title>
<g id="a_edge12_Node000007_Node000006"><a xlink:title=" ">
<path fill="none" stroke="#63b8ff" d="M317.47,-55.55C287.81,-45.77 249.9,-33.27 221.78,-24"/>
<polygon fill="#63b8ff" stroke="#63b8ff" points="223.18,-20.78 212.58,-20.97 220.98,-27.43 223.18,-20.78"/>
</a>
</g>
</g>
<!-- Node8 -->
<g id="Node000008" class="node">
<title>Node8</title>
<g id="a_Node000008"><a xlink:href="config_8h.html" target="_top" xlink:title=" ">
<polygon fill="white" stroke="#666666" points="643.22,-20 593.47,-20 593.47,0 643.22,0 643.22,-20"/>
<text text-anchor="middle" x="618.34" y="-6.5" font-family="Helvetica,sans-Serif" font-size="10.00">config.h</text>
</a>
</g>
</g>
<!-- Node7&#45;&gt;Node8 -->
<g id="edge7_Node000007_Node000008" class="edge">
<title>Node7&#45;&gt;Node8</title>
<g id="a_edge7_Node000007_Node000008"><a xlink:title=" ">
<path fill="none" stroke="#63b8ff" d="M423.75,-57.75C465.49,-48.32 522.91,-35.12 582.05,-20.51"/>
<polygon fill="#63b8ff" stroke="#63b8ff" points="582.78,-23.94 591.64,-18.14 581.09,-17.15 582.78,-23.94"/>
</a>
</g>
</g>
<!-- Node9 -->
<g id="Node000009" class="node">
<title>Node9</title>
<g id="a_Node000009"><a xlink:href="platform_8h.html" target="_top" xlink:title=" ">
<polygon fill="white" stroke="#666666" points="299.72,-20 240.97,-20 240.97,0 299.72,0 299.72,-20"/>
<text text-anchor="middle" x="270.34" y="-6.5" font-family="Helvetica,sans-Serif" font-size="10.00">platform.h</text>
</a>
</g>
</g>
<!-- Node7&#45;&gt;Node9 -->
<g id="edge8_Node000007_Node000009" class="edge">
<title>Node7&#45;&gt;Node9</title>
<g id="a_edge8_Node000007_Node000009"><a xlink:title=" ">
<path fill="none" stroke="#63b8ff" d="M340.13,-55.55C326.13,-46.61 308.55,-35.39 294.55,-26.45"/>
<polygon fill="#63b8ff" stroke="#63b8ff" points="296.67,-23.65 286.36,-21.22 292.9,-29.55 296.67,-23.65"/>
</a>
</g>
</g>
<!-- Node10 -->
<g id="Node000010" class="node">
<title>Node10</title>
<g id="a_Node000010"><a xlink:title=" ">
<polygon fill="#e0e0e0" stroke="#999999" points="374.97,-20 317.72,-20 317.72,0 374.97,0 374.97,-20"/>
<text text-anchor="middle" x="346.34" y="-6.5" font-family="Helvetica,sans-Serif" font-size="10.00">functional</text>
</a>
</g>
</g>
<!-- Node7&#45;&gt;Node10 -->
<g id="edge9_Node000007_Node000010" class="edge">
<title>Node7&#45;&gt;Node10</title>
<g id="a_edge9_Node000007_Node000010"><a xlink:title=" ">
<path fill="none" stroke="#63b8ff" d="M359.7,-55.55C357.49,-48.17 354.81,-39.24 352.44,-31.32"/>
<polygon fill="#63b8ff" stroke="#63b8ff" points="355.82,-30.43 349.6,-21.86 349.12,-32.44 355.82,-30.43"/>
</a>
</g>
</g>
<!-- Node11 -->
<g id="Node000011" class="node">
<title>Node11</title>
<g id="a_Node000011"><a xlink:title=" ">
<polygon fill="#e0e0e0" stroke="#999999" points="471.47,-20 393.22,-20 393.22,0 471.47,0 471.47,-20"/>
<text text-anchor="middle" x="432.34" y="-6.5" font-family="Helvetica,sans-Serif" font-size="10.00">VkBootstrap.h</text>
</a>
</g>
</g>
<!-- Node7&#45;&gt;Node11 -->
<g id="edge10_Node000007_Node000011" class="edge">
<title>Node7&#45;&gt;Node11</title>
<g id="a_edge10_Node000007_Node000011"><a xlink:title=" ">
<path fill="none" stroke="#63b8ff" d="M381.85,-55.55C391.49,-47.04 403.47,-36.48 413.34,-27.77"/>
<polygon fill="#63b8ff" stroke="#63b8ff" points="415.36,-30.65 420.54,-21.41 410.73,-25.4 415.36,-30.65"/>
</a>
</g>
</g>
<!-- Node12 -->
<g id="Node000012" class="node">
<title>Node12</title>
<g id="a_Node000012"><a xlink:title=" ">
<polygon fill="#e0e0e0" stroke="#999999" points="575.22,-20 489.47,-20 489.47,0 575.22,0 575.22,-20"/>
<text text-anchor="middle" x="532.34" y="-6.5" font-family="Helvetica,sans-Serif" font-size="10.00">vk_mem_alloc.h</text>
</a>
</g>
</g>
<!-- Node7&#45;&gt;Node12 -->
<g id="edge11_Node000007_Node000012" class="edge">
<title>Node7&#45;&gt;Node12</title>
<g id="a_edge11_Node000007_Node000012"><a xlink:title=" ">
<path fill="none" stroke="#63b8ff" d="M407.6,-55.55C434.83,-45.83 469.58,-33.41 495.48,-24.16"/>
<polygon fill="#63b8ff" stroke="#63b8ff" points="496.33,-27.58 504.57,-20.92 493.98,-20.98 496.33,-27.58"/>
</a>
</g>
</g>
<!-- Node13&#45;&gt;Node4 -->
<g id="edge14_Node000013_Node000004" class="edge">
<title>Node13&#45;&gt;Node4</title>
<g id="a_edge14_Node000013_Node000004"><a xlink:title=" ">
<path fill="none" stroke="#63b8ff" d="M160.31,-123.69C145.2,-113.2 125.21,-99.31 109.98,-88.73"/>
<polygon fill="#63b8ff" stroke="#63b8ff" points="112.2,-86.01 101.99,-83.18 108.21,-91.76 112.2,-86.01"/>
</a>
</g>
</g>
<!-- Node13&#45;&gt;Node6 -->
<g id="edge15_Node000013_Node000006" class="edge">
<title>Node13&#45;&gt;Node6</title>
<g id="a_edge15_Node000013_Node000006"><a xlink:title=" ">
<path fill="none" stroke="#63b8ff" d="M182.34,-123.56C182.34,-100.58 182.34,-57.34 182.34,-31.66"/>
<polygon fill="#63b8ff" stroke="#63b8ff" points="185.84,-31.84 182.34,-21.84 178.84,-31.84 185.84,-31.84"/>
</a>
</g>
</g>
<!-- Node13&#45;&gt;Node7 -->
<g id="edge16_Node000013_Node000007" class="edge">
<title>Node13&#45;&gt;Node7</title>
<g id="a_edge16_Node000013_Node000007"><a xlink:title=" ">
<path fill="none" stroke="#63b8ff" d="M225.01,-123.53C250.7,-114.21 283.64,-102.27 311.03,-92.33"/>
<polygon fill="#63b8ff" stroke="#63b8ff" points="311.99,-95.71 320.2,-89.01 309.6,-89.13 311.99,-95.71"/>
</a>
</g>
</g>
</g>
</svg>
