<?xml version="1.0" encoding="UTF-8" standalone="no"?>
<!DOCTYPE svg PUBLIC "-//W3C//DTD SVG 1.1//EN"
 "http://www.w3.org/Graphics/SVG/1.1/DTD/svg11.dtd">
<!-- Generated by graphviz version 10.0.1 (20240210.2158)
 -->
<!-- Title: hri::CameraParameters Pages: 1 -->
<svg width="118pt" height="108pt"
 viewBox="0.00 0.00 118.00 108.00" xmlns="http://www.w3.org/2000/svg" xmlns:xlink="http://www.w3.org/1999/xlink">
<g id="graph0" class="graph" transform="scale(1 1) rotate(0) translate(4 104)">
<title>hri::CameraParameters</title>
<!-- Node1 -->
<g id="Node000001" class="node">
<title>Node1</title>
<g id="a_Node000001"><a xlink:title="The camera parameters struct contains parameters for the projection matrix and viewplane generation.">
<polygon fill="#999999" stroke="none" points="110,-100 0,-100 0,0 110,0 110,-100"/>
<text text-anchor="start" x="4.75" y="-86.5" font-family="Helvetica,sans-Serif" font-size="10.00">hri::CameraParameters</text>
<text text-anchor="start" x="8" y="-70.5" font-family="Helvetica,sans-Serif" font-size="10.00">+</text>
<text text-anchor="start" x="22" y="-70.5" font-family="Helvetica,sans-Serif" font-size="10.00">float fovYDegrees</text>
<text text-anchor="start" x="8" y="-54.5" font-family="Helvetica,sans-Serif" font-size="10.00">+</text>
<text text-anchor="start" x="22" y="-54.5" font-family="Helvetica,sans-Serif" font-size="10.00">float aspectRatio</text>
<text text-anchor="start" x="8" y="-38.5" font-family="Helvetica,sans-Serif" font-size="10.00">+</text>
<text text-anchor="start" x="22" y="-38.5" font-family="Helvetica,sans-Serif" font-size="10.00">float zNear</text>
<text text-anchor="start" x="8" y="-22.5" font-family="Helvetica,sans-Serif" font-size="10.00">+</text>
<text text-anchor="start" x="22" y="-22.5" font-family="Helvetica,sans-Serif" font-size="10.00">float zFar</text>
<text text-anchor="start" x="53.5" y="-6.5" font-family="Helvetica,sans-Serif" font-size="10.00"> </text>
<polygon fill="#666666" stroke="#666666" points="0,-82 0,-82 110,-82 110,-82 0,-82"/>
<polygon fill="#666666" stroke="#666666" points="0,-18 0,-18 20,-18 20,-18 0,-18"/>
<polygon fill="#666666" stroke="#666666" points="20,-18 20,-18 110,-18 110,-18 20,-18"/>
<polygon fill="none" stroke="#666666" points="0,0 0,-100 110,-100 110,0 0,0"/>
</a>
</g>
</g>
</g>
</svg>
