<?xml version="1.0" encoding="UTF-8" standalone="no"?>
<!DOCTYPE svg PUBLIC "-//W3C//DTD SVG 1.1//EN"
 "http://www.w3.org/Graphics/SVG/1.1/DTD/svg11.dtd">
<!-- Generated by graphviz version 10.0.1 (20240210.2158)
 -->
<!-- Title: hri::TextureExtent Pages: 1 -->
<svg width="95pt" height="92pt"
 viewBox="0.00 0.00 95.00 92.00" xmlns="http://www.w3.org/2000/svg" xmlns:xlink="http://www.w3.org/1999/xlink">
<g id="graph0" class="graph" transform="scale(1 1) rotate(0) translate(4 88)">
<title>hri::TextureExtent</title>
<!-- Node1 -->
<g id="Node000001" class="node">
<title>Node1</title>
<g id="a_Node000001"><a xlink:title="The TextureExtent represents a texture&#39;s width, height, and channels.">
<polygon fill="#999999" stroke="none" points="87,-84 0,-84 0,0 87,0 87,-84"/>
<text text-anchor="start" x="4.88" y="-70.5" font-family="Helvetica,sans-Serif" font-size="10.00">hri::TextureExtent</text>
<text text-anchor="start" x="11.5" y="-54.5" font-family="Helvetica,sans-Serif" font-size="10.00">+</text>
<text text-anchor="start" x="29" y="-54.5" font-family="Helvetica,sans-Serif" font-size="10.00">width</text>
<text text-anchor="start" x="11.5" y="-38.5" font-family="Helvetica,sans-Serif" font-size="10.00">+</text>
<text text-anchor="start" x="29" y="-38.5" font-family="Helvetica,sans-Serif" font-size="10.00">height</text>
<text text-anchor="start" x="11.5" y="-22.5" font-family="Helvetica,sans-Serif" font-size="10.00">+</text>
<text text-anchor="start" x="29" y="-22.5" font-family="Helvetica,sans-Serif" font-size="10.00">channels</text>
<text text-anchor="start" x="42" y="-6.5" font-family="Helvetica,sans-Serif" font-size="10.00"> </text>
<polygon fill="#666666" stroke="#666666" points="0,-66 0,-66 87,-66 87,-66 0,-66"/>
<polygon fill="#666666" stroke="#666666" points="0,-18 0,-18 27,-18 27,-18 0,-18"/>
<polygon fill="#666666" stroke="#666666" points="27,-18 27,-18 87,-18 87,-18 27,-18"/>
<polygon fill="none" stroke="#666666" points="0,0 0,-84 87,-84 87,0 0,0"/>
</a>
</g>
</g>
</g>
</svg>
