<?xml version="1.0" encoding="UTF-8" standalone="no"?>
<!DOCTYPE svg PUBLIC "-//W3C//DTD SVG 1.1//EN"
 "http://www.w3.org/Graphics/SVG/1.1/DTD/svg11.dtd">
<!-- Generated by graphviz version 10.0.1 (20240210.2158)
 -->
<!-- Title: AccelerationStructureExtensionDispatchTable Pages: 1 -->
<svg width="240pt" height="1236pt"
 viewBox="0.00 0.00 240.00 1236.00" xmlns="http://www.w3.org/2000/svg" xmlns:xlink="http://www.w3.org/1999/xlink">
<g id="graph0" class="graph" transform="scale(1 1) rotate(0) translate(4 1232)">
<title>AccelerationStructureExtensionDispatchTable</title>
<!-- Node1 -->
<g id="Node000001" class="node">
<title>Node1</title>
<g id="a_Node000001"><a xlink:title=" ">
<polygon fill="#999999" stroke="none" points="232,-464 0,-464 0,0 232,0 232,-464"/>
<text text-anchor="start" x="47.38" y="-450.5" font-family="Helvetica,sans-Serif" font-size="10.00">AccelerationStructureExtension</text>
<text text-anchor="start" x="85.25" y="-438.5" font-family="Helvetica,sans-Serif" font-size="10.00">DispatchTable</text>
<text text-anchor="start" x="4" y="-422.5" font-family="Helvetica,sans-Serif" font-size="10.00">+</text>
<text text-anchor="start" x="14" y="-422.5" font-family="Helvetica,sans-Serif" font-size="10.00">PFN_vkBuildAccelerationStructures</text>
<text text-anchor="start" x="14" y="-410.5" font-family="Helvetica,sans-Serif" font-size="10.00">KHR vkBuildAccelerationStructures</text>
<text text-anchor="start" x="4" y="-394.5" font-family="Helvetica,sans-Serif" font-size="10.00">+</text>
<text text-anchor="start" x="14" y="-394.5" font-family="Helvetica,sans-Serif" font-size="10.00">PFN_vkCmdBuildAcceleration</text>
<text text-anchor="start" x="14" y="-382.5" font-family="Helvetica,sans-Serif" font-size="10.00">StructuresIndirectKHR vkCmdBuild</text>
<text text-anchor="start" x="14" y="-370.5" font-family="Helvetica,sans-Serif" font-size="10.00">AccelerationStructuresIndirect</text>
<text text-anchor="start" x="4" y="-354.5" font-family="Helvetica,sans-Serif" font-size="10.00">+</text>
<text text-anchor="start" x="14" y="-354.5" font-family="Helvetica,sans-Serif" font-size="10.00">PFN_vkCmdBuildAcceleration</text>
<text text-anchor="start" x="14" y="-342.5" font-family="Helvetica,sans-Serif" font-size="10.00">StructuresKHR vkCmdBuildAcceleration</text>
<text text-anchor="start" x="14" y="-330.5" font-family="Helvetica,sans-Serif" font-size="10.00">Structures</text>
<text text-anchor="start" x="4" y="-314.5" font-family="Helvetica,sans-Serif" font-size="10.00">+</text>
<text text-anchor="start" x="14" y="-314.5" font-family="Helvetica,sans-Serif" font-size="10.00">PFN_vkCmdCopyAcceleration</text>
<text text-anchor="start" x="14" y="-302.5" font-family="Helvetica,sans-Serif" font-size="10.00">StructureKHR vkCmdCopyAcceleration</text>
<text text-anchor="start" x="14" y="-290.5" font-family="Helvetica,sans-Serif" font-size="10.00">Structure</text>
<text text-anchor="start" x="4" y="-274.5" font-family="Helvetica,sans-Serif" font-size="10.00">+</text>
<text text-anchor="start" x="14" y="-274.5" font-family="Helvetica,sans-Serif" font-size="10.00">PFN_vkCmdCopyAcceleration</text>
<text text-anchor="start" x="14" y="-262.5" font-family="Helvetica,sans-Serif" font-size="10.00">StructureToMemoryKHR vkCmdCopy</text>
<text text-anchor="start" x="14" y="-250.5" font-family="Helvetica,sans-Serif" font-size="10.00">AccelerationStructureToMemory</text>
<text text-anchor="start" x="4" y="-234.5" font-family="Helvetica,sans-Serif" font-size="10.00">+</text>
<text text-anchor="start" x="14" y="-234.5" font-family="Helvetica,sans-Serif" font-size="10.00">PFN_vkCmdCopyMemoryToAcceleration</text>
<text text-anchor="start" x="14" y="-222.5" font-family="Helvetica,sans-Serif" font-size="10.00">StructureKHR vkCmdCopyMemoryToAcceleration</text>
<text text-anchor="start" x="14" y="-210.5" font-family="Helvetica,sans-Serif" font-size="10.00">Structure</text>
<text text-anchor="start" x="4" y="-194.5" font-family="Helvetica,sans-Serif" font-size="10.00">+</text>
<text text-anchor="start" x="14" y="-194.5" font-family="Helvetica,sans-Serif" font-size="10.00">PFN_vkCmdWriteAcceleration</text>
<text text-anchor="start" x="14" y="-182.5" font-family="Helvetica,sans-Serif" font-size="10.00">StructuresPropertiesKHR</text>
<text text-anchor="start" x="14" y="-170.5" font-family="Helvetica,sans-Serif" font-size="10.00"> vkCmdWriteAccelerationStructures</text>
<text text-anchor="start" x="14" y="-158.5" font-family="Helvetica,sans-Serif" font-size="10.00">Properties</text>
<text text-anchor="start" x="4" y="-142.5" font-family="Helvetica,sans-Serif" font-size="10.00">+</text>
<text text-anchor="start" x="14" y="-142.5" font-family="Helvetica,sans-Serif" font-size="10.00">PFN_vkCopyAccelerationStructure</text>
<text text-anchor="start" x="14" y="-130.5" font-family="Helvetica,sans-Serif" font-size="10.00">KHR vkCopyAccelerationStructure</text>
<text text-anchor="start" x="4" y="-114.5" font-family="Helvetica,sans-Serif" font-size="10.00">+</text>
<text text-anchor="start" x="14" y="-114.5" font-family="Helvetica,sans-Serif" font-size="10.00">PFN_vkCopyAccelerationStructure</text>
<text text-anchor="start" x="14" y="-102.5" font-family="Helvetica,sans-Serif" font-size="10.00">ToMemoryKHR vkCopyAccelerationStructure</text>
<text text-anchor="start" x="14" y="-90.5" font-family="Helvetica,sans-Serif" font-size="10.00">ToMemory</text>
<text text-anchor="start" x="4" y="-74.5" font-family="Helvetica,sans-Serif" font-size="10.00">+</text>
<text text-anchor="start" x="14" y="-74.5" font-family="Helvetica,sans-Serif" font-size="10.00">PFN_vkCopyMemoryToAcceleration</text>
<text text-anchor="start" x="14" y="-62.5" font-family="Helvetica,sans-Serif" font-size="10.00">StructureKHR vkCopyMemoryToAcceleration</text>
<text text-anchor="start" x="14" y="-50.5" font-family="Helvetica,sans-Serif" font-size="10.00">Structure</text>
<text text-anchor="start" x="14" y="-34.5" font-family="Helvetica,sans-Serif" font-size="10.00">and 6 more...</text>
<text text-anchor="start" x="4" y="-18.5" font-family="Helvetica,sans-Serif" font-size="10.00">+</text>
<text text-anchor="start" x="14" y="-18.5" font-family="Helvetica,sans-Serif" font-size="10.00">AccelerationStructureExtension</text>
<text text-anchor="start" x="14" y="-6.5" font-family="Helvetica,sans-Serif" font-size="10.00">DispatchTable(hri::RenderContext &amp;ctx)</text>
<polygon fill="#666666" stroke="#666666" points="0,-434 0,-434 232,-434 232,-434 0,-434"/>
<polygon fill="#666666" stroke="#666666" points="0,-30 0,-30 12,-30 12,-30 0,-30"/>
<polygon fill="#666666" stroke="#666666" points="12,-30 12,-30 232,-30 232,-30 12,-30"/>
<polygon fill="none" stroke="#666666" points="0,0 0,-464 232,-464 232,0 0,0"/>
</a>
</g>
</g>
<!-- Node2 -->
<g id="Node000002" class="node">
<title>Node2</title>
<g id="a_Node000002"><a xlink:href="classhri_1_1_render_context.html" target="_top" xlink:title="THe RenderContext manages the Vulkan instance, device, and swapchain state.">
<polygon fill="white" stroke="none" points="196,-936 36,-936 36,-512 196,-512 196,-936"/>
<text text-anchor="start" x="75.5" y="-922.5" font-family="Helvetica,sans-Serif" font-size="10.00">hri::RenderContext</text>
<text text-anchor="start" x="40" y="-906.5" font-family="Helvetica,sans-Serif" font-size="10.00">+</text>
<text text-anchor="start" x="50" y="-906.5" font-family="Helvetica,sans-Serif" font-size="10.00">vkb::Instance instance</text>
<text text-anchor="start" x="40" y="-890.5" font-family="Helvetica,sans-Serif" font-size="10.00">+</text>
<text text-anchor="start" x="50" y="-890.5" font-family="Helvetica,sans-Serif" font-size="10.00">VkSurfaceKHR surface</text>
<text text-anchor="start" x="40" y="-874.5" font-family="Helvetica,sans-Serif" font-size="10.00">+</text>
<text text-anchor="start" x="50" y="-874.5" font-family="Helvetica,sans-Serif" font-size="10.00">vkb::PhysicalDevice gpu</text>
<text text-anchor="start" x="40" y="-858.5" font-family="Helvetica,sans-Serif" font-size="10.00">+</text>
<text text-anchor="start" x="50" y="-858.5" font-family="Helvetica,sans-Serif" font-size="10.00">vkb::Device device</text>
<text text-anchor="start" x="40" y="-842.5" font-family="Helvetica,sans-Serif" font-size="10.00">+</text>
<text text-anchor="start" x="50" y="-842.5" font-family="Helvetica,sans-Serif" font-size="10.00">VmaAllocator allocator</text>
<text text-anchor="start" x="40" y="-826.5" font-family="Helvetica,sans-Serif" font-size="10.00">+</text>
<text text-anchor="start" x="50" y="-826.5" font-family="Helvetica,sans-Serif" font-size="10.00">vkb::Swapchain swapchain</text>
<text text-anchor="start" x="40" y="-810.5" font-family="Helvetica,sans-Serif" font-size="10.00">+</text>
<text text-anchor="start" x="50" y="-810.5" font-family="Helvetica,sans-Serif" font-size="10.00">RenderContext(RenderContext</text>
<text text-anchor="start" x="50" y="-798.5" font-family="Helvetica,sans-Serif" font-size="10.00">CreateInfo &amp;createInfo)</text>
<text text-anchor="start" x="40" y="-782.5" font-family="Helvetica,sans-Serif" font-size="10.00">+</text>
<text text-anchor="start" x="50" y="-782.5" font-family="Helvetica,sans-Serif" font-size="10.00">virtual ~RenderContext()</text>
<text text-anchor="start" x="40" y="-766.5" font-family="Helvetica,sans-Serif" font-size="10.00">+</text>
<text text-anchor="start" x="50" y="-766.5" font-family="Helvetica,sans-Serif" font-size="10.00">RenderContext(const</text>
<text text-anchor="start" x="50" y="-754.5" font-family="Helvetica,sans-Serif" font-size="10.00"> RenderContext &amp;)=delete</text>
<text text-anchor="start" x="40" y="-738.5" font-family="Helvetica,sans-Serif" font-size="10.00">+</text>
<text text-anchor="start" x="50" y="-738.5" font-family="Helvetica,sans-Serif" font-size="10.00">RenderContext &amp; operator</text>
<text text-anchor="start" x="50" y="-726.5" font-family="Helvetica,sans-Serif" font-size="10.00">=(const RenderContext &amp;)</text>
<text text-anchor="start" x="50" y="-714.5" font-family="Helvetica,sans-Serif" font-size="10.00">=delete</text>
<text text-anchor="start" x="40" y="-698.5" font-family="Helvetica,sans-Serif" font-size="10.00">+</text>
<text text-anchor="start" x="50" y="-698.5" font-family="Helvetica,sans-Serif" font-size="10.00">RenderContext(RenderContext</text>
<text text-anchor="start" x="50" y="-686.5" font-family="Helvetica,sans-Serif" font-size="10.00"> &amp;&amp;other) noexcept</text>
<text text-anchor="start" x="40" y="-670.5" font-family="Helvetica,sans-Serif" font-size="10.00">+</text>
<text text-anchor="start" x="50" y="-670.5" font-family="Helvetica,sans-Serif" font-size="10.00">RenderContext &amp; operator</text>
<text text-anchor="start" x="50" y="-658.5" font-family="Helvetica,sans-Serif" font-size="10.00">=(RenderContext &amp;&amp;other)</text>
<text text-anchor="start" x="50" y="-646.5" font-family="Helvetica,sans-Serif" font-size="10.00"> noexcept</text>
<text text-anchor="start" x="40" y="-630.5" font-family="Helvetica,sans-Serif" font-size="10.00">+</text>
<text text-anchor="start" x="50" y="-630.5" font-family="Helvetica,sans-Serif" font-size="10.00">void setVSyncMode(VSyncMode</text>
<text text-anchor="start" x="50" y="-618.5" font-family="Helvetica,sans-Serif" font-size="10.00"> vsyncMode)</text>
<text text-anchor="start" x="40" y="-602.5" font-family="Helvetica,sans-Serif" font-size="10.00">+</text>
<text text-anchor="start" x="50" y="-602.5" font-family="Helvetica,sans-Serif" font-size="10.00">void recreateSwapchain()</text>
<text text-anchor="start" x="40" y="-586.5" font-family="Helvetica,sans-Serif" font-size="10.00">+</text>
<text text-anchor="start" x="50" y="-586.5" font-family="Helvetica,sans-Serif" font-size="10.00">_PFn getInstanceFunction</text>
<text text-anchor="start" x="50" y="-574.5" font-family="Helvetica,sans-Serif" font-size="10.00">(const char *name) const</text>
<text text-anchor="start" x="40" y="-558.5" font-family="Helvetica,sans-Serif" font-size="10.00">+</text>
<text text-anchor="start" x="50" y="-558.5" font-family="Helvetica,sans-Serif" font-size="10.00">_PFn getDeviceFunction</text>
<text text-anchor="start" x="50" y="-546.5" font-family="Helvetica,sans-Serif" font-size="10.00">(const char *name) const</text>
<text text-anchor="start" x="40" y="-530.5" font-family="Helvetica,sans-Serif" font-size="10.00">+</text>
<text text-anchor="start" x="50" y="-530.5" font-family="Helvetica,sans-Serif" font-size="10.00">VkFormat swapFormat</text>
<text text-anchor="start" x="50" y="-518.5" font-family="Helvetica,sans-Serif" font-size="10.00">() const</text>
<polygon fill="#666666" stroke="#666666" points="36,-918 36,-918 196,-918 196,-918 36,-918"/>
<polygon fill="#666666" stroke="#666666" points="36,-822 36,-822 48,-822 48,-822 36,-822"/>
<polygon fill="#666666" stroke="#666666" points="48,-822 48,-822 196,-822 196,-822 48,-822"/>
<polygon fill="none" stroke="#666666" points="36,-512 36,-936 196,-936 196,-512 36,-512"/>
</a>
</g>
</g>
<!-- Node2&#45;&gt;Node1 -->
<g id="edge1_Node000001_Node000002" class="edge">
<title>Node2&#45;&gt;Node1</title>
<g id="a_edge1_Node000001_Node000002"><a xlink:title=" ">
<path fill="none" stroke="#63b8ff" d="M116,-512.35C116,-500.54 116,-488.62 116,-476.71"/>
<polygon fill="none" stroke="#63b8ff" points="116,-476.69 112,-470.69 116,-464.69 120,-470.69 116,-476.69"/>
</a>
</g>
<text text-anchor="middle" x="136.62" y="-484.5" font-family="Helvetica,sans-Serif" font-size="10.00" fill="grey"> +context</text>
</g>
<!-- Node3 -->
<g id="Node000003" class="node">
<title>Node3</title>
<g id="a_Node000003"><a xlink:href="classhri_1_1_render_context_queue_state.html" target="_top" xlink:title="The context queue state creates and maintains the device queue setup.">
<polygon fill="white" stroke="none" points="187,-1076 45,-1076 45,-984 187,-984 187,-1076"/>
<text text-anchor="start" x="49.62" y="-1062.5" font-family="Helvetica,sans-Serif" font-size="10.00">hri::RenderContextQueueState</text>
<text text-anchor="start" x="114.5" y="-1046.5" font-family="Helvetica,sans-Serif" font-size="10.00"> </text>
<text text-anchor="start" x="51" y="-1030.5" font-family="Helvetica,sans-Serif" font-size="10.00">+</text>
<text text-anchor="start" x="63" y="-1030.5" font-family="Helvetica,sans-Serif" font-size="10.00">RenderContextQueueState</text>
<text text-anchor="start" x="63" y="-1018.5" font-family="Helvetica,sans-Serif" font-size="10.00">()=default</text>
<text text-anchor="start" x="51" y="-1002.5" font-family="Helvetica,sans-Serif" font-size="10.00">+</text>
<text text-anchor="start" x="63" y="-1002.5" font-family="Helvetica,sans-Serif" font-size="10.00">RenderContextQueueState</text>
<text text-anchor="start" x="63" y="-990.5" font-family="Helvetica,sans-Serif" font-size="10.00">(vkb::Device device)</text>
<polygon fill="#666666" stroke="#666666" points="45,-1058 45,-1058 187,-1058 187,-1058 45,-1058"/>
<polygon fill="#666666" stroke="#666666" points="45,-1042 45,-1042 187,-1042 187,-1042 45,-1042"/>
<polygon fill="none" stroke="#666666" points="45,-984 45,-1076 187,-1076 187,-984 45,-984"/>
</a>
</g>
</g>
<!-- Node3&#45;&gt;Node2 -->
<g id="edge2_Node000002_Node000003" class="edge">
<title>Node3&#45;&gt;Node2</title>
<g id="a_edge2_Node000002_Node000003"><a xlink:title=" ">
<path fill="none" stroke="#63b8ff" d="M116,-984.14C116,-973.51 116,-961.44 116,-948.48"/>
<polygon fill="none" stroke="#63b8ff" points="116,-948.7 112,-942.7 116,-936.7 120,-942.7 116,-948.7"/>
</a>
</g>
<text text-anchor="middle" x="136.25" y="-956.5" font-family="Helvetica,sans-Serif" font-size="10.00" fill="grey"> +queues</text>
</g>
<!-- Node4 -->
<g id="Node000004" class="node">
<title>Node4</title>
<g id="a_Node000004"><a xlink:href="structhri_1_1_device_queue.html" target="_top" xlink:title="A Device Queue is a queue on the logical device to which operations can be submitted.">
<polygon fill="white" stroke="none" points="161,-1228 71,-1228 71,-1160 161,-1160 161,-1228"/>
<text text-anchor="start" x="79.25" y="-1214.5" font-family="Helvetica,sans-Serif" font-size="10.00">hri::DeviceQueue</text>
<text text-anchor="start" x="75" y="-1198.5" font-family="Helvetica,sans-Serif" font-size="10.00">+</text>
<text text-anchor="start" x="85" y="-1198.5" font-family="Helvetica,sans-Serif" font-size="10.00">uint32_t family</text>
<text text-anchor="start" x="75" y="-1182.5" font-family="Helvetica,sans-Serif" font-size="10.00">+</text>
<text text-anchor="start" x="85" y="-1182.5" font-family="Helvetica,sans-Serif" font-size="10.00">VkQueue handle</text>
<text text-anchor="start" x="114.5" y="-1166.5" font-family="Helvetica,sans-Serif" font-size="10.00"> </text>
<polygon fill="#666666" stroke="#666666" points="71,-1210 71,-1210 161,-1210 161,-1210 71,-1210"/>
<polygon fill="#666666" stroke="#666666" points="71,-1178 71,-1178 83,-1178 83,-1178 71,-1178"/>
<polygon fill="#666666" stroke="#666666" points="83,-1178 83,-1178 161,-1178 161,-1178 83,-1178"/>
<polygon fill="none" stroke="#666666" points="71,-1160 71,-1228 161,-1228 161,-1160 71,-1160"/>
</a>
</g>
</g>
<!-- Node4&#45;&gt;Node3 -->
<g id="edge3_Node000003_Node000004" class="edge">
<title>Node4&#45;&gt;Node3</title>
<g id="a_edge3_Node000003_Node000004"><a xlink:title=" ">
<path fill="none" stroke="#63b8ff" d="M116,-1160.22C116,-1139.7 116,-1112.7 116,-1088.68"/>
<polygon fill="none" stroke="#63b8ff" points="116,-1088.61 112,-1082.61 116,-1076.61 120,-1082.61 116,-1088.61"/>
</a>
</g>
<text text-anchor="middle" x="153.5" y="-1132.5" font-family="Helvetica,sans-Serif" font-size="10.00" fill="grey"> +computeQueue</text>
<text text-anchor="middle" x="153.5" y="-1120.5" font-family="Helvetica,sans-Serif" font-size="10.00" fill="grey">+graphicsQueue</text>
<text text-anchor="middle" x="153.5" y="-1108.5" font-family="Helvetica,sans-Serif" font-size="10.00" fill="grey">+presentQueue</text>
<text text-anchor="middle" x="153.5" y="-1096.5" font-family="Helvetica,sans-Serif" font-size="10.00" fill="grey">+transferQueue</text>
</g>
</g>
</svg>
