<?xml version="1.0" encoding="UTF-8" standalone="no"?>
<!DOCTYPE svg PUBLIC "-//W3C//DTD SVG 1.1//EN"
 "http://www.w3.org/Graphics/SVG/1.1/DTD/svg11.dtd">
<!-- Generated by graphviz version 10.0.1 (20240210.2158)
 -->
<!-- Title: raytracing::RayTracingContext Pages: 1 -->
<!--zoomable 1536 -->

<svg id="main" version="1.1" xmlns="http://www.w3.org/2000/svg" xmlns:xlink="http://www.w3.org/1999/xlink" xml:space="preserve" onload="init(evt)">
<style type="text/css"><![CDATA[
.node, .edge {opacity: 0.7;}
.node.selected, .edge.selected {opacity: 1;}
.edge:hover path { stroke: red; }
.edge:hover polygon { stroke: red; fill: red; }
]]></style>

<defs>
  <circle id="rim" cx="0" cy="0" r="7"/>
  <circle id="rim2" cx="0" cy="0" r="3.5"/>
  <g id="zoomPlus">
    <use xlink:href="#rim" fill="#404040"><set attributeName="fill" to="#808080" begin="zoomplus.mouseover" end="zoomplus.mouseout"/></use>
    <path d="M-4,0h8M0,-4v8" fill="none" stroke="white" stroke-width="1.5" pointer-events="none"/>
  </g>
  <g id="zoomMin">
    <use xlink:href="#rim" fill="#404040"><set attributeName="fill" to="#808080" begin="zoomminus.mouseover" end="zoomminus.mouseout"/></use>
    <path d="M-4,0h8" fill="none" stroke="white" stroke-width="1.5" pointer-events="none"/>
  </g>
  <g id="arrowUp" transform="translate(30 24)">
    <use xlink:href="#rim"/>
    <path pointer-events="none" fill="none" stroke="white" stroke-width="1.5" d="M0,-3.0v7 M-2.5,-0.5L0,-3.0L2.5,-0.5"/>
  </g>
  <g id="arrowRight" transform="rotate(90) translate(36 -43)">
    <use xlink:href="#rim"/>
    <path pointer-events="none" fill="none" stroke="white" stroke-width="1.5" d="M0,-3.0v7 M-2.5,-0.5L0,-3.0L2.5,-0.5"/>
  </g>
  <g id="arrowDown" transform="rotate(180) translate(-30 -48)">
    <use xlink:href="#rim"/>
    <path pointer-events="none" fill="none" stroke="white" stroke-width="1.5" d="M0,-3.0v7 M-2.5,-0.5L0,-3.0L2.5,-0.5"/>
  </g>
  <g id="arrowLeft" transform="rotate(270) translate(-36 17)">
    <use xlink:href="#rim"/>
    <path pointer-events="none" fill="none" stroke="white" stroke-width="1.5" d="M0,-3.0v7 M-2.5,-0.5L0,-3.0L2.5,-0.5"/>
  </g>
  <g id="resetDef">
    <use xlink:href="#rim2" fill="#404040"><set attributeName="fill" to="#808080" begin="reset.mouseover" end="reset.mouseout"/></use>
  </g>
</defs>
<script type="application/ecmascript">
var viewWidth = 827;
var viewHeight = 1536;
var sectionId = 'dynsection-0';
</script>
<script type="application/ecmascript" xlink:href="svg.min.js"/>
<svg id="graph" class="graph">
<g id="viewport">
<title>raytracing::RayTracingContext</title>
<!-- Node1 -->
<g id="Node000001" class="node">
<title>Node1</title>
<g id="a_Node000001"><a xlink:title="A Ray Tracing Context uses a render context to initialize dispatch tables required for ray tracing....">
<polygon fill="#999999" stroke="none" points="403.77,-252 256.77,-252 256.77,0 403.77,0 403.77,-252"/>
<text text-anchor="start" x="264.64" y="-238.5" font-family="Helvetica,sans-Serif" font-size="10.00">raytracing::RayTracingContext</text>
<text text-anchor="start" x="328.77" y="-222.5" font-family="Helvetica,sans-Serif" font-size="10.00"> </text>
<text text-anchor="start" x="260.77" y="-206.5" font-family="Helvetica,sans-Serif" font-size="10.00">+</text>
<text text-anchor="start" x="270.77" y="-206.5" font-family="Helvetica,sans-Serif" font-size="10.00">RayTracingContext</text>
<text text-anchor="start" x="270.77" y="-194.5" font-family="Helvetica,sans-Serif" font-size="10.00">()=delete</text>
<text text-anchor="start" x="260.77" y="-178.5" font-family="Helvetica,sans-Serif" font-size="10.00">+</text>
<text text-anchor="start" x="270.77" y="-178.5" font-family="Helvetica,sans-Serif" font-size="10.00">RayTracingContext</text>
<text text-anchor="start" x="270.77" y="-166.5" font-family="Helvetica,sans-Serif" font-size="10.00">(hri::RenderContext &amp;ctx)</text>
<text text-anchor="start" x="260.77" y="-150.5" font-family="Helvetica,sans-Serif" font-size="10.00">+</text>
<text text-anchor="start" x="270.77" y="-150.5" font-family="Helvetica,sans-Serif" font-size="10.00">RayTracingContext</text>
<text text-anchor="start" x="270.77" y="-138.5" font-family="Helvetica,sans-Serif" font-size="10.00">(RayTracingContext &amp;)</text>
<text text-anchor="start" x="270.77" y="-126.5" font-family="Helvetica,sans-Serif" font-size="10.00">=delete</text>
<text text-anchor="start" x="260.77" y="-110.5" font-family="Helvetica,sans-Serif" font-size="10.00">+</text>
<text text-anchor="start" x="270.77" y="-110.5" font-family="Helvetica,sans-Serif" font-size="10.00">RayTracingContext &amp;</text>
<text text-anchor="start" x="270.77" y="-98.5" font-family="Helvetica,sans-Serif" font-size="10.00"> operator=(RayTracingContext</text>
<text text-anchor="start" x="270.77" y="-86.5" font-family="Helvetica,sans-Serif" font-size="10.00"> &amp;)=delete</text>
<text text-anchor="start" x="260.77" y="-70.5" font-family="Helvetica,sans-Serif" font-size="10.00">+</text>
<text text-anchor="start" x="270.77" y="-70.5" font-family="Helvetica,sans-Serif" font-size="10.00">RayTracingContext</text>
<text text-anchor="start" x="270.77" y="-58.5" font-family="Helvetica,sans-Serif" font-size="10.00">(RayTracingContext &amp;&amp;other)</text>
<text text-anchor="start" x="270.77" y="-46.5" font-family="Helvetica,sans-Serif" font-size="10.00"> noexcept</text>
<text text-anchor="start" x="260.77" y="-30.5" font-family="Helvetica,sans-Serif" font-size="10.00">+</text>
<text text-anchor="start" x="270.77" y="-30.5" font-family="Helvetica,sans-Serif" font-size="10.00">RayTracingContext &amp;</text>
<text text-anchor="start" x="270.77" y="-18.5" font-family="Helvetica,sans-Serif" font-size="10.00"> operator=(RayTracingContext</text>
<text text-anchor="start" x="270.77" y="-6.5" font-family="Helvetica,sans-Serif" font-size="10.00"> &amp;&amp;other) noexcept</text>
<polygon fill="#666666" stroke="#666666" points="256.77,-234 256.77,-234 403.77,-234 403.77,-234 256.77,-234"/>
<polygon fill="#666666" stroke="#666666" points="256.77,-218 256.77,-218 403.77,-218 403.77,-218 256.77,-218"/>
<polygon fill="none" stroke="#666666" points="256.77,0 256.77,-252 403.77,-252 403.77,0 256.77,0"/>
</a>
</g>
</g>
<!-- Node2 -->
<g id="Node000002" class="node">
<title>Node2</title>
<g id="a_Node000002"><a xlink:href="classhri_1_1_render_context.html" target="_top" xlink:title="THe RenderContext manages the Vulkan instance, device, and swapchain state.">
<polygon fill="white" stroke="none" points="436.27,-1236 276.27,-1236 276.27,-812 436.27,-812 436.27,-1236"/>
<text text-anchor="start" x="315.77" y="-1222.5" font-family="Helvetica,sans-Serif" font-size="10.00">hri::RenderContext</text>
<text text-anchor="start" x="280.27" y="-1206.5" font-family="Helvetica,sans-Serif" font-size="10.00">+</text>
<text text-anchor="start" x="290.27" y="-1206.5" font-family="Helvetica,sans-Serif" font-size="10.00">vkb::Instance instance</text>
<text text-anchor="start" x="280.27" y="-1190.5" font-family="Helvetica,sans-Serif" font-size="10.00">+</text>
<text text-anchor="start" x="290.27" y="-1190.5" font-family="Helvetica,sans-Serif" font-size="10.00">VkSurfaceKHR surface</text>
<text text-anchor="start" x="280.27" y="-1174.5" font-family="Helvetica,sans-Serif" font-size="10.00">+</text>
<text text-anchor="start" x="290.27" y="-1174.5" font-family="Helvetica,sans-Serif" font-size="10.00">vkb::PhysicalDevice gpu</text>
<text text-anchor="start" x="280.27" y="-1158.5" font-family="Helvetica,sans-Serif" font-size="10.00">+</text>
<text text-anchor="start" x="290.27" y="-1158.5" font-family="Helvetica,sans-Serif" font-size="10.00">vkb::Device device</text>
<text text-anchor="start" x="280.27" y="-1142.5" font-family="Helvetica,sans-Serif" font-size="10.00">+</text>
<text text-anchor="start" x="290.27" y="-1142.5" font-family="Helvetica,sans-Serif" font-size="10.00">VmaAllocator allocator</text>
<text text-anchor="start" x="280.27" y="-1126.5" font-family="Helvetica,sans-Serif" font-size="10.00">+</text>
<text text-anchor="start" x="290.27" y="-1126.5" font-family="Helvetica,sans-Serif" font-size="10.00">vkb::Swapchain swapchain</text>
<text text-anchor="start" x="280.27" y="-1110.5" font-family="Helvetica,sans-Serif" font-size="10.00">+</text>
<text text-anchor="start" x="290.27" y="-1110.5" font-family="Helvetica,sans-Serif" font-size="10.00">RenderContext(RenderContext</text>
<text text-anchor="start" x="290.27" y="-1098.5" font-family="Helvetica,sans-Serif" font-size="10.00">CreateInfo &amp;createInfo)</text>
<text text-anchor="start" x="280.27" y="-1082.5" font-family="Helvetica,sans-Serif" font-size="10.00">+</text>
<text text-anchor="start" x="290.27" y="-1082.5" font-family="Helvetica,sans-Serif" font-size="10.00">virtual ~RenderContext()</text>
<text text-anchor="start" x="280.27" y="-1066.5" font-family="Helvetica,sans-Serif" font-size="10.00">+</text>
<text text-anchor="start" x="290.27" y="-1066.5" font-family="Helvetica,sans-Serif" font-size="10.00">RenderContext(const</text>
<text text-anchor="start" x="290.27" y="-1054.5" font-family="Helvetica,sans-Serif" font-size="10.00"> RenderContext &amp;)=delete</text>
<text text-anchor="start" x="280.27" y="-1038.5" font-family="Helvetica,sans-Serif" font-size="10.00">+</text>
<text text-anchor="start" x="290.27" y="-1038.5" font-family="Helvetica,sans-Serif" font-size="10.00">RenderContext &amp; operator</text>
<text text-anchor="start" x="290.27" y="-1026.5" font-family="Helvetica,sans-Serif" font-size="10.00">=(const RenderContext &amp;)</text>
<text text-anchor="start" x="290.27" y="-1014.5" font-family="Helvetica,sans-Serif" font-size="10.00">=delete</text>
<text text-anchor="start" x="280.27" y="-998.5" font-family="Helvetica,sans-Serif" font-size="10.00">+</text>
<text text-anchor="start" x="290.27" y="-998.5" font-family="Helvetica,sans-Serif" font-size="10.00">RenderContext(RenderContext</text>
<text text-anchor="start" x="290.27" y="-986.5" font-family="Helvetica,sans-Serif" font-size="10.00"> &amp;&amp;other) noexcept</text>
<text text-anchor="start" x="280.27" y="-970.5" font-family="Helvetica,sans-Serif" font-size="10.00">+</text>
<text text-anchor="start" x="290.27" y="-970.5" font-family="Helvetica,sans-Serif" font-size="10.00">RenderContext &amp; operator</text>
<text text-anchor="start" x="290.27" y="-958.5" font-family="Helvetica,sans-Serif" font-size="10.00">=(RenderContext &amp;&amp;other)</text>
<text text-anchor="start" x="290.27" y="-946.5" font-family="Helvetica,sans-Serif" font-size="10.00"> noexcept</text>
<text text-anchor="start" x="280.27" y="-930.5" font-family="Helvetica,sans-Serif" font-size="10.00">+</text>
<text text-anchor="start" x="290.27" y="-930.5" font-family="Helvetica,sans-Serif" font-size="10.00">void setVSyncMode(VSyncMode</text>
<text text-anchor="start" x="290.27" y="-918.5" font-family="Helvetica,sans-Serif" font-size="10.00"> vsyncMode)</text>
<text text-anchor="start" x="280.27" y="-902.5" font-family="Helvetica,sans-Serif" font-size="10.00">+</text>
<text text-anchor="start" x="290.27" y="-902.5" font-family="Helvetica,sans-Serif" font-size="10.00">void recreateSwapchain()</text>
<text text-anchor="start" x="280.27" y="-886.5" font-family="Helvetica,sans-Serif" font-size="10.00">+</text>
<text text-anchor="start" x="290.27" y="-886.5" font-family="Helvetica,sans-Serif" font-size="10.00">_PFn getInstanceFunction</text>
<text text-anchor="start" x="290.27" y="-874.5" font-family="Helvetica,sans-Serif" font-size="10.00">(const char *name) const</text>
<text text-anchor="start" x="280.27" y="-858.5" font-family="Helvetica,sans-Serif" font-size="10.00">+</text>
<text text-anchor="start" x="290.27" y="-858.5" font-family="Helvetica,sans-Serif" font-size="10.00">_PFn getDeviceFunction</text>
<text text-anchor="start" x="290.27" y="-846.5" font-family="Helvetica,sans-Serif" font-size="10.00">(const char *name) const</text>
<text text-anchor="start" x="280.27" y="-830.5" font-family="Helvetica,sans-Serif" font-size="10.00">+</text>
<text text-anchor="start" x="290.27" y="-830.5" font-family="Helvetica,sans-Serif" font-size="10.00">VkFormat swapFormat</text>
<text text-anchor="start" x="290.27" y="-818.5" font-family="Helvetica,sans-Serif" font-size="10.00">() const</text>
<polygon fill="#666666" stroke="#666666" points="276.27,-1218 276.27,-1218 436.27,-1218 436.27,-1218 276.27,-1218"/>
<polygon fill="#666666" stroke="#666666" points="276.27,-1122 276.27,-1122 288.27,-1122 288.27,-1122 276.27,-1122"/>
<polygon fill="#666666" stroke="#666666" points="288.27,-1122 288.27,-1122 436.27,-1122 436.27,-1122 288.27,-1122"/>
<polygon fill="none" stroke="#666666" points="276.27,-812 276.27,-1236 436.27,-1236 436.27,-812 276.27,-812"/>
</a>
</g>
</g>
<!-- Node2&#45;&gt;Node1 -->
<g id="edge1_Node000001_Node000002" class="edge">
<title>Node2&#45;&gt;Node1</title>
<g id="a_edge1_Node000001_Node000002"><a xlink:title=" ">
<path fill="none" stroke="#63b8ff" d="M276.36,-977.88C206.82,-933.56 110.76,-858.86 68.52,-764 -15.38,-575.61 -29.15,-481.63 68.52,-300 105.72,-230.82 184.07,-184.68 245.4,-157.58"/>
<polygon fill="none" stroke="#63b8ff" points="245.18,-157.68 249.11,-151.63 256.2,-152.93 252.27,-158.98 245.18,-157.68"/>
</a>
</g>
<text text-anchor="middle" x="104.14" y="-528.5" font-family="Helvetica,sans-Serif" font-size="10.00" fill="grey"> +renderContext</text>
</g>
<!-- Node5 -->
<g id="Node000005" class="node">
<title>Node5</title>
<g id="a_Node000005"><a xlink:href="struct_deferred_host_operations_extension_dispatch_table.html" target="_top" xlink:title=" ">
<polygon fill="white" stroke="none" points="336.77,-644 147.77,-644 147.77,-420 336.77,-420 336.77,-644"/>
<text text-anchor="start" x="168.77" y="-630.5" font-family="Helvetica,sans-Serif" font-size="10.00">DeferredHostOperationsExtension</text>
<text text-anchor="start" x="211.52" y="-618.5" font-family="Helvetica,sans-Serif" font-size="10.00">DispatchTable</text>
<text text-anchor="start" x="151.77" y="-602.5" font-family="Helvetica,sans-Serif" font-size="10.00">+</text>
<text text-anchor="start" x="161.77" y="-602.5" font-family="Helvetica,sans-Serif" font-size="10.00">PFN_vkCreateDeferredOperation</text>
<text text-anchor="start" x="161.77" y="-590.5" font-family="Helvetica,sans-Serif" font-size="10.00">KHR vkCreateDeferredOperation</text>
<text text-anchor="start" x="151.77" y="-574.5" font-family="Helvetica,sans-Serif" font-size="10.00">+</text>
<text text-anchor="start" x="161.77" y="-574.5" font-family="Helvetica,sans-Serif" font-size="10.00">PFN_vkDeferredOperationJoin</text>
<text text-anchor="start" x="161.77" y="-562.5" font-family="Helvetica,sans-Serif" font-size="10.00">KHR vkDeferredOperationJoin</text>
<text text-anchor="start" x="151.77" y="-546.5" font-family="Helvetica,sans-Serif" font-size="10.00">+</text>
<text text-anchor="start" x="161.77" y="-546.5" font-family="Helvetica,sans-Serif" font-size="10.00">PFN_vkDestroyDeferredOperation</text>
<text text-anchor="start" x="161.77" y="-534.5" font-family="Helvetica,sans-Serif" font-size="10.00">KHR vkDestroyDeferredOperation</text>
<text text-anchor="start" x="151.77" y="-518.5" font-family="Helvetica,sans-Serif" font-size="10.00">+</text>
<text text-anchor="start" x="161.77" y="-518.5" font-family="Helvetica,sans-Serif" font-size="10.00">PFN_vkGetDeferredOperation</text>
<text text-anchor="start" x="161.77" y="-506.5" font-family="Helvetica,sans-Serif" font-size="10.00">MaxConcurrencyKHR vkGetDeferred</text>
<text text-anchor="start" x="161.77" y="-494.5" font-family="Helvetica,sans-Serif" font-size="10.00">OperationMaxConcurrency</text>
<text text-anchor="start" x="151.77" y="-478.5" font-family="Helvetica,sans-Serif" font-size="10.00">+</text>
<text text-anchor="start" x="161.77" y="-478.5" font-family="Helvetica,sans-Serif" font-size="10.00">PFN_vkGetDeferredOperation</text>
<text text-anchor="start" x="161.77" y="-466.5" font-family="Helvetica,sans-Serif" font-size="10.00">ResultKHR vkGetDeferredOperation</text>
<text text-anchor="start" x="161.77" y="-454.5" font-family="Helvetica,sans-Serif" font-size="10.00">Result</text>
<text text-anchor="start" x="151.77" y="-438.5" font-family="Helvetica,sans-Serif" font-size="10.00">+</text>
<text text-anchor="start" x="161.77" y="-438.5" font-family="Helvetica,sans-Serif" font-size="10.00">DeferredHostOperationsExtension</text>
<text text-anchor="start" x="161.77" y="-426.5" font-family="Helvetica,sans-Serif" font-size="10.00">DispatchTable(hri::RenderContext &amp;ctx)</text>
<polygon fill="#666666" stroke="#666666" points="147.77,-614 147.77,-614 336.77,-614 336.77,-614 147.77,-614"/>
<polygon fill="#666666" stroke="#666666" points="147.77,-450 147.77,-450 159.77,-450 159.77,-450 147.77,-450"/>
<polygon fill="#666666" stroke="#666666" points="159.77,-450 159.77,-450 336.77,-450 336.77,-450 159.77,-450"/>
<polygon fill="none" stroke="#666666" points="147.77,-420 147.77,-644 336.77,-644 336.77,-420 147.77,-420"/>
</a>
</g>
</g>
<!-- Node2&#45;&gt;Node5 -->
<g id="edge5_Node000005_Node000002" class="edge">
<title>Node2&#45;&gt;Node5</title>
<g id="a_edge5_Node000005_Node000002"><a xlink:title=" ">
<path fill="none" stroke="#63b8ff" d="M307.26,-812.35C294.88,-759.13 281.98,-703.71 270.97,-656.39"/>
<polygon fill="none" stroke="#63b8ff" points="270.99,-656.48 265.74,-651.54 268.27,-644.79 273.53,-649.73 270.99,-656.48"/>
</a>
</g>
<text text-anchor="middle" x="323.89" y="-784.5" font-family="Helvetica,sans-Serif" font-size="10.00" fill="grey"> +context</text>
</g>
<!-- Node6 -->
<g id="Node000006" class="node">
<title>Node6</title>
<g id="a_Node000006"><a xlink:href="struct_acceleration_structure_extension_dispatch_table.html" target="_top" xlink:title=" ">
<polygon fill="white" stroke="none" points="587.27,-764 355.27,-764 355.27,-300 587.27,-300 587.27,-764"/>
<text text-anchor="start" x="402.64" y="-750.5" font-family="Helvetica,sans-Serif" font-size="10.00">AccelerationStructureExtension</text>
<text text-anchor="start" x="440.52" y="-738.5" font-family="Helvetica,sans-Serif" font-size="10.00">DispatchTable</text>
<text text-anchor="start" x="359.27" y="-722.5" font-family="Helvetica,sans-Serif" font-size="10.00">+</text>
<text text-anchor="start" x="369.27" y="-722.5" font-family="Helvetica,sans-Serif" font-size="10.00">PFN_vkBuildAccelerationStructures</text>
<text text-anchor="start" x="369.27" y="-710.5" font-family="Helvetica,sans-Serif" font-size="10.00">KHR vkBuildAccelerationStructures</text>
<text text-anchor="start" x="359.27" y="-694.5" font-family="Helvetica,sans-Serif" font-size="10.00">+</text>
<text text-anchor="start" x="369.27" y="-694.5" font-family="Helvetica,sans-Serif" font-size="10.00">PFN_vkCmdBuildAcceleration</text>
<text text-anchor="start" x="369.27" y="-682.5" font-family="Helvetica,sans-Serif" font-size="10.00">StructuresIndirectKHR vkCmdBuild</text>
<text text-anchor="start" x="369.27" y="-670.5" font-family="Helvetica,sans-Serif" font-size="10.00">AccelerationStructuresIndirect</text>
<text text-anchor="start" x="359.27" y="-654.5" font-family="Helvetica,sans-Serif" font-size="10.00">+</text>
<text text-anchor="start" x="369.27" y="-654.5" font-family="Helvetica,sans-Serif" font-size="10.00">PFN_vkCmdBuildAcceleration</text>
<text text-anchor="start" x="369.27" y="-642.5" font-family="Helvetica,sans-Serif" font-size="10.00">StructuresKHR vkCmdBuildAcceleration</text>
<text text-anchor="start" x="369.27" y="-630.5" font-family="Helvetica,sans-Serif" font-size="10.00">Structures</text>
<text text-anchor="start" x="359.27" y="-614.5" font-family="Helvetica,sans-Serif" font-size="10.00">+</text>
<text text-anchor="start" x="369.27" y="-614.5" font-family="Helvetica,sans-Serif" font-size="10.00">PFN_vkCmdCopyAcceleration</text>
<text text-anchor="start" x="369.27" y="-602.5" font-family="Helvetica,sans-Serif" font-size="10.00">StructureKHR vkCmdCopyAcceleration</text>
<text text-anchor="start" x="369.27" y="-590.5" font-family="Helvetica,sans-Serif" font-size="10.00">Structure</text>
<text text-anchor="start" x="359.27" y="-574.5" font-family="Helvetica,sans-Serif" font-size="10.00">+</text>
<text text-anchor="start" x="369.27" y="-574.5" font-family="Helvetica,sans-Serif" font-size="10.00">PFN_vkCmdCopyAcceleration</text>
<text text-anchor="start" x="369.27" y="-562.5" font-family="Helvetica,sans-Serif" font-size="10.00">StructureToMemoryKHR vkCmdCopy</text>
<text text-anchor="start" x="369.27" y="-550.5" font-family="Helvetica,sans-Serif" font-size="10.00">AccelerationStructureToMemory</text>
<text text-anchor="start" x="359.27" y="-534.5" font-family="Helvetica,sans-Serif" font-size="10.00">+</text>
<text text-anchor="start" x="369.27" y="-534.5" font-family="Helvetica,sans-Serif" font-size="10.00">PFN_vkCmdCopyMemoryToAcceleration</text>
<text text-anchor="start" x="369.27" y="-522.5" font-family="Helvetica,sans-Serif" font-size="10.00">StructureKHR vkCmdCopyMemoryToAcceleration</text>
<text text-anchor="start" x="369.27" y="-510.5" font-family="Helvetica,sans-Serif" font-size="10.00">Structure</text>
<text text-anchor="start" x="359.27" y="-494.5" font-family="Helvetica,sans-Serif" font-size="10.00">+</text>
<text text-anchor="start" x="369.27" y="-494.5" font-family="Helvetica,sans-Serif" font-size="10.00">PFN_vkCmdWriteAcceleration</text>
<text text-anchor="start" x="369.27" y="-482.5" font-family="Helvetica,sans-Serif" font-size="10.00">StructuresPropertiesKHR</text>
<text text-anchor="start" x="369.27" y="-470.5" font-family="Helvetica,sans-Serif" font-size="10.00"> vkCmdWriteAccelerationStructures</text>
<text text-anchor="start" x="369.27" y="-458.5" font-family="Helvetica,sans-Serif" font-size="10.00">Properties</text>
<text text-anchor="start" x="359.27" y="-442.5" font-family="Helvetica,sans-Serif" font-size="10.00">+</text>
<text text-anchor="start" x="369.27" y="-442.5" font-family="Helvetica,sans-Serif" font-size="10.00">PFN_vkCopyAccelerationStructure</text>
<text text-anchor="start" x="369.27" y="-430.5" font-family="Helvetica,sans-Serif" font-size="10.00">KHR vkCopyAccelerationStructure</text>
<text text-anchor="start" x="359.27" y="-414.5" font-family="Helvetica,sans-Serif" font-size="10.00">+</text>
<text text-anchor="start" x="369.27" y="-414.5" font-family="Helvetica,sans-Serif" font-size="10.00">PFN_vkCopyAccelerationStructure</text>
<text text-anchor="start" x="369.27" y="-402.5" font-family="Helvetica,sans-Serif" font-size="10.00">ToMemoryKHR vkCopyAccelerationStructure</text>
<text text-anchor="start" x="369.27" y="-390.5" font-family="Helvetica,sans-Serif" font-size="10.00">ToMemory</text>
<text text-anchor="start" x="359.27" y="-374.5" font-family="Helvetica,sans-Serif" font-size="10.00">+</text>
<text text-anchor="start" x="369.27" y="-374.5" font-family="Helvetica,sans-Serif" font-size="10.00">PFN_vkCopyMemoryToAcceleration</text>
<text text-anchor="start" x="369.27" y="-362.5" font-family="Helvetica,sans-Serif" font-size="10.00">StructureKHR vkCopyMemoryToAcceleration</text>
<text text-anchor="start" x="369.27" y="-350.5" font-family="Helvetica,sans-Serif" font-size="10.00">Structure</text>
<text text-anchor="start" x="369.27" y="-334.5" font-family="Helvetica,sans-Serif" font-size="10.00">and 6 more...</text>
<text text-anchor="start" x="359.27" y="-318.5" font-family="Helvetica,sans-Serif" font-size="10.00">+</text>
<text text-anchor="start" x="369.27" y="-318.5" font-family="Helvetica,sans-Serif" font-size="10.00">AccelerationStructureExtension</text>
<text text-anchor="start" x="369.27" y="-306.5" font-family="Helvetica,sans-Serif" font-size="10.00">DispatchTable(hri::RenderContext &amp;ctx)</text>
<polygon fill="#666666" stroke="#666666" points="355.27,-734 355.27,-734 587.27,-734 587.27,-734 355.27,-734"/>
<polygon fill="#666666" stroke="#666666" points="355.27,-330 355.27,-330 367.27,-330 367.27,-330 355.27,-330"/>
<polygon fill="#666666" stroke="#666666" points="367.27,-330 367.27,-330 587.27,-330 587.27,-330 367.27,-330"/>
<polygon fill="none" stroke="#666666" points="355.27,-300 355.27,-764 587.27,-764 587.27,-300 355.27,-300"/>
</a>
</g>
</g>
<!-- Node2&#45;&gt;Node6 -->
<g id="edge7_Node000006_Node000002" class="edge">
<title>Node2&#45;&gt;Node6</title>
<g id="a_edge7_Node000006_Node000002"><a xlink:title=" ">
<path fill="none" stroke="#63b8ff" d="M405.7,-812.35C408.51,-800.42 411.33,-788.37 414.16,-776.33"/>
<polygon fill="none" stroke="#63b8ff" points="414.15,-776.35 411.63,-769.59 416.9,-764.66 419.42,-771.42 414.15,-776.35"/>
</a>
</g>
<text text-anchor="middle" x="431.89" y="-784.5" font-family="Helvetica,sans-Serif" font-size="10.00" fill="grey"> +context</text>
</g>
<!-- Node7 -->
<g id="Node000007" class="node">
<title>Node7</title>
<g id="a_Node000007"><a xlink:href="struct_ray_tracing_extension_dispatch_table.html" target="_top" xlink:title=" ">
<polygon fill="white" stroke="none" points="818.77,-690 605.77,-690 605.77,-374 818.77,-374 818.77,-690"/>
<text text-anchor="start" x="647.02" y="-676.5" font-family="Helvetica,sans-Serif" font-size="10.00">RayTracingExtensionDispatch</text>
<text text-anchor="start" x="700.64" y="-664.5" font-family="Helvetica,sans-Serif" font-size="10.00">Table</text>
<text text-anchor="start" x="609.77" y="-648.5" font-family="Helvetica,sans-Serif" font-size="10.00">+</text>
<text text-anchor="start" x="619.77" y="-648.5" font-family="Helvetica,sans-Serif" font-size="10.00">PFN_vkCmdSetRayTracingPipeline</text>
<text text-anchor="start" x="619.77" y="-636.5" font-family="Helvetica,sans-Serif" font-size="10.00">StackSizeKHR vkCmdSetRayTracingPipeline</text>
<text text-anchor="start" x="619.77" y="-624.5" font-family="Helvetica,sans-Serif" font-size="10.00">StackSize</text>
<text text-anchor="start" x="609.77" y="-608.5" font-family="Helvetica,sans-Serif" font-size="10.00">+</text>
<text text-anchor="start" x="619.77" y="-608.5" font-family="Helvetica,sans-Serif" font-size="10.00">PFN_vkCmdTraceRaysIndirect</text>
<text text-anchor="start" x="619.77" y="-596.5" font-family="Helvetica,sans-Serif" font-size="10.00">KHR vkCmdTraceRaysIndirect</text>
<text text-anchor="start" x="609.77" y="-580.5" font-family="Helvetica,sans-Serif" font-size="10.00">+</text>
<text text-anchor="start" x="619.77" y="-580.5" font-family="Helvetica,sans-Serif" font-size="10.00">PFN_vkCmdTraceRaysKHR</text>
<text text-anchor="start" x="619.77" y="-568.5" font-family="Helvetica,sans-Serif" font-size="10.00"> vkCmdTraceRays</text>
<text text-anchor="start" x="609.77" y="-552.5" font-family="Helvetica,sans-Serif" font-size="10.00">+</text>
<text text-anchor="start" x="619.77" y="-552.5" font-family="Helvetica,sans-Serif" font-size="10.00">PFN_vkCreateRayTracingPipelines</text>
<text text-anchor="start" x="619.77" y="-540.5" font-family="Helvetica,sans-Serif" font-size="10.00">KHR vkCmdCreateRaytracingPipelines</text>
<text text-anchor="start" x="609.77" y="-524.5" font-family="Helvetica,sans-Serif" font-size="10.00">+</text>
<text text-anchor="start" x="619.77" y="-524.5" font-family="Helvetica,sans-Serif" font-size="10.00">PFN_vkGetRayTracingCapture</text>
<text text-anchor="start" x="619.77" y="-512.5" font-family="Helvetica,sans-Serif" font-size="10.00">ReplayShaderGroupHandlesKHR</text>
<text text-anchor="start" x="619.77" y="-500.5" font-family="Helvetica,sans-Serif" font-size="10.00"> vkGetRayTracingCaptureReplayShader</text>
<text text-anchor="start" x="619.77" y="-488.5" font-family="Helvetica,sans-Serif" font-size="10.00">GroupHandles</text>
<text text-anchor="start" x="609.77" y="-472.5" font-family="Helvetica,sans-Serif" font-size="10.00">+</text>
<text text-anchor="start" x="619.77" y="-472.5" font-family="Helvetica,sans-Serif" font-size="10.00">PFN_vkGetRayTracingShader</text>
<text text-anchor="start" x="619.77" y="-460.5" font-family="Helvetica,sans-Serif" font-size="10.00">GroupHandlesKHR vkGetRayTracing</text>
<text text-anchor="start" x="619.77" y="-448.5" font-family="Helvetica,sans-Serif" font-size="10.00">ShaderGroupHandles</text>
<text text-anchor="start" x="609.77" y="-432.5" font-family="Helvetica,sans-Serif" font-size="10.00">+</text>
<text text-anchor="start" x="619.77" y="-432.5" font-family="Helvetica,sans-Serif" font-size="10.00">PFN_vkGetRayTracingShader</text>
<text text-anchor="start" x="619.77" y="-420.5" font-family="Helvetica,sans-Serif" font-size="10.00">GroupStackSizeKHR vkGetRayTracing</text>
<text text-anchor="start" x="619.77" y="-408.5" font-family="Helvetica,sans-Serif" font-size="10.00">ShaderGroupStackSize</text>
<text text-anchor="start" x="609.77" y="-392.5" font-family="Helvetica,sans-Serif" font-size="10.00">+</text>
<text text-anchor="start" x="619.77" y="-392.5" font-family="Helvetica,sans-Serif" font-size="10.00">RayTracingExtensionDispatch</text>
<text text-anchor="start" x="619.77" y="-380.5" font-family="Helvetica,sans-Serif" font-size="10.00">Table(hri::RenderContext &amp;ctx)</text>
<polygon fill="#666666" stroke="#666666" points="605.77,-660 605.77,-660 818.77,-660 818.77,-660 605.77,-660"/>
<polygon fill="#666666" stroke="#666666" points="605.77,-404 605.77,-404 617.77,-404 617.77,-404 605.77,-404"/>
<polygon fill="#666666" stroke="#666666" points="617.77,-404 617.77,-404 818.77,-404 818.77,-404 617.77,-404"/>
<polygon fill="none" stroke="#666666" points="605.77,-374 605.77,-690 818.77,-690 818.77,-374 605.77,-374"/>
</a>
</g>
</g>
<!-- Node2&#45;&gt;Node7 -->
<g id="edge9_Node000007_Node000002" class="edge">
<title>Node2&#45;&gt;Node7</title>
<g id="a_edge9_Node000007_Node000002"><a xlink:title=" ">
<path fill="none" stroke="#63b8ff" d="M436.22,-948.31C486.13,-899.05 549.54,-831.38 596.27,-764 609.88,-744.37 622.84,-722.92 634.84,-701.26"/>
<polygon fill="none" stroke="#63b8ff" points="634.85,-701.24 634.21,-694.06 640.6,-690.71 641.24,-697.89 634.85,-701.24"/>
</a>
</g>
<text text-anchor="middle" x="600.89" y="-784.5" font-family="Helvetica,sans-Serif" font-size="10.00" fill="grey"> +context</text>
</g>
<!-- Node3 -->
<g id="Node000003" class="node">
<title>Node3</title>
<g id="a_Node000003"><a xlink:href="classhri_1_1_render_context_queue_state.html" target="_top" xlink:title="The context queue state creates and maintains the device queue setup.">
<polygon fill="white" stroke="none" points="427.27,-1376 285.27,-1376 285.27,-1284 427.27,-1284 427.27,-1376"/>
<text text-anchor="start" x="289.89" y="-1362.5" font-family="Helvetica,sans-Serif" font-size="10.00">hri::RenderContextQueueState</text>
<text text-anchor="start" x="354.77" y="-1346.5" font-family="Helvetica,sans-Serif" font-size="10.00"> </text>
<text text-anchor="start" x="291.27" y="-1330.5" font-family="Helvetica,sans-Serif" font-size="10.00">+</text>
<text text-anchor="start" x="303.27" y="-1330.5" font-family="Helvetica,sans-Serif" font-size="10.00">RenderContextQueueState</text>
<text text-anchor="start" x="303.27" y="-1318.5" font-family="Helvetica,sans-Serif" font-size="10.00">()=default</text>
<text text-anchor="start" x="291.27" y="-1302.5" font-family="Helvetica,sans-Serif" font-size="10.00">+</text>
<text text-anchor="start" x="303.27" y="-1302.5" font-family="Helvetica,sans-Serif" font-size="10.00">RenderContextQueueState</text>
<text text-anchor="start" x="303.27" y="-1290.5" font-family="Helvetica,sans-Serif" font-size="10.00">(vkb::Device device)</text>
<polygon fill="#666666" stroke="#666666" points="285.27,-1358 285.27,-1358 427.27,-1358 427.27,-1358 285.27,-1358"/>
<polygon fill="#666666" stroke="#666666" points="285.27,-1342 285.27,-1342 427.27,-1342 427.27,-1342 285.27,-1342"/>
<polygon fill="none" stroke="#666666" points="285.27,-1284 285.27,-1376 427.27,-1376 427.27,-1284 285.27,-1284"/>
</a>
</g>
</g>
<!-- Node3&#45;&gt;Node2 -->
<g id="edge2_Node000002_Node000003" class="edge">
<title>Node3&#45;&gt;Node2</title>
<g id="a_edge2_Node000002_Node000003"><a xlink:title=" ">
<path fill="none" stroke="#63b8ff" d="M356.27,-1284.14C356.27,-1273.51 356.27,-1261.44 356.27,-1248.48"/>
<polygon fill="none" stroke="#63b8ff" points="356.27,-1248.7 352.27,-1242.7 356.27,-1236.7 360.27,-1242.7 356.27,-1248.7"/>
</a>
</g>
<text text-anchor="middle" x="376.52" y="-1256.5" font-family="Helvetica,sans-Serif" font-size="10.00" fill="grey"> +queues</text>
</g>
<!-- Node4 -->
<g id="Node000004" class="node">
<title>Node4</title>
<g id="a_Node000004"><a xlink:href="structhri_1_1_device_queue.html" target="_top" xlink:title="A Device Queue is a queue on the logical device to which operations can be submitted.">
<polygon fill="white" stroke="none" points="401.27,-1528 311.27,-1528 311.27,-1460 401.27,-1460 401.27,-1528"/>
<text text-anchor="start" x="319.52" y="-1514.5" font-family="Helvetica,sans-Serif" font-size="10.00">hri::DeviceQueue</text>
<text text-anchor="start" x="315.27" y="-1498.5" font-family="Helvetica,sans-Serif" font-size="10.00">+</text>
<text text-anchor="start" x="325.27" y="-1498.5" font-family="Helvetica,sans-Serif" font-size="10.00">uint32_t family</text>
<text text-anchor="start" x="315.27" y="-1482.5" font-family="Helvetica,sans-Serif" font-size="10.00">+</text>
<text text-anchor="start" x="325.27" y="-1482.5" font-family="Helvetica,sans-Serif" font-size="10.00">VkQueue handle</text>
<text text-anchor="start" x="354.77" y="-1466.5" font-family="Helvetica,sans-Serif" font-size="10.00"> </text>
<polygon fill="#666666" stroke="#666666" points="311.27,-1510 311.27,-1510 401.27,-1510 401.27,-1510 311.27,-1510"/>
<polygon fill="#666666" stroke="#666666" points="311.27,-1478 311.27,-1478 323.27,-1478 323.27,-1478 311.27,-1478"/>
<polygon fill="#666666" stroke="#666666" points="323.27,-1478 323.27,-1478 401.27,-1478 401.27,-1478 323.27,-1478"/>
<polygon fill="none" stroke="#666666" points="311.27,-1460 311.27,-1528 401.27,-1528 401.27,-1460 311.27,-1460"/>
</a>
</g>
</g>
<!-- Node4&#45;&gt;Node3 -->
<g id="edge3_Node000003_Node000004" class="edge">
<title>Node4&#45;&gt;Node3</title>
<g id="a_edge3_Node000003_Node000004"><a xlink:title=" ">
<path fill="none" stroke="#63b8ff" d="M356.27,-1460.22C356.27,-1439.7 356.27,-1412.7 356.27,-1388.68"/>
<polygon fill="none" stroke="#63b8ff" points="356.27,-1388.61 352.27,-1382.61 356.27,-1376.61 360.27,-1382.61 356.27,-1388.61"/>
</a>
</g>
<text text-anchor="middle" x="393.77" y="-1432.5" font-family="Helvetica,sans-Serif" font-size="10.00" fill="grey"> +computeQueue</text>
<text text-anchor="middle" x="393.77" y="-1420.5" font-family="Helvetica,sans-Serif" font-size="10.00" fill="grey">+graphicsQueue</text>
<text text-anchor="middle" x="393.77" y="-1408.5" font-family="Helvetica,sans-Serif" font-size="10.00" fill="grey">+presentQueue</text>
<text text-anchor="middle" x="393.77" y="-1396.5" font-family="Helvetica,sans-Serif" font-size="10.00" fill="grey">+transferQueue</text>
</g>
<!-- Node5&#45;&gt;Node1 -->
<g id="edge4_Node000001_Node000005" class="edge">
<title>Node5&#45;&gt;Node1</title>
<g id="a_edge4_Node000001_Node000005"><a xlink:title=" ">
<path fill="none" stroke="#63b8ff" d="M266.43,-420.07C276.89,-372.05 289.24,-315.34 300.28,-264.67"/>
<polygon fill="none" stroke="#63b8ff" points="300.31,-264.53 297.68,-257.81 302.86,-252.8 305.5,-259.52 300.31,-264.53"/>
</a>
</g>
<text text-anchor="middle" x="348.27" y="-272.5" font-family="Helvetica,sans-Serif" font-size="10.00" fill="grey"> +deferredHostDispatch</text>
</g>
<!-- Node6&#45;&gt;Node1 -->
<g id="edge6_Node000001_Node000006" class="edge">
<title>Node6&#45;&gt;Node1</title>
<g id="a_edge6_Node000001_Node000006"><a xlink:title=" ">
<path fill="none" stroke="#63b8ff" d="M414.1,-300.27C410.62,-289.98 407.01,-279.85 403.27,-270 402.48,-267.94 401.68,-265.87 400.85,-263.8"/>
<polygon fill="none" stroke="#63b8ff" points="400.85,-263.78 394.87,-259.76 396.28,-252.69 402.27,-256.71 400.85,-263.78"/>
</a>
</g>
<text text-anchor="middle" x="454.64" y="-272.5" font-family="Helvetica,sans-Serif" font-size="10.00" fill="grey"> +accelStructDispatch</text>
</g>
<!-- Node7&#45;&gt;Node1 -->
<g id="edge8_Node000001_Node000007" class="edge">
<title>Node7&#45;&gt;Node1</title>
<g id="a_edge8_Node000001_Node000007"><a xlink:title=" ">
<path fill="none" stroke="#63b8ff" d="M647.72,-374.02C633.03,-347.73 615.86,-321.91 596.27,-300 545.5,-243.25 472.01,-197.34 415.13,-167.12"/>
<polygon fill="none" stroke="#63b8ff" points="415.05,-167.08 407.88,-167.84 404.42,-161.52 411.59,-160.75 415.05,-167.08"/>
</a>
</g>
<text text-anchor="middle" x="625.39" y="-272.5" font-family="Helvetica,sans-Serif" font-size="10.00" fill="grey"> +rayTracingDispatch</text>
</g>
</g>
</svg>

<g id="navigator" transform="translate(0 0)" fill="#404254">
  <rect fill="#f2f5e9" fill-opacity="0.5" stroke="#606060" stroke-width=".5" x="0" y="0" width="60" height="60"/>
  <use id="zoomplus" xlink:href="#zoomPlus" x="17" y="9" onmousedown="handleZoom(evt,'in')"/>
  <use id="zoomminus" xlink:href="#zoomMin" x="42" y="9" onmousedown="handleZoom(evt,'out')"/>
  <use id="reset" xlink:href="#resetDef" x="30" y="36" onmousedown="handleReset()"/>
   <use id="arrowup" xlink:href="#arrowUp" x="0" y="0" onmousedown="handlePan(0,-1)"/>
  <use id="arrowright" xlink:href="#arrowRight" x="0" y="0" onmousedown="handlePan(1,0)"/>
  <use id="arrowdown" xlink:href="#arrowDown" x="0" y="0" onmousedown="handlePan(0,1)"/>
  <use id="arrowleft" xlink:href="#arrowLeft" x="0" y="0" onmousedown="handlePan(-1,0)"/>
</g>
<svg viewBox="0 0 15 15" width="100%" height="30px" preserveAspectRatio="xMaxYMin meet">
 <g id="arrow_out" transform="scale(0.3 0.3)">
  <a xlink:href="structraytracing_1_1_ray_tracing_context__coll__graph_org.svg" target="_base">
   <rect id="button" ry="5" rx="5" y="6" x="6" height="38" width="38"
        fill="#f2f5e9" fill-opacity="0.5" stroke="#606060" stroke-width="1.0"/>
   <path id="arrow"
     d="M 11.500037,31.436501 C 11.940474,20.09759 22.043105,11.32322 32.158766,21.979434 L 37.068811,17.246167 C 37.068811,17.246167 37.088388,32 37.088388,32 L 22.160133,31.978069 C 22.160133,31.978069 26.997745,27.140456 26.997745,27.140456 C 18.528582,18.264221 13.291696,25.230495 11.500037,31.436501 z"
     style="fill:#404040;"/>
  </a>
 </g>
</svg>

<style type='text/css'>
<![CDATA[
[data-mouse-over-selected='false'] { opacity: 0.7; }
[data-mouse-over-selected='true']  { opacity: 1.0; }
]]>
</style>
<script type="application/ecmascript"><![CDATA[
document.addEventListener('DOMContentLoaded', (event) => {
  highlightEdges();
  highlightAdjacentNodes();
});
]]></script>
</svg>
