<?xml version="1.0" encoding="UTF-8" standalone="no"?>
<!DOCTYPE svg PUBLIC "-//W3C//DTD SVG 1.1//EN"
 "http://www.w3.org/Graphics/SVG/1.1/DTD/svg11.dtd">
<!-- Generated by graphviz version 10.0.1 (20240210.2158)
 -->
<!-- Title: hri::ActiveFrame Pages: 1 -->
<svg width="185pt" height="172pt"
 viewBox="0.00 0.00 185.00 172.00" xmlns="http://www.w3.org/2000/svg" xmlns:xlink="http://www.w3.org/1999/xlink">
<g id="graph0" class="graph" transform="scale(1 1) rotate(0) translate(4 168)">
<title>hri::ActiveFrame</title>
<!-- Node1 -->
<g id="Node000001" class="node">
<title>Node1</title>
<g id="a_Node000001"><a xlink:title="The Active Frame struct maintains information on frame state relevant for recording graphics commands...">
<polygon fill="#999999" stroke="none" points="177,-164 0,-164 0,0 177,0 177,-164"/>
<text text-anchor="start" x="53.25" y="-150.5" font-family="Helvetica,sans-Serif" font-size="10.00">hri::ActiveFrame</text>
<text text-anchor="start" x="4" y="-134.5" font-family="Helvetica,sans-Serif" font-size="10.00">+</text>
<text text-anchor="start" x="14" y="-134.5" font-family="Helvetica,sans-Serif" font-size="10.00">uint32_t activeSwapImage</text>
<text text-anchor="start" x="14" y="-122.5" font-family="Helvetica,sans-Serif" font-size="10.00">Index</text>
<text text-anchor="start" x="4" y="-106.5" font-family="Helvetica,sans-Serif" font-size="10.00">+</text>
<text text-anchor="start" x="14" y="-106.5" font-family="Helvetica,sans-Serif" font-size="10.00">uint32_t currentFrameIndex</text>
<text text-anchor="start" x="4" y="-90.5" font-family="Helvetica,sans-Serif" font-size="10.00">+</text>
<text text-anchor="start" x="14" y="-90.5" font-family="Helvetica,sans-Serif" font-size="10.00">VkCommandBuffer commandBuffer</text>
<text text-anchor="start" x="4" y="-74.5" font-family="Helvetica,sans-Serif" font-size="10.00">+</text>
<text text-anchor="start" x="14" y="-74.5" font-family="Helvetica,sans-Serif" font-size="10.00">void beginCommands()</text>
<text text-anchor="start" x="4" y="-58.5" font-family="Helvetica,sans-Serif" font-size="10.00">+</text>
<text text-anchor="start" x="14" y="-58.5" font-family="Helvetica,sans-Serif" font-size="10.00">void endCommands()</text>
<text text-anchor="start" x="4" y="-42.5" font-family="Helvetica,sans-Serif" font-size="10.00">+</text>
<text text-anchor="start" x="14" y="-42.5" font-family="Helvetica,sans-Serif" font-size="10.00">void pipelineBarrier</text>
<text text-anchor="start" x="14" y="-30.5" font-family="Helvetica,sans-Serif" font-size="10.00">(const std::vector&lt; VkImage</text>
<text text-anchor="start" x="14" y="-18.5" font-family="Helvetica,sans-Serif" font-size="10.00">MemoryBarrier2 &gt; &amp;memoryBarriers,</text>
<text text-anchor="start" x="14" y="-6.5" font-family="Helvetica,sans-Serif" font-size="10.00"> VkDependencyFlags flags=0) const</text>
<polygon fill="#666666" stroke="#666666" points="0,-146 0,-146 177,-146 177,-146 0,-146"/>
<polygon fill="#666666" stroke="#666666" points="0,-86 0,-86 12,-86 12,-86 0,-86"/>
<polygon fill="#666666" stroke="#666666" points="12,-86 12,-86 177,-86 177,-86 12,-86"/>
<polygon fill="none" stroke="#666666" points="0,0 0,-164 177,-164 177,0 0,0"/>
</a>
</g>
</g>
</g>
</svg>
