<?xml version="1.0" encoding="UTF-8" standalone="no"?>
<!DOCTYPE svg PUBLIC "-//W3C//DTD SVG 1.1//EN"
 "http://www.w3.org/Graphics/SVG/1.1/DTD/svg11.dtd">
<!-- Generated by graphviz version 10.0.1 (20240210.2158)
 -->
<!-- Title: hri::GraphicsPipelineBuilder::initDefaultScissor Pages: 1 -->
<svg width="313pt" height="90pt"
 viewBox="0.00 0.00 313.00 90.00" xmlns="http://www.w3.org/2000/svg" xmlns:xlink="http://www.w3.org/1999/xlink">
<g id="graph0" class="graph" transform="scale(1 1) rotate(0) translate(4 86)">
<title>hri::GraphicsPipelineBuilder::initDefaultScissor</title>
<!-- Node1 -->
<g id="Node000001" class="node">
<title>Node1</title>
<g id="a_Node000001"><a xlink:title=" ">
<polygon fill="#999999" stroke="#666666" points="305,-57 169,-57 169,-25 305,-25 305,-57"/>
<text text-anchor="start" x="177" y="-43.5" font-family="Helvetica,sans-Serif" font-size="10.00">hri::GraphicsPipelineBuilder</text>
<text text-anchor="middle" x="237" y="-31.5" font-family="Helvetica,sans-Serif" font-size="10.00">::initDefaultScissor</text>
</a>
</g>
</g>
<!-- Node2 -->
<g id="Node000002" class="node">
<title>Node2</title>
<g id="a_Node000002"><a xlink:href="class_g_buffer_layout_subsystem.html#a2256ebe444cbae68b140e734107f0edc" target="_top" xlink:title=" ">
<polygon fill="white" stroke="#666666" points="133,-82 0,-82 0,-50 133,-50 133,-82"/>
<text text-anchor="start" x="8" y="-68.5" font-family="Helvetica,sans-Serif" font-size="10.00">GBufferLayoutSubsystem</text>
<text text-anchor="middle" x="66.5" y="-56.5" font-family="Helvetica,sans-Serif" font-size="10.00">::GBufferLayoutSubsystem</text>
</a>
</g>
</g>
<!-- Node1&#45;&gt;Node2 -->
<g id="edge1_Node000001_Node000002" class="edge">
<title>Node1&#45;&gt;Node2</title>
<g id="a_edge1_Node000001_Node000002"><a xlink:title=" ">
<path fill="none" stroke="#63b8ff" d="M157.8,-52.6C149.59,-53.82 141.3,-55.05 133.25,-56.24"/>
<polygon fill="#63b8ff" stroke="#63b8ff" points="158.04,-56.1 167.42,-51.17 157.02,-49.18 158.04,-56.1"/>
</a>
</g>
</g>
<!-- Node3 -->
<g id="Node000003" class="node">
<title>Node3</title>
<g id="a_Node000003"><a xlink:href="class_presentation_subsystem.html#ad5864d1140ebf0ecb3806016e78215f9" target="_top" xlink:title=" ">
<polygon fill="white" stroke="#666666" points="129.62,-32 3.38,-32 3.38,0 129.62,0 129.62,-32"/>
<text text-anchor="start" x="11.38" y="-18.5" font-family="Helvetica,sans-Serif" font-size="10.00">PresentationSubsystem</text>
<text text-anchor="middle" x="66.5" y="-6.5" font-family="Helvetica,sans-Serif" font-size="10.00">::PresentationSubsystem</text>
</a>
</g>
</g>
<!-- Node1&#45;&gt;Node3 -->
<g id="edge2_Node000001_Node000003" class="edge">
<title>Node1&#45;&gt;Node3</title>
<g id="a_edge2_Node000001_Node000003"><a xlink:title=" ">
<path fill="none" stroke="#63b8ff" d="M157.67,-29.38C148.38,-28 139,-26.61 129.97,-25.27"/>
<polygon fill="#63b8ff" stroke="#63b8ff" points="157.02,-32.82 167.42,-30.83 158.04,-25.9 157.02,-32.82"/>
</a>
</g>
</g>
</g>
</svg>
