<?xml version="1.0" encoding="UTF-8" standalone="no"?>
<!DOCTYPE svg PUBLIC "-//W3C//DTD SVG 1.1//EN"
 "http://www.w3.org/Graphics/SVG/1.1/DTD/svg11.dtd">
<!-- Generated by graphviz version 10.0.1 (20240210.2158)
 -->
<!-- Title: raytracing::ASBuilder::ASBuildInfo Pages: 1 -->
<svg width="182pt" height="140pt"
 viewBox="0.00 0.00 182.00 140.00" xmlns="http://www.w3.org/2000/svg" xmlns:xlink="http://www.w3.org/1999/xlink">
<g id="graph0" class="graph" transform="scale(1 1) rotate(0) translate(4 136)">
<title>raytracing::ASBuilder::ASBuildInfo</title>
<!-- Node1 -->
<g id="Node000001" class="node">
<title>Node1</title>
<g id="a_Node000001"><a xlink:title="AS Build Info contains geometry info, build ranges, and build sizes for structures.">
<polygon fill="#999999" stroke="none" points="174,-132 0,-132 0,0 174,0 174,-132"/>
<text text-anchor="start" x="40.88" y="-118.5" font-family="Helvetica,sans-Serif" font-size="10.00">raytracing::ASBuilder</text>
<text text-anchor="start" x="58.88" y="-106.5" font-family="Helvetica,sans-Serif" font-size="10.00">::ASBuildInfo</text>
<text text-anchor="start" x="4" y="-90.5" font-family="Helvetica,sans-Serif" font-size="10.00">+</text>
<text text-anchor="start" x="14" y="-90.5" font-family="Helvetica,sans-Serif" font-size="10.00">VkAccelerationStructureBuild</text>
<text text-anchor="start" x="14" y="-78.5" font-family="Helvetica,sans-Serif" font-size="10.00">GeometryInfoKHR geometryInfo</text>
<text text-anchor="start" x="4" y="-62.5" font-family="Helvetica,sans-Serif" font-size="10.00">+</text>
<text text-anchor="start" x="14" y="-62.5" font-family="Helvetica,sans-Serif" font-size="10.00">VkAccelerationStructureBuild</text>
<text text-anchor="start" x="14" y="-50.5" font-family="Helvetica,sans-Serif" font-size="10.00">RangeInfoKHR const &#160;* buildRanges</text>
<text text-anchor="start" x="4" y="-34.5" font-family="Helvetica,sans-Serif" font-size="10.00">+</text>
<text text-anchor="start" x="14" y="-34.5" font-family="Helvetica,sans-Serif" font-size="10.00">VkAccelerationStructureBuild</text>
<text text-anchor="start" x="14" y="-22.5" font-family="Helvetica,sans-Serif" font-size="10.00">SizesInfoKHR buildSizes</text>
<text text-anchor="start" x="85.5" y="-6.5" font-family="Helvetica,sans-Serif" font-size="10.00"> </text>
<polygon fill="#666666" stroke="#666666" points="0,-102 0,-102 174,-102 174,-102 0,-102"/>
<polygon fill="#666666" stroke="#666666" points="0,-18 0,-18 12,-18 12,-18 0,-18"/>
<polygon fill="#666666" stroke="#666666" points="12,-18 12,-18 174,-18 174,-18 12,-18"/>
<polygon fill="none" stroke="#666666" points="0,0 0,-132 174,-132 174,0 0,0"/>
</a>
</g>
</g>
</g>
</svg>
