<?xml version="1.0" encoding="UTF-8" standalone="no"?>
<!DOCTYPE svg PUBLIC "-//W3C//DTD SVG 1.1//EN"
 "http://www.w3.org/Graphics/SVG/1.1/DTD/svg11.dtd">
<!-- Generated by graphviz version 10.0.1 (20240210.2158)
 -->
<!-- Title: SceneNode Pages: 1 -->
<svg width="136pt" height="236pt"
 viewBox="0.00 0.00 136.00 236.00" xmlns="http://www.w3.org/2000/svg" xmlns:xlink="http://www.w3.org/1999/xlink">
<g id="graph0" class="graph" transform="scale(1 1) rotate(0) translate(4 232)">
<title>SceneNode</title>
<!-- Node1 -->
<g id="Node000001" class="node">
<title>Node1</title>
<g id="a_Node000001"><a xlink:title="A Scene Node represents an entry into the SceneGraph, with data relevant for rendering.">
<polygon fill="#999999" stroke="none" points="116.5,-84 11.5,-84 11.5,0 116.5,0 116.5,-84"/>
<text text-anchor="start" x="38.88" y="-70.5" font-family="Helvetica,sans-Serif" font-size="10.00">SceneNode</text>
<text text-anchor="start" x="15.5" y="-54.5" font-family="Helvetica,sans-Serif" font-size="10.00">+</text>
<text text-anchor="start" x="25.5" y="-54.5" font-family="Helvetica,sans-Serif" font-size="10.00">std::string name</text>
<text text-anchor="start" x="15.5" y="-38.5" font-family="Helvetica,sans-Serif" font-size="10.00">+</text>
<text text-anchor="start" x="25.5" y="-38.5" font-family="Helvetica,sans-Serif" font-size="10.00">SceneId material</text>
<text text-anchor="start" x="15.5" y="-22.5" font-family="Helvetica,sans-Serif" font-size="10.00">+</text>
<text text-anchor="start" x="25.5" y="-22.5" font-family="Helvetica,sans-Serif" font-size="10.00">SceneId meshLODs</text>
<text text-anchor="start" x="62.5" y="-6.5" font-family="Helvetica,sans-Serif" font-size="10.00"> </text>
<polygon fill="#666666" stroke="#666666" points="11.5,-66 11.5,-66 116.5,-66 116.5,-66 11.5,-66"/>
<polygon fill="#666666" stroke="#666666" points="11.5,-18 11.5,-18 23.5,-18 23.5,-18 11.5,-18"/>
<polygon fill="#666666" stroke="#666666" points="23.5,-18 23.5,-18 116.5,-18 116.5,-18 23.5,-18"/>
<polygon fill="none" stroke="#666666" points="11.5,0 11.5,-84 116.5,-84 116.5,0 11.5,0"/>
</a>
</g>
</g>
<!-- Node2 -->
<g id="Node000002" class="node">
<title>Node2</title>
<g id="a_Node000002"><a xlink:href="struct_scene_transform.html" target="_top" xlink:title="A Scene Transform is a simple collection of vectors representing translation, rotation,...">
<polygon fill="white" stroke="none" points="128,-228 0,-228 0,-132 128,-132 128,-228"/>
<text text-anchor="start" x="28.75" y="-214.5" font-family="Helvetica,sans-Serif" font-size="10.00">SceneTransform</text>
<text text-anchor="start" x="4" y="-198.5" font-family="Helvetica,sans-Serif" font-size="10.00">+</text>
<text text-anchor="start" x="14" y="-198.5" font-family="Helvetica,sans-Serif" font-size="10.00">hri::Float3 position</text>
<text text-anchor="start" x="4" y="-182.5" font-family="Helvetica,sans-Serif" font-size="10.00">+</text>
<text text-anchor="start" x="14" y="-182.5" font-family="Helvetica,sans-Serif" font-size="10.00">hri::Float3 rotation</text>
<text text-anchor="start" x="4" y="-166.5" font-family="Helvetica,sans-Serif" font-size="10.00">+</text>
<text text-anchor="start" x="14" y="-166.5" font-family="Helvetica,sans-Serif" font-size="10.00">hri::Float3 scale</text>
<text text-anchor="start" x="4" y="-150.5" font-family="Helvetica,sans-Serif" font-size="10.00">+</text>
<text text-anchor="start" x="14" y="-150.5" font-family="Helvetica,sans-Serif" font-size="10.00">hri::Float4x4 modelMatrix</text>
<text text-anchor="start" x="14" y="-138.5" font-family="Helvetica,sans-Serif" font-size="10.00">() const</text>
<polygon fill="#666666" stroke="#666666" points="0,-210 0,-210 128,-210 128,-210 0,-210"/>
<polygon fill="#666666" stroke="#666666" points="0,-162 0,-162 12,-162 12,-162 0,-162"/>
<polygon fill="#666666" stroke="#666666" points="12,-162 12,-162 128,-162 128,-162 12,-162"/>
<polygon fill="none" stroke="#666666" points="0,-132 0,-228 128,-228 128,-132 0,-132"/>
</a>
</g>
</g>
<!-- Node2&#45;&gt;Node1 -->
<g id="edge1_Node000001_Node000002" class="edge">
<title>Node2&#45;&gt;Node1</title>
<g id="a_edge1_Node000001_Node000002"><a xlink:title=" ">
<path fill="none" stroke="#63b8ff" d="M64,-132.2C64,-120.81 64,-108.54 64,-96.85"/>
<polygon fill="none" stroke="#63b8ff" points="64,-96.88 60,-90.88 64,-84.88 68,-90.88 64,-96.88"/>
</a>
</g>
<text text-anchor="middle" x="88.75" y="-104.5" font-family="Helvetica,sans-Serif" font-size="10.00" fill="grey"> +transform</text>
</g>
</g>
</svg>
