<?xml version="1.0" encoding="UTF-8" standalone="no"?>
<!DOCTYPE svg PUBLIC "-//W3C//DTD SVG 1.1//EN"
 "http://www.w3.org/Graphics/SVG/1.1/DTD/svg11.dtd">
<!-- Generated by graphviz version 10.0.1 (20240210.2158)
 -->
<!-- Title: hri::RenderContextCreateInfo Pages: 1 -->
<svg width="142pt" height="76pt"
 viewBox="0.00 0.00 142.00 76.00" xmlns="http://www.w3.org/2000/svg" xmlns:xlink="http://www.w3.org/1999/xlink">
<g id="graph0" class="graph" transform="scale(1 1) rotate(0) translate(4 72)">
<title>hri::RenderContextCreateInfo</title>
<!-- Node1 -->
<g id="Node000001" class="node">
<title>Node1</title>
<g id="a_Node000001"><a xlink:title="The render context create info allows for specifying context settings.">
<polygon fill="#999999" stroke="none" points="134,-68 0,-68 0,0 134,0 134,-68"/>
<text text-anchor="start" x="4.75" y="-54.5" font-family="Helvetica,sans-Serif" font-size="10.00">hri::RenderContextCreateInfo</text>
<text text-anchor="start" x="12.5" y="-38.5" font-family="Helvetica,sans-Serif" font-size="10.00">+</text>
<text text-anchor="start" x="31" y="-38.5" font-family="Helvetica,sans-Serif" font-size="10.00">surfaceCreateFunc</text>
<text text-anchor="start" x="12.5" y="-22.5" font-family="Helvetica,sans-Serif" font-size="10.00">+</text>
<text text-anchor="start" x="31" y="-22.5" font-family="Helvetica,sans-Serif" font-size="10.00">vsyncMode</text>
<text text-anchor="start" x="65.5" y="-6.5" font-family="Helvetica,sans-Serif" font-size="10.00"> </text>
<polygon fill="#666666" stroke="#666666" points="0,-50 0,-50 134,-50 134,-50 0,-50"/>
<polygon fill="#666666" stroke="#666666" points="0,-18 0,-18 29,-18 29,-18 0,-18"/>
<polygon fill="#666666" stroke="#666666" points="29,-18 29,-18 134,-18 134,-18 29,-18"/>
<polygon fill="none" stroke="#666666" points="0,0 0,-68 134,-68 134,0 0,0"/>
</a>
</g>
</g>
</g>
</svg>
