<?xml version="1.0" encoding="UTF-8" standalone="no"?>
<!DOCTYPE svg PUBLIC "-//W3C//DTD SVG 1.1//EN"
 "http://www.w3.org/Graphics/SVG/1.1/DTD/svg11.dtd">
<!-- Generated by graphviz version 10.0.1 (20240210.2158)
 -->
<!-- Title: hri::SwapchainPresentSetup Pages: 1 -->
<svg width="141pt" height="76pt"
 viewBox="0.00 0.00 141.00 76.00" xmlns="http://www.w3.org/2000/svg" xmlns:xlink="http://www.w3.org/1999/xlink">
<g id="graph0" class="graph" transform="scale(1 1) rotate(0) translate(4 72)">
<title>hri::SwapchainPresentSetup</title>
<!-- Node1 -->
<g id="Node000001" class="node">
<title>Node1</title>
<g id="a_Node000001"><a xlink:title="The swapchain present setup dictates available swap images for rendering, as well as the present mode...">
<polygon fill="#999999" stroke="none" points="133,-68 0,-68 0,0 133,0 133,-68"/>
<text text-anchor="start" x="5" y="-54.5" font-family="Helvetica,sans-Serif" font-size="10.00">hri::SwapchainPresentSetup</text>
<text text-anchor="start" x="18.5" y="-38.5" font-family="Helvetica,sans-Serif" font-size="10.00">+</text>
<text text-anchor="start" x="43" y="-38.5" font-family="Helvetica,sans-Serif" font-size="10.00">imageCount</text>
<text text-anchor="start" x="18.5" y="-22.5" font-family="Helvetica,sans-Serif" font-size="10.00">+</text>
<text text-anchor="start" x="43" y="-22.5" font-family="Helvetica,sans-Serif" font-size="10.00">presentMode</text>
<text text-anchor="start" x="65" y="-6.5" font-family="Helvetica,sans-Serif" font-size="10.00"> </text>
<polygon fill="#666666" stroke="#666666" points="0,-50 0,-50 133,-50 133,-50 0,-50"/>
<polygon fill="#666666" stroke="#666666" points="0,-18 0,-18 41,-18 41,-18 0,-18"/>
<polygon fill="#666666" stroke="#666666" points="41,-18 41,-18 133,-18 133,-18 41,-18"/>
<polygon fill="none" stroke="#666666" points="0,0 0,-68 133,-68 133,0 0,0"/>
</a>
</g>
</g>
</g>
</svg>
