<?xml version="1.0" encoding="UTF-8" standalone="no"?>
<!DOCTYPE svg PUBLIC "-//W3C//DTD SVG 1.1//EN"
 "http://www.w3.org/Graphics/SVG/1.1/DTD/svg11.dtd">
<!-- Generated by graphviz version 10.0.1 (20240210.2158)
 -->
<!-- Title: raytracing::ShaderBindingTable::ShaderGroupHandleInfo Pages: 1 -->
<svg width="149pt" height="104pt"
 viewBox="0.00 0.00 149.00 104.00" xmlns="http://www.w3.org/2000/svg" xmlns:xlink="http://www.w3.org/1999/xlink">
<g id="graph0" class="graph" transform="scale(1 1) rotate(0) translate(4 100)">
<title>raytracing::ShaderBindingTable::ShaderGroupHandleInfo</title>
<!-- Node1 -->
<g id="Node000001" class="node">
<title>Node1</title>
<g id="a_Node000001"><a xlink:title="Shader Group Handle Info contains sizes needed to calculate shader region offsets.">
<polygon fill="#999999" stroke="none" points="141,-96 0,-96 0,0 141,0 141,-96"/>
<text text-anchor="start" x="4.88" y="-82.5" font-family="Helvetica,sans-Serif" font-size="10.00">raytracing::ShaderBinding</text>
<text text-anchor="start" x="4.88" y="-70.5" font-family="Helvetica,sans-Serif" font-size="10.00">Table::ShaderGroupHandleInfo</text>
<text text-anchor="start" x="5.5" y="-54.5" font-family="Helvetica,sans-Serif" font-size="10.00">+</text>
<text text-anchor="start" x="17" y="-54.5" font-family="Helvetica,sans-Serif" font-size="10.00">uint32_t handleSize</text>
<text text-anchor="start" x="5.5" y="-38.5" font-family="Helvetica,sans-Serif" font-size="10.00">+</text>
<text text-anchor="start" x="17" y="-38.5" font-family="Helvetica,sans-Serif" font-size="10.00">uint32_t baseAlignment</text>
<text text-anchor="start" x="5.5" y="-22.5" font-family="Helvetica,sans-Serif" font-size="10.00">+</text>
<text text-anchor="start" x="17" y="-22.5" font-family="Helvetica,sans-Serif" font-size="10.00">uint32_t alignedHandleSize</text>
<text text-anchor="start" x="69" y="-6.5" font-family="Helvetica,sans-Serif" font-size="10.00"> </text>
<polygon fill="#666666" stroke="#666666" points="0,-66 0,-66 141,-66 141,-66 0,-66"/>
<polygon fill="#666666" stroke="#666666" points="0,-18 0,-18 15,-18 15,-18 0,-18"/>
<polygon fill="#666666" stroke="#666666" points="15,-18 15,-18 141,-18 141,-18 15,-18"/>
<polygon fill="none" stroke="#666666" points="0,0 0,-96 141,-96 141,0 0,0"/>
</a>
</g>
</g>
</g>
</svg>
