<?xml version="1.0" encoding="UTF-8" standalone="no"?>
<!DOCTYPE svg PUBLIC "-//W3C//DTD SVG 1.1//EN"
 "http://www.w3.org/Graphics/SVG/1.1/DTD/svg11.dtd">
<!-- Generated by graphviz version 10.0.1 (20240210.2158)
 -->
<!-- Title: GBufferLayoutFrameInfo Pages: 1 -->
<!--zoomable 1424 -->

<svg id="main" version="1.1" xmlns="http://www.w3.org/2000/svg" xmlns:xlink="http://www.w3.org/1999/xlink" xml:space="preserve" onload="init(evt)">
<style type="text/css"><![CDATA[
.node, .edge {opacity: 0.7;}
.node.selected, .edge.selected {opacity: 1;}
.edge:hover path { stroke: red; }
.edge:hover polygon { stroke: red; fill: red; }
]]></style>

<defs>
  <circle id="rim" cx="0" cy="0" r="7"/>
  <circle id="rim2" cx="0" cy="0" r="3.5"/>
  <g id="zoomPlus">
    <use xlink:href="#rim" fill="#404040"><set attributeName="fill" to="#808080" begin="zoomplus.mouseover" end="zoomplus.mouseout"/></use>
    <path d="M-4,0h8M0,-4v8" fill="none" stroke="white" stroke-width="1.5" pointer-events="none"/>
  </g>
  <g id="zoomMin">
    <use xlink:href="#rim" fill="#404040"><set attributeName="fill" to="#808080" begin="zoomminus.mouseover" end="zoomminus.mouseout"/></use>
    <path d="M-4,0h8" fill="none" stroke="white" stroke-width="1.5" pointer-events="none"/>
  </g>
  <g id="arrowUp" transform="translate(30 24)">
    <use xlink:href="#rim"/>
    <path pointer-events="none" fill="none" stroke="white" stroke-width="1.5" d="M0,-3.0v7 M-2.5,-0.5L0,-3.0L2.5,-0.5"/>
  </g>
  <g id="arrowRight" transform="rotate(90) translate(36 -43)">
    <use xlink:href="#rim"/>
    <path pointer-events="none" fill="none" stroke="white" stroke-width="1.5" d="M0,-3.0v7 M-2.5,-0.5L0,-3.0L2.5,-0.5"/>
  </g>
  <g id="arrowDown" transform="rotate(180) translate(-30 -48)">
    <use xlink:href="#rim"/>
    <path pointer-events="none" fill="none" stroke="white" stroke-width="1.5" d="M0,-3.0v7 M-2.5,-0.5L0,-3.0L2.5,-0.5"/>
  </g>
  <g id="arrowLeft" transform="rotate(270) translate(-36 17)">
    <use xlink:href="#rim"/>
    <path pointer-events="none" fill="none" stroke="white" stroke-width="1.5" d="M0,-3.0v7 M-2.5,-0.5L0,-3.0L2.5,-0.5"/>
  </g>
  <g id="resetDef">
    <use xlink:href="#rim2" fill="#404040"><set attributeName="fill" to="#808080" begin="reset.mouseover" end="reset.mouseout"/></use>
  </g>
</defs>
<script type="application/ecmascript">
var viewWidth = 479;
var viewHeight = 1424;
var sectionId = 'dynsection-0';
</script>
<script type="application/ecmascript" xlink:href="svg.min.js"/>
<svg id="graph" class="graph">
<g id="viewport">
<title>GBufferLayoutFrameInfo</title>
<!-- Node1 -->
<g id="Node000001" class="node">
<title>Node1</title>
<g id="a_Node000001"><a xlink:title=" ">
<polygon fill="#999999" stroke="none" points="285,-64 147,-64 147,0 285,0 285,-64"/>
<text text-anchor="start" x="163.88" y="-50.5" font-family="Helvetica,sans-Serif" font-size="10.00">GBufferLayoutFrameInfo</text>
<text text-anchor="start" x="151" y="-34.5" font-family="Helvetica,sans-Serif" font-size="10.00">+</text>
<text text-anchor="start" x="161" y="-34.5" font-family="Helvetica,sans-Serif" font-size="10.00">VkDescriptorSet sceneData</text>
<text text-anchor="start" x="161" y="-22.5" font-family="Helvetica,sans-Serif" font-size="10.00">SetHandle</text>
<text text-anchor="start" x="214.5" y="-6.5" font-family="Helvetica,sans-Serif" font-size="10.00"> </text>
<polygon fill="#666666" stroke="#666666" points="147,-46 147,-46 285,-46 285,-46 147,-46"/>
<polygon fill="#666666" stroke="#666666" points="147,-18 147,-18 159,-18 159,-18 147,-18"/>
<polygon fill="#666666" stroke="#666666" points="159,-18 159,-18 285,-18 285,-18 159,-18"/>
<polygon fill="none" stroke="#666666" points="147,0 147,-64 285,-64 285,0 147,0"/>
</a>
</g>
</g>
<!-- Node2 -->
<g id="Node000002" class="node">
<title>Node2</title>
<g id="a_Node000002"><a xlink:href="class_scene_graph.html" target="_top" xlink:title=" ">
<polygon fill="white" stroke="none" points="297.5,-440 134.5,-440 134.5,-112 297.5,-112 297.5,-440"/>
<text text-anchor="start" x="189" y="-426.5" font-family="Helvetica,sans-Serif" font-size="10.00">SceneGraph</text>
<text text-anchor="start" x="138.5" y="-410.5" font-family="Helvetica,sans-Serif" font-size="10.00">+</text>
<text text-anchor="start" x="148.5" y="-410.5" font-family="Helvetica,sans-Serif" font-size="10.00">std::vector&lt; Material</text>
<text text-anchor="start" x="148.5" y="-398.5" font-family="Helvetica,sans-Serif" font-size="10.00"> &gt; materials</text>
<text text-anchor="start" x="138.5" y="-382.5" font-family="Helvetica,sans-Serif" font-size="10.00">+</text>
<text text-anchor="start" x="148.5" y="-382.5" font-family="Helvetica,sans-Serif" font-size="10.00">std::vector&lt; hri::Mesh</text>
<text text-anchor="start" x="148.5" y="-370.5" font-family="Helvetica,sans-Serif" font-size="10.00"> &gt; meshes</text>
<text text-anchor="start" x="138.5" y="-354.5" font-family="Helvetica,sans-Serif" font-size="10.00">+</text>
<text text-anchor="start" x="148.5" y="-354.5" font-family="Helvetica,sans-Serif" font-size="10.00">std::vector&lt; SceneNode</text>
<text text-anchor="start" x="148.5" y="-342.5" font-family="Helvetica,sans-Serif" font-size="10.00"> &gt; nodes</text>
<text text-anchor="start" x="138.5" y="-326.5" font-family="Helvetica,sans-Serif" font-size="10.00">+</text>
<text text-anchor="start" x="148.5" y="-326.5" font-family="Helvetica,sans-Serif" font-size="10.00">SceneGraph(raytracing</text>
<text text-anchor="start" x="148.5" y="-314.5" font-family="Helvetica,sans-Serif" font-size="10.00">::RayTracingContext &amp;ctx,</text>
<text text-anchor="start" x="148.5" y="-302.5" font-family="Helvetica,sans-Serif" font-size="10.00"> std::vector&lt; Material &gt;</text>
<text text-anchor="start" x="148.5" y="-290.5" font-family="Helvetica,sans-Serif" font-size="10.00"> &amp;&amp;materials, std::vector</text>
<text text-anchor="start" x="148.5" y="-278.5" font-family="Helvetica,sans-Serif" font-size="10.00">&lt; hri::Mesh &gt; &amp;&amp;meshes, std</text>
<text text-anchor="start" x="148.5" y="-266.5" font-family="Helvetica,sans-Serif" font-size="10.00">::vector&lt; SceneNode &gt; &amp;&amp;nodes)</text>
<text text-anchor="start" x="138.5" y="-250.5" font-family="Helvetica,sans-Serif" font-size="10.00">+</text>
<text text-anchor="start" x="148.5" y="-250.5" font-family="Helvetica,sans-Serif" font-size="10.00">virtual ~SceneGraph</text>
<text text-anchor="start" x="148.5" y="-238.5" font-family="Helvetica,sans-Serif" font-size="10.00">()=default</text>
<text text-anchor="start" x="138.5" y="-222.5" font-family="Helvetica,sans-Serif" font-size="10.00">+</text>
<text text-anchor="start" x="148.5" y="-222.5" font-family="Helvetica,sans-Serif" font-size="10.00">void update(float deltaTime)</text>
<text text-anchor="start" x="138.5" y="-206.5" font-family="Helvetica,sans-Serif" font-size="10.00">+</text>
<text text-anchor="start" x="148.5" y="-206.5" font-family="Helvetica,sans-Serif" font-size="10.00">const std::vector&lt;</text>
<text text-anchor="start" x="148.5" y="-194.5" font-family="Helvetica,sans-Serif" font-size="10.00"> RenderInstance &gt; &amp;</text>
<text text-anchor="start" x="148.5" y="-182.5" font-family="Helvetica,sans-Serif" font-size="10.00"> getRenderInstanceList</text>
<text text-anchor="start" x="148.5" y="-170.5" font-family="Helvetica,sans-Serif" font-size="10.00">() const</text>
<text text-anchor="start" x="138.5" y="-154.5" font-family="Helvetica,sans-Serif" font-size="10.00">+</text>
<text text-anchor="start" x="148.5" y="-154.5" font-family="Helvetica,sans-Serif" font-size="10.00">const std::vector&lt;</text>
<text text-anchor="start" x="148.5" y="-142.5" font-family="Helvetica,sans-Serif" font-size="10.00"> RenderInstance &gt; &amp;</text>
<text text-anchor="start" x="148.5" y="-130.5" font-family="Helvetica,sans-Serif" font-size="10.00"> generateRenderInstanceList</text>
<text text-anchor="start" x="148.5" y="-118.5" font-family="Helvetica,sans-Serif" font-size="10.00">(const hri::Camera &amp;camera)</text>
<polygon fill="#666666" stroke="#666666" points="134.5,-422 134.5,-422 297.5,-422 297.5,-422 134.5,-422"/>
<polygon fill="#666666" stroke="#666666" points="134.5,-338 134.5,-338 146.5,-338 146.5,-338 134.5,-338"/>
<polygon fill="#666666" stroke="#666666" points="146.5,-338 146.5,-338 297.5,-338 297.5,-338 146.5,-338"/>
<polygon fill="none" stroke="#666666" points="134.5,-112 134.5,-440 297.5,-440 297.5,-112 134.5,-112"/>
</a>
</g>
</g>
<!-- Node2&#45;&gt;Node1 -->
<g id="edge1_Node000001_Node000002" class="edge">
<title>Node2&#45;&gt;Node1</title>
<g id="a_edge1_Node000001_Node000002"><a xlink:title=" ">
<path fill="none" stroke="#63b8ff" d="M216,-112.24C216,-99.37 216,-87.23 216,-76.49"/>
<polygon fill="none" stroke="#63b8ff" points="216,-76.59 212,-70.59 216,-64.59 220,-70.59 216,-76.59"/>
</a>
</g>
<text text-anchor="middle" x="250.12" y="-84.5" font-family="Helvetica,sans-Serif" font-size="10.00" fill="grey"> +pSceneGraph</text>
</g>
<!-- Node3 -->
<g id="Node000003" class="node">
<title>Node3</title>
<g id="a_Node000003"><a xlink:href="struct_scene_parameters.html" target="_top" xlink:title="Scene parameters allow modifying LOD selection.">
<polygon fill="white" stroke="none" points="88,-776 0,-776 0,-708 88,-708 88,-776"/>
<text text-anchor="start" x="5" y="-762.5" font-family="Helvetica,sans-Serif" font-size="10.00">SceneParameters</text>
<text text-anchor="start" x="6" y="-746.5" font-family="Helvetica,sans-Serif" font-size="10.00">+</text>
<text text-anchor="start" x="18" y="-746.5" font-family="Helvetica,sans-Serif" font-size="10.00">float nearPoint</text>
<text text-anchor="start" x="6" y="-730.5" font-family="Helvetica,sans-Serif" font-size="10.00">+</text>
<text text-anchor="start" x="18" y="-730.5" font-family="Helvetica,sans-Serif" font-size="10.00">float farPoint</text>
<text text-anchor="start" x="42.5" y="-714.5" font-family="Helvetica,sans-Serif" font-size="10.00"> </text>
<polygon fill="#666666" stroke="#666666" points="0,-758 0,-758 88,-758 88,-758 0,-758"/>
<polygon fill="#666666" stroke="#666666" points="0,-726 0,-726 16,-726 16,-726 0,-726"/>
<polygon fill="#666666" stroke="#666666" points="16,-726 16,-726 88,-726 88,-726 16,-726"/>
<polygon fill="none" stroke="#666666" points="0,-708 0,-776 88,-776 88,-708 0,-708"/>
</a>
</g>
</g>
<!-- Node3&#45;&gt;Node2 -->
<g id="edge2_Node000002_Node000003" class="edge">
<title>Node3&#45;&gt;Node2</title>
<g id="a_edge2_Node000002_Node000003"><a xlink:title=" ">
<path fill="none" stroke="#63b8ff" d="M47.61,-708.15C53.74,-659.02 68.39,-564.02 97,-488 105.75,-464.77 116.78,-441.03 128.59,-418.26"/>
<polygon fill="none" stroke="#63b8ff" points="128.62,-418.21 127.88,-411.04 134.22,-407.6 134.96,-414.77 128.62,-418.21"/>
</a>
</g>
<text text-anchor="middle" x="135.88" y="-460.5" font-family="Helvetica,sans-Serif" font-size="10.00" fill="grey"> +parameters</text>
</g>
<!-- Node4 -->
<g id="Node000004" class="node">
<title>Node4</title>
<g id="a_Node000004"><a xlink:href="class_scene_a_s_manager.html" target="_top" xlink:title=" ">
<polygon fill="white" stroke="none" points="325.5,-996 106.5,-996 106.5,-488 325.5,-488 325.5,-996"/>
<text text-anchor="start" x="176.62" y="-982.5" font-family="Helvetica,sans-Serif" font-size="10.00">SceneASManager</text>
<text text-anchor="start" x="214.5" y="-966.5" font-family="Helvetica,sans-Serif" font-size="10.00"> </text>
<text text-anchor="start" x="110.5" y="-950.5" font-family="Helvetica,sans-Serif" font-size="10.00">+</text>
<text text-anchor="start" x="120.5" y="-950.5" font-family="Helvetica,sans-Serif" font-size="10.00">SceneASManager(raytracing</text>
<text text-anchor="start" x="120.5" y="-938.5" font-family="Helvetica,sans-Serif" font-size="10.00">::RayTracingContext &amp;ctx,</text>
<text text-anchor="start" x="120.5" y="-926.5" font-family="Helvetica,sans-Serif" font-size="10.00"> const std::vector&lt; hri::</text>
<text text-anchor="start" x="120.5" y="-914.5" font-family="Helvetica,sans-Serif" font-size="10.00">Mesh &gt; &amp;meshes)</text>
<text text-anchor="start" x="110.5" y="-898.5" font-family="Helvetica,sans-Serif" font-size="10.00">+</text>
<text text-anchor="start" x="120.5" y="-898.5" font-family="Helvetica,sans-Serif" font-size="10.00">virtual ~SceneASManager</text>
<text text-anchor="start" x="120.5" y="-886.5" font-family="Helvetica,sans-Serif" font-size="10.00">()=default</text>
<text text-anchor="start" x="110.5" y="-870.5" font-family="Helvetica,sans-Serif" font-size="10.00">+</text>
<text text-anchor="start" x="120.5" y="-870.5" font-family="Helvetica,sans-Serif" font-size="10.00">bool shouldReallocTLAS</text>
<text text-anchor="start" x="120.5" y="-858.5" font-family="Helvetica,sans-Serif" font-size="10.00">(const raytracing::Acceleration</text>
<text text-anchor="start" x="120.5" y="-846.5" font-family="Helvetica,sans-Serif" font-size="10.00">Structure &amp;tlas, const std</text>
<text text-anchor="start" x="120.5" y="-834.5" font-family="Helvetica,sans-Serif" font-size="10.00">::vector&lt; RenderInstance &gt; &amp;instances,</text>
<text text-anchor="start" x="120.5" y="-822.5" font-family="Helvetica,sans-Serif" font-size="10.00"> const std::vector&lt; raytracing::Acceleration</text>
<text text-anchor="start" x="120.5" y="-810.5" font-family="Helvetica,sans-Serif" font-size="10.00">Structure &gt; &amp;blasList) const</text>
<text text-anchor="start" x="110.5" y="-794.5" font-family="Helvetica,sans-Serif" font-size="10.00">+</text>
<text text-anchor="start" x="120.5" y="-794.5" font-family="Helvetica,sans-Serif" font-size="10.00">raytracing::Acceleration</text>
<text text-anchor="start" x="120.5" y="-782.5" font-family="Helvetica,sans-Serif" font-size="10.00">Structure createTLAS(const</text>
<text text-anchor="start" x="120.5" y="-770.5" font-family="Helvetica,sans-Serif" font-size="10.00"> std::vector&lt; RenderInstance</text>
<text text-anchor="start" x="120.5" y="-758.5" font-family="Helvetica,sans-Serif" font-size="10.00"> &gt; &amp;instances, const std::vector</text>
<text text-anchor="start" x="120.5" y="-746.5" font-family="Helvetica,sans-Serif" font-size="10.00">&lt; raytracing::AccelerationStructure</text>
<text text-anchor="start" x="120.5" y="-734.5" font-family="Helvetica,sans-Serif" font-size="10.00"> &gt; &amp;blasList)</text>
<text text-anchor="start" x="110.5" y="-718.5" font-family="Helvetica,sans-Serif" font-size="10.00">+</text>
<text text-anchor="start" x="120.5" y="-718.5" font-family="Helvetica,sans-Serif" font-size="10.00">std::vector&lt; raytracing</text>
<text text-anchor="start" x="120.5" y="-706.5" font-family="Helvetica,sans-Serif" font-size="10.00">::AccelerationStructure</text>
<text text-anchor="start" x="120.5" y="-694.5" font-family="Helvetica,sans-Serif" font-size="10.00"> &gt; createBLASList(const</text>
<text text-anchor="start" x="120.5" y="-682.5" font-family="Helvetica,sans-Serif" font-size="10.00"> std::vector&lt; hri::Mesh &gt;</text>
<text text-anchor="start" x="120.5" y="-670.5" font-family="Helvetica,sans-Serif" font-size="10.00"> &amp;meshes)</text>
<text text-anchor="start" x="110.5" y="-654.5" font-family="Helvetica,sans-Serif" font-size="10.00">+</text>
<text text-anchor="start" x="120.5" y="-654.5" font-family="Helvetica,sans-Serif" font-size="10.00">void cmdBuildTLAS(VkCommand</text>
<text text-anchor="start" x="120.5" y="-642.5" font-family="Helvetica,sans-Serif" font-size="10.00">Buffer commandBuffer, const</text>
<text text-anchor="start" x="120.5" y="-630.5" font-family="Helvetica,sans-Serif" font-size="10.00"> std::vector&lt; RenderInstance</text>
<text text-anchor="start" x="120.5" y="-618.5" font-family="Helvetica,sans-Serif" font-size="10.00"> &gt; &amp;instances, const std::vector</text>
<text text-anchor="start" x="120.5" y="-606.5" font-family="Helvetica,sans-Serif" font-size="10.00">&lt; raytracing::AccelerationStructure</text>
<text text-anchor="start" x="120.5" y="-594.5" font-family="Helvetica,sans-Serif" font-size="10.00"> &gt; &amp;blasList, raytracing::AccelerationStructure</text>
<text text-anchor="start" x="120.5" y="-582.5" font-family="Helvetica,sans-Serif" font-size="10.00"> &amp;tlas) const</text>
<text text-anchor="start" x="110.5" y="-566.5" font-family="Helvetica,sans-Serif" font-size="10.00">+</text>
<text text-anchor="start" x="120.5" y="-566.5" font-family="Helvetica,sans-Serif" font-size="10.00">void cmdBuildBLASses</text>
<text text-anchor="start" x="120.5" y="-554.5" font-family="Helvetica,sans-Serif" font-size="10.00">(VkCommandBuffer commandBuffer,</text>
<text text-anchor="start" x="120.5" y="-542.5" font-family="Helvetica,sans-Serif" font-size="10.00"> const std::vector&lt; RenderInstance</text>
<text text-anchor="start" x="120.5" y="-530.5" font-family="Helvetica,sans-Serif" font-size="10.00"> &gt; &amp;instances, const std::vector</text>
<text text-anchor="start" x="120.5" y="-518.5" font-family="Helvetica,sans-Serif" font-size="10.00">&lt; hri::Mesh &gt; &amp;meshes, const std</text>
<text text-anchor="start" x="120.5" y="-506.5" font-family="Helvetica,sans-Serif" font-size="10.00">::vector&lt; raytracing::AccelerationStructure</text>
<text text-anchor="start" x="120.5" y="-494.5" font-family="Helvetica,sans-Serif" font-size="10.00"> &gt; &amp;blasList) const</text>
<polygon fill="#666666" stroke="#666666" points="106.5,-978 106.5,-978 325.5,-978 325.5,-978 106.5,-978"/>
<polygon fill="#666666" stroke="#666666" points="106.5,-962 106.5,-962 325.5,-962 325.5,-962 106.5,-962"/>
<polygon fill="none" stroke="#666666" points="106.5,-488 106.5,-996 325.5,-996 325.5,-488 106.5,-488"/>
</a>
</g>
</g>
<!-- Node4&#45;&gt;Node2 -->
<g id="edge3_Node000002_Node000004" class="edge">
<title>Node4&#45;&gt;Node2</title>
<g id="a_edge3_Node000002_Node000004"><a xlink:title=" ">
<path fill="none" stroke="#63b8ff" d="M216,-488.29C216,-476.42 216,-464.61 216,-453.01"/>
<polygon fill="none" stroke="#63b8ff" points="216,-452.89 212,-446.89 216,-440.89 220,-446.89 216,-452.89"/>
</a>
</g>
<text text-anchor="middle" x="264" y="-460.5" font-family="Helvetica,sans-Serif" font-size="10.00" fill="grey"> +accelStructManager</text>
</g>
<!-- Node5 -->
<g id="Node000005" class="node">
<title>Node5</title>
<g id="a_Node000005"><a xlink:href="struct_scene_buffers.html" target="_top" xlink:title="Scene buffers store device local resources for a scene.">
<polygon fill="white" stroke="none" points="410.5,-768 343.5,-768 343.5,-716 410.5,-716 410.5,-768"/>
<text text-anchor="start" x="348.12" y="-754.5" font-family="Helvetica,sans-Serif" font-size="10.00">SceneBuffers</text>
<text text-anchor="start" x="375.5" y="-738.5" font-family="Helvetica,sans-Serif" font-size="10.00"> </text>
<text text-anchor="start" x="375.5" y="-722.5" font-family="Helvetica,sans-Serif" font-size="10.00"> </text>
<polygon fill="#666666" stroke="#666666" points="343.5,-750 343.5,-750 410.5,-750 410.5,-750 343.5,-750"/>
<polygon fill="#666666" stroke="#666666" points="343.5,-734 343.5,-734 410.5,-734 410.5,-734 343.5,-734"/>
<polygon fill="none" stroke="#666666" points="343.5,-716 343.5,-768 410.5,-768 410.5,-716 343.5,-716"/>
</a>
</g>
</g>
<!-- Node5&#45;&gt;Node2 -->
<g id="edge4_Node000002_Node000005" class="edge">
<title>Node5&#45;&gt;Node2</title>
<g id="a_edge4_Node000002_Node000005"><a xlink:title=" ">
<path fill="none" stroke="#63b8ff" d="M375.74,-716.23C372.79,-670.09 363.36,-568.41 335,-488 326.53,-463.97 315.4,-439.5 303.35,-416.13"/>
<polygon fill="none" stroke="#63b8ff" points="303.37,-416.18 297.04,-412.73 297.78,-405.56 304.12,-409.01 303.37,-416.18"/>
</a>
</g>
<text text-anchor="middle" x="346.75" y="-460.5" font-family="Helvetica,sans-Serif" font-size="10.00" fill="grey"> +buffers</text>
</g>
<!-- Node6 -->
<g id="Node000006" class="node">
<title>Node6</title>
<g id="a_Node000006"><a xlink:href="classhri_1_1_buffer_resource.html" target="_top" xlink:title="A Buffer Resource is a collection of a vk buffer and its allocation.">
<polygon fill="white" stroke="none" points="464.5,-1416 289.5,-1416 289.5,-1056 464.5,-1056 464.5,-1416"/>
<text text-anchor="start" x="335.75" y="-1402.5" font-family="Helvetica,sans-Serif" font-size="10.00">hri::BufferResource</text>
<text text-anchor="start" x="293.5" y="-1386.5" font-family="Helvetica,sans-Serif" font-size="10.00">+</text>
<text text-anchor="start" x="303.5" y="-1386.5" font-family="Helvetica,sans-Serif" font-size="10.00">size_t bufferSize</text>
<text text-anchor="start" x="293.5" y="-1370.5" font-family="Helvetica,sans-Serif" font-size="10.00">+</text>
<text text-anchor="start" x="303.5" y="-1370.5" font-family="Helvetica,sans-Serif" font-size="10.00">bool hostVisible</text>
<text text-anchor="start" x="293.5" y="-1354.5" font-family="Helvetica,sans-Serif" font-size="10.00">+</text>
<text text-anchor="start" x="303.5" y="-1354.5" font-family="Helvetica,sans-Serif" font-size="10.00">VkBuffer buffer</text>
<text text-anchor="start" x="293.5" y="-1338.5" font-family="Helvetica,sans-Serif" font-size="10.00">+</text>
<text text-anchor="start" x="303.5" y="-1338.5" font-family="Helvetica,sans-Serif" font-size="10.00">BufferResource(RenderContext</text>
<text text-anchor="start" x="303.5" y="-1326.5" font-family="Helvetica,sans-Serif" font-size="10.00"> &amp;ctx, size_t size, VkBufferUsage</text>
<text text-anchor="start" x="303.5" y="-1314.5" font-family="Helvetica,sans-Serif" font-size="10.00">Flags usage, bool hostVisible=false)</text>
<text text-anchor="start" x="293.5" y="-1298.5" font-family="Helvetica,sans-Serif" font-size="10.00">+</text>
<text text-anchor="start" x="303.5" y="-1298.5" font-family="Helvetica,sans-Serif" font-size="10.00">virtual ~BufferResource()</text>
<text text-anchor="start" x="293.5" y="-1282.5" font-family="Helvetica,sans-Serif" font-size="10.00">+</text>
<text text-anchor="start" x="303.5" y="-1282.5" font-family="Helvetica,sans-Serif" font-size="10.00">BufferResource(const</text>
<text text-anchor="start" x="303.5" y="-1270.5" font-family="Helvetica,sans-Serif" font-size="10.00"> BufferResource &amp;)=delete</text>
<text text-anchor="start" x="293.5" y="-1254.5" font-family="Helvetica,sans-Serif" font-size="10.00">+</text>
<text text-anchor="start" x="303.5" y="-1254.5" font-family="Helvetica,sans-Serif" font-size="10.00">BufferResource &amp; operator</text>
<text text-anchor="start" x="303.5" y="-1242.5" font-family="Helvetica,sans-Serif" font-size="10.00">=(const BufferResource</text>
<text text-anchor="start" x="303.5" y="-1230.5" font-family="Helvetica,sans-Serif" font-size="10.00"> &amp;)=delete</text>
<text text-anchor="start" x="293.5" y="-1214.5" font-family="Helvetica,sans-Serif" font-size="10.00">+</text>
<text text-anchor="start" x="303.5" y="-1214.5" font-family="Helvetica,sans-Serif" font-size="10.00">BufferResource(BufferResource</text>
<text text-anchor="start" x="303.5" y="-1202.5" font-family="Helvetica,sans-Serif" font-size="10.00"> &amp;&amp;other) noexcept</text>
<text text-anchor="start" x="293.5" y="-1186.5" font-family="Helvetica,sans-Serif" font-size="10.00">+</text>
<text text-anchor="start" x="303.5" y="-1186.5" font-family="Helvetica,sans-Serif" font-size="10.00">BufferResource &amp; operator</text>
<text text-anchor="start" x="303.5" y="-1174.5" font-family="Helvetica,sans-Serif" font-size="10.00">=(BufferResource &amp;&amp;other)</text>
<text text-anchor="start" x="303.5" y="-1162.5" font-family="Helvetica,sans-Serif" font-size="10.00"> noexcept</text>
<text text-anchor="start" x="293.5" y="-1146.5" font-family="Helvetica,sans-Serif" font-size="10.00">+</text>
<text text-anchor="start" x="303.5" y="-1146.5" font-family="Helvetica,sans-Serif" font-size="10.00">void copyToBuffer(const</text>
<text text-anchor="start" x="303.5" y="-1134.5" font-family="Helvetica,sans-Serif" font-size="10.00"> void *pData, size_t size,</text>
<text text-anchor="start" x="303.5" y="-1122.5" font-family="Helvetica,sans-Serif" font-size="10.00"> size_t offset=0)</text>
<text text-anchor="start" x="293.5" y="-1106.5" font-family="Helvetica,sans-Serif" font-size="10.00">+</text>
<text text-anchor="start" x="303.5" y="-1106.5" font-family="Helvetica,sans-Serif" font-size="10.00">void * map() const</text>
<text text-anchor="start" x="293.5" y="-1090.5" font-family="Helvetica,sans-Serif" font-size="10.00">+</text>
<text text-anchor="start" x="303.5" y="-1090.5" font-family="Helvetica,sans-Serif" font-size="10.00">void unmap() const</text>
<text text-anchor="start" x="293.5" y="-1074.5" font-family="Helvetica,sans-Serif" font-size="10.00">+</text>
<text text-anchor="start" x="303.5" y="-1074.5" font-family="Helvetica,sans-Serif" font-size="10.00">VkBufferDeviceAddressInfo</text>
<text text-anchor="start" x="303.5" y="-1062.5" font-family="Helvetica,sans-Serif" font-size="10.00"> deviceAddressInfo() const</text>
<polygon fill="#666666" stroke="#666666" points="289.5,-1398 289.5,-1398 464.5,-1398 464.5,-1398 289.5,-1398"/>
<polygon fill="#666666" stroke="#666666" points="289.5,-1350 289.5,-1350 301.5,-1350 301.5,-1350 289.5,-1350"/>
<polygon fill="#666666" stroke="#666666" points="301.5,-1350 301.5,-1350 464.5,-1350 464.5,-1350 301.5,-1350"/>
<polygon fill="none" stroke="#666666" points="289.5,-1056 289.5,-1416 464.5,-1416 464.5,-1056 289.5,-1056"/>
</a>
</g>
</g>
<!-- Node6&#45;&gt;Node5 -->
<g id="edge5_Node000005_Node000006" class="edge">
<title>Node6&#45;&gt;Node5</title>
<g id="a_edge5_Node000005_Node000006"><a xlink:title=" ">
<path fill="none" stroke="#63b8ff" d="M377,-1056.33C377,-956.07 377,-839.64 377,-780.96"/>
<polygon fill="none" stroke="#63b8ff" points="377,-780.9 373,-774.9 377,-768.9 381,-774.9 377,-780.9"/>
</a>
</g>
<text text-anchor="middle" x="423.88" y="-1028.5" font-family="Helvetica,sans-Serif" font-size="10.00" fill="grey"> +instanceDataSSBO</text>
<text text-anchor="middle" x="423.88" y="-1016.5" font-family="Helvetica,sans-Serif" font-size="10.00" fill="grey">+materialSSBO</text>
</g>
</g>
</svg>

<g id="navigator" transform="translate(0 0)" fill="#404254">
  <rect fill="#f2f5e9" fill-opacity="0.5" stroke="#606060" stroke-width=".5" x="0" y="0" width="60" height="60"/>
  <use id="zoomplus" xlink:href="#zoomPlus" x="17" y="9" onmousedown="handleZoom(evt,'in')"/>
  <use id="zoomminus" xlink:href="#zoomMin" x="42" y="9" onmousedown="handleZoom(evt,'out')"/>
  <use id="reset" xlink:href="#resetDef" x="30" y="36" onmousedown="handleReset()"/>
   <use id="arrowup" xlink:href="#arrowUp" x="0" y="0" onmousedown="handlePan(0,-1)"/>
  <use id="arrowright" xlink:href="#arrowRight" x="0" y="0" onmousedown="handlePan(1,0)"/>
  <use id="arrowdown" xlink:href="#arrowDown" x="0" y="0" onmousedown="handlePan(0,1)"/>
  <use id="arrowleft" xlink:href="#arrowLeft" x="0" y="0" onmousedown="handlePan(-1,0)"/>
</g>
<svg viewBox="0 0 15 15" width="100%" height="30px" preserveAspectRatio="xMaxYMin meet">
 <g id="arrow_out" transform="scale(0.3 0.3)">
  <a xlink:href="struct_g_buffer_layout_frame_info__coll__graph_org.svg" target="_base">
   <rect id="button" ry="5" rx="5" y="6" x="6" height="38" width="38"
        fill="#f2f5e9" fill-opacity="0.5" stroke="#606060" stroke-width="1.0"/>
   <path id="arrow"
     d="M 11.500037,31.436501 C 11.940474,20.09759 22.043105,11.32322 32.158766,21.979434 L 37.068811,17.246167 C 37.068811,17.246167 37.088388,32 37.088388,32 L 22.160133,31.978069 C 22.160133,31.978069 26.997745,27.140456 26.997745,27.140456 C 18.528582,18.264221 13.291696,25.230495 11.500037,31.436501 z"
     style="fill:#404040;"/>
  </a>
 </g>
</svg>

<style type='text/css'>
<![CDATA[
[data-mouse-over-selected='false'] { opacity: 0.7; }
[data-mouse-over-selected='true']  { opacity: 1.0; }
]]>
</style>
<script type="application/ecmascript"><![CDATA[
document.addEventListener('DOMContentLoaded', (event) => {
  highlightEdges();
  highlightAdjacentNodes();
});
]]></script>
</svg>
