<?xml version="1.0" encoding="UTF-8" standalone="no"?>
<!DOCTYPE svg PUBLIC "-//W3C//DTD SVG 1.1//EN"
 "http://www.w3.org/Graphics/SVG/1.1/DTD/svg11.dtd">
<!-- Generated by graphviz version 10.0.1 (20240210.2158)
 -->
<!-- Title: hri::PipelineStateObject Pages: 1 -->
<svg width="120pt" height="76pt"
 viewBox="0.00 0.00 120.00 76.00" xmlns="http://www.w3.org/2000/svg" xmlns:xlink="http://www.w3.org/1999/xlink">
<g id="graph0" class="graph" transform="scale(1 1) rotate(0) translate(4 72)">
<title>hri::PipelineStateObject</title>
<!-- Node1 -->
<g id="Node000001" class="node">
<title>Node1</title>
<g id="a_Node000001"><a xlink:title="A pipeline state object (PSO) stores a pipeline and its bind point.">
<polygon fill="#999999" stroke="none" points="112,-68 0,-68 0,0 112,0 112,-68"/>
<text text-anchor="start" x="4.62" y="-54.5" font-family="Helvetica,sans-Serif" font-size="10.00">hri::PipelineStateObject</text>
<text text-anchor="start" x="17.5" y="-38.5" font-family="Helvetica,sans-Serif" font-size="10.00">+</text>
<text text-anchor="start" x="41" y="-38.5" font-family="Helvetica,sans-Serif" font-size="10.00">bindPoint</text>
<text text-anchor="start" x="17.5" y="-22.5" font-family="Helvetica,sans-Serif" font-size="10.00">+</text>
<text text-anchor="start" x="41" y="-22.5" font-family="Helvetica,sans-Serif" font-size="10.00">pipeline</text>
<text text-anchor="start" x="54.5" y="-6.5" font-family="Helvetica,sans-Serif" font-size="10.00"> </text>
<polygon fill="#666666" stroke="#666666" points="0,-50 0,-50 112,-50 112,-50 0,-50"/>
<polygon fill="#666666" stroke="#666666" points="0,-18 0,-18 39,-18 39,-18 0,-18"/>
<polygon fill="#666666" stroke="#666666" points="39,-18 39,-18 112,-18 112,-18 39,-18"/>
<polygon fill="none" stroke="#666666" points="0,0 0,-68 112,-68 112,0 0,0"/>
</a>
</g>
</g>
</g>
</svg>
