<?xml version="1.0" encoding="UTF-8" standalone="no"?>
<!DOCTYPE svg PUBLIC "-//W3C//DTD SVG 1.1//EN"
 "http://www.w3.org/Graphics/SVG/1.1/DTD/svg11.dtd">
<!-- Generated by graphviz version 10.0.1 (20240210.2158)
 -->
<!-- Title: hri::SceneNode Pages: 1 -->
<svg width="84pt" height="76pt"
 viewBox="0.00 0.00 84.00 76.00" xmlns="http://www.w3.org/2000/svg" xmlns:xlink="http://www.w3.org/1999/xlink">

<svg id="main" version="1.1" xmlns="http://www.w3.org/2000/svg" xmlns:xlink="http://www.w3.org/1999/xlink" xml:space="preserve" onload="init(evt)">
<style type="text/css"><![CDATA[
.node, .edge {opacity: 0.7;}
.node.selected, .edge.selected {opacity: 1;}
.edge:hover path { stroke: red; }
.edge:hover polygon { stroke: red; fill: red; }
]]></style>
<script type="application/ecmascript" xlink:href="svg.min.js"/>
<svg id="graph" class="graph">
<g id="graph0" class="graph" transform="scale(1 1) rotate(0) translate(4 72)">
<title>hri::SceneNode</title>
<!-- Node1 -->
<g id="Node000001" class="node">
<title>Node1</title>
<g id="a_Node000001"><a xlink:title="A scene node contains references into the scene data arrays.">
<polygon fill="#999999" stroke="none" points="76,-68 0,-68 0,0 76,0 76,-68"/>
<text text-anchor="start" x="4.62" y="-54.5" font-family="Helvetica,sans-Serif" font-size="10.00">hri::SceneNode</text>
<text text-anchor="start" x="10" y="-38.5" font-family="Helvetica,sans-Serif" font-size="10.00">+</text>
<text text-anchor="start" x="26" y="-38.5" font-family="Helvetica,sans-Serif" font-size="10.00">mesh</text>
<text text-anchor="start" x="10" y="-22.5" font-family="Helvetica,sans-Serif" font-size="10.00">+</text>
<text text-anchor="start" x="26" y="-22.5" font-family="Helvetica,sans-Serif" font-size="10.00">material</text>
<text text-anchor="start" x="36.5" y="-6.5" font-family="Helvetica,sans-Serif" font-size="10.00"> </text>
<polygon fill="#666666" stroke="#666666" points="0,-50 0,-50 76,-50 76,-50 0,-50"/>
<polygon fill="#666666" stroke="#666666" points="0,-18 0,-18 24,-18 24,-18 0,-18"/>
<polygon fill="#666666" stroke="#666666" points="24,-18 24,-18 76,-18 76,-18 24,-18"/>
<polygon fill="none" stroke="#666666" points="0,0 0,-68 76,-68 76,0 0,0"/>
</a>
</g>
</g>
</g>
</svg>
</svg>

<style type='text/css'>
<![CDATA[
[data-mouse-over-selected='false'] { opacity: 0.7; }
[data-mouse-over-selected='true']  { opacity: 1.0; }
]]>
</style>
<script type="application/ecmascript"><![CDATA[
document.addEventListener('DOMContentLoaded', (event) => {
  highlightEdges();
  highlightAdjacentNodes();
});
]]></script>
</svg>
