<?xml version="1.0" encoding="UTF-8" standalone="no"?>
<!DOCTYPE svg PUBLIC "-//W3C//DTD SVG 1.1//EN"
 "http://www.w3.org/Graphics/SVG/1.1/DTD/svg11.dtd">
<!-- Generated by graphviz version 10.0.1 (20240210.2158)
 -->
<!-- Title: SceneTransform::modelMatrix Pages: 1 -->
<svg width="357pt" height="28pt"
 viewBox="0.00 0.00 356.75 28.00" xmlns="http://www.w3.org/2000/svg" xmlns:xlink="http://www.w3.org/1999/xlink">
<g id="graph0" class="graph" transform="scale(1 1) rotate(0) translate(4 24)">
<title>SceneTransform::modelMatrix</title>
<!-- Node1 -->
<g id="Node000001" class="node">
<title>Node1</title>
<g id="a_Node000001"><a xlink:title="Create a 4x4 transformation matrix representing the model transfom.">
<polygon fill="#999999" stroke="#666666" points="145.75,-20 0,-20 0,0 145.75,0 145.75,-20"/>
<text text-anchor="middle" x="72.88" y="-6.5" font-family="Helvetica,sans-Serif" font-size="10.00">SceneTransform::modelMatrix</text>
</a>
</g>
</g>
<!-- Node2 -->
<g id="Node000002" class="node">
<title>Node2</title>
<g id="a_Node000002"><a xlink:href="namespacehri.html#acd3a7c0c786cee7eb37afe8bfb309464" target="_top" xlink:title=" ">
<polygon fill="white" stroke="#666666" points="245.75,-20 181.75,-20 181.75,0 245.75,0 245.75,-20"/>
<text text-anchor="middle" x="213.75" y="-6.5" font-family="Helvetica,sans-Serif" font-size="10.00">hri::radians</text>
</a>
</g>
</g>
<!-- Node1&#45;&gt;Node2 -->
<g id="edge1_Node000001_Node000002" class="edge">
<title>Node1&#45;&gt;Node2</title>
<g id="a_edge1_Node000001_Node000002"><a xlink:title=" ">
<path fill="none" stroke="#63b8ff" d="M146.16,-10C154.29,-10 162.37,-10 169.95,-10"/>
<polygon fill="#63b8ff" stroke="#63b8ff" points="169.87,-13.5 179.87,-10 169.87,-6.5 169.87,-13.5"/>
</a>
</g>
</g>
<!-- Node3 -->
<g id="Node000003" class="node">
<title>Node3</title>
<g id="a_Node000003"><a xlink:href="namespacehri.html#a778909c1320f31774fdf25dc126fcb9d" target="_top" xlink:title=" ">
<polygon fill="white" stroke="#666666" points="348.75,-20 281.75,-20 281.75,0 348.75,0 348.75,-20"/>
<text text-anchor="middle" x="315.25" y="-6.5" font-family="Helvetica,sans-Serif" font-size="10.00">hri::degrees</text>
</a>
</g>
</g>
<!-- Node2&#45;&gt;Node3 -->
<g id="edge2_Node000002_Node000003" class="edge">
<title>Node2&#45;&gt;Node3</title>
<g id="a_edge2_Node000002_Node000003"><a xlink:title=" ">
<path fill="none" stroke="#63b8ff" d="M246.23,-3.67C253.73,-3.31 261.87,-3.18 269.83,-3.28"/>
<polygon fill="#63b8ff" stroke="#63b8ff" points="269.65,-6.78 279.74,-3.56 269.84,0.22 269.65,-6.78"/>
</a>
</g>
</g>
<!-- Node3&#45;&gt;Node2 -->
<g id="edge3_Node000003_Node000002" class="edge">
<title>Node3&#45;&gt;Node2</title>
<g id="a_edge3_Node000003_Node000002"><a xlink:title=" ">
<path fill="none" stroke="#63b8ff" d="M281.26,-16.4C273.68,-16.73 265.51,-16.83 257.58,-16.69"/>
<polygon fill="#63b8ff" stroke="#63b8ff" points="257.85,-13.2 247.75,-16.38 257.63,-20.2 257.85,-13.2"/>
</a>
</g>
</g>
</g>
</svg>
