<?xml version="1.0" encoding="UTF-8" standalone="no"?>
<!DOCTYPE svg PUBLIC "-//W3C//DTD SVG 1.1//EN"
 "http://www.w3.org/Graphics/SVG/1.1/DTD/svg11.dtd">
<!-- Generated by graphviz version 10.0.1 (20240210.2158)
 -->
<!-- Title: hri::CameraShaderData Pages: 1 -->
<svg width="167pt" height="116pt"
 viewBox="0.00 0.00 167.00 116.00" xmlns="http://www.w3.org/2000/svg" xmlns:xlink="http://www.w3.org/1999/xlink">
<g id="graph0" class="graph" transform="scale(1 1) rotate(0) translate(4 112)">
<title>hri::CameraShaderData</title>
<!-- Node1 -->
<g id="Node000001" class="node">
<title>Node1</title>
<g id="a_Node000001"><a xlink:title="Shader layout of camera data.">
<polygon fill="#999999" stroke="none" points="159,-108 0,-108 0,0 159,0 159,-108"/>
<text text-anchor="start" x="28.88" y="-94.5" font-family="Helvetica,sans-Serif" font-size="10.00">hri::CameraShaderData</text>
<text text-anchor="start" x="78" y="-78.5" font-family="Helvetica,sans-Serif" font-size="10.00"> </text>
<text text-anchor="start" x="4" y="-62.5" font-family="Helvetica,sans-Serif" font-size="10.00">+</text>
<text text-anchor="start" x="14" y="-62.5" font-family="Helvetica,sans-Serif" font-size="10.00">HRI_ALIGNAS(16) Float3</text>
<text text-anchor="start" x="14" y="-50.5" font-family="Helvetica,sans-Serif" font-size="10.00"> position</text>
<text text-anchor="start" x="4" y="-34.5" font-family="Helvetica,sans-Serif" font-size="10.00">+</text>
<text text-anchor="start" x="14" y="-34.5" font-family="Helvetica,sans-Serif" font-size="10.00">HRI_ALIGNAS(16) Float4x4 view</text>
<text text-anchor="start" x="4" y="-18.5" font-family="Helvetica,sans-Serif" font-size="10.00">+</text>
<text text-anchor="start" x="14" y="-18.5" font-family="Helvetica,sans-Serif" font-size="10.00">HRI_ALIGNAS(16) Float4x4</text>
<text text-anchor="start" x="14" y="-6.5" font-family="Helvetica,sans-Serif" font-size="10.00"> project</text>
<polygon fill="#666666" stroke="#666666" points="0,-90 0,-90 159,-90 159,-90 0,-90"/>
<polygon fill="#666666" stroke="#666666" points="0,-74 0,-74 159,-74 159,-74 0,-74"/>
<polygon fill="none" stroke="#666666" points="0,0 0,-108 159,-108 159,0 0,0"/>
</a>
</g>
</g>
</g>
</svg>
