<?xml version="1.0" encoding="UTF-8" standalone="no"?>
<!DOCTYPE svg PUBLIC "-//W3C//DTD SVG 1.1//EN"
 "http://www.w3.org/Graphics/SVG/1.1/DTD/svg11.dtd">
<!-- Generated by graphviz version 10.0.1 (20240210.2158)
 -->
<!-- Title: SceneParameters Pages: 1 -->
<svg width="96pt" height="76pt"
 viewBox="0.00 0.00 96.00 76.00" xmlns="http://www.w3.org/2000/svg" xmlns:xlink="http://www.w3.org/1999/xlink">
<g id="graph0" class="graph" transform="scale(1 1) rotate(0) translate(4 72)">
<title>SceneParameters</title>
<!-- Node1 -->
<g id="Node000001" class="node">
<title>Node1</title>
<g id="a_Node000001"><a xlink:title="Scene parameters allow modifying LOD selection.">
<polygon fill="#999999" stroke="none" points="88,-68 0,-68 0,0 88,0 88,-68"/>
<text text-anchor="start" x="5" y="-54.5" font-family="Helvetica,sans-Serif" font-size="10.00">SceneParameters</text>
<text text-anchor="start" x="6" y="-38.5" font-family="Helvetica,sans-Serif" font-size="10.00">+</text>
<text text-anchor="start" x="18" y="-38.5" font-family="Helvetica,sans-Serif" font-size="10.00">float nearPoint</text>
<text text-anchor="start" x="6" y="-22.5" font-family="Helvetica,sans-Serif" font-size="10.00">+</text>
<text text-anchor="start" x="18" y="-22.5" font-family="Helvetica,sans-Serif" font-size="10.00">float farPoint</text>
<text text-anchor="start" x="42.5" y="-6.5" font-family="Helvetica,sans-Serif" font-size="10.00"> </text>
<polygon fill="#666666" stroke="#666666" points="0,-50 0,-50 88,-50 88,-50 0,-50"/>
<polygon fill="#666666" stroke="#666666" points="0,-18 0,-18 16,-18 16,-18 0,-18"/>
<polygon fill="#666666" stroke="#666666" points="16,-18 16,-18 88,-18 88,-18 16,-18"/>
<polygon fill="none" stroke="#666666" points="0,0 0,-68 88,-68 88,0 0,0"/>
</a>
</g>
</g>
</g>
</svg>
