<?xml version="1.0" encoding="UTF-8" standalone="no"?>
<!DOCTYPE svg PUBLIC "-//W3C//DTD SVG 1.1//EN"
 "http://www.w3.org/Graphics/SVG/1.1/DTD/svg11.dtd">
<!-- Generated by graphviz version 10.0.1 (20240210.2158)
 -->
<!-- Title: demo/src/subsystems.cpp Pages: 1 -->
<!--zoomable 468 -->

<svg id="main" version="1.1" xmlns="http://www.w3.org/2000/svg" xmlns:xlink="http://www.w3.org/1999/xlink" xml:space="preserve" onload="init(evt)">
<style type="text/css"><![CDATA[
.node, .edge {opacity: 0.7;}
.node.selected, .edge.selected {opacity: 1;}
.edge:hover path { stroke: red; }
.edge:hover polygon { stroke: red; fill: red; }
]]></style>

<defs>
  <circle id="rim" cx="0" cy="0" r="7"/>
  <circle id="rim2" cx="0" cy="0" r="3.5"/>
  <g id="zoomPlus">
    <use xlink:href="#rim" fill="#404040"><set attributeName="fill" to="#808080" begin="zoomplus.mouseover" end="zoomplus.mouseout"/></use>
    <path d="M-4,0h8M0,-4v8" fill="none" stroke="white" stroke-width="1.5" pointer-events="none"/>
  </g>
  <g id="zoomMin">
    <use xlink:href="#rim" fill="#404040"><set attributeName="fill" to="#808080" begin="zoomminus.mouseover" end="zoomminus.mouseout"/></use>
    <path d="M-4,0h8" fill="none" stroke="white" stroke-width="1.5" pointer-events="none"/>
  </g>
  <g id="arrowUp" transform="translate(30 24)">
    <use xlink:href="#rim"/>
    <path pointer-events="none" fill="none" stroke="white" stroke-width="1.5" d="M0,-3.0v7 M-2.5,-0.5L0,-3.0L2.5,-0.5"/>
  </g>
  <g id="arrowRight" transform="rotate(90) translate(36 -43)">
    <use xlink:href="#rim"/>
    <path pointer-events="none" fill="none" stroke="white" stroke-width="1.5" d="M0,-3.0v7 M-2.5,-0.5L0,-3.0L2.5,-0.5"/>
  </g>
  <g id="arrowDown" transform="rotate(180) translate(-30 -48)">
    <use xlink:href="#rim"/>
    <path pointer-events="none" fill="none" stroke="white" stroke-width="1.5" d="M0,-3.0v7 M-2.5,-0.5L0,-3.0L2.5,-0.5"/>
  </g>
  <g id="arrowLeft" transform="rotate(270) translate(-36 17)">
    <use xlink:href="#rim"/>
    <path pointer-events="none" fill="none" stroke="white" stroke-width="1.5" d="M0,-3.0v7 M-2.5,-0.5L0,-3.0L2.5,-0.5"/>
  </g>
  <g id="resetDef">
    <use xlink:href="#rim2" fill="#404040"><set attributeName="fill" to="#808080" begin="reset.mouseover" end="reset.mouseout"/></use>
  </g>
</defs>
<script type="application/ecmascript">
var viewWidth = 1247;
var viewHeight = 468;
var sectionId = 'dynsection-0';
</script>
<script type="application/ecmascript" xlink:href="svg.min.js"/>
<svg id="graph" class="graph">
<g id="viewport">
<title>demo/src/subsystems.cpp</title>
<!-- Node1 -->
<g id="Node000001" class="node">
<title>Node1</title>
<g id="a_Node000001"><a xlink:title=" ">
<polygon fill="#999999" stroke="#666666" points="464.75,-460 333.25,-460 333.25,-440 464.75,-440 464.75,-460"/>
<text text-anchor="middle" x="399" y="-446.5" font-family="Helvetica,sans-Serif" font-size="10.00">demo/src/subsystems.cpp</text>
</a>
</g>
</g>
<!-- Node2 -->
<g id="Node000002" class="node">
<title>Node2</title>
<g id="a_Node000002"><a xlink:href="subsystems_8h.html" target="_top" xlink:title=" ">
<polygon fill="white" stroke="#666666" points="404.75,-404 327.25,-404 327.25,-384 404.75,-384 404.75,-404"/>
<text text-anchor="middle" x="366" y="-390.5" font-family="Helvetica,sans-Serif" font-size="10.00">subsystems.h</text>
</a>
</g>
</g>
<!-- Node1&#45;&gt;Node2 -->
<g id="edge1_Node000001_Node000002" class="edge">
<title>Node1&#45;&gt;Node2</title>
<g id="a_edge1_Node000001_Node000002"><a xlink:title=" ">
<path fill="none" stroke="#63b8ff" d="M393.25,-439.59C388.95,-432.55 382.91,-422.67 377.61,-414"/>
<polygon fill="#63b8ff" stroke="#63b8ff" points="380.67,-412.3 372.47,-405.59 374.7,-415.95 380.67,-412.3"/>
</a>
</g>
</g>
<!-- Node3 -->
<g id="Node000003" class="node">
<title>Node3</title>
<g id="a_Node000003"><a xlink:href="hybrid__renderer_8h.html" target="_top" xlink:title=" ">
<polygon fill="white" stroke="#666666" points="444.5,-348 353.5,-348 353.5,-328 444.5,-328 444.5,-348"/>
<text text-anchor="middle" x="399" y="-334.5" font-family="Helvetica,sans-Serif" font-size="10.00">hybrid_renderer.h</text>
</a>
</g>
</g>
<!-- Node1&#45;&gt;Node3 -->
<g id="edge70_Node000001_Node000003" class="edge">
<title>Node1&#45;&gt;Node3</title>
<g id="a_edge70_Node000001_Node000003"><a xlink:title=" ">
<path fill="none" stroke="#63b8ff" d="M403.14,-439.57C406.82,-430.62 411.94,-416.68 414,-404 416.5,-388.6 412.21,-371.4 407.59,-358.56"/>
<polygon fill="#63b8ff" stroke="#63b8ff" points="410.96,-357.57 404,-349.59 404.46,-360.17 410.96,-357.57"/>
</a>
</g>
</g>
<!-- Node2&#45;&gt;Node3 -->
<g id="edge2_Node000002_Node000003" class="edge">
<title>Node2&#45;&gt;Node3</title>
<g id="a_edge2_Node000002_Node000003"><a xlink:title=" ">
<path fill="none" stroke="#63b8ff" d="M371.75,-383.59C376.05,-376.55 382.09,-366.67 387.39,-358"/>
<polygon fill="#63b8ff" stroke="#63b8ff" points="390.3,-359.95 392.53,-349.59 384.33,-356.3 390.3,-359.95"/>
</a>
</g>
</g>
<!-- Node4 -->
<g id="Node000004" class="node">
<title>Node4</title>
<g id="a_Node000004"><a xlink:href="platform_8h.html" target="_top" xlink:title=" ">
<polygon fill="white" stroke="#666666" points="175.38,-20 116.62,-20 116.62,0 175.38,0 175.38,-20"/>
<text text-anchor="middle" x="146" y="-6.5" font-family="Helvetica,sans-Serif" font-size="10.00">platform.h</text>
</a>
</g>
</g>
<!-- Node3&#45;&gt;Node4 -->
<g id="edge3_Node000003_Node000004" class="edge">
<title>Node3&#45;&gt;Node4</title>
<g id="a_edge3_Node000003_Node000004"><a xlink:title=" ">
<path fill="none" stroke="#63b8ff" d="M353.07,-336.46C268.24,-334.63 91.15,-326.64 42,-292 8.21,-268.19 0,-250.34 0,-209 0,-209 0,-209 0,-139 0,-100.21 0.22,-84.07 27,-56 47.56,-34.45 79.48,-23.12 105.08,-17.22"/>
<polygon fill="#63b8ff" stroke="#63b8ff" points="105.78,-20.65 114.86,-15.18 104.36,-13.79 105.78,-20.65"/>
</a>
</g>
</g>
<!-- Node5 -->
<g id="Node000005" class="node">
<title>Node5</title>
<g id="a_Node000005"><a xlink:href="camera_8h.html" target="_top" xlink:title=" ">
<polygon fill="white" stroke="#666666" points="125.25,-286 68.75,-286 68.75,-266 125.25,-266 125.25,-286"/>
<text text-anchor="middle" x="97" y="-272.5" font-family="Helvetica,sans-Serif" font-size="10.00">camera.h</text>
</a>
</g>
</g>
<!-- Node3&#45;&gt;Node5 -->
<g id="edge4_Node000003_Node000005" class="edge">
<title>Node3&#45;&gt;Node5</title>
<g id="a_edge4_Node000003_Node000005"><a xlink:title=" ">
<path fill="none" stroke="#63b8ff" d="M353.39,-329.58C304.22,-321.35 223.77,-307.21 155,-292 148.97,-290.67 142.62,-289.14 136.42,-287.59"/>
<polygon fill="#63b8ff" stroke="#63b8ff" points="137.54,-284.27 126.99,-285.18 135.81,-291.05 137.54,-284.27"/>
</a>
</g>
</g>
<!-- Node6 -->
<g id="Node000006" class="node">
<title>Node6</title>
<g id="a_Node000006"><a xlink:href="hri__math_8h.html" target="_top" xlink:title=" ">
<polygon fill="white" stroke="#666666" points="112.88,-150 51.12,-150 51.12,-130 112.88,-130 112.88,-150"/>
<text text-anchor="middle" x="82" y="-136.5" font-family="Helvetica,sans-Serif" font-size="10.00">hri_math.h</text>
</a>
</g>
</g>
<!-- Node3&#45;&gt;Node6 -->
<g id="edge8_Node000003_Node000006" class="edge">
<title>Node3&#45;&gt;Node6</title>
<g id="a_edge8_Node000003_Node000006"><a xlink:title=" ">
<path fill="none" stroke="#63b8ff" d="M353,-334.22C264.83,-328.41 79.02,-313.71 60,-292 27.36,-254.74 54.13,-191.37 70.94,-159.9"/>
<polygon fill="#63b8ff" stroke="#63b8ff" points="73.8,-161.95 75.62,-151.51 67.69,-158.54 73.8,-161.95"/>
</a>
</g>
</g>
<!-- Node8 -->
<g id="Node000008" class="node">
<title>Node8</title>
<g id="a_Node000008"><a xlink:href="material_8h.html" target="_top" xlink:title=" ">
<polygon fill="white" stroke="#666666" points="162.38,-218 103.62,-218 103.62,-198 162.38,-198 162.38,-218"/>
<text text-anchor="middle" x="133" y="-204.5" font-family="Helvetica,sans-Serif" font-size="10.00">material.h</text>
</a>
</g>
</g>
<!-- Node3&#45;&gt;Node8 -->
<g id="edge9_Node000003_Node000008" class="edge">
<title>Node3&#45;&gt;Node8</title>
<g id="a_edge9_Node000003_Node000008"><a xlink:title=" ">
<path fill="none" stroke="#63b8ff" d="M353.23,-335.76C309.68,-332.64 243.87,-322.67 196,-292 171.55,-276.34 153,-247.69 142.55,-228.49"/>
<polygon fill="#63b8ff" stroke="#63b8ff" points="145.76,-227.07 138.06,-219.8 139.54,-230.29 145.76,-227.07"/>
</a>
</g>
</g>
<!-- Node9 -->
<g id="Node000009" class="node">
<title>Node9</title>
<g id="a_Node000009"><a xlink:href="mesh_8h.html" target="_top" xlink:title=" ">
<polygon fill="white" stroke="#666666" points="229.12,-218 180.88,-218 180.88,-198 229.12,-198 229.12,-218"/>
<text text-anchor="middle" x="205" y="-204.5" font-family="Helvetica,sans-Serif" font-size="10.00">mesh.h</text>
</a>
</g>
</g>
<!-- Node3&#45;&gt;Node9 -->
<g id="edge12_Node000003_Node000009" class="edge">
<title>Node3&#45;&gt;Node9</title>
<g id="a_edge12_Node000003_Node000009"><a xlink:title=" ">
<path fill="none" stroke="#63b8ff" d="M376.57,-327.57C357.69,-319.24 330.28,-306.24 308,-292 291.1,-281.2 249.31,-246.49 224.46,-225.53"/>
<polygon fill="#63b8ff" stroke="#63b8ff" points="226.9,-223.02 217.01,-219.23 222.38,-228.36 226.9,-223.02"/>
</a>
</g>
</g>
<!-- Node12 -->
<g id="Node000012" class="node">
<title>Node12</title>
<g id="a_Node000012"><a xlink:href="scene_8h.html" target="_top" xlink:title=" ">
<polygon fill="white" stroke="#666666" points="255.25,-286 204.75,-286 204.75,-266 255.25,-266 255.25,-286"/>
<text text-anchor="middle" x="230" y="-272.5" font-family="Helvetica,sans-Serif" font-size="10.00">scene.h</text>
</a>
</g>
</g>
<!-- Node3&#45;&gt;Node12 -->
<g id="edge16_Node000003_Node000012" class="edge">
<title>Node3&#45;&gt;Node12</title>
<g id="a_edge16_Node000003_Node000012"><a xlink:title=" ">
<path fill="none" stroke="#63b8ff" d="M372.59,-327.62C344.03,-317.48 298.29,-301.25 266.34,-289.9"/>
<polygon fill="#63b8ff" stroke="#63b8ff" points="267.69,-286.67 257.09,-286.62 265.35,-293.26 267.69,-286.67"/>
</a>
</g>
</g>
<!-- Node13 -->
<g id="Node000013" class="node">
<title>Node13</title>
<g id="a_Node000013"><a xlink:href="texture_8h.html" target="_top" xlink:title=" ">
<polygon fill="white" stroke="#666666" points="371.12,-286 316.88,-286 316.88,-266 371.12,-266 371.12,-286"/>
<text text-anchor="middle" x="344" y="-272.5" font-family="Helvetica,sans-Serif" font-size="10.00">texture.h</text>
</a>
</g>
</g>
<!-- Node3&#45;&gt;Node13 -->
<g id="edge20_Node000003_Node000013" class="edge">
<title>Node3&#45;&gt;Node13</title>
<g id="a_edge20_Node000003_Node000013"><a xlink:title=" ">
<path fill="none" stroke="#63b8ff" d="M390.41,-327.62C382.29,-318.77 369.91,-305.26 359.97,-294.43"/>
<polygon fill="#63b8ff" stroke="#63b8ff" points="362.71,-292.23 353.38,-287.23 357.55,-296.97 362.71,-292.23"/>
</a>
</g>
</g>
<!-- Node15 -->
<g id="Node000015" class="node">
<title>Node15</title>
<g id="a_Node000015"><a xlink:href="buffer_8h.html" target="_top" xlink:title=" ">
<polygon fill="white" stroke="#666666" points="883.25,-150 760.75,-150 760.75,-130 883.25,-130 883.25,-150"/>
<text text-anchor="middle" x="822" y="-136.5" font-family="Helvetica,sans-Serif" font-size="10.00">renderer_internal/buffer.h</text>
</a>
</g>
</g>
<!-- Node3&#45;&gt;Node15 -->
<g id="edge23_Node000003_Node000015" class="edge">
<title>Node3&#45;&gt;Node15</title>
<g id="a_edge23_Node000003_Node000015"><a xlink:title=" ">
<path fill="none" stroke="#63b8ff" d="M444.99,-333.16C513.46,-326.84 638.38,-312.85 678,-292 738.74,-260.03 788.46,-192.65 810.19,-159.81"/>
<polygon fill="#63b8ff" stroke="#63b8ff" points="812.93,-162.01 815.42,-151.71 807.05,-158.21 812.93,-162.01"/>
</a>
</g>
</g>
<!-- Node18 -->
<g id="Node000018" class="node">
<title>Node18</title>
<g id="a_Node000018"><a xlink:href="render__context_8h.html" target="_top" xlink:title=" ">
<polygon fill="white" stroke="#666666" points="659,-88 541,-88 541,-56 659,-56 659,-88"/>
<text text-anchor="start" x="549" y="-74.5" font-family="Helvetica,sans-Serif" font-size="10.00">renderer_internal/render</text>
<text text-anchor="middle" x="600" y="-62.5" font-family="Helvetica,sans-Serif" font-size="10.00">_context.h</text>
</a>
</g>
</g>
<!-- Node3&#45;&gt;Node18 -->
<g id="edge41_Node000003_Node000018" class="edge">
<title>Node3&#45;&gt;Node18</title>
<g id="a_edge41_Node000003_Node000018"><a xlink:title=" ">
<path fill="none" stroke="#63b8ff" d="M406.15,-327.6C434.38,-290.53 538.58,-153.67 581.42,-97.4"/>
<polygon fill="#63b8ff" stroke="#63b8ff" points="584.03,-99.76 587.3,-89.68 578.46,-95.52 584.03,-99.76"/>
</a>
</g>
</g>
<!-- Node22 -->
<g id="Node000022" class="node">
<title>Node22</title>
<g id="a_Node000022"><a xlink:href="descriptor__management_8h.html" target="_top" xlink:title=" ">
<polygon fill="white" stroke="#666666" points="1206.88,-156 1073.12,-156 1073.12,-124 1206.88,-124 1206.88,-156"/>
<text text-anchor="start" x="1081.12" y="-142.5" font-family="Helvetica,sans-Serif" font-size="10.00">renderer_internal/descriptor</text>
<text text-anchor="middle" x="1140" y="-130.5" font-family="Helvetica,sans-Serif" font-size="10.00">_management.h</text>
</a>
</g>
</g>
<!-- Node3&#45;&gt;Node22 -->
<g id="edge33_Node000003_Node000022" class="edge">
<title>Node3&#45;&gt;Node22</title>
<g id="a_edge33_Node000003_Node000022"><a xlink:title=" ">
<path fill="none" stroke="#63b8ff" d="M444.87,-336.89C590.54,-336.14 1036.05,-330.67 1087,-292 1126,-262.4 1136.42,-202 1139.13,-167.23"/>
<polygon fill="#63b8ff" stroke="#63b8ff" points="1142.6,-167.79 1139.71,-157.6 1135.61,-167.37 1142.6,-167.79"/>
</a>
</g>
</g>
<!-- Node24 -->
<g id="Node000024" class="node">
<title>Node24</title>
<g id="a_Node000024"><a xlink:href="image_8h.html" target="_top" xlink:title=" ">
<polygon fill="white" stroke="#666666" points="742.75,-150 617.25,-150 617.25,-130 742.75,-130 742.75,-150"/>
<text text-anchor="middle" x="680" y="-136.5" font-family="Helvetica,sans-Serif" font-size="10.00">renderer_internal/image.h</text>
</a>
</g>
</g>
<!-- Node3&#45;&gt;Node24 -->
<g id="edge37_Node000003_Node000024" class="edge">
<title>Node3&#45;&gt;Node24</title>
<g id="a_edge37_Node000003_Node000024"><a xlink:title=" ">
<path fill="none" stroke="#63b8ff" d="M444.92,-335.13C510.51,-331.47 626.31,-320.98 655,-292 689.5,-257.16 687.25,-194.1 683.31,-161.6"/>
<polygon fill="#63b8ff" stroke="#63b8ff" points="686.81,-161.32 681.94,-151.91 679.87,-162.3 686.81,-161.32"/>
</a>
</g>
</g>
<!-- Node25 -->
<g id="Node000025" class="node">
<title>Node25</title>
<g id="a_Node000025"><a xlink:href="render__core_8h.html" target="_top" xlink:title=" ">
<polygon fill="white" stroke="#666666" points="447,-156 329,-156 329,-124 447,-124 447,-156"/>
<text text-anchor="start" x="337" y="-142.5" font-family="Helvetica,sans-Serif" font-size="10.00">renderer_internal/render</text>
<text text-anchor="middle" x="388" y="-130.5" font-family="Helvetica,sans-Serif" font-size="10.00">_core.h</text>
</a>
</g>
</g>
<!-- Node3&#45;&gt;Node25 -->
<g id="edge42_Node000003_Node000025" class="edge">
<title>Node3&#45;&gt;Node25</title>
<g id="a_edge42_Node000003_Node000025"><a xlink:title=" ">
<path fill="none" stroke="#63b8ff" d="M398.47,-327.55C396.86,-298.82 391.97,-211.81 389.49,-167.52"/>
<polygon fill="#63b8ff" stroke="#63b8ff" points="393,-167.54 388.94,-157.76 386.01,-167.94 393,-167.54"/>
</a>
</g>
</g>
<!-- Node26 -->
<g id="Node000026" class="node">
<title>Node26</title>
<g id="a_Node000026"><a xlink:href="render__pass_8h.html" target="_top" xlink:title=" ">
<polygon fill="white" stroke="#666666" points="646,-292 528,-292 528,-260 646,-260 646,-292"/>
<text text-anchor="start" x="536" y="-278.5" font-family="Helvetica,sans-Serif" font-size="10.00">renderer_internal/render</text>
<text text-anchor="middle" x="587" y="-266.5" font-family="Helvetica,sans-Serif" font-size="10.00">_pass.h</text>
</a>
</g>
</g>
<!-- Node3&#45;&gt;Node26 -->
<g id="edge47_Node000003_Node000026" class="edge">
<title>Node3&#45;&gt;Node26</title>
<g id="a_edge47_Node000003_Node000026"><a xlink:title=" ">
<path fill="none" stroke="#63b8ff" d="M428.38,-327.62C454.82,-319.19 494.49,-306.53 527.54,-295.98"/>
<polygon fill="#63b8ff" stroke="#63b8ff" points="528.56,-299.33 537.02,-292.95 526.43,-292.66 528.56,-299.33"/>
</a>
</g>
</g>
<!-- Node28 -->
<g id="Node000028" class="node">
<title>Node28</title>
<g id="a_Node000028"><a xlink:href="shader__database_8h.html" target="_top" xlink:title=" ">
<polygon fill="white" stroke="#666666" points="1007.12,-224 886.88,-224 886.88,-192 1007.12,-192 1007.12,-224"/>
<text text-anchor="start" x="894.88" y="-210.5" font-family="Helvetica,sans-Serif" font-size="10.00">renderer_internal/shader</text>
<text text-anchor="middle" x="947" y="-198.5" font-family="Helvetica,sans-Serif" font-size="10.00">_database.h</text>
</a>
</g>
</g>
<!-- Node3&#45;&gt;Node28 -->
<g id="edge69_Node000003_Node000028" class="edge">
<title>Node3&#45;&gt;Node28</title>
<g id="a_edge69_Node000003_Node000028"><a xlink:title=" ">
<path fill="none" stroke="#63b8ff" d="M444.76,-336.34C546.4,-334.26 787.74,-325.81 861,-292 889.17,-279 913.77,-252.87 929.37,-233.38"/>
<polygon fill="#63b8ff" stroke="#63b8ff" points="932.01,-235.69 935.35,-225.63 926.47,-231.41 932.01,-235.69"/>
</a>
</g>
</g>
<!-- Node30 -->
<g id="Node000030" class="node">
<title>Node30</title>
<g id="a_Node000030"><a xlink:href="render__system_8h.html" target="_top" xlink:title=" ">
<polygon fill="white" stroke="#666666" points="1078,-292 960,-292 960,-260 1078,-260 1078,-292"/>
<text text-anchor="start" x="968" y="-278.5" font-family="Helvetica,sans-Serif" font-size="10.00">renderer_internal/render</text>
<text text-anchor="middle" x="1019" y="-266.5" font-family="Helvetica,sans-Serif" font-size="10.00">_system.h</text>
</a>
</g>
</g>
<!-- Node3&#45;&gt;Node30 -->
<g id="edge61_Node000003_Node000030" class="edge">
<title>Node3&#45;&gt;Node30</title>
<g id="a_edge61_Node000003_Node000030"><a xlink:title=" ">
<path fill="none" stroke="#63b8ff" d="M444.95,-334.39C537.16,-328.86 751.24,-314.6 930,-292 936.02,-291.24 942.26,-290.36 948.52,-289.43"/>
<polygon fill="#63b8ff" stroke="#63b8ff" points="948.9,-292.91 958.24,-287.92 947.82,-285.99 948.9,-292.91"/>
</a>
</g>
</g>
<!-- Node5&#45;&gt;Node6 -->
<g id="edge5_Node000005_Node000006" class="edge">
<title>Node5&#45;&gt;Node6</title>
<g id="a_edge5_Node000005_Node000006"><a xlink:title=" ">
<path fill="none" stroke="#63b8ff" d="M95.97,-265.79C93.58,-244.47 87.63,-191.27 84.31,-161.68"/>
<polygon fill="#63b8ff" stroke="#63b8ff" points="87.8,-161.33 83.21,-151.78 80.84,-162.11 87.8,-161.33"/>
</a>
</g>
</g>
<!-- Node6&#45;&gt;Node4 -->
<g id="edge7_Node000006_Node000004" class="edge">
<title>Node6&#45;&gt;Node4</title>
<g id="a_edge7_Node000006_Node000004"><a xlink:title=" ">
<path fill="none" stroke="#63b8ff" d="M86.6,-129.79C96.93,-109.14 122.14,-58.71 136.17,-30.65"/>
<polygon fill="#63b8ff" stroke="#63b8ff" points="139.25,-32.33 140.59,-21.82 132.99,-29.2 139.25,-32.33"/>
</a>
</g>
</g>
<!-- Node7 -->
<g id="Node000007" class="node">
<title>Node7</title>
<g id="a_Node000007"><a xlink:title=" ">
<polygon fill="#e0e0e0" stroke="#999999" points="79.5,-82 36.5,-82 36.5,-62 79.5,-62 79.5,-82"/>
<text text-anchor="middle" x="58" y="-68.5" font-family="Helvetica,sans-Serif" font-size="10.00">cmath</text>
</a>
</g>
</g>
<!-- Node6&#45;&gt;Node7 -->
<g id="edge6_Node000006_Node000007" class="edge">
<title>Node6&#45;&gt;Node7</title>
<g id="a_edge6_Node000006_Node000007"><a xlink:title=" ">
<path fill="none" stroke="#63b8ff" d="M78.56,-129.54C75.1,-120.04 69.67,-105.09 65.25,-92.95"/>
<polygon fill="#63b8ff" stroke="#63b8ff" points="68.66,-92.06 61.95,-83.86 62.08,-94.46 68.66,-92.06"/>
</a>
</g>
</g>
<!-- Node8&#45;&gt;Node4 -->
<g id="edge10_Node000008_Node000004" class="edge">
<title>Node8&#45;&gt;Node4</title>
<g id="a_edge10_Node000008_Node000004"><a xlink:title=" ">
<path fill="none" stroke="#63b8ff" d="M133.63,-197.55C135.62,-167.47 141.85,-73.52 144.64,-31.58"/>
<polygon fill="#63b8ff" stroke="#63b8ff" points="148.11,-32.08 145.28,-21.87 141.12,-31.62 148.11,-32.08"/>
</a>
</g>
</g>
<!-- Node8&#45;&gt;Node6 -->
<g id="edge11_Node000008_Node000006" class="edge">
<title>Node8&#45;&gt;Node6</title>
<g id="a_edge11_Node000008_Node000006"><a xlink:title=" ">
<path fill="none" stroke="#63b8ff" d="M125.69,-197.54C118.04,-187.64 105.83,-171.84 96.27,-159.46"/>
<polygon fill="#63b8ff" stroke="#63b8ff" points="99.1,-157.41 90.22,-151.64 93.56,-161.69 99.1,-157.41"/>
</a>
</g>
</g>
<!-- Node9&#45;&gt;Node6 -->
<g id="edge15_Node000009_Node000006" class="edge">
<title>Node9&#45;&gt;Node6</title>
<g id="a_edge15_Node000009_Node000006"><a xlink:title=" ">
<path fill="none" stroke="#63b8ff" d="M187.38,-197.54C167.01,-186.61 133.24,-168.5 109.43,-155.72"/>
<polygon fill="#63b8ff" stroke="#63b8ff" points="111.39,-152.8 100.92,-151.15 108.08,-158.97 111.39,-152.8"/>
</a>
</g>
</g>
<!-- Node10 -->
<g id="Node000010" class="node">
<title>Node10</title>
<g id="a_Node000010"><a xlink:title=" ">
<polygon fill="#e0e0e0" stroke="#999999" points="233.62,-150 188.38,-150 188.38,-130 233.62,-130 233.62,-150"/>
<text text-anchor="middle" x="211" y="-136.5" font-family="Helvetica,sans-Serif" font-size="10.00">cstdint</text>
</a>
</g>
</g>
<!-- Node9&#45;&gt;Node10 -->
<g id="edge13_Node000009_Node000010" class="edge">
<title>Node9&#45;&gt;Node10</title>
<g id="a_edge13_Node000009_Node000010"><a xlink:title=" ">
<path fill="none" stroke="#63b8ff" d="M205.86,-197.54C206.71,-188.23 208.03,-173.7 209.12,-161.7"/>
<polygon fill="#63b8ff" stroke="#63b8ff" points="212.59,-162.22 210,-151.95 205.61,-161.59 212.59,-162.22"/>
</a>
</g>
</g>
<!-- Node11 -->
<g id="Node000011" class="node">
<title>Node11</title>
<g id="a_Node000011"><a xlink:title=" ">
<polygon fill="#e0e0e0" stroke="#999999" points="298.75,-150 257.25,-150 257.25,-130 298.75,-130 298.75,-150"/>
<text text-anchor="middle" x="278" y="-136.5" font-family="Helvetica,sans-Serif" font-size="10.00">vector</text>
</a>
</g>
</g>
<!-- Node9&#45;&gt;Node11 -->
<g id="edge14_Node000009_Node000011" class="edge">
<title>Node9&#45;&gt;Node11</title>
<g id="a_edge14_Node000009_Node000011"><a xlink:title=" ">
<path fill="none" stroke="#63b8ff" d="M215.46,-197.54C226.84,-187.25 245.28,-170.58 259.19,-158.01"/>
<polygon fill="#63b8ff" stroke="#63b8ff" points="261.37,-160.76 266.44,-151.45 256.67,-155.56 261.37,-160.76"/>
</a>
</g>
</g>
<!-- Node12&#45;&gt;Node8 -->
<g id="edge18_Node000012_Node000008" class="edge">
<title>Node12&#45;&gt;Node8</title>
<g id="a_edge18_Node000012_Node000008"><a xlink:title=" ">
<path fill="none" stroke="#63b8ff" d="M216.1,-265.54C200.47,-254.91 174.84,-237.47 156.17,-224.76"/>
<polygon fill="#63b8ff" stroke="#63b8ff" points="158.36,-222.02 148.12,-219.29 154.42,-227.81 158.36,-222.02"/>
</a>
</g>
</g>
<!-- Node12&#45;&gt;Node9 -->
<g id="edge19_Node000012_Node000009" class="edge">
<title>Node12&#45;&gt;Node9</title>
<g id="a_edge19_Node000012_Node000009"><a xlink:title=" ">
<path fill="none" stroke="#63b8ff" d="M226.42,-265.54C222.82,-256.04 217.15,-241.09 212.56,-228.95"/>
<polygon fill="#63b8ff" stroke="#63b8ff" points="215.93,-227.97 209.11,-219.85 209.38,-230.45 215.93,-227.97"/>
</a>
</g>
</g>
<!-- Node12&#45;&gt;Node11 -->
<g id="edge17_Node000012_Node000011" class="edge">
<title>Node12&#45;&gt;Node11</title>
<g id="a_edge17_Node000012_Node000011"><a xlink:title=" ">
<path fill="none" stroke="#63b8ff" d="M233.3,-265.79C241.01,-244.27 260.34,-190.31 270.88,-160.89"/>
<polygon fill="#63b8ff" stroke="#63b8ff" points="274.09,-162.29 274.17,-151.7 267.5,-159.93 274.09,-162.29"/>
</a>
</g>
</g>
<!-- Node13&#45;&gt;Node10 -->
<g id="edge22_Node000013_Node000010" class="edge">
<title>Node13&#45;&gt;Node10</title>
<g id="a_edge22_Node000013_Node000010"><a xlink:title=" ">
<path fill="none" stroke="#63b8ff" d="M334.86,-265.79C312.84,-243.6 256.58,-186.92 228.09,-158.22"/>
<polygon fill="#63b8ff" stroke="#63b8ff" points="230.8,-155.98 221.27,-151.35 225.83,-160.91 230.8,-155.98"/>
</a>
</g>
</g>
<!-- Node14 -->
<g id="Node000014" class="node">
<title>Node14</title>
<g id="a_Node000014"><a xlink:title=" ">
<polygon fill="#e0e0e0" stroke="#999999" points="370.75,-218 323.25,-218 323.25,-198 370.75,-198 370.75,-218"/>
<text text-anchor="middle" x="347" y="-204.5" font-family="Helvetica,sans-Serif" font-size="10.00">cstddef</text>
</a>
</g>
</g>
<!-- Node13&#45;&gt;Node14 -->
<g id="edge21_Node000013_Node000014" class="edge">
<title>Node13&#45;&gt;Node14</title>
<g id="a_edge21_Node000013_Node000014"><a xlink:title=" ">
<path fill="none" stroke="#63b8ff" d="M344.43,-265.54C344.85,-256.23 345.51,-241.7 346.06,-229.7"/>
<polygon fill="#63b8ff" stroke="#63b8ff" points="349.54,-230.1 346.5,-219.95 342.55,-229.78 349.54,-230.1"/>
</a>
</g>
</g>
<!-- Node16 -->
<g id="Node000016" class="node">
<title>Node16</title>
<g id="a_Node000016"><a xlink:title=" ">
<polygon fill="#e0e0e0" stroke="#999999" points="729.88,-20 644.12,-20 644.12,0 729.88,0 729.88,-20"/>
<text text-anchor="middle" x="687" y="-6.5" font-family="Helvetica,sans-Serif" font-size="10.00">vk_mem_alloc.h</text>
</a>
</g>
</g>
<!-- Node15&#45;&gt;Node16 -->
<g id="edge24_Node000015_Node000016" class="edge">
<title>Node15&#45;&gt;Node16</title>
<g id="a_edge24_Node000015_Node000016"><a xlink:title=" ">
<path fill="none" stroke="#63b8ff" d="M812.29,-129.79C789.83,-108.5 733.98,-55.55 705.04,-28.1"/>
<polygon fill="#63b8ff" stroke="#63b8ff" points="707.75,-25.85 698.08,-21.51 702.93,-30.93 707.75,-25.85"/>
</a>
</g>
</g>
<!-- Node17 -->
<g id="Node000017" class="node">
<title>Node17</title>
<g id="a_Node000017"><a xlink:title=" ">
<polygon fill="#e0e0e0" stroke="#999999" points="951.62,-20 870.38,-20 870.38,0 951.62,0 951.62,-20"/>
<text text-anchor="middle" x="911" y="-6.5" font-family="Helvetica,sans-Serif" font-size="10.00">vulkan/vulkan.h</text>
</a>
</g>
</g>
<!-- Node15&#45;&gt;Node17 -->
<g id="edge25_Node000015_Node000017" class="edge">
<title>Node15&#45;&gt;Node17</title>
<g id="a_edge25_Node000015_Node000017"><a xlink:title=" ">
<path fill="none" stroke="#63b8ff" d="M828.4,-129.79C842.89,-108.95 878.45,-57.81 897.85,-29.91"/>
<polygon fill="#63b8ff" stroke="#63b8ff" points="900.72,-31.92 903.55,-21.71 894.97,-27.92 900.72,-31.92"/>
</a>
</g>
</g>
<!-- Node15&#45;&gt;Node18 -->
<g id="edge26_Node000015_Node000018" class="edge">
<title>Node15&#45;&gt;Node18</title>
<g id="a_edge26_Node000015_Node000018"><a xlink:title=" ">
<path fill="none" stroke="#63b8ff" d="M790.19,-129.54C757.07,-119.7 704.3,-104.01 662.74,-91.65"/>
<polygon fill="#63b8ff" stroke="#63b8ff" points="663.93,-88.35 653.34,-88.86 661.93,-95.06 663.93,-88.35"/>
</a>
</g>
</g>
<!-- Node18&#45;&gt;Node4 -->
<g id="edge28_Node000018_Node000004" class="edge">
<title>Node18&#45;&gt;Node4</title>
<g id="a_edge28_Node000018_Node000004"><a xlink:title=" ">
<path fill="none" stroke="#63b8ff" d="M540.65,-63.16C447.06,-50.79 267.59,-27.07 186.98,-16.42"/>
<polygon fill="#63b8ff" stroke="#63b8ff" points="187.7,-12.98 177.32,-15.14 186.78,-19.92 187.7,-12.98"/>
</a>
</g>
</g>
<!-- Node18&#45;&gt;Node16 -->
<g id="edge31_Node000018_Node000016" class="edge">
<title>Node18&#45;&gt;Node16</title>
<g id="a_edge31_Node000018_Node000016"><a xlink:title=" ">
<path fill="none" stroke="#63b8ff" d="M622.4,-55.55C635.24,-46.69 651.32,-35.61 664.22,-26.71"/>
<polygon fill="#63b8ff" stroke="#63b8ff" points="665.87,-29.83 672.11,-21.27 661.89,-24.06 665.87,-29.83"/>
</a>
</g>
</g>
<!-- Node18&#45;&gt;Node17 -->
<g id="edge32_Node000018_Node000017" class="edge">
<title>Node18&#45;&gt;Node17</title>
<g id="a_edge32_Node000018_Node000017"><a xlink:title=" ">
<path fill="none" stroke="#63b8ff" d="M659.23,-59.57C716.98,-48.43 803.94,-31.65 859.06,-21.02"/>
<polygon fill="#63b8ff" stroke="#63b8ff" points="859.68,-24.47 868.83,-19.13 858.35,-17.59 859.68,-24.47"/>
</a>
</g>
</g>
<!-- Node19 -->
<g id="Node000019" class="node">
<title>Node19</title>
<g id="a_Node000019"><a xlink:href="config_8h.html" target="_top" xlink:title=" ">
<polygon fill="white" stroke="#666666" points="518.88,-20 469.12,-20 469.12,0 518.88,0 518.88,-20"/>
<text text-anchor="middle" x="494" y="-6.5" font-family="Helvetica,sans-Serif" font-size="10.00">config.h</text>
</a>
</g>
</g>
<!-- Node18&#45;&gt;Node19 -->
<g id="edge27_Node000018_Node000019" class="edge">
<title>Node18&#45;&gt;Node19</title>
<g id="a_edge27_Node000018_Node000019"><a xlink:title=" ">
<path fill="none" stroke="#63b8ff" d="M572.7,-55.55C556.6,-46.43 536.32,-34.96 520.38,-25.93"/>
<polygon fill="#63b8ff" stroke="#63b8ff" points="522.36,-23.03 511.94,-21.15 518.92,-29.13 522.36,-23.03"/>
</a>
</g>
</g>
<!-- Node20 -->
<g id="Node000020" class="node">
<title>Node20</title>
<g id="a_Node000020"><a xlink:title=" ">
<polygon fill="#e0e0e0" stroke="#999999" points="428.62,-20 371.38,-20 371.38,0 428.62,0 428.62,-20"/>
<text text-anchor="middle" x="400" y="-6.5" font-family="Helvetica,sans-Serif" font-size="10.00">functional</text>
</a>
</g>
</g>
<!-- Node18&#45;&gt;Node20 -->
<g id="edge29_Node000018_Node000020" class="edge">
<title>Node18&#45;&gt;Node20</title>
<g id="a_edge29_Node000018_Node000020"><a xlink:title=" ">
<path fill="none" stroke="#63b8ff" d="M548.5,-55.55C514.68,-45.41 471.12,-32.33 439.93,-22.98"/>
<polygon fill="#63b8ff" stroke="#63b8ff" points="441.08,-19.67 430.49,-20.15 439.06,-26.37 441.08,-19.67"/>
</a>
</g>
</g>
<!-- Node21 -->
<g id="Node000021" class="node">
<title>Node21</title>
<g id="a_Node000021"><a xlink:title=" ">
<polygon fill="#e0e0e0" stroke="#999999" points="626.12,-20 547.88,-20 547.88,0 626.12,0 626.12,-20"/>
<text text-anchor="middle" x="587" y="-6.5" font-family="Helvetica,sans-Serif" font-size="10.00">VkBootstrap.h</text>
</a>
</g>
</g>
<!-- Node18&#45;&gt;Node21 -->
<g id="edge30_Node000018_Node000021" class="edge">
<title>Node18&#45;&gt;Node21</title>
<g id="a_edge30_Node000018_Node000021"><a xlink:title=" ">
<path fill="none" stroke="#63b8ff" d="M596.65,-55.55C595.07,-48.26 593.16,-39.45 591.46,-31.6"/>
<polygon fill="#63b8ff" stroke="#63b8ff" points="594.9,-30.92 589.36,-21.89 588.06,-32.4 594.9,-30.92"/>
</a>
</g>
</g>
<!-- Node22&#45;&gt;Node17 -->
<g id="edge35_Node000022_Node000017" class="edge">
<title>Node22&#45;&gt;Node17</title>
<g id="a_edge35_Node000022_Node000017"><a xlink:title=" ">
<path fill="none" stroke="#63b8ff" d="M1141.05,-123.82C1141.46,-105.18 1139.1,-73.85 1121,-56 1099.06,-34.37 1017.95,-21.91 963.19,-15.8"/>
<polygon fill="#63b8ff" stroke="#63b8ff" points="963.76,-12.34 953.44,-14.75 963.01,-19.3 963.76,-12.34"/>
</a>
</g>
</g>
<!-- Node22&#45;&gt;Node18 -->
<g id="edge36_Node000022_Node000018" class="edge">
<title>Node22&#45;&gt;Node18</title>
<g id="a_edge36_Node000022_Node000018"><a xlink:title=" ">
<path fill="none" stroke="#63b8ff" d="M1072.92,-125.44C1069.91,-124.93 1066.92,-124.45 1064,-124 925.15,-102.71 761.6,-86.87 670.46,-78.86"/>
<polygon fill="#63b8ff" stroke="#63b8ff" points="670.95,-75.39 660.68,-78.01 670.34,-82.36 670.95,-75.39"/>
</a>
</g>
</g>
<!-- Node23 -->
<g id="Node000023" class="node">
<title>Node23</title>
<g id="a_Node000023"><a xlink:title=" ">
<polygon fill="#e0e0e0" stroke="#999999" points="1112.38,-82 1077.62,-82 1077.62,-62 1112.38,-62 1112.38,-82"/>
<text text-anchor="middle" x="1095" y="-68.5" font-family="Helvetica,sans-Serif" font-size="10.00">map</text>
</a>
</g>
</g>
<!-- Node22&#45;&gt;Node23 -->
<g id="edge34_Node000022_Node000023" class="edge">
<title>Node22&#45;&gt;Node23</title>
<g id="a_edge34_Node000022_Node000023"><a xlink:title=" ">
<path fill="none" stroke="#63b8ff" d="M1129.56,-123.69C1123.02,-114.1 1114.55,-101.67 1107.62,-91.52"/>
<polygon fill="#63b8ff" stroke="#63b8ff" points="1110.73,-89.86 1102.2,-83.57 1104.95,-93.8 1110.73,-89.86"/>
</a>
</g>
</g>
<!-- Node24&#45;&gt;Node16 -->
<g id="edge38_Node000024_Node000016" class="edge">
<title>Node24&#45;&gt;Node16</title>
<g id="a_edge38_Node000024_Node000016"><a xlink:title=" ">
<path fill="none" stroke="#63b8ff" d="M680.5,-129.79C681.62,-109.41 684.32,-60.05 685.86,-31.79"/>
<polygon fill="#63b8ff" stroke="#63b8ff" points="689.35,-32.15 686.4,-21.98 682.36,-31.77 689.35,-32.15"/>
</a>
</g>
</g>
<!-- Node24&#45;&gt;Node17 -->
<g id="edge39_Node000024_Node000017" class="edge">
<title>Node24&#45;&gt;Node17</title>
<g id="a_edge39_Node000024_Node000017"><a xlink:title=" ">
<path fill="none" stroke="#63b8ff" d="M696.99,-129.59C736.7,-107.58 835.9,-52.61 884,-25.96"/>
<polygon fill="#63b8ff" stroke="#63b8ff" points="885.61,-29.07 892.67,-21.16 882.22,-22.94 885.61,-29.07"/>
</a>
</g>
</g>
<!-- Node24&#45;&gt;Node18 -->
<g id="edge40_Node000024_Node000018" class="edge">
<title>Node24&#45;&gt;Node18</title>
<g id="a_edge40_Node000024_Node000018"><a xlink:title=" ">
<path fill="none" stroke="#63b8ff" d="M668.54,-129.54C657.83,-120.71 641.44,-107.19 627.37,-95.58"/>
<polygon fill="#63b8ff" stroke="#63b8ff" points="629.66,-92.93 619.71,-89.26 625.2,-98.33 629.66,-92.93"/>
</a>
</g>
</g>
<!-- Node25&#45;&gt;Node4 -->
<g id="edge45_Node000025_Node000004" class="edge">
<title>Node25&#45;&gt;Node4</title>
<g id="a_edge45_Node000025_Node000004"><a xlink:title=" ">
<path fill="none" stroke="#63b8ff" d="M358.81,-123.56C311.81,-98.7 219.97,-50.13 173.84,-25.73"/>
<polygon fill="#63b8ff" stroke="#63b8ff" points="175.75,-22.78 165.28,-21.2 172.48,-28.97 175.75,-22.78"/>
</a>
</g>
</g>
<!-- Node25&#45;&gt;Node18 -->
<g id="edge46_Node000025_Node000018" class="edge">
<title>Node25&#45;&gt;Node18</title>
<g id="a_edge46_Node000025_Node000018"><a xlink:title=" ">
<path fill="none" stroke="#63b8ff" d="M437.7,-123.53C468.16,-114.04 507.36,-101.84 539.6,-91.81"/>
<polygon fill="#63b8ff" stroke="#63b8ff" points="540.29,-95.26 548.79,-88.94 538.21,-88.57 540.29,-95.26"/>
</a>
</g>
</g>
<!-- Node25&#45;&gt;Node19 -->
<g id="edge44_Node000025_Node000019" class="edge">
<title>Node25&#45;&gt;Node19</title>
<g id="a_edge44_Node000025_Node000019"><a xlink:title=" ">
<path fill="none" stroke="#63b8ff" d="M400.79,-123.56C420.51,-99.74 458.27,-54.15 479.17,-28.91"/>
<polygon fill="#63b8ff" stroke="#63b8ff" points="481.63,-31.43 485.31,-21.49 476.24,-26.96 481.63,-31.43"/>
</a>
</g>
</g>
<!-- Node25&#45;&gt;Node20 -->
<g id="edge43_Node000025_Node000020" class="edge">
<title>Node25&#45;&gt;Node20</title>
<g id="a_edge43_Node000025_Node000020"><a xlink:title=" ">
<path fill="none" stroke="#63b8ff" d="M389.45,-123.56C391.6,-100.58 395.66,-57.34 398.06,-31.66"/>
<polygon fill="#63b8ff" stroke="#63b8ff" points="401.54,-32.12 398.98,-21.83 394.57,-31.46 401.54,-32.12"/>
</a>
</g>
</g>
<!-- Node26&#45;&gt;Node11 -->
<g id="edge49_Node000026_Node000011" class="edge">
<title>Node26&#45;&gt;Node11</title>
<g id="a_edge49_Node000026_Node000011"><a xlink:title=" ">
<path fill="none" stroke="#63b8ff" d="M547.05,-259.5C521.94,-249.63 488.94,-236.4 460,-224 406.05,-200.88 344.01,-172.11 308.07,-155.23"/>
<polygon fill="#63b8ff" stroke="#63b8ff" points="309.7,-152.13 299.17,-151.03 306.72,-158.46 309.7,-152.13"/>
</a>
</g>
</g>
<!-- Node26&#45;&gt;Node16 -->
<g id="edge50_Node000026_Node000016" class="edge">
<title>Node26&#45;&gt;Node16</title>
<g id="a_edge50_Node000026_Node000016"><a xlink:title=" ">
<path fill="none" stroke="#63b8ff" d="M593.36,-259.74C599.48,-242.88 606.87,-215.06 600,-192 592.12,-165.54 539.88,-114.46 532,-88 527.94,-74.37 523.46,-67.37 532,-56 538.39,-47.49 591.79,-33.23 634.14,-23.05"/>
<polygon fill="#63b8ff" stroke="#63b8ff" points="634.8,-26.49 643.72,-20.77 633.18,-19.68 634.8,-26.49"/>
</a>
</g>
</g>
<!-- Node26&#45;&gt;Node17 -->
<g id="edge51_Node000026_Node000017" class="edge">
<title>Node26&#45;&gt;Node17</title>
<g id="a_edge51_Node000026_Node000017"><a xlink:title=" ">
<path fill="none" stroke="#63b8ff" d="M646.34,-269.57C716.79,-259.74 832.24,-232.29 892,-156 920.36,-119.8 918.1,-62.24 914.35,-31.67"/>
<polygon fill="#63b8ff" stroke="#63b8ff" points="917.83,-31.26 912.95,-21.85 910.9,-32.25 917.83,-31.26"/>
</a>
</g>
</g>
<!-- Node26&#45;&gt;Node24 -->
<g id="edge52_Node000026_Node000024" class="edge">
<title>Node26&#45;&gt;Node24</title>
<g id="a_edge52_Node000026_Node000024"><a xlink:title=" ">
<path fill="none" stroke="#63b8ff" d="M602.44,-259.68C611.85,-249.93 623.8,-236.77 633,-224 647.85,-203.39 661.78,-177.68 670.56,-160.38"/>
<polygon fill="#63b8ff" stroke="#63b8ff" points="673.55,-162.23 674.87,-151.72 667.28,-159.11 673.55,-162.23"/>
</a>
</g>
</g>
<!-- Node26&#45;&gt;Node25 -->
<g id="edge53_Node000026_Node000025" class="edge">
<title>Node26&#45;&gt;Node25</title>
<g id="a_edge53_Node000026_Node000025"><a xlink:title=" ">
<path fill="none" stroke="#63b8ff" d="M564.17,-259.63C528.8,-235.81 460.64,-189.91 420.26,-162.72"/>
<polygon fill="#63b8ff" stroke="#63b8ff" points="422.37,-159.93 412.12,-157.24 418.46,-165.73 422.37,-159.93"/>
</a>
</g>
</g>
<!-- Node27 -->
<g id="Node000027" class="node">
<title>Node27</title>
<g id="a_Node000027"><a xlink:title=" ">
<polygon fill="#e0e0e0" stroke="#999999" points="590.88,-218 541.12,-218 541.12,-198 590.88,-198 590.88,-218"/>
<text text-anchor="middle" x="566" y="-204.5" font-family="Helvetica,sans-Serif" font-size="10.00">optional</text>
</a>
</g>
</g>
<!-- Node26&#45;&gt;Node27 -->
<g id="edge48_Node000026_Node000027" class="edge">
<title>Node26&#45;&gt;Node27</title>
<g id="a_edge48_Node000026_Node000027"><a xlink:title=" ">
<path fill="none" stroke="#63b8ff" d="M582.13,-259.69C579.24,-250.6 575.53,-238.95 572.4,-229.12"/>
<polygon fill="#63b8ff" stroke="#63b8ff" points="575.79,-228.23 569.42,-219.76 569.12,-230.35 575.79,-228.23"/>
</a>
</g>
</g>
<!-- Node26&#45;&gt;Node28 -->
<g id="edge54_Node000026_Node000028" class="edge">
<title>Node26&#45;&gt;Node28</title>
<g id="a_edge54_Node000026_Node000028"><a xlink:title=" ">
<path fill="none" stroke="#63b8ff" d="M646.45,-264.1C709.22,-252.59 808.19,-234.45 875.26,-222.15"/>
<polygon fill="#63b8ff" stroke="#63b8ff" points="875.87,-225.6 885.07,-220.35 874.61,-218.71 875.87,-225.6"/>
</a>
</g>
</g>
<!-- Node28&#45;&gt;Node11 -->
<g id="edge57_Node000028_Node000011" class="edge">
<title>Node28&#45;&gt;Node11</title>
<g id="a_edge57_Node000028_Node000011"><a xlink:title=" ">
<path fill="none" stroke="#63b8ff" d="M886.46,-204.1C751.02,-197.28 427.03,-179.05 320,-156 316.63,-155.27 313.16,-154.35 309.72,-153.31"/>
<polygon fill="#63b8ff" stroke="#63b8ff" points="311.08,-150.07 300.49,-150.22 308.86,-156.71 311.08,-150.07"/>
</a>
</g>
</g>
<!-- Node28&#45;&gt;Node17 -->
<g id="edge58_Node000028_Node000017" class="edge">
<title>Node28&#45;&gt;Node17</title>
<g id="a_edge58_Node000028_Node000017"><a xlink:title=" ">
<path fill="none" stroke="#63b8ff" d="M945.59,-191.85C942.86,-164.49 936.14,-105.09 925,-56 923.12,-47.73 920.47,-38.77 917.98,-31.05"/>
<polygon fill="#63b8ff" stroke="#63b8ff" points="921.31,-29.99 914.81,-21.63 914.68,-32.22 921.31,-29.99"/>
</a>
</g>
</g>
<!-- Node28&#45;&gt;Node18 -->
<g id="edge59_Node000028_Node000018" class="edge">
<title>Node28&#45;&gt;Node18</title>
<g id="a_edge59_Node000028_Node000018"><a xlink:title=" ">
<path fill="none" stroke="#63b8ff" d="M886.58,-199.85C791.69,-188.35 617.51,-166.03 608,-156 594.09,-141.33 592.98,-117.98 594.83,-99.78"/>
<polygon fill="#63b8ff" stroke="#63b8ff" points="598.29,-100.32 596.22,-89.93 591.36,-99.35 598.29,-100.32"/>
</a>
</g>
</g>
<!-- Node28&#45;&gt;Node22 -->
<g id="edge60_Node000028_Node000022" class="edge">
<title>Node28&#45;&gt;Node22</title>
<g id="a_edge60_Node000028_Node000022"><a xlink:title=" ">
<path fill="none" stroke="#63b8ff" d="M992.25,-191.53C1019.62,-182.17 1054.73,-170.16 1083.86,-160.2"/>
<polygon fill="#63b8ff" stroke="#63b8ff" points="1084.94,-163.53 1093.27,-156.98 1082.67,-156.91 1084.94,-163.53"/>
</a>
</g>
</g>
<!-- Node28&#45;&gt;Node23 -->
<g id="edge56_Node000028_Node000023" class="edge">
<title>Node28&#45;&gt;Node23</title>
<g id="a_edge56_Node000028_Node000023"><a xlink:title=" ">
<path fill="none" stroke="#63b8ff" d="M955.14,-191.71C965.24,-173.81 983.87,-144.07 1006,-124 1024.09,-107.6 1048.32,-94.14 1066.94,-85.17"/>
<polygon fill="#63b8ff" stroke="#63b8ff" points="1068.19,-88.45 1075.79,-81.06 1065.24,-82.1 1068.19,-88.45"/>
</a>
</g>
</g>
<!-- Node29 -->
<g id="Node000029" class="node">
<title>Node29</title>
<g id="a_Node000029"><a xlink:title=" ">
<polygon fill="#e0e0e0" stroke="#999999" points="1055,-150 1015,-150 1015,-130 1055,-130 1055,-150"/>
<text text-anchor="middle" x="1035" y="-136.5" font-family="Helvetica,sans-Serif" font-size="10.00">string</text>
</a>
</g>
</g>
<!-- Node28&#45;&gt;Node29 -->
<g id="edge55_Node000028_Node000029" class="edge">
<title>Node28&#45;&gt;Node29</title>
<g id="a_edge55_Node000028_Node000029"><a xlink:title=" ">
<path fill="none" stroke="#63b8ff" d="M967.41,-191.69C981.27,-181.3 999.57,-167.57 1013.63,-157.03"/>
<polygon fill="#63b8ff" stroke="#63b8ff" points="1015.47,-160.02 1021.37,-151.22 1011.27,-154.42 1015.47,-160.02"/>
</a>
</g>
</g>
<!-- Node30&#45;&gt;Node17 -->
<g id="edge64_Node000030_Node000017" class="edge">
<title>Node30&#45;&gt;Node17</title>
<g id="a_edge64_Node000030_Node000017"><a xlink:title=" ">
<path fill="none" stroke="#63b8ff" d="M1078.38,-265.24C1110.61,-257.82 1149.89,-245.15 1180,-224 1220.99,-195.21 1254.2,-168.91 1232,-124 1209.94,-79.38 1188.41,-76.39 1143,-56 1084.91,-29.92 1011.98,-18.92 963.56,-14.3"/>
<polygon fill="#63b8ff" stroke="#63b8ff" points="963.88,-10.82 953.61,-13.42 963.26,-17.79 963.88,-10.82"/>
</a>
</g>
</g>
<!-- Node30&#45;&gt;Node18 -->
<g id="edge66_Node000030_Node000018" class="edge">
<title>Node30&#45;&gt;Node18</title>
<g id="a_edge66_Node000030_Node000018"><a xlink:title=" ">
<path fill="none" stroke="#63b8ff" d="M962.83,-259.62C847.04,-227.87 592.44,-157.9 591,-156 578.84,-140 582.49,-116.99 588.39,-99.25"/>
<polygon fill="#63b8ff" stroke="#63b8ff" points="591.67,-100.49 591.92,-89.9 585.12,-98.02 591.67,-100.49"/>
</a>
</g>
</g>
<!-- Node30&#45;&gt;Node22 -->
<g id="edge65_Node000030_Node000022" class="edge">
<title>Node30&#45;&gt;Node22</title>
<g id="a_edge65_Node000030_Node000022"><a xlink:title=" ">
<path fill="none" stroke="#63b8ff" d="M1032.88,-259.63C1053.94,-236.3 1094.13,-191.8 1118.84,-164.43"/>
<polygon fill="#63b8ff" stroke="#63b8ff" points="1121.16,-167.08 1125.27,-157.32 1115.97,-162.39 1121.16,-167.08"/>
</a>
</g>
</g>
<!-- Node30&#45;&gt;Node23 -->
<g id="edge63_Node000030_Node000023" class="edge">
<title>Node30&#45;&gt;Node23</title>
<g id="a_edge63_Node000030_Node000023"><a xlink:title=" ">
<path fill="none" stroke="#63b8ff" d="M1071.67,-259.56C1118.92,-242.6 1185.37,-210.29 1216,-156 1222.99,-143.61 1223.86,-135.85 1216,-124 1195.61,-93.28 1152.7,-81.02 1123.85,-76.16"/>
<polygon fill="#63b8ff" stroke="#63b8ff" points="1124.73,-72.75 1114.32,-74.76 1123.71,-79.67 1124.73,-72.75"/>
</a>
</g>
</g>
<!-- Node30&#45;&gt;Node25 -->
<g id="edge67_Node000030_Node000025" class="edge">
<title>Node30&#45;&gt;Node25</title>
<g id="a_edge67_Node000030_Node000025"><a xlink:title=" ">
<path fill="none" stroke="#63b8ff" d="M959.64,-262.39C842.75,-237.57 583.28,-182.47 458.16,-155.9"/>
<polygon fill="#63b8ff" stroke="#63b8ff" points="459.19,-152.54 448.68,-153.89 457.74,-159.39 459.19,-152.54"/>
</a>
</g>
</g>
<!-- Node30&#45;&gt;Node28 -->
<g id="edge68_Node000030_Node000028" class="edge">
<title>Node30&#45;&gt;Node28</title>
<g id="a_edge68_Node000030_Node000028"><a xlink:title=" ">
<path fill="none" stroke="#63b8ff" d="M1002.3,-259.69C993.3,-251.45 982.02,-241.11 972,-231.92"/>
<polygon fill="#63b8ff" stroke="#63b8ff" points="974.46,-229.42 964.72,-225.25 969.73,-234.58 974.46,-229.42"/>
</a>
</g>
</g>
<!-- Node30&#45;&gt;Node29 -->
<g id="edge62_Node000030_Node000029" class="edge">
<title>Node30&#45;&gt;Node29</title>
<g id="a_edge62_Node000030_Node000029"><a xlink:title=" ">
<path fill="none" stroke="#63b8ff" d="M1020.84,-259.63C1023.73,-235.42 1029.34,-188.38 1032.57,-161.37"/>
<polygon fill="#63b8ff" stroke="#63b8ff" points="1036.01,-162.07 1033.72,-151.73 1029.06,-161.24 1036.01,-162.07"/>
</a>
</g>
</g>
</g>
</svg>

<g id="navigator" transform="translate(0 0)" fill="#404254">
  <rect fill="#f2f5e9" fill-opacity="0.5" stroke="#606060" stroke-width=".5" x="0" y="0" width="60" height="60"/>
  <use id="zoomplus" xlink:href="#zoomPlus" x="17" y="9" onmousedown="handleZoom(evt,'in')"/>
  <use id="zoomminus" xlink:href="#zoomMin" x="42" y="9" onmousedown="handleZoom(evt,'out')"/>
  <use id="reset" xlink:href="#resetDef" x="30" y="36" onmousedown="handleReset()"/>
   <use id="arrowup" xlink:href="#arrowUp" x="0" y="0" onmousedown="handlePan(0,-1)"/>
  <use id="arrowright" xlink:href="#arrowRight" x="0" y="0" onmousedown="handlePan(1,0)"/>
  <use id="arrowdown" xlink:href="#arrowDown" x="0" y="0" onmousedown="handlePan(0,1)"/>
  <use id="arrowleft" xlink:href="#arrowLeft" x="0" y="0" onmousedown="handlePan(-1,0)"/>
</g>
<svg viewBox="0 0 15 15" width="100%" height="30px" preserveAspectRatio="xMaxYMin meet">
 <g id="arrow_out" transform="scale(0.3 0.3)">
  <a xlink:href="subsystems_8cpp__incl_org.svg" target="_base">
   <rect id="button" ry="5" rx="5" y="6" x="6" height="38" width="38"
        fill="#f2f5e9" fill-opacity="0.5" stroke="#606060" stroke-width="1.0"/>
   <path id="arrow"
     d="M 11.500037,31.436501 C 11.940474,20.09759 22.043105,11.32322 32.158766,21.979434 L 37.068811,17.246167 C 37.068811,17.246167 37.088388,32 37.088388,32 L 22.160133,31.978069 C 22.160133,31.978069 26.997745,27.140456 26.997745,27.140456 C 18.528582,18.264221 13.291696,25.230495 11.500037,31.436501 z"
     style="fill:#404040;"/>
  </a>
 </g>
</svg>

<style type='text/css'>
<![CDATA[
[data-mouse-over-selected='false'] { opacity: 0.7; }
[data-mouse-over-selected='true']  { opacity: 1.0; }
]]>
</style>
<script type="application/ecmascript"><![CDATA[
document.addEventListener('DOMContentLoaded', (event) => {
  highlightEdges();
  highlightAdjacentNodes();
});
]]></script>
</svg>
