<?xml version="1.0" encoding="UTF-8" standalone="no"?>
<!DOCTYPE svg PUBLIC "-//W3C//DTD SVG 1.1//EN"
 "http://www.w3.org/Graphics/SVG/1.1/DTD/svg11.dtd">
<!-- Generated by graphviz version 10.0.1 (20240210.2158)
 -->
<!-- Title: demo/src/subsystems.cpp Pages: 1 -->
<!--zoomable 468 -->

<svg id="main" version="1.1" xmlns="http://www.w3.org/2000/svg" xmlns:xlink="http://www.w3.org/1999/xlink" xml:space="preserve" onload="init(evt)">
<style type="text/css"><![CDATA[
.node, .edge {opacity: 0.7;}
.node.selected, .edge.selected {opacity: 1;}
.edge:hover path { stroke: red; }
.edge:hover polygon { stroke: red; fill: red; }
]]></style>

<defs>
  <circle id="rim" cx="0" cy="0" r="7"/>
  <circle id="rim2" cx="0" cy="0" r="3.5"/>
  <g id="zoomPlus">
    <use xlink:href="#rim" fill="#404040"><set attributeName="fill" to="#808080" begin="zoomplus.mouseover" end="zoomplus.mouseout"/></use>
    <path d="M-4,0h8M0,-4v8" fill="none" stroke="white" stroke-width="1.5" pointer-events="none"/>
  </g>
  <g id="zoomMin">
    <use xlink:href="#rim" fill="#404040"><set attributeName="fill" to="#808080" begin="zoomminus.mouseover" end="zoomminus.mouseout"/></use>
    <path d="M-4,0h8" fill="none" stroke="white" stroke-width="1.5" pointer-events="none"/>
  </g>
  <g id="arrowUp" transform="translate(30 24)">
    <use xlink:href="#rim"/>
    <path pointer-events="none" fill="none" stroke="white" stroke-width="1.5" d="M0,-3.0v7 M-2.5,-0.5L0,-3.0L2.5,-0.5"/>
  </g>
  <g id="arrowRight" transform="rotate(90) translate(36 -43)">
    <use xlink:href="#rim"/>
    <path pointer-events="none" fill="none" stroke="white" stroke-width="1.5" d="M0,-3.0v7 M-2.5,-0.5L0,-3.0L2.5,-0.5"/>
  </g>
  <g id="arrowDown" transform="rotate(180) translate(-30 -48)">
    <use xlink:href="#rim"/>
    <path pointer-events="none" fill="none" stroke="white" stroke-width="1.5" d="M0,-3.0v7 M-2.5,-0.5L0,-3.0L2.5,-0.5"/>
  </g>
  <g id="arrowLeft" transform="rotate(270) translate(-36 17)">
    <use xlink:href="#rim"/>
    <path pointer-events="none" fill="none" stroke="white" stroke-width="1.5" d="M0,-3.0v7 M-2.5,-0.5L0,-3.0L2.5,-0.5"/>
  </g>
  <g id="resetDef">
    <use xlink:href="#rim2" fill="#404040"><set attributeName="fill" to="#808080" begin="reset.mouseover" end="reset.mouseout"/></use>
  </g>
</defs>
<script type="application/ecmascript">
var viewWidth = 1496;
var viewHeight = 468;
var sectionId = 'dynsection-0';
</script>
<script type="application/ecmascript" xlink:href="svg.min.js"/>
<svg id="graph" class="graph">
<g id="viewport">
<title>demo/src/subsystems.cpp</title>
<!-- Node1 -->
<g id="Node000001" class="node">
<title>Node1</title>
<g id="a_Node000001"><a xlink:title=" ">
<polygon fill="#999999" stroke="#666666" points="621,-460 489.5,-460 489.5,-440 621,-440 621,-460"/>
<text text-anchor="middle" x="555.25" y="-446.5" font-family="Helvetica,sans-Serif" font-size="10.00">demo/src/subsystems.cpp</text>
</a>
</g>
</g>
<!-- Node2 -->
<g id="Node000002" class="node">
<title>Node2</title>
<g id="a_Node000002"><a xlink:href="subsystems_8h.html" target="_top" xlink:title=" ">
<polygon fill="white" stroke="#666666" points="594,-404 516.5,-404 516.5,-384 594,-384 594,-404"/>
<text text-anchor="middle" x="555.25" y="-390.5" font-family="Helvetica,sans-Serif" font-size="10.00">subsystems.h</text>
</a>
</g>
</g>
<!-- Node1&#45;&gt;Node2 -->
<g id="edge1_Node000001_Node000002" class="edge">
<title>Node1&#45;&gt;Node2</title>
<g id="a_edge1_Node000001_Node000002"><a xlink:title=" ">
<path fill="none" stroke="#63b8ff" d="M555.25,-439.59C555.25,-433.01 555.25,-423.96 555.25,-415.73"/>
<polygon fill="#63b8ff" stroke="#63b8ff" points="558.75,-415.81 555.25,-405.81 551.75,-415.81 558.75,-415.81"/>
</a>
</g>
</g>
<!-- Node3 -->
<g id="Node000003" class="node">
<title>Node3</title>
<g id="a_Node000003"><a xlink:href="hybrid__renderer_8h.html" target="_top" xlink:title=" ">
<polygon fill="white" stroke="#666666" points="566.75,-348 475.75,-348 475.75,-328 566.75,-328 566.75,-348"/>
<text text-anchor="middle" x="521.25" y="-334.5" font-family="Helvetica,sans-Serif" font-size="10.00">hybrid_renderer.h</text>
</a>
</g>
</g>
<!-- Node1&#45;&gt;Node3 -->
<g id="edge73_Node000001_Node000003" class="edge">
<title>Node1&#45;&gt;Node3</title>
<g id="a_edge73_Node000001_Node000003"><a xlink:title=" ">
<path fill="none" stroke="#63b8ff" d="M539.95,-439.69C528.56,-431.79 513.88,-419.3 507.25,-404 500.93,-389.42 505.46,-371.72 510.99,-358.48"/>
<polygon fill="#63b8ff" stroke="#63b8ff" points="514.11,-360.08 515.22,-349.54 507.78,-357.08 514.11,-360.08"/>
</a>
</g>
</g>
<!-- Node32 -->
<g id="Node000032" class="node">
<title>Node32</title>
<g id="a_Node000032"><a xlink:title=" ">
<polygon fill="#e0e0e0" stroke="#999999" points="714.75,-404 611.75,-404 611.75,-384 714.75,-384 714.75,-404"/>
<text text-anchor="middle" x="663.25" y="-390.5" font-family="Helvetica,sans-Serif" font-size="10.00">imgui_impl_vulkan.h</text>
</a>
</g>
</g>
<!-- Node1&#45;&gt;Node32 -->
<g id="edge74_Node000001_Node000032" class="edge">
<title>Node1&#45;&gt;Node32</title>
<g id="a_edge74_Node000001_Node000032"><a xlink:title=" ">
<path fill="none" stroke="#63b8ff" d="M574.06,-439.59C590.61,-431.32 614.96,-419.14 634.04,-409.6"/>
<polygon fill="#63b8ff" stroke="#63b8ff" points="635.56,-412.76 642.94,-405.16 632.43,-406.5 635.56,-412.76"/>
</a>
</g>
</g>
<!-- Node2&#45;&gt;Node3 -->
<g id="edge2_Node000002_Node000003" class="edge">
<title>Node2&#45;&gt;Node3</title>
<g id="a_edge2_Node000002_Node000003"><a xlink:title=" ">
<path fill="none" stroke="#63b8ff" d="M549.33,-383.59C544.89,-376.55 538.67,-366.67 533.21,-358"/>
<polygon fill="#63b8ff" stroke="#63b8ff" points="536.2,-356.18 527.91,-349.58 530.28,-359.91 536.2,-356.18"/>
</a>
</g>
</g>
<!-- Node4 -->
<g id="Node000004" class="node">
<title>Node4</title>
<g id="a_Node000004"><a xlink:href="platform_8h.html" target="_top" xlink:title=" ">
<polygon fill="white" stroke="#666666" points="208.62,-20 149.88,-20 149.88,0 208.62,0 208.62,-20"/>
<text text-anchor="middle" x="179.25" y="-6.5" font-family="Helvetica,sans-Serif" font-size="10.00">platform.h</text>
</a>
</g>
</g>
<!-- Node3&#45;&gt;Node4 -->
<g id="edge3_Node000003_Node000004" class="edge">
<title>Node3&#45;&gt;Node4</title>
<g id="a_edge3_Node000003_Node000004"><a xlink:title=" ">
<path fill="none" stroke="#63b8ff" d="M475.28,-334.85C397.08,-330.5 242.09,-318.72 195.25,-292 161.73,-272.88 153.96,-260.44 141.25,-224 117.26,-155.21 151.43,-68.41 169.4,-30.36"/>
<polygon fill="#63b8ff" stroke="#63b8ff" points="172.46,-32.07 173.71,-21.55 166.17,-28.99 172.46,-32.07"/>
</a>
</g>
</g>
<!-- Node5 -->
<g id="Node000005" class="node">
<title>Node5</title>
<g id="a_Node000005"><a xlink:href="camera_8h.html" target="_top" xlink:title=" ">
<polygon fill="white" stroke="#666666" points="56.5,-286 0,-286 0,-266 56.5,-266 56.5,-286"/>
<text text-anchor="middle" x="28.25" y="-272.5" font-family="Helvetica,sans-Serif" font-size="10.00">camera.h</text>
</a>
</g>
</g>
<!-- Node3&#45;&gt;Node5 -->
<g id="edge4_Node000003_Node000005" class="edge">
<title>Node3&#45;&gt;Node5</title>
<g id="a_edge4_Node000003_Node000005"><a xlink:title=" ">
<path fill="none" stroke="#63b8ff" d="M475.54,-336.1C393.42,-333.68 215.92,-324.76 70.25,-292 67.64,-291.41 64.96,-290.71 62.29,-289.93"/>
<polygon fill="#63b8ff" stroke="#63b8ff" points="63.53,-286.66 52.94,-286.9 61.37,-293.31 63.53,-286.66"/>
</a>
</g>
</g>
<!-- Node6 -->
<g id="Node000006" class="node">
<title>Node6</title>
<g id="a_Node000006"><a xlink:href="hri__math_8h.html" target="_top" xlink:title=" ">
<polygon fill="white" stroke="#666666" points="103.12,-150 41.38,-150 41.38,-130 103.12,-130 103.12,-150"/>
<text text-anchor="middle" x="72.25" y="-136.5" font-family="Helvetica,sans-Serif" font-size="10.00">hri_math.h</text>
</a>
</g>
</g>
<!-- Node3&#45;&gt;Node6 -->
<g id="edge8_Node000003_Node000006" class="edge">
<title>Node3&#45;&gt;Node6</title>
<g id="a_edge8_Node000003_Node000006"><a xlink:title=" ">
<path fill="none" stroke="#63b8ff" d="M475.26,-334.94C373.34,-329.97 135.37,-315.91 108.25,-292 70.77,-258.96 68.7,-194.58 70.4,-161.58"/>
<polygon fill="#63b8ff" stroke="#63b8ff" points="73.88,-161.98 71.1,-151.76 66.9,-161.49 73.88,-161.98"/>
</a>
</g>
</g>
<!-- Node8 -->
<g id="Node000008" class="node">
<title>Node8</title>
<g id="a_Node000008"><a xlink:href="material_8h.html" target="_top" xlink:title=" ">
<polygon fill="white" stroke="#666666" points="208.62,-218 149.88,-218 149.88,-198 208.62,-198 208.62,-218"/>
<text text-anchor="middle" x="179.25" y="-204.5" font-family="Helvetica,sans-Serif" font-size="10.00">material.h</text>
</a>
</g>
</g>
<!-- Node3&#45;&gt;Node8 -->
<g id="edge9_Node000003_Node000008" class="edge">
<title>Node3&#45;&gt;Node8</title>
<g id="a_edge9_Node000003_Node000008"><a xlink:title=" ">
<path fill="none" stroke="#63b8ff" d="M475.27,-334.91C402.47,-330.79 264.83,-319.53 225.25,-292 203.74,-277.03 191.2,-248.62 184.79,-229.25"/>
<polygon fill="#63b8ff" stroke="#63b8ff" points="188.16,-228.32 181.93,-219.76 181.46,-230.34 188.16,-228.32"/>
</a>
</g>
</g>
<!-- Node9 -->
<g id="Node000009" class="node">
<title>Node9</title>
<g id="a_Node000009"><a xlink:href="mesh_8h.html" target="_top" xlink:title=" ">
<polygon fill="white" stroke="#666666" points="275.38,-218 227.12,-218 227.12,-198 275.38,-198 275.38,-218"/>
<text text-anchor="middle" x="251.25" y="-204.5" font-family="Helvetica,sans-Serif" font-size="10.00">mesh.h</text>
</a>
</g>
</g>
<!-- Node3&#45;&gt;Node9 -->
<g id="edge12_Node000003_Node000009" class="edge">
<title>Node3&#45;&gt;Node9</title>
<g id="a_edge12_Node000003_Node000009"><a xlink:title=" ">
<path fill="none" stroke="#63b8ff" d="M475.29,-329.46C441.39,-322.71 394.84,-310.91 357.25,-292 322.67,-274.6 288.46,-244.97 268.62,-226.22"/>
<polygon fill="#63b8ff" stroke="#63b8ff" points="271.28,-223.93 261.66,-219.51 266.43,-228.97 271.28,-223.93"/>
</a>
</g>
</g>
<!-- Node12 -->
<g id="Node000012" class="node">
<title>Node12</title>
<g id="a_Node000012"><a xlink:href="scene_8h.html" target="_top" xlink:title=" ">
<polygon fill="white" stroke="#666666" points="284.5,-286 234,-286 234,-266 284.5,-266 284.5,-286"/>
<text text-anchor="middle" x="259.25" y="-272.5" font-family="Helvetica,sans-Serif" font-size="10.00">scene.h</text>
</a>
</g>
</g>
<!-- Node3&#45;&gt;Node12 -->
<g id="edge16_Node000003_Node000012" class="edge">
<title>Node3&#45;&gt;Node12</title>
<g id="a_edge16_Node000003_Node000012"><a xlink:title=" ">
<path fill="none" stroke="#63b8ff" d="M475.45,-328.68C431.92,-320.47 364.74,-306.99 307.25,-292 303.46,-291.01 299.52,-289.91 295.61,-288.76"/>
<polygon fill="#63b8ff" stroke="#63b8ff" points="296.81,-285.47 286.23,-285.91 294.78,-292.17 296.81,-285.47"/>
</a>
</g>
</g>
<!-- Node13 -->
<g id="Node000013" class="node">
<title>Node13</title>
<g id="a_Node000013"><a xlink:href="texture_8h.html" target="_top" xlink:title=" ">
<polygon fill="white" stroke="#666666" points="420.38,-286 366.12,-286 366.12,-266 420.38,-266 420.38,-286"/>
<text text-anchor="middle" x="393.25" y="-272.5" font-family="Helvetica,sans-Serif" font-size="10.00">texture.h</text>
</a>
</g>
</g>
<!-- Node3&#45;&gt;Node13 -->
<g id="edge20_Node000003_Node000013" class="edge">
<title>Node3&#45;&gt;Node13</title>
<g id="a_edge20_Node000003_Node000013"><a xlink:title=" ">
<path fill="none" stroke="#63b8ff" d="M501.25,-327.62C480.4,-317.85 447.46,-302.41 423.44,-291.15"/>
<polygon fill="#63b8ff" stroke="#63b8ff" points="425.02,-288.03 414.48,-286.95 422.05,-294.37 425.02,-288.03"/>
</a>
</g>
</g>
<!-- Node15 -->
<g id="Node000015" class="node">
<title>Node15</title>
<g id="a_Node000015"><a xlink:href="buffer_8h.html" target="_top" xlink:title=" ">
<polygon fill="white" stroke="#666666" points="883.5,-150 761,-150 761,-130 883.5,-130 883.5,-150"/>
<text text-anchor="middle" x="822.25" y="-136.5" font-family="Helvetica,sans-Serif" font-size="10.00">renderer_internal/buffer.h</text>
</a>
</g>
</g>
<!-- Node3&#45;&gt;Node15 -->
<g id="edge23_Node000003_Node000015" class="edge">
<title>Node3&#45;&gt;Node15</title>
<g id="a_edge23_Node000003_Node000015"><a xlink:title=" ">
<path fill="none" stroke="#63b8ff" d="M567.24,-337.35C645.08,-336.85 797.67,-330.81 831.25,-292 863.1,-255.2 844.12,-192.55 831.21,-160.76"/>
<polygon fill="#63b8ff" stroke="#63b8ff" points="834.44,-159.4 827.28,-151.59 828.01,-162.16 834.44,-159.4"/>
</a>
</g>
</g>
<!-- Node18 -->
<g id="Node000018" class="node">
<title>Node18</title>
<g id="a_Node000018"><a xlink:href="render__context_8h.html" target="_top" xlink:title=" ">
<polygon fill="white" stroke="#666666" points="879.25,-88 761.25,-88 761.25,-56 879.25,-56 879.25,-88"/>
<text text-anchor="start" x="769.25" y="-74.5" font-family="Helvetica,sans-Serif" font-size="10.00">renderer_internal/render</text>
<text text-anchor="middle" x="820.25" y="-62.5" font-family="Helvetica,sans-Serif" font-size="10.00">_context.h</text>
</a>
</g>
</g>
<!-- Node3&#45;&gt;Node18 -->
<g id="edge41_Node000003_Node000018" class="edge">
<title>Node3&#45;&gt;Node18</title>
<g id="a_edge41_Node000003_Node000018"><a xlink:title=" ">
<path fill="none" stroke="#63b8ff" d="M566.82,-332.13C617.73,-325.76 695.71,-312.86 716.25,-292 769.82,-237.58 711.09,-188.32 752.25,-124 759.57,-112.56 770.42,-102.75 781.31,-94.88"/>
<polygon fill="#63b8ff" stroke="#63b8ff" points="783.22,-97.82 789.55,-89.32 779.3,-92.02 783.22,-97.82"/>
</a>
</g>
</g>
<!-- Node22 -->
<g id="Node000022" class="node">
<title>Node22</title>
<g id="a_Node000022"><a xlink:href="descriptor__management_8h.html" target="_top" xlink:title=" ">
<polygon fill="white" stroke="#666666" points="1473.12,-156 1339.38,-156 1339.38,-124 1473.12,-124 1473.12,-156"/>
<text text-anchor="start" x="1347.38" y="-142.5" font-family="Helvetica,sans-Serif" font-size="10.00">renderer_internal/descriptor</text>
<text text-anchor="middle" x="1406.25" y="-130.5" font-family="Helvetica,sans-Serif" font-size="10.00">_management.h</text>
</a>
</g>
</g>
<!-- Node3&#45;&gt;Node22 -->
<g id="edge33_Node000003_Node000022" class="edge">
<title>Node3&#45;&gt;Node22</title>
<g id="a_edge33_Node000003_Node000022"><a xlink:title=" ">
<path fill="none" stroke="#63b8ff" d="M567.23,-336.18C722.54,-333.14 1221.59,-321.19 1287.25,-292 1342.25,-267.54 1378.82,-202.61 1395.62,-166.36"/>
<polygon fill="#63b8ff" stroke="#63b8ff" points="1398.7,-168.05 1399.59,-157.49 1392.31,-165.19 1398.7,-168.05"/>
</a>
</g>
</g>
<!-- Node24 -->
<g id="Node000024" class="node">
<title>Node24</title>
<g id="a_Node000024"><a xlink:href="image_8h.html" target="_top" xlink:title=" ">
<polygon fill="white" stroke="#666666" points="705,-150 579.5,-150 579.5,-130 705,-130 705,-150"/>
<text text-anchor="middle" x="642.25" y="-136.5" font-family="Helvetica,sans-Serif" font-size="10.00">renderer_internal/image.h</text>
</a>
</g>
</g>
<!-- Node3&#45;&gt;Node24 -->
<g id="edge37_Node000003_Node000024" class="edge">
<title>Node3&#45;&gt;Node24</title>
<g id="a_edge37_Node000003_Node000024"><a xlink:title=" ">
<path fill="none" stroke="#63b8ff" d="M527.09,-327.55C545.89,-297.08 605.16,-201.08 630.54,-159.98"/>
<polygon fill="#63b8ff" stroke="#63b8ff" points="633.4,-161.99 635.68,-151.65 627.45,-158.32 633.4,-161.99"/>
</a>
</g>
</g>
<!-- Node25 -->
<g id="Node000025" class="node">
<title>Node25</title>
<g id="a_Node000025"><a xlink:href="render__core_8h.html" target="_top" xlink:title=" ">
<polygon fill="white" stroke="#666666" points="561.25,-156 443.25,-156 443.25,-124 561.25,-124 561.25,-156"/>
<text text-anchor="start" x="451.25" y="-142.5" font-family="Helvetica,sans-Serif" font-size="10.00">renderer_internal/render</text>
<text text-anchor="middle" x="502.25" y="-130.5" font-family="Helvetica,sans-Serif" font-size="10.00">_core.h</text>
</a>
</g>
</g>
<!-- Node3&#45;&gt;Node25 -->
<g id="edge42_Node000003_Node000025" class="edge">
<title>Node3&#45;&gt;Node25</title>
<g id="a_edge42_Node000003_Node000025"><a xlink:title=" ">
<path fill="none" stroke="#63b8ff" d="M520.33,-327.55C517.55,-298.82 509.11,-211.81 504.82,-167.52"/>
<polygon fill="#63b8ff" stroke="#63b8ff" points="508.32,-167.37 503.87,-157.75 501.36,-168.04 508.32,-167.37"/>
</a>
</g>
</g>
<!-- Node26 -->
<g id="Node000026" class="node">
<title>Node26</title>
<g id="a_Node000026"><a xlink:href="render__pass_8h.html" target="_top" xlink:title=" ">
<polygon fill="white" stroke="#666666" points="707.25,-292 589.25,-292 589.25,-260 707.25,-260 707.25,-292"/>
<text text-anchor="start" x="597.25" y="-278.5" font-family="Helvetica,sans-Serif" font-size="10.00">renderer_internal/render</text>
<text text-anchor="middle" x="648.25" y="-266.5" font-family="Helvetica,sans-Serif" font-size="10.00">_pass.h</text>
</a>
</g>
</g>
<!-- Node3&#45;&gt;Node26 -->
<g id="edge47_Node000003_Node000026" class="edge">
<title>Node3&#45;&gt;Node26</title>
<g id="a_edge47_Node000003_Node000026"><a xlink:title=" ">
<path fill="none" stroke="#63b8ff" d="M541.09,-327.62C558.24,-319.52 583.62,-307.53 605.37,-297.26"/>
<polygon fill="#63b8ff" stroke="#63b8ff" points="606.79,-300.46 614.34,-293.02 603.8,-294.13 606.79,-300.46"/>
</a>
</g>
</g>
<!-- Node28 -->
<g id="Node000028" class="node">
<title>Node28</title>
<g id="a_Node000028"><a xlink:href="shader__database_8h.html" target="_top" xlink:title=" ">
<polygon fill="white" stroke="#666666" points="1235.38,-224 1115.12,-224 1115.12,-192 1235.38,-192 1235.38,-224"/>
<text text-anchor="start" x="1123.12" y="-210.5" font-family="Helvetica,sans-Serif" font-size="10.00">renderer_internal/shader</text>
<text text-anchor="middle" x="1175.25" y="-198.5" font-family="Helvetica,sans-Serif" font-size="10.00">_database.h</text>
</a>
</g>
</g>
<!-- Node3&#45;&gt;Node28 -->
<g id="edge72_Node000003_Node000028" class="edge">
<title>Node3&#45;&gt;Node28</title>
<g id="a_edge72_Node000003_Node000028"><a xlink:title=" ">
<path fill="none" stroke="#63b8ff" d="M567.15,-334.39C639.92,-329.65 785.96,-317.62 907.25,-292 983.94,-275.8 1070.1,-247.17 1123.53,-228.14"/>
<polygon fill="#63b8ff" stroke="#63b8ff" points="1124.44,-231.53 1132.67,-224.86 1122.08,-224.94 1124.44,-231.53"/>
</a>
</g>
</g>
<!-- Node30 -->
<g id="Node000030" class="node">
<title>Node30</title>
<g id="a_Node000030"><a xlink:href="render__system_8h.html" target="_top" xlink:title=" ">
<polygon fill="white" stroke="#666666" points="1278.25,-292 1160.25,-292 1160.25,-260 1278.25,-260 1278.25,-292"/>
<text text-anchor="start" x="1168.25" y="-278.5" font-family="Helvetica,sans-Serif" font-size="10.00">renderer_internal/render</text>
<text text-anchor="middle" x="1219.25" y="-266.5" font-family="Helvetica,sans-Serif" font-size="10.00">_system.h</text>
</a>
</g>
</g>
<!-- Node3&#45;&gt;Node30 -->
<g id="edge61_Node000003_Node000030" class="edge">
<title>Node3&#45;&gt;Node30</title>
<g id="a_edge61_Node000003_Node000030"><a xlink:title=" ">
<path fill="none" stroke="#63b8ff" d="M567.05,-333.67C662.17,-326.68 888.02,-309.65 1077.25,-292 1100.48,-289.83 1125.81,-287.23 1148.57,-284.81"/>
<polygon fill="#63b8ff" stroke="#63b8ff" points="1148.79,-288.31 1158.36,-283.76 1148.04,-281.35 1148.79,-288.31"/>
</a>
</g>
</g>
<!-- Node31 -->
<g id="Node000031" class="node">
<title>Node31</title>
<g id="a_Node000031"><a xlink:href="sampler_8h.html" target="_top" xlink:title=" ">
<polygon fill="white" stroke="#666666" points="1073.12,-150 939.38,-150 939.38,-130 1073.12,-130 1073.12,-150"/>
<text text-anchor="middle" x="1006.25" y="-136.5" font-family="Helvetica,sans-Serif" font-size="10.00">renderer_internal/sampler.h</text>
</a>
</g>
</g>
<!-- Node3&#45;&gt;Node31 -->
<g id="edge69_Node000003_Node000031" class="edge">
<title>Node3&#45;&gt;Node31</title>
<g id="a_edge69_Node000003_Node000031"><a xlink:title=" ">
<path fill="none" stroke="#63b8ff" d="M566.97,-334.34C645.66,-329.18 802.96,-316.13 852.25,-292 916.28,-260.65 970.25,-192.41 993.71,-159.49"/>
<polygon fill="#63b8ff" stroke="#63b8ff" points="996.51,-161.58 999.36,-151.38 990.77,-157.58 996.51,-161.58"/>
</a>
</g>
</g>
<!-- Node5&#45;&gt;Node6 -->
<g id="edge5_Node000005_Node000006" class="edge">
<title>Node5&#45;&gt;Node6</title>
<g id="a_edge5_Node000005_Node000006"><a xlink:title=" ">
<path fill="none" stroke="#63b8ff" d="M31.27,-265.79C38.34,-244.27 56.06,-190.31 65.72,-160.89"/>
<polygon fill="#63b8ff" stroke="#63b8ff" points="68.94,-162.31 68.73,-151.71 62.29,-160.12 68.94,-162.31"/>
</a>
</g>
</g>
<!-- Node6&#45;&gt;Node4 -->
<g id="edge7_Node000006_Node000004" class="edge">
<title>Node6&#45;&gt;Node4</title>
<g id="a_edge7_Node000006_Node000004"><a xlink:title=" ">
<path fill="none" stroke="#63b8ff" d="M65.17,-129.64C53.7,-113.26 33.93,-78.97 50.25,-56 70.01,-28.17 108.32,-17.41 138.07,-13.32"/>
<polygon fill="#63b8ff" stroke="#63b8ff" points="138.37,-16.81 147.91,-12.19 137.57,-9.86 138.37,-16.81"/>
</a>
</g>
</g>
<!-- Node7 -->
<g id="Node000007" class="node">
<title>Node7</title>
<g id="a_Node000007"><a xlink:title=" ">
<polygon fill="#e0e0e0" stroke="#999999" points="102.75,-82 59.75,-82 59.75,-62 102.75,-62 102.75,-82"/>
<text text-anchor="middle" x="81.25" y="-68.5" font-family="Helvetica,sans-Serif" font-size="10.00">cmath</text>
</a>
</g>
</g>
<!-- Node6&#45;&gt;Node7 -->
<g id="edge6_Node000006_Node000007" class="edge">
<title>Node6&#45;&gt;Node7</title>
<g id="a_edge6_Node000006_Node000007"><a xlink:title=" ">
<path fill="none" stroke="#63b8ff" d="M73.54,-129.54C74.81,-120.23 76.79,-105.7 78.43,-93.7"/>
<polygon fill="#63b8ff" stroke="#63b8ff" points="81.88,-94.32 79.76,-83.94 74.94,-93.37 81.88,-94.32"/>
</a>
</g>
</g>
<!-- Node8&#45;&gt;Node4 -->
<g id="edge10_Node000008_Node000004" class="edge">
<title>Node8&#45;&gt;Node4</title>
<g id="a_edge10_Node000008_Node000004"><a xlink:title=" ">
<path fill="none" stroke="#63b8ff" d="M179.25,-197.55C179.25,-167.54 179.25,-73.92 179.25,-31.85"/>
<polygon fill="#63b8ff" stroke="#63b8ff" points="182.75,-31.87 179.25,-21.87 175.75,-31.87 182.75,-31.87"/>
</a>
</g>
</g>
<!-- Node8&#45;&gt;Node6 -->
<g id="edge11_Node000008_Node000006" class="edge">
<title>Node8&#45;&gt;Node6</title>
<g id="a_edge11_Node000008_Node000006"><a xlink:title=" ">
<path fill="none" stroke="#63b8ff" d="M163.92,-197.54C146.52,-186.81 117.88,-169.14 97.24,-156.41"/>
<polygon fill="#63b8ff" stroke="#63b8ff" points="99.19,-153.5 88.84,-151.23 95.51,-159.46 99.19,-153.5"/>
</a>
</g>
</g>
<!-- Node9&#45;&gt;Node6 -->
<g id="edge15_Node000009_Node000006" class="edge">
<title>Node9&#45;&gt;Node6</title>
<g id="a_edge15_Node000009_Node000006"><a xlink:title=" ">
<path fill="none" stroke="#63b8ff" d="M230.5,-197.54C226.15,-195.64 221.57,-193.71 217.25,-192 181.94,-178.02 141.07,-163.83 111.74,-153.97"/>
<polygon fill="#63b8ff" stroke="#63b8ff" points="113.13,-150.75 102.54,-150.9 110.92,-157.38 113.13,-150.75"/>
</a>
</g>
</g>
<!-- Node10 -->
<g id="Node000010" class="node">
<title>Node10</title>
<g id="a_Node000010"><a xlink:title=" ">
<polygon fill="#e0e0e0" stroke="#999999" points="287.88,-150 242.62,-150 242.62,-130 287.88,-130 287.88,-150"/>
<text text-anchor="middle" x="265.25" y="-136.5" font-family="Helvetica,sans-Serif" font-size="10.00">cstdint</text>
</a>
</g>
</g>
<!-- Node9&#45;&gt;Node10 -->
<g id="edge13_Node000009_Node000010" class="edge">
<title>Node9&#45;&gt;Node10</title>
<g id="a_edge13_Node000009_Node000010"><a xlink:title=" ">
<path fill="none" stroke="#63b8ff" d="M253.26,-197.54C255.25,-188.13 258.38,-173.39 260.94,-161.32"/>
<polygon fill="#63b8ff" stroke="#63b8ff" points="264.28,-162.43 262.93,-151.92 257.43,-160.98 264.28,-162.43"/>
</a>
</g>
</g>
<!-- Node11 -->
<g id="Node000011" class="node">
<title>Node11</title>
<g id="a_Node000011"><a xlink:title=" ">
<polygon fill="#e0e0e0" stroke="#999999" points="365,-150 323.5,-150 323.5,-130 365,-130 365,-150"/>
<text text-anchor="middle" x="344.25" y="-136.5" font-family="Helvetica,sans-Serif" font-size="10.00">vector</text>
</a>
</g>
</g>
<!-- Node9&#45;&gt;Node11 -->
<g id="edge14_Node000009_Node000011" class="edge">
<title>Node9&#45;&gt;Node11</title>
<g id="a_edge14_Node000009_Node000011"><a xlink:title=" ">
<path fill="none" stroke="#63b8ff" d="M264.57,-197.54C279.49,-186.96 303.91,-169.63 321.79,-156.94"/>
<polygon fill="#63b8ff" stroke="#63b8ff" points="323.59,-159.96 329.72,-151.31 319.54,-154.25 323.59,-159.96"/>
</a>
</g>
</g>
<!-- Node12&#45;&gt;Node8 -->
<g id="edge18_Node000012_Node000008" class="edge">
<title>Node12&#45;&gt;Node8</title>
<g id="a_edge18_Node000012_Node000008"><a xlink:title=" ">
<path fill="none" stroke="#63b8ff" d="M247.79,-265.54C235.19,-255.15 214.72,-238.27 199.43,-225.65"/>
<polygon fill="#63b8ff" stroke="#63b8ff" points="201.8,-223.07 191.86,-219.4 197.34,-228.47 201.8,-223.07"/>
</a>
</g>
</g>
<!-- Node12&#45;&gt;Node9 -->
<g id="edge19_Node000012_Node000009" class="edge">
<title>Node12&#45;&gt;Node9</title>
<g id="a_edge19_Node000012_Node000009"><a xlink:title=" ">
<path fill="none" stroke="#63b8ff" d="M258.1,-265.54C256.98,-256.23 255.21,-241.7 253.76,-229.7"/>
<polygon fill="#63b8ff" stroke="#63b8ff" points="257.25,-229.45 252.58,-219.94 250.31,-230.29 257.25,-229.45"/>
</a>
</g>
</g>
<!-- Node12&#45;&gt;Node11 -->
<g id="edge17_Node000012_Node000011" class="edge">
<title>Node12&#45;&gt;Node11</title>
<g id="a_edge17_Node000012_Node000011"><a xlink:title=" ">
<path fill="none" stroke="#63b8ff" d="M265.09,-265.79C278.92,-243.99 313.89,-188.87 332.37,-159.73"/>
<polygon fill="#63b8ff" stroke="#63b8ff" points="335.15,-161.87 337.56,-151.55 329.24,-158.12 335.15,-161.87"/>
</a>
</g>
</g>
<!-- Node13&#45;&gt;Node10 -->
<g id="edge22_Node000013_Node000010" class="edge">
<title>Node13&#45;&gt;Node10</title>
<g id="a_edge22_Node000013_Node000010"><a xlink:title=" ">
<path fill="none" stroke="#63b8ff" d="M384.45,-265.79C363.35,-243.7 309.58,-187.41 282.05,-158.59"/>
<polygon fill="#63b8ff" stroke="#63b8ff" points="284.59,-156.18 275.15,-151.37 279.53,-161.02 284.59,-156.18"/>
</a>
</g>
</g>
<!-- Node14 -->
<g id="Node000014" class="node">
<title>Node14</title>
<g id="a_Node000014"><a xlink:title=" ">
<polygon fill="#e0e0e0" stroke="#999999" points="417,-218 369.5,-218 369.5,-198 417,-198 417,-218"/>
<text text-anchor="middle" x="393.25" y="-204.5" font-family="Helvetica,sans-Serif" font-size="10.00">cstddef</text>
</a>
</g>
</g>
<!-- Node13&#45;&gt;Node14 -->
<g id="edge21_Node000013_Node000014" class="edge">
<title>Node13&#45;&gt;Node14</title>
<g id="a_edge21_Node000013_Node000014"><a xlink:title=" ">
<path fill="none" stroke="#63b8ff" d="M393.25,-265.54C393.25,-256.23 393.25,-241.7 393.25,-229.7"/>
<polygon fill="#63b8ff" stroke="#63b8ff" points="396.75,-229.95 393.25,-219.95 389.75,-229.95 396.75,-229.95"/>
</a>
</g>
</g>
<!-- Node16 -->
<g id="Node000016" class="node">
<title>Node16</title>
<g id="a_Node000016"><a xlink:title=" ">
<polygon fill="#e0e0e0" stroke="#999999" points="685.12,-20 599.38,-20 599.38,0 685.12,0 685.12,-20"/>
<text text-anchor="middle" x="642.25" y="-6.5" font-family="Helvetica,sans-Serif" font-size="10.00">vk_mem_alloc.h</text>
</a>
</g>
</g>
<!-- Node15&#45;&gt;Node16 -->
<g id="edge24_Node000015_Node000016" class="edge">
<title>Node15&#45;&gt;Node16</title>
<g id="a_edge24_Node000015_Node000016"><a xlink:title=" ">
<path fill="none" stroke="#63b8ff" d="M809.01,-129.59C778.46,-107.86 702.71,-54 664.73,-26.98"/>
<polygon fill="#63b8ff" stroke="#63b8ff" points="666.92,-24.25 656.74,-21.3 662.86,-29.95 666.92,-24.25"/>
</a>
</g>
</g>
<!-- Node17 -->
<g id="Node000017" class="node">
<title>Node17</title>
<g id="a_Node000017"><a xlink:title=" ">
<polygon fill="#e0e0e0" stroke="#999999" points="1136.88,-20 1055.62,-20 1055.62,0 1136.88,0 1136.88,-20"/>
<text text-anchor="middle" x="1096.25" y="-6.5" font-family="Helvetica,sans-Serif" font-size="10.00">vulkan/vulkan.h</text>
</a>
</g>
</g>
<!-- Node15&#45;&gt;Node17 -->
<g id="edge25_Node000015_Node000017" class="edge">
<title>Node15&#45;&gt;Node17</title>
<g id="a_edge25_Node000015_Node000017"><a xlink:title=" ">
<path fill="none" stroke="#63b8ff" d="M842.4,-129.59C889.9,-107.4 1009.15,-51.69 1065.65,-25.3"/>
<polygon fill="#63b8ff" stroke="#63b8ff" points="1067.12,-28.47 1074.7,-21.07 1064.16,-22.13 1067.12,-28.47"/>
</a>
</g>
</g>
<!-- Node15&#45;&gt;Node18 -->
<g id="edge26_Node000015_Node000018" class="edge">
<title>Node15&#45;&gt;Node18</title>
<g id="a_edge26_Node000015_Node000018"><a xlink:title=" ">
<path fill="none" stroke="#63b8ff" d="M821.96,-129.54C821.73,-121.72 821.38,-110.22 821.06,-99.63"/>
<polygon fill="#63b8ff" stroke="#63b8ff" points="824.56,-99.7 820.76,-89.81 817.56,-99.92 824.56,-99.7"/>
</a>
</g>
</g>
<!-- Node18&#45;&gt;Node4 -->
<g id="edge28_Node000018_Node000004" class="edge">
<title>Node18&#45;&gt;Node4</title>
<g id="a_edge28_Node000018_Node000004"><a xlink:title=" ">
<path fill="none" stroke="#63b8ff" d="M760.81,-65.44C632.04,-53.38 330.1,-25.12 220.19,-14.83"/>
<polygon fill="#63b8ff" stroke="#63b8ff" points="220.74,-11.37 210.46,-13.92 220.09,-18.34 220.74,-11.37"/>
</a>
</g>
</g>
<!-- Node18&#45;&gt;Node16 -->
<g id="edge31_Node000018_Node000016" class="edge">
<title>Node18&#45;&gt;Node16</title>
<g id="a_edge31_Node000018_Node000016"><a xlink:title=" ">
<path fill="none" stroke="#63b8ff" d="M774.41,-55.55C745.53,-45.81 708.65,-33.38 681.19,-24.13"/>
<polygon fill="#63b8ff" stroke="#63b8ff" points="682.45,-20.86 671.86,-20.98 680.21,-27.49 682.45,-20.86"/>
</a>
</g>
</g>
<!-- Node18&#45;&gt;Node17 -->
<g id="edge32_Node000018_Node000017" class="edge">
<title>Node18&#45;&gt;Node17</title>
<g id="a_edge32_Node000018_Node000017"><a xlink:title=" ">
<path fill="none" stroke="#63b8ff" d="M879.46,-58.13C928.48,-47.47 997.45,-32.48 1044.34,-22.29"/>
<polygon fill="#63b8ff" stroke="#63b8ff" points="1044.95,-25.73 1053.98,-20.19 1043.47,-18.89 1044.95,-25.73"/>
</a>
</g>
</g>
<!-- Node19 -->
<g id="Node000019" class="node">
<title>Node19</title>
<g id="a_Node000019"><a xlink:href="config_8h.html" target="_top" xlink:title=" ">
<polygon fill="white" stroke="#666666" points="829.12,-20 779.38,-20 779.38,0 829.12,0 829.12,-20"/>
<text text-anchor="middle" x="804.25" y="-6.5" font-family="Helvetica,sans-Serif" font-size="10.00">config.h</text>
</a>
</g>
</g>
<!-- Node18&#45;&gt;Node19 -->
<g id="edge27_Node000018_Node000019" class="edge">
<title>Node18&#45;&gt;Node19</title>
<g id="a_edge27_Node000018_Node000019"><a xlink:title=" ">
<path fill="none" stroke="#63b8ff" d="M816.13,-55.55C814.16,-48.17 811.78,-39.24 809.67,-31.32"/>
<polygon fill="#63b8ff" stroke="#63b8ff" points="813.11,-30.63 807.15,-21.87 806.34,-32.43 813.11,-30.63"/>
</a>
</g>
</g>
<!-- Node20 -->
<g id="Node000020" class="node">
<title>Node20</title>
<g id="a_Node000020"><a xlink:title=" ">
<polygon fill="#e0e0e0" stroke="#999999" points="760.88,-20 703.62,-20 703.62,0 760.88,0 760.88,-20"/>
<text text-anchor="middle" x="732.25" y="-6.5" font-family="Helvetica,sans-Serif" font-size="10.00">functional</text>
</a>
</g>
</g>
<!-- Node18&#45;&gt;Node20 -->
<g id="edge29_Node000018_Node000020" class="edge">
<title>Node18&#45;&gt;Node20</title>
<g id="a_edge29_Node000018_Node000020"><a xlink:title=" ">
<path fill="none" stroke="#63b8ff" d="M797.59,-55.55C784.6,-46.69 768.34,-35.61 755.29,-26.71"/>
<polygon fill="#63b8ff" stroke="#63b8ff" points="757.53,-24 747.3,-21.26 753.59,-29.79 757.53,-24"/>
</a>
</g>
</g>
<!-- Node21 -->
<g id="Node000021" class="node">
<title>Node21</title>
<g id="a_Node000021"><a xlink:title=" ">
<polygon fill="#e0e0e0" stroke="#999999" points="925.38,-20 847.12,-20 847.12,0 925.38,0 925.38,-20"/>
<text text-anchor="middle" x="886.25" y="-6.5" font-family="Helvetica,sans-Serif" font-size="10.00">VkBootstrap.h</text>
</a>
</g>
</g>
<!-- Node18&#45;&gt;Node21 -->
<g id="edge30_Node000018_Node000021" class="edge">
<title>Node18&#45;&gt;Node21</title>
<g id="a_edge30_Node000018_Node000021"><a xlink:title=" ">
<path fill="none" stroke="#63b8ff" d="M837.25,-55.55C846.51,-47.13 857.99,-36.69 867.51,-28.04"/>
<polygon fill="#63b8ff" stroke="#63b8ff" points="869.74,-30.74 874.78,-21.43 865.03,-25.56 869.74,-30.74"/>
</a>
</g>
</g>
<!-- Node22&#45;&gt;Node17 -->
<g id="edge35_Node000022_Node000017" class="edge">
<title>Node22&#45;&gt;Node17</title>
<g id="a_edge35_Node000022_Node000017"><a xlink:title=" ">
<path fill="none" stroke="#63b8ff" d="M1395.89,-123.71C1382.11,-104.65 1355.89,-72.57 1325.25,-56 1269.77,-25.99 1197.09,-15.84 1148.64,-12.49"/>
<polygon fill="#63b8ff" stroke="#63b8ff" points="1148.88,-9 1138.69,-11.89 1148.45,-15.99 1148.88,-9"/>
</a>
</g>
</g>
<!-- Node22&#45;&gt;Node18 -->
<g id="edge36_Node000022_Node000018" class="edge">
<title>Node22&#45;&gt;Node18</title>
<g id="a_edge36_Node000022_Node000018"><a xlink:title=" ">
<path fill="none" stroke="#63b8ff" d="M1339.07,-129.9C1323.69,-127.89 1307.41,-125.82 1292.25,-124 1150.01,-106.96 983.33,-89.55 890.97,-80.12"/>
<polygon fill="#63b8ff" stroke="#63b8ff" points="891.35,-76.65 881.04,-79.11 890.64,-83.61 891.35,-76.65"/>
</a>
</g>
</g>
<!-- Node23 -->
<g id="Node000023" class="node">
<title>Node23</title>
<g id="a_Node000023"><a xlink:title=" ">
<polygon fill="#e0e0e0" stroke="#999999" points="1423.62,-82 1388.88,-82 1388.88,-62 1423.62,-62 1423.62,-82"/>
<text text-anchor="middle" x="1406.25" y="-68.5" font-family="Helvetica,sans-Serif" font-size="10.00">map</text>
</a>
</g>
</g>
<!-- Node22&#45;&gt;Node23 -->
<g id="edge34_Node000022_Node000023" class="edge">
<title>Node22&#45;&gt;Node23</title>
<g id="a_edge34_Node000022_Node000023"><a xlink:title=" ">
<path fill="none" stroke="#63b8ff" d="M1406.25,-123.69C1406.25,-114.8 1406.25,-103.46 1406.25,-93.77"/>
<polygon fill="#63b8ff" stroke="#63b8ff" points="1409.75,-93.83 1406.25,-83.83 1402.75,-93.83 1409.75,-93.83"/>
</a>
</g>
</g>
<!-- Node24&#45;&gt;Node16 -->
<g id="edge38_Node000024_Node000016" class="edge">
<title>Node24&#45;&gt;Node16</title>
<g id="a_edge38_Node000024_Node000016"><a xlink:title=" ">
<path fill="none" stroke="#63b8ff" d="M642.25,-129.79C642.25,-109.41 642.25,-60.05 642.25,-31.79"/>
<polygon fill="#63b8ff" stroke="#63b8ff" points="645.75,-31.98 642.25,-21.98 638.75,-31.98 645.75,-31.98"/>
</a>
</g>
</g>
<!-- Node24&#45;&gt;Node17 -->
<g id="edge39_Node000024_Node000017" class="edge">
<title>Node24&#45;&gt;Node17</title>
<g id="a_edge39_Node000024_Node000017"><a xlink:title=" ">
<path fill="none" stroke="#63b8ff" d="M651.19,-129.57C668.69,-111.78 709.51,-73.48 752.25,-56 803.91,-34.87 961.07,-20.75 1043.89,-14.56"/>
<polygon fill="#63b8ff" stroke="#63b8ff" points="1044.09,-18.06 1053.8,-13.84 1043.57,-11.08 1044.09,-18.06"/>
</a>
</g>
</g>
<!-- Node24&#45;&gt;Node18 -->
<g id="edge40_Node000024_Node000018" class="edge">
<title>Node24&#45;&gt;Node18</title>
<g id="a_edge40_Node000024_Node000018"><a xlink:title=" ">
<path fill="none" stroke="#63b8ff" d="M667.75,-129.54C693.86,-119.86 735.18,-104.54 768.23,-92.29"/>
<polygon fill="#63b8ff" stroke="#63b8ff" points="769.06,-95.71 777.22,-88.95 766.63,-89.15 769.06,-95.71"/>
</a>
</g>
</g>
<!-- Node25&#45;&gt;Node4 -->
<g id="edge45_Node000025_Node000004" class="edge">
<title>Node25&#45;&gt;Node4</title>
<g id="a_edge45_Node000025_Node000004"><a xlink:title=" ">
<path fill="none" stroke="#63b8ff" d="M463.29,-123.56C399.63,-98.33 274.36,-48.69 213.73,-24.67"/>
<polygon fill="#63b8ff" stroke="#63b8ff" points="215.19,-21.48 204.6,-21.05 212.61,-27.98 215.19,-21.48"/>
</a>
</g>
</g>
<!-- Node25&#45;&gt;Node18 -->
<g id="edge46_Node000025_Node000018" class="edge">
<title>Node25&#45;&gt;Node18</title>
<g id="a_edge46_Node000025_Node000018"><a xlink:title=" ">
<path fill="none" stroke="#63b8ff" d="M561.58,-125.86C564.51,-125.22 567.41,-124.6 570.25,-124 630.78,-111.15 699.68,-97.14 749.81,-87.06"/>
<polygon fill="#63b8ff" stroke="#63b8ff" points="750.24,-90.54 759.36,-85.14 748.87,-83.68 750.24,-90.54"/>
</a>
</g>
</g>
<!-- Node25&#45;&gt;Node19 -->
<g id="edge44_Node000025_Node000019" class="edge">
<title>Node25&#45;&gt;Node19</title>
<g id="a_edge44_Node000025_Node000019"><a xlink:title=" ">
<path fill="none" stroke="#63b8ff" d="M538.68,-123.56C597.95,-98.44 714.36,-49.1 771.3,-24.97"/>
<polygon fill="#63b8ff" stroke="#63b8ff" points="772.63,-28.2 780.47,-21.08 769.9,-21.76 772.63,-28.2"/>
</a>
</g>
</g>
<!-- Node25&#45;&gt;Node20 -->
<g id="edge43_Node000025_Node000020" class="edge">
<title>Node25&#45;&gt;Node20</title>
<g id="a_edge43_Node000025_Node000020"><a xlink:title=" ">
<path fill="none" stroke="#63b8ff" d="M511.48,-123.75C523.58,-105.03 546.57,-73.62 574.25,-56 584.33,-49.59 648.88,-32.3 692.29,-21.11"/>
<polygon fill="#63b8ff" stroke="#63b8ff" points="693.09,-24.52 701.9,-18.65 691.35,-17.74 693.09,-24.52"/>
</a>
</g>
</g>
<!-- Node26&#45;&gt;Node11 -->
<g id="edge49_Node000026_Node000011" class="edge">
<title>Node26&#45;&gt;Node11</title>
<g id="a_edge49_Node000026_Node000011"><a xlink:title=" ">
<path fill="none" stroke="#63b8ff" d="M601,-259.55C573.35,-250.1 537.94,-237.3 507.25,-224 458.04,-202.67 402.81,-173.35 370.92,-155.88"/>
<polygon fill="#63b8ff" stroke="#63b8ff" points="372.82,-152.93 362.37,-151.16 369.44,-159.06 372.82,-152.93"/>
</a>
</g>
</g>
<!-- Node26&#45;&gt;Node16 -->
<g id="edge50_Node000026_Node000016" class="edge">
<title>Node26&#45;&gt;Node16</title>
<g id="a_edge50_Node000026_Node000016"><a xlink:title=" ">
<path fill="none" stroke="#63b8ff" d="M618.92,-259.71C561.53,-229.64 439.48,-164.98 434.25,-156 394.14,-87.17 514.67,-43.2 588.77,-23.33"/>
<polygon fill="#63b8ff" stroke="#63b8ff" points="589.53,-26.75 598.33,-20.84 587.77,-19.98 589.53,-26.75"/>
</a>
</g>
</g>
<!-- Node26&#45;&gt;Node17 -->
<g id="edge51_Node000026_Node000017" class="edge">
<title>Node26&#45;&gt;Node17</title>
<g id="a_edge51_Node000026_Node000017"><a xlink:title=" ">
<path fill="none" stroke="#63b8ff" d="M707.42,-267.1C814.55,-251.53 1034.01,-213.3 1082.25,-156 1112.03,-120.63 1106.41,-61.83 1100.77,-31.1"/>
<polygon fill="#63b8ff" stroke="#63b8ff" points="1104.27,-30.72 1098.83,-21.62 1097.41,-32.12 1104.27,-30.72"/>
</a>
</g>
</g>
<!-- Node26&#45;&gt;Node24 -->
<g id="edge52_Node000026_Node000024" class="edge">
<title>Node26&#45;&gt;Node24</title>
<g id="a_edge52_Node000026_Node000024"><a xlink:title=" ">
<path fill="none" stroke="#63b8ff" d="M662.73,-259.86C670.77,-250.37 679.99,-237.43 684.25,-224 688.55,-210.44 689.05,-205.39 684.25,-192 679.61,-179.07 670.13,-167.08 661.34,-157.98"/>
<polygon fill="#63b8ff" stroke="#63b8ff" points="664.02,-155.7 654.4,-151.25 659.14,-160.73 664.02,-155.7"/>
</a>
</g>
</g>
<!-- Node26&#45;&gt;Node25 -->
<g id="edge53_Node000026_Node000025" class="edge">
<title>Node26&#45;&gt;Node25</title>
<g id="a_edge53_Node000026_Node000025"><a xlink:title=" ">
<path fill="none" stroke="#63b8ff" d="M631.5,-259.63C605.87,-236.1 556.76,-191.03 527.01,-163.72"/>
<polygon fill="#63b8ff" stroke="#63b8ff" points="529.65,-161.4 519.92,-157.22 524.92,-166.56 529.65,-161.4"/>
</a>
</g>
</g>
<!-- Node27 -->
<g id="Node000027" class="node">
<title>Node27</title>
<g id="a_Node000027"><a xlink:title=" ">
<polygon fill="#e0e0e0" stroke="#999999" points="675.12,-218 625.38,-218 625.38,-198 675.12,-198 675.12,-218"/>
<text text-anchor="middle" x="650.25" y="-204.5" font-family="Helvetica,sans-Serif" font-size="10.00">optional</text>
</a>
</g>
</g>
<!-- Node26&#45;&gt;Node27 -->
<g id="edge48_Node000026_Node000027" class="edge">
<title>Node26&#45;&gt;Node27</title>
<g id="a_edge48_Node000026_Node000027"><a xlink:title=" ">
<path fill="none" stroke="#63b8ff" d="M648.71,-259.69C648.98,-250.8 649.33,-239.46 649.62,-229.77"/>
<polygon fill="#63b8ff" stroke="#63b8ff" points="653.12,-229.93 649.92,-219.83 646.12,-229.72 653.12,-229.93"/>
</a>
</g>
</g>
<!-- Node26&#45;&gt;Node28 -->
<g id="edge54_Node000026_Node000028" class="edge">
<title>Node26&#45;&gt;Node28</title>
<g id="a_edge54_Node000026_Node000028"><a xlink:title=" ">
<path fill="none" stroke="#63b8ff" d="M707.68,-267.56C805.11,-255.36 998.44,-231.14 1103.4,-218"/>
<polygon fill="#63b8ff" stroke="#63b8ff" points="1103.83,-221.47 1113.32,-216.76 1102.96,-214.53 1103.83,-221.47"/>
</a>
</g>
</g>
<!-- Node28&#45;&gt;Node11 -->
<g id="edge57_Node000028_Node000011" class="edge">
<title>Node28&#45;&gt;Node11</title>
<g id="a_edge57_Node000028_Node000011"><a xlink:title=" ">
<path fill="none" stroke="#63b8ff" d="M1115.04,-204.83C988.58,-199.83 686.23,-185.6 434.25,-156 414.95,-153.73 393.48,-150.19 376.35,-147.12"/>
<polygon fill="#63b8ff" stroke="#63b8ff" points="377.22,-143.72 366.75,-145.36 375.96,-150.61 377.22,-143.72"/>
</a>
</g>
</g>
<!-- Node28&#45;&gt;Node17 -->
<g id="edge58_Node000028_Node000017" class="edge">
<title>Node28&#45;&gt;Node17</title>
<g id="a_edge58_Node000028_Node000017"><a xlink:title=" ">
<path fill="none" stroke="#63b8ff" d="M1176.58,-191.67C1178.34,-162.96 1178.68,-100.05 1153.25,-56 1146.35,-44.05 1134.92,-34.09 1124.11,-26.6"/>
<polygon fill="#63b8ff" stroke="#63b8ff" points="1126.08,-23.7 1115.77,-21.25 1122.3,-29.6 1126.08,-23.7"/>
</a>
</g>
</g>
<!-- Node28&#45;&gt;Node18 -->
<g id="edge59_Node000028_Node000018" class="edge">
<title>Node28&#45;&gt;Node18</title>
<g id="a_edge59_Node000028_Node000018"><a xlink:title=" ">
<path fill="none" stroke="#63b8ff" d="M1162.84,-191.73C1146.47,-172.69 1115.79,-140.64 1082.25,-124 1021.89,-94.06 945.57,-81.68 890.9,-76.57"/>
<polygon fill="#63b8ff" stroke="#63b8ff" points="891.34,-73.09 881.08,-75.71 890.74,-80.07 891.34,-73.09"/>
</a>
</g>
</g>
<!-- Node28&#45;&gt;Node22 -->
<g id="edge60_Node000028_Node000022" class="edge">
<title>Node28&#45;&gt;Node22</title>
<g id="a_edge60_Node000028_Node000022"><a xlink:title=" ">
<path fill="none" stroke="#63b8ff" d="M1229.41,-191.53C1262.88,-181.96 1306.05,-169.63 1341.35,-159.54"/>
<polygon fill="#63b8ff" stroke="#63b8ff" points="1341.92,-163.02 1350.58,-156.91 1340,-156.29 1341.92,-163.02"/>
</a>
</g>
</g>
<!-- Node28&#45;&gt;Node23 -->
<g id="edge56_Node000028_Node000023" class="edge">
<title>Node28&#45;&gt;Node23</title>
<g id="a_edge56_Node000028_Node000023"><a xlink:title=" ">
<path fill="none" stroke="#63b8ff" d="M1182.15,-191.77C1191.38,-173.07 1209.51,-141.68 1234.25,-124 1277.96,-92.76 1340.86,-80.46 1377.24,-75.77"/>
<polygon fill="#63b8ff" stroke="#63b8ff" points="1377.47,-79.26 1386.99,-74.62 1376.65,-72.31 1377.47,-79.26"/>
</a>
</g>
</g>
<!-- Node29 -->
<g id="Node000029" class="node">
<title>Node29</title>
<g id="a_Node000029"><a xlink:title=" ">
<polygon fill="#e0e0e0" stroke="#999999" points="1283.25,-150 1243.25,-150 1243.25,-130 1283.25,-130 1283.25,-150"/>
<text text-anchor="middle" x="1263.25" y="-136.5" font-family="Helvetica,sans-Serif" font-size="10.00">string</text>
</a>
</g>
</g>
<!-- Node28&#45;&gt;Node29 -->
<g id="edge55_Node000028_Node000029" class="edge">
<title>Node28&#45;&gt;Node29</title>
<g id="a_edge55_Node000028_Node000029"><a xlink:title=" ">
<path fill="none" stroke="#63b8ff" d="M1195.66,-191.69C1209.52,-181.3 1227.82,-167.57 1241.88,-157.03"/>
<polygon fill="#63b8ff" stroke="#63b8ff" points="1243.72,-160.02 1249.62,-151.22 1239.52,-154.42 1243.72,-160.02"/>
</a>
</g>
</g>
<!-- Node30&#45;&gt;Node17 -->
<g id="edge64_Node000030_Node000017" class="edge">
<title>Node30&#45;&gt;Node17</title>
<g id="a_edge64_Node000030_Node000017"><a xlink:title=" ">
<path fill="none" stroke="#63b8ff" d="M1236.82,-259.62C1266.31,-231.88 1319.93,-171.9 1292.25,-124 1260.87,-69.69 1192.37,-39.16 1145.27,-23.88"/>
<polygon fill="#63b8ff" stroke="#63b8ff" points="1146.42,-20.58 1135.83,-20.95 1144.34,-27.26 1146.42,-20.58"/>
</a>
</g>
</g>
<!-- Node30&#45;&gt;Node18 -->
<g id="edge66_Node000030_Node000018" class="edge">
<title>Node30&#45;&gt;Node18</title>
<g id="a_edge66_Node000030_Node000018"><a xlink:title=" ">
<path fill="none" stroke="#63b8ff" d="M1168.7,-259.5C1109.19,-240.08 1008.54,-203.49 930.25,-156 911.37,-144.55 909.72,-137.5 892.25,-124 879.41,-114.07 864.86,-103.62 852.21,-94.78"/>
<polygon fill="#63b8ff" stroke="#63b8ff" points="854.43,-92.06 844.22,-89.24 850.44,-97.82 854.43,-92.06"/>
</a>
</g>
</g>
<!-- Node30&#45;&gt;Node22 -->
<g id="edge65_Node000030_Node000022" class="edge">
<title>Node30&#45;&gt;Node22</title>
<g id="a_edge65_Node000030_Node000022"><a xlink:title=" ">
<path fill="none" stroke="#63b8ff" d="M1259.6,-259.55C1280.2,-250.7 1305.1,-238.48 1325.25,-224 1348.78,-207.09 1371.45,-182.96 1386.8,-165.08"/>
<polygon fill="#63b8ff" stroke="#63b8ff" points="1389.39,-167.43 1393.14,-157.52 1384.03,-162.93 1389.39,-167.43"/>
</a>
</g>
</g>
<!-- Node30&#45;&gt;Node23 -->
<g id="edge63_Node000030_Node000023" class="edge">
<title>Node30&#45;&gt;Node23</title>
<g id="a_edge63_Node000030_Node000023"><a xlink:title=" ">
<path fill="none" stroke="#63b8ff" d="M1278.68,-267.6C1342.28,-256.1 1439.75,-227.23 1482.25,-156 1489.54,-143.79 1488.94,-136.55 1482.25,-124 1472.1,-104.96 1451.33,-91.77 1434.06,-83.58"/>
<polygon fill="#63b8ff" stroke="#63b8ff" points="1435.84,-80.54 1425.28,-79.72 1433.03,-86.95 1435.84,-80.54"/>
</a>
</g>
</g>
<!-- Node30&#45;&gt;Node25 -->
<g id="edge67_Node000030_Node000025" class="edge">
<title>Node30&#45;&gt;Node25</title>
<g id="a_edge67_Node000030_Node000025"><a xlink:title=" ">
<path fill="none" stroke="#63b8ff" d="M1159.86,-265.44C1098.9,-255.52 1001.34,-239.34 917.25,-224 766.27,-196.46 725.98,-188.41 572.8,-156.51"/>
<polygon fill="#63b8ff" stroke="#63b8ff" points="573.56,-153.09 563.05,-154.48 572.13,-159.95 573.56,-153.09"/>
</a>
</g>
</g>
<!-- Node30&#45;&gt;Node28 -->
<g id="edge68_Node000030_Node000028" class="edge">
<title>Node30&#45;&gt;Node28</title>
<g id="a_edge68_Node000030_Node000028"><a xlink:title=" ">
<path fill="none" stroke="#63b8ff" d="M1209.04,-259.69C1203.88,-251.95 1197.48,-242.35 1191.65,-233.6"/>
<polygon fill="#63b8ff" stroke="#63b8ff" points="1194.7,-231.86 1186.24,-225.48 1188.87,-235.75 1194.7,-231.86"/>
</a>
</g>
</g>
<!-- Node30&#45;&gt;Node29 -->
<g id="edge62_Node000030_Node000029" class="edge">
<title>Node30&#45;&gt;Node29</title>
<g id="a_edge62_Node000030_Node000029"><a xlink:title=" ">
<path fill="none" stroke="#63b8ff" d="M1227.87,-259.78C1233.2,-249.84 1239.84,-236.46 1244.25,-224 1251.64,-203.14 1256.88,-178.3 1259.96,-161.27"/>
<polygon fill="#63b8ff" stroke="#63b8ff" points="1263.33,-162.35 1261.57,-151.9 1256.43,-161.17 1263.33,-162.35"/>
</a>
</g>
</g>
<!-- Node31&#45;&gt;Node17 -->
<g id="edge70_Node000031_Node000017" class="edge">
<title>Node31&#45;&gt;Node17</title>
<g id="a_edge70_Node000031_Node000017"><a xlink:title=" ">
<path fill="none" stroke="#63b8ff" d="M1012.72,-129.79C1027.44,-108.86 1063.65,-57.36 1083.21,-29.54"/>
<polygon fill="#63b8ff" stroke="#63b8ff" points="1085.83,-31.9 1088.72,-21.71 1080.11,-27.87 1085.83,-31.9"/>
</a>
</g>
</g>
<!-- Node31&#45;&gt;Node18 -->
<g id="edge71_Node000031_Node000018" class="edge">
<title>Node31&#45;&gt;Node18</title>
<g id="a_edge71_Node000031_Node000018"><a xlink:title=" ">
<path fill="none" stroke="#63b8ff" d="M979.6,-129.54C952.2,-119.82 908.76,-104.41 874.16,-92.13"/>
<polygon fill="#63b8ff" stroke="#63b8ff" points="875.75,-88.98 865.15,-88.93 873.41,-95.58 875.75,-88.98"/>
</a>
</g>
</g>
</g>
</svg>

<g id="navigator" transform="translate(0 0)" fill="#404254">
  <rect fill="#f2f5e9" fill-opacity="0.5" stroke="#606060" stroke-width=".5" x="0" y="0" width="60" height="60"/>
  <use id="zoomplus" xlink:href="#zoomPlus" x="17" y="9" onmousedown="handleZoom(evt,'in')"/>
  <use id="zoomminus" xlink:href="#zoomMin" x="42" y="9" onmousedown="handleZoom(evt,'out')"/>
  <use id="reset" xlink:href="#resetDef" x="30" y="36" onmousedown="handleReset()"/>
   <use id="arrowup" xlink:href="#arrowUp" x="0" y="0" onmousedown="handlePan(0,-1)"/>
  <use id="arrowright" xlink:href="#arrowRight" x="0" y="0" onmousedown="handlePan(1,0)"/>
  <use id="arrowdown" xlink:href="#arrowDown" x="0" y="0" onmousedown="handlePan(0,1)"/>
  <use id="arrowleft" xlink:href="#arrowLeft" x="0" y="0" onmousedown="handlePan(-1,0)"/>
</g>
<svg viewBox="0 0 15 15" width="100%" height="30px" preserveAspectRatio="xMaxYMin meet">
 <g id="arrow_out" transform="scale(0.3 0.3)">
  <a xlink:href="subsystems_8cpp__incl_org.svg" target="_base">
   <rect id="button" ry="5" rx="5" y="6" x="6" height="38" width="38"
        fill="#f2f5e9" fill-opacity="0.5" stroke="#606060" stroke-width="1.0"/>
   <path id="arrow"
     d="M 11.500037,31.436501 C 11.940474,20.09759 22.043105,11.32322 32.158766,21.979434 L 37.068811,17.246167 C 37.068811,17.246167 37.088388,32 37.088388,32 L 22.160133,31.978069 C 22.160133,31.978069 26.997745,27.140456 26.997745,27.140456 C 18.528582,18.264221 13.291696,25.230495 11.500037,31.436501 z"
     style="fill:#404040;"/>
  </a>
 </g>
</svg>

<style type='text/css'>
<![CDATA[
[data-mouse-over-selected='false'] { opacity: 0.7; }
[data-mouse-over-selected='true']  { opacity: 1.0; }
]]>
</style>
<script type="application/ecmascript"><![CDATA[
document.addEventListener('DOMContentLoaded', (event) => {
  highlightEdges();
  highlightAdjacentNodes();
});
]]></script>
</svg>
