<?xml version="1.0" encoding="UTF-8" standalone="no"?>
<!DOCTYPE svg PUBLIC "-//W3C//DTD SVG 1.1//EN"
 "http://www.w3.org/Graphics/SVG/1.1/DTD/svg11.dtd">
<!-- Generated by graphviz version 10.0.1 (20240210.2158)
 -->
<!-- Title: demo/include/subsystems.h Pages: 1 -->
<svg width="1495pt" height="412pt"
 viewBox="0.00 0.00 1494.56 412.00" xmlns="http://www.w3.org/2000/svg" xmlns:xlink="http://www.w3.org/1999/xlink">
<g id="graph0" class="graph" transform="scale(1 1) rotate(0) translate(4 408)">
<title>demo/include/subsystems.h</title>
<!-- Node1 -->
<g id="Node000001" class="node">
<title>Node1</title>
<g id="a_Node000001"><a xlink:title=" ">
<polygon fill="#999999" stroke="#666666" points="590.38,-404 452.12,-404 452.12,-384 590.38,-384 590.38,-404"/>
<text text-anchor="middle" x="521.25" y="-390.5" font-family="Helvetica,sans-Serif" font-size="10.00">demo/include/subsystems.h</text>
</a>
</g>
</g>
<!-- Node2 -->
<g id="Node000002" class="node">
<title>Node2</title>
<g id="a_Node000002"><a xlink:href="hybrid__renderer_8h.html" target="_top" xlink:title=" ">
<polygon fill="white" stroke="#666666" points="566.75,-348 475.75,-348 475.75,-328 566.75,-328 566.75,-348"/>
<text text-anchor="middle" x="521.25" y="-334.5" font-family="Helvetica,sans-Serif" font-size="10.00">hybrid_renderer.h</text>
</a>
</g>
</g>
<!-- Node1&#45;&gt;Node2 -->
<g id="edge1_Node000001_Node000002" class="edge">
<title>Node1&#45;&gt;Node2</title>
<g id="a_edge1_Node000001_Node000002"><a xlink:title=" ">
<path fill="none" stroke="#63b8ff" d="M521.25,-383.59C521.25,-377.01 521.25,-367.96 521.25,-359.73"/>
<polygon fill="#63b8ff" stroke="#63b8ff" points="524.75,-359.81 521.25,-349.81 517.75,-359.81 524.75,-359.81"/>
</a>
</g>
</g>
<!-- Node3 -->
<g id="Node000003" class="node">
<title>Node3</title>
<g id="a_Node000003"><a xlink:href="platform_8h.html" target="_top" xlink:title=" ">
<polygon fill="white" stroke="#666666" points="208.62,-20 149.88,-20 149.88,0 208.62,0 208.62,-20"/>
<text text-anchor="middle" x="179.25" y="-6.5" font-family="Helvetica,sans-Serif" font-size="10.00">platform.h</text>
</a>
</g>
</g>
<!-- Node2&#45;&gt;Node3 -->
<g id="edge2_Node000002_Node000003" class="edge">
<title>Node2&#45;&gt;Node3</title>
<g id="a_edge2_Node000002_Node000003"><a xlink:title=" ">
<path fill="none" stroke="#63b8ff" d="M475.32,-334.58C398.02,-329.86 245.83,-317.55 199.25,-292 164.42,-272.9 154.99,-261.27 141.25,-224 116.06,-155.65 150.84,-68.61 169.19,-30.43"/>
<polygon fill="#63b8ff" stroke="#63b8ff" points="172.27,-32.09 173.6,-21.58 166.01,-28.97 172.27,-32.09"/>
</a>
</g>
</g>
<!-- Node4 -->
<g id="Node000004" class="node">
<title>Node4</title>
<g id="a_Node000004"><a xlink:href="camera_8h.html" target="_top" xlink:title=" ">
<polygon fill="white" stroke="#666666" points="56.5,-286 0,-286 0,-266 56.5,-266 56.5,-286"/>
<text text-anchor="middle" x="28.25" y="-272.5" font-family="Helvetica,sans-Serif" font-size="10.00">camera.h</text>
</a>
</g>
</g>
<!-- Node2&#45;&gt;Node4 -->
<g id="edge3_Node000002_Node000004" class="edge">
<title>Node2&#45;&gt;Node4</title>
<g id="a_edge3_Node000002_Node000004"><a xlink:title=" ">
<path fill="none" stroke="#63b8ff" d="M475.54,-336.1C393.42,-333.68 215.92,-324.76 70.25,-292 67.64,-291.41 64.96,-290.71 62.29,-289.93"/>
<polygon fill="#63b8ff" stroke="#63b8ff" points="63.53,-286.66 52.94,-286.9 61.37,-293.31 63.53,-286.66"/>
</a>
</g>
</g>
<!-- Node5 -->
<g id="Node000005" class="node">
<title>Node5</title>
<g id="a_Node000005"><a xlink:href="hri__math_8h.html" target="_top" xlink:title=" ">
<polygon fill="white" stroke="#666666" points="104.12,-150 42.38,-150 42.38,-130 104.12,-130 104.12,-150"/>
<text text-anchor="middle" x="73.25" y="-136.5" font-family="Helvetica,sans-Serif" font-size="10.00">hri_math.h</text>
</a>
</g>
</g>
<!-- Node2&#45;&gt;Node5 -->
<g id="edge7_Node000002_Node000005" class="edge">
<title>Node2&#45;&gt;Node5</title>
<g id="a_edge7_Node000002_Node000005"><a xlink:title=" ">
<path fill="none" stroke="#63b8ff" d="M475.63,-334.97C373.91,-330.04 135.33,-316.03 108.25,-292 70.93,-258.89 69.31,-194.54 71.25,-161.57"/>
<polygon fill="#63b8ff" stroke="#63b8ff" points="74.73,-161.99 72.02,-151.75 67.75,-161.45 74.73,-161.99"/>
</a>
</g>
</g>
<!-- Node7 -->
<g id="Node000007" class="node">
<title>Node7</title>
<g id="a_Node000007"><a xlink:href="material_8h.html" target="_top" xlink:title=" ">
<polygon fill="white" stroke="#666666" points="208.62,-218 149.88,-218 149.88,-198 208.62,-198 208.62,-218"/>
<text text-anchor="middle" x="179.25" y="-204.5" font-family="Helvetica,sans-Serif" font-size="10.00">material.h</text>
</a>
</g>
</g>
<!-- Node2&#45;&gt;Node7 -->
<g id="edge8_Node000002_Node000007" class="edge">
<title>Node2&#45;&gt;Node7</title>
<g id="a_edge8_Node000002_Node000007"><a xlink:title=" ">
<path fill="none" stroke="#63b8ff" d="M475.5,-334.5C404.17,-329.85 270.55,-317.89 231.25,-292 208.55,-277.05 193.93,-248.41 186.14,-229.01"/>
<polygon fill="#63b8ff" stroke="#63b8ff" points="189.46,-227.9 182.7,-219.74 182.9,-230.34 189.46,-227.9"/>
</a>
</g>
</g>
<!-- Node8 -->
<g id="Node000008" class="node">
<title>Node8</title>
<g id="a_Node000008"><a xlink:href="mesh_8h.html" target="_top" xlink:title=" ">
<polygon fill="white" stroke="#666666" points="275.38,-218 227.12,-218 227.12,-198 275.38,-198 275.38,-218"/>
<text text-anchor="middle" x="251.25" y="-204.5" font-family="Helvetica,sans-Serif" font-size="10.00">mesh.h</text>
</a>
</g>
</g>
<!-- Node2&#45;&gt;Node8 -->
<g id="edge11_Node000002_Node000008" class="edge">
<title>Node2&#45;&gt;Node8</title>
<g id="a_edge11_Node000002_Node000008"><a xlink:title=" ">
<path fill="none" stroke="#63b8ff" d="M475.29,-329.46C441.39,-322.71 394.84,-310.91 357.25,-292 322.67,-274.6 288.46,-244.97 268.62,-226.22"/>
<polygon fill="#63b8ff" stroke="#63b8ff" points="271.28,-223.93 261.66,-219.51 266.43,-228.97 271.28,-223.93"/>
</a>
</g>
</g>
<!-- Node11 -->
<g id="Node000011" class="node">
<title>Node11</title>
<g id="a_Node000011"><a xlink:href="scene_8h.html" target="_top" xlink:title=" ">
<polygon fill="white" stroke="#666666" points="290.5,-286 240,-286 240,-266 290.5,-266 290.5,-286"/>
<text text-anchor="middle" x="265.25" y="-272.5" font-family="Helvetica,sans-Serif" font-size="10.00">scene.h</text>
</a>
</g>
</g>
<!-- Node2&#45;&gt;Node11 -->
<g id="edge15_Node000002_Node000011" class="edge">
<title>Node2&#45;&gt;Node11</title>
<g id="a_edge15_Node000002_Node000011"><a xlink:title=" ">
<path fill="none" stroke="#63b8ff" d="M475.28,-327.73C433.8,-319.16 371.2,-305.72 317.25,-292 312.25,-290.73 307,-289.31 301.84,-287.87"/>
<polygon fill="#63b8ff" stroke="#63b8ff" points="302.85,-284.52 292.27,-285.14 300.93,-291.25 302.85,-284.52"/>
</a>
</g>
</g>
<!-- Node12 -->
<g id="Node000012" class="node">
<title>Node12</title>
<g id="a_Node000012"><a xlink:href="texture_8h.html" target="_top" xlink:title=" ">
<polygon fill="white" stroke="#666666" points="420.38,-286 366.12,-286 366.12,-266 420.38,-266 420.38,-286"/>
<text text-anchor="middle" x="393.25" y="-272.5" font-family="Helvetica,sans-Serif" font-size="10.00">texture.h</text>
</a>
</g>
</g>
<!-- Node2&#45;&gt;Node12 -->
<g id="edge19_Node000002_Node000012" class="edge">
<title>Node2&#45;&gt;Node12</title>
<g id="a_edge19_Node000002_Node000012"><a xlink:title=" ">
<path fill="none" stroke="#63b8ff" d="M501.25,-327.62C480.4,-317.85 447.46,-302.41 423.44,-291.15"/>
<polygon fill="#63b8ff" stroke="#63b8ff" points="425.02,-288.03 414.48,-286.95 422.05,-294.37 425.02,-288.03"/>
</a>
</g>
</g>
<!-- Node14 -->
<g id="Node000014" class="node">
<title>Node14</title>
<g id="a_Node000014"><a xlink:href="buffer_8h.html" target="_top" xlink:title=" ">
<polygon fill="white" stroke="#666666" points="882.5,-150 760,-150 760,-130 882.5,-130 882.5,-150"/>
<text text-anchor="middle" x="821.25" y="-136.5" font-family="Helvetica,sans-Serif" font-size="10.00">renderer_internal/buffer.h</text>
</a>
</g>
</g>
<!-- Node2&#45;&gt;Node14 -->
<g id="edge22_Node000002_Node000014" class="edge">
<title>Node2&#45;&gt;Node14</title>
<g id="a_edge22_Node000002_Node000014"><a xlink:title=" ">
<path fill="none" stroke="#63b8ff" d="M567.24,-337.35C645.08,-336.85 797.67,-330.81 831.25,-292 863.25,-255.02 843.43,-191.98 830.23,-160.34"/>
<polygon fill="#63b8ff" stroke="#63b8ff" points="833.61,-159.33 826.38,-151.59 827.2,-162.15 833.61,-159.33"/>
</a>
</g>
</g>
<!-- Node17 -->
<g id="Node000017" class="node">
<title>Node17</title>
<g id="a_Node000017"><a xlink:href="render__context_8h.html" target="_top" xlink:title=" ">
<polygon fill="white" stroke="#666666" points="878.25,-88 760.25,-88 760.25,-56 878.25,-56 878.25,-88"/>
<text text-anchor="start" x="768.25" y="-74.5" font-family="Helvetica,sans-Serif" font-size="10.00">renderer_internal/render</text>
<text text-anchor="middle" x="819.25" y="-62.5" font-family="Helvetica,sans-Serif" font-size="10.00">_context.h</text>
</a>
</g>
</g>
<!-- Node2&#45;&gt;Node17 -->
<g id="edge40_Node000002_Node000017" class="edge">
<title>Node2&#45;&gt;Node17</title>
<g id="a_edge40_Node000002_Node000017"><a xlink:title=" ">
<path fill="none" stroke="#63b8ff" d="M566.84,-332.15C617.77,-325.8 695.77,-312.92 716.25,-292 769.6,-237.5 710.33,-188.36 751.25,-124 758.54,-112.54 769.37,-102.73 780.27,-94.86"/>
<polygon fill="#63b8ff" stroke="#63b8ff" points="782.18,-97.79 788.51,-89.3 778.26,-91.99 782.18,-97.79"/>
</a>
</g>
</g>
<!-- Node21 -->
<g id="Node000021" class="node">
<title>Node21</title>
<g id="a_Node000021"><a xlink:href="descriptor__management_8h.html" target="_top" xlink:title=" ">
<polygon fill="white" stroke="#666666" points="1472.12,-156 1338.38,-156 1338.38,-124 1472.12,-124 1472.12,-156"/>
<text text-anchor="start" x="1346.38" y="-142.5" font-family="Helvetica,sans-Serif" font-size="10.00">renderer_internal/descriptor</text>
<text text-anchor="middle" x="1405.25" y="-130.5" font-family="Helvetica,sans-Serif" font-size="10.00">_management.h</text>
</a>
</g>
</g>
<!-- Node2&#45;&gt;Node21 -->
<g id="edge32_Node000002_Node000021" class="edge">
<title>Node2&#45;&gt;Node21</title>
<g id="a_edge32_Node000002_Node000021"><a xlink:title=" ">
<path fill="none" stroke="#63b8ff" d="M567.14,-337.11C728.93,-337.13 1266.49,-334.02 1330.25,-292 1373.32,-263.62 1392.63,-202.76 1400.49,-167.58"/>
<polygon fill="#63b8ff" stroke="#63b8ff" points="1403.91,-168.29 1402.5,-157.79 1397.06,-166.88 1403.91,-168.29"/>
</a>
</g>
</g>
<!-- Node23 -->
<g id="Node000023" class="node">
<title>Node23</title>
<g id="a_Node000023"><a xlink:href="image_8h.html" target="_top" xlink:title=" ">
<polygon fill="white" stroke="#666666" points="704,-150 578.5,-150 578.5,-130 704,-130 704,-150"/>
<text text-anchor="middle" x="641.25" y="-136.5" font-family="Helvetica,sans-Serif" font-size="10.00">renderer_internal/image.h</text>
</a>
</g>
</g>
<!-- Node2&#45;&gt;Node23 -->
<g id="edge36_Node000002_Node000023" class="edge">
<title>Node2&#45;&gt;Node23</title>
<g id="a_edge36_Node000002_Node000023"><a xlink:title=" ">
<path fill="none" stroke="#63b8ff" d="M527.04,-327.55C545.69,-297.08 604.47,-201.08 629.63,-159.98"/>
<polygon fill="#63b8ff" stroke="#63b8ff" points="632.49,-162.01 634.73,-151.65 626.52,-158.35 632.49,-162.01"/>
</a>
</g>
</g>
<!-- Node24 -->
<g id="Node000024" class="node">
<title>Node24</title>
<g id="a_Node000024"><a xlink:href="render__core_8h.html" target="_top" xlink:title=" ">
<polygon fill="white" stroke="#666666" points="560.25,-156 442.25,-156 442.25,-124 560.25,-124 560.25,-156"/>
<text text-anchor="start" x="450.25" y="-142.5" font-family="Helvetica,sans-Serif" font-size="10.00">renderer_internal/render</text>
<text text-anchor="middle" x="501.25" y="-130.5" font-family="Helvetica,sans-Serif" font-size="10.00">_core.h</text>
</a>
</g>
</g>
<!-- Node2&#45;&gt;Node24 -->
<g id="edge41_Node000002_Node000024" class="edge">
<title>Node2&#45;&gt;Node24</title>
<g id="a_edge41_Node000002_Node000024"><a xlink:title=" ">
<path fill="none" stroke="#63b8ff" d="M520.29,-327.55C517.35,-298.82 508.48,-211.81 503.96,-167.52"/>
<polygon fill="#63b8ff" stroke="#63b8ff" points="507.46,-167.34 502.96,-157.75 500.49,-168.05 507.46,-167.34"/>
</a>
</g>
</g>
<!-- Node25 -->
<g id="Node000025" class="node">
<title>Node25</title>
<g id="a_Node000025"><a xlink:href="render__pass_8h.html" target="_top" xlink:title=" ">
<polygon fill="white" stroke="#666666" points="707.25,-292 589.25,-292 589.25,-260 707.25,-260 707.25,-292"/>
<text text-anchor="start" x="597.25" y="-278.5" font-family="Helvetica,sans-Serif" font-size="10.00">renderer_internal/render</text>
<text text-anchor="middle" x="648.25" y="-266.5" font-family="Helvetica,sans-Serif" font-size="10.00">_pass.h</text>
</a>
</g>
</g>
<!-- Node2&#45;&gt;Node25 -->
<g id="edge46_Node000002_Node000025" class="edge">
<title>Node2&#45;&gt;Node25</title>
<g id="a_edge46_Node000002_Node000025"><a xlink:title=" ">
<path fill="none" stroke="#63b8ff" d="M541.09,-327.62C558.24,-319.52 583.62,-307.53 605.37,-297.26"/>
<polygon fill="#63b8ff" stroke="#63b8ff" points="606.79,-300.46 614.34,-293.02 603.8,-294.13 606.79,-300.46"/>
</a>
</g>
</g>
<!-- Node27 -->
<g id="Node000027" class="node">
<title>Node27</title>
<g id="a_Node000027"><a xlink:href="shader__database_8h.html" target="_top" xlink:title=" ">
<polygon fill="white" stroke="#666666" points="1234.38,-224 1114.12,-224 1114.12,-192 1234.38,-192 1234.38,-224"/>
<text text-anchor="start" x="1122.12" y="-210.5" font-family="Helvetica,sans-Serif" font-size="10.00">renderer_internal/shader</text>
<text text-anchor="middle" x="1174.25" y="-198.5" font-family="Helvetica,sans-Serif" font-size="10.00">_database.h</text>
</a>
</g>
</g>
<!-- Node2&#45;&gt;Node27 -->
<g id="edge71_Node000002_Node000027" class="edge">
<title>Node2&#45;&gt;Node27</title>
<g id="a_edge71_Node000002_Node000027"><a xlink:title=" ">
<path fill="none" stroke="#63b8ff" d="M567.15,-334.41C639.93,-329.68 785.97,-317.69 907.25,-292 983.67,-275.81 1069.51,-247.18 1122.73,-228.15"/>
<polygon fill="#63b8ff" stroke="#63b8ff" points="1123.61,-231.55 1131.83,-224.87 1121.24,-224.97 1123.61,-231.55"/>
</a>
</g>
</g>
<!-- Node29 -->
<g id="Node000029" class="node">
<title>Node29</title>
<g id="a_Node000029"><a xlink:href="render__system_8h.html" target="_top" xlink:title=" ">
<polygon fill="white" stroke="#666666" points="1321.25,-292 1203.25,-292 1203.25,-260 1321.25,-260 1321.25,-292"/>
<text text-anchor="start" x="1211.25" y="-278.5" font-family="Helvetica,sans-Serif" font-size="10.00">renderer_internal/render</text>
<text text-anchor="middle" x="1262.25" y="-266.5" font-family="Helvetica,sans-Serif" font-size="10.00">_system.h</text>
</a>
</g>
</g>
<!-- Node2&#45;&gt;Node29 -->
<g id="edge60_Node000002_Node000029" class="edge">
<title>Node2&#45;&gt;Node29</title>
<g id="a_edge60_Node000002_Node000029"><a xlink:title=" ">
<path fill="none" stroke="#63b8ff" d="M567.04,-333.29C692.28,-323.15 1041.14,-294.9 1191.64,-282.72"/>
<polygon fill="#63b8ff" stroke="#63b8ff" points="1191.8,-286.22 1201.49,-281.92 1191.24,-279.24 1191.8,-286.22"/>
</a>
</g>
</g>
<!-- Node30 -->
<g id="Node000030" class="node">
<title>Node30</title>
<g id="a_Node000030"><a xlink:href="sampler_8h.html" target="_top" xlink:title=" ">
<polygon fill="white" stroke="#666666" points="1072.12,-150 938.38,-150 938.38,-130 1072.12,-130 1072.12,-150"/>
<text text-anchor="middle" x="1005.25" y="-136.5" font-family="Helvetica,sans-Serif" font-size="10.00">renderer_internal/sampler.h</text>
</a>
</g>
</g>
<!-- Node2&#45;&gt;Node30 -->
<g id="edge68_Node000002_Node000030" class="edge">
<title>Node2&#45;&gt;Node30</title>
<g id="a_edge68_Node000002_Node000030"><a xlink:title=" ">
<path fill="none" stroke="#63b8ff" d="M566.98,-334.36C645.68,-329.22 803,-316.21 852.25,-292 916.02,-260.65 969.56,-192.41 992.82,-159.49"/>
<polygon fill="#63b8ff" stroke="#63b8ff" points="995.62,-161.6 998.42,-151.38 989.86,-157.62 995.62,-161.6"/>
</a>
</g>
</g>
<!-- Node4&#45;&gt;Node5 -->
<g id="edge4_Node000004_Node000005" class="edge">
<title>Node4&#45;&gt;Node5</title>
<g id="a_edge4_Node000004_Node000005"><a xlink:title=" ">
<path fill="none" stroke="#63b8ff" d="M31.34,-265.79C38.57,-244.27 56.69,-190.31 66.57,-160.89"/>
<polygon fill="#63b8ff" stroke="#63b8ff" points="69.79,-162.3 69.65,-151.71 63.15,-160.08 69.79,-162.3"/>
</a>
</g>
</g>
<!-- Node5&#45;&gt;Node3 -->
<g id="edge6_Node000005_Node000003" class="edge">
<title>Node5&#45;&gt;Node3</title>
<g id="a_edge6_Node000005_Node000003"><a xlink:title=" ">
<path fill="none" stroke="#63b8ff" d="M66.17,-129.64C54.72,-113.27 34.96,-78.99 51.25,-56 70.84,-28.34 108.85,-17.56 138.38,-13.42"/>
<polygon fill="#63b8ff" stroke="#63b8ff" points="138.61,-16.92 148.13,-12.27 137.79,-9.96 138.61,-16.92"/>
</a>
</g>
</g>
<!-- Node6 -->
<g id="Node000006" class="node">
<title>Node6</title>
<g id="a_Node000006"><a xlink:title=" ">
<polygon fill="#e0e0e0" stroke="#999999" points="103.75,-82 60.75,-82 60.75,-62 103.75,-62 103.75,-82"/>
<text text-anchor="middle" x="82.25" y="-68.5" font-family="Helvetica,sans-Serif" font-size="10.00">cmath</text>
</a>
</g>
</g>
<!-- Node5&#45;&gt;Node6 -->
<g id="edge5_Node000005_Node000006" class="edge">
<title>Node5&#45;&gt;Node6</title>
<g id="a_edge5_Node000005_Node000006"><a xlink:title=" ">
<path fill="none" stroke="#63b8ff" d="M74.54,-129.54C75.81,-120.23 77.79,-105.7 79.43,-93.7"/>
<polygon fill="#63b8ff" stroke="#63b8ff" points="82.88,-94.32 80.76,-83.94 75.94,-93.37 82.88,-94.32"/>
</a>
</g>
</g>
<!-- Node7&#45;&gt;Node3 -->
<g id="edge9_Node000007_Node000003" class="edge">
<title>Node7&#45;&gt;Node3</title>
<g id="a_edge9_Node000007_Node000003"><a xlink:title=" ">
<path fill="none" stroke="#63b8ff" d="M179.25,-197.55C179.25,-167.54 179.25,-73.92 179.25,-31.85"/>
<polygon fill="#63b8ff" stroke="#63b8ff" points="182.75,-31.87 179.25,-21.87 175.75,-31.87 182.75,-31.87"/>
</a>
</g>
</g>
<!-- Node7&#45;&gt;Node5 -->
<g id="edge10_Node000007_Node000005" class="edge">
<title>Node7&#45;&gt;Node5</title>
<g id="a_edge10_Node000007_Node000005"><a xlink:title=" ">
<path fill="none" stroke="#63b8ff" d="M164.06,-197.54C146.82,-186.81 118.45,-169.14 98,-156.41"/>
<polygon fill="#63b8ff" stroke="#63b8ff" points="100.03,-153.55 89.69,-151.24 96.33,-159.5 100.03,-153.55"/>
</a>
</g>
</g>
<!-- Node8&#45;&gt;Node5 -->
<g id="edge14_Node000008_Node000005" class="edge">
<title>Node8&#45;&gt;Node5</title>
<g id="a_edge14_Node000008_Node000005"><a xlink:title=" ">
<path fill="none" stroke="#63b8ff" d="M230.5,-197.55C226.15,-195.65 221.57,-193.71 217.25,-192 182.17,-178.07 141.59,-163.87 112.47,-154"/>
<polygon fill="#63b8ff" stroke="#63b8ff" points="113.93,-150.8 103.33,-150.92 111.69,-157.43 113.93,-150.8"/>
</a>
</g>
</g>
<!-- Node9 -->
<g id="Node000009" class="node">
<title>Node9</title>
<g id="a_Node000009"><a xlink:title=" ">
<polygon fill="#e0e0e0" stroke="#999999" points="306.88,-150 261.62,-150 261.62,-130 306.88,-130 306.88,-150"/>
<text text-anchor="middle" x="284.25" y="-136.5" font-family="Helvetica,sans-Serif" font-size="10.00">cstdint</text>
</a>
</g>
</g>
<!-- Node8&#45;&gt;Node9 -->
<g id="edge12_Node000008_Node000009" class="edge">
<title>Node8&#45;&gt;Node9</title>
<g id="a_edge12_Node000008_Node000009"><a xlink:title=" ">
<path fill="none" stroke="#63b8ff" d="M255.98,-197.54C260.78,-187.94 268.36,-172.78 274.46,-160.57"/>
<polygon fill="#63b8ff" stroke="#63b8ff" points="277.51,-162.3 278.85,-151.79 271.25,-159.17 277.51,-162.3"/>
</a>
</g>
</g>
<!-- Node10 -->
<g id="Node000010" class="node">
<title>Node10</title>
<g id="a_Node000010"><a xlink:title=" ">
<polygon fill="#e0e0e0" stroke="#999999" points="383,-150 341.5,-150 341.5,-130 383,-130 383,-150"/>
<text text-anchor="middle" x="362.25" y="-136.5" font-family="Helvetica,sans-Serif" font-size="10.00">vector</text>
</a>
</g>
</g>
<!-- Node8&#45;&gt;Node10 -->
<g id="edge13_Node000008_Node000010" class="edge">
<title>Node8&#45;&gt;Node10</title>
<g id="a_edge13_Node000008_Node000010"><a xlink:title=" ">
<path fill="none" stroke="#63b8ff" d="M267.15,-197.54C285.29,-186.76 315.19,-168.98 336.62,-156.24"/>
<polygon fill="#63b8ff" stroke="#63b8ff" points="338.27,-159.33 345.07,-151.21 334.69,-153.31 338.27,-159.33"/>
</a>
</g>
</g>
<!-- Node11&#45;&gt;Node7 -->
<g id="edge17_Node000011_Node000007" class="edge">
<title>Node11&#45;&gt;Node7</title>
<g id="a_edge17_Node000011_Node000007"><a xlink:title=" ">
<path fill="none" stroke="#63b8ff" d="M252.93,-265.54C239.26,-255.06 216.97,-237.95 200.48,-225.29"/>
<polygon fill="#63b8ff" stroke="#63b8ff" points="202.81,-222.67 192.75,-219.36 198.55,-228.22 202.81,-222.67"/>
</a>
</g>
</g>
<!-- Node11&#45;&gt;Node8 -->
<g id="edge18_Node000011_Node000008" class="edge">
<title>Node11&#45;&gt;Node8</title>
<g id="a_edge18_Node000011_Node000008"><a xlink:title=" ">
<path fill="none" stroke="#63b8ff" d="M263.24,-265.54C261.25,-256.13 258.12,-241.39 255.56,-229.32"/>
<polygon fill="#63b8ff" stroke="#63b8ff" points="259.07,-228.98 253.57,-219.92 252.22,-230.43 259.07,-228.98"/>
</a>
</g>
</g>
<!-- Node11&#45;&gt;Node10 -->
<g id="edge16_Node000011_Node000010" class="edge">
<title>Node11&#45;&gt;Node10</title>
<g id="a_edge16_Node000011_Node000010"><a xlink:title=" ">
<path fill="none" stroke="#63b8ff" d="M271.92,-265.79C287.77,-243.89 327.95,-188.38 348.97,-159.34"/>
<polygon fill="#63b8ff" stroke="#63b8ff" points="351.62,-161.65 354.65,-151.5 345.95,-157.55 351.62,-161.65"/>
</a>
</g>
</g>
<!-- Node12&#45;&gt;Node9 -->
<g id="edge21_Node000012_Node000009" class="edge">
<title>Node12&#45;&gt;Node9</title>
<g id="a_edge21_Node000012_Node000009"><a xlink:title=" ">
<path fill="none" stroke="#63b8ff" d="M385.76,-265.79C367.87,-243.8 322.4,-187.9 298.86,-158.97"/>
<polygon fill="#63b8ff" stroke="#63b8ff" points="301.78,-157 292.75,-151.45 296.34,-161.42 301.78,-157"/>
</a>
</g>
</g>
<!-- Node13 -->
<g id="Node000013" class="node">
<title>Node13</title>
<g id="a_Node000013"><a xlink:title=" ">
<polygon fill="#e0e0e0" stroke="#999999" points="417,-218 369.5,-218 369.5,-198 417,-198 417,-218"/>
<text text-anchor="middle" x="393.25" y="-204.5" font-family="Helvetica,sans-Serif" font-size="10.00">cstddef</text>
</a>
</g>
</g>
<!-- Node12&#45;&gt;Node13 -->
<g id="edge20_Node000012_Node000013" class="edge">
<title>Node12&#45;&gt;Node13</title>
<g id="a_edge20_Node000012_Node000013"><a xlink:title=" ">
<path fill="none" stroke="#63b8ff" d="M393.25,-265.54C393.25,-256.23 393.25,-241.7 393.25,-229.7"/>
<polygon fill="#63b8ff" stroke="#63b8ff" points="396.75,-229.95 393.25,-219.95 389.75,-229.95 396.75,-229.95"/>
</a>
</g>
</g>
<!-- Node15 -->
<g id="Node000015" class="node">
<title>Node15</title>
<g id="a_Node000015"><a xlink:title=" ">
<polygon fill="#e0e0e0" stroke="#999999" points="684.12,-20 598.38,-20 598.38,0 684.12,0 684.12,-20"/>
<text text-anchor="middle" x="641.25" y="-6.5" font-family="Helvetica,sans-Serif" font-size="10.00">vk_mem_alloc.h</text>
</a>
</g>
</g>
<!-- Node14&#45;&gt;Node15 -->
<g id="edge23_Node000014_Node000015" class="edge">
<title>Node14&#45;&gt;Node15</title>
<g id="a_edge23_Node000014_Node000015"><a xlink:title=" ">
<path fill="none" stroke="#63b8ff" d="M808.01,-129.59C777.46,-107.86 701.71,-54 663.73,-26.98"/>
<polygon fill="#63b8ff" stroke="#63b8ff" points="665.92,-24.25 655.74,-21.3 661.86,-29.95 665.92,-24.25"/>
</a>
</g>
</g>
<!-- Node16 -->
<g id="Node000016" class="node">
<title>Node16</title>
<g id="a_Node000016"><a xlink:title=" ">
<polygon fill="#e0e0e0" stroke="#999999" points="1144.88,-20 1063.62,-20 1063.62,0 1144.88,0 1144.88,-20"/>
<text text-anchor="middle" x="1104.25" y="-6.5" font-family="Helvetica,sans-Serif" font-size="10.00">vulkan/vulkan.h</text>
</a>
</g>
</g>
<!-- Node14&#45;&gt;Node16 -->
<g id="edge24_Node000014_Node000016" class="edge">
<title>Node14&#45;&gt;Node16</title>
<g id="a_edge24_Node000014_Node000016"><a xlink:title=" ">
<path fill="none" stroke="#63b8ff" d="M842.06,-129.59C891.23,-107.35 1014.8,-51.46 1073.01,-25.13"/>
<polygon fill="#63b8ff" stroke="#63b8ff" points="1074.36,-28.36 1082.03,-21.05 1071.48,-21.98 1074.36,-28.36"/>
</a>
</g>
</g>
<!-- Node14&#45;&gt;Node17 -->
<g id="edge25_Node000014_Node000017" class="edge">
<title>Node14&#45;&gt;Node17</title>
<g id="a_edge25_Node000014_Node000017"><a xlink:title=" ">
<path fill="none" stroke="#63b8ff" d="M820.96,-129.54C820.73,-121.72 820.38,-110.22 820.06,-99.63"/>
<polygon fill="#63b8ff" stroke="#63b8ff" points="823.56,-99.7 819.76,-89.81 816.56,-99.92 823.56,-99.7"/>
</a>
</g>
</g>
<!-- Node17&#45;&gt;Node3 -->
<g id="edge27_Node000017_Node000003" class="edge">
<title>Node17&#45;&gt;Node3</title>
<g id="a_edge27_Node000017_Node000003"><a xlink:title=" ">
<path fill="none" stroke="#63b8ff" d="M759.9,-65.44C631.34,-53.38 329.86,-25.12 220.12,-14.83"/>
<polygon fill="#63b8ff" stroke="#63b8ff" points="220.7,-11.37 210.41,-13.92 220.04,-18.34 220.7,-11.37"/>
</a>
</g>
</g>
<!-- Node17&#45;&gt;Node15 -->
<g id="edge30_Node000017_Node000015" class="edge">
<title>Node17&#45;&gt;Node15</title>
<g id="a_edge30_Node000017_Node000015"><a xlink:title=" ">
<path fill="none" stroke="#63b8ff" d="M773.41,-55.55C744.53,-45.81 707.65,-33.38 680.19,-24.13"/>
<polygon fill="#63b8ff" stroke="#63b8ff" points="681.45,-20.86 670.86,-20.98 679.21,-27.49 681.45,-20.86"/>
</a>
</g>
</g>
<!-- Node17&#45;&gt;Node16 -->
<g id="edge31_Node000017_Node000016" class="edge">
<title>Node17&#45;&gt;Node16</title>
<g id="a_edge31_Node000017_Node000016"><a xlink:title=" ">
<path fill="none" stroke="#63b8ff" d="M878.65,-58.5C929.95,-47.69 1003.35,-32.24 1052.34,-21.93"/>
<polygon fill="#63b8ff" stroke="#63b8ff" points="1052.78,-25.41 1061.85,-19.93 1051.34,-18.56 1052.78,-25.41"/>
</a>
</g>
</g>
<!-- Node18 -->
<g id="Node000018" class="node">
<title>Node18</title>
<g id="a_Node000018"><a xlink:href="config_8h.html" target="_top" xlink:title=" ">
<polygon fill="white" stroke="#666666" points="828.12,-20 778.38,-20 778.38,0 828.12,0 828.12,-20"/>
<text text-anchor="middle" x="803.25" y="-6.5" font-family="Helvetica,sans-Serif" font-size="10.00">config.h</text>
</a>
</g>
</g>
<!-- Node17&#45;&gt;Node18 -->
<g id="edge26_Node000017_Node000018" class="edge">
<title>Node17&#45;&gt;Node18</title>
<g id="a_edge26_Node000017_Node000018"><a xlink:title=" ">
<path fill="none" stroke="#63b8ff" d="M815.13,-55.55C813.16,-48.17 810.78,-39.24 808.67,-31.32"/>
<polygon fill="#63b8ff" stroke="#63b8ff" points="812.11,-30.63 806.15,-21.87 805.34,-32.43 812.11,-30.63"/>
</a>
</g>
</g>
<!-- Node19 -->
<g id="Node000019" class="node">
<title>Node19</title>
<g id="a_Node000019"><a xlink:title=" ">
<polygon fill="#e0e0e0" stroke="#999999" points="759.88,-20 702.62,-20 702.62,0 759.88,0 759.88,-20"/>
<text text-anchor="middle" x="731.25" y="-6.5" font-family="Helvetica,sans-Serif" font-size="10.00">functional</text>
</a>
</g>
</g>
<!-- Node17&#45;&gt;Node19 -->
<g id="edge28_Node000017_Node000019" class="edge">
<title>Node17&#45;&gt;Node19</title>
<g id="a_edge28_Node000017_Node000019"><a xlink:title=" ">
<path fill="none" stroke="#63b8ff" d="M796.59,-55.55C783.6,-46.69 767.34,-35.61 754.29,-26.71"/>
<polygon fill="#63b8ff" stroke="#63b8ff" points="756.53,-24 746.3,-21.26 752.59,-29.79 756.53,-24"/>
</a>
</g>
</g>
<!-- Node20 -->
<g id="Node000020" class="node">
<title>Node20</title>
<g id="a_Node000020"><a xlink:title=" ">
<polygon fill="#e0e0e0" stroke="#999999" points="924.38,-20 846.12,-20 846.12,0 924.38,0 924.38,-20"/>
<text text-anchor="middle" x="885.25" y="-6.5" font-family="Helvetica,sans-Serif" font-size="10.00">VkBootstrap.h</text>
</a>
</g>
</g>
<!-- Node17&#45;&gt;Node20 -->
<g id="edge29_Node000017_Node000020" class="edge">
<title>Node17&#45;&gt;Node20</title>
<g id="a_edge29_Node000017_Node000020"><a xlink:title=" ">
<path fill="none" stroke="#63b8ff" d="M836.25,-55.55C845.51,-47.13 856.99,-36.69 866.51,-28.04"/>
<polygon fill="#63b8ff" stroke="#63b8ff" points="868.74,-30.74 873.78,-21.43 864.03,-25.56 868.74,-30.74"/>
</a>
</g>
</g>
<!-- Node21&#45;&gt;Node16 -->
<g id="edge34_Node000021_Node000016" class="edge">
<title>Node21&#45;&gt;Node16</title>
<g id="a_edge34_Node000021_Node000016"><a xlink:title=" ">
<path fill="none" stroke="#63b8ff" d="M1394.87,-123.75C1381.07,-104.73 1354.82,-72.69 1324.25,-56 1271.73,-27.33 1203.1,-16.86 1156.56,-13.08"/>
<polygon fill="#63b8ff" stroke="#63b8ff" points="1156.96,-9.6 1146.74,-12.36 1156.46,-16.58 1156.96,-9.6"/>
</a>
</g>
</g>
<!-- Node21&#45;&gt;Node17 -->
<g id="edge35_Node000021_Node000017" class="edge">
<title>Node21&#45;&gt;Node17</title>
<g id="a_edge35_Node000021_Node000017"><a xlink:title=" ">
<path fill="none" stroke="#63b8ff" d="M1338.07,-129.9C1322.69,-127.89 1306.41,-125.82 1291.25,-124 1149.01,-106.96 982.33,-89.55 889.97,-80.12"/>
<polygon fill="#63b8ff" stroke="#63b8ff" points="890.35,-76.65 880.04,-79.11 889.64,-83.61 890.35,-76.65"/>
</a>
</g>
</g>
<!-- Node22 -->
<g id="Node000022" class="node">
<title>Node22</title>
<g id="a_Node000022"><a xlink:title=" ">
<polygon fill="#e0e0e0" stroke="#999999" points="1422.62,-82 1387.88,-82 1387.88,-62 1422.62,-62 1422.62,-82"/>
<text text-anchor="middle" x="1405.25" y="-68.5" font-family="Helvetica,sans-Serif" font-size="10.00">map</text>
</a>
</g>
</g>
<!-- Node21&#45;&gt;Node22 -->
<g id="edge33_Node000021_Node000022" class="edge">
<title>Node21&#45;&gt;Node22</title>
<g id="a_edge33_Node000021_Node000022"><a xlink:title=" ">
<path fill="none" stroke="#63b8ff" d="M1405.25,-123.69C1405.25,-114.8 1405.25,-103.46 1405.25,-93.77"/>
<polygon fill="#63b8ff" stroke="#63b8ff" points="1408.75,-93.83 1405.25,-83.83 1401.75,-93.83 1408.75,-93.83"/>
</a>
</g>
</g>
<!-- Node23&#45;&gt;Node15 -->
<g id="edge37_Node000023_Node000015" class="edge">
<title>Node23&#45;&gt;Node15</title>
<g id="a_edge37_Node000023_Node000015"><a xlink:title=" ">
<path fill="none" stroke="#63b8ff" d="M641.25,-129.79C641.25,-109.41 641.25,-60.05 641.25,-31.79"/>
<polygon fill="#63b8ff" stroke="#63b8ff" points="644.75,-31.98 641.25,-21.98 637.75,-31.98 644.75,-31.98"/>
</a>
</g>
</g>
<!-- Node23&#45;&gt;Node16 -->
<g id="edge38_Node000023_Node000016" class="edge">
<title>Node23&#45;&gt;Node16</title>
<g id="a_edge38_Node000023_Node000016"><a xlink:title=" ">
<path fill="none" stroke="#63b8ff" d="M650.19,-129.56C667.68,-111.74 708.48,-73.41 751.25,-56 804.53,-34.31 967.12,-20.36 1051.77,-14.37"/>
<polygon fill="#63b8ff" stroke="#63b8ff" points="1051.93,-17.87 1061.67,-13.68 1051.45,-10.89 1051.93,-17.87"/>
</a>
</g>
</g>
<!-- Node23&#45;&gt;Node17 -->
<g id="edge39_Node000023_Node000017" class="edge">
<title>Node23&#45;&gt;Node17</title>
<g id="a_edge39_Node000023_Node000017"><a xlink:title=" ">
<path fill="none" stroke="#63b8ff" d="M666.75,-129.54C692.86,-119.86 734.18,-104.54 767.23,-92.29"/>
<polygon fill="#63b8ff" stroke="#63b8ff" points="768.06,-95.71 776.22,-88.95 765.63,-89.15 768.06,-95.71"/>
</a>
</g>
</g>
<!-- Node24&#45;&gt;Node3 -->
<g id="edge44_Node000024_Node000003" class="edge">
<title>Node24&#45;&gt;Node3</title>
<g id="a_edge44_Node000024_Node000003"><a xlink:title=" ">
<path fill="none" stroke="#63b8ff" d="M462.41,-123.56C398.95,-98.33 274.06,-48.69 213.63,-24.67"/>
<polygon fill="#63b8ff" stroke="#63b8ff" points="215.11,-21.49 204.53,-21.05 212.53,-27.99 215.11,-21.49"/>
</a>
</g>
</g>
<!-- Node24&#45;&gt;Node17 -->
<g id="edge45_Node000024_Node000017" class="edge">
<title>Node24&#45;&gt;Node17</title>
<g id="a_edge45_Node000024_Node000017"><a xlink:title=" ">
<path fill="none" stroke="#63b8ff" d="M560.58,-125.86C563.51,-125.22 566.41,-124.6 569.25,-124 629.78,-111.15 698.68,-97.14 748.81,-87.06"/>
<polygon fill="#63b8ff" stroke="#63b8ff" points="749.24,-90.54 758.36,-85.14 747.87,-83.68 749.24,-90.54"/>
</a>
</g>
</g>
<!-- Node24&#45;&gt;Node18 -->
<g id="edge43_Node000024_Node000018" class="edge">
<title>Node24&#45;&gt;Node18</title>
<g id="a_edge43_Node000024_Node000018"><a xlink:title=" ">
<path fill="none" stroke="#63b8ff" d="M537.68,-123.56C596.95,-98.44 713.36,-49.1 770.3,-24.97"/>
<polygon fill="#63b8ff" stroke="#63b8ff" points="771.63,-28.2 779.47,-21.08 768.9,-21.76 771.63,-28.2"/>
</a>
</g>
</g>
<!-- Node24&#45;&gt;Node19 -->
<g id="edge42_Node000024_Node000019" class="edge">
<title>Node24&#45;&gt;Node19</title>
<g id="a_edge42_Node000024_Node000019"><a xlink:title=" ">
<path fill="none" stroke="#63b8ff" d="M510.48,-123.75C522.58,-105.03 545.57,-73.62 573.25,-56 583.33,-49.59 647.88,-32.3 691.29,-21.11"/>
<polygon fill="#63b8ff" stroke="#63b8ff" points="692.09,-24.52 700.9,-18.65 690.35,-17.74 692.09,-24.52"/>
</a>
</g>
</g>
<!-- Node25&#45;&gt;Node10 -->
<g id="edge48_Node000025_Node000010" class="edge">
<title>Node25&#45;&gt;Node10</title>
<g id="a_edge48_Node000025_Node000010"><a xlink:title=" ">
<path fill="none" stroke="#63b8ff" d="M599.13,-259.56C571.64,-250.35 537.02,-237.78 507.25,-224 462.94,-203.49 414.21,-174.07 386.03,-156.32"/>
<polygon fill="#63b8ff" stroke="#63b8ff" points="388.22,-153.56 377.9,-151.16 384.47,-159.47 388.22,-153.56"/>
</a>
</g>
</g>
<!-- Node25&#45;&gt;Node15 -->
<g id="edge49_Node000025_Node000015" class="edge">
<title>Node25&#45;&gt;Node15</title>
<g id="a_edge49_Node000025_Node000015"><a xlink:title=" ">
<path fill="none" stroke="#63b8ff" d="M618.78,-259.71C561.13,-229.65 438.52,-165 433.25,-156 393.02,-87.25 513.6,-43.24 587.74,-23.35"/>
<polygon fill="#63b8ff" stroke="#63b8ff" points="588.51,-26.77 597.3,-20.86 586.74,-19.99 588.51,-26.77"/>
</a>
</g>
</g>
<!-- Node25&#45;&gt;Node16 -->
<g id="edge50_Node000025_Node000016" class="edge">
<title>Node25&#45;&gt;Node16</title>
<g id="a_edge50_Node000025_Node000016"><a xlink:title=" ">
<path fill="none" stroke="#63b8ff" d="M707.38,-266.74C813.87,-250.62 1031.47,-211.63 1081.25,-156 1112.32,-121.28 1110.75,-62.2 1107.3,-31.26"/>
<polygon fill="#63b8ff" stroke="#63b8ff" points="1110.82,-31.18 1106.05,-21.72 1103.88,-32.09 1110.82,-31.18"/>
</a>
</g>
</g>
<!-- Node25&#45;&gt;Node23 -->
<g id="edge51_Node000025_Node000023" class="edge">
<title>Node25&#45;&gt;Node23</title>
<g id="a_edge51_Node000025_Node000023"><a xlink:title=" ">
<path fill="none" stroke="#63b8ff" d="M662.73,-259.86C670.77,-250.37 679.99,-237.43 684.25,-224 688.55,-210.44 689.13,-205.36 684.25,-192 679.55,-179.14 670.02,-167.28 661.13,-158.24"/>
<polygon fill="#63b8ff" stroke="#63b8ff" points="663.73,-155.89 654.07,-151.54 658.91,-160.96 663.73,-155.89"/>
</a>
</g>
</g>
<!-- Node25&#45;&gt;Node24 -->
<g id="edge52_Node000025_Node000024" class="edge">
<title>Node25&#45;&gt;Node24</title>
<g id="a_edge52_Node000025_Node000024"><a xlink:title=" ">
<path fill="none" stroke="#63b8ff" d="M631.39,-259.63C605.58,-236.1 556.13,-191.03 526.18,-163.72"/>
<polygon fill="#63b8ff" stroke="#63b8ff" points="528.78,-161.36 519.03,-157.21 524.07,-166.54 528.78,-161.36"/>
</a>
</g>
</g>
<!-- Node26 -->
<g id="Node000026" class="node">
<title>Node26</title>
<g id="a_Node000026"><a xlink:title=" ">
<polygon fill="#e0e0e0" stroke="#999999" points="675.12,-218 625.38,-218 625.38,-198 675.12,-198 675.12,-218"/>
<text text-anchor="middle" x="650.25" y="-204.5" font-family="Helvetica,sans-Serif" font-size="10.00">optional</text>
</a>
</g>
</g>
<!-- Node25&#45;&gt;Node26 -->
<g id="edge47_Node000025_Node000026" class="edge">
<title>Node25&#45;&gt;Node26</title>
<g id="a_edge47_Node000025_Node000026"><a xlink:title=" ">
<path fill="none" stroke="#63b8ff" d="M648.71,-259.69C648.98,-250.8 649.33,-239.46 649.62,-229.77"/>
<polygon fill="#63b8ff" stroke="#63b8ff" points="653.12,-229.93 649.92,-219.83 646.12,-229.72 653.12,-229.93"/>
</a>
</g>
</g>
<!-- Node25&#45;&gt;Node27 -->
<g id="edge53_Node000025_Node000027" class="edge">
<title>Node25&#45;&gt;Node27</title>
<g id="a_edge53_Node000025_Node000027"><a xlink:title=" ">
<path fill="none" stroke="#63b8ff" d="M707.57,-267.56C804.81,-255.36 997.77,-231.14 1102.54,-218"/>
<polygon fill="#63b8ff" stroke="#63b8ff" points="1102.95,-221.47 1112.44,-216.76 1102.08,-214.53 1102.95,-221.47"/>
</a>
</g>
</g>
<!-- Node27&#45;&gt;Node10 -->
<g id="edge56_Node000027_Node000010" class="edge">
<title>Node27&#45;&gt;Node10</title>
<g id="a_edge56_Node000027_Node000010"><a xlink:title=" ">
<path fill="none" stroke="#63b8ff" d="M1113.93,-205.7C987.26,-202.33 684.53,-191.02 433.25,-156 420.39,-154.21 406.38,-151.43 394.22,-148.75"/>
<polygon fill="#63b8ff" stroke="#63b8ff" points="395.24,-145.39 384.72,-146.58 393.69,-152.21 395.24,-145.39"/>
</a>
</g>
</g>
<!-- Node27&#45;&gt;Node16 -->
<g id="edge57_Node000027_Node000016" class="edge">
<title>Node27&#45;&gt;Node16</title>
<g id="a_edge57_Node000027_Node000016"><a xlink:title=" ">
<path fill="none" stroke="#63b8ff" d="M1175.23,-191.86C1176.4,-163.48 1175.79,-101.09 1152.25,-56 1146.38,-44.76 1136.58,-34.81 1127.36,-27.14"/>
<polygon fill="#63b8ff" stroke="#63b8ff" points="1129.74,-24.56 1119.69,-21.2 1125.45,-30.09 1129.74,-24.56"/>
</a>
</g>
</g>
<!-- Node27&#45;&gt;Node17 -->
<g id="edge58_Node000027_Node000017" class="edge">
<title>Node27&#45;&gt;Node17</title>
<g id="a_edge58_Node000027_Node000017"><a xlink:title=" ">
<path fill="none" stroke="#63b8ff" d="M1161.84,-191.73C1145.47,-172.69 1114.79,-140.64 1081.25,-124 1020.89,-94.06 944.57,-81.68 889.9,-76.57"/>
<polygon fill="#63b8ff" stroke="#63b8ff" points="890.34,-73.09 880.08,-75.71 889.74,-80.07 890.34,-73.09"/>
</a>
</g>
</g>
<!-- Node27&#45;&gt;Node21 -->
<g id="edge59_Node000027_Node000021" class="edge">
<title>Node27&#45;&gt;Node21</title>
<g id="a_edge59_Node000027_Node000021"><a xlink:title=" ">
<path fill="none" stroke="#63b8ff" d="M1228.41,-191.53C1261.88,-181.96 1305.05,-169.63 1340.35,-159.54"/>
<polygon fill="#63b8ff" stroke="#63b8ff" points="1340.92,-163.02 1349.58,-156.91 1339,-156.29 1340.92,-163.02"/>
</a>
</g>
</g>
<!-- Node27&#45;&gt;Node22 -->
<g id="edge55_Node000027_Node000022" class="edge">
<title>Node27&#45;&gt;Node22</title>
<g id="a_edge55_Node000027_Node000022"><a xlink:title=" ">
<path fill="none" stroke="#63b8ff" d="M1181.15,-191.77C1190.38,-173.07 1208.51,-141.68 1233.25,-124 1276.96,-92.76 1339.86,-80.46 1376.24,-75.77"/>
<polygon fill="#63b8ff" stroke="#63b8ff" points="1376.47,-79.26 1385.99,-74.62 1375.65,-72.31 1376.47,-79.26"/>
</a>
</g>
</g>
<!-- Node28 -->
<g id="Node000028" class="node">
<title>Node28</title>
<g id="a_Node000028"><a xlink:title=" ">
<polygon fill="#e0e0e0" stroke="#999999" points="1282.25,-150 1242.25,-150 1242.25,-130 1282.25,-130 1282.25,-150"/>
<text text-anchor="middle" x="1262.25" y="-136.5" font-family="Helvetica,sans-Serif" font-size="10.00">string</text>
</a>
</g>
</g>
<!-- Node27&#45;&gt;Node28 -->
<g id="edge54_Node000027_Node000028" class="edge">
<title>Node27&#45;&gt;Node28</title>
<g id="a_edge54_Node000027_Node000028"><a xlink:title=" ">
<path fill="none" stroke="#63b8ff" d="M1194.66,-191.69C1208.52,-181.3 1226.82,-167.57 1240.88,-157.03"/>
<polygon fill="#63b8ff" stroke="#63b8ff" points="1242.72,-160.02 1248.62,-151.22 1238.52,-154.42 1242.72,-160.02"/>
</a>
</g>
</g>
<!-- Node29&#45;&gt;Node16 -->
<g id="edge63_Node000029_Node000016" class="edge">
<title>Node29&#45;&gt;Node16</title>
<g id="a_edge63_Node000029_Node000016"><a xlink:title=" ">
<path fill="none" stroke="#63b8ff" d="M1271.5,-259.78C1287.53,-231.26 1316.43,-168.64 1291.25,-124 1261.12,-70.59 1194.47,-39.57 1149.44,-23.96"/>
<polygon fill="#63b8ff" stroke="#63b8ff" points="1150.8,-20.73 1140.21,-20.89 1148.59,-27.37 1150.8,-20.73"/>
</a>
</g>
</g>
<!-- Node29&#45;&gt;Node17 -->
<g id="edge65_Node000029_Node000017" class="edge">
<title>Node29&#45;&gt;Node17</title>
<g id="a_edge65_Node000029_Node000017"><a xlink:title=" ">
<path fill="none" stroke="#63b8ff" d="M1203.03,-261.18C1134.03,-243.46 1018.15,-208.6 929.25,-156 910.25,-144.76 908.72,-137.5 891.25,-124 878.41,-114.07 863.86,-103.62 851.21,-94.78"/>
<polygon fill="#63b8ff" stroke="#63b8ff" points="853.43,-92.06 843.22,-89.24 849.44,-97.82 853.43,-92.06"/>
</a>
</g>
</g>
<!-- Node29&#45;&gt;Node21 -->
<g id="edge64_Node000029_Node000021" class="edge">
<title>Node29&#45;&gt;Node21</title>
<g id="a_edge64_Node000029_Node000021"><a xlink:title=" ">
<path fill="none" stroke="#63b8ff" d="M1281.98,-259.68C1294.4,-249.82 1310.6,-236.54 1324.25,-224 1345.08,-204.86 1367.45,-181.73 1383.39,-164.75"/>
<polygon fill="#63b8ff" stroke="#63b8ff" points="1385.8,-167.29 1390.06,-157.59 1380.68,-162.52 1385.8,-167.29"/>
</a>
</g>
</g>
<!-- Node29&#45;&gt;Node22 -->
<g id="edge62_Node000029_Node000022" class="edge">
<title>Node29&#45;&gt;Node22</title>
<g id="a_edge62_Node000029_Node000022"><a xlink:title=" ">
<path fill="none" stroke="#63b8ff" d="M1321.61,-260.97C1373.91,-245.11 1446.97,-213.65 1481.25,-156 1488.52,-143.78 1487.94,-136.55 1481.25,-124 1471.1,-104.96 1450.33,-91.77 1433.06,-83.58"/>
<polygon fill="#63b8ff" stroke="#63b8ff" points="1434.84,-80.54 1424.28,-79.72 1432.03,-86.95 1434.84,-80.54"/>
</a>
</g>
</g>
<!-- Node29&#45;&gt;Node24 -->
<g id="edge66_Node000029_Node000024" class="edge">
<title>Node29&#45;&gt;Node24</title>
<g id="a_edge66_Node000029_Node000024"><a xlink:title=" ">
<path fill="none" stroke="#63b8ff" d="M1202.9,-267.08C1134.06,-257.69 1017.21,-241.14 917.25,-224 765.57,-197.98 725.4,-188.53 571.83,-156.52"/>
<polygon fill="#63b8ff" stroke="#63b8ff" points="572.56,-153.09 562.05,-154.48 571.13,-159.95 572.56,-153.09"/>
</a>
</g>
</g>
<!-- Node29&#45;&gt;Node27 -->
<g id="edge67_Node000029_Node000027" class="edge">
<title>Node29&#45;&gt;Node27</title>
<g id="a_edge67_Node000029_Node000027"><a xlink:title=" ">
<path fill="none" stroke="#63b8ff" d="M1241.84,-259.69C1230.59,-251.26 1216.42,-240.63 1203.97,-231.29"/>
<polygon fill="#63b8ff" stroke="#63b8ff" points="1206.17,-228.56 1196.07,-225.36 1201.97,-234.16 1206.17,-228.56"/>
</a>
</g>
</g>
<!-- Node29&#45;&gt;Node28 -->
<g id="edge61_Node000029_Node000028" class="edge">
<title>Node29&#45;&gt;Node28</title>
<g id="a_edge61_Node000029_Node000028"><a xlink:title=" ">
<path fill="none" stroke="#63b8ff" d="M1262.25,-259.63C1262.25,-235.42 1262.25,-188.38 1262.25,-161.37"/>
<polygon fill="#63b8ff" stroke="#63b8ff" points="1265.75,-161.74 1262.25,-151.74 1258.75,-161.74 1265.75,-161.74"/>
</a>
</g>
</g>
<!-- Node30&#45;&gt;Node16 -->
<g id="edge69_Node000030_Node000016" class="edge">
<title>Node30&#45;&gt;Node16</title>
<g id="a_edge69_Node000030_Node000016"><a xlink:title=" ">
<path fill="none" stroke="#63b8ff" d="M1012.37,-129.79C1028.56,-108.86 1068.39,-57.36 1089.91,-29.54"/>
<polygon fill="#63b8ff" stroke="#63b8ff" points="1092.65,-31.72 1096,-21.66 1087.12,-27.43 1092.65,-31.72"/>
</a>
</g>
</g>
<!-- Node30&#45;&gt;Node17 -->
<g id="edge70_Node000030_Node000017" class="edge">
<title>Node30&#45;&gt;Node17</title>
<g id="a_edge70_Node000030_Node000017"><a xlink:title=" ">
<path fill="none" stroke="#63b8ff" d="M978.6,-129.54C951.2,-119.82 907.76,-104.41 873.16,-92.13"/>
<polygon fill="#63b8ff" stroke="#63b8ff" points="874.75,-88.98 864.15,-88.93 872.41,-95.58 874.75,-88.98"/>
</a>
</g>
</g>
</g>
</svg>
