<?xml version="1.0" encoding="UTF-8" standalone="no"?>
<!DOCTYPE svg PUBLIC "-//W3C//DTD SVG 1.1//EN"
 "http://www.w3.org/Graphics/SVG/1.1/DTD/svg11.dtd">
<!-- Generated by graphviz version 10.0.1 (20240210.2158)
 -->
<!-- Title: hybrid&#45;renderer&#45;lib/include/texture.h Pages: 1 -->
<!--zoomable 288 -->

<svg id="main" version="1.1" xmlns="http://www.w3.org/2000/svg" xmlns:xlink="http://www.w3.org/1999/xlink" xml:space="preserve" onload="init(evt)">
<style type="text/css"><![CDATA[
.node, .edge {opacity: 0.7;}
.node.selected, .edge.selected {opacity: 1;}
.edge:hover path { stroke: red; }
.edge:hover polygon { stroke: red; fill: red; }
]]></style>

<defs>
  <circle id="rim" cx="0" cy="0" r="7"/>
  <circle id="rim2" cx="0" cy="0" r="3.5"/>
  <g id="zoomPlus">
    <use xlink:href="#rim" fill="#404040"><set attributeName="fill" to="#808080" begin="zoomplus.mouseover" end="zoomplus.mouseout"/></use>
    <path d="M-4,0h8M0,-4v8" fill="none" stroke="white" stroke-width="1.5" pointer-events="none"/>
  </g>
  <g id="zoomMin">
    <use xlink:href="#rim" fill="#404040"><set attributeName="fill" to="#808080" begin="zoomminus.mouseover" end="zoomminus.mouseout"/></use>
    <path d="M-4,0h8" fill="none" stroke="white" stroke-width="1.5" pointer-events="none"/>
  </g>
  <g id="arrowUp" transform="translate(30 24)">
    <use xlink:href="#rim"/>
    <path pointer-events="none" fill="none" stroke="white" stroke-width="1.5" d="M0,-3.0v7 M-2.5,-0.5L0,-3.0L2.5,-0.5"/>
  </g>
  <g id="arrowRight" transform="rotate(90) translate(36 -43)">
    <use xlink:href="#rim"/>
    <path pointer-events="none" fill="none" stroke="white" stroke-width="1.5" d="M0,-3.0v7 M-2.5,-0.5L0,-3.0L2.5,-0.5"/>
  </g>
  <g id="arrowDown" transform="rotate(180) translate(-30 -48)">
    <use xlink:href="#rim"/>
    <path pointer-events="none" fill="none" stroke="white" stroke-width="1.5" d="M0,-3.0v7 M-2.5,-0.5L0,-3.0L2.5,-0.5"/>
  </g>
  <g id="arrowLeft" transform="rotate(270) translate(-36 17)">
    <use xlink:href="#rim"/>
    <path pointer-events="none" fill="none" stroke="white" stroke-width="1.5" d="M0,-3.0v7 M-2.5,-0.5L0,-3.0L2.5,-0.5"/>
  </g>
  <g id="resetDef">
    <use xlink:href="#rim2" fill="#404040"><set attributeName="fill" to="#808080" begin="reset.mouseover" end="reset.mouseout"/></use>
  </g>
</defs>
<script type="application/ecmascript">
var viewWidth = 621;
var viewHeight = 288;
var sectionId = 'dynsection-1';
</script>
<script type="application/ecmascript" xlink:href="svg.min.js"/>
<svg id="graph" class="graph">
<g id="viewport">
<title>hybrid&#45;renderer&#45;lib/include/texture.h</title>
<!-- Node1 -->
<g id="Node000001" class="node">
<title>Node1</title>
<g id="a_Node000001"><a xlink:title=" ">
<polygon fill="#999999" stroke="#666666" points="438.12,-280 344.88,-280 344.88,-248 438.12,-248 438.12,-280"/>
<text text-anchor="start" x="352.88" y="-266.5" font-family="Helvetica,sans-Serif" font-size="10.00">hybrid&#45;renderer&#45;lib</text>
<text text-anchor="middle" x="391.5" y="-254.5" font-family="Helvetica,sans-Serif" font-size="10.00">/include/texture.h</text>
</a>
</g>
</g>
<!-- Node2 -->
<g id="Node000002" class="node">
<title>Node2</title>
<g id="a_Node000002"><a xlink:href="hybrid__renderer_8h.html" target="_top" xlink:title=" ">
<polygon fill="white" stroke="#666666" points="391.38,-212 263.62,-212 263.62,-180 391.38,-180 391.38,-212"/>
<text text-anchor="start" x="271.62" y="-198.5" font-family="Helvetica,sans-Serif" font-size="10.00">hybrid&#45;renderer&#45;lib</text>
<text text-anchor="middle" x="327.5" y="-186.5" font-family="Helvetica,sans-Serif" font-size="10.00">/include/hybrid_renderer.h</text>
</a>
</g>
</g>
<!-- Node1&#45;&gt;Node2 -->
<g id="edge1_Node000001_Node000002" class="edge">
<title>Node1&#45;&gt;Node2</title>
<g id="a_edge1_Node000001_Node000002"><a xlink:title=" ">
<path fill="none" stroke="#63b8ff" d="M368.64,-239.43C359.87,-230.38 350.09,-220.29 342.26,-212.22"/>
<polygon fill="#63b8ff" stroke="#63b8ff" points="366.13,-241.86 375.6,-246.61 371.15,-236.99 366.13,-241.86"/>
</a>
</g>
</g>
<!-- Node10 -->
<g id="Node000010" class="node">
<title>Node10</title>
<g id="a_Node000010"><a xlink:href="texture_8cpp.html" target="_top" xlink:title=" ">
<polygon fill="white" stroke="#666666" points="503.12,-212 409.88,-212 409.88,-180 503.12,-180 503.12,-212"/>
<text text-anchor="start" x="417.88" y="-198.5" font-family="Helvetica,sans-Serif" font-size="10.00">hybrid&#45;renderer&#45;lib</text>
<text text-anchor="middle" x="456.5" y="-186.5" font-family="Helvetica,sans-Serif" font-size="10.00">/src/texture.cpp</text>
</a>
</g>
</g>
<!-- Node1&#45;&gt;Node10 -->
<g id="edge14_Node000001_Node000010" class="edge">
<title>Node1&#45;&gt;Node10</title>
<g id="a_edge14_Node000001_Node000010"><a xlink:title=" ">
<path fill="none" stroke="#63b8ff" d="M414.44,-239.71C423.42,-230.59 433.48,-220.37 441.51,-212.22"/>
<polygon fill="#63b8ff" stroke="#63b8ff" points="412.16,-237.03 407.64,-246.61 417.15,-241.95 412.16,-237.03"/>
</a>
</g>
</g>
<!-- Node3 -->
<g id="Node000003" class="node">
<title>Node3</title>
<g id="a_Node000003"><a xlink:href="demo_8h.html" target="_top" xlink:title=" ">
<polygon fill="white" stroke="#666666" points="109,-76 0,-76 0,-56 109,-56 109,-76"/>
<text text-anchor="middle" x="54.5" y="-62.5" font-family="Helvetica,sans-Serif" font-size="10.00">demo/include/demo.h</text>
</a>
</g>
</g>
<!-- Node2&#45;&gt;Node3 -->
<g id="edge2_Node000002_Node000003" class="edge">
<title>Node2&#45;&gt;Node3</title>
<g id="a_edge2_Node000002_Node000003"><a xlink:title=" ">
<path fill="none" stroke="#63b8ff" d="M266.19,-176.02C240.5,-167.34 210.6,-156.24 184.5,-144 140.33,-123.28 91.72,-92.02 68.44,-76.47"/>
<polygon fill="#63b8ff" stroke="#63b8ff" points="264.89,-179.28 275.48,-179.12 267.1,-172.64 264.89,-179.28"/>
</a>
</g>
</g>
<!-- Node5 -->
<g id="Node000005" class="node">
<title>Node5</title>
<g id="a_Node000005"><a xlink:href="renderer_8h.html" target="_top" xlink:title=" ">
<polygon fill="white" stroke="#666666" points="247.62,-76 127.38,-76 127.38,-56 247.62,-56 247.62,-76"/>
<text text-anchor="middle" x="187.5" y="-62.5" font-family="Helvetica,sans-Serif" font-size="10.00">demo/include/renderer.h</text>
</a>
</g>
</g>
<!-- Node2&#45;&gt;Node5 -->
<g id="edge4_Node000002_Node000005" class="edge">
<title>Node2&#45;&gt;Node5</title>
<g id="a_edge4_Node000002_Node000005"><a xlink:title=" ">
<path fill="none" stroke="#63b8ff" d="M252.7,-178.68C233.48,-171.11 214.57,-160.06 201.5,-144 185.46,-124.29 185.39,-92.29 186.51,-76.47"/>
<polygon fill="#63b8ff" stroke="#63b8ff" points="251.35,-181.92 261.95,-182.03 253.74,-175.34 251.35,-181.92"/>
</a>
</g>
</g>
<!-- Node6 -->
<g id="Node000006" class="node">
<title>Node6</title>
<g id="a_Node000006"><a xlink:href="renderer_8cpp.html" target="_top" xlink:title=" ">
<polygon fill="white" stroke="#666666" points="332.25,-20 218.75,-20 218.75,0 332.25,0 332.25,-20"/>
<text text-anchor="middle" x="275.5" y="-6.5" font-family="Helvetica,sans-Serif" font-size="10.00">demo/src/renderer.cpp</text>
</a>
</g>
</g>
<!-- Node2&#45;&gt;Node6 -->
<g id="edge11_Node000002_Node000006" class="edge">
<title>Node2&#45;&gt;Node6</title>
<g id="a_edge11_Node000002_Node000006"><a xlink:title=" ">
<path fill="none" stroke="#63b8ff" d="M367.42,-173.98C413.12,-147.17 477.63,-99.1 444.5,-56 430.76,-38.13 376.1,-25.85 332.61,-18.69"/>
<polygon fill="#63b8ff" stroke="#63b8ff" points="365.97,-170.78 359.03,-178.78 369.45,-176.86 365.97,-170.78"/>
</a>
</g>
</g>
<!-- Node7 -->
<g id="Node000007" class="node">
<title>Node7</title>
<g id="a_Node000007"><a xlink:href="subsystems_8h.html" target="_top" xlink:title=" ">
<polygon fill="white" stroke="#666666" points="348.62,-138 210.38,-138 210.38,-118 348.62,-118 348.62,-138"/>
<text text-anchor="middle" x="279.5" y="-124.5" font-family="Helvetica,sans-Serif" font-size="10.00">demo/include/subsystems.h</text>
</a>
</g>
</g>
<!-- Node2&#45;&gt;Node7 -->
<g id="edge7_Node000002_Node000007" class="edge">
<title>Node2&#45;&gt;Node7</title>
<g id="a_edge7_Node000002_Node000007"><a xlink:title=" ">
<path fill="none" stroke="#63b8ff" d="M309.83,-170.7C301.63,-159.43 292.38,-146.71 286.28,-138.32"/>
<polygon fill="#63b8ff" stroke="#63b8ff" points="306.76,-172.44 315.48,-178.47 312.43,-168.32 306.76,-172.44"/>
</a>
</g>
</g>
<!-- Node8 -->
<g id="Node000008" class="node">
<title>Node8</title>
<g id="a_Node000008"><a xlink:href="subsystems_8cpp.html" target="_top" xlink:title=" ">
<polygon fill="white" stroke="#666666" points="435.25,-76 303.75,-76 303.75,-56 435.25,-56 435.25,-76"/>
<text text-anchor="middle" x="369.5" y="-62.5" font-family="Helvetica,sans-Serif" font-size="10.00">demo/src/subsystems.cpp</text>
</a>
</g>
</g>
<!-- Node2&#45;&gt;Node8 -->
<g id="edge12_Node000002_Node000008" class="edge">
<title>Node2&#45;&gt;Node8</title>
<g id="a_edge12_Node000002_Node000008"><a xlink:title=" ">
<path fill="none" stroke="#63b8ff" d="M344.62,-170.19C349.47,-162.15 354.29,-152.98 357.5,-144 365.88,-120.56 368.41,-91.04 369.17,-76.28"/>
<polygon fill="#63b8ff" stroke="#63b8ff" points="341.81,-168.09 339.4,-178.41 347.72,-171.84 341.81,-168.09"/>
</a>
</g>
</g>
<!-- Node9 -->
<g id="Node000009" class="node">
<title>Node9</title>
<g id="a_Node000009"><a xlink:href="hybrid__renderer_8cpp.html" target="_top" xlink:title=" ">
<polygon fill="white" stroke="#666666" points="613,-144 492,-144 492,-112 613,-112 613,-144"/>
<text text-anchor="start" x="500" y="-130.5" font-family="Helvetica,sans-Serif" font-size="10.00">hybrid&#45;renderer&#45;lib</text>
<text text-anchor="middle" x="552.5" y="-118.5" font-family="Helvetica,sans-Serif" font-size="10.00">/src/hybrid_renderer.cpp</text>
</a>
</g>
</g>
<!-- Node2&#45;&gt;Node9 -->
<g id="edge13_Node000002_Node000009" class="edge">
<title>Node2&#45;&gt;Node9</title>
<g id="a_edge13_Node000002_Node000009"><a xlink:title=" ">
<path fill="none" stroke="#63b8ff" d="M391.1,-176.34C425.39,-166.28 467.21,-154.02 499.69,-144.49"/>
<polygon fill="#63b8ff" stroke="#63b8ff" points="390.32,-172.93 381.7,-179.1 392.29,-179.64 390.32,-172.93"/>
</a>
</g>
</g>
<!-- Node4 -->
<g id="Node000004" class="node">
<title>Node4</title>
<g id="a_Node000004"><a xlink:href="main_8cpp.html" target="_top" xlink:title=" ">
<polygon fill="white" stroke="#666666" points="153.12,-20 53.88,-20 53.88,0 153.12,0 153.12,-20"/>
<text text-anchor="middle" x="103.5" y="-6.5" font-family="Helvetica,sans-Serif" font-size="10.00">demo/src/main.cpp</text>
</a>
</g>
</g>
<!-- Node3&#45;&gt;Node4 -->
<g id="edge3_Node000003_Node000004" class="edge">
<title>Node3&#45;&gt;Node4</title>
<g id="a_edge3_Node000003_Node000004"><a xlink:title=" ">
<path fill="none" stroke="#63b8ff" d="M70.57,-47.29C78.75,-38.28 88.35,-27.7 95.06,-20.3"/>
<polygon fill="#63b8ff" stroke="#63b8ff" points="68.18,-44.72 64.05,-54.47 73.36,-49.42 68.18,-44.72"/>
</a>
</g>
</g>
<!-- Node5&#45;&gt;Node4 -->
<g id="edge5_Node000005_Node000004" class="edge">
<title>Node5&#45;&gt;Node4</title>
<g id="a_edge5_Node000005_Node000004"><a xlink:title=" ">
<path fill="none" stroke="#63b8ff" d="M163.45,-49.54C148.87,-40.17 130.73,-28.51 118.25,-20.48"/>
<polygon fill="#63b8ff" stroke="#63b8ff" points="161.29,-52.31 171.6,-54.78 165.08,-46.42 161.29,-52.31"/>
</a>
</g>
</g>
<!-- Node5&#45;&gt;Node6 -->
<g id="edge6_Node000005_Node000006" class="edge">
<title>Node5&#45;&gt;Node6</title>
<g id="a_edge6_Node000005_Node000006"><a xlink:title=" ">
<path fill="none" stroke="#63b8ff" d="M212.25,-49.81C227.6,-40.39 246.85,-28.58 260.05,-20.48"/>
<polygon fill="#63b8ff" stroke="#63b8ff" points="210.81,-46.59 204.12,-54.8 214.47,-52.56 210.81,-46.59"/>
</a>
</g>
</g>
<!-- Node7&#45;&gt;Node5 -->
<g id="edge8_Node000007_Node000005" class="edge">
<title>Node7&#45;&gt;Node5</title>
<g id="a_edge8_Node000007_Node000005"><a xlink:title=" ">
<path fill="none" stroke="#63b8ff" d="M255.79,-111.54C238.69,-100.39 216.18,-85.71 201.77,-76.31"/>
<polygon fill="#63b8ff" stroke="#63b8ff" points="253.57,-114.27 263.86,-116.8 257.39,-108.4 253.57,-114.27"/>
</a>
</g>
</g>
<!-- Node7&#45;&gt;Node6 -->
<g id="edge9_Node000007_Node000006" class="edge">
<title>Node7&#45;&gt;Node6</title>
<g id="a_edge9_Node000007_Node000006"><a xlink:title=" ">
<path fill="none" stroke="#63b8ff" d="M278.78,-106.23C277.91,-80.8 276.46,-38.84 275.82,-20.3"/>
<polygon fill="#63b8ff" stroke="#63b8ff" points="275.28,-106.12 279.12,-115.99 282.27,-105.88 275.28,-106.12"/>
</a>
</g>
</g>
<!-- Node7&#45;&gt;Node8 -->
<g id="edge10_Node000007_Node000008" class="edge">
<title>Node7&#45;&gt;Node8</title>
<g id="a_edge10_Node000007_Node000008"><a xlink:title=" ">
<path fill="none" stroke="#63b8ff" d="M302.7,-111.54C319.42,-100.39 341.44,-85.71 355.54,-76.31"/>
<polygon fill="#63b8ff" stroke="#63b8ff" points="301.2,-108.33 294.82,-116.79 305.08,-114.15 301.2,-108.33"/>
</a>
</g>
</g>
</g>
</svg>

<g id="navigator" transform="translate(0 0)" fill="#404254">
  <rect fill="#f2f5e9" fill-opacity="0.5" stroke="#606060" stroke-width=".5" x="0" y="0" width="60" height="60"/>
  <use id="zoomplus" xlink:href="#zoomPlus" x="17" y="9" onmousedown="handleZoom(evt,'in')"/>
  <use id="zoomminus" xlink:href="#zoomMin" x="42" y="9" onmousedown="handleZoom(evt,'out')"/>
  <use id="reset" xlink:href="#resetDef" x="30" y="36" onmousedown="handleReset()"/>
   <use id="arrowup" xlink:href="#arrowUp" x="0" y="0" onmousedown="handlePan(0,-1)"/>
  <use id="arrowright" xlink:href="#arrowRight" x="0" y="0" onmousedown="handlePan(1,0)"/>
  <use id="arrowdown" xlink:href="#arrowDown" x="0" y="0" onmousedown="handlePan(0,1)"/>
  <use id="arrowleft" xlink:href="#arrowLeft" x="0" y="0" onmousedown="handlePan(-1,0)"/>
</g>
<svg viewBox="0 0 15 15" width="100%" height="30px" preserveAspectRatio="xMaxYMin meet">
 <g id="arrow_out" transform="scale(0.3 0.3)">
  <a xlink:href="texture_8h__dep__incl_org.svg" target="_base">
   <rect id="button" ry="5" rx="5" y="6" x="6" height="38" width="38"
        fill="#f2f5e9" fill-opacity="0.5" stroke="#606060" stroke-width="1.0"/>
   <path id="arrow"
     d="M 11.500037,31.436501 C 11.940474,20.09759 22.043105,11.32322 32.158766,21.979434 L 37.068811,17.246167 C 37.068811,17.246167 37.088388,32 37.088388,32 L 22.160133,31.978069 C 22.160133,31.978069 26.997745,27.140456 26.997745,27.140456 C 18.528582,18.264221 13.291696,25.230495 11.500037,31.436501 z"
     style="fill:#404040;"/>
  </a>
 </g>
</svg>

<style type='text/css'>
<![CDATA[
[data-mouse-over-selected='false'] { opacity: 0.7; }
[data-mouse-over-selected='true']  { opacity: 1.0; }
]]>
</style>
<script type="application/ecmascript"><![CDATA[
document.addEventListener('DOMContentLoaded', (event) => {
  highlightEdges();
  highlightAdjacentNodes();
});
]]></script>
</svg>
