<?xml version="1.0" encoding="UTF-8" standalone="no"?>
<!DOCTYPE svg PUBLIC "-//W3C//DTD SVG 1.1//EN"
 "http://www.w3.org/Graphics/SVG/1.1/DTD/svg11.dtd">
<!-- Generated by graphviz version 10.0.1 (20240210.2158)
 -->
<!-- Title: hybrid&#45;renderer&#45;lib/include/texture.h Pages: 1 -->
<!--zoomable 468 -->

<svg id="main" version="1.1" xmlns="http://www.w3.org/2000/svg" xmlns:xlink="http://www.w3.org/1999/xlink" xml:space="preserve" onload="init(evt)">
<style type="text/css"><![CDATA[
.node, .edge {opacity: 0.7;}
.node.selected, .edge.selected {opacity: 1;}
.edge:hover path { stroke: red; }
.edge:hover polygon { stroke: red; fill: red; }
]]></style>

<defs>
  <circle id="rim" cx="0" cy="0" r="7"/>
  <circle id="rim2" cx="0" cy="0" r="3.5"/>
  <g id="zoomPlus">
    <use xlink:href="#rim" fill="#404040"><set attributeName="fill" to="#808080" begin="zoomplus.mouseover" end="zoomplus.mouseout"/></use>
    <path d="M-4,0h8M0,-4v8" fill="none" stroke="white" stroke-width="1.5" pointer-events="none"/>
  </g>
  <g id="zoomMin">
    <use xlink:href="#rim" fill="#404040"><set attributeName="fill" to="#808080" begin="zoomminus.mouseover" end="zoomminus.mouseout"/></use>
    <path d="M-4,0h8" fill="none" stroke="white" stroke-width="1.5" pointer-events="none"/>
  </g>
  <g id="arrowUp" transform="translate(30 24)">
    <use xlink:href="#rim"/>
    <path pointer-events="none" fill="none" stroke="white" stroke-width="1.5" d="M0,-3.0v7 M-2.5,-0.5L0,-3.0L2.5,-0.5"/>
  </g>
  <g id="arrowRight" transform="rotate(90) translate(36 -43)">
    <use xlink:href="#rim"/>
    <path pointer-events="none" fill="none" stroke="white" stroke-width="1.5" d="M0,-3.0v7 M-2.5,-0.5L0,-3.0L2.5,-0.5"/>
  </g>
  <g id="arrowDown" transform="rotate(180) translate(-30 -48)">
    <use xlink:href="#rim"/>
    <path pointer-events="none" fill="none" stroke="white" stroke-width="1.5" d="M0,-3.0v7 M-2.5,-0.5L0,-3.0L2.5,-0.5"/>
  </g>
  <g id="arrowLeft" transform="rotate(270) translate(-36 17)">
    <use xlink:href="#rim"/>
    <path pointer-events="none" fill="none" stroke="white" stroke-width="1.5" d="M0,-3.0v7 M-2.5,-0.5L0,-3.0L2.5,-0.5"/>
  </g>
  <g id="resetDef">
    <use xlink:href="#rim2" fill="#404040"><set attributeName="fill" to="#808080" begin="reset.mouseover" end="reset.mouseout"/></use>
  </g>
</defs>
<script type="application/ecmascript">
var viewWidth = 903;
var viewHeight = 468;
var sectionId = 'dynsection-1';
</script>
<script type="application/ecmascript" xlink:href="svg.min.js"/>
<svg id="graph" class="graph">
<g id="viewport">
<title>hybrid&#45;renderer&#45;lib/include/texture.h</title>
<!-- Node1 -->
<g id="Node000001" class="node">
<title>Node1</title>
<g id="a_Node000001"><a xlink:title=" ">
<polygon fill="#999999" stroke="#666666" points="624.62,-460 531.38,-460 531.38,-428 624.62,-428 624.62,-460"/>
<text text-anchor="start" x="539.38" y="-446.5" font-family="Helvetica,sans-Serif" font-size="10.00">hybrid&#45;renderer&#45;lib</text>
<text text-anchor="middle" x="578" y="-434.5" font-family="Helvetica,sans-Serif" font-size="10.00">/include/texture.h</text>
</a>
</g>
</g>
<!-- Node2 -->
<g id="Node000002" class="node">
<title>Node2</title>
<g id="a_Node000002"><a xlink:href="hybrid__renderer_8h.html" target="_top" xlink:title=" ">
<polygon fill="white" stroke="#666666" points="577.88,-392 450.12,-392 450.12,-360 577.88,-360 577.88,-392"/>
<text text-anchor="start" x="458.12" y="-378.5" font-family="Helvetica,sans-Serif" font-size="10.00">hybrid&#45;renderer&#45;lib</text>
<text text-anchor="middle" x="514" y="-366.5" font-family="Helvetica,sans-Serif" font-size="10.00">/include/hybrid_renderer.h</text>
</a>
</g>
</g>
<!-- Node1&#45;&gt;Node2 -->
<g id="edge1_Node000001_Node000002" class="edge">
<title>Node1&#45;&gt;Node2</title>
<g id="a_edge1_Node000001_Node000002"><a xlink:title=" ">
<path fill="none" stroke="#63b8ff" d="M555.14,-419.43C546.37,-410.38 536.59,-400.29 528.76,-392.22"/>
<polygon fill="#63b8ff" stroke="#63b8ff" points="552.63,-421.86 562.1,-426.61 557.65,-416.99 552.63,-421.86"/>
</a>
</g>
</g>
<!-- Node16 -->
<g id="Node000016" class="node">
<title>Node16</title>
<g id="a_Node000016"><a xlink:href="texture_8cpp.html" target="_top" xlink:title=" ">
<polygon fill="white" stroke="#666666" points="689.62,-392 596.38,-392 596.38,-360 689.62,-360 689.62,-392"/>
<text text-anchor="start" x="604.38" y="-378.5" font-family="Helvetica,sans-Serif" font-size="10.00">hybrid&#45;renderer&#45;lib</text>
<text text-anchor="middle" x="643" y="-366.5" font-family="Helvetica,sans-Serif" font-size="10.00">/src/texture.cpp</text>
</a>
</g>
</g>
<!-- Node1&#45;&gt;Node16 -->
<g id="edge37_Node000001_Node000016" class="edge">
<title>Node1&#45;&gt;Node16</title>
<g id="a_edge37_Node000001_Node000016"><a xlink:title=" ">
<path fill="none" stroke="#63b8ff" d="M600.94,-419.71C609.92,-410.59 619.98,-400.37 628.01,-392.22"/>
<polygon fill="#63b8ff" stroke="#63b8ff" points="598.66,-417.03 594.14,-426.61 603.65,-421.95 598.66,-417.03"/>
</a>
</g>
</g>
<!-- Node3 -->
<g id="Node000003" class="node">
<title>Node3</title>
<g id="a_Node000003"><a xlink:href="demo_8h.html" target="_top" xlink:title=" ">
<polygon fill="white" stroke="#666666" points="446.5,-318 337.5,-318 337.5,-298 446.5,-298 446.5,-318"/>
<text text-anchor="middle" x="392" y="-304.5" font-family="Helvetica,sans-Serif" font-size="10.00">demo/include/demo.h</text>
</a>
</g>
</g>
<!-- Node2&#45;&gt;Node3 -->
<g id="edge2_Node000002_Node000003" class="edge">
<title>Node2&#45;&gt;Node3</title>
<g id="a_edge2_Node000002_Node000003"><a xlink:title=" ">
<path fill="none" stroke="#63b8ff" d="M475.3,-354.06C453.2,-342.11 426.59,-327.71 409.49,-318.46"/>
<polygon fill="#63b8ff" stroke="#63b8ff" points="473.6,-357.13 484.07,-358.81 476.94,-350.97 473.6,-357.13"/>
</a>
</g>
</g>
<!-- Node4 -->
<g id="Node000004" class="node">
<title>Node4</title>
<g id="a_Node000004"><a xlink:href="raytracing_8h.html" target="_top" xlink:title=" ">
<polygon fill="white" stroke="#666666" points="477,-256 377,-256 377,-224 477,-224 477,-256"/>
<text text-anchor="start" x="385" y="-242.5" font-family="Helvetica,sans-Serif" font-size="10.00">demo/include/detail</text>
<text text-anchor="middle" x="427" y="-230.5" font-family="Helvetica,sans-Serif" font-size="10.00">/raytracing.h</text>
</a>
</g>
</g>
<!-- Node2&#45;&gt;Node4 -->
<g id="edge25_Node000002_Node000004" class="edge">
<title>Node2&#45;&gt;Node4</title>
<g id="a_edge25_Node000002_Node000004"><a xlink:title=" ">
<path fill="none" stroke="#63b8ff" d="M497.95,-350.28C480.08,-322.75 451.74,-279.11 436.86,-256.19"/>
<polygon fill="#63b8ff" stroke="#63b8ff" points="494.81,-351.88 503.2,-358.36 500.69,-348.07 494.81,-351.88"/>
</a>
</g>
</g>
<!-- Node5 -->
<g id="Node000005" class="node">
<title>Node5</title>
<g id="a_Node000005"><a xlink:href="renderer_8h.html" target="_top" xlink:title=" ">
<polygon fill="white" stroke="#666666" points="416.12,-76 295.88,-76 295.88,-56 416.12,-56 416.12,-76"/>
<text text-anchor="middle" x="356" y="-62.5" font-family="Helvetica,sans-Serif" font-size="10.00">demo/include/renderer.h</text>
</a>
</g>
</g>
<!-- Node2&#45;&gt;Node5 -->
<g id="edge29_Node000002_Node000005" class="edge">
<title>Node2&#45;&gt;Node5</title>
<g id="a_edge29_Node000002_Node000005"><a xlink:title=" ">
<path fill="none" stroke="#63b8ff" d="M438.61,-363.78C393.29,-355.33 341.79,-342.08 328,-324 268.25,-245.67 331.55,-112.72 350.81,-76.41"/>
<polygon fill="#63b8ff" stroke="#63b8ff" points="437.72,-367.18 448.18,-365.51 438.96,-360.29 437.72,-367.18"/>
</a>
</g>
</g>
<!-- Node7 -->
<g id="Node000007" class="node">
<title>Node7</title>
<g id="a_Node000007"><a xlink:href="renderer_8cpp.html" target="_top" xlink:title=" ">
<polygon fill="white" stroke="#666666" points="529.75,-20 416.25,-20 416.25,0 529.75,0 529.75,-20"/>
<text text-anchor="middle" x="473" y="-6.5" font-family="Helvetica,sans-Serif" font-size="10.00">demo/src/renderer.cpp</text>
</a>
</g>
</g>
<!-- Node2&#45;&gt;Node7 -->
<g id="edge33_Node000002_Node000007" class="edge">
<title>Node2&#45;&gt;Node7</title>
<g id="a_edge33_Node000002_Node000007"><a xlink:title=" ">
<path fill="none" stroke="#63b8ff" d="M588.65,-357.78C627.02,-347.95 669.01,-335.35 685,-324 722.12,-297.65 745,-286.52 745,-241 745,-241 745,-241 745,-121 745,-85.61 728.69,-75.27 699,-56 648.16,-23 578.34,-13.3 529.82,-10.88"/>
<polygon fill="#63b8ff" stroke="#63b8ff" points="588.26,-354.27 579.41,-360.11 589.97,-361.06 588.26,-354.27"/>
</a>
</g>
</g>
<!-- Node8 -->
<g id="Node000008" class="node">
<title>Node8</title>
<g id="a_Node000008"><a xlink:href="scene_8h.html" target="_top" xlink:title=" ">
<polygon fill="white" stroke="#666666" points="284.62,-188 173.38,-188 173.38,-168 284.62,-168 284.62,-188"/>
<text text-anchor="middle" x="229" y="-174.5" font-family="Helvetica,sans-Serif" font-size="10.00">demo/include/scene.h</text>
</a>
</g>
</g>
<!-- Node2&#45;&gt;Node8 -->
<g id="edge30_Node000002_Node000008" class="edge">
<title>Node2&#45;&gt;Node8</title>
<g id="a_edge30_Node000002_Node000008"><a xlink:title=" ">
<path fill="none" stroke="#63b8ff" d="M438.36,-364.78C384.03,-356.1 316.7,-342.16 295,-324 257.9,-292.95 272.58,-267.79 252,-224 246.1,-211.45 238.72,-197.25 233.94,-188.22"/>
<polygon fill="#63b8ff" stroke="#63b8ff" points="437.82,-368.24 448.24,-366.32 438.9,-361.33 437.82,-368.24"/>
</a>
</g>
</g>
<!-- Node9 -->
<g id="Node000009" class="node">
<title>Node9</title>
<g id="a_Node000009"><a xlink:href="subsystems_8h.html" target="_top" xlink:title=" ">
<polygon fill="white" stroke="#666666" points="593.12,-132 454.88,-132 454.88,-112 593.12,-112 593.12,-132"/>
<text text-anchor="middle" x="524" y="-118.5" font-family="Helvetica,sans-Serif" font-size="10.00">demo/include/subsystems.h</text>
</a>
</g>
</g>
<!-- Node2&#45;&gt;Node9 -->
<g id="edge31_Node000002_Node000009" class="edge">
<title>Node2&#45;&gt;Node9</title>
<g id="a_edge31_Node000002_Node000009"><a xlink:title=" ">
<path fill="none" stroke="#63b8ff" d="M588.72,-355.32C604.48,-347.91 619.5,-337.78 630,-324 667.04,-275.41 645.54,-248.93 650,-188 650.65,-179.13 655.12,-175.27 650,-168 636.82,-149.3 615.13,-138.33 593.43,-131.9"/>
<polygon fill="#63b8ff" stroke="#63b8ff" points="587.48,-352.05 579.68,-359.22 590.25,-358.47 587.48,-352.05"/>
</a>
</g>
</g>
<!-- Node10 -->
<g id="Node000010" class="node">
<title>Node10</title>
<g id="a_Node000010"><a xlink:href="subsystems_8cpp.html" target="_top" xlink:title=" ">
<polygon fill="white" stroke="#666666" points="689.75,-76 558.25,-76 558.25,-56 689.75,-56 689.75,-76"/>
<text text-anchor="middle" x="624" y="-62.5" font-family="Helvetica,sans-Serif" font-size="10.00">demo/src/subsystems.cpp</text>
</a>
</g>
</g>
<!-- Node2&#45;&gt;Node10 -->
<g id="edge35_Node000002_Node000010" class="edge">
<title>Node2&#45;&gt;Node10</title>
<g id="a_edge35_Node000002_Node000010"><a xlink:title=" ">
<path fill="none" stroke="#63b8ff" d="M587.67,-355.95C642.18,-336.9 707,-301.52 707,-241 707,-241 707,-241 707,-177 707,-131.78 661.76,-93.38 638.08,-76.37"/>
<polygon fill="#63b8ff" stroke="#63b8ff" points="586.74,-352.57 578.36,-359.06 588.96,-359.21 586.74,-352.57"/>
</a>
</g>
</g>
<!-- Node11 -->
<g id="Node000011" class="node">
<title>Node11</title>
<g id="a_Node000011"><a xlink:href="scene_8cpp.html" target="_top" xlink:title=" ">
<polygon fill="white" stroke="#666666" points="132.25,-132 27.75,-132 27.75,-112 132.25,-112 132.25,-132"/>
<text text-anchor="middle" x="80" y="-118.5" font-family="Helvetica,sans-Serif" font-size="10.00">demo/src/scene.cpp</text>
</a>
</g>
</g>
<!-- Node2&#45;&gt;Node11 -->
<g id="edge34_Node000002_Node000011" class="edge">
<title>Node2&#45;&gt;Node11</title>
<g id="a_edge34_Node000002_Node000011"><a xlink:title=" ">
<path fill="none" stroke="#63b8ff" d="M438.58,-368.8C377.54,-362.19 290.02,-349.08 217,-324 156.45,-303.2 128.29,-307.31 90,-256 61.61,-217.96 72.28,-155.56 77.65,-132.2"/>
<polygon fill="#63b8ff" stroke="#63b8ff" points="437.85,-372.24 448.16,-369.8 438.58,-365.28 437.85,-372.24"/>
</a>
</g>
</g>
<!-- Node12 -->
<g id="Node000012" class="node">
<title>Node12</title>
<g id="a_Node000012"><a xlink:href="raytracing_8cpp.html" target="_top" xlink:title=" ">
<polygon fill="white" stroke="#666666" points="640.62,-188 493.38,-188 493.38,-168 640.62,-168 640.62,-188"/>
<text text-anchor="middle" x="567" y="-174.5" font-family="Helvetica,sans-Serif" font-size="10.00">demo/src/detail/raytracing.cpp</text>
</a>
</g>
</g>
<!-- Node2&#45;&gt;Node12 -->
<g id="edge32_Node000002_Node000012" class="edge">
<title>Node2&#45;&gt;Node12</title>
<g id="a_edge32_Node000002_Node000012"><a xlink:title=" ">
<path fill="none" stroke="#63b8ff" d="M577.74,-354.56C591.34,-347.13 603.99,-337.19 612,-324 640.03,-277.81 594.31,-212.61 574.98,-188.47"/>
<polygon fill="#63b8ff" stroke="#63b8ff" points="576.49,-351.27 569.09,-358.86 579.6,-357.54 576.49,-351.27"/>
</a>
</g>
</g>
<!-- Node13 -->
<g id="Node000013" class="node">
<title>Node13</title>
<g id="a_Node000013"><a xlink:href="dispatch_8h.html" target="_top" xlink:title=" ">
<polygon fill="white" stroke="#666666" points="603,-324 503,-324 503,-292 603,-292 603,-324"/>
<text text-anchor="start" x="511" y="-310.5" font-family="Helvetica,sans-Serif" font-size="10.00">demo/include/detail</text>
<text text-anchor="middle" x="553" y="-298.5" font-family="Helvetica,sans-Serif" font-size="10.00">/dispatch.h</text>
</a>
</g>
</g>
<!-- Node2&#45;&gt;Node13 -->
<g id="edge22_Node000002_Node000013" class="edge">
<title>Node2&#45;&gt;Node13</title>
<g id="a_edge22_Node000002_Node000013"><a xlink:title=" ">
<path fill="none" stroke="#63b8ff" d="M528.76,-350.02C533.89,-341.34 539.48,-331.88 544,-324.22"/>
<polygon fill="#63b8ff" stroke="#63b8ff" points="525.89,-348 523.82,-358.39 531.92,-351.56 525.89,-348"/>
</a>
</g>
</g>
<!-- Node14 -->
<g id="Node000014" class="node">
<title>Node14</title>
<g id="a_Node000014"><a xlink:href="material_8h.html" target="_top" xlink:title=" ">
<polygon fill="white" stroke="#666666" points="242.75,-250 123.25,-250 123.25,-230 242.75,-230 242.75,-250"/>
<text text-anchor="middle" x="183" y="-236.5" font-family="Helvetica,sans-Serif" font-size="10.00">demo/include/material.h</text>
</a>
</g>
</g>
<!-- Node2&#45;&gt;Node14 -->
<g id="edge26_Node000002_Node000014" class="edge">
<title>Node2&#45;&gt;Node14</title>
<g id="a_edge26_Node000002_Node000014"><a xlink:title=" ">
<path fill="none" stroke="#63b8ff" d="M438.69,-372.64C384.96,-368.06 312.67,-355.82 257,-324 224.65,-305.51 199.02,-267.72 188.36,-250.25"/>
<polygon fill="#63b8ff" stroke="#63b8ff" points="438.11,-376.1 448.35,-373.39 438.65,-369.12 438.11,-376.1"/>
</a>
</g>
</g>
<!-- Node15 -->
<g id="Node000015" class="node">
<title>Node15</title>
<g id="a_Node000015"><a xlink:href="hybrid__renderer_8cpp.html" target="_top" xlink:title=" ">
<polygon fill="white" stroke="#666666" points="894.5,-324 773.5,-324 773.5,-292 894.5,-292 894.5,-324"/>
<text text-anchor="start" x="781.5" y="-310.5" font-family="Helvetica,sans-Serif" font-size="10.00">hybrid&#45;renderer&#45;lib</text>
<text text-anchor="middle" x="834" y="-298.5" font-family="Helvetica,sans-Serif" font-size="10.00">/src/hybrid_renderer.cpp</text>
</a>
</g>
</g>
<!-- Node2&#45;&gt;Node15 -->
<g id="edge36_Node000002_Node000015" class="edge">
<title>Node2&#45;&gt;Node15</title>
<g id="a_edge36_Node000002_Node000015"><a xlink:title=" ">
<path fill="none" stroke="#63b8ff" d="M589.32,-359.47C645.41,-347.9 721,-332.31 773.25,-321.53"/>
<polygon fill="#63b8ff" stroke="#63b8ff" points="588.94,-355.97 579.85,-361.42 590.36,-362.83 588.94,-355.97"/>
</a>
</g>
</g>
<!-- Node3&#45;&gt;Node4 -->
<g id="edge3_Node000003_Node000004" class="edge">
<title>Node3&#45;&gt;Node4</title>
<g id="a_edge3_Node000003_Node000004"><a xlink:title=" ">
<path fill="none" stroke="#63b8ff" d="M402.4,-287.39C407.67,-277.45 413.98,-265.56 418.89,-256.3"/>
<polygon fill="#63b8ff" stroke="#63b8ff" points="399.32,-285.73 397.72,-296.21 405.5,-289.01 399.32,-285.73"/>
</a>
</g>
</g>
<!-- Node6 -->
<g id="Node000006" class="node">
<title>Node6</title>
<g id="a_Node000006"><a xlink:href="main_8cpp.html" target="_top" xlink:title=" ">
<polygon fill="white" stroke="#666666" points="278.62,-20 179.38,-20 179.38,0 278.62,0 278.62,-20"/>
<text text-anchor="middle" x="229" y="-6.5" font-family="Helvetica,sans-Serif" font-size="10.00">demo/src/main.cpp</text>
</a>
</g>
</g>
<!-- Node3&#45;&gt;Node6 -->
<g id="edge20_Node000003_Node000006" class="edge">
<title>Node3&#45;&gt;Node6</title>
<g id="a_edge20_Node000003_Node000006"><a xlink:title=" ">
<path fill="none" stroke="#63b8ff" d="M325.62,-305.9C262.34,-302.57 165.72,-291.42 90,-256 42.32,-233.7 0,-231.64 0,-179 0,-179 0,-179 0,-121 0,-42.16 111.65,-19.79 179.03,-13.47"/>
<polygon fill="#63b8ff" stroke="#63b8ff" points="325.38,-309.39 335.53,-306.36 325.7,-302.4 325.38,-309.39"/>
</a>
</g>
</g>
<!-- Node3&#45;&gt;Node11 -->
<g id="edge21_Node000003_Node000011" class="edge">
<title>Node3&#45;&gt;Node11</title>
<g id="a_edge21_Node000003_Node000011"><a xlink:title=" ">
<path fill="none" stroke="#63b8ff" d="M325.81,-302.96C253.52,-297.19 144.01,-284.01 114,-256 78.11,-222.5 77.96,-156.79 79.28,-132.4"/>
<polygon fill="#63b8ff" stroke="#63b8ff" points="325.33,-306.44 335.57,-303.71 325.86,-299.46 325.33,-306.44"/>
</a>
</g>
</g>
<!-- Node3&#45;&gt;Node12 -->
<g id="edge19_Node000003_Node000012" class="edge">
<title>Node3&#45;&gt;Node12</title>
<g id="a_edge19_Node000003_Node000012"><a xlink:title=" ">
<path fill="none" stroke="#63b8ff" d="M423.27,-292.63C442.17,-283.32 466.32,-270.3 486,-256 515.19,-234.78 544.72,-203.75 558.69,-188.36"/>
<polygon fill="#63b8ff" stroke="#63b8ff" points="421.95,-289.38 414.46,-296.87 424.99,-295.68 421.95,-289.38"/>
</a>
</g>
</g>
<!-- Node4&#45;&gt;Node5 -->
<g id="edge4_Node000004_Node000005" class="edge">
<title>Node4&#45;&gt;Node5</title>
<g id="a_edge4_Node000004_Node000005"><a xlink:title=" ">
<path fill="none" stroke="#63b8ff" d="M416.36,-213.21C400.22,-174.13 370.34,-101.74 359.8,-76.21"/>
<polygon fill="#63b8ff" stroke="#63b8ff" points="413.07,-214.43 420.12,-222.34 419.54,-211.76 413.07,-214.43"/>
</a>
</g>
</g>
<!-- Node4&#45;&gt;Node6 -->
<g id="edge17_Node000004_Node000006" class="edge">
<title>Node4&#45;&gt;Node6</title>
<g id="a_edge17_Node000004_Node000006"><a xlink:title=" ">
<path fill="none" stroke="#63b8ff" d="M406.33,-215.2C363.31,-165.66 265.77,-53.34 237.08,-20.3"/>
<polygon fill="#63b8ff" stroke="#63b8ff" points="403.51,-217.29 412.71,-222.54 408.79,-212.7 403.51,-217.29"/>
</a>
</g>
</g>
<!-- Node4&#45;&gt;Node7 -->
<g id="edge18_Node000004_Node000007" class="edge">
<title>Node4&#45;&gt;Node7</title>
<g id="a_edge18_Node000004_Node000007"><a xlink:title=" ">
<path fill="none" stroke="#63b8ff" d="M430.07,-212.57C433.28,-186.77 438.84,-146.48 446,-112 453.09,-77.88 464.73,-38.13 470.11,-20.38"/>
<polygon fill="#63b8ff" stroke="#63b8ff" points="426.64,-211.8 428.91,-222.15 433.59,-212.64 426.64,-211.8"/>
</a>
</g>
</g>
<!-- Node4&#45;&gt;Node8 -->
<g id="edge7_Node000004_Node000008" class="edge">
<title>Node4&#45;&gt;Node8</title>
<g id="a_edge7_Node000004_Node000008"><a xlink:title=" ">
<path fill="none" stroke="#63b8ff" d="M365.93,-220.49C330.93,-209.89 288.48,-197.02 260.21,-188.46"/>
<polygon fill="#63b8ff" stroke="#63b8ff" points="364.49,-223.71 375.08,-223.27 366.52,-217.02 364.49,-223.71"/>
</a>
</g>
</g>
<!-- Node4&#45;&gt;Node9 -->
<g id="edge15_Node000004_Node000009" class="edge">
<title>Node4&#45;&gt;Node9</title>
<g id="a_edge15_Node000004_Node000009"><a xlink:title=" ">
<path fill="none" stroke="#63b8ff" d="M446.03,-214.68C456.97,-200.86 471.07,-183.3 484,-168 494.66,-155.38 507.4,-141.2 515.59,-132.19"/>
<polygon fill="#63b8ff" stroke="#63b8ff" points="443.39,-212.38 439.95,-222.4 448.89,-216.71 443.39,-212.38"/>
</a>
</g>
</g>
<!-- Node4&#45;&gt;Node12 -->
<g id="edge16_Node000004_Node000012" class="edge">
<title>Node4&#45;&gt;Node12</title>
<g id="a_edge16_Node000004_Node000012"><a xlink:title=" ">
<path fill="none" stroke="#63b8ff" d="M473.44,-219.1C497.57,-208.75 525.93,-196.6 545.05,-188.41"/>
<polygon fill="#63b8ff" stroke="#63b8ff" points="472.26,-215.8 464.44,-222.95 475.01,-222.23 472.26,-215.8"/>
</a>
</g>
</g>
<!-- Node5&#45;&gt;Node6 -->
<g id="edge5_Node000005_Node000006" class="edge">
<title>Node5&#45;&gt;Node6</title>
<g id="a_edge5_Node000005_Node000006"><a xlink:title=" ">
<path fill="none" stroke="#63b8ff" d="M323.4,-51.14C300.79,-41.52 271.26,-28.97 251.29,-20.48"/>
<polygon fill="#63b8ff" stroke="#63b8ff" points="321.91,-54.31 332.49,-55 324.65,-47.87 321.91,-54.31"/>
</a>
</g>
</g>
<!-- Node5&#45;&gt;Node7 -->
<g id="edge6_Node000005_Node000007" class="edge">
<title>Node5&#45;&gt;Node7</title>
<g id="a_edge6_Node000005_Node000007"><a xlink:title=" ">
<path fill="none" stroke="#63b8ff" d="M386.6,-50.88C407.36,-41.3 434.24,-28.89 452.46,-20.48"/>
<polygon fill="#63b8ff" stroke="#63b8ff" points="385.37,-47.59 377.75,-54.96 388.3,-53.95 385.37,-47.59"/>
</a>
</g>
</g>
<!-- Node8&#45;&gt;Node5 -->
<g id="edge8_Node000008_Node000005" class="edge">
<title>Node8&#45;&gt;Node5</title>
<g id="a_edge8_Node000008_Node000005"><a xlink:title=" ">
<path fill="none" stroke="#63b8ff" d="M248.46,-160.15C275.56,-136.67 323.76,-94.93 345.2,-76.35"/>
<polygon fill="#63b8ff" stroke="#63b8ff" points="246.24,-157.44 240.97,-166.63 250.82,-162.73 246.24,-157.44"/>
</a>
</g>
</g>
<!-- Node8&#45;&gt;Node6 -->
<g id="edge13_Node000008_Node000006" class="edge">
<title>Node8&#45;&gt;Node6</title>
<g id="a_edge13_Node000008_Node000006"><a xlink:title=" ">
<path fill="none" stroke="#63b8ff" d="M229,-156.5C229,-120.27 229,-46.31 229,-20.3"/>
<polygon fill="#63b8ff" stroke="#63b8ff" points="225.5,-156.09 229,-166.09 232.5,-156.09 225.5,-156.09"/>
</a>
</g>
</g>
<!-- Node8&#45;&gt;Node9 -->
<g id="edge9_Node000008_Node000009" class="edge">
<title>Node8&#45;&gt;Node9</title>
<g id="a_edge9_Node000008_Node000009"><a xlink:title=" ">
<path fill="none" stroke="#63b8ff" d="M291.83,-165.5C345.6,-155.66 422.07,-141.66 472.34,-132.46"/>
<polygon fill="#63b8ff" stroke="#63b8ff" points="291.42,-162.02 282.21,-167.26 292.68,-168.9 291.42,-162.02"/>
</a>
</g>
</g>
<!-- Node8&#45;&gt;Node11 -->
<g id="edge14_Node000008_Node000011" class="edge">
<title>Node8&#45;&gt;Node11</title>
<g id="a_edge14_Node000008_Node000011"><a xlink:title=" ">
<path fill="none" stroke="#63b8ff" d="M192.55,-163.79C165.81,-154.1 130.11,-141.16 106.16,-132.48"/>
<polygon fill="#63b8ff" stroke="#63b8ff" points="191.03,-166.96 201.62,-167.08 193.41,-160.38 191.03,-166.96"/>
</a>
</g>
</g>
<!-- Node9&#45;&gt;Node5 -->
<g id="edge10_Node000009_Node000005" class="edge">
<title>Node9&#45;&gt;Node5</title>
<g id="a_edge10_Node000009_Node000005"><a xlink:title=" ">
<path fill="none" stroke="#63b8ff" d="M484.11,-108.18C453.82,-98.44 412.86,-85.28 385.49,-76.48"/>
<polygon fill="#63b8ff" stroke="#63b8ff" points="482.7,-111.4 493.3,-111.13 484.85,-104.74 482.7,-111.4"/>
</a>
</g>
</g>
<!-- Node9&#45;&gt;Node7 -->
<g id="edge11_Node000009_Node000007" class="edge">
<title>Node9&#45;&gt;Node7</title>
<g id="a_edge11_Node000009_Node000007"><a xlink:title=" ">
<path fill="none" stroke="#63b8ff" d="M514.87,-101.3C503.8,-77.43 485.61,-38.2 477.34,-20.35"/>
<polygon fill="#63b8ff" stroke="#63b8ff" points="511.63,-102.65 519.02,-110.25 517.98,-99.7 511.63,-102.65"/>
</a>
</g>
</g>
<!-- Node9&#45;&gt;Node10 -->
<g id="edge12_Node000009_Node000010" class="edge">
<title>Node9&#45;&gt;Node10</title>
<g id="a_edge12_Node000009_Node000010"><a xlink:title=" ">
<path fill="none" stroke="#63b8ff" d="M551.13,-106.35C568.74,-96.84 591.15,-84.74 606.45,-76.48"/>
<polygon fill="#63b8ff" stroke="#63b8ff" points="549.89,-103.04 542.75,-110.87 553.21,-109.2 549.89,-103.04"/>
</a>
</g>
</g>
<!-- Node13&#45;&gt;Node4 -->
<g id="edge23_Node000013_Node000004" class="edge">
<title>Node13&#45;&gt;Node4</title>
<g id="a_edge23_Node000013_Node000004"><a xlink:title=" ">
<path fill="none" stroke="#63b8ff" d="M513.3,-286.2C494.85,-276.54 473.31,-265.26 456.36,-256.38"/>
<polygon fill="#63b8ff" stroke="#63b8ff" points="511.64,-289.28 522.12,-290.82 514.88,-283.08 511.64,-289.28"/>
</a>
</g>
</g>
<!-- Node13&#45;&gt;Node12 -->
<g id="edge24_Node000013_Node000012" class="edge">
<title>Node13&#45;&gt;Node12</title>
<g id="a_edge24_Node000013_Node000012"><a xlink:title=" ">
<path fill="none" stroke="#63b8ff" d="M555.92,-280.31C559.06,-251.57 563.89,-207.42 565.98,-188.33"/>
<polygon fill="#63b8ff" stroke="#63b8ff" points="552.46,-279.73 554.85,-290.06 559.42,-280.5 552.46,-279.73"/>
</a>
</g>
</g>
<!-- Node14&#45;&gt;Node6 -->
<g id="edge28_Node000014_Node000006" class="edge">
<title>Node14&#45;&gt;Node6</title>
<g id="a_edge28_Node000014_Node000006"><a xlink:title=" ">
<path fill="none" stroke="#63b8ff" d="M172.95,-219.88C166.7,-205.68 160.47,-185.78 164,-168 175.74,-108.97 210.04,-44.32 223.5,-20.5"/>
<polygon fill="#63b8ff" stroke="#63b8ff" points="169.63,-221.05 177.13,-228.54 175.94,-218.01 169.63,-221.05"/>
</a>
</g>
</g>
<!-- Node14&#45;&gt;Node8 -->
<g id="edge27_Node000014_Node000008" class="edge">
<title>Node14&#45;&gt;Node8</title>
<g id="a_edge27_Node000014_Node000008"><a xlink:title=" ">
<path fill="none" stroke="#63b8ff" d="M197.11,-220.6C205.37,-209.83 215.43,-196.7 222.01,-188.11"/>
<polygon fill="#63b8ff" stroke="#63b8ff" points="194.42,-218.36 191.11,-228.42 199.97,-222.62 194.42,-218.36"/>
</a>
</g>
</g>
</g>
</svg>

<g id="navigator" transform="translate(0 0)" fill="#404254">
  <rect fill="#f2f5e9" fill-opacity="0.5" stroke="#606060" stroke-width=".5" x="0" y="0" width="60" height="60"/>
  <use id="zoomplus" xlink:href="#zoomPlus" x="17" y="9" onmousedown="handleZoom(evt,'in')"/>
  <use id="zoomminus" xlink:href="#zoomMin" x="42" y="9" onmousedown="handleZoom(evt,'out')"/>
  <use id="reset" xlink:href="#resetDef" x="30" y="36" onmousedown="handleReset()"/>
   <use id="arrowup" xlink:href="#arrowUp" x="0" y="0" onmousedown="handlePan(0,-1)"/>
  <use id="arrowright" xlink:href="#arrowRight" x="0" y="0" onmousedown="handlePan(1,0)"/>
  <use id="arrowdown" xlink:href="#arrowDown" x="0" y="0" onmousedown="handlePan(0,1)"/>
  <use id="arrowleft" xlink:href="#arrowLeft" x="0" y="0" onmousedown="handlePan(-1,0)"/>
</g>
<svg viewBox="0 0 15 15" width="100%" height="30px" preserveAspectRatio="xMaxYMin meet">
 <g id="arrow_out" transform="scale(0.3 0.3)">
  <a xlink:href="texture_8h__dep__incl_org.svg" target="_base">
   <rect id="button" ry="5" rx="5" y="6" x="6" height="38" width="38"
        fill="#f2f5e9" fill-opacity="0.5" stroke="#606060" stroke-width="1.0"/>
   <path id="arrow"
     d="M 11.500037,31.436501 C 11.940474,20.09759 22.043105,11.32322 32.158766,21.979434 L 37.068811,17.246167 C 37.068811,17.246167 37.088388,32 37.088388,32 L 22.160133,31.978069 C 22.160133,31.978069 26.997745,27.140456 26.997745,27.140456 C 18.528582,18.264221 13.291696,25.230495 11.500037,31.436501 z"
     style="fill:#404040;"/>
  </a>
 </g>
</svg>

<style type='text/css'>
<![CDATA[
[data-mouse-over-selected='false'] { opacity: 0.7; }
[data-mouse-over-selected='true']  { opacity: 1.0; }
]]>
</style>
<script type="application/ecmascript"><![CDATA[
document.addEventListener('DOMContentLoaded', (event) => {
  highlightEdges();
  highlightAdjacentNodes();
});
]]></script>
</svg>
