<?xml version="1.0" encoding="UTF-8" standalone="no"?>
<!DOCTYPE svg PUBLIC "-//W3C//DTD SVG 1.1//EN"
 "http://www.w3.org/Graphics/SVG/1.1/DTD/svg11.dtd">
<!-- Generated by graphviz version 10.0.1 (20240210.2158)
 -->
<!-- Title: demo/src/ui_manager.cpp Pages: 1 -->
<svg width="532pt" height="196pt"
 viewBox="0.00 0.00 532.38 196.00" xmlns="http://www.w3.org/2000/svg" xmlns:xlink="http://www.w3.org/1999/xlink">
<g id="graph0" class="graph" transform="scale(1 1) rotate(0) translate(4 192)">
<title>demo/src/ui_manager.cpp</title>
<!-- Node1 -->
<g id="Node000001" class="node">
<title>Node1</title>
<g id="a_Node000001"><a xlink:title=" ">
<polygon fill="#999999" stroke="#666666" points="234,-188 105.5,-188 105.5,-168 234,-168 234,-188"/>
<text text-anchor="middle" x="169.75" y="-174.5" font-family="Helvetica,sans-Serif" font-size="10.00">demo/src/ui_manager.cpp</text>
</a>
</g>
</g>
<!-- Node2 -->
<g id="Node000002" class="node">
<title>Node2</title>
<g id="a_Node000002"><a xlink:href="ui__manager_8h.html" target="_top" xlink:title=" ">
<polygon fill="white" stroke="#666666" points="207,-132 132.5,-132 132.5,-112 207,-112 207,-132"/>
<text text-anchor="middle" x="169.75" y="-118.5" font-family="Helvetica,sans-Serif" font-size="10.00">ui_manager.h</text>
</a>
</g>
</g>
<!-- Node1&#45;&gt;Node2 -->
<g id="edge1_Node000001_Node000002" class="edge">
<title>Node1&#45;&gt;Node2</title>
<g id="a_edge1_Node000001_Node000002"><a xlink:title=" ">
<path fill="none" stroke="#63b8ff" d="M169.75,-167.59C169.75,-161.01 169.75,-151.96 169.75,-143.73"/>
<polygon fill="#63b8ff" stroke="#63b8ff" points="173.25,-143.81 169.75,-133.81 166.25,-143.81 173.25,-143.81"/>
</a>
</g>
</g>
<!-- Node3 -->
<g id="Node000003" class="node">
<title>Node3</title>
<g id="a_Node000003"><a xlink:title=" ">
<polygon fill="#e0e0e0" stroke="#999999" points="47.5,-76 0,-76 0,-56 47.5,-56 47.5,-76"/>
<text text-anchor="middle" x="23.75" y="-62.5" font-family="Helvetica,sans-Serif" font-size="10.00">imgui.h</text>
</a>
</g>
</g>
<!-- Node1&#45;&gt;Node3 -->
<g id="edge10_Node000001_Node000003" class="edge">
<title>Node1&#45;&gt;Node3</title>
<g id="a_edge10_Node000001_Node000003"><a xlink:title=" ">
<path fill="none" stroke="#63b8ff" d="M157.3,-167.62C132.41,-148.87 76.24,-106.55 45.27,-83.21"/>
<polygon fill="#63b8ff" stroke="#63b8ff" points="47.47,-80.49 37.38,-77.27 43.26,-86.08 47.47,-80.49"/>
</a>
</g>
</g>
<!-- Node4 -->
<g id="Node000004" class="node">
<title>Node4</title>
<g id="a_Node000004"><a xlink:title=" ">
<polygon fill="#e0e0e0" stroke="#999999" points="158,-76 65.5,-76 65.5,-56 158,-56 158,-76"/>
<text text-anchor="middle" x="111.75" y="-62.5" font-family="Helvetica,sans-Serif" font-size="10.00">imgui_impl_glfw.h</text>
</a>
</g>
</g>
<!-- Node1&#45;&gt;Node4 -->
<g id="edge11_Node000001_Node000004" class="edge">
<title>Node1&#45;&gt;Node4</title>
<g id="a_edge11_Node000001_Node000004"><a xlink:title=" ">
<path fill="none" stroke="#63b8ff" d="M156.25,-167.52C145.68,-159.35 131.52,-146.59 123.75,-132 116.47,-118.34 113.53,-101.03 112.38,-87.71"/>
<polygon fill="#63b8ff" stroke="#63b8ff" points="115.89,-87.7 111.82,-77.92 108.9,-88.1 115.89,-87.7"/>
</a>
</g>
</g>
<!-- Node5 -->
<g id="Node000005" class="node">
<title>Node5</title>
<g id="a_Node000005"><a xlink:title=" ">
<polygon fill="#e0e0e0" stroke="#999999" points="279.25,-76 176.25,-76 176.25,-56 279.25,-56 279.25,-76"/>
<text text-anchor="middle" x="227.75" y="-62.5" font-family="Helvetica,sans-Serif" font-size="10.00">imgui_impl_vulkan.h</text>
</a>
</g>
</g>
<!-- Node1&#45;&gt;Node5 -->
<g id="edge12_Node000001_Node000005" class="edge">
<title>Node1&#45;&gt;Node5</title>
<g id="a_edge12_Node000001_Node000005"><a xlink:title=" ">
<path fill="none" stroke="#63b8ff" d="M183.25,-167.52C193.82,-159.35 207.98,-146.59 215.75,-132 223.03,-118.34 225.97,-101.03 227.12,-87.71"/>
<polygon fill="#63b8ff" stroke="#63b8ff" points="230.6,-88.1 227.68,-77.92 223.61,-87.7 230.6,-88.1"/>
</a>
</g>
</g>
<!-- Node6 -->
<g id="Node000006" class="node">
<title>Node6</title>
<g id="a_Node000006"><a xlink:href="window__manager_8h.html" target="_top" xlink:title=" ">
<polygon fill="white" stroke="#666666" points="396,-76 297.5,-76 297.5,-56 396,-56 396,-76"/>
<text text-anchor="middle" x="346.75" y="-62.5" font-family="Helvetica,sans-Serif" font-size="10.00">window_manager.h</text>
</a>
</g>
</g>
<!-- Node1&#45;&gt;Node6 -->
<g id="edge13_Node000001_Node000006" class="edge">
<title>Node1&#45;&gt;Node6</title>
<g id="a_edge13_Node000001_Node000006"><a xlink:title=" ">
<path fill="none" stroke="#63b8ff" d="M184.84,-167.62C215.41,-148.63 284.88,-105.45 322.11,-82.31"/>
<polygon fill="#63b8ff" stroke="#63b8ff" points="323.77,-85.4 330.41,-77.15 320.07,-79.46 323.77,-85.4"/>
</a>
</g>
</g>
<!-- Node2&#45;&gt;Node3 -->
<g id="edge2_Node000002_Node000003" class="edge">
<title>Node2&#45;&gt;Node3</title>
<g id="a_edge2_Node000002_Node000003"><a xlink:title=" ">
<path fill="none" stroke="#63b8ff" d="M144.32,-111.59C120.59,-102.82 84.97,-89.64 58.6,-79.89"/>
<polygon fill="#63b8ff" stroke="#63b8ff" points="59.93,-76.65 49.34,-76.46 57.5,-83.22 59.93,-76.65"/>
</a>
</g>
</g>
<!-- Node2&#45;&gt;Node4 -->
<g id="edge3_Node000002_Node000004" class="edge">
<title>Node2&#45;&gt;Node4</title>
<g id="a_edge3_Node000002_Node000004"><a xlink:title=" ">
<path fill="none" stroke="#63b8ff" d="M159.65,-111.59C151.5,-104.01 139.82,-93.13 130.03,-84.02"/>
<polygon fill="#63b8ff" stroke="#63b8ff" points="132.55,-81.58 122.84,-77.33 127.78,-86.71 132.55,-81.58"/>
</a>
</g>
</g>
<!-- Node2&#45;&gt;Node5 -->
<g id="edge4_Node000002_Node000005" class="edge">
<title>Node2&#45;&gt;Node5</title>
<g id="a_edge4_Node000002_Node000005"><a xlink:title=" ">
<path fill="none" stroke="#63b8ff" d="M179.85,-111.59C188,-104.01 199.68,-93.13 209.47,-84.02"/>
<polygon fill="#63b8ff" stroke="#63b8ff" points="211.72,-86.71 216.66,-77.33 206.95,-81.58 211.72,-86.71"/>
</a>
</g>
</g>
<!-- Node2&#45;&gt;Node6 -->
<g id="edge5_Node000002_Node000006" class="edge">
<title>Node2&#45;&gt;Node6</title>
<g id="a_edge5_Node000002_Node000006"><a xlink:title=" ">
<path fill="none" stroke="#63b8ff" d="M200.58,-111.59C229.46,-102.78 272.86,-89.54 304.87,-79.78"/>
<polygon fill="#63b8ff" stroke="#63b8ff" points="305.69,-83.19 314.23,-76.92 303.64,-76.49 305.69,-83.19"/>
</a>
</g>
</g>
<!-- Node7 -->
<g id="Node000007" class="node">
<title>Node7</title>
<g id="a_Node000007"><a xlink:title=" ">
<polygon fill="#e0e0e0" stroke="#999999" points="266.88,-20 218.62,-20 218.62,0 266.88,0 266.88,-20"/>
<text text-anchor="middle" x="242.75" y="-6.5" font-family="Helvetica,sans-Serif" font-size="10.00">cassert</text>
</a>
</g>
</g>
<!-- Node6&#45;&gt;Node7 -->
<g id="edge6_Node000006_Node000007" class="edge">
<title>Node6&#45;&gt;Node7</title>
<g id="a_edge6_Node000006_Node000007"><a xlink:title=" ">
<path fill="none" stroke="#63b8ff" d="M328.63,-55.59C312.78,-47.36 289.47,-35.26 271.13,-25.74"/>
<polygon fill="#63b8ff" stroke="#63b8ff" points="272.84,-22.68 262.35,-21.18 269.61,-28.89 272.84,-22.68"/>
</a>
</g>
</g>
<!-- Node8 -->
<g id="Node000008" class="node">
<title>Node8</title>
<g id="a_Node000008"><a xlink:title=" ">
<polygon fill="#e0e0e0" stroke="#999999" points="330.38,-20 285.12,-20 285.12,0 330.38,0 330.38,-20"/>
<text text-anchor="middle" x="307.75" y="-6.5" font-family="Helvetica,sans-Serif" font-size="10.00">cstdint</text>
</a>
</g>
</g>
<!-- Node6&#45;&gt;Node8 -->
<g id="edge7_Node000006_Node000008" class="edge">
<title>Node6&#45;&gt;Node8</title>
<g id="a_edge7_Node000006_Node000008"><a xlink:title=" ">
<path fill="none" stroke="#63b8ff" d="M339.96,-55.59C334.76,-48.39 327.42,-38.23 321.06,-29.43"/>
<polygon fill="#63b8ff" stroke="#63b8ff" points="324.04,-27.58 315.35,-21.53 318.37,-31.68 324.04,-27.58"/>
</a>
</g>
</g>
<!-- Node9 -->
<g id="Node000009" class="node">
<title>Node9</title>
<g id="a_Node000009"><a xlink:title=" ">
<polygon fill="#e0e0e0" stroke="#999999" points="425.5,-20 348,-20 348,0 425.5,0 425.5,-20"/>
<text text-anchor="middle" x="386.75" y="-6.5" font-family="Helvetica,sans-Serif" font-size="10.00">GLFW/glfw3.h</text>
</a>
</g>
</g>
<!-- Node6&#45;&gt;Node9 -->
<g id="edge8_Node000006_Node000009" class="edge">
<title>Node6&#45;&gt;Node9</title>
<g id="a_edge8_Node000006_Node000009"><a xlink:title=" ">
<path fill="none" stroke="#63b8ff" d="M353.72,-55.59C359.05,-48.39 366.58,-38.23 373.1,-29.43"/>
<polygon fill="#63b8ff" stroke="#63b8ff" points="375.82,-31.63 378.96,-21.51 370.2,-27.47 375.82,-31.63"/>
</a>
</g>
</g>
<!-- Node10 -->
<g id="Node000010" class="node">
<title>Node10</title>
<g id="a_Node000010"><a xlink:title=" ">
<polygon fill="#e0e0e0" stroke="#999999" points="524.38,-20 443.12,-20 443.12,0 524.38,0 524.38,-20"/>
<text text-anchor="middle" x="483.75" y="-6.5" font-family="Helvetica,sans-Serif" font-size="10.00">vulkan/vulkan.h</text>
</a>
</g>
</g>
<!-- Node6&#45;&gt;Node10 -->
<g id="edge9_Node000006_Node000010" class="edge">
<title>Node6&#45;&gt;Node10</title>
<g id="a_edge9_Node000006_Node000010"><a xlink:title=" ">
<path fill="none" stroke="#63b8ff" d="M370.61,-55.59C392.29,-47.05 424.52,-34.35 449.04,-24.68"/>
<polygon fill="#63b8ff" stroke="#63b8ff" points="450.27,-27.96 458.29,-21.03 447.71,-21.45 450.27,-27.96"/>
</a>
</g>
</g>
</g>
</svg>
