<?xml version="1.0" encoding="UTF-8" standalone="no"?>
<!DOCTYPE svg PUBLIC "-//W3C//DTD SVG 1.1//EN"
 "http://www.w3.org/Graphics/SVG/1.1/DTD/svg11.dtd">
<!-- Generated by graphviz version 10.0.1 (20240210.2158)
 -->
<!-- Title: demo/include/ui_manager.h Pages: 1 -->
<svg width="531pt" height="140pt"
 viewBox="0.00 0.00 531.38 140.00" xmlns="http://www.w3.org/2000/svg" xmlns:xlink="http://www.w3.org/1999/xlink">
<g id="graph0" class="graph" transform="scale(1 1) rotate(0) translate(4 136)">
<title>demo/include/ui_manager.h</title>
<!-- Node1 -->
<g id="Node000001" class="node">
<title>Node1</title>
<g id="a_Node000001"><a xlink:title=" ">
<polygon fill="#999999" stroke="#666666" points="237.38,-132 102.12,-132 102.12,-112 237.38,-112 237.38,-132"/>
<text text-anchor="middle" x="169.75" y="-118.5" font-family="Helvetica,sans-Serif" font-size="10.00">demo/include/ui_manager.h</text>
</a>
</g>
</g>
<!-- Node2 -->
<g id="Node000002" class="node">
<title>Node2</title>
<g id="a_Node000002"><a xlink:title=" ">
<polygon fill="#e0e0e0" stroke="#999999" points="47.5,-76 0,-76 0,-56 47.5,-56 47.5,-76"/>
<text text-anchor="middle" x="23.75" y="-62.5" font-family="Helvetica,sans-Serif" font-size="10.00">imgui.h</text>
</a>
</g>
</g>
<!-- Node1&#45;&gt;Node2 -->
<g id="edge1_Node000001_Node000002" class="edge">
<title>Node1&#45;&gt;Node2</title>
<g id="a_edge1_Node000001_Node000002"><a xlink:title=" ">
<path fill="none" stroke="#63b8ff" d="M144.32,-111.59C120.59,-102.82 84.97,-89.64 58.6,-79.89"/>
<polygon fill="#63b8ff" stroke="#63b8ff" points="59.93,-76.65 49.34,-76.46 57.5,-83.22 59.93,-76.65"/>
</a>
</g>
</g>
<!-- Node3 -->
<g id="Node000003" class="node">
<title>Node3</title>
<g id="a_Node000003"><a xlink:title=" ">
<polygon fill="#e0e0e0" stroke="#999999" points="158,-76 65.5,-76 65.5,-56 158,-56 158,-76"/>
<text text-anchor="middle" x="111.75" y="-62.5" font-family="Helvetica,sans-Serif" font-size="10.00">imgui_impl_glfw.h</text>
</a>
</g>
</g>
<!-- Node1&#45;&gt;Node3 -->
<g id="edge2_Node000001_Node000003" class="edge">
<title>Node1&#45;&gt;Node3</title>
<g id="a_edge2_Node000001_Node000003"><a xlink:title=" ">
<path fill="none" stroke="#63b8ff" d="M159.65,-111.59C151.5,-104.01 139.82,-93.13 130.03,-84.02"/>
<polygon fill="#63b8ff" stroke="#63b8ff" points="132.55,-81.58 122.84,-77.33 127.78,-86.71 132.55,-81.58"/>
</a>
</g>
</g>
<!-- Node4 -->
<g id="Node000004" class="node">
<title>Node4</title>
<g id="a_Node000004"><a xlink:title=" ">
<polygon fill="#e0e0e0" stroke="#999999" points="279.25,-76 176.25,-76 176.25,-56 279.25,-56 279.25,-76"/>
<text text-anchor="middle" x="227.75" y="-62.5" font-family="Helvetica,sans-Serif" font-size="10.00">imgui_impl_vulkan.h</text>
</a>
</g>
</g>
<!-- Node1&#45;&gt;Node4 -->
<g id="edge3_Node000001_Node000004" class="edge">
<title>Node1&#45;&gt;Node4</title>
<g id="a_edge3_Node000001_Node000004"><a xlink:title=" ">
<path fill="none" stroke="#63b8ff" d="M179.85,-111.59C188,-104.01 199.68,-93.13 209.47,-84.02"/>
<polygon fill="#63b8ff" stroke="#63b8ff" points="211.72,-86.71 216.66,-77.33 206.95,-81.58 211.72,-86.71"/>
</a>
</g>
</g>
<!-- Node5 -->
<g id="Node000005" class="node">
<title>Node5</title>
<g id="a_Node000005"><a xlink:href="window__manager_8h.html" target="_top" xlink:title=" ">
<polygon fill="white" stroke="#666666" points="396,-76 297.5,-76 297.5,-56 396,-56 396,-76"/>
<text text-anchor="middle" x="346.75" y="-62.5" font-family="Helvetica,sans-Serif" font-size="10.00">window_manager.h</text>
</a>
</g>
</g>
<!-- Node1&#45;&gt;Node5 -->
<g id="edge4_Node000001_Node000005" class="edge">
<title>Node1&#45;&gt;Node5</title>
<g id="a_edge4_Node000001_Node000005"><a xlink:title=" ">
<path fill="none" stroke="#63b8ff" d="M200.58,-111.59C229.46,-102.78 272.86,-89.54 304.87,-79.78"/>
<polygon fill="#63b8ff" stroke="#63b8ff" points="305.69,-83.19 314.23,-76.92 303.64,-76.49 305.69,-83.19"/>
</a>
</g>
</g>
<!-- Node6 -->
<g id="Node000006" class="node">
<title>Node6</title>
<g id="a_Node000006"><a xlink:title=" ">
<polygon fill="#e0e0e0" stroke="#999999" points="265.88,-20 217.62,-20 217.62,0 265.88,0 265.88,-20"/>
<text text-anchor="middle" x="241.75" y="-6.5" font-family="Helvetica,sans-Serif" font-size="10.00">cassert</text>
</a>
</g>
</g>
<!-- Node5&#45;&gt;Node6 -->
<g id="edge5_Node000005_Node000006" class="edge">
<title>Node5&#45;&gt;Node6</title>
<g id="a_edge5_Node000005_Node000006"><a xlink:title=" ">
<path fill="none" stroke="#63b8ff" d="M328.46,-55.59C312.45,-47.36 288.92,-35.26 270.41,-25.74"/>
<polygon fill="#63b8ff" stroke="#63b8ff" points="272.02,-22.63 261.53,-21.17 268.82,-28.86 272.02,-22.63"/>
</a>
</g>
</g>
<!-- Node7 -->
<g id="Node000007" class="node">
<title>Node7</title>
<g id="a_Node000007"><a xlink:title=" ">
<polygon fill="#e0e0e0" stroke="#999999" points="329.38,-20 284.12,-20 284.12,0 329.38,0 329.38,-20"/>
<text text-anchor="middle" x="306.75" y="-6.5" font-family="Helvetica,sans-Serif" font-size="10.00">cstdint</text>
</a>
</g>
</g>
<!-- Node5&#45;&gt;Node7 -->
<g id="edge6_Node000005_Node000007" class="edge">
<title>Node5&#45;&gt;Node7</title>
<g id="a_edge6_Node000005_Node000007"><a xlink:title=" ">
<path fill="none" stroke="#63b8ff" d="M339.78,-55.59C334.45,-48.39 326.92,-38.23 320.4,-29.43"/>
<polygon fill="#63b8ff" stroke="#63b8ff" points="323.3,-27.47 314.54,-21.51 317.68,-31.63 323.3,-27.47"/>
</a>
</g>
</g>
<!-- Node8 -->
<g id="Node000008" class="node">
<title>Node8</title>
<g id="a_Node000008"><a xlink:title=" ">
<polygon fill="#e0e0e0" stroke="#999999" points="424.5,-20 347,-20 347,0 424.5,0 424.5,-20"/>
<text text-anchor="middle" x="385.75" y="-6.5" font-family="Helvetica,sans-Serif" font-size="10.00">GLFW/glfw3.h</text>
</a>
</g>
</g>
<!-- Node5&#45;&gt;Node8 -->
<g id="edge7_Node000005_Node000008" class="edge">
<title>Node5&#45;&gt;Node8</title>
<g id="a_edge7_Node000005_Node000008"><a xlink:title=" ">
<path fill="none" stroke="#63b8ff" d="M353.54,-55.59C358.74,-48.39 366.08,-38.23 372.44,-29.43"/>
<polygon fill="#63b8ff" stroke="#63b8ff" points="375.13,-31.68 378.15,-21.53 369.46,-27.58 375.13,-31.68"/>
</a>
</g>
</g>
<!-- Node9 -->
<g id="Node000009" class="node">
<title>Node9</title>
<g id="a_Node000009"><a xlink:title=" ">
<polygon fill="#e0e0e0" stroke="#999999" points="523.38,-20 442.12,-20 442.12,0 523.38,0 523.38,-20"/>
<text text-anchor="middle" x="482.75" y="-6.5" font-family="Helvetica,sans-Serif" font-size="10.00">vulkan/vulkan.h</text>
</a>
</g>
</g>
<!-- Node5&#45;&gt;Node9 -->
<g id="edge8_Node000005_Node000009" class="edge">
<title>Node5&#45;&gt;Node9</title>
<g id="a_edge8_Node000005_Node000009"><a xlink:title=" ">
<path fill="none" stroke="#63b8ff" d="M370.44,-55.59C391.95,-47.05 423.95,-34.35 448.29,-24.68"/>
<polygon fill="#63b8ff" stroke="#63b8ff" points="449.47,-27.98 457.47,-21.04 446.88,-21.48 449.47,-27.98"/>
</a>
</g>
</g>
</g>
</svg>
