<?xml version="1.0" encoding="UTF-8" standalone="no"?>
<!DOCTYPE svg PUBLIC "-//W3C//DTD SVG 1.1//EN"
 "http://www.w3.org/Graphics/SVG/1.1/DTD/svg11.dtd">
<!-- Generated by graphviz version 10.0.1 (20240210.2158)
 -->
<!-- Title: demo/include/window_manager.h Pages: 1 -->
<svg width="400pt" height="152pt"
 viewBox="0.00 0.00 399.88 152.00" xmlns="http://www.w3.org/2000/svg" xmlns:xlink="http://www.w3.org/1999/xlink">
<g id="graph0" class="graph" transform="scale(1 1) rotate(0) translate(4 148)">
<title>demo/include/window_manager.h</title>
<!-- Node1 -->
<g id="Node000001" class="node">
<title>Node1</title>
<g id="a_Node000001"><a xlink:title=" ">
<polygon fill="#999999" stroke="#666666" points="217.75,-144 109.5,-144 109.5,-112 217.75,-112 217.75,-144"/>
<text text-anchor="start" x="117.5" y="-130.5" font-family="Helvetica,sans-Serif" font-size="10.00">demo/include/window</text>
<text text-anchor="middle" x="163.62" y="-118.5" font-family="Helvetica,sans-Serif" font-size="10.00">_manager.h</text>
</a>
</g>
</g>
<!-- Node2 -->
<g id="Node000002" class="node">
<title>Node2</title>
<g id="a_Node000002"><a xlink:href="ui__manager_8h.html" target="_top" xlink:title=" ">
<polygon fill="white" stroke="#666666" points="183.25,-76 48,-76 48,-56 183.25,-56 183.25,-76"/>
<text text-anchor="middle" x="115.62" y="-62.5" font-family="Helvetica,sans-Serif" font-size="10.00">demo/include/ui_manager.h</text>
</a>
</g>
</g>
<!-- Node1&#45;&gt;Node2 -->
<g id="edge1_Node000001_Node000002" class="edge">
<title>Node1&#45;&gt;Node2</title>
<g id="a_edge1_Node000001_Node000002"><a xlink:title=" ">
<path fill="none" stroke="#63b8ff" d="M144.18,-102.69C136.79,-93.45 128.79,-83.46 123.15,-76.41"/>
<polygon fill="#63b8ff" stroke="#63b8ff" points="141.34,-104.74 150.32,-110.37 146.8,-100.37 141.34,-104.74"/>
</a>
</g>
</g>
<!-- Node3 -->
<g id="Node000003" class="node">
<title>Node3</title>
<g id="a_Node000003"><a xlink:href="main_8cpp.html" target="_top" xlink:title=" ">
<polygon fill="white" stroke="#666666" points="99.25,-20 0,-20 0,0 99.25,0 99.25,-20"/>
<text text-anchor="middle" x="49.62" y="-6.5" font-family="Helvetica,sans-Serif" font-size="10.00">demo/src/main.cpp</text>
</a>
</g>
</g>
<!-- Node1&#45;&gt;Node3 -->
<g id="edge4_Node000001_Node000003" class="edge">
<title>Node1&#45;&gt;Node3</title>
<g id="a_edge4_Node000001_Node000003"><a xlink:title=" ">
<path fill="none" stroke="#63b8ff" d="M98.43,-115.91C75.6,-108.55 52.28,-96.32 38.62,-76 27.13,-58.9 37.24,-33.71 44.25,-20.26"/>
<polygon fill="#63b8ff" stroke="#63b8ff" points="97.17,-119.18 107.75,-118.62 99.13,-112.46 97.17,-119.18"/>
</a>
</g>
</g>
<!-- Node4 -->
<g id="Node000004" class="node">
<title>Node4</title>
<g id="a_Node000004"><a xlink:href="ui__manager_8cpp.html" target="_top" xlink:title=" ">
<polygon fill="white" stroke="#666666" points="260.88,-20 132.38,-20 132.38,0 260.88,0 260.88,-20"/>
<text text-anchor="middle" x="196.62" y="-6.5" font-family="Helvetica,sans-Serif" font-size="10.00">demo/src/ui_manager.cpp</text>
</a>
</g>
</g>
<!-- Node1&#45;&gt;Node4 -->
<g id="edge5_Node000001_Node000004" class="edge">
<title>Node1&#45;&gt;Node4</title>
<g id="a_edge5_Node000001_Node000004"><a xlink:title=" ">
<path fill="none" stroke="#63b8ff" d="M180.82,-102.03C185.48,-94.05 189.96,-84.96 192.62,-76 198.3,-56.93 198.06,-33.36 197.36,-20.49"/>
<polygon fill="#63b8ff" stroke="#63b8ff" points="177.87,-100.14 175.55,-110.48 183.81,-103.85 177.87,-100.14"/>
</a>
</g>
</g>
<!-- Node5 -->
<g id="Node000005" class="node">
<title>Node5</title>
<g id="a_Node000005"><a xlink:href="window__manager_8cpp.html" target="_top" xlink:title=" ">
<polygon fill="white" stroke="#666666" points="391.88,-76 239.38,-76 239.38,-56 391.88,-56 391.88,-76"/>
<text text-anchor="middle" x="315.62" y="-62.5" font-family="Helvetica,sans-Serif" font-size="10.00">demo/src/window_manager.cpp</text>
</a>
</g>
</g>
<!-- Node1&#45;&gt;Node5 -->
<g id="edge6_Node000001_Node000005" class="edge">
<title>Node1&#45;&gt;Node5</title>
<g id="a_edge6_Node000001_Node000005"><a xlink:title=" ">
<path fill="none" stroke="#63b8ff" d="M213.35,-107.37C239.7,-96.97 270.85,-84.67 291.79,-76.41"/>
<polygon fill="#63b8ff" stroke="#63b8ff" points="212.19,-104.07 204.18,-110.99 214.76,-110.58 212.19,-104.07"/>
</a>
</g>
</g>
<!-- Node2&#45;&gt;Node3 -->
<g id="edge2_Node000002_Node000003" class="edge">
<title>Node2&#45;&gt;Node3</title>
<g id="a_edge2_Node000002_Node000003"><a xlink:title=" ">
<path fill="none" stroke="#63b8ff" d="M95.34,-48.4C84.05,-39.17 70.41,-28.01 60.99,-20.3"/>
<polygon fill="#63b8ff" stroke="#63b8ff" points="93,-51.01 102.96,-54.64 97.43,-45.59 93,-51.01"/>
</a>
</g>
</g>
<!-- Node2&#45;&gt;Node4 -->
<g id="edge3_Node000002_Node000004" class="edge">
<title>Node2&#45;&gt;Node4</title>
<g id="a_edge3_Node000002_Node000004"><a xlink:title=" ">
<path fill="none" stroke="#63b8ff" d="M139.22,-49.27C153.21,-39.94 170.48,-28.43 182.41,-20.48"/>
<polygon fill="#63b8ff" stroke="#63b8ff" points="137.37,-46.3 130.99,-54.75 141.26,-52.12 137.37,-46.3"/>
</a>
</g>
</g>
</g>
</svg>
