<?xml version="1.0" encoding="UTF-8" standalone="no"?>
<!DOCTYPE svg PUBLIC "-//W3C//DTD SVG 1.1//EN"
 "http://www.w3.org/Graphics/SVG/1.1/DTD/svg11.dtd">
<!-- Generated by graphviz version 10.0.1 (20240210.2158)
 -->
<!-- Title: demo/src/window_manager.cpp Pages: 1 -->
<svg width="314pt" height="140pt"
 viewBox="0.00 0.00 313.75 140.00" xmlns="http://www.w3.org/2000/svg" xmlns:xlink="http://www.w3.org/1999/xlink">
<g id="graph0" class="graph" transform="scale(1 1) rotate(0) translate(4 136)">
<title>demo/src/window_manager.cpp</title>
<!-- Node1 -->
<g id="Node000001" class="node">
<title>Node1</title>
<g id="a_Node000001"><a xlink:title=" ">
<polygon fill="#999999" stroke="#666666" points="223.38,-132 70.88,-132 70.88,-112 223.38,-112 223.38,-132"/>
<text text-anchor="middle" x="147.12" y="-118.5" font-family="Helvetica,sans-Serif" font-size="10.00">demo/src/window_manager.cpp</text>
</a>
</g>
</g>
<!-- Node2 -->
<g id="Node000002" class="node">
<title>Node2</title>
<g id="a_Node000002"><a xlink:href="window__manager_8h.html" target="_top" xlink:title=" ">
<polygon fill="white" stroke="#666666" points="196.38,-76 97.88,-76 97.88,-56 196.38,-56 196.38,-76"/>
<text text-anchor="middle" x="147.12" y="-62.5" font-family="Helvetica,sans-Serif" font-size="10.00">window_manager.h</text>
</a>
</g>
</g>
<!-- Node1&#45;&gt;Node2 -->
<g id="edge1_Node000001_Node000002" class="edge">
<title>Node1&#45;&gt;Node2</title>
<g id="a_edge1_Node000001_Node000002"><a xlink:title=" ">
<path fill="none" stroke="#63b8ff" d="M147.12,-111.59C147.12,-105.01 147.12,-95.96 147.12,-87.73"/>
<polygon fill="#63b8ff" stroke="#63b8ff" points="150.63,-87.81 147.13,-77.81 143.63,-87.81 150.63,-87.81"/>
</a>
</g>
</g>
<!-- Node3 -->
<g id="Node000003" class="node">
<title>Node3</title>
<g id="a_Node000003"><a xlink:title=" ">
<polygon fill="#e0e0e0" stroke="#999999" points="48.25,-20 0,-20 0,0 48.25,0 48.25,-20"/>
<text text-anchor="middle" x="24.12" y="-6.5" font-family="Helvetica,sans-Serif" font-size="10.00">cassert</text>
</a>
</g>
</g>
<!-- Node1&#45;&gt;Node3 -->
<g id="edge6_Node000001_Node000003" class="edge">
<title>Node1&#45;&gt;Node3</title>
<g id="a_edge6_Node000001_Node000003"><a xlink:title=" ">
<path fill="none" stroke="#63b8ff" d="M130.55,-111.58C116.42,-103.17 95.95,-90.04 80.12,-76 63.98,-61.68 48.18,-42.76 37.5,-29.02"/>
<polygon fill="#63b8ff" stroke="#63b8ff" points="40.45,-27.13 31.61,-21.29 34.88,-31.36 40.45,-27.13"/>
</a>
</g>
</g>
<!-- Node4 -->
<g id="Node000004" class="node">
<title>Node4</title>
<g id="a_Node000004"><a xlink:title=" ">
<polygon fill="#e0e0e0" stroke="#999999" points="111.75,-20 66.5,-20 66.5,0 111.75,0 111.75,-20"/>
<text text-anchor="middle" x="89.12" y="-6.5" font-family="Helvetica,sans-Serif" font-size="10.00">cstdint</text>
</a>
</g>
</g>
<!-- Node1&#45;&gt;Node4 -->
<g id="edge7_Node000001_Node000004" class="edge">
<title>Node1&#45;&gt;Node4</title>
<g id="a_edge7_Node000001_Node000004"><a xlink:title=" ">
<path fill="none" stroke="#63b8ff" d="M127.03,-111.52C113.58,-103.98 96.97,-92.02 89.12,-76 82.43,-62.33 82.79,-45.02 84.63,-31.7"/>
<polygon fill="#63b8ff" stroke="#63b8ff" points="88.07,-32.35 86.4,-21.89 81.18,-31.11 88.07,-32.35"/>
</a>
</g>
</g>
<!-- Node5 -->
<g id="Node000005" class="node">
<title>Node5</title>
<g id="a_Node000005"><a xlink:title=" ">
<polygon fill="#e0e0e0" stroke="#999999" points="206.88,-20 129.38,-20 129.38,0 206.88,0 206.88,-20"/>
<text text-anchor="middle" x="168.12" y="-6.5" font-family="Helvetica,sans-Serif" font-size="10.00">GLFW/glfw3.h</text>
</a>
</g>
</g>
<!-- Node1&#45;&gt;Node5 -->
<g id="edge8_Node000001_Node000005" class="edge">
<title>Node1&#45;&gt;Node5</title>
<g id="a_edge8_Node000001_Node000005"><a xlink:title=" ">
<path fill="none" stroke="#63b8ff" d="M167.22,-111.52C180.67,-103.98 197.28,-92.02 205.12,-76 213.28,-59.36 200.84,-41.07 188.23,-28.14"/>
<polygon fill="#63b8ff" stroke="#63b8ff" points="190.91,-25.85 181.24,-21.53 186.1,-30.94 190.91,-25.85"/>
</a>
</g>
</g>
<!-- Node6 -->
<g id="Node000006" class="node">
<title>Node6</title>
<g id="a_Node000006"><a xlink:title=" ">
<polygon fill="#e0e0e0" stroke="#999999" points="305.75,-20 224.5,-20 224.5,0 305.75,0 305.75,-20"/>
<text text-anchor="middle" x="265.12" y="-6.5" font-family="Helvetica,sans-Serif" font-size="10.00">vulkan/vulkan.h</text>
</a>
</g>
</g>
<!-- Node1&#45;&gt;Node6 -->
<g id="edge9_Node000001_Node000006" class="edge">
<title>Node1&#45;&gt;Node6</title>
<g id="a_edge9_Node000001_Node000006"><a xlink:title=" ">
<path fill="none" stroke="#63b8ff" d="M166.92,-111.66C182.53,-103.66 204.24,-91.06 220.12,-76 234.27,-62.59 246.57,-44.05 254.72,-30.2"/>
<polygon fill="#63b8ff" stroke="#63b8ff" points="257.7,-32.04 259.58,-21.61 251.61,-28.59 257.7,-32.04"/>
</a>
</g>
</g>
<!-- Node2&#45;&gt;Node3 -->
<g id="edge2_Node000002_Node000003" class="edge">
<title>Node2&#45;&gt;Node3</title>
<g id="a_edge2_Node000002_Node000003"><a xlink:title=" ">
<path fill="none" stroke="#63b8ff" d="M125.7,-55.59C106.5,-47.17 78.08,-34.69 56.18,-25.07"/>
<polygon fill="#63b8ff" stroke="#63b8ff" points="57.67,-21.9 47.1,-21.09 54.85,-28.31 57.67,-21.9"/>
</a>
</g>
</g>
<!-- Node2&#45;&gt;Node4 -->
<g id="edge3_Node000002_Node000004" class="edge">
<title>Node2&#45;&gt;Node4</title>
<g id="a_edge3_Node000002_Node000004"><a xlink:title=" ">
<path fill="none" stroke="#63b8ff" d="M137.02,-55.59C128.87,-48.01 117.19,-37.13 107.41,-28.02"/>
<polygon fill="#63b8ff" stroke="#63b8ff" points="109.92,-25.58 100.22,-21.33 105.15,-30.71 109.92,-25.58"/>
</a>
</g>
</g>
<!-- Node2&#45;&gt;Node5 -->
<g id="edge4_Node000002_Node000005" class="edge">
<title>Node2&#45;&gt;Node5</title>
<g id="a_edge4_Node000002_Node000005"><a xlink:title=" ">
<path fill="none" stroke="#63b8ff" d="M150.78,-55.59C153.43,-48.78 157.11,-39.32 160.4,-30.86"/>
<polygon fill="#63b8ff" stroke="#63b8ff" points="163.6,-32.3 163.96,-21.71 157.07,-29.76 163.6,-32.3"/>
</a>
</g>
</g>
<!-- Node2&#45;&gt;Node6 -->
<g id="edge5_Node000002_Node000006" class="edge">
<title>Node2&#45;&gt;Node6</title>
<g id="a_edge5_Node000002_Node000006"><a xlink:title=" ">
<path fill="none" stroke="#63b8ff" d="M167.68,-55.59C186.01,-47.21 213.11,-34.8 234.08,-25.21"/>
<polygon fill="#63b8ff" stroke="#63b8ff" points="235.4,-28.45 243.03,-21.11 232.48,-22.09 235.4,-28.45"/>
</a>
</g>
</g>
</g>
</svg>
