<?xml version="1.0" encoding="UTF-8" standalone="no"?>
<!DOCTYPE svg PUBLIC "-//W3C//DTD SVG 1.1//EN"
 "http://www.w3.org/Graphics/SVG/1.1/DTD/svg11.dtd">
<!-- Generated by graphviz version 10.0.1 (20240210.2158)
 -->
<!-- Title: demo/include/window_manager.h Pages: 1 -->
<svg width="314pt" height="96pt"
 viewBox="0.00 0.00 313.75 96.00" xmlns="http://www.w3.org/2000/svg" xmlns:xlink="http://www.w3.org/1999/xlink">
<g id="graph0" class="graph" transform="scale(1 1) rotate(0) translate(4 92)">
<title>demo/include/window_manager.h</title>
<!-- Node1 -->
<g id="Node000001" class="node">
<title>Node1</title>
<g id="a_Node000001"><a xlink:title=" ">
<polygon fill="#999999" stroke="#666666" points="182.25,-88 74,-88 74,-56 182.25,-56 182.25,-88"/>
<text text-anchor="start" x="82" y="-74.5" font-family="Helvetica,sans-Serif" font-size="10.00">demo/include/window</text>
<text text-anchor="middle" x="128.12" y="-62.5" font-family="Helvetica,sans-Serif" font-size="10.00">_manager.h</text>
</a>
</g>
</g>
<!-- Node2 -->
<g id="Node000002" class="node">
<title>Node2</title>
<g id="a_Node000002"><a xlink:title=" ">
<polygon fill="#e0e0e0" stroke="#999999" points="48.25,-20 0,-20 0,0 48.25,0 48.25,-20"/>
<text text-anchor="middle" x="24.12" y="-6.5" font-family="Helvetica,sans-Serif" font-size="10.00">cassert</text>
</a>
</g>
</g>
<!-- Node1&#45;&gt;Node2 -->
<g id="edge1_Node000001_Node000002" class="edge">
<title>Node1&#45;&gt;Node2</title>
<g id="a_edge1_Node000001_Node000002"><a xlink:title=" ">
<path fill="none" stroke="#63b8ff" d="M101.34,-55.55C85.54,-46.43 65.65,-34.96 50.01,-25.93"/>
<polygon fill="#63b8ff" stroke="#63b8ff" points="52.15,-23.13 41.74,-21.16 48.66,-29.19 52.15,-23.13"/>
</a>
</g>
</g>
<!-- Node3 -->
<g id="Node000003" class="node">
<title>Node3</title>
<g id="a_Node000003"><a xlink:title=" ">
<polygon fill="#e0e0e0" stroke="#999999" points="111.75,-20 66.5,-20 66.5,0 111.75,0 111.75,-20"/>
<text text-anchor="middle" x="89.12" y="-6.5" font-family="Helvetica,sans-Serif" font-size="10.00">cstdint</text>
</a>
</g>
</g>
<!-- Node1&#45;&gt;Node3 -->
<g id="edge2_Node000001_Node000003" class="edge">
<title>Node1&#45;&gt;Node3</title>
<g id="a_edge2_Node000001_Node000003"><a xlink:title=" ">
<path fill="none" stroke="#63b8ff" d="M118.08,-55.55C113,-47.74 106.8,-38.19 101.43,-29.94"/>
<polygon fill="#63b8ff" stroke="#63b8ff" points="104.45,-28.15 96.07,-21.68 98.58,-31.97 104.45,-28.15"/>
</a>
</g>
</g>
<!-- Node4 -->
<g id="Node000004" class="node">
<title>Node4</title>
<g id="a_Node000004"><a xlink:title=" ">
<polygon fill="#e0e0e0" stroke="#999999" points="206.88,-20 129.38,-20 129.38,0 206.88,0 206.88,-20"/>
<text text-anchor="middle" x="168.12" y="-6.5" font-family="Helvetica,sans-Serif" font-size="10.00">GLFW/glfw3.h</text>
</a>
</g>
</g>
<!-- Node1&#45;&gt;Node4 -->
<g id="edge3_Node000001_Node000004" class="edge">
<title>Node1&#45;&gt;Node4</title>
<g id="a_edge3_Node000001_Node000004"><a xlink:title=" ">
<path fill="none" stroke="#63b8ff" d="M138.43,-55.55C143.63,-47.74 150,-38.19 155.5,-29.94"/>
<polygon fill="#63b8ff" stroke="#63b8ff" points="158.38,-31.93 161.01,-21.67 152.55,-28.05 158.38,-31.93"/>
</a>
</g>
</g>
<!-- Node5 -->
<g id="Node000005" class="node">
<title>Node5</title>
<g id="a_Node000005"><a xlink:title=" ">
<polygon fill="#e0e0e0" stroke="#999999" points="305.75,-20 224.5,-20 224.5,0 305.75,0 305.75,-20"/>
<text text-anchor="middle" x="265.12" y="-6.5" font-family="Helvetica,sans-Serif" font-size="10.00">vulkan/vulkan.h</text>
</a>
</g>
</g>
<!-- Node1&#45;&gt;Node5 -->
<g id="edge4_Node000001_Node000005" class="edge">
<title>Node1&#45;&gt;Node5</title>
<g id="a_edge4_Node000001_Node000005"><a xlink:title=" ">
<path fill="none" stroke="#63b8ff" d="M163.41,-55.55C185.01,-46.09 212.43,-34.08 233.36,-24.91"/>
<polygon fill="#63b8ff" stroke="#63b8ff" points="234.5,-28.23 242.26,-21.02 231.69,-21.82 234.5,-28.23"/>
</a>
</g>
</g>
</g>
</svg>
